<?xml version="1.0" encoding="utf-8" standalone="no"?>
<!DOCTYPE svg PUBLIC "-//W3C//DTD SVG 1.1//EN"
  "http://www.w3.org/Graphics/SVG/1.1/DTD/svg11.dtd">
<svg xmlns:xlink="http://www.w3.org/1999/xlink" width="291.256307pt" height="381.6pt" viewBox="0 0 291.256307 381.6" xmlns="http://www.w3.org/2000/svg" version="1.1">
 <metadata>
  <rdf:RDF xmlns:dc="http://purl.org/dc/elements/1.1/" xmlns:cc="http://creativecommons.org/ns#" xmlns:rdf="http://www.w3.org/1999/02/22-rdf-syntax-ns#">
   <cc:Work>
    <dc:type rdf:resource="http://purl.org/dc/dcmitype/StillImage"/>
    <dc:date>2026-07-12T07:33:16.914354</dc:date>
    <dc:format>image/svg+xml</dc:format>
    <dc:creator>
     <cc:Agent>
      <dc:title>Matplotlib v3.11.0, https://matplotlib.org/</dc:title>
     </cc:Agent>
    </dc:creator>
   </cc:Work>
  </rdf:RDF>
 </metadata>
 <defs>
  <style type="text/css">*{stroke-linejoin: round; stroke-linecap: butt}</style>
 </defs>
 <g id="figure_1">
  <g id="patch_1">
   <path d="M 0 381.6 
L 291.256307 381.6 
L 291.256307 -0 
L 0 -0 
z
" style="fill: #ffffff"/>
  </g>
  <g id="axes_1">
   <g id="line2d_1">
    <path d="M 87.558361 125.97115 
L 87.558361 197.122304 
" clip-path="url(#pd007f2f5e1)" style="fill: none; stroke: #6b7280; stroke-width: 1.4; stroke-linecap: square"/>
   </g>
   <g id="line2d_2">
    <path d="M 87.558361 197.122304 
L 34.194996 268.273458 
" clip-path="url(#pd007f2f5e1)" style="fill: none; stroke: #6b7280; stroke-width: 1.4; stroke-linecap: square"/>
   </g>
   <g id="line2d_3">
    <path d="M 87.558361 197.122304 
L 69.770573 268.273458 
" clip-path="url(#pd007f2f5e1)" style="fill: none; stroke: #6b7280; stroke-width: 1.4; stroke-linecap: square"/>
   </g>
   <g id="line2d_4">
    <path d="M 87.558361 197.122304 
L 105.34615 268.273458 
" clip-path="url(#pd007f2f5e1)" style="fill: none; stroke: #6b7280; stroke-width: 1.4; stroke-linecap: square"/>
   </g>
   <g id="line2d_5">
    <path d="M 87.558361 197.122304 
L 140.921727 268.273458 
" clip-path="url(#pd007f2f5e1)" style="fill: none; stroke: #6b7280; stroke-width: 1.4; stroke-linecap: square"/>
   </g>
   <g id="line2d_6">
    <path d="M 140.921727 268.273458 
L 51.982785 339.424611 
" clip-path="url(#pd007f2f5e1)" style="fill: none; stroke: #6b7280; stroke-width: 1.4; stroke-linecap: square"/>
   </g>
   <g id="line2d_7">
    <path d="M 140.921727 268.273458 
L 87.558361 339.424611 
" clip-path="url(#pd007f2f5e1)" style="fill: none; stroke: #6b7280; stroke-width: 1.4; stroke-linecap: square"/>
   </g>
   <g id="line2d_8">
    <path d="M 140.921727 268.273458 
L 123.133938 339.424611 
" clip-path="url(#pd007f2f5e1)" style="fill: none; stroke: #6b7280; stroke-width: 1.4; stroke-linecap: square"/>
   </g>
   <g id="line2d_9">
    <path d="M 87.558361 54.819996 
L 87.558361 125.97115 
" clip-path="url(#pd007f2f5e1)" style="fill: none; stroke: #6b7280; stroke-width: 1.4; stroke-linecap: square"/>
   </g>
   <g id="patch_2">
    <path d="M 87.558361 96.130356 
C 89.079244 96.130356 90.538039 95.526103 91.613465 94.450677 
C 92.688892 93.375251 93.293144 91.916455 93.293144 90.395573 
C 93.293144 88.874691 92.688892 87.415895 91.613465 86.340469 
C 90.538039 85.265043 89.079244 84.66079 87.558361 84.66079 
C 86.037479 84.66079 84.578684 85.265043 83.503258 86.340469 
C 82.427831 87.415895 81.823579 88.874691 81.823579 90.395573 
C 81.823579 91.916455 82.427831 93.375251 83.503258 94.450677 
C 84.578684 95.526103 86.037479 96.130356 87.558361 96.130356 
z
" clip-path="url(#pd007f2f5e1)" style="fill: #ffffff; stroke: #6b7280; stroke-width: 0.8; stroke-linejoin: miter"/>
   </g>
   <g id="patch_3">
    <path d="M 87.558361 64.069646 
C 90.011397 64.069646 92.364293 63.095045 94.098852 61.360486 
C 95.83341 59.625928 96.808011 57.273032 96.808011 54.819996 
C 96.808011 52.36696 95.83341 50.014064 94.098852 48.279506 
C 92.364293 46.544948 90.011397 45.570346 87.558361 45.570346 
C 85.105326 45.570346 82.75243 46.544948 81.017871 48.279506 
C 79.283313 50.014064 78.308712 52.36696 78.308712 54.819996 
C 78.308712 57.273032 79.283313 59.625928 81.017871 61.360486 
C 82.75243 63.095045 85.105326 64.069646 87.558361 64.069646 
z
" clip-path="url(#pd007f2f5e1)" style="fill: #059669; stroke: #ffffff; stroke-width: 1.6; stroke-linejoin: miter"/>
   </g>
   <g id="patch_4">
    <path d="M 87.558361 135.2208 
C 90.011397 135.2208 92.364293 134.246198 94.098852 132.51164 
C 95.83341 130.777082 96.808011 128.424186 96.808011 125.97115 
C 96.808011 123.518114 95.83341 121.165218 94.098852 119.43066 
C 92.364293 117.696101 90.011397 116.7215 87.558361 116.7215 
C 85.105326 116.7215 82.75243 117.696101 81.017871 119.43066 
C 79.283313 121.165218 78.308712 123.518114 78.308712 125.97115 
C 78.308712 128.424186 79.283313 130.777082 81.017871 132.51164 
C 82.75243 134.246198 85.105326 135.2208 87.558361 135.2208 
z
" clip-path="url(#pd007f2f5e1)" style="fill: #059669; stroke: #ffffff; stroke-width: 1.6; stroke-linejoin: miter"/>
   </g>
   <g id="patch_5">
    <path d="M 87.558361 206.371954 
C 90.011397 206.371954 92.364293 205.397352 94.098852 203.662794 
C 95.83341 201.928236 96.808011 199.57534 96.808011 197.122304 
C 96.808011 194.669268 95.83341 192.316372 94.098852 190.581814 
C 92.364293 188.847255 90.011397 187.872654 87.558361 187.872654 
C 85.105326 187.872654 82.75243 188.847255 81.017871 190.581814 
C 79.283313 192.316372 78.308712 194.669268 78.308712 197.122304 
C 78.308712 199.57534 79.283313 201.928236 81.017871 203.662794 
C 82.75243 205.397352 85.105326 206.371954 87.558361 206.371954 
z
" clip-path="url(#pd007f2f5e1)" style="fill: #059669; stroke: #ffffff; stroke-width: 1.6; stroke-linejoin: miter"/>
   </g>
   <g id="patch_6">
    <path d="M 34.194996 277.523108 
C 36.648032 277.523108 39.000928 276.548506 40.735486 274.813948 
C 42.470045 273.07939 43.444646 270.726493 43.444646 268.273458 
C 43.444646 265.820422 42.470045 263.467526 40.735486 261.732967 
C 39.000928 259.998409 36.648032 259.023808 34.194996 259.023808 
C 31.74196 259.023808 29.389064 259.998409 27.654506 261.732967 
C 25.919948 263.467526 24.945346 265.820422 24.945346 268.273458 
C 24.945346 270.726493 25.919948 273.07939 27.654506 274.813948 
C 29.389064 276.548506 31.74196 277.523108 34.194996 277.523108 
z
" clip-path="url(#pd007f2f5e1)" style="fill: #059669; stroke: #ffffff; stroke-width: 1.6; stroke-linejoin: miter"/>
   </g>
   <g id="patch_7">
    <path d="M 69.770573 277.523108 
C 72.223609 277.523108 74.576505 276.548506 76.311063 274.813948 
C 78.045622 273.07939 79.020223 270.726493 79.020223 268.273458 
C 79.020223 265.820422 78.045622 263.467526 76.311063 261.732967 
C 74.576505 259.998409 72.223609 259.023808 69.770573 259.023808 
C 67.317537 259.023808 64.964641 259.998409 63.230083 261.732967 
C 61.495525 263.467526 60.520923 265.820422 60.520923 268.273458 
C 60.520923 270.726493 61.495525 273.07939 63.230083 274.813948 
C 64.964641 276.548506 67.317537 277.523108 69.770573 277.523108 
z
" clip-path="url(#pd007f2f5e1)" style="fill: #059669; stroke: #ffffff; stroke-width: 1.6; stroke-linejoin: miter"/>
   </g>
   <g id="patch_8">
    <path d="M 105.34615 277.523108 
C 107.799186 277.523108 110.152082 276.548506 111.88664 274.813948 
C 113.621198 273.07939 114.5958 270.726493 114.5958 268.273458 
C 114.5958 265.820422 113.621198 263.467526 111.88664 261.732967 
C 110.152082 259.998409 107.799186 259.023808 105.34615 259.023808 
C 102.893114 259.023808 100.540218 259.998409 98.80566 261.732967 
C 97.071101 263.467526 96.0965 265.820422 96.0965 268.273458 
C 96.0965 270.726493 97.071101 273.07939 98.80566 274.813948 
C 100.540218 276.548506 102.893114 277.523108 105.34615 277.523108 
z
" clip-path="url(#pd007f2f5e1)" style="fill: #ea580c; stroke: #ffffff; stroke-width: 1.6; stroke-linejoin: miter"/>
   </g>
   <g id="patch_9">
    <path d="M 140.921727 277.523108 
C 143.374763 277.523108 145.727659 276.548506 147.462217 274.813948 
C 149.196775 273.07939 150.171377 270.726493 150.171377 268.273458 
C 150.171377 265.820422 149.196775 263.467526 147.462217 261.732967 
C 145.727659 259.998409 143.374763 259.023808 140.921727 259.023808 
C 138.468691 259.023808 136.115795 259.998409 134.381237 261.732967 
C 132.646678 263.467526 131.672077 265.820422 131.672077 268.273458 
C 131.672077 270.726493 132.646678 273.07939 134.381237 274.813948 
C 136.115795 276.548506 138.468691 277.523108 140.921727 277.523108 
z
" clip-path="url(#pd007f2f5e1)" style="fill: #ea580c; stroke: #ffffff; stroke-width: 1.6; stroke-linejoin: miter"/>
   </g>
   <g id="patch_10">
    <path d="M 51.982785 348.674261 
C 54.43582 348.674261 56.788717 347.69966 58.523275 345.965102 
C 60.257833 344.230543 61.232435 341.877647 61.232435 339.424611 
C 61.232435 336.971576 60.257833 334.618679 58.523275 332.884121 
C 56.788717 331.149563 54.43582 330.174961 51.982785 330.174961 
C 49.529749 330.174961 47.176853 331.149563 45.442294 332.884121 
C 43.707736 334.618679 42.733135 336.971576 42.733135 339.424611 
C 42.733135 341.877647 43.707736 344.230543 45.442294 345.965102 
C 47.176853 347.69966 49.529749 348.674261 51.982785 348.674261 
z
" clip-path="url(#pd007f2f5e1)" style="fill: #059669; stroke: #ffffff; stroke-width: 1.6; stroke-linejoin: miter"/>
   </g>
   <g id="patch_11">
    <path d="M 87.558361 348.674261 
C 90.011397 348.674261 92.364293 347.69966 94.098852 345.965102 
C 95.83341 344.230543 96.808011 341.877647 96.808011 339.424611 
C 96.808011 336.971576 95.83341 334.618679 94.098852 332.884121 
C 92.364293 331.149563 90.011397 330.174961 87.558361 330.174961 
C 85.105326 330.174961 82.75243 331.149563 81.017871 332.884121 
C 79.283313 334.618679 78.308712 336.971576 78.308712 339.424611 
C 78.308712 341.877647 79.283313 344.230543 81.017871 345.965102 
C 82.75243 347.69966 85.105326 348.674261 87.558361 348.674261 
z
" clip-path="url(#pd007f2f5e1)" style="fill: #ea580c; stroke: #ffffff; stroke-width: 1.6; stroke-linejoin: miter"/>
   </g>
   <g id="patch_12">
    <path d="M 123.133938 348.674261 
C 125.586974 348.674261 127.93987 347.69966 129.674429 345.965102 
C 131.408987 344.230543 132.383588 341.877647 132.383588 339.424611 
C 132.383588 336.971576 131.408987 334.618679 129.674429 332.884121 
C 127.93987 331.149563 125.586974 330.174961 123.133938 330.174961 
C 120.680903 330.174961 118.328006 331.149563 116.593448 332.884121 
C 114.85889 334.618679 113.884288 336.971576 113.884288 339.424611 
C 113.884288 341.877647 114.85889 344.230543 116.593448 345.965102 
C 118.328006 347.69966 120.680903 348.674261 123.133938 348.674261 
z
" clip-path="url(#pd007f2f5e1)" style="fill: #ea580c; stroke: #ffffff; stroke-width: 1.6; stroke-linejoin: miter"/>
   </g>
   <g id="text_1">
    <!--  -->
    <g style="fill: #1e293b" transform="translate(81.058361 96.895573) scale(0.13 -0.13)">
     <defs>
      <path id="bootstrap-icons-499" d="M 811 5611 
Q 469 5611 234 5376 
Q 0 5141 0 4800 
L 0 4395 
Q 0 4075 234 3840 
Q 469 3605 789 3605 
L 3008 3605 
L 3008 2411 
Q 2752 2411 2581 2229 
Q 2411 2048 2411 1792 
L 192 1792 
Q 107 1792 53 1738 
Q 0 1685 0 1600 
Q 0 1515 53 1461 
Q 107 1408 192 1408 
L 2411 1408 
Q 2411 1152 2581 981 
Q 2752 811 3008 789 
L 3392 789 
Q 3648 789 3829 970 
Q 4011 1152 3989 1408 
L 6208 1408 
Q 6293 1408 6346 1461 
Q 6400 1515 6400 1600 
Q 6400 1685 6346 1738 
Q 6293 1792 6208 1792 
L 4011 1792 
Q 3989 2048 3818 2218 
Q 3648 2389 3392 2389 
L 3392 3605 
L 5611 3605 
Q 5931 3605 6165 3840 
Q 6400 4075 6400 4395 
L 6400 4800 
Q 6400 5141 6165 5376 
Q 5931 5611 5589 5611 
L 811 5611 
z
M 1003 4395 
Q 917 4395 864 4459 
Q 811 4523 811 4608 
Q 811 4693 864 4746 
Q 917 4800 1002 4800 
Q 1088 4800 1141 4746 
Q 1195 4693 1195 4608 
Q 1195 4523 1141 4459 
Q 1088 4395 1003 4395 
z
M 1792 4395 
Q 1707 4395 1653 4459 
Q 1600 4523 1600 4608 
Q 1600 4693 1653 4746 
Q 1707 4800 1792 4800 
Q 1877 4800 1941 4746 
Q 2005 4693 2005 4608 
Q 2005 4523 1941 4459 
Q 1877 4395 1792 4395 
z
" transform="scale(0.015625)"/>
     </defs>
     <use xlink:href="#bootstrap-icons-499"/>
    </g>
   </g>
   <g id="text_2">
    <!--  -->
    <g style="fill: #ffffff" transform="translate(78.068361 64.309996) scale(0.1898 -0.1898)">
     <defs>
      <path id="bootstrap-icons-526" d="M 4501 6379 
Q 4565 6336 4586 6272 
Q 4608 6208 4587 6144 
L 3861 3797 
L 5205 3797 
Q 5333 3797 5386 3680 
Q 5440 3563 5355 3456 
L 2155 64 
Q 2091 21 2027 10 
Q 1963 0 1899 32 
Q 1835 64 1813 128 
Q 1792 192 1813 256 
L 2539 2603 
L 1195 2603 
Q 1067 2603 1013 2720 
Q 960 2837 1045 2944 
L 4245 6336 
Q 4309 6379 4373 6389 
Q 4437 6400 4501 6379 
z
" transform="scale(0.015625)"/>
     </defs>
     <use xlink:href="#bootstrap-icons-526"/>
    </g>
   </g>
   <g id="text_3">
    <!-- sourcebus -->
    <g style="fill: #1e293b" transform="translate(69.960119 75.608125) scale(0.0754 -0.0754)">
     <defs>
      <path id="HelveticaNeue-5a" d="M 742 1043 
L 198 1043 
Q 211 736 326 521 
Q 442 307 634 176 
Q 826 45 1075 -12 
Q 1325 -70 1600 -70 
Q 1850 -70 2102 -22 
Q 2355 26 2556 147 
Q 2758 269 2883 467 
Q 3008 666 3008 966 
Q 3008 1203 2915 1363 
Q 2822 1523 2672 1628 
Q 2522 1734 2326 1798 
Q 2131 1862 1926 1907 
Q 1734 1952 1542 1993 
Q 1350 2035 1196 2096 
Q 1043 2157 944 2249 
Q 845 2342 845 2483 
Q 845 2611 909 2691 
Q 973 2771 1075 2819 
Q 1178 2867 1302 2886 
Q 1427 2906 1549 2906 
Q 1683 2906 1814 2877 
Q 1946 2848 2054 2784 
Q 2163 2720 2233 2614 
Q 2304 2509 2317 2349 
L 2861 2349 
Q 2842 2650 2733 2851 
Q 2624 3053 2441 3171 
Q 2259 3290 2022 3338 
Q 1786 3386 1504 3386 
Q 1286 3386 1065 3331 
Q 845 3277 669 3165 
Q 493 3053 381 2873 
Q 269 2694 269 2445 
Q 269 2125 429 1945 
Q 589 1766 829 1667 
Q 1069 1568 1350 1513 
Q 1632 1459 1872 1392 
Q 2112 1325 2272 1216 
Q 2432 1107 2432 896 
Q 2432 742 2355 643 
Q 2278 544 2160 493 
Q 2042 442 1901 422 
Q 1760 403 1632 403 
Q 1466 403 1309 435 
Q 1152 467 1027 540 
Q 902 614 825 739 
Q 749 864 742 1043 
z
" transform="scale(0.015625)"/>
      <path id="HelveticaNeue-56" d="M 806 1651 
Q 806 1952 886 2185 
Q 966 2419 1107 2579 
Q 1248 2739 1437 2822 
Q 1626 2906 1837 2906 
Q 2048 2906 2237 2822 
Q 2426 2739 2566 2579 
Q 2707 2419 2787 2185 
Q 2867 1952 2867 1651 
Q 2867 1350 2787 1116 
Q 2707 883 2566 726 
Q 2426 570 2237 486 
Q 2048 403 1837 403 
Q 1626 403 1437 486 
Q 1248 570 1107 726 
Q 966 883 886 1116 
Q 806 1350 806 1651 
z
M 230 1651 
Q 230 1286 332 972 
Q 435 659 640 425 
Q 845 192 1145 61 
Q 1446 -70 1837 -70 
Q 2234 -70 2531 61 
Q 2829 192 3033 425 
Q 3238 659 3340 972 
Q 3443 1286 3443 1651 
Q 3443 2016 3340 2333 
Q 3238 2650 3033 2883 
Q 2829 3117 2531 3251 
Q 2234 3386 1837 3386 
Q 1446 3386 1145 3251 
Q 845 3117 640 2883 
Q 435 2650 332 2333 
Q 230 2016 230 1651 
z
" transform="scale(0.015625)"/>
      <path id="HelveticaNeue-5c" d="M 3149 0 
L 3149 3309 
L 2605 3309 
L 2605 1440 
Q 2605 1216 2544 1027 
Q 2483 838 2361 697 
Q 2240 557 2057 480 
Q 1875 403 1626 403 
Q 1312 403 1133 582 
Q 954 762 954 1069 
L 954 3309 
L 410 3309 
L 410 1133 
Q 410 864 464 643 
Q 518 422 652 262 
Q 787 102 1004 16 
Q 1222 -70 1549 -70 
Q 1914 -70 2182 74 
Q 2451 218 2624 525 
L 2637 525 
L 2637 0 
L 3149 0 
z
" transform="scale(0.015625)"/>
      <path id="HelveticaNeue-59" d="M 390 3309 
L 390 0 
L 934 0 
L 934 1472 
Q 934 1792 998 2038 
Q 1062 2285 1203 2457 
Q 1344 2630 1574 2720 
Q 1805 2810 2131 2810 
L 2131 3386 
Q 1690 3398 1402 3206 
Q 1114 3014 915 2611 
L 902 2611 
L 902 3309 
L 390 3309 
z
" transform="scale(0.015625)"/>
      <path id="HelveticaNeue-4a" d="M 2656 2246 
L 3219 2246 
Q 3187 2541 3065 2755 
Q 2944 2970 2755 3110 
Q 2566 3251 2320 3318 
Q 2074 3386 1792 3386 
Q 1402 3386 1107 3248 
Q 813 3110 617 2870 
Q 422 2630 326 2307 
Q 230 1984 230 1613 
Q 230 1242 329 931 
Q 429 621 624 397 
Q 819 173 1110 51 
Q 1402 -70 1779 -70 
Q 2413 -70 2781 262 
Q 3149 595 3238 1210 
L 2682 1210 
Q 2630 826 2403 614 
Q 2176 403 1773 403 
Q 1517 403 1331 505 
Q 1146 608 1030 777 
Q 915 947 860 1164 
Q 806 1382 806 1613 
Q 806 1862 857 2096 
Q 909 2330 1027 2509 
Q 1146 2688 1344 2797 
Q 1542 2906 1837 2906 
Q 2182 2906 2387 2733 
Q 2592 2560 2656 2246 
z
" transform="scale(0.015625)"/>
      <path id="HelveticaNeue-4c" d="M 2707 1971 
L 806 1971 
Q 819 2163 889 2332 
Q 960 2502 1081 2630 
Q 1203 2758 1372 2832 
Q 1542 2906 1754 2906 
Q 1958 2906 2128 2832 
Q 2298 2758 2422 2633 
Q 2547 2509 2620 2336 
Q 2694 2163 2707 1971 
z
M 3232 1050 
L 2694 1050 
Q 2624 723 2403 563 
Q 2182 403 1837 403 
Q 1568 403 1369 492 
Q 1171 582 1043 732 
Q 915 883 857 1078 
Q 800 1274 806 1491 
L 3283 1491 
Q 3296 1792 3229 2125 
Q 3162 2458 2986 2739 
Q 2810 3021 2518 3203 
Q 2227 3386 1786 3386 
Q 1446 3386 1161 3258 
Q 877 3130 669 2899 
Q 461 2669 345 2355 
Q 230 2042 230 1664 
Q 243 1286 342 966 
Q 442 646 640 416 
Q 838 186 1129 58 
Q 1421 -70 1818 -70 
Q 2381 -70 2752 211 
Q 3123 493 3232 1050 
z
" transform="scale(0.015625)"/>
      <path id="HelveticaNeue-49" d="M 429 4570 
L 429 0 
L 973 0 
L 973 442 
L 986 442 
Q 1075 294 1206 195 
Q 1338 96 1485 38 
Q 1632 -19 1782 -44 
Q 1933 -70 2054 -70 
Q 2432 -70 2717 64 
Q 3002 198 3190 432 
Q 3379 666 3472 979 
Q 3565 1293 3565 1645 
Q 3565 1997 3469 2310 
Q 3373 2624 3184 2864 
Q 2995 3104 2710 3245 
Q 2426 3386 2042 3386 
Q 1696 3386 1408 3261 
Q 1120 3136 986 2861 
L 973 2861 
L 973 4570 
L 429 4570 
z
M 2989 1683 
Q 2989 1440 2937 1209 
Q 2886 979 2771 800 
Q 2656 621 2467 512 
Q 2278 403 1997 403 
Q 1715 403 1516 508 
Q 1318 614 1193 787 
Q 1069 960 1011 1187 
Q 954 1414 954 1658 
Q 954 1888 1008 2112 
Q 1062 2336 1184 2512 
Q 1306 2688 1498 2797 
Q 1690 2906 1965 2906 
Q 2227 2906 2422 2803 
Q 2618 2701 2742 2528 
Q 2867 2355 2928 2134 
Q 2989 1914 2989 1683 
z
" transform="scale(0.015625)"/>
     </defs>
     <use xlink:href="#HelveticaNeue-5a"/>
     <use xlink:href="#HelveticaNeue-56" transform="translate(50 0)"/>
     <use xlink:href="#HelveticaNeue-5c" transform="translate(107.40625 0)"/>
     <use xlink:href="#HelveticaNeue-59" transform="translate(163 0)"/>
     <use xlink:href="#HelveticaNeue-4a" transform="translate(194.5 0)"/>
     <use xlink:href="#HelveticaNeue-4c" transform="translate(248.203125 0)"/>
     <use xlink:href="#HelveticaNeue-49" transform="translate(301.90625 0)"/>
     <use xlink:href="#HelveticaNeue-5c" transform="translate(361.203125 0)"/>
     <use xlink:href="#HelveticaNeue-5a" transform="translate(416.796875 0)"/>
    </g>
    <!-- 1.000 pu -->
    <g style="fill: #1e293b" transform="translate(72.747563 84.603345) scale(0.0754 -0.0754)">
     <defs>
      <path id="HelveticaNeue-18" d="M 2278 0 
L 2278 4538 
L 1862 4538 
Q 1818 4282 1696 4115 
Q 1574 3949 1398 3853 
Q 1222 3757 1004 3721 
Q 787 3686 557 3686 
L 557 3251 
L 1734 3251 
L 1734 0 
L 2278 0 
z
" transform="scale(0.015625)"/>
      <path id="HelveticaNeue-15" d="M 531 710 
L 531 0 
L 1242 0 
L 1242 710 
L 531 710 
z
" transform="scale(0.015625)"/>
      <path id="HelveticaNeue-17" d="M 845 2234 
Q 845 2400 848 2601 
Q 851 2803 880 3004 
Q 909 3206 963 3398 
Q 1018 3590 1123 3734 
Q 1229 3878 1389 3968 
Q 1549 4058 1779 4058 
Q 2010 4058 2170 3968 
Q 2330 3878 2435 3734 
Q 2541 3590 2595 3398 
Q 2650 3206 2678 3004 
Q 2707 2803 2710 2601 
Q 2714 2400 2714 2234 
Q 2714 1978 2698 1661 
Q 2682 1344 2595 1065 
Q 2509 787 2317 595 
Q 2125 403 1779 403 
Q 1434 403 1242 595 
Q 1050 787 963 1065 
Q 877 1344 861 1661 
Q 845 1978 845 2234 
z
M 269 2227 
Q 269 1978 281 1709 
Q 294 1440 345 1184 
Q 397 928 493 701 
Q 589 474 755 301 
Q 922 128 1174 29 
Q 1427 -70 1779 -70 
Q 2138 -70 2387 29 
Q 2637 128 2803 301 
Q 2970 474 3066 701 
Q 3162 928 3213 1184 
Q 3264 1440 3277 1709 
Q 3290 1978 3290 2227 
Q 3290 2477 3277 2745 
Q 3264 3014 3213 3270 
Q 3162 3526 3066 3756 
Q 2970 3987 2803 4160 
Q 2637 4333 2384 4435 
Q 2131 4538 1779 4538 
Q 1427 4538 1174 4435 
Q 922 4333 755 4160 
Q 589 3987 493 3756 
Q 397 3526 345 3270 
Q 294 3014 281 2745 
Q 269 2477 269 2227 
z
" transform="scale(0.015625)"/>
      <path id="HelveticaNeue-3" transform="scale(0.015625)"/>
      <path id="HelveticaNeue-57" d="M 429 3309 
L 429 -1261 
L 973 -1261 
L 973 442 
L 986 442 
Q 1075 294 1206 195 
Q 1338 96 1485 38 
Q 1632 -19 1782 -44 
Q 1933 -70 2054 -70 
Q 2432 -70 2717 64 
Q 3002 198 3190 432 
Q 3379 666 3472 979 
Q 3565 1293 3565 1645 
Q 3565 1997 3469 2310 
Q 3373 2624 3184 2864 
Q 2995 3104 2710 3245 
Q 2426 3386 2042 3386 
Q 1696 3386 1408 3261 
Q 1120 3136 986 2861 
L 973 2861 
L 973 3309 
L 429 3309 
z
M 2989 1683 
Q 2989 1440 2937 1209 
Q 2886 979 2771 800 
Q 2656 621 2467 512 
Q 2278 403 1997 403 
Q 1715 403 1516 508 
Q 1318 614 1193 787 
Q 1069 960 1011 1187 
Q 954 1414 954 1658 
Q 954 1888 1008 2112 
Q 1062 2336 1184 2512 
Q 1306 2688 1498 2797 
Q 1690 2906 1965 2906 
Q 2227 2906 2422 2803 
Q 2618 2701 2742 2528 
Q 2867 2355 2928 2134 
Q 2989 1914 2989 1683 
z
" transform="scale(0.015625)"/>
     </defs>
     <use xlink:href="#HelveticaNeue-18"/>
     <use xlink:href="#HelveticaNeue-15" transform="translate(55.59375 0)"/>
     <use xlink:href="#HelveticaNeue-17" transform="translate(83.390625 0)"/>
     <use xlink:href="#HelveticaNeue-17" transform="translate(138.984375 0)"/>
     <use xlink:href="#HelveticaNeue-17" transform="translate(194.578125 0)"/>
     <use xlink:href="#HelveticaNeue-3" transform="translate(250.171875 0)"/>
     <use xlink:href="#HelveticaNeue-57" transform="translate(277.96875 0)"/>
     <use xlink:href="#HelveticaNeue-5c" transform="translate(337.265625 0)"/>
    </g>
   </g>
   <g id="text_4">
    <!--  -->
    <g style="fill: #ffffff" transform="translate(78.068361 135.46115) scale(0.1898 -0.1898)">
     <defs>
      <path id="bootstrap-icons-648" d="M 6400 3200 
Q 6400 2325 5973 1589 
Q 5547 853 4811 426 
Q 4075 0 3200 0 
Q 2325 0 1589 426 
Q 853 853 426 1589 
Q 0 2325 0 3200 
Q 0 4075 426 4811 
Q 853 5547 1589 5973 
Q 2325 6400 3200 6400 
Q 4075 6400 4811 5973 
Q 5547 5547 5973 4811 
Q 6400 4075 6400 3200 
z
M 3200 2005 
Q 3691 2005 4043 2357 
Q 4395 2709 4395 3200 
Q 4395 3691 4043 4043 
Q 3691 4395 3200 4395 
Q 2709 4395 2357 4043 
Q 2005 3691 2005 3200 
Q 2005 2709 2357 2357 
Q 2709 2005 3200 2005 
z
" transform="scale(0.015625)"/>
     </defs>
     <use xlink:href="#bootstrap-icons-648"/>
    </g>
   </g>
   <g id="text_5">
    <!-- a -->
    <g style="fill: #1e293b" transform="translate(85.533754 146.759279) scale(0.0754 -0.0754)">
     <defs>
      <path id="HelveticaNeue-48" d="M 3341 13 
Q 3200 -70 2950 -70 
Q 2739 -70 2614 48 
Q 2490 166 2490 435 
Q 2266 166 1968 48 
Q 1670 -70 1325 -70 
Q 1101 -70 899 -19 
Q 698 32 550 141 
Q 403 250 316 426 
Q 230 602 230 851 
Q 230 1133 326 1312 
Q 422 1491 579 1603 
Q 736 1715 937 1772 
Q 1139 1830 1350 1869 
Q 1574 1914 1776 1936 
Q 1978 1958 2131 2000 
Q 2285 2042 2374 2122 
Q 2464 2202 2464 2355 
Q 2464 2534 2397 2643 
Q 2330 2752 2224 2809 
Q 2118 2867 1987 2886 
Q 1856 2906 1728 2906 
Q 1382 2906 1152 2774 
Q 922 2643 902 2278 
L 358 2278 
Q 371 2586 486 2797 
Q 602 3008 794 3139 
Q 986 3270 1232 3328 
Q 1478 3386 1760 3386 
Q 1984 3386 2205 3354 
Q 2426 3322 2605 3222 
Q 2784 3123 2893 2944 
Q 3002 2765 3002 2477 
L 3002 774 
Q 3002 582 3024 492 
Q 3046 403 3174 403 
Q 3245 403 3341 435 
L 3341 13 
z
M 2458 1709 
Q 2355 1632 2188 1597 
Q 2022 1562 1840 1539 
Q 1658 1517 1472 1488 
Q 1286 1459 1139 1395 
Q 992 1331 899 1212 
Q 806 1094 806 890 
Q 806 755 860 662 
Q 915 570 1001 512 
Q 1088 454 1203 428 
Q 1318 403 1446 403 
Q 1715 403 1907 476 
Q 2099 550 2220 662 
Q 2342 774 2400 905 
Q 2458 1037 2458 1152 
L 2458 1709 
z
" transform="scale(0.015625)"/>
     </defs>
     <use xlink:href="#HelveticaNeue-48"/>
    </g>
    <!-- 0.998 pu -->
    <g style="fill: #1e293b" transform="translate(72.747563 155.754499) scale(0.0754 -0.0754)">
     <defs>
      <path id="HelveticaNeue-20" d="M 858 1094 
L 314 1094 
Q 365 506 742 218 
Q 1120 -70 1690 -70 
Q 2515 -70 2889 560 
Q 3264 1190 3264 2368 
Q 3264 3014 3139 3433 
Q 3014 3853 2803 4096 
Q 2592 4339 2310 4438 
Q 2029 4538 1709 4538 
Q 1382 4538 1107 4429 
Q 832 4320 633 4125 
Q 435 3930 326 3658 
Q 218 3386 218 3059 
Q 218 2726 310 2444 
Q 403 2163 585 1964 
Q 768 1766 1037 1654 
Q 1306 1542 1651 1542 
Q 1984 1542 2265 1712 
Q 2547 1882 2701 2170 
L 2714 2157 
Q 2688 1267 2438 835 
Q 2189 403 1690 403 
Q 1363 403 1126 582 
Q 890 762 858 1094 
z
M 2618 3021 
Q 2618 2822 2554 2640 
Q 2490 2458 2368 2320 
Q 2246 2182 2073 2102 
Q 1901 2022 1690 2022 
Q 1491 2022 1328 2102 
Q 1165 2182 1046 2316 
Q 928 2451 861 2624 
Q 794 2797 794 2982 
Q 794 3194 842 3386 
Q 890 3578 995 3728 
Q 1101 3878 1270 3968 
Q 1440 4058 1683 4058 
Q 1914 4058 2086 3974 
Q 2259 3891 2377 3747 
Q 2496 3603 2557 3417 
Q 2618 3232 2618 3021 
z
" transform="scale(0.015625)"/>
      <path id="HelveticaNeue-1f" d="M 992 3360 
Q 992 3533 1056 3661 
Q 1120 3789 1225 3878 
Q 1331 3968 1478 4013 
Q 1626 4058 1786 4058 
Q 2118 4058 2332 3882 
Q 2547 3706 2547 3360 
Q 2547 3014 2336 2822 
Q 2125 2630 1798 2630 
Q 1632 2630 1485 2675 
Q 1338 2720 1229 2809 
Q 1120 2899 1056 3036 
Q 992 3174 992 3360 
z
M 416 3379 
Q 416 3072 589 2813 
Q 762 2554 1050 2438 
Q 666 2304 461 2006 
Q 256 1709 256 1306 
Q 256 960 374 701 
Q 493 442 701 269 
Q 909 96 1190 13 
Q 1472 -70 1798 -70 
Q 2112 -70 2387 19 
Q 2662 109 2864 285 
Q 3066 461 3184 717 
Q 3302 973 3302 1306 
Q 3302 1728 3104 2019 
Q 2906 2310 2496 2438 
Q 2784 2566 2953 2819 
Q 3123 3072 3123 3379 
Q 3123 3597 3046 3805 
Q 2970 4013 2806 4176 
Q 2643 4339 2380 4438 
Q 2118 4538 1747 4538 
Q 1485 4538 1245 4461 
Q 1005 4384 819 4237 
Q 634 4090 525 3875 
Q 416 3661 416 3379 
z
M 832 1280 
Q 832 1478 905 1638 
Q 979 1798 1110 1913 
Q 1242 2029 1418 2089 
Q 1594 2150 1792 2150 
Q 1984 2150 2153 2083 
Q 2323 2016 2451 1901 
Q 2579 1786 2652 1629 
Q 2726 1472 2726 1286 
Q 2726 1094 2659 934 
Q 2592 774 2467 656 
Q 2342 538 2172 470 
Q 2003 403 1798 403 
Q 1376 403 1104 636 
Q 832 870 832 1280 
z
" transform="scale(0.015625)"/>
     </defs>
     <use xlink:href="#HelveticaNeue-17"/>
     <use xlink:href="#HelveticaNeue-15" transform="translate(55.59375 0)"/>
     <use xlink:href="#HelveticaNeue-20" transform="translate(83.390625 0)"/>
     <use xlink:href="#HelveticaNeue-20" transform="translate(138.984375 0)"/>
     <use xlink:href="#HelveticaNeue-1f" transform="translate(194.578125 0)"/>
     <use xlink:href="#HelveticaNeue-3" transform="translate(250.171875 0)"/>
     <use xlink:href="#HelveticaNeue-57" transform="translate(277.96875 0)"/>
     <use xlink:href="#HelveticaNeue-5c" transform="translate(337.265625 0)"/>
    </g>
   </g>
   <g id="text_6">
    <!--  -->
    <g style="fill: #ffffff" transform="translate(78.068361 206.612304) scale(0.1898 -0.1898)">
     <use xlink:href="#bootstrap-icons-648"/>
    </g>
   </g>
   <g id="text_7">
    <!-- b -->
    <g style="fill: #1e293b" transform="translate(85.322869 217.910433) scale(0.0754 -0.0754)">
     <use xlink:href="#HelveticaNeue-49"/>
    </g>
    <!-- 0.967 pu -->
    <g style="fill: #1e293b" transform="translate(72.747563 226.905653) scale(0.0754 -0.0754)">
     <defs>
      <path id="HelveticaNeue-1d" d="M 2650 3379 
L 3194 3379 
Q 3142 3942 2809 4240 
Q 2477 4538 1914 4538 
Q 1427 4538 1107 4333 
Q 787 4128 595 3789 
Q 403 3450 323 3011 
Q 243 2573 243 2106 
Q 243 1747 297 1363 
Q 352 979 518 659 
Q 685 339 992 134 
Q 1299 -70 1805 -70 
Q 2234 -70 2525 74 
Q 2816 218 2992 438 
Q 3168 659 3245 928 
Q 3322 1197 3322 1446 
Q 3322 1760 3226 2029 
Q 3130 2298 2954 2496 
Q 2778 2694 2518 2806 
Q 2259 2918 1933 2918 
Q 1562 2918 1277 2777 
Q 992 2637 800 2323 
L 787 2336 
Q 794 2598 838 2899 
Q 883 3200 1001 3459 
Q 1120 3718 1331 3888 
Q 1542 4058 1888 4058 
Q 2214 4058 2412 3872 
Q 2611 3686 2650 3379 
z
M 1830 2438 
Q 2061 2438 2233 2355 
Q 2406 2272 2521 2134 
Q 2637 1997 2691 1808 
Q 2746 1619 2746 1408 
Q 2746 1210 2685 1027 
Q 2624 845 2509 704 
Q 2394 563 2224 483 
Q 2054 403 1830 403 
Q 1606 403 1430 483 
Q 1254 563 1136 697 
Q 1018 832 954 1017 
Q 890 1203 890 1414 
Q 890 1626 950 1814 
Q 1011 2003 1132 2140 
Q 1254 2278 1427 2358 
Q 1600 2438 1830 2438 
z
" transform="scale(0.015625)"/>
      <path id="HelveticaNeue-1e" d="M 3258 3994 
L 3258 4461 
L 320 4461 
L 320 3949 
L 2701 3949 
Q 2342 3571 2032 3123 
Q 1722 2675 1485 2172 
Q 1248 1670 1097 1123 
Q 947 576 909 0 
L 1517 0 
Q 1549 531 1696 1094 
Q 1843 1658 2076 2189 
Q 2310 2720 2611 3187 
Q 2912 3654 3258 3994 
z
" transform="scale(0.015625)"/>
     </defs>
     <use xlink:href="#HelveticaNeue-17"/>
     <use xlink:href="#HelveticaNeue-15" transform="translate(55.59375 0)"/>
     <use xlink:href="#HelveticaNeue-20" transform="translate(83.390625 0)"/>
     <use xlink:href="#HelveticaNeue-1d" transform="translate(138.984375 0)"/>
     <use xlink:href="#HelveticaNeue-1e" transform="translate(194.578125 0)"/>
     <use xlink:href="#HelveticaNeue-3" transform="translate(250.171875 0)"/>
     <use xlink:href="#HelveticaNeue-57" transform="translate(277.96875 0)"/>
     <use xlink:href="#HelveticaNeue-5c" transform="translate(337.265625 0)"/>
    </g>
   </g>
   <g id="text_8">
    <!--  -->
    <g style="fill: #ffffff" transform="translate(24.704996 277.763458) scale(0.1898 -0.1898)">
     <defs>
      <path id="bootstrap-icons-4c8" d="M 3477 5803 
Q 3371 5909 3200 5909 
Q 3029 5909 2923 5803 
L 256 3136 
Q 192 3093 192 3008 
Q 192 2923 256 2859 
Q 320 2795 405 2795 
Q 491 2795 533 2859 
L 3200 5525 
L 5867 2859 
Q 5909 2795 5994 2795 
Q 6080 2795 6144 2859 
Q 6208 2923 6208 3008 
Q 6208 3093 6144 3136 
L 5205 4075 
L 5205 5397 
Q 5205 5483 5141 5547 
Q 5077 5611 4992 5611 
L 4608 5611 
Q 4523 5611 4459 5547 
Q 4395 5483 4395 5397 
L 4395 4885 
L 3477 5803 
z
M 3200 5077 
L 5611 2688 
L 5611 1003 
Q 5611 747 5429 576 
Q 5248 405 4992 405 
L 1408 405 
Q 1152 405 970 576 
Q 789 747 789 1003 
L 789 2688 
L 3200 5077 
z
" transform="scale(0.015625)"/>
     </defs>
     <use xlink:href="#bootstrap-icons-4c8"/>
    </g>
   </g>
   <g id="text_9">
    <!-- c -->
    <g style="fill: #1e293b" transform="translate(32.170388 289.061587) scale(0.0754 -0.0754)">
     <use xlink:href="#HelveticaNeue-4a"/>
    </g>
    <!-- 0.970 pu -->
    <g style="fill: #1e293b" transform="translate(19.384198 298.056807) scale(0.0754 -0.0754)">
     <use xlink:href="#HelveticaNeue-17"/>
     <use xlink:href="#HelveticaNeue-15" transform="translate(55.59375 0)"/>
     <use xlink:href="#HelveticaNeue-20" transform="translate(83.390625 0)"/>
     <use xlink:href="#HelveticaNeue-1e" transform="translate(138.984375 0)"/>
     <use xlink:href="#HelveticaNeue-17" transform="translate(194.578125 0)"/>
     <use xlink:href="#HelveticaNeue-3" transform="translate(250.171875 0)"/>
     <use xlink:href="#HelveticaNeue-57" transform="translate(277.96875 0)"/>
     <use xlink:href="#HelveticaNeue-5c" transform="translate(337.265625 0)"/>
    </g>
   </g>
   <g id="text_10">
    <!--  -->
    <g style="fill: #ffffff" transform="translate(60.280573 277.763458) scale(0.1898 -0.1898)">
     <use xlink:href="#bootstrap-icons-4c8"/>
    </g>
   </g>
   <g id="text_11">
    <!-- d -->
    <g style="fill: #1e293b" transform="translate(67.535081 289.061587) scale(0.0754 -0.0754)">
     <defs>
      <path id="HelveticaNeue-4b" d="M 806 1626 
Q 806 1869 857 2099 
Q 909 2330 1024 2509 
Q 1139 2688 1331 2797 
Q 1523 2906 1798 2906 
Q 2080 2906 2278 2800 
Q 2477 2694 2601 2521 
Q 2726 2349 2784 2121 
Q 2842 1894 2842 1651 
Q 2842 1421 2787 1197 
Q 2733 973 2611 797 
Q 2490 621 2298 512 
Q 2106 403 1830 403 
Q 1568 403 1373 505 
Q 1178 608 1053 781 
Q 928 954 867 1174 
Q 806 1395 806 1626 
z
M 3366 0 
L 3366 4570 
L 2822 4570 
L 2822 2867 
L 2810 2867 
Q 2720 3014 2589 3113 
Q 2458 3213 2310 3273 
Q 2163 3334 2016 3360 
Q 1869 3386 1741 3386 
Q 1363 3386 1078 3248 
Q 794 3110 605 2876 
Q 416 2643 323 2329 
Q 230 2016 230 1664 
Q 230 1312 326 998 
Q 422 685 611 448 
Q 800 211 1085 70 
Q 1370 -70 1754 -70 
Q 2099 -70 2387 51 
Q 2675 173 2810 448 
L 2822 448 
L 2822 0 
L 3366 0 
z
" transform="scale(0.015625)"/>
     </defs>
     <use xlink:href="#HelveticaNeue-4b"/>
    </g>
    <!-- 0.966 pu -->
    <g style="fill: #1e293b" transform="translate(54.959775 298.056807) scale(0.0754 -0.0754)">
     <use xlink:href="#HelveticaNeue-17"/>
     <use xlink:href="#HelveticaNeue-15" transform="translate(55.59375 0)"/>
     <use xlink:href="#HelveticaNeue-20" transform="translate(83.390625 0)"/>
     <use xlink:href="#HelveticaNeue-1d" transform="translate(138.984375 0)"/>
     <use xlink:href="#HelveticaNeue-1d" transform="translate(194.578125 0)"/>
     <use xlink:href="#HelveticaNeue-3" transform="translate(250.171875 0)"/>
     <use xlink:href="#HelveticaNeue-57" transform="translate(277.96875 0)"/>
     <use xlink:href="#HelveticaNeue-5c" transform="translate(337.265625 0)"/>
    </g>
   </g>
   <g id="text_12">
    <!--  -->
    <g style="fill: #ffffff" transform="translate(95.85615 277.763458) scale(0.1898 -0.1898)">
     <use xlink:href="#bootstrap-icons-4c8"/>
    </g>
   </g>
   <g id="text_13">
    <!-- e -->
    <g style="fill: #1e293b" transform="translate(103.321542 289.061587) scale(0.0754 -0.0754)">
     <use xlink:href="#HelveticaNeue-4c"/>
    </g>
    <!-- 0.959 pu -->
    <g style="fill: #1e293b" transform="translate(90.535352 298.056807) scale(0.0754 -0.0754)">
     <defs>
      <path id="HelveticaNeue-1c" d="M 3008 3981 
L 3008 4461 
L 768 4461 
L 346 2106 
L 813 2080 
Q 973 2272 1181 2390 
Q 1389 2509 1658 2509 
Q 1888 2509 2077 2432 
Q 2266 2355 2400 2217 
Q 2534 2080 2608 1891 
Q 2682 1702 2682 1478 
Q 2682 1210 2605 1008 
Q 2528 806 2397 672 
Q 2266 538 2090 470 
Q 1914 403 1722 403 
Q 1517 403 1347 464 
Q 1178 525 1053 637 
Q 928 749 854 899 
Q 781 1050 768 1222 
L 224 1222 
Q 230 915 345 672 
Q 461 429 659 265 
Q 858 102 1117 16 
Q 1376 -70 1670 -70 
Q 2067 -70 2364 54 
Q 2662 179 2860 390 
Q 3059 602 3158 874 
Q 3258 1146 3258 1434 
Q 3258 1824 3142 2115 
Q 3027 2406 2828 2601 
Q 2630 2797 2361 2893 
Q 2093 2989 1792 2989 
Q 1562 2989 1328 2909 
Q 1094 2829 947 2662 
L 934 2675 
L 1178 3981 
L 3008 3981 
z
" transform="scale(0.015625)"/>
     </defs>
     <use xlink:href="#HelveticaNeue-17"/>
     <use xlink:href="#HelveticaNeue-15" transform="translate(55.59375 0)"/>
     <use xlink:href="#HelveticaNeue-20" transform="translate(83.390625 0)"/>
     <use xlink:href="#HelveticaNeue-1c" transform="translate(138.984375 0)"/>
     <use xlink:href="#HelveticaNeue-20" transform="translate(194.578125 0)"/>
     <use xlink:href="#HelveticaNeue-3" transform="translate(250.171875 0)"/>
     <use xlink:href="#HelveticaNeue-57" transform="translate(277.96875 0)"/>
     <use xlink:href="#HelveticaNeue-5c" transform="translate(337.265625 0)"/>
    </g>
   </g>
   <g id="text_14">
    <!--  -->
    <g style="fill: #ffffff" transform="translate(131.431727 277.763458) scale(0.1898 -0.1898)">
     <use xlink:href="#bootstrap-icons-648"/>
    </g>
   </g>
   <g id="text_15">
    <!-- f -->
    <g style="fill: #1e293b" transform="translate(139.806042 289.061587) scale(0.0754 -0.0754)">
     <defs>
      <path id="HelveticaNeue-4d" d="M 634 2829 
L 634 0 
L 1178 0 
L 1178 2829 
L 1818 2829 
L 1818 3309 
L 1178 3309 
L 1178 3770 
Q 1178 3987 1286 4064 
Q 1395 4141 1594 4141 
Q 1664 4141 1747 4131 
Q 1830 4122 1901 4096 
L 1901 4570 
Q 1824 4595 1725 4608 
Q 1626 4621 1549 4621 
Q 1101 4621 867 4413 
Q 634 4205 634 3802 
L 634 3309 
L 77 3309 
L 77 2829 
L 634 2829 
z
" transform="scale(0.015625)"/>
     </defs>
     <use xlink:href="#HelveticaNeue-4d"/>
    </g>
    <!-- 0.956 pu -->
    <g style="fill: #1e293b" transform="translate(126.110928 298.056807) scale(0.0754 -0.0754)">
     <use xlink:href="#HelveticaNeue-17"/>
     <use xlink:href="#HelveticaNeue-15" transform="translate(55.59375 0)"/>
     <use xlink:href="#HelveticaNeue-20" transform="translate(83.390625 0)"/>
     <use xlink:href="#HelveticaNeue-1c" transform="translate(138.984375 0)"/>
     <use xlink:href="#HelveticaNeue-1d" transform="translate(194.578125 0)"/>
     <use xlink:href="#HelveticaNeue-3" transform="translate(250.171875 0)"/>
     <use xlink:href="#HelveticaNeue-57" transform="translate(277.96875 0)"/>
     <use xlink:href="#HelveticaNeue-5c" transform="translate(337.265625 0)"/>
    </g>
   </g>
   <g id="text_16">
    <!--  -->
    <g style="fill: #ffffff" transform="translate(42.492785 348.914611) scale(0.1898 -0.1898)">
     <use xlink:href="#bootstrap-icons-4c8"/>
    </g>
   </g>
   <g id="text_17">
    <!-- g -->
    <g style="fill: #1e293b" transform="translate(49.818569 360.21274) scale(0.0754 -0.0754)">
     <defs>
      <path id="HelveticaNeue-4e" d="M 3264 282 
L 3264 3309 
L 2752 3309 
L 2752 2835 
L 2746 2835 
Q 2598 3110 2336 3248 
Q 2074 3386 1760 3386 
Q 1331 3386 1036 3222 
Q 742 3059 563 2806 
Q 384 2554 307 2243 
Q 230 1933 230 1638 
Q 230 1299 323 995 
Q 416 691 601 464 
Q 787 237 1062 102 
Q 1338 -32 1709 -32 
Q 2029 -32 2313 112 
Q 2598 256 2739 563 
L 2752 563 
L 2752 346 
Q 2752 70 2697 -160 
Q 2643 -390 2521 -553 
Q 2400 -717 2214 -809 
Q 2029 -902 1760 -902 
Q 1626 -902 1478 -873 
Q 1331 -845 1206 -781 
Q 1082 -717 995 -614 
Q 909 -512 902 -365 
L 358 -365 
Q 371 -634 499 -819 
Q 627 -1005 822 -1120 
Q 1018 -1235 1258 -1286 
Q 1498 -1338 1728 -1338 
Q 2522 -1338 2893 -934 
Q 3264 -531 3264 282 
z
M 1741 442 
Q 1472 442 1293 554 
Q 1114 666 1005 848 
Q 896 1030 851 1254 
Q 806 1478 806 1702 
Q 806 1939 860 2156 
Q 915 2374 1033 2540 
Q 1152 2707 1337 2806 
Q 1523 2906 1786 2906 
Q 2042 2906 2221 2803 
Q 2400 2701 2512 2531 
Q 2624 2362 2675 2150 
Q 2726 1939 2726 1722 
Q 2726 1491 2672 1260 
Q 2618 1030 2502 848 
Q 2387 666 2198 554 
Q 2010 442 1741 442 
z
" transform="scale(0.015625)"/>
     </defs>
     <use xlink:href="#HelveticaNeue-4e"/>
    </g>
    <!-- 0.966 pu -->
    <g style="fill: #1e293b" transform="translate(37.171986 369.20796) scale(0.0754 -0.0754)">
     <use xlink:href="#HelveticaNeue-17"/>
     <use xlink:href="#HelveticaNeue-15" transform="translate(55.59375 0)"/>
     <use xlink:href="#HelveticaNeue-20" transform="translate(83.390625 0)"/>
     <use xlink:href="#HelveticaNeue-1d" transform="translate(138.984375 0)"/>
     <use xlink:href="#HelveticaNeue-1d" transform="translate(194.578125 0)"/>
     <use xlink:href="#HelveticaNeue-3" transform="translate(250.171875 0)"/>
     <use xlink:href="#HelveticaNeue-57" transform="translate(277.96875 0)"/>
     <use xlink:href="#HelveticaNeue-5c" transform="translate(337.265625 0)"/>
    </g>
   </g>
   <g id="text_18">
    <!--  -->
    <g style="fill: #ffffff" transform="translate(78.068361 348.914611) scale(0.1898 -0.1898)">
     <use xlink:href="#bootstrap-icons-4c8"/>
    </g>
   </g>
   <g id="text_19">
    <!-- h -->
    <g style="fill: #1e293b" transform="translate(85.462477 360.21274) scale(0.0754 -0.0754)">
     <defs>
      <path id="HelveticaNeue-4f" d="M 410 4570 
L 410 0 
L 954 0 
L 954 1869 
Q 954 2093 1014 2281 
Q 1075 2470 1196 2611 
Q 1318 2752 1500 2829 
Q 1683 2906 1933 2906 
Q 2246 2906 2425 2726 
Q 2605 2547 2605 2240 
L 2605 0 
L 3149 0 
L 3149 2176 
Q 3149 2445 3094 2665 
Q 3040 2886 2905 3046 
Q 2771 3206 2553 3296 
Q 2336 3386 2010 3386 
Q 1862 3386 1705 3354 
Q 1549 3322 1405 3254 
Q 1261 3187 1145 3081 
Q 1030 2976 966 2822 
L 954 2822 
L 954 4570 
L 410 4570 
z
" transform="scale(0.015625)"/>
     </defs>
     <use xlink:href="#HelveticaNeue-4f"/>
    </g>
    <!-- 0.950 pu -->
    <g style="fill: #1e293b" transform="translate(72.747563 369.20796) scale(0.0754 -0.0754)">
     <use xlink:href="#HelveticaNeue-17"/>
     <use xlink:href="#HelveticaNeue-15" transform="translate(55.59375 0)"/>
     <use xlink:href="#HelveticaNeue-20" transform="translate(83.390625 0)"/>
     <use xlink:href="#HelveticaNeue-1c" transform="translate(138.984375 0)"/>
     <use xlink:href="#HelveticaNeue-17" transform="translate(194.578125 0)"/>
     <use xlink:href="#HelveticaNeue-3" transform="translate(250.171875 0)"/>
     <use xlink:href="#HelveticaNeue-57" transform="translate(277.96875 0)"/>
     <use xlink:href="#HelveticaNeue-5c" transform="translate(337.265625 0)"/>
    </g>
   </g>
   <g id="text_20">
    <!--  -->
    <g style="fill: #ffffff" transform="translate(113.643938 348.914611) scale(0.1898 -0.1898)">
     <use xlink:href="#bootstrap-icons-4c8"/>
    </g>
   </g>
   <g id="text_21">
    <!-- j -->
    <g style="fill: #1e293b" transform="translate(122.296881 360.21274) scale(0.0754 -0.0754)">
     <defs>
      <path id="HelveticaNeue-51" d="M 986 3904 
L 986 4570 
L 442 4570 
L 442 3904 
L 986 3904 
z
M 986 -416 
L 986 3309 
L 442 3309 
L 442 -326 
Q 442 -582 378 -681 
Q 314 -781 134 -781 
L 19 -781 
Q -6 -781 -28 -777 
Q -51 -774 -83 -768 
L -83 -1235 
Q 45 -1261 192 -1261 
Q 557 -1261 771 -1059 
Q 986 -858 986 -416 
z
" transform="scale(0.015625)"/>
     </defs>
     <use xlink:href="#HelveticaNeue-51"/>
    </g>
    <!-- 0.948 pu -->
    <g style="fill: #1e293b" transform="translate(108.32314 369.20796) scale(0.0754 -0.0754)">
     <defs>
      <path id="HelveticaNeue-1b" d="M 2170 1542 
L 646 1542 
L 2157 3763 
L 2170 3763 
L 2170 1542 
z
M 2682 1542 
L 2682 4538 
L 2246 4538 
L 179 1587 
L 179 1062 
L 2170 1062 
L 2170 0 
L 2682 0 
L 2682 1062 
L 3296 1062 
L 3296 1542 
L 2682 1542 
z
" transform="scale(0.015625)"/>
     </defs>
     <use xlink:href="#HelveticaNeue-17"/>
     <use xlink:href="#HelveticaNeue-15" transform="translate(55.59375 0)"/>
     <use xlink:href="#HelveticaNeue-20" transform="translate(83.390625 0)"/>
     <use xlink:href="#HelveticaNeue-1b" transform="translate(138.984375 0)"/>
     <use xlink:href="#HelveticaNeue-1f" transform="translate(194.578125 0)"/>
     <use xlink:href="#HelveticaNeue-3" transform="translate(250.171875 0)"/>
     <use xlink:href="#HelveticaNeue-57" transform="translate(277.96875 0)"/>
     <use xlink:href="#HelveticaNeue-5c" transform="translate(337.265625 0)"/>
    </g>
   </g>
   <g id="text_22">
    <!-- Expanded LV network with PV (Figure 3) -->
    <g style="fill: #1e293b" transform="translate(3.6 18.225) scale(0.15 -0.15)">
     <defs>
      <path id="HelveticaNeue-Bold-2c" d="M 442 4570 
L 442 0 
L 3910 0 
L 3910 845 
L 1446 845 
L 1446 1965 
L 3661 1965 
L 3661 2746 
L 1446 2746 
L 1446 3725 
L 3859 3725 
L 3859 4570 
L 442 4570 
z
" transform="scale(0.015625)"/>
      <path id="HelveticaNeue-Bold-5f" d="M 1190 1741 
L 0 0 
L 1018 0 
L 1709 1043 
L 2400 0 
L 3437 0 
L 2214 1760 
L 3302 3309 
L 2298 3309 
L 1722 2445 
L 1139 3309 
L 102 3309 
L 1190 1741 
z
" transform="scale(0.015625)"/>
      <path id="HelveticaNeue-Bold-57" d="M 2016 595 
Q 1798 595 1644 684 
Q 1491 774 1398 918 
Q 1306 1062 1264 1254 
Q 1222 1446 1222 1645 
Q 1222 1850 1260 2042 
Q 1299 2234 1392 2381 
Q 1485 2528 1635 2621 
Q 1786 2714 2010 2714 
Q 2227 2714 2377 2621 
Q 2528 2528 2624 2377 
Q 2720 2227 2761 2035 
Q 2803 1843 2803 1645 
Q 2803 1446 2764 1254 
Q 2726 1062 2633 918 
Q 2541 774 2390 684 
Q 2240 595 2016 595 
z
M 346 3309 
L 346 -1158 
L 1254 -1158 
L 1254 410 
L 1267 410 
Q 1434 166 1693 41 
Q 1952 -83 2259 -83 
Q 2624 -83 2896 57 
Q 3168 198 3350 435 
Q 3533 672 3622 979 
Q 3712 1286 3712 1619 
Q 3712 1971 3622 2294 
Q 3533 2618 3347 2861 
Q 3162 3104 2880 3251 
Q 2598 3398 2208 3398 
Q 1901 3398 1645 3276 
Q 1389 3155 1222 2886 
L 1210 2886 
L 1210 3309 
L 346 3309 
z
" transform="scale(0.015625)"/>
      <path id="HelveticaNeue-Bold-48" d="M 307 2291 
Q 326 2611 467 2822 
Q 608 3034 825 3162 
Q 1043 3290 1315 3344 
Q 1587 3398 1862 3398 
Q 2112 3398 2368 3363 
Q 2624 3328 2835 3225 
Q 3046 3123 3180 2940 
Q 3315 2758 3315 2458 
L 3315 736 
Q 3315 512 3340 307 
Q 3366 102 3430 0 
L 2509 0 
Q 2483 77 2467 157 
Q 2451 237 2445 320 
Q 2227 96 1932 6 
Q 1638 -83 1331 -83 
Q 1094 -83 889 -25 
Q 685 32 531 153 
Q 378 275 291 460 
Q 205 646 205 902 
Q 205 1184 304 1366 
Q 403 1549 560 1657 
Q 717 1766 918 1820 
Q 1120 1875 1325 1907 
Q 1530 1939 1728 1958 
Q 1926 1978 2080 2016 
Q 2234 2054 2323 2128 
Q 2413 2202 2406 2342 
Q 2406 2490 2358 2576 
Q 2310 2662 2230 2710 
Q 2150 2758 2044 2774 
Q 1939 2790 1818 2790 
Q 1549 2790 1395 2675 
Q 1242 2560 1216 2291 
L 307 2291 
z
M 2406 1619 
Q 2349 1568 2262 1539 
Q 2176 1510 2077 1491 
Q 1978 1472 1869 1459 
Q 1760 1446 1651 1427 
Q 1549 1408 1449 1376 
Q 1350 1344 1276 1289 
Q 1203 1235 1158 1152 
Q 1114 1069 1114 941 
Q 1114 819 1158 736 
Q 1203 653 1280 605 
Q 1357 557 1459 537 
Q 1562 518 1670 518 
Q 1939 518 2086 608 
Q 2234 698 2304 822 
Q 2374 947 2390 1075 
Q 2406 1203 2406 1280 
L 2406 1619 
z
" transform="scale(0.015625)"/>
      <path id="HelveticaNeue-Bold-55" d="M 346 3309 
L 346 0 
L 1254 0 
L 1254 1734 
Q 1254 2240 1420 2461 
Q 1587 2682 1958 2682 
Q 2285 2682 2413 2480 
Q 2541 2278 2541 1869 
L 2541 0 
L 3450 0 
L 3450 2035 
Q 3450 2342 3395 2595 
Q 3341 2848 3206 3024 
Q 3072 3200 2838 3299 
Q 2605 3398 2240 3398 
Q 1952 3398 1677 3267 
Q 1402 3136 1229 2848 
L 1210 2848 
L 1210 3309 
L 346 3309 
z
" transform="scale(0.015625)"/>
      <path id="HelveticaNeue-Bold-4b" d="M 2694 1664 
Q 2694 1459 2656 1267 
Q 2618 1075 2528 924 
Q 2438 774 2288 684 
Q 2138 595 1914 595 
Q 1702 595 1552 688 
Q 1402 781 1302 931 
Q 1203 1082 1158 1274 
Q 1114 1466 1114 1658 
Q 1114 1862 1155 2051 
Q 1197 2240 1289 2387 
Q 1382 2534 1536 2624 
Q 1690 2714 1914 2714 
Q 2138 2714 2285 2624 
Q 2432 2534 2525 2390 
Q 2618 2246 2656 2057 
Q 2694 1869 2694 1664 
z
M 2707 422 
L 2707 0 
L 3571 0 
L 3571 4570 
L 2662 4570 
L 2662 2906 
L 2650 2906 
Q 2496 3149 2230 3273 
Q 1965 3398 1670 3398 
Q 1306 3398 1030 3254 
Q 755 3110 572 2873 
Q 390 2637 297 2326 
Q 205 2016 205 1683 
Q 205 1338 297 1018 
Q 390 698 572 451 
Q 755 205 1036 61 
Q 1318 -83 1690 -83 
Q 2016 -83 2275 35 
Q 2534 154 2694 422 
L 2707 422 
z
" transform="scale(0.015625)"/>
      <path id="HelveticaNeue-Bold-4c" d="M 2573 2010 
L 1094 2010 
Q 1101 2106 1136 2227 
Q 1171 2349 1257 2457 
Q 1344 2566 1488 2640 
Q 1632 2714 1850 2714 
Q 2182 2714 2345 2534 
Q 2509 2355 2573 2010 
z
M 1094 1434 
L 3482 1434 
Q 3507 1818 3417 2170 
Q 3328 2522 3126 2797 
Q 2925 3072 2611 3235 
Q 2298 3398 1875 3398 
Q 1498 3398 1187 3264 
Q 877 3130 653 2896 
Q 429 2662 307 2342 
Q 186 2022 186 1651 
Q 186 1267 304 947 
Q 422 627 640 396 
Q 858 166 1171 41 
Q 1485 -83 1875 -83 
Q 2438 -83 2835 173 
Q 3232 429 3424 1024 
L 2624 1024 
Q 2579 870 2380 732 
Q 2182 595 1907 595 
Q 1523 595 1318 793 
Q 1114 992 1094 1434 
z
" transform="scale(0.015625)"/>
      <path id="HelveticaNeue-Bold-3" transform="scale(0.015625)"/>
      <path id="HelveticaNeue-Bold-33" d="M 442 4570 
L 442 0 
L 3674 0 
L 3674 845 
L 1446 845 
L 1446 4570 
L 442 4570 
z
" transform="scale(0.015625)"/>
      <path id="HelveticaNeue-Bold-3d" d="M 2566 0 
L 4083 4570 
L 3046 4570 
L 2016 1357 
L 2003 1357 
L 986 4570 
L -45 4570 
L 1434 0 
L 2566 0 
z
" transform="scale(0.015625)"/>
      <path id="HelveticaNeue-Bold-5b" d="M 1498 3309 
L 1498 4301 
L 589 4301 
L 589 3309 
L 38 3309 
L 38 2701 
L 589 2701 
L 589 749 
Q 589 499 672 345 
Q 755 192 899 109 
Q 1043 26 1232 -3 
Q 1421 -32 1632 -32 
Q 1766 -32 1907 -25 
Q 2048 -19 2163 0 
L 2163 704 
Q 2099 691 2028 684 
Q 1958 678 1882 678 
Q 1651 678 1574 755 
Q 1498 832 1498 1062 
L 1498 2701 
L 2163 2701 
L 2163 3309 
L 1498 3309 
z
" transform="scale(0.015625)"/>
      <path id="HelveticaNeue-Bold-5e" d="M 4128 0 
L 5171 3309 
L 4237 3309 
L 3629 1069 
L 3616 1069 
L 3053 3309 
L 2170 3309 
L 1619 1062 
L 1606 1062 
L 998 3309 
L 38 3309 
L 1088 0 
L 2029 0 
L 2592 2221 
L 2605 2221 
L 3194 0 
L 4128 0 
z
" transform="scale(0.015625)"/>
      <path id="HelveticaNeue-Bold-56" d="M 1152 1651 
Q 1152 1850 1190 2042 
Q 1229 2234 1321 2381 
Q 1414 2528 1568 2621 
Q 1722 2714 1952 2714 
Q 2182 2714 2339 2621 
Q 2496 2528 2589 2381 
Q 2682 2234 2720 2042 
Q 2758 1850 2758 1651 
Q 2758 1453 2720 1264 
Q 2682 1075 2589 924 
Q 2496 774 2339 684 
Q 2182 595 1952 595 
Q 1722 595 1568 684 
Q 1414 774 1321 924 
Q 1229 1075 1190 1264 
Q 1152 1453 1152 1651 
z
M 243 1651 
Q 243 1254 364 934 
Q 486 614 710 387 
Q 934 160 1248 38 
Q 1562 -83 1952 -83 
Q 2342 -83 2659 38 
Q 2976 160 3200 387 
Q 3424 614 3545 934 
Q 3667 1254 3667 1651 
Q 3667 2048 3545 2371 
Q 3424 2694 3200 2921 
Q 2976 3149 2659 3273 
Q 2342 3398 1952 3398 
Q 1562 3398 1248 3273 
Q 934 3149 710 2921 
Q 486 2694 364 2371 
Q 243 2048 243 1651 
z
" transform="scale(0.015625)"/>
      <path id="HelveticaNeue-Bold-59" d="M 346 3309 
L 346 0 
L 1254 0 
L 1254 1491 
Q 1254 1715 1299 1907 
Q 1344 2099 1449 2243 
Q 1555 2387 1728 2470 
Q 1901 2554 2150 2554 
Q 2234 2554 2323 2544 
Q 2413 2534 2477 2522 
L 2477 3366 
Q 2368 3398 2278 3398 
Q 2106 3398 1946 3347 
Q 1786 3296 1645 3203 
Q 1504 3110 1395 2979 
Q 1286 2848 1222 2694 
L 1210 2694 
L 1210 3309 
L 346 3309 
z
" transform="scale(0.015625)"/>
      <path id="HelveticaNeue-Bold-52" d="M 429 4570 
L 429 0 
L 1338 0 
L 1338 1139 
L 1690 1478 
L 2598 0 
L 3699 0 
L 2310 2093 
L 3558 3309 
L 2483 3309 
L 1338 2118 
L 1338 4570 
L 429 4570 
z
" transform="scale(0.015625)"/>
      <path id="HelveticaNeue-Bold-50" d="M 1280 3821 
L 1280 4570 
L 371 4570 
L 371 3821 
L 1280 3821 
z
M 371 3309 
L 371 0 
L 1280 0 
L 1280 3309 
L 371 3309 
z
" transform="scale(0.015625)"/>
      <path id="HelveticaNeue-Bold-4f" d="M 346 4570 
L 346 0 
L 1254 0 
L 1254 1734 
Q 1254 2240 1420 2461 
Q 1587 2682 1958 2682 
Q 2285 2682 2413 2480 
Q 2541 2278 2541 1869 
L 2541 0 
L 3450 0 
L 3450 2035 
Q 3450 2342 3395 2595 
Q 3341 2848 3206 3024 
Q 3072 3200 2838 3299 
Q 2605 3398 2240 3398 
Q 1984 3398 1715 3267 
Q 1446 3136 1274 2848 
L 1254 2848 
L 1254 4570 
L 346 4570 
z
" transform="scale(0.015625)"/>
      <path id="HelveticaNeue-Bold-37" d="M 1446 2419 
L 1446 3789 
L 2227 3789 
Q 2400 3789 2560 3763 
Q 2720 3738 2841 3664 
Q 2963 3590 3036 3456 
Q 3110 3322 3110 3104 
Q 3110 2886 3036 2752 
Q 2963 2618 2841 2544 
Q 2720 2470 2560 2444 
Q 2400 2419 2227 2419 
L 1446 2419 
z
M 442 4570 
L 442 0 
L 1446 0 
L 1446 1638 
L 2502 1638 
Q 2931 1638 3232 1763 
Q 3533 1888 3721 2093 
Q 3910 2298 3996 2563 
Q 4083 2829 4083 3104 
Q 4083 3386 3996 3648 
Q 3910 3910 3721 4115 
Q 3533 4320 3232 4445 
Q 2931 4570 2502 4570 
L 442 4570 
z
" transform="scale(0.015625)"/>
      <path id="HelveticaNeue-Bold-f" d="M 1939 4678 
L 1178 4678 
Q 966 4371 809 4006 
Q 653 3642 547 3251 
Q 442 2861 387 2467 
Q 333 2074 333 1715 
Q 333 960 553 230 
Q 774 -499 1178 -1158 
L 1933 -1158 
Q 1568 -461 1405 275 
Q 1242 1011 1242 1779 
Q 1242 2534 1408 3267 
Q 1574 4000 1939 4678 
z
" transform="scale(0.015625)"/>
      <path id="HelveticaNeue-Bold-2d" d="M 442 4570 
L 442 0 
L 1446 0 
L 1446 1888 
L 3360 1888 
L 3360 2669 
L 1446 2669 
L 1446 3725 
L 3654 3725 
L 3654 4570 
L 442 4570 
z
" transform="scale(0.015625)"/>
      <path id="HelveticaNeue-Bold-4e" d="M 1888 781 
Q 1677 781 1536 870 
Q 1395 960 1308 1101 
Q 1222 1242 1187 1418 
Q 1152 1594 1152 1773 
Q 1152 1958 1193 2128 
Q 1235 2298 1328 2429 
Q 1421 2560 1558 2637 
Q 1696 2714 1888 2714 
Q 2112 2714 2259 2630 
Q 2406 2547 2496 2406 
Q 2586 2266 2624 2083 
Q 2662 1901 2662 1696 
Q 2662 1517 2614 1353 
Q 2566 1190 2470 1062 
Q 2374 934 2227 857 
Q 2080 781 1888 781 
z
M 3526 211 
L 3526 3309 
L 2662 3309 
L 2662 2867 
L 2650 2867 
Q 2483 3155 2236 3276 
Q 1990 3398 1664 3398 
Q 1318 3398 1052 3264 
Q 787 3130 608 2902 
Q 429 2675 336 2377 
Q 243 2080 243 1760 
Q 243 1421 323 1117 
Q 403 813 576 585 
Q 749 358 1017 227 
Q 1286 96 1658 96 
Q 1958 96 2230 221 
Q 2502 346 2650 608 
L 2662 608 
L 2662 173 
Q 2669 -179 2493 -409 
Q 2317 -640 1933 -640 
Q 1690 -640 1504 -541 
Q 1318 -442 1254 -186 
L 352 -186 
Q 371 -467 508 -668 
Q 646 -870 854 -998 
Q 1062 -1126 1315 -1187 
Q 1568 -1248 1811 -1248 
Q 2381 -1248 2720 -1094 
Q 3059 -941 3238 -720 
Q 3418 -499 3472 -243 
Q 3526 13 3526 211 
z
" transform="scale(0.015625)"/>
      <path id="HelveticaNeue-Bold-5c" d="M 3450 0 
L 3450 3309 
L 2541 3309 
L 2541 1574 
Q 2541 1069 2374 848 
Q 2208 627 1837 627 
Q 1510 627 1382 828 
Q 1254 1030 1254 1440 
L 1254 3309 
L 346 3309 
L 346 1274 
Q 346 966 400 713 
Q 454 461 588 285 
Q 723 109 956 13 
Q 1190 -83 1555 -83 
Q 1843 -83 2118 45 
Q 2394 173 2566 461 
L 2586 461 
L 2586 0 
L 3450 0 
z
" transform="scale(0.015625)"/>
      <path id="HelveticaNeue-Bold-1a" d="M 1459 2669 
L 1459 2029 
Q 1626 2029 1808 2019 
Q 1990 2010 2144 1949 
Q 2298 1888 2397 1753 
Q 2496 1619 2496 1363 
Q 2496 1037 2285 848 
Q 2074 659 1766 659 
Q 1568 659 1424 729 
Q 1280 800 1184 918 
Q 1088 1037 1037 1200 
Q 986 1363 979 1542 
L 115 1542 
Q 109 1152 227 851 
Q 346 550 563 342 
Q 781 134 1091 25 
Q 1402 -83 1779 -83 
Q 2106 -83 2406 13 
Q 2707 109 2937 294 
Q 3168 480 3305 755 
Q 3443 1030 3443 1382 
Q 3443 1766 3232 2041 
Q 3021 2317 2650 2400 
L 2650 2413 
Q 2963 2502 3120 2752 
Q 3277 3002 3277 3328 
Q 3277 3629 3142 3859 
Q 3008 4090 2793 4250 
Q 2579 4410 2310 4490 
Q 2042 4570 1773 4570 
Q 1427 4570 1145 4458 
Q 864 4346 662 4141 
Q 461 3936 349 3651 
Q 237 3366 224 3021 
L 1088 3021 
Q 1082 3366 1258 3593 
Q 1434 3821 1779 3821 
Q 2029 3821 2221 3667 
Q 2413 3514 2413 3226 
Q 2413 3034 2320 2918 
Q 2227 2803 2083 2742 
Q 1939 2682 1772 2669 
Q 1606 2656 1459 2669 
z
" transform="scale(0.015625)"/>
      <path id="HelveticaNeue-Bold-10" d="M -38 -1158 
L 717 -1158 
Q 928 -858 1088 -493 
Q 1248 -128 1353 259 
Q 1459 646 1510 1040 
Q 1562 1434 1562 1792 
Q 1562 2547 1341 3283 
Q 1120 4019 717 4678 
L -32 4678 
Q 320 3981 486 3238 
Q 653 2496 653 1728 
Q 653 973 483 246 
Q 314 -480 -38 -1158 
z
" transform="scale(0.015625)"/>
     </defs>
     <use xlink:href="#HelveticaNeue-Bold-2c"/>
     <use xlink:href="#HelveticaNeue-Bold-5f" transform="translate(64.796875 0)"/>
     <use xlink:href="#HelveticaNeue-Bold-57" transform="translate(118.5 0)"/>
     <use xlink:href="#HelveticaNeue-Bold-48" transform="translate(179.59375 0)"/>
     <use xlink:href="#HelveticaNeue-Bold-55" transform="translate(237 0)"/>
     <use xlink:href="#HelveticaNeue-Bold-4b" transform="translate(296.296875 0)"/>
     <use xlink:href="#HelveticaNeue-Bold-4c" transform="translate(357.390625 0)"/>
     <use xlink:href="#HelveticaNeue-Bold-4b" transform="translate(414.796875 0)"/>
     <use xlink:href="#HelveticaNeue-Bold-3" transform="translate(475.890625 0)"/>
     <use xlink:href="#HelveticaNeue-Bold-33" transform="translate(503.6875 0)"/>
     <use xlink:href="#HelveticaNeue-Bold-3d" transform="translate(553.78125 0)"/>
     <use xlink:href="#HelveticaNeue-Bold-3" transform="translate(616.78125 0)"/>
     <use xlink:href="#HelveticaNeue-Bold-55" transform="translate(644.578125 0)"/>
     <use xlink:href="#HelveticaNeue-Bold-4c" transform="translate(703.875 0)"/>
     <use xlink:href="#HelveticaNeue-Bold-5b" transform="translate(761.28125 0)"/>
     <use xlink:href="#HelveticaNeue-Bold-5e" transform="translate(796.484375 0)"/>
     <use xlink:href="#HelveticaNeue-Bold-56" transform="translate(877.890625 0)"/>
     <use xlink:href="#HelveticaNeue-Bold-59" transform="translate(938.984375 0)"/>
     <use xlink:href="#HelveticaNeue-Bold-52" transform="translate(977.890625 0)"/>
     <use xlink:href="#HelveticaNeue-Bold-3" transform="translate(1035.296875 0)"/>
     <use xlink:href="#HelveticaNeue-Bold-5e" transform="translate(1063.09375 0)"/>
     <use xlink:href="#HelveticaNeue-Bold-50" transform="translate(1144.5 0)"/>
     <use xlink:href="#HelveticaNeue-Bold-5b" transform="translate(1170.296875 0)"/>
     <use xlink:href="#HelveticaNeue-Bold-4f" transform="translate(1205.5 0)"/>
     <use xlink:href="#HelveticaNeue-Bold-3" transform="translate(1264.796875 0)"/>
     <use xlink:href="#HelveticaNeue-Bold-37" transform="translate(1292.59375 0)"/>
     <use xlink:href="#HelveticaNeue-Bold-3d" transform="translate(1359.296875 0)"/>
     <use xlink:href="#HelveticaNeue-Bold-3" transform="translate(1422.296875 0)"/>
     <use xlink:href="#HelveticaNeue-Bold-f" transform="translate(1450.09375 0)"/>
     <use xlink:href="#HelveticaNeue-Bold-2d" transform="translate(1479.6875 0)"/>
     <use xlink:href="#HelveticaNeue-Bold-50" transform="translate(1538.984375 0)"/>
     <use xlink:href="#HelveticaNeue-Bold-4e" transform="translate(1564.78125 0)"/>
     <use xlink:href="#HelveticaNeue-Bold-5c" transform="translate(1625.875 0)"/>
     <use xlink:href="#HelveticaNeue-Bold-59" transform="translate(1685.171875 0)"/>
     <use xlink:href="#HelveticaNeue-Bold-4c" transform="translate(1722.28125 0)"/>
     <use xlink:href="#HelveticaNeue-Bold-3" transform="translate(1779.6875 0)"/>
     <use xlink:href="#HelveticaNeue-Bold-1a" transform="translate(1807.484375 0)"/>
     <use xlink:href="#HelveticaNeue-Bold-10" transform="translate(1863.078125 0)"/>
    </g>
   </g>
   <g id="patch_13">
    <path d="M 59.105015 336.55722 
C 60.233412 336.55722 61.315744 336.108903 62.113641 335.311006 
C 62.911537 334.51311 63.359854 333.430777 63.359854 332.302381 
C 63.359854 331.173984 62.911537 330.091652 62.113641 329.293755 
C 61.315744 328.495859 60.233412 328.047542 59.105015 328.047542 
C 57.976619 328.047542 56.894286 328.495859 56.09639 329.293755 
C 55.298493 330.091652 54.850176 331.173984 54.850176 332.302381 
C 54.850176 333.430777 55.298493 334.51311 56.09639 335.311006 
C 56.894286 336.108903 57.976619 336.55722 59.105015 336.55722 
z
" clip-path="url(#pd007f2f5e1)" style="fill: #ea580c; stroke: #ffffff; stroke-linejoin: miter"/>
   </g>
   <g id="patch_14">
    <path d="M 94.680592 336.55722 
C 95.808988 336.55722 96.891321 336.108903 97.689218 335.311006 
C 98.487114 334.51311 98.935431 333.430777 98.935431 332.302381 
C 98.935431 331.173984 98.487114 330.091652 97.689218 329.293755 
C 96.891321 328.495859 95.808988 328.047542 94.680592 328.047542 
C 93.552196 328.047542 92.469863 328.495859 91.671966 329.293755 
C 90.87407 330.091652 90.425753 331.173984 90.425753 332.302381 
C 90.425753 333.430777 90.87407 334.51311 91.671966 335.311006 
C 92.469863 336.108903 93.552196 336.55722 94.680592 336.55722 
z
" clip-path="url(#pd007f2f5e1)" style="fill: #ea580c; stroke: #ffffff; stroke-linejoin: miter"/>
   </g>
   <g id="patch_15">
    <path d="M 130.256169 336.55722 
C 131.384565 336.55722 132.466898 336.108903 133.264794 335.311006 
C 134.062691 334.51311 134.511008 333.430777 134.511008 332.302381 
C 134.511008 331.173984 134.062691 330.091652 133.264794 329.293755 
C 132.466898 328.495859 131.384565 328.047542 130.256169 328.047542 
C 129.127772 328.047542 128.04544 328.495859 127.247543 329.293755 
C 126.449647 330.091652 126.00133 331.173984 126.00133 332.302381 
C 126.00133 333.430777 126.449647 334.51311 127.247543 335.311006 
C 128.04544 336.108903 129.127772 336.55722 130.256169 336.55722 
z
" clip-path="url(#pd007f2f5e1)" style="fill: #ea580c; stroke: #ffffff; stroke-linejoin: miter"/>
   </g>
   <g id="text_23">
    <!--  -->
    <g style="fill: #ffffff" transform="translate(54.555015 336.852381) scale(0.091 -0.091)">
     <defs>
      <path id="bootstrap-icons-73c" d="M 3200 1600 
Q 3627 1600 4000 1813 
Q 4373 2027 4586 2400 
Q 4800 2773 4800 3200 
Q 4800 3627 4586 4000 
Q 4373 4373 4000 4586 
Q 3627 4800 3200 4800 
Q 2773 4800 2400 4586 
Q 2027 4373 1813 4000 
Q 1600 3627 1600 3200 
Q 1600 2773 1813 2400 
Q 2027 2027 2400 1813 
Q 2773 1600 3200 1600 
z
M 3200 6400 
Q 3285 6400 3338 6346 
Q 3392 6293 3392 6208 
L 3392 5397 
Q 3392 5312 3338 5258 
Q 3285 5205 3200 5205 
Q 3115 5205 3061 5258 
Q 3008 5312 3008 5397 
L 3008 6208 
Q 3008 6293 3061 6346 
Q 3115 6400 3200 6400 
z
M 3200 1195 
Q 3285 1195 3338 1141 
Q 3392 1088 3392 1003 
L 3392 192 
Q 3392 107 3338 53 
Q 3285 0 3200 0 
Q 3115 0 3061 53 
Q 3008 107 3008 192 
L 3008 1003 
Q 3008 1088 3061 1141 
Q 3115 1195 3200 1195 
z
M 6400 3200 
Q 6400 3115 6346 3061 
Q 6293 3008 6208 3008 
L 5397 3008 
Q 5312 3008 5258 3061 
Q 5205 3115 5205 3200 
Q 5205 3285 5258 3338 
Q 5312 3392 5397 3392 
L 6208 3392 
Q 6293 3392 6346 3338 
Q 6400 3285 6400 3200 
z
M 1195 3200 
Q 1195 3115 1141 3061 
Q 1088 3008 1003 3008 
L 192 3008 
Q 107 3008 53 3061 
Q 0 3115 0 3200 
Q 0 3285 53 3338 
Q 107 3392 192 3392 
L 1003 3392 
Q 1088 3392 1141 3338 
Q 1195 3285 1195 3200 
z
M 5461 5461 
Q 5525 5397 5525 5322 
Q 5525 5248 5461 5184 
L 4907 4608 
Q 4843 4565 4757 4565 
Q 4672 4565 4618 4618 
Q 4565 4672 4565 4757 
Q 4565 4843 4608 4907 
L 5184 5461 
Q 5248 5525 5322 5525 
Q 5397 5525 5461 5461 
z
M 1792 1792 
Q 1835 1728 1835 1642 
Q 1835 1557 1792 1493 
L 1216 939 
Q 1152 875 1077 875 
Q 1003 875 939 939 
Q 875 1003 875 1077 
Q 875 1152 939 1216 
L 1493 1792 
Q 1557 1835 1642 1835 
Q 1728 1835 1792 1792 
z
M 5461 939 
Q 5397 875 5322 875 
Q 5248 875 5184 939 
L 4608 1493 
Q 4565 1557 4565 1642 
Q 4565 1728 4618 1781 
Q 4672 1835 4757 1835 
Q 4843 1835 4907 1792 
L 5461 1216 
Q 5525 1152 5525 1077 
Q 5525 1003 5461 939 
z
M 1792 4608 
Q 1728 4565 1642 4565 
Q 1557 4565 1493 4608 
L 939 5184 
Q 853 5269 885 5376 
Q 917 5483 1024 5515 
Q 1131 5547 1216 5461 
L 1792 4907 
Q 1835 4843 1835 4757 
Q 1835 4672 1792 4608 
z
" transform="scale(0.015625)"/>
     </defs>
     <use xlink:href="#bootstrap-icons-73c"/>
    </g>
   </g>
   <g id="text_24">
    <!--  -->
    <g style="fill: #ffffff" transform="translate(90.130592 336.852381) scale(0.091 -0.091)">
     <use xlink:href="#bootstrap-icons-73c"/>
    </g>
   </g>
   <g id="text_25">
    <!--  -->
    <g style="fill: #ffffff" transform="translate(125.706169 336.852381) scale(0.091 -0.091)">
     <use xlink:href="#bootstrap-icons-73c"/>
    </g>
   </g>
   <g id="legend_1">
    <g id="text_26">
     <!--  -->
     <g style="fill: #1e293b" transform="translate(179.075057 36.841) scale(0.092 -0.092)">
      <use xlink:href="#bootstrap-icons-526"/>
     </g>
    </g>
    <g id="text_27">
     <!-- Grid source -->
     <g transform="translate(195.675057 35.041) scale(0.08 -0.08)">
      <defs>
       <path id="HelveticaNeue-2e" d="M 3917 570 
L 4077 0 
L 4461 0 
L 4461 2406 
L 2458 2406 
L 2458 1894 
L 3917 1894 
Q 3930 1581 3834 1309 
Q 3738 1037 3549 835 
Q 3360 634 3085 518 
Q 2810 403 2451 403 
Q 2067 403 1776 553 
Q 1485 704 1286 957 
Q 1088 1210 985 1539 
Q 883 1869 883 2227 
Q 883 2592 972 2941 
Q 1062 3290 1251 3562 
Q 1440 3834 1737 4000 
Q 2035 4166 2451 4166 
Q 2707 4166 2934 4105 
Q 3162 4045 3341 3923 
Q 3520 3802 3641 3613 
Q 3763 3424 3808 3162 
L 4416 3162 
Q 4352 3565 4176 3849 
Q 4000 4134 3741 4320 
Q 3482 4506 3152 4592 
Q 2822 4678 2451 4678 
Q 1907 4678 1500 4476 
Q 1094 4275 822 3936 
Q 550 3597 412 3145 
Q 275 2694 275 2195 
Q 275 1747 422 1331 
Q 570 915 851 595 
Q 1133 275 1536 86 
Q 1939 -102 2451 -102 
Q 2854 -102 3251 54 
Q 3648 211 3917 570 
z
" transform="scale(0.015625)"/>
       <path id="HelveticaNeue-50" d="M 986 3904 
L 986 4570 
L 442 4570 
L 442 3904 
L 986 3904 
z
M 442 3309 
L 442 0 
L 986 0 
L 986 3309 
L 442 3309 
z
" transform="scale(0.015625)"/>
      </defs>
      <use xlink:href="#HelveticaNeue-2e"/>
      <use xlink:href="#HelveticaNeue-59" transform="translate(75.90625 0)"/>
      <use xlink:href="#HelveticaNeue-50" transform="translate(109.203125 0)"/>
      <use xlink:href="#HelveticaNeue-4b" transform="translate(131.40625 0)"/>
      <use xlink:href="#HelveticaNeue-3" transform="translate(190.703125 0)"/>
      <use xlink:href="#HelveticaNeue-5a" transform="translate(218.5 0)"/>
      <use xlink:href="#HelveticaNeue-56" transform="translate(268.5 0)"/>
      <use xlink:href="#HelveticaNeue-5c" transform="translate(325.90625 0)"/>
      <use xlink:href="#HelveticaNeue-59" transform="translate(381.5 0)"/>
      <use xlink:href="#HelveticaNeue-4a" transform="translate(413 0)"/>
      <use xlink:href="#HelveticaNeue-4c" transform="translate(466.703125 0)"/>
     </g>
    </g>
    <g id="text_28">
     <!--  -->
     <g style="fill: #1e293b" transform="translate(179.075057 48.561) scale(0.092 -0.092)">
      <use xlink:href="#bootstrap-icons-499"/>
     </g>
    </g>
    <g id="text_29">
     <!-- Transformer -->
     <g transform="translate(195.675057 46.761) scale(0.08 -0.08)">
      <defs>
       <path id="HelveticaNeue-3b" d="M 1536 4058 
L 1536 0 
L 2144 0 
L 2144 4058 
L 3667 4058 
L 3667 4570 
L 13 4570 
L 13 4058 
L 1536 4058 
z
" transform="scale(0.015625)"/>
       <path id="HelveticaNeue-55" d="M 410 3309 
L 410 0 
L 954 0 
L 954 1869 
Q 954 2093 1014 2281 
Q 1075 2470 1196 2611 
Q 1318 2752 1500 2829 
Q 1683 2906 1933 2906 
Q 2246 2906 2425 2726 
Q 2605 2547 2605 2240 
L 2605 0 
L 3149 0 
L 3149 2176 
Q 3149 2445 3094 2665 
Q 3040 2886 2905 3046 
Q 2771 3206 2553 3296 
Q 2336 3386 2010 3386 
Q 1274 3386 934 2784 
L 922 2784 
L 922 3309 
L 410 3309 
z
" transform="scale(0.015625)"/>
       <path id="HelveticaNeue-54" d="M 410 3309 
L 410 0 
L 954 0 
L 954 2061 
Q 954 2157 1002 2301 
Q 1050 2445 1155 2579 
Q 1261 2714 1430 2810 
Q 1600 2906 1837 2906 
Q 2022 2906 2140 2851 
Q 2259 2797 2329 2697 
Q 2400 2598 2429 2464 
Q 2458 2330 2458 2170 
L 2458 0 
L 3002 0 
L 3002 2061 
Q 3002 2445 3232 2675 
Q 3462 2906 3866 2906 
Q 4064 2906 4189 2848 
Q 4314 2790 4384 2691 
Q 4454 2592 4480 2457 
Q 4506 2323 4506 2170 
L 4506 0 
L 5050 0 
L 5050 2426 
Q 5050 2682 4970 2864 
Q 4890 3046 4746 3161 
Q 4602 3277 4400 3331 
Q 4198 3386 3949 3386 
Q 3622 3386 3350 3238 
Q 3078 3091 2912 2822 
Q 2810 3130 2560 3258 
Q 2310 3386 2003 3386 
Q 1306 3386 934 2822 
L 922 2822 
L 922 3309 
L 410 3309 
z
" transform="scale(0.015625)"/>
      </defs>
      <use xlink:href="#HelveticaNeue-3b"/>
      <use xlink:href="#HelveticaNeue-59" transform="translate(48.203125 0)"/>
      <use xlink:href="#HelveticaNeue-48" transform="translate(81.5 0)"/>
      <use xlink:href="#HelveticaNeue-55" transform="translate(135.203125 0)"/>
      <use xlink:href="#HelveticaNeue-5a" transform="translate(190.796875 0)"/>
      <use xlink:href="#HelveticaNeue-4d" transform="translate(240.796875 0)"/>
      <use xlink:href="#HelveticaNeue-56" transform="translate(270.390625 0)"/>
      <use xlink:href="#HelveticaNeue-59" transform="translate(327.796875 0)"/>
      <use xlink:href="#HelveticaNeue-54" transform="translate(361.09375 0)"/>
      <use xlink:href="#HelveticaNeue-4c" transform="translate(446.390625 0)"/>
      <use xlink:href="#HelveticaNeue-59" transform="translate(500.09375 0)"/>
     </g>
    </g>
    <g id="text_30">
     <!--  -->
     <g style="fill: #1e293b" transform="translate(179.075057 60.281) scale(0.092 -0.092)">
      <use xlink:href="#bootstrap-icons-648"/>
     </g>
    </g>
    <g id="text_31">
     <!-- Bus (junction) -->
     <g transform="translate(195.675057 58.481) scale(0.08 -0.08)">
      <defs>
       <path id="HelveticaNeue-29" d="M 1107 2605 
L 1107 4058 
L 2323 4058 
Q 2522 4058 2698 4035 
Q 2874 4013 3008 3936 
Q 3142 3859 3219 3718 
Q 3296 3578 3296 3334 
Q 3296 2970 3069 2787 
Q 2842 2605 2323 2605 
L 1107 2605 
z
M 499 4570 
L 499 0 
L 2707 0 
Q 3046 0 3305 112 
Q 3565 224 3741 406 
Q 3917 589 4006 825 
Q 4096 1062 4096 1312 
Q 4096 1734 3872 2028 
Q 3648 2323 3226 2413 
L 3226 2426 
Q 3552 2554 3728 2819 
Q 3904 3085 3904 3450 
Q 3904 3795 3747 4032 
Q 3590 4269 3366 4403 
Q 3264 4467 3120 4499 
Q 2976 4531 2809 4547 
Q 2643 4563 2473 4566 
Q 2304 4570 2157 4570 
L 499 4570 
z
M 1107 512 
L 1107 2093 
L 2496 2093 
Q 2688 2093 2867 2057 
Q 3046 2022 3184 1936 
Q 3322 1850 3405 1702 
Q 3488 1555 3488 1331 
Q 3488 947 3261 729 
Q 3034 512 2630 512 
L 1107 512 
z
" transform="scale(0.015625)"/>
       <path id="HelveticaNeue-f" d="M 1306 -1261 
L 1722 -1261 
Q 1267 -525 1072 198 
Q 877 922 877 1728 
Q 877 2515 1069 3232 
Q 1261 3949 1722 4678 
L 1306 4678 
Q 806 4019 553 3251 
Q 301 2483 301 1728 
Q 301 1306 371 922 
Q 442 538 573 173 
Q 704 -192 889 -547 
Q 1075 -902 1306 -1261 
z
" transform="scale(0.015625)"/>
       <path id="HelveticaNeue-5b" d="M 1165 3309 
L 1165 4301 
L 621 4301 
L 621 3309 
L 58 3309 
L 58 2829 
L 621 2829 
L 621 723 
Q 621 493 665 352 
Q 710 211 803 134 
Q 896 58 1046 29 
Q 1197 0 1408 0 
L 1824 0 
L 1824 480 
L 1574 480 
Q 1446 480 1366 489 
Q 1286 499 1241 531 
Q 1197 563 1181 620 
Q 1165 678 1165 774 
L 1165 2829 
L 1824 2829 
L 1824 3309 
L 1165 3309 
z
" transform="scale(0.015625)"/>
       <path id="HelveticaNeue-10" d="M -58 -1261 
L 352 -1261 
Q 851 -602 1104 163 
Q 1357 928 1357 1683 
Q 1357 2106 1286 2490 
Q 1216 2874 1085 3242 
Q 954 3610 768 3965 
Q 582 4320 352 4678 
L -58 4678 
Q 390 3942 585 3216 
Q 781 2490 781 1683 
Q 781 902 589 182 
Q 397 -538 -58 -1261 
z
" transform="scale(0.015625)"/>
      </defs>
      <use xlink:href="#HelveticaNeue-29"/>
      <use xlink:href="#HelveticaNeue-5c" transform="translate(68.5 0)"/>
      <use xlink:href="#HelveticaNeue-5a" transform="translate(124.09375 0)"/>
      <use xlink:href="#HelveticaNeue-3" transform="translate(174.09375 0)"/>
      <use xlink:href="#HelveticaNeue-f" transform="translate(201.890625 0)"/>
      <use xlink:href="#HelveticaNeue-51" transform="translate(227.796875 0)"/>
      <use xlink:href="#HelveticaNeue-5c" transform="translate(250 0)"/>
      <use xlink:href="#HelveticaNeue-55" transform="translate(305.59375 0)"/>
      <use xlink:href="#HelveticaNeue-4a" transform="translate(361.1875 0)"/>
      <use xlink:href="#HelveticaNeue-5b" transform="translate(414.890625 0)"/>
      <use xlink:href="#HelveticaNeue-50" transform="translate(446.390625 0)"/>
      <use xlink:href="#HelveticaNeue-56" transform="translate(468.59375 0)"/>
      <use xlink:href="#HelveticaNeue-55" transform="translate(526 0)"/>
      <use xlink:href="#HelveticaNeue-10" transform="translate(581.59375 0)"/>
     </g>
    </g>
    <g id="text_32">
     <!--  -->
     <g style="fill: #1e293b" transform="translate(179.075057 72.001) scale(0.092 -0.092)">
      <use xlink:href="#bootstrap-icons-4c8"/>
     </g>
    </g>
    <g id="text_33">
     <!-- Load bus -->
     <g transform="translate(195.675057 70.201) scale(0.08 -0.08)">
      <defs>
       <path id="HelveticaNeue-33" d="M 499 4570 
L 499 0 
L 3526 0 
L 3526 512 
L 1107 512 
L 1107 4570 
L 499 4570 
z
" transform="scale(0.015625)"/>
      </defs>
      <use xlink:href="#HelveticaNeue-33"/>
      <use xlink:href="#HelveticaNeue-56" transform="translate(55.59375 0)"/>
      <use xlink:href="#HelveticaNeue-48" transform="translate(113 0)"/>
      <use xlink:href="#HelveticaNeue-4b" transform="translate(166.703125 0)"/>
      <use xlink:href="#HelveticaNeue-3" transform="translate(226 0)"/>
      <use xlink:href="#HelveticaNeue-49" transform="translate(253.796875 0)"/>
      <use xlink:href="#HelveticaNeue-5c" transform="translate(313.09375 0)"/>
      <use xlink:href="#HelveticaNeue-5a" transform="translate(368.6875 0)"/>
     </g>
    </g>
    <g id="text_34">
     <!--  -->
     <g style="fill: #1e293b" transform="translate(179.075057 83.721) scale(0.092 -0.092)">
      <use xlink:href="#bootstrap-icons-73c"/>
     </g>
    </g>
    <g id="text_35">
     <!-- PV system -->
     <g transform="translate(195.675057 81.921) scale(0.08 -0.08)">
      <defs>
       <path id="HelveticaNeue-37" d="M 1107 2381 
L 1107 4058 
L 2298 4058 
Q 2816 4058 3056 3843 
Q 3296 3629 3296 3219 
Q 3296 2810 3056 2592 
Q 2816 2374 2298 2381 
L 1107 2381 
z
M 499 4570 
L 499 0 
L 1107 0 
L 1107 1869 
L 2502 1869 
Q 3194 1862 3549 2220 
Q 3904 2579 3904 3219 
Q 3904 3859 3549 4214 
Q 3194 4570 2502 4570 
L 499 4570 
z
" transform="scale(0.015625)"/>
       <path id="HelveticaNeue-3d" d="M 2298 0 
L 3923 4570 
L 3290 4570 
L 1971 608 
L 1958 608 
L 653 4570 
L 0 4570 
L 1606 0 
L 2298 0 
z
" transform="scale(0.015625)"/>
       <path id="HelveticaNeue-60" d="M 1709 -442 
Q 1613 -685 1520 -851 
Q 1427 -1018 1315 -1123 
Q 1203 -1229 1065 -1277 
Q 928 -1325 749 -1325 
Q 653 -1325 557 -1312 
Q 461 -1299 371 -1267 
L 371 -768 
Q 442 -800 534 -822 
Q 627 -845 691 -845 
Q 858 -845 970 -765 
Q 1082 -685 1139 -538 
L 1363 19 
L 51 3309 
L 666 3309 
L 1632 602 
L 1645 602 
L 2573 3309 
L 3149 3309 
L 1709 -442 
z
" transform="scale(0.015625)"/>
      </defs>
      <use xlink:href="#HelveticaNeue-37"/>
      <use xlink:href="#HelveticaNeue-3d" transform="translate(64.796875 0)"/>
      <use xlink:href="#HelveticaNeue-3" transform="translate(125.890625 0)"/>
      <use xlink:href="#HelveticaNeue-5a" transform="translate(153.6875 0)"/>
      <use xlink:href="#HelveticaNeue-60" transform="translate(203.6875 0)"/>
      <use xlink:href="#HelveticaNeue-5a" transform="translate(253.6875 0)"/>
      <use xlink:href="#HelveticaNeue-5b" transform="translate(303.6875 0)"/>
      <use xlink:href="#HelveticaNeue-4c" transform="translate(335.1875 0)"/>
      <use xlink:href="#HelveticaNeue-54" transform="translate(388.890625 0)"/>
     </g>
    </g>
    <g id="line2d_10">
     <defs>
      <path id="m8691e55662" d="M 0 4.5 
C 1.193414 4.5 2.338109 4.025852 3.181981 3.181981 
C 4.025852 2.338109 4.5 1.193414 4.5 0 
C 4.5 -1.193414 4.025852 -2.338109 3.181981 -3.181981 
C 2.338109 -4.025852 1.193414 -4.5 0 -4.5 
C -1.193414 -4.5 -2.338109 -4.025852 -3.181981 -3.181981 
C -4.025852 -2.338109 -4.5 -1.193414 -4.5 0 
C -4.5 1.193414 -4.025852 2.338109 -3.181981 3.181981 
C -2.338109 4.025852 -1.193414 4.5 0 4.5 
z
" style="stroke: #059669; stroke-width: 0.8"/>
     </defs>
     <g>
      <use xlink:href="#m8691e55662" x="183.675057" y="90.841" style="fill: #059669; stroke: #059669; stroke-width: 0.8"/>
     </g>
    </g>
    <g id="text_36">
     <!-- Compliant (0.94-1.10 pu) -->
     <g transform="translate(195.675057 93.641) scale(0.08 -0.08)">
      <defs>
       <path id="HelveticaNeue-2a" d="M 3712 3194 
L 4320 3194 
Q 4269 3558 4102 3836 
Q 3936 4115 3686 4300 
Q 3437 4486 3117 4582 
Q 2797 4678 2438 4678 
Q 1914 4678 1507 4489 
Q 1101 4301 829 3974 
Q 557 3648 416 3209 
Q 275 2771 275 2272 
Q 275 1773 406 1337 
Q 538 902 800 582 
Q 1062 262 1459 80 
Q 1856 -102 2387 -102 
Q 3264 -102 3769 378 
Q 4275 858 4365 1722 
L 3757 1722 
Q 3738 1440 3642 1197 
Q 3546 954 3376 778 
Q 3206 602 2972 502 
Q 2739 403 2438 403 
Q 2029 403 1734 556 
Q 1440 710 1251 969 
Q 1062 1229 972 1577 
Q 883 1926 883 2317 
Q 883 2675 972 3008 
Q 1062 3341 1251 3600 
Q 1440 3859 1731 4012 
Q 2022 4166 2432 4166 
Q 2912 4166 3261 3923 
Q 3610 3680 3712 3194 
z
" transform="scale(0.015625)"/>
       <path id="HelveticaNeue-53" d="M 442 4570 
L 442 0 
L 986 0 
L 986 4570 
L 442 4570 
z
" transform="scale(0.015625)"/>
       <path id="HelveticaNeue-14" d="M 320 2035 
L 320 1523 
L 2170 1523 
L 2170 2035 
L 320 2035 
z
" transform="scale(0.015625)"/>
      </defs>
      <use xlink:href="#HelveticaNeue-2a"/>
      <use xlink:href="#HelveticaNeue-56" transform="translate(72.203125 0)"/>
      <use xlink:href="#HelveticaNeue-54" transform="translate(129.609375 0)"/>
      <use xlink:href="#HelveticaNeue-57" transform="translate(214.90625 0)"/>
      <use xlink:href="#HelveticaNeue-53" transform="translate(274.203125 0)"/>
      <use xlink:href="#HelveticaNeue-50" transform="translate(296.40625 0)"/>
      <use xlink:href="#HelveticaNeue-48" transform="translate(318.609375 0)"/>
      <use xlink:href="#HelveticaNeue-55" transform="translate(372.3125 0)"/>
      <use xlink:href="#HelveticaNeue-5b" transform="translate(427.90625 0)"/>
      <use xlink:href="#HelveticaNeue-3" transform="translate(459.40625 0)"/>
      <use xlink:href="#HelveticaNeue-f" transform="translate(487.203125 0)"/>
      <use xlink:href="#HelveticaNeue-17" transform="translate(513.109375 0)"/>
      <use xlink:href="#HelveticaNeue-15" transform="translate(568.703125 0)"/>
      <use xlink:href="#HelveticaNeue-20" transform="translate(596.5 0)"/>
      <use xlink:href="#HelveticaNeue-1b" transform="translate(652.09375 0)"/>
      <use xlink:href="#HelveticaNeue-14" transform="translate(707.6875 0)"/>
      <use xlink:href="#HelveticaNeue-18" transform="translate(746.59375 0)"/>
      <use xlink:href="#HelveticaNeue-15" transform="translate(802.1875 0)"/>
      <use xlink:href="#HelveticaNeue-18" transform="translate(829.984375 0)"/>
      <use xlink:href="#HelveticaNeue-17" transform="translate(885.578125 0)"/>
      <use xlink:href="#HelveticaNeue-3" transform="translate(941.171875 0)"/>
      <use xlink:href="#HelveticaNeue-57" transform="translate(968.96875 0)"/>
      <use xlink:href="#HelveticaNeue-5c" transform="translate(1028.265625 0)"/>
      <use xlink:href="#HelveticaNeue-10" transform="translate(1083.859375 0)"/>
     </g>
    </g>
    <g id="line2d_11">
     <defs>
      <path id="md134e04ca2" d="M 0 4.5 
C 1.193414 4.5 2.338109 4.025852 3.181981 3.181981 
C 4.025852 2.338109 4.5 1.193414 4.5 0 
C 4.5 -1.193414 4.025852 -2.338109 3.181981 -3.181981 
C 2.338109 -4.025852 1.193414 -4.5 0 -4.5 
C -1.193414 -4.5 -2.338109 -4.025852 -3.181981 -3.181981 
C -4.025852 -2.338109 -4.5 -1.193414 -4.5 0 
C -4.5 1.193414 -4.025852 2.338109 -3.181981 3.181981 
C -2.338109 4.025852 -1.193414 4.5 0 4.5 
z
" style="stroke: #ea580c; stroke-width: 0.8"/>
     </defs>
     <g>
      <use xlink:href="#md134e04ca2" x="183.675057" y="102.561" style="fill: #ea580c; stroke: #ea580c; stroke-width: 0.8"/>
     </g>
    </g>
    <g id="text_37">
     <!-- Near limit -->
     <g transform="translate(195.675057 105.361) scale(0.08 -0.08)">
      <defs>
       <path id="HelveticaNeue-35" d="M 493 4570 
L 493 0 
L 1069 0 
L 1069 3667 
L 1082 3667 
L 3469 0 
L 4134 0 
L 4134 4570 
L 3558 4570 
L 3558 864 
L 3546 864 
L 1139 4570 
L 493 4570 
z
" transform="scale(0.015625)"/>
      </defs>
      <use xlink:href="#HelveticaNeue-35"/>
      <use xlink:href="#HelveticaNeue-4c" transform="translate(72.203125 0)"/>
      <use xlink:href="#HelveticaNeue-48" transform="translate(125.90625 0)"/>
      <use xlink:href="#HelveticaNeue-59" transform="translate(179.609375 0)"/>
      <use xlink:href="#HelveticaNeue-3" transform="translate(212.90625 0)"/>
      <use xlink:href="#HelveticaNeue-53" transform="translate(240.703125 0)"/>
      <use xlink:href="#HelveticaNeue-50" transform="translate(262.90625 0)"/>
      <use xlink:href="#HelveticaNeue-54" transform="translate(285.109375 0)"/>
      <use xlink:href="#HelveticaNeue-50" transform="translate(370.40625 0)"/>
      <use xlink:href="#HelveticaNeue-5b" transform="translate(392.609375 0)"/>
     </g>
    </g>
    <g id="line2d_12">
     <defs>
      <path id="m0a60bae8ee" d="M 0 4.5 
C 1.193414 4.5 2.338109 4.025852 3.181981 3.181981 
C 4.025852 2.338109 4.5 1.193414 4.5 0 
C 4.5 -1.193414 4.025852 -2.338109 3.181981 -3.181981 
C 2.338109 -4.025852 1.193414 -4.5 0 -4.5 
C -1.193414 -4.5 -2.338109 -4.025852 -3.181981 -3.181981 
C -4.025852 -2.338109 -4.5 -1.193414 -4.5 0 
C -4.5 1.193414 -4.025852 2.338109 -3.181981 3.181981 
C -2.338109 4.025852 -1.193414 4.5 0 4.5 
z
" style="stroke: #dc2626; stroke-width: 0.8"/>
     </defs>
     <g>
      <use xlink:href="#m0a60bae8ee" x="183.675057" y="114.281" style="fill: #dc2626; stroke: #dc2626; stroke-width: 0.8"/>
     </g>
    </g>
    <g id="text_38">
     <!-- Violation -->
     <g transform="translate(195.675057 117.081) scale(0.08 -0.08)">
      <use xlink:href="#HelveticaNeue-3d"/>
      <use xlink:href="#HelveticaNeue-50" transform="translate(59.296875 0)"/>
      <use xlink:href="#HelveticaNeue-56" transform="translate(81.5 0)"/>
      <use xlink:href="#HelveticaNeue-53" transform="translate(138.90625 0)"/>
      <use xlink:href="#HelveticaNeue-48" transform="translate(161.109375 0)"/>
      <use xlink:href="#HelveticaNeue-5b" transform="translate(214.8125 0)"/>
      <use xlink:href="#HelveticaNeue-50" transform="translate(246.3125 0)"/>
      <use xlink:href="#HelveticaNeue-56" transform="translate(268.515625 0)"/>
      <use xlink:href="#HelveticaNeue-55" transform="translate(325.921875 0)"/>
     </g>
    </g>
   </g>
  </g>
 </g>
 <defs>
  <clipPath id="pd007f2f5e1">
   <rect x="3.6" y="24.225" width="167.916723" height="353.775"/>
  </clipPath>
 </defs>
</svg>
