<?xml version="1.0" encoding="utf-8" standalone="no"?>
<!DOCTYPE svg PUBLIC "-//W3C//DTD SVG 1.1//EN"
  "http://www.w3.org/Graphics/SVG/1.1/DTD/svg11.dtd">
<svg xmlns:xlink="http://www.w3.org/1999/xlink" width="733.68pt" height="330.48pt" viewBox="0 0 733.68 330.48" xmlns="http://www.w3.org/2000/svg" version="1.1">
 <metadata>
  <rdf:RDF xmlns:dc="http://purl.org/dc/elements/1.1/" xmlns:cc="http://creativecommons.org/ns#" xmlns:rdf="http://www.w3.org/1999/02/22-rdf-syntax-ns#">
   <cc:Work>
    <dc:type rdf:resource="http://purl.org/dc/dcmitype/StillImage"/>
    <dc:date>2026-07-16T23:02:05.415175</dc:date>
    <dc:format>image/svg+xml</dc:format>
    <dc:creator>
     <cc:Agent>
      <dc:title>Matplotlib v3.11.0, https://matplotlib.org/</dc:title>
     </cc:Agent>
    </dc:creator>
   </cc:Work>
  </rdf:RDF>
 </metadata>
 <defs>
  <style type="text/css">*{stroke-linejoin: round; stroke-linecap: butt}</style>
 </defs>
 <g id="figure_1">
  <g id="patch_1">
   <path d="M 0 330.48 
L 733.68 330.48 
L 733.68 0 
L 0 0 
z
" style="fill: #ffffff"/>
  </g>
  <g id="axes_1">
   <g id="line2d_1">
    <path d="M 180.347443 157.298594 
L 209.536618 148.269324 
" clip-path="url(#p8111531c44)" style="fill: none; stroke: #6b7280; stroke-width: 3.094119; stroke-linecap: square"/>
   </g>
   <g id="line2d_2">
    <path d="M 180.347443 157.298594 
L 181.472217 77.866637 
" clip-path="url(#p8111531c44)" style="fill: none; stroke: #6b7280; stroke-width: 1.611625; stroke-linecap: square"/>
   </g>
   <g id="line2d_3">
    <path d="M 180.347443 157.298594 
L 128.288185 139.564753 
" clip-path="url(#p8111531c44)" style="fill: none; stroke: #6b7280; stroke-width: 2.131731; stroke-linecap: square"/>
   </g>
   <g id="line2d_4">
    <path d="M 180.347443 157.298594 
L 118.102736 240.468711 
" clip-path="url(#p8111531c44)" style="fill: none; stroke: #6b7280; stroke-width: 1.330542; stroke-linecap: square"/>
   </g>
   <g id="line2d_5">
    <path d="M 180.347443 157.298594 
L 219.083497 212.233379 
" clip-path="url(#p8111531c44)" style="fill: none; stroke: #6b7280; stroke-width: 1.831983; stroke-linecap: square"/>
   </g>
   <g id="patch_2">
    <path d="M 209.536618 161.101926 
C 212.939864 161.101926 216.20418 159.749802 218.610638 157.343344 
C 221.017097 154.936886 222.369221 151.67257 222.369221 148.269324 
C 222.369221 144.866078 221.017097 141.601762 218.610638 139.195304 
C 216.20418 136.788845 212.939864 135.436721 209.536618 135.436721 
C 206.133372 135.436721 202.869056 136.788845 200.462598 139.195304 
C 198.05614 141.601762 196.704016 144.866078 196.704016 148.269324 
C 196.704016 151.67257 198.05614 154.936886 200.462598 157.343344 
C 202.869056 159.749802 206.133372 161.101926 209.536618 161.101926 
z
" clip-path="url(#p8111531c44)" style="fill: #059669; opacity: 0.738471; stroke: #ffffff; stroke-width: 1.2; stroke-linejoin: miter"/>
   </g>
   <g id="patch_3">
    <path d="M 181.472217 90.699239 
C 184.875463 90.699239 188.139779 89.347115 190.546237 86.940657 
C 192.952695 84.534199 194.304819 81.269883 194.304819 77.866637 
C 194.304819 74.463391 192.952695 71.199075 190.546237 68.792617 
C 188.139779 66.386158 184.875463 65.034034 181.472217 65.034034 
C 178.068971 65.034034 174.804655 66.386158 172.398197 68.792617 
C 169.991738 71.199075 168.639614 74.463391 168.639614 77.866637 
C 168.639614 81.269883 169.991738 84.534199 172.398197 86.940657 
C 174.804655 89.347115 178.068971 90.699239 181.472217 90.699239 
z
" clip-path="url(#p8111531c44)" style="fill: #059669; opacity: 0.605046; stroke: #ffffff; stroke-width: 1.2; stroke-linejoin: miter"/>
   </g>
   <g id="patch_4">
    <path d="M 128.288185 152.397356 
C 131.691431 152.397356 134.955747 151.045232 137.362206 148.638773 
C 139.768664 146.232315 141.120788 142.967999 141.120788 139.564753 
C 141.120788 136.161507 139.768664 132.897191 137.362206 130.490733 
C 134.955747 128.084275 131.691431 126.732151 128.288185 126.732151 
C 124.884939 126.732151 121.620623 128.084275 119.214165 130.490733 
C 116.807707 132.897191 115.455583 136.161507 115.455583 139.564753 
C 115.455583 142.967999 116.807707 146.232315 119.214165 148.638773 
C 121.620623 151.045232 124.884939 152.397356 128.288185 152.397356 
z
" clip-path="url(#p8111531c44)" style="fill: #059669; opacity: 0.651856; stroke: #ffffff; stroke-width: 1.2; stroke-linejoin: miter"/>
   </g>
   <g id="patch_5">
    <path d="M 118.102736 253.301313 
C 121.505982 253.301313 124.770298 251.94919 127.176757 249.542731 
C 129.583215 247.136273 130.935339 243.871957 130.935339 240.468711 
C 130.935339 237.065465 129.583215 233.801149 127.176757 231.394691 
C 124.770298 228.988232 121.505982 227.636109 118.102736 227.636109 
C 114.69949 227.636109 111.435175 228.988232 109.028716 231.394691 
C 106.622258 233.801149 105.270134 237.065465 105.270134 240.468711 
C 105.270134 243.871957 106.622258 247.136273 109.028716 249.542731 
C 111.435175 251.94919 114.69949 253.301313 118.102736 253.301313 
z
" clip-path="url(#p8111531c44)" style="fill: #059669; opacity: 0.579749; stroke: #ffffff; stroke-width: 1.2; stroke-linejoin: miter"/>
   </g>
   <g id="patch_6">
    <path d="M 219.083497 225.065982 
C 222.486743 225.065982 225.751059 223.713858 228.157517 221.307399 
C 230.563975 218.900941 231.916099 215.636625 231.916099 212.233379 
C 231.916099 208.830133 230.563975 205.565817 228.157517 203.159359 
C 225.751059 200.752901 222.486743 199.400777 219.083497 199.400777 
C 215.680251 199.400777 212.415935 200.752901 210.009477 203.159359 
C 207.603018 205.565817 206.250894 208.830133 206.250894 212.233379 
C 206.250894 215.636625 207.603018 218.900941 210.009477 221.307399 
C 212.415935 223.713858 215.680251 225.065982 219.083497 225.065982 
z
" clip-path="url(#p8111531c44)" style="fill: #059669; opacity: 0.624878; stroke: #ffffff; stroke-width: 1.2; stroke-linejoin: miter"/>
   </g>
   <g id="text_1">
    <!-- 42% -->
    <g style="fill: #ffffff" transform="translate(199.962243 150.347449) scale(0.08 -0.08)">
     <defs>
      <path id="DejaVuSans-Bold-17" d="M 2356 3675 
L 1038 1722 
L 2356 1722 
L 2356 3675 
z
M 2156 4666 
L 3494 4666 
L 3494 1722 
L 4159 1722 
L 4159 850 
L 3494 850 
L 3494 0 
L 2356 0 
L 2356 850 
L 288 850 
L 288 1881 
L 2156 4666 
z
" transform="scale(0.015625)"/>
      <path id="DejaVuSans-Bold-15" d="M 1844 884 
L 3897 884 
L 3897 0 
L 506 0 
L 506 884 
L 2209 2388 
Q 2438 2594 2547 2791 
Q 2656 2988 2656 3200 
Q 2656 3528 2436 3728 
Q 2216 3928 1850 3928 
Q 1569 3928 1234 3808 
Q 900 3688 519 3450 
L 519 4475 
Q 925 4609 1322 4679 
Q 1719 4750 2100 4750 
Q 2938 4750 3402 4381 
Q 3866 4013 3866 3353 
Q 3866 2972 3669 2642 
Q 3472 2313 2841 1759 
L 1844 884 
z
" transform="scale(0.015625)"/>
      <path id="DejaVuSans-Bold-8" d="M 4959 1925 
Q 4738 1925 4616 1733 
Q 4494 1541 4494 1184 
Q 4494 825 4614 633 
Q 4734 441 4959 441 
Q 5184 441 5303 633 
Q 5422 825 5422 1184 
Q 5422 1541 5301 1733 
Q 5181 1925 4959 1925 
z
M 4959 2450 
Q 5541 2450 5875 2112 
Q 6209 1775 6209 1184 
Q 6209 594 5875 251 
Q 5541 -91 4959 -91 
Q 4378 -91 4042 251 
Q 3706 594 3706 1184 
Q 3706 1772 4042 2111 
Q 4378 2450 4959 2450 
z
M 2094 -91 
L 1403 -91 
L 4319 4750 
L 5013 4750 
L 2094 -91 
z
M 1453 4750 
Q 2034 4750 2367 4411 
Q 2700 4072 2700 3481 
Q 2700 2891 2367 2550 
Q 2034 2209 1453 2209 
Q 872 2209 539 2550 
Q 206 2891 206 3481 
Q 206 4072 539 4411 
Q 872 4750 1453 4750 
z
M 1453 4225 
Q 1228 4225 1106 4031 
Q 984 3838 984 3481 
Q 984 3122 1106 2926 
Q 1228 2731 1453 2731 
Q 1678 2731 1798 2926 
Q 1919 3122 1919 3481 
Q 1919 3838 1797 4031 
Q 1675 4225 1453 4225 
z
" transform="scale(0.015625)"/>
     </defs>
     <use xlink:href="#DejaVuSans-Bold-17"/>
     <use xlink:href="#DejaVuSans-Bold-15" transform="translate(69.578125 0)"/>
     <use xlink:href="#DejaVuSans-Bold-8" transform="translate(139.15625 0)"/>
    </g>
   </g>
   <g id="text_2">
    <!-- 12% -->
    <g style="fill: #ffffff" transform="translate(171.897842 79.944762) scale(0.08 -0.08)">
     <defs>
      <path id="DejaVuSans-Bold-14" d="M 750 831 
L 1813 831 
L 1813 3847 
L 722 3622 
L 722 4441 
L 1806 4666 
L 2950 4666 
L 2950 831 
L 4013 831 
L 4013 0 
L 750 0 
L 750 831 
z
" transform="scale(0.015625)"/>
     </defs>
     <use xlink:href="#DejaVuSans-Bold-14"/>
     <use xlink:href="#DejaVuSans-Bold-15" transform="translate(69.578125 0)"/>
     <use xlink:href="#DejaVuSans-Bold-8" transform="translate(139.15625 0)"/>
    </g>
   </g>
   <g id="text_3">
    <!-- 23% -->
    <g style="fill: #ffffff" transform="translate(118.71381 141.642878) scale(0.08 -0.08)">
     <defs>
      <path id="DejaVuSans-Bold-16" d="M 2981 2516 
Q 3453 2394 3698 2092 
Q 3944 1791 3944 1325 
Q 3944 631 3412 270 
Q 2881 -91 1863 -91 
Q 1503 -91 1142 -33 
Q 781 25 428 141 
L 428 1069 
Q 766 900 1098 814 
Q 1431 728 1753 728 
Q 2231 728 2486 893 
Q 2741 1059 2741 1369 
Q 2741 1688 2480 1852 
Q 2219 2016 1709 2016 
L 1228 2016 
L 1228 2791 
L 1734 2791 
Q 2188 2791 2409 2933 
Q 2631 3075 2631 3366 
Q 2631 3634 2415 3781 
Q 2200 3928 1806 3928 
Q 1516 3928 1219 3862 
Q 922 3797 628 3669 
L 628 4550 
Q 984 4650 1334 4700 
Q 1684 4750 2022 4750 
Q 2931 4750 3382 4451 
Q 3834 4153 3834 3553 
Q 3834 3144 3618 2883 
Q 3403 2622 2981 2516 
z
" transform="scale(0.015625)"/>
     </defs>
     <use xlink:href="#DejaVuSans-Bold-15"/>
     <use xlink:href="#DejaVuSans-Bold-16" transform="translate(69.578125 0)"/>
     <use xlink:href="#DejaVuSans-Bold-8" transform="translate(139.15625 0)"/>
    </g>
   </g>
   <g id="text_4">
    <!-- 7% -->
    <g style="fill: #ffffff" transform="translate(111.311486 242.546836) scale(0.08 -0.08)">
     <defs>
      <path id="DejaVuSans-Bold-1a" d="M 428 4666 
L 3944 4666 
L 3944 3988 
L 2125 0 
L 953 0 
L 2675 3781 
L 428 3781 
L 428 4666 
z
" transform="scale(0.015625)"/>
     </defs>
     <use xlink:href="#DejaVuSans-Bold-1a"/>
     <use xlink:href="#DejaVuSans-Bold-8" transform="translate(69.578125 0)"/>
    </g>
   </g>
   <g id="text_5">
    <!-- 17% -->
    <g style="fill: #ffffff" transform="translate(209.509122 214.311504) scale(0.08 -0.08)">
     <use xlink:href="#DejaVuSans-Bold-14"/>
     <use xlink:href="#DejaVuSans-Bold-1a" transform="translate(69.578125 0)"/>
     <use xlink:href="#DejaVuSans-Bold-8" transform="translate(139.15625 0)"/>
    </g>
   </g>
   <g id="text_6">
    <!-- New customer's -->
    <g style="fill: #1e293b" transform="translate(143.583897 190.320216) scale(0.082 -0.082)">
     <defs>
      <path id="DejaVuSans-Bold-31" d="M 588 4666 
L 1931 4666 
L 3628 1466 
L 3628 4666 
L 4769 4666 
L 4769 0 
L 3425 0 
L 1728 3200 
L 1728 0 
L 588 0 
L 588 4666 
z
" transform="scale(0.015625)"/>
      <path id="DejaVuSans-Bold-48" d="M 4031 1759 
L 4031 1441 
L 1416 1441 
Q 1456 1047 1700 850 
Q 1944 653 2381 653 
Q 2734 653 3104 758 
Q 3475 863 3866 1075 
L 3866 213 
Q 3469 63 3072 -14 
Q 2675 -91 2278 -91 
Q 1328 -91 801 392 
Q 275 875 275 1747 
Q 275 2603 792 3093 
Q 1309 3584 2216 3584 
Q 3041 3584 3536 3087 
Q 4031 2591 4031 1759 
z
M 2881 2131 
Q 2881 2450 2695 2645 
Q 2509 2841 2209 2841 
Q 1884 2841 1681 2658 
Q 1478 2475 1428 2131 
L 2881 2131 
z
" transform="scale(0.015625)"/>
      <path id="DejaVuSans-Bold-5a" d="M 225 3500 
L 1313 3500 
L 1900 1088 
L 2491 3500 
L 3425 3500 
L 4013 1113 
L 4603 3500 
L 5691 3500 
L 4769 0 
L 3547 0 
L 2956 2406 
L 2369 0 
L 1147 0 
L 225 3500 
z
" transform="scale(0.015625)"/>
      <path id="DejaVuSans-Bold-3" transform="scale(0.015625)"/>
      <path id="DejaVuSans-Bold-46" d="M 3366 3391 
L 3366 2478 
Q 3138 2634 2908 2709 
Q 2678 2784 2431 2784 
Q 1963 2784 1702 2511 
Q 1441 2238 1441 1747 
Q 1441 1256 1702 982 
Q 1963 709 2431 709 
Q 2694 709 2930 787 
Q 3166 866 3366 1019 
L 3366 103 
Q 3103 6 2833 -42 
Q 2563 -91 2291 -91 
Q 1344 -91 809 395 
Q 275 881 275 1747 
Q 275 2613 809 3098 
Q 1344 3584 2291 3584 
Q 2566 3584 2833 3536 
Q 3100 3488 3366 3391 
z
" transform="scale(0.015625)"/>
      <path id="DejaVuSans-Bold-58" d="M 500 1363 
L 500 3500 
L 1625 3500 
L 1625 3150 
Q 1625 2866 1622 2436 
Q 1619 2006 1619 1863 
Q 1619 1441 1641 1255 
Q 1663 1069 1716 984 
Q 1784 875 1895 815 
Q 2006 756 2150 756 
Q 2500 756 2700 1025 
Q 2900 1294 2900 1772 
L 2900 3500 
L 4019 3500 
L 4019 0 
L 2900 0 
L 2900 506 
Q 2647 200 2364 54 
Q 2081 -91 1741 -91 
Q 1134 -91 817 281 
Q 500 653 500 1363 
z
" transform="scale(0.015625)"/>
      <path id="DejaVuSans-Bold-56" d="M 3272 3391 
L 3272 2541 
Q 2913 2691 2578 2766 
Q 2244 2841 1947 2841 
Q 1628 2841 1473 2761 
Q 1319 2681 1319 2516 
Q 1319 2381 1436 2309 
Q 1553 2238 1856 2203 
L 2053 2175 
Q 2913 2066 3209 1816 
Q 3506 1566 3506 1031 
Q 3506 472 3093 190 
Q 2681 -91 1863 -91 
Q 1516 -91 1145 -36 
Q 775 19 384 128 
L 384 978 
Q 719 816 1070 734 
Q 1422 653 1784 653 
Q 2113 653 2278 743 
Q 2444 834 2444 1013 
Q 2444 1163 2330 1236 
Q 2216 1309 1875 1350 
L 1678 1375 
Q 931 1469 631 1722 
Q 331 1975 331 2491 
Q 331 3047 712 3315 
Q 1094 3584 1881 3584 
Q 2191 3584 2531 3537 
Q 2872 3491 3272 3391 
z
" transform="scale(0.015625)"/>
      <path id="DejaVuSans-Bold-57" d="M 1759 4494 
L 1759 3500 
L 2913 3500 
L 2913 2700 
L 1759 2700 
L 1759 1216 
Q 1759 972 1856 886 
Q 1953 800 2241 800 
L 2816 800 
L 2816 0 
L 1856 0 
Q 1194 0 917 276 
Q 641 553 641 1216 
L 641 2700 
L 84 2700 
L 84 3500 
L 641 3500 
L 641 4494 
L 1759 4494 
z
" transform="scale(0.015625)"/>
      <path id="DejaVuSans-Bold-52" d="M 2203 2784 
Q 1831 2784 1636 2517 
Q 1441 2250 1441 1747 
Q 1441 1244 1636 976 
Q 1831 709 2203 709 
Q 2569 709 2762 976 
Q 2956 1244 2956 1747 
Q 2956 2250 2762 2517 
Q 2569 2784 2203 2784 
z
M 2203 3584 
Q 3106 3584 3614 3096 
Q 4122 2609 4122 1747 
Q 4122 884 3614 396 
Q 3106 -91 2203 -91 
Q 1297 -91 786 396 
Q 275 884 275 1747 
Q 275 2609 786 3096 
Q 1297 3584 2203 3584 
z
" transform="scale(0.015625)"/>
      <path id="DejaVuSans-Bold-50" d="M 3781 2919 
Q 3994 3244 4286 3414 
Q 4578 3584 4928 3584 
Q 5531 3584 5847 3212 
Q 6163 2841 6163 2131 
L 6163 0 
L 5038 0 
L 5038 1825 
Q 5041 1866 5042 1909 
Q 5044 1953 5044 2034 
Q 5044 2406 4934 2573 
Q 4825 2741 4581 2741 
Q 4263 2741 4089 2478 
Q 3916 2216 3909 1719 
L 3909 0 
L 2784 0 
L 2784 1825 
Q 2784 2406 2684 2573 
Q 2584 2741 2328 2741 
Q 2006 2741 1831 2477 
Q 1656 2213 1656 1722 
L 1656 0 
L 531 0 
L 531 3500 
L 1656 3500 
L 1656 2988 
Q 1863 3284 2130 3434 
Q 2397 3584 2719 3584 
Q 3081 3584 3359 3409 
Q 3638 3234 3781 2919 
z
" transform="scale(0.015625)"/>
      <path id="DejaVuSans-Bold-55" d="M 3138 2547 
Q 2991 2616 2845 2648 
Q 2700 2681 2553 2681 
Q 2122 2681 1889 2404 
Q 1656 2128 1656 1613 
L 1656 0 
L 538 0 
L 538 3500 
L 1656 3500 
L 1656 2925 
Q 1872 3269 2151 3426 
Q 2431 3584 2822 3584 
Q 2878 3584 2943 3579 
Q 3009 3575 3134 3559 
L 3138 2547 
z
" transform="scale(0.015625)"/>
      <path id="DejaVuSans-Bold-a" d="M 1350 4666 
L 1350 2931 
L 609 2931 
L 609 4666 
L 1350 4666 
z
" transform="scale(0.015625)"/>
     </defs>
     <use xlink:href="#DejaVuSans-Bold-31"/>
     <use xlink:href="#DejaVuSans-Bold-48" transform="translate(83.6875 0)"/>
     <use xlink:href="#DejaVuSans-Bold-5a" transform="translate(151.515625 0)"/>
     <use xlink:href="#DejaVuSans-Bold-3" transform="translate(243.90625 0)"/>
     <use xlink:href="#DejaVuSans-Bold-46" transform="translate(278.71875 0)"/>
     <use xlink:href="#DejaVuSans-Bold-58" transform="translate(338 0)"/>
     <use xlink:href="#DejaVuSans-Bold-56" transform="translate(409.1875 0)"/>
     <use xlink:href="#DejaVuSans-Bold-57" transform="translate(468.703125 0)"/>
     <use xlink:href="#DejaVuSans-Bold-52" transform="translate(516.5 0)"/>
     <use xlink:href="#DejaVuSans-Bold-50" transform="translate(585.203125 0)"/>
     <use xlink:href="#DejaVuSans-Bold-48" transform="translate(689.40625 0)"/>
     <use xlink:href="#DejaVuSans-Bold-55" transform="translate(757.234375 0)"/>
     <use xlink:href="#DejaVuSans-Bold-a" transform="translate(806.546875 0)"/>
     <use xlink:href="#DejaVuSans-Bold-56" transform="translate(837.15625 0)"/>
    </g>
    <!-- partial-history shape -->
    <g style="fill: #1e293b" transform="translate(131.880959 200.162458) scale(0.082 -0.082)">
     <defs>
      <path id="DejaVuSans-Bold-53" d="M 1656 506 
L 1656 -1331 
L 538 -1331 
L 538 3500 
L 1656 3500 
L 1656 2988 
Q 1888 3294 2169 3439 
Q 2450 3584 2816 3584 
Q 3463 3584 3878 3070 
Q 4294 2556 4294 1747 
Q 4294 938 3878 423 
Q 3463 -91 2816 -91 
Q 2450 -91 2169 54 
Q 1888 200 1656 506 
z
M 2400 2772 
Q 2041 2772 1848 2508 
Q 1656 2244 1656 1747 
Q 1656 1250 1848 986 
Q 2041 722 2400 722 
Q 2759 722 2948 984 
Q 3138 1247 3138 1747 
Q 3138 2247 2948 2509 
Q 2759 2772 2400 2772 
z
" transform="scale(0.015625)"/>
      <path id="DejaVuSans-Bold-44" d="M 2106 1575 
Q 1756 1575 1579 1456 
Q 1403 1338 1403 1106 
Q 1403 894 1545 773 
Q 1688 653 1941 653 
Q 2256 653 2472 879 
Q 2688 1106 2688 1447 
L 2688 1575 
L 2106 1575 
z
M 3816 1997 
L 3816 0 
L 2688 0 
L 2688 519 
Q 2463 200 2181 54 
Q 1900 -91 1497 -91 
Q 953 -91 614 226 
Q 275 544 275 1050 
Q 275 1666 698 1953 
Q 1122 2241 2028 2241 
L 2688 2241 
L 2688 2328 
Q 2688 2594 2478 2717 
Q 2269 2841 1825 2841 
Q 1466 2841 1156 2769 
Q 847 2697 581 2553 
L 581 3406 
Q 941 3494 1303 3539 
Q 1666 3584 2028 3584 
Q 2975 3584 3395 3211 
Q 3816 2838 3816 1997 
z
" transform="scale(0.015625)"/>
      <path id="DejaVuSans-Bold-4c" d="M 538 3500 
L 1656 3500 
L 1656 0 
L 538 0 
L 538 3500 
z
M 538 4863 
L 1656 4863 
L 1656 3950 
L 538 3950 
L 538 4863 
z
" transform="scale(0.015625)"/>
      <path id="DejaVuSans-Bold-4f" d="M 538 4863 
L 1656 4863 
L 1656 0 
L 538 0 
L 538 4863 
z
" transform="scale(0.015625)"/>
      <path id="DejaVuSans-Bold-10" d="M 347 2297 
L 2309 2297 
L 2309 1388 
L 347 1388 
L 347 2297 
z
" transform="scale(0.015625)"/>
      <path id="DejaVuSans-Bold-4b" d="M 4056 2131 
L 4056 0 
L 2931 0 
L 2931 347 
L 2931 1625 
Q 2931 2084 2911 2256 
Q 2891 2428 2841 2509 
Q 2775 2619 2662 2680 
Q 2550 2741 2406 2741 
Q 2056 2741 1856 2470 
Q 1656 2200 1656 1722 
L 1656 0 
L 538 0 
L 538 4863 
L 1656 4863 
L 1656 2988 
Q 1909 3294 2193 3439 
Q 2478 3584 2822 3584 
Q 3428 3584 3742 3212 
Q 4056 2841 4056 2131 
z
" transform="scale(0.015625)"/>
      <path id="DejaVuSans-Bold-5c" d="M 78 3500 
L 1197 3500 
L 2138 1125 
L 2938 3500 
L 4056 3500 
L 2584 -331 
Q 2363 -916 2067 -1148 
Q 1772 -1381 1288 -1381 
L 641 -1381 
L 641 -647 
L 991 -647 
Q 1275 -647 1404 -556 
Q 1534 -466 1606 -231 
L 1638 -134 
L 78 3500 
z
" transform="scale(0.015625)"/>
     </defs>
     <use xlink:href="#DejaVuSans-Bold-53"/>
     <use xlink:href="#DejaVuSans-Bold-44" transform="translate(71.578125 0)"/>
     <use xlink:href="#DejaVuSans-Bold-55" transform="translate(139.0625 0)"/>
     <use xlink:href="#DejaVuSans-Bold-57" transform="translate(188.375 0)"/>
     <use xlink:href="#DejaVuSans-Bold-4c" transform="translate(236.171875 0)"/>
     <use xlink:href="#DejaVuSans-Bold-44" transform="translate(270.453125 0)"/>
     <use xlink:href="#DejaVuSans-Bold-4f" transform="translate(337.9375 0)"/>
     <use xlink:href="#DejaVuSans-Bold-10" transform="translate(372.21875 0)"/>
     <use xlink:href="#DejaVuSans-Bold-4b" transform="translate(413.71875 0)"/>
     <use xlink:href="#DejaVuSans-Bold-4c" transform="translate(484.90625 0)"/>
     <use xlink:href="#DejaVuSans-Bold-56" transform="translate(519.1875 0)"/>
     <use xlink:href="#DejaVuSans-Bold-57" transform="translate(578.703125 0)"/>
     <use xlink:href="#DejaVuSans-Bold-52" transform="translate(626.5 0)"/>
     <use xlink:href="#DejaVuSans-Bold-55" transform="translate(695.203125 0)"/>
     <use xlink:href="#DejaVuSans-Bold-5c" transform="translate(744.515625 0)"/>
     <use xlink:href="#DejaVuSans-Bold-3" transform="translate(809.703125 0)"/>
     <use xlink:href="#DejaVuSans-Bold-56" transform="translate(844.515625 0)"/>
     <use xlink:href="#DejaVuSans-Bold-4b" transform="translate(904.03125 0)"/>
     <use xlink:href="#DejaVuSans-Bold-44" transform="translate(975.21875 0)"/>
     <use xlink:href="#DejaVuSans-Bold-53" transform="translate(1042.703125 0)"/>
     <use xlink:href="#DejaVuSans-Bold-48" transform="translate(1114.28125 0)"/>
    </g>
   </g>
   <g id="text_7">
    <!-- $w_i = e^{-d_i/T} \,/\, \sum_j e^{-d_j/T}$ -->
    <g style="fill: #1e293b" transform="translate(133.517443 37.508714) scale(0.105 -0.105)">
     <defs>
      <path id="DejaVuSans-Oblique-5a" d="M 544 3500 
L 1113 3500 
L 1259 684 
L 2566 3500 
L 3231 3500 
L 3425 684 
L 4666 3500 
L 5241 3500 
L 3641 0 
L 2969 0 
L 2797 2900 
L 1459 0 
L 781 0 
L 544 3500 
z
" transform="scale(0.015625)"/>
      <path id="DejaVuSans-Oblique-4c" d="M 1172 4863 
L 1747 4863 
L 1606 4134 
L 1031 4134 
L 1172 4863 
z
M 909 3500 
L 1484 3500 
L 800 0 
L 225 0 
L 909 3500 
z
" transform="scale(0.015625)"/>
      <path id="DejaVuSans-20" d="M 678 2906 
L 4684 2906 
L 4684 2381 
L 678 2381 
L 678 2906 
z
M 678 1631 
L 4684 1631 
L 4684 1100 
L 678 1100 
L 678 1631 
z
" transform="scale(0.015625)"/>
      <path id="DejaVuSans-Oblique-48" d="M 3078 2063 
Q 3088 2113 3092 2166 
Q 3097 2219 3097 2272 
Q 3097 2653 2873 2875 
Q 2650 3097 2266 3097 
Q 1838 3097 1509 2826 
Q 1181 2556 1013 2059 
L 3078 2063 
z
M 3578 1613 
L 903 1613 
Q 884 1494 878 1425 
Q 872 1356 872 1306 
Q 872 872 1139 634 
Q 1406 397 1894 397 
Q 2269 397 2603 481 
Q 2938 566 3225 728 
L 3116 159 
Q 2806 34 2476 -28 
Q 2147 -91 1806 -91 
Q 1078 -91 686 257 
Q 294 606 294 1247 
Q 294 1794 489 2264 
Q 684 2734 1063 3103 
Q 1306 3334 1642 3459 
Q 1978 3584 2356 3584 
Q 2950 3584 3301 3228 
Q 3653 2872 3653 2272 
Q 3653 2128 3634 1964 
Q 3616 1800 3578 1613 
z
" transform="scale(0.015625)"/>
      <path id="DejaVuSans-c9c" d="M 678 2272 
L 4684 2272 
L 4684 1741 
L 678 1741 
L 678 2272 
z
" transform="scale(0.015625)"/>
      <path id="DejaVuSans-Oblique-47" d="M 2675 525 
Q 2444 222 2128 65 
Q 1813 -91 1428 -91 
Q 903 -91 598 267 
Q 294 625 294 1247 
Q 294 1766 478 2236 
Q 663 2706 1013 3078 
Q 1244 3325 1534 3454 
Q 1825 3584 2144 3584 
Q 2481 3584 2739 3421 
Q 2997 3259 3138 2956 
L 3513 4863 
L 4091 4863 
L 3144 0 
L 2566 0 
L 2675 525 
z
M 891 1350 
Q 891 897 1095 644 
Q 1300 391 1663 391 
Q 1931 391 2161 520 
Q 2391 650 2566 903 
Q 2750 1166 2856 1509 
Q 2963 1853 2963 2188 
Q 2963 2622 2758 2865 
Q 2553 3109 2194 3109 
Q 1922 3109 1687 2981 
Q 1453 2853 1288 2613 
Q 1106 2353 998 2009 
Q 891 1666 891 1350 
z
" transform="scale(0.015625)"/>
      <path id="DejaVuSans-12" d="M 1625 4666 
L 2156 4666 
L 531 -594 
L 0 -594 
L 1625 4666 
z
" transform="scale(0.015625)"/>
      <path id="DejaVuSans-Oblique-37" d="M 378 4666 
L 4325 4666 
L 4225 4134 
L 2559 4134 
L 1759 0 
L 1125 0 
L 1925 4134 
L 275 4134 
L 378 4666 
z
" transform="scale(0.015625)"/>
      <path id="DejaVuSansDisplay-10" d="M 244 6509 
L 5803 6509 
L 5803 5656 
L 1566 5656 
L 4534 2488 
L 1469 -888 
L 5919 -888 
L 5919 -1738 
L 109 -1738 
L 109 -1078 
L 3316 2463 
L 244 5728 
L 244 6509 
z
" transform="scale(0.015625)"/>
      <path id="DejaVuSans-Oblique-4d" d="M 928 3500 
L 1503 3500 
L 813 -63 
L 809 -78 
Q 694 -675 544 -897 
Q 403 -1106 132 -1218 
Q -138 -1331 -506 -1331 
L -722 -1331 
L -628 -844 
L -481 -844 
Q -144 -844 -1 -703 
Q 141 -563 238 -63 
L 928 3500 
z
M 1197 4863 
L 1772 4863 
L 1631 4134 
L 1056 4134 
L 1197 4863 
z
" transform="scale(0.015625)"/>
     </defs>
     <use xlink:href="#DejaVuSans-Oblique-5a" transform="translate(0 0.296875)"/>
     <use xlink:href="#DejaVuSans-Oblique-4c" transform="translate(81.787109 -14.703076) scale(0.7)"/>
     <use xlink:href="#DejaVuSans-20" transform="translate(123.452148 0.296875)"/>
     <use xlink:href="#DejaVuSans-Oblique-48" transform="translate(226.723633 0.296875)"/>
     <use xlink:href="#DejaVuSans-c9c" transform="translate(292.896966 41.596875) scale(0.7)"/>
     <use xlink:href="#DejaVuSans-Oblique-47" transform="translate(351.54931 41.596875) scale(0.7)"/>
     <use xlink:href="#DejaVuSans-Oblique-4c" transform="translate(395.982904 31.096909) scale(0.49)"/>
     <use xlink:href="#DejaVuSans-12" transform="translate(411.510736 41.596875) scale(0.7)"/>
     <use xlink:href="#DejaVuSans-Oblique-37" transform="translate(435.09472 41.596875) scale(0.7)"/>
     <use xlink:href="#DejaVuSans-12" transform="translate(496.82356 0.296875)"/>
     <use xlink:href="#DejaVuSansDisplay-10" transform="translate(546.750643 0.296875)"/>
     <use xlink:href="#DejaVuSans-Oblique-4d" transform="translate(578.750643 -98.798438) scale(0.7)"/>
     <use xlink:href="#DejaVuSans-Oblique-48" transform="translate(637.531893 0.296875)"/>
     <use xlink:href="#DejaVuSans-c9c" transform="translate(703.705226 41.596875) scale(0.7)"/>
     <use xlink:href="#DejaVuSans-Oblique-47" transform="translate(762.35757 41.596875) scale(0.7)"/>
     <use xlink:href="#DejaVuSans-Oblique-4d" transform="translate(806.791164 31.096909) scale(0.49)"/>
     <use xlink:href="#DejaVuSans-12" transform="translate(822.318996 41.596875) scale(0.7)"/>
     <use xlink:href="#DejaVuSans-Oblique-37" transform="translate(845.90298 41.596875) scale(0.7)"/>
    </g>
   </g>
   <g id="text_8">
    <!-- Distance becomes weight -->
    <g style="fill: #1e293b" transform="translate(93.706506 19.917188) scale(0.12 -0.12)">
     <defs>
      <path id="DejaVuSans-Bold-27" d="M 1791 3756 
L 1791 909 
L 2222 909 
Q 2959 909 3348 1275 
Q 3738 1641 3738 2338 
Q 3738 3031 3350 3393 
Q 2963 3756 2222 3756 
L 1791 3756 
z
M 588 4666 
L 1856 4666 
Q 2919 4666 3439 4514 
Q 3959 4363 4331 4000 
Q 4659 3684 4818 3271 
Q 4978 2859 4978 2338 
Q 4978 1809 4818 1395 
Q 4659 981 4331 666 
Q 3956 303 3431 151 
Q 2906 0 1856 0 
L 588 0 
L 588 4666 
z
" transform="scale(0.015625)"/>
      <path id="DejaVuSans-Bold-51" d="M 4056 2131 
L 4056 0 
L 2931 0 
L 2931 347 
L 2931 1631 
Q 2931 2084 2911 2256 
Q 2891 2428 2841 2509 
Q 2775 2619 2662 2680 
Q 2550 2741 2406 2741 
Q 2056 2741 1856 2470 
Q 1656 2200 1656 1722 
L 1656 0 
L 538 0 
L 538 3500 
L 1656 3500 
L 1656 2988 
Q 1909 3294 2193 3439 
Q 2478 3584 2822 3584 
Q 3428 3584 3742 3212 
Q 4056 2841 4056 2131 
z
" transform="scale(0.015625)"/>
      <path id="DejaVuSans-Bold-45" d="M 2400 722 
Q 2759 722 2948 984 
Q 3138 1247 3138 1747 
Q 3138 2247 2948 2509 
Q 2759 2772 2400 2772 
Q 2041 2772 1848 2508 
Q 1656 2244 1656 1747 
Q 1656 1250 1848 986 
Q 2041 722 2400 722 
z
M 1656 2988 
Q 1888 3294 2169 3439 
Q 2450 3584 2816 3584 
Q 3463 3584 3878 3070 
Q 4294 2556 4294 1747 
Q 4294 938 3878 423 
Q 3463 -91 2816 -91 
Q 2450 -91 2169 54 
Q 1888 200 1656 506 
L 1656 0 
L 538 0 
L 538 4863 
L 1656 4863 
L 1656 2988 
z
" transform="scale(0.015625)"/>
      <path id="DejaVuSans-Bold-4a" d="M 2919 594 
Q 2688 288 2409 144 
Q 2131 0 1766 0 
Q 1125 0 706 504 
Q 288 1009 288 1791 
Q 288 2575 706 3076 
Q 1125 3578 1766 3578 
Q 2131 3578 2409 3434 
Q 2688 3291 2919 2981 
L 2919 3500 
L 4044 3500 
L 4044 353 
Q 4044 -491 3511 -936 
Q 2978 -1381 1966 -1381 
Q 1638 -1381 1331 -1331 
Q 1025 -1281 716 -1178 
L 716 -306 
Q 1009 -475 1290 -558 
Q 1572 -641 1856 -641 
Q 2406 -641 2662 -400 
Q 2919 -159 2919 353 
L 2919 594 
z
M 2181 2772 
Q 1834 2772 1640 2515 
Q 1447 2259 1447 1791 
Q 1447 1309 1634 1061 
Q 1822 813 2181 813 
Q 2531 813 2725 1069 
Q 2919 1325 2919 1791 
Q 2919 2259 2725 2515 
Q 2531 2772 2181 2772 
z
" transform="scale(0.015625)"/>
     </defs>
     <use xlink:href="#DejaVuSans-Bold-27"/>
     <use xlink:href="#DejaVuSans-Bold-4c" transform="translate(83.015625 0)"/>
     <use xlink:href="#DejaVuSans-Bold-56" transform="translate(117.296875 0)"/>
     <use xlink:href="#DejaVuSans-Bold-57" transform="translate(176.8125 0)"/>
     <use xlink:href="#DejaVuSans-Bold-44" transform="translate(224.609375 0)"/>
     <use xlink:href="#DejaVuSans-Bold-51" transform="translate(292.09375 0)"/>
     <use xlink:href="#DejaVuSans-Bold-46" transform="translate(363.28125 0)"/>
     <use xlink:href="#DejaVuSans-Bold-48" transform="translate(422.5625 0)"/>
     <use xlink:href="#DejaVuSans-Bold-3" transform="translate(490.390625 0)"/>
     <use xlink:href="#DejaVuSans-Bold-45" transform="translate(525.203125 0)"/>
     <use xlink:href="#DejaVuSans-Bold-48" transform="translate(596.78125 0)"/>
     <use xlink:href="#DejaVuSans-Bold-46" transform="translate(664.609375 0)"/>
     <use xlink:href="#DejaVuSans-Bold-52" transform="translate(723.890625 0)"/>
     <use xlink:href="#DejaVuSans-Bold-50" transform="translate(792.59375 0)"/>
     <use xlink:href="#DejaVuSans-Bold-48" transform="translate(896.796875 0)"/>
     <use xlink:href="#DejaVuSans-Bold-56" transform="translate(964.625 0)"/>
     <use xlink:href="#DejaVuSans-Bold-3" transform="translate(1024.140625 0)"/>
     <use xlink:href="#DejaVuSans-Bold-5a" transform="translate(1058.953125 0)"/>
     <use xlink:href="#DejaVuSans-Bold-48" transform="translate(1151.34375 0)"/>
     <use xlink:href="#DejaVuSans-Bold-4c" transform="translate(1219.171875 0)"/>
     <use xlink:href="#DejaVuSans-Bold-4a" transform="translate(1253.453125 0)"/>
     <use xlink:href="#DejaVuSans-Bold-4b" transform="translate(1325.03125 0)"/>
     <use xlink:href="#DejaVuSans-Bold-57" transform="translate(1396.21875 0)"/>
    </g>
   </g>
   <g id="patch_7">
    <path d="M 180.347443 167.075815 
C 182.940393 167.075815 185.427491 166.045625 187.260983 164.212133 
C 189.094475 162.378641 190.124664 159.891543 190.124664 157.298594 
C 190.124664 154.705644 189.094475 152.218547 187.260983 150.385055 
C 185.427491 148.551562 182.940393 147.521373 180.347443 147.521373 
C 177.754494 147.521373 175.267396 148.551562 173.433904 150.385055 
C 171.600412 152.218547 170.570223 154.705644 170.570223 157.298594 
C 170.570223 159.891543 171.600412 162.378641 173.433904 164.212133 
C 175.267396 166.045625 177.754494 167.075815 180.347443 167.075815 
z
" clip-path="url(#p8111531c44)" style="fill: #1e293b; stroke: #ffffff; stroke-width: 1.4; stroke-linejoin: miter"/>
   </g>
  </g>
  <g id="axes_2">
   <g id="patch_8">
    <path d="M 383.785113 288.68 
L 722.88 288.68 
L 722.88 25.917188 
L 383.785113 25.917188 
z
" style="fill: #ffffff"/>
   </g>
   <g id="patch_9">
    <path d="M 399.198517 288.68 
L 409.676323 288.68 
L 409.676323 221.441031 
L 399.198517 221.441031 
z
" clip-path="url(#p5ee4441922)" style="fill: #059669; opacity: 0.75"/>
   </g>
   <g id="patch_10">
    <path d="M 410.227786 288.68 
L 420.705592 288.68 
L 420.705592 200.207673 
L 410.227786 200.207673 
z
" clip-path="url(#p5ee4441922)" style="fill: #059669; opacity: 0.75"/>
   </g>
   <g id="patch_11">
    <path d="M 421.257056 288.68 
L 431.734862 288.68 
L 431.734862 168.357635 
L 421.257056 168.357635 
z
" clip-path="url(#p5ee4441922)" style="fill: #059669; opacity: 0.75"/>
   </g>
   <g id="patch_12">
    <path d="M 432.286325 288.68 
L 442.764131 288.68 
L 442.764131 115.274238 
L 432.286325 115.274238 
z
" clip-path="url(#p5ee4441922)" style="fill: #059669; opacity: 0.75"/>
   </g>
   <g id="patch_13">
    <path d="M 443.315595 288.68 
L 453.7934 288.68 
L 453.7934 94.04088 
L 443.315595 94.04088 
z
" clip-path="url(#p5ee4441922)" style="fill: #059669; opacity: 0.75"/>
   </g>
   <g id="patch_14">
    <path d="M 454.344864 288.68 
L 464.82267 288.68 
L 464.82267 175.435421 
L 454.344864 175.435421 
z
" clip-path="url(#p5ee4441922)" style="fill: #059669; opacity: 0.75"/>
   </g>
   <g id="patch_15">
    <path d="M 465.374133 288.68 
L 475.851939 288.68 
L 475.851939 168.357635 
L 465.374133 168.357635 
z
" clip-path="url(#p5ee4441922)" style="fill: #059669; opacity: 0.75"/>
   </g>
   <g id="patch_16">
    <path d="M 476.403403 288.68 
L 486.881209 288.68 
L 486.881209 203.746566 
L 476.403403 203.746566 
z
" clip-path="url(#p5ee4441922)" style="fill: #059669; opacity: 0.75"/>
   </g>
   <g id="patch_17">
    <path d="M 487.432672 288.68 
L 497.910478 288.68 
L 497.910478 200.207673 
L 487.432672 200.207673 
z
" clip-path="url(#p5ee4441922)" style="fill: #059669; opacity: 0.75"/>
   </g>
   <g id="patch_18">
    <path d="M 498.461941 288.68 
L 508.939747 288.68 
L 508.939747 200.207673 
L 498.461941 200.207673 
z
" clip-path="url(#p5ee4441922)" style="fill: #059669; opacity: 0.75"/>
   </g>
   <g id="patch_19">
    <path d="M 509.491211 288.68 
L 519.969017 288.68 
L 519.969017 235.596604 
L 509.491211 235.596604 
z
" clip-path="url(#p5ee4441922)" style="fill: #059669; opacity: 0.75"/>
   </g>
   <g id="patch_20">
    <path d="M 520.52048 288.68 
L 530.998286 288.68 
L 530.998286 246.213283 
L 520.52048 246.213283 
z
" clip-path="url(#p5ee4441922)" style="fill: #059669; opacity: 0.75"/>
   </g>
   <g id="patch_21">
    <path d="M 531.54975 288.68 
L 542.027555 288.68 
L 542.027555 256.829962 
L 531.54975 256.829962 
z
" clip-path="url(#p5ee4441922)" style="fill: #059669; opacity: 0.75"/>
   </g>
   <g id="patch_22">
    <path d="M 542.579019 288.68 
L 553.056825 288.68 
L 553.056825 267.446641 
L 542.579019 267.446641 
z
" clip-path="url(#p5ee4441922)" style="fill: #dc2626; opacity: 0.75"/>
   </g>
   <g id="patch_23">
    <path d="M 553.608288 288.68 
L 564.086094 288.68 
L 564.086094 249.752176 
L 553.608288 249.752176 
z
" clip-path="url(#p5ee4441922)" style="fill: #dc2626; opacity: 0.75"/>
   </g>
   <g id="patch_24">
    <path d="M 564.637558 288.68 
L 575.115364 288.68 
L 575.115364 256.829962 
L 564.637558 256.829962 
z
" clip-path="url(#p5ee4441922)" style="fill: #dc2626; opacity: 0.75"/>
   </g>
   <g id="patch_25">
    <path d="M 575.666827 288.68 
L 586.144633 288.68 
L 586.144633 278.063321 
L 575.666827 278.063321 
z
" clip-path="url(#p5ee4441922)" style="fill: #dc2626; opacity: 0.75"/>
   </g>
   <g id="patch_26">
    <path d="M 586.696096 288.68 
L 597.173902 288.68 
L 597.173902 278.063321 
L 586.696096 278.063321 
z
" clip-path="url(#p5ee4441922)" style="fill: #dc2626; opacity: 0.75"/>
   </g>
   <g id="patch_27">
    <path d="M 597.725366 288.68 
L 608.203172 288.68 
L 608.203172 278.063321 
L 597.725366 278.063321 
z
" clip-path="url(#p5ee4441922)" style="fill: #dc2626; opacity: 0.75"/>
   </g>
   <g id="patch_28">
    <path d="M 608.754635 288.68 
L 619.232441 288.68 
L 619.232441 281.602214 
L 608.754635 281.602214 
z
" clip-path="url(#p5ee4441922)" style="fill: #dc2626; opacity: 0.75"/>
   </g>
   <g id="patch_29">
    <path d="M 619.783905 288.68 
L 630.26171 288.68 
L 630.26171 288.68 
L 619.783905 288.68 
z
" clip-path="url(#p5ee4441922)" style="fill: #dc2626; opacity: 0.75"/>
   </g>
   <g id="patch_30">
    <path d="M 630.813174 288.68 
L 641.29098 288.68 
L 641.29098 281.602214 
L 630.813174 281.602214 
z
" clip-path="url(#p5ee4441922)" style="fill: #dc2626; opacity: 0.75"/>
   </g>
   <g id="patch_31">
    <path d="M 641.842443 288.68 
L 652.320249 288.68 
L 652.320249 281.602214 
L 641.842443 281.602214 
z
" clip-path="url(#p5ee4441922)" style="fill: #dc2626; opacity: 0.75"/>
   </g>
   <g id="patch_32">
    <path d="M 652.871713 288.68 
L 663.349519 288.68 
L 663.349519 288.68 
L 652.871713 288.68 
z
" clip-path="url(#p5ee4441922)" style="fill: #dc2626; opacity: 0.75"/>
   </g>
   <g id="patch_33">
    <path d="M 663.900982 288.68 
L 674.378788 288.68 
L 674.378788 288.68 
L 663.900982 288.68 
z
" clip-path="url(#p5ee4441922)" style="fill: #dc2626; opacity: 0.75"/>
   </g>
   <g id="patch_34">
    <path d="M 674.930251 288.68 
L 685.408057 288.68 
L 685.408057 288.68 
L 674.930251 288.68 
z
" clip-path="url(#p5ee4441922)" style="fill: #dc2626; opacity: 0.75"/>
   </g>
   <g id="patch_35">
    <path d="M 685.959521 288.68 
L 696.437327 288.68 
L 696.437327 288.68 
L 685.959521 288.68 
z
" clip-path="url(#p5ee4441922)" style="fill: #dc2626; opacity: 0.75"/>
   </g>
   <g id="patch_36">
    <path d="M 696.98879 288.68 
L 707.466596 288.68 
L 707.466596 285.141107 
L 696.98879 285.141107 
z
" clip-path="url(#p5ee4441922)" style="fill: #dc2626; opacity: 0.75"/>
   </g>
   <g id="matplotlib.axis_1">
    <g id="xtick_1">
     <g id="line2d_6">
      <defs>
       <path id="m683a88a19a" d="M 0 0 
L 0 3.5 
" style="stroke: #000000; stroke-width: 0.8"/>
      </defs>
      <g>
       <use xlink:href="#m683a88a19a" x="394.454305" y="288.68" style="stroke: #000000; stroke-width: 0.8"/>
      </g>
     </g>
     <g id="text_9">
      <!-- 0.0 -->
      <g transform="translate(386.502743 303.277656) scale(0.1 -0.1)">
       <defs>
        <path id="DejaVuSans-13" d="M 2034 4250 
Q 1547 4250 1301 3770 
Q 1056 3291 1056 2328 
Q 1056 1369 1301 889 
Q 1547 409 2034 409 
Q 2525 409 2770 889 
Q 3016 1369 3016 2328 
Q 3016 3291 2770 3770 
Q 2525 4250 2034 4250 
z
M 2034 4750 
Q 2819 4750 3233 4129 
Q 3647 3509 3647 2328 
Q 3647 1150 3233 529 
Q 2819 -91 2034 -91 
Q 1250 -91 836 529 
Q 422 1150 422 2328 
Q 422 3509 836 4129 
Q 1250 4750 2034 4750 
z
" transform="scale(0.015625)"/>
        <path id="DejaVuSans-11" d="M 684 794 
L 1344 794 
L 1344 0 
L 684 0 
L 684 794 
z
" transform="scale(0.015625)"/>
       </defs>
       <use xlink:href="#DejaVuSans-13"/>
       <use xlink:href="#DejaVuSans-11" transform="translate(63.625 0)"/>
       <use xlink:href="#DejaVuSans-13" transform="translate(95.40625 0)"/>
      </g>
     </g>
    </g>
    <g id="xtick_2">
     <g id="line2d_7">
      <g>
       <use xlink:href="#m683a88a19a" x="442.364824" y="288.68" style="stroke: #000000; stroke-width: 0.8"/>
      </g>
     </g>
     <g id="text_10">
      <!-- 0.5 -->
      <g transform="translate(434.413262 303.277656) scale(0.1 -0.1)">
       <defs>
        <path id="DejaVuSans-18" d="M 691 4666 
L 3169 4666 
L 3169 4134 
L 1269 4134 
L 1269 2991 
Q 1406 3038 1543 3061 
Q 1681 3084 1819 3084 
Q 2600 3084 3056 2656 
Q 3513 2228 3513 1497 
Q 3513 744 3044 326 
Q 2575 -91 1722 -91 
Q 1428 -91 1123 -41 
Q 819 9 494 109 
L 494 744 
Q 775 591 1075 516 
Q 1375 441 1709 441 
Q 2250 441 2565 725 
Q 2881 1009 2881 1497 
Q 2881 1984 2565 2268 
Q 2250 2553 1709 2553 
Q 1456 2553 1204 2497 
Q 953 2441 691 2322 
L 691 4666 
z
" transform="scale(0.015625)"/>
       </defs>
       <use xlink:href="#DejaVuSans-13"/>
       <use xlink:href="#DejaVuSans-11" transform="translate(63.625 0)"/>
       <use xlink:href="#DejaVuSans-18" transform="translate(95.40625 0)"/>
      </g>
     </g>
    </g>
    <g id="xtick_3">
     <g id="line2d_8">
      <g>
       <use xlink:href="#m683a88a19a" x="490.275344" y="288.68" style="stroke: #000000; stroke-width: 0.8"/>
      </g>
     </g>
     <g id="text_11">
      <!-- 1.0 -->
      <g transform="translate(482.323781 303.277656) scale(0.1 -0.1)">
       <defs>
        <path id="DejaVuSans-14" d="M 794 531 
L 1825 531 
L 1825 4091 
L 703 3866 
L 703 4441 
L 1819 4666 
L 2450 4666 
L 2450 531 
L 3481 531 
L 3481 0 
L 794 0 
L 794 531 
z
" transform="scale(0.015625)"/>
       </defs>
       <use xlink:href="#DejaVuSans-14"/>
       <use xlink:href="#DejaVuSans-11" transform="translate(63.625 0)"/>
       <use xlink:href="#DejaVuSans-13" transform="translate(95.40625 0)"/>
      </g>
     </g>
    </g>
    <g id="xtick_4">
     <g id="line2d_9">
      <g>
       <use xlink:href="#m683a88a19a" x="538.185863" y="288.68" style="stroke: #000000; stroke-width: 0.8"/>
      </g>
     </g>
     <g id="text_12">
      <!-- 1.5 -->
      <g transform="translate(530.2343 303.277656) scale(0.1 -0.1)">
       <use xlink:href="#DejaVuSans-14"/>
       <use xlink:href="#DejaVuSans-11" transform="translate(63.625 0)"/>
       <use xlink:href="#DejaVuSans-18" transform="translate(95.40625 0)"/>
      </g>
     </g>
    </g>
    <g id="xtick_5">
     <g id="line2d_10">
      <g>
       <use xlink:href="#m683a88a19a" x="586.096382" y="288.68" style="stroke: #000000; stroke-width: 0.8"/>
      </g>
     </g>
     <g id="text_13">
      <!-- 2.0 -->
      <g transform="translate(578.144819 303.277656) scale(0.1 -0.1)">
       <defs>
        <path id="DejaVuSans-15" d="M 1228 531 
L 3431 531 
L 3431 0 
L 469 0 
L 469 531 
Q 828 903 1448 1529 
Q 2069 2156 2228 2338 
Q 2531 2678 2651 2914 
Q 2772 3150 2772 3378 
Q 2772 3750 2511 3984 
Q 2250 4219 1831 4219 
Q 1534 4219 1204 4116 
Q 875 4013 500 3803 
L 500 4441 
Q 881 4594 1212 4672 
Q 1544 4750 1819 4750 
Q 2544 4750 2975 4387 
Q 3406 4025 3406 3419 
Q 3406 3131 3298 2873 
Q 3191 2616 2906 2266 
Q 2828 2175 2409 1742 
Q 1991 1309 1228 531 
z
" transform="scale(0.015625)"/>
       </defs>
       <use xlink:href="#DejaVuSans-15"/>
       <use xlink:href="#DejaVuSans-11" transform="translate(63.625 0)"/>
       <use xlink:href="#DejaVuSans-13" transform="translate(95.40625 0)"/>
      </g>
     </g>
    </g>
    <g id="xtick_6">
     <g id="line2d_11">
      <g>
       <use xlink:href="#m683a88a19a" x="634.006901" y="288.68" style="stroke: #000000; stroke-width: 0.8"/>
      </g>
     </g>
     <g id="text_14">
      <!-- 2.5 -->
      <g transform="translate(626.055338 303.277656) scale(0.1 -0.1)">
       <use xlink:href="#DejaVuSans-15"/>
       <use xlink:href="#DejaVuSans-11" transform="translate(63.625 0)"/>
       <use xlink:href="#DejaVuSans-18" transform="translate(95.40625 0)"/>
      </g>
     </g>
    </g>
    <g id="xtick_7">
     <g id="line2d_12">
      <g>
       <use xlink:href="#m683a88a19a" x="681.91742" y="288.68" style="stroke: #000000; stroke-width: 0.8"/>
      </g>
     </g>
     <g id="text_15">
      <!-- 3.0 -->
      <g transform="translate(673.965858 303.277656) scale(0.1 -0.1)">
       <defs>
        <path id="DejaVuSans-16" d="M 2597 2516 
Q 3050 2419 3304 2112 
Q 3559 1806 3559 1356 
Q 3559 666 3084 287 
Q 2609 -91 1734 -91 
Q 1441 -91 1130 -33 
Q 819 25 488 141 
L 488 750 
Q 750 597 1062 519 
Q 1375 441 1716 441 
Q 2309 441 2620 675 
Q 2931 909 2931 1356 
Q 2931 1769 2642 2001 
Q 2353 2234 1838 2234 
L 1294 2234 
L 1294 2753 
L 1863 2753 
Q 2328 2753 2575 2939 
Q 2822 3125 2822 3475 
Q 2822 3834 2567 4026 
Q 2313 4219 1838 4219 
Q 1578 4219 1281 4162 
Q 984 4106 628 3988 
L 628 4550 
Q 988 4650 1302 4700 
Q 1616 4750 1894 4750 
Q 2613 4750 3031 4423 
Q 3450 4097 3450 3541 
Q 3450 3153 3228 2886 
Q 3006 2619 2597 2516 
z
" transform="scale(0.015625)"/>
       </defs>
       <use xlink:href="#DejaVuSans-16"/>
       <use xlink:href="#DejaVuSans-11" transform="translate(63.625 0)"/>
       <use xlink:href="#DejaVuSans-13" transform="translate(95.40625 0)"/>
      </g>
     </g>
    </g>
    <g id="text_16">
     <!-- Distance to nearest labeled neighbor -->
     <g transform="translate(460.588025 317.278437) scale(0.1 -0.1)">
      <defs>
       <path id="DejaVuSans-27" d="M 1259 4147 
L 1259 519 
L 2022 519 
Q 2988 519 3436 956 
Q 3884 1394 3884 2338 
Q 3884 3275 3436 3711 
Q 2988 4147 2022 4147 
L 1259 4147 
z
M 628 4666 
L 1925 4666 
Q 3281 4666 3915 4102 
Q 4550 3538 4550 2338 
Q 4550 1131 3912 565 
Q 3275 0 1925 0 
L 628 0 
L 628 4666 
z
" transform="scale(0.015625)"/>
       <path id="DejaVuSans-4c" d="M 603 3500 
L 1178 3500 
L 1178 0 
L 603 0 
L 603 3500 
z
M 603 4863 
L 1178 4863 
L 1178 4134 
L 603 4134 
L 603 4863 
z
" transform="scale(0.015625)"/>
       <path id="DejaVuSans-56" d="M 2834 3397 
L 2834 2853 
Q 2591 2978 2328 3040 
Q 2066 3103 1784 3103 
Q 1356 3103 1142 2972 
Q 928 2841 928 2578 
Q 928 2378 1081 2264 
Q 1234 2150 1697 2047 
L 1894 2003 
Q 2506 1872 2764 1633 
Q 3022 1394 3022 966 
Q 3022 478 2636 193 
Q 2250 -91 1575 -91 
Q 1294 -91 989 -36 
Q 684 19 347 128 
L 347 722 
Q 666 556 975 473 
Q 1284 391 1588 391 
Q 1994 391 2212 530 
Q 2431 669 2431 922 
Q 2431 1156 2273 1281 
Q 2116 1406 1581 1522 
L 1381 1569 
Q 847 1681 609 1914 
Q 372 2147 372 2553 
Q 372 3047 722 3315 
Q 1072 3584 1716 3584 
Q 2034 3584 2315 3537 
Q 2597 3491 2834 3397 
z
" transform="scale(0.015625)"/>
       <path id="DejaVuSans-57" d="M 1172 4494 
L 1172 3500 
L 2356 3500 
L 2356 3053 
L 1172 3053 
L 1172 1153 
Q 1172 725 1289 603 
Q 1406 481 1766 481 
L 2356 481 
L 2356 0 
L 1766 0 
Q 1100 0 847 248 
Q 594 497 594 1153 
L 594 3053 
L 172 3053 
L 172 3500 
L 594 3500 
L 594 4494 
L 1172 4494 
z
" transform="scale(0.015625)"/>
       <path id="DejaVuSans-44" d="M 2194 1759 
Q 1497 1759 1228 1600 
Q 959 1441 959 1056 
Q 959 750 1161 570 
Q 1363 391 1709 391 
Q 2188 391 2477 730 
Q 2766 1069 2766 1631 
L 2766 1759 
L 2194 1759 
z
M 3341 1997 
L 3341 0 
L 2766 0 
L 2766 531 
Q 2569 213 2275 61 
Q 1981 -91 1556 -91 
Q 1019 -91 701 211 
Q 384 513 384 1019 
Q 384 1609 779 1909 
Q 1175 2209 1959 2209 
L 2766 2209 
L 2766 2266 
Q 2766 2663 2505 2880 
Q 2244 3097 1772 3097 
Q 1472 3097 1187 3025 
Q 903 2953 641 2809 
L 641 3341 
Q 956 3463 1253 3523 
Q 1550 3584 1831 3584 
Q 2591 3584 2966 3190 
Q 3341 2797 3341 1997 
z
" transform="scale(0.015625)"/>
       <path id="DejaVuSans-51" d="M 3513 2113 
L 3513 0 
L 2938 0 
L 2938 2094 
Q 2938 2591 2744 2837 
Q 2550 3084 2163 3084 
Q 1697 3084 1428 2787 
Q 1159 2491 1159 1978 
L 1159 0 
L 581 0 
L 581 3500 
L 1159 3500 
L 1159 2956 
Q 1366 3272 1645 3428 
Q 1925 3584 2291 3584 
Q 2894 3584 3203 3211 
Q 3513 2838 3513 2113 
z
" transform="scale(0.015625)"/>
       <path id="DejaVuSans-46" d="M 3122 3366 
L 3122 2828 
Q 2878 2963 2633 3030 
Q 2388 3097 2138 3097 
Q 1578 3097 1268 2742 
Q 959 2388 959 1747 
Q 959 1106 1268 751 
Q 1578 397 2138 397 
Q 2388 397 2633 464 
Q 2878 531 3122 666 
L 3122 134 
Q 2881 22 2623 -34 
Q 2366 -91 2075 -91 
Q 1284 -91 818 406 
Q 353 903 353 1747 
Q 353 2603 823 3093 
Q 1294 3584 2113 3584 
Q 2378 3584 2631 3529 
Q 2884 3475 3122 3366 
z
" transform="scale(0.015625)"/>
       <path id="DejaVuSans-48" d="M 3597 1894 
L 3597 1613 
L 953 1613 
Q 991 1019 1311 708 
Q 1631 397 2203 397 
Q 2534 397 2845 478 
Q 3156 559 3463 722 
L 3463 178 
Q 3153 47 2828 -22 
Q 2503 -91 2169 -91 
Q 1331 -91 842 396 
Q 353 884 353 1716 
Q 353 2575 817 3079 
Q 1281 3584 2069 3584 
Q 2775 3584 3186 3129 
Q 3597 2675 3597 1894 
z
M 3022 2063 
Q 3016 2534 2758 2815 
Q 2500 3097 2075 3097 
Q 1594 3097 1305 2825 
Q 1016 2553 972 2059 
L 3022 2063 
z
" transform="scale(0.015625)"/>
       <path id="DejaVuSans-3" transform="scale(0.015625)"/>
       <path id="DejaVuSans-52" d="M 1959 3097 
Q 1497 3097 1228 2736 
Q 959 2375 959 1747 
Q 959 1119 1226 758 
Q 1494 397 1959 397 
Q 2419 397 2687 759 
Q 2956 1122 2956 1747 
Q 2956 2369 2687 2733 
Q 2419 3097 1959 3097 
z
M 1959 3584 
Q 2709 3584 3137 3096 
Q 3566 2609 3566 1747 
Q 3566 888 3137 398 
Q 2709 -91 1959 -91 
Q 1206 -91 779 398 
Q 353 888 353 1747 
Q 353 2609 779 3096 
Q 1206 3584 1959 3584 
z
" transform="scale(0.015625)"/>
       <path id="DejaVuSans-55" d="M 2631 2963 
Q 2534 3019 2420 3045 
Q 2306 3072 2169 3072 
Q 1681 3072 1420 2755 
Q 1159 2438 1159 1844 
L 1159 0 
L 581 0 
L 581 3500 
L 1159 3500 
L 1159 2956 
Q 1341 3275 1631 3429 
Q 1922 3584 2338 3584 
Q 2397 3584 2469 3576 
Q 2541 3569 2628 3553 
L 2631 2963 
z
" transform="scale(0.015625)"/>
       <path id="DejaVuSans-4f" d="M 603 4863 
L 1178 4863 
L 1178 0 
L 603 0 
L 603 4863 
z
" transform="scale(0.015625)"/>
       <path id="DejaVuSans-45" d="M 3116 1747 
Q 3116 2381 2855 2742 
Q 2594 3103 2138 3103 
Q 1681 3103 1420 2742 
Q 1159 2381 1159 1747 
Q 1159 1113 1420 752 
Q 1681 391 2138 391 
Q 2594 391 2855 752 
Q 3116 1113 3116 1747 
z
M 1159 2969 
Q 1341 3281 1617 3432 
Q 1894 3584 2278 3584 
Q 2916 3584 3314 3078 
Q 3713 2572 3713 1747 
Q 3713 922 3314 415 
Q 2916 -91 2278 -91 
Q 1894 -91 1617 61 
Q 1341 213 1159 525 
L 1159 0 
L 581 0 
L 581 4863 
L 1159 4863 
L 1159 2969 
z
" transform="scale(0.015625)"/>
       <path id="DejaVuSans-47" d="M 2906 2969 
L 2906 4863 
L 3481 4863 
L 3481 0 
L 2906 0 
L 2906 525 
Q 2725 213 2448 61 
Q 2172 -91 1784 -91 
Q 1150 -91 751 415 
Q 353 922 353 1747 
Q 353 2572 751 3078 
Q 1150 3584 1784 3584 
Q 2172 3584 2448 3432 
Q 2725 3281 2906 2969 
z
M 947 1747 
Q 947 1113 1208 752 
Q 1469 391 1925 391 
Q 2381 391 2643 752 
Q 2906 1113 2906 1747 
Q 2906 2381 2643 2742 
Q 2381 3103 1925 3103 
Q 1469 3103 1208 2742 
Q 947 2381 947 1747 
z
" transform="scale(0.015625)"/>
       <path id="DejaVuSans-4a" d="M 2906 1791 
Q 2906 2416 2648 2759 
Q 2391 3103 1925 3103 
Q 1463 3103 1205 2759 
Q 947 2416 947 1791 
Q 947 1169 1205 825 
Q 1463 481 1925 481 
Q 2391 481 2648 825 
Q 2906 1169 2906 1791 
z
M 3481 434 
Q 3481 -459 3084 -895 
Q 2688 -1331 1869 -1331 
Q 1566 -1331 1297 -1286 
Q 1028 -1241 775 -1147 
L 775 -588 
Q 1028 -725 1275 -790 
Q 1522 -856 1778 -856 
Q 2344 -856 2625 -561 
Q 2906 -266 2906 331 
L 2906 616 
Q 2728 306 2450 153 
Q 2172 0 1784 0 
Q 1141 0 747 490 
Q 353 981 353 1791 
Q 353 2603 747 3093 
Q 1141 3584 1784 3584 
Q 2172 3584 2450 3431 
Q 2728 3278 2906 2969 
L 2906 3500 
L 3481 3500 
L 3481 434 
z
" transform="scale(0.015625)"/>
       <path id="DejaVuSans-4b" d="M 3513 2113 
L 3513 0 
L 2938 0 
L 2938 2094 
Q 2938 2591 2744 2837 
Q 2550 3084 2163 3084 
Q 1697 3084 1428 2787 
Q 1159 2491 1159 1978 
L 1159 0 
L 581 0 
L 581 4863 
L 1159 4863 
L 1159 2956 
Q 1366 3272 1645 3428 
Q 1925 3584 2291 3584 
Q 2894 3584 3203 3211 
Q 3513 2838 3513 2113 
z
" transform="scale(0.015625)"/>
      </defs>
      <use xlink:href="#DejaVuSans-27"/>
      <use xlink:href="#DejaVuSans-4c" transform="translate(77 0)"/>
      <use xlink:href="#DejaVuSans-56" transform="translate(104.78125 0)"/>
      <use xlink:href="#DejaVuSans-57" transform="translate(156.875 0)"/>
      <use xlink:href="#DejaVuSans-44" transform="translate(196.078125 0)"/>
      <use xlink:href="#DejaVuSans-51" transform="translate(257.359375 0)"/>
      <use xlink:href="#DejaVuSans-46" transform="translate(320.734375 0)"/>
      <use xlink:href="#DejaVuSans-48" transform="translate(375.71875 0)"/>
      <use xlink:href="#DejaVuSans-3" transform="translate(437.25 0)"/>
      <use xlink:href="#DejaVuSans-57" transform="translate(469.03125 0)"/>
      <use xlink:href="#DejaVuSans-52" transform="translate(508.234375 0)"/>
      <use xlink:href="#DejaVuSans-3" transform="translate(569.421875 0)"/>
      <use xlink:href="#DejaVuSans-51" transform="translate(601.203125 0)"/>
      <use xlink:href="#DejaVuSans-48" transform="translate(664.578125 0)"/>
      <use xlink:href="#DejaVuSans-44" transform="translate(726.109375 0)"/>
      <use xlink:href="#DejaVuSans-55" transform="translate(787.390625 0)"/>
      <use xlink:href="#DejaVuSans-48" transform="translate(826.296875 0)"/>
      <use xlink:href="#DejaVuSans-56" transform="translate(887.828125 0)"/>
      <use xlink:href="#DejaVuSans-57" transform="translate(939.921875 0)"/>
      <use xlink:href="#DejaVuSans-3" transform="translate(979.125 0)"/>
      <use xlink:href="#DejaVuSans-4f" transform="translate(1010.90625 0)"/>
      <use xlink:href="#DejaVuSans-44" transform="translate(1038.6875 0)"/>
      <use xlink:href="#DejaVuSans-45" transform="translate(1099.96875 0)"/>
      <use xlink:href="#DejaVuSans-48" transform="translate(1163.453125 0)"/>
      <use xlink:href="#DejaVuSans-4f" transform="translate(1224.984375 0)"/>
      <use xlink:href="#DejaVuSans-48" transform="translate(1252.765625 0)"/>
      <use xlink:href="#DejaVuSans-47" transform="translate(1314.296875 0)"/>
      <use xlink:href="#DejaVuSans-3" transform="translate(1377.78125 0)"/>
      <use xlink:href="#DejaVuSans-51" transform="translate(1409.5625 0)"/>
      <use xlink:href="#DejaVuSans-48" transform="translate(1472.9375 0)"/>
      <use xlink:href="#DejaVuSans-4c" transform="translate(1534.46875 0)"/>
      <use xlink:href="#DejaVuSans-4a" transform="translate(1562.25 0)"/>
      <use xlink:href="#DejaVuSans-4b" transform="translate(1625.734375 0)"/>
      <use xlink:href="#DejaVuSans-45" transform="translate(1689.109375 0)"/>
      <use xlink:href="#DejaVuSans-52" transform="translate(1752.59375 0)"/>
      <use xlink:href="#DejaVuSans-55" transform="translate(1813.78125 0)"/>
     </g>
    </g>
   </g>
   <g id="matplotlib.axis_2">
    <g id="ytick_1">
     <g id="line2d_13">
      <defs>
       <path id="mc95aae9497" d="M 0 0 
L -3.5 0 
" style="stroke: #000000; stroke-width: 0.8"/>
      </defs>
      <g>
       <use xlink:href="#mc95aae9497" x="383.785113" y="288.68" style="stroke: #000000; stroke-width: 0.8"/>
      </g>
     </g>
     <g id="text_17">
      <!-- 0 -->
      <g transform="translate(370.422613 292.478828) scale(0.1 -0.1)">
       <use xlink:href="#DejaVuSans-13"/>
      </g>
     </g>
    </g>
    <g id="ytick_2">
     <g id="line2d_14">
      <g>
       <use xlink:href="#mc95aae9497" x="383.785113" y="253.291069" style="stroke: #000000; stroke-width: 0.8"/>
      </g>
     </g>
     <g id="text_18">
      <!-- 10 -->
      <g transform="translate(364.060113 257.089897) scale(0.1 -0.1)">
       <use xlink:href="#DejaVuSans-14"/>
       <use xlink:href="#DejaVuSans-13" transform="translate(63.625 0)"/>
      </g>
     </g>
    </g>
    <g id="ytick_3">
     <g id="line2d_15">
      <g>
       <use xlink:href="#mc95aae9497" x="383.785113" y="217.902138" style="stroke: #000000; stroke-width: 0.8"/>
      </g>
     </g>
     <g id="text_19">
      <!-- 20 -->
      <g transform="translate(364.060113 221.700966) scale(0.1 -0.1)">
       <use xlink:href="#DejaVuSans-15"/>
       <use xlink:href="#DejaVuSans-13" transform="translate(63.625 0)"/>
      </g>
     </g>
    </g>
    <g id="ytick_4">
     <g id="line2d_16">
      <g>
       <use xlink:href="#mc95aae9497" x="383.785113" y="182.513207" style="stroke: #000000; stroke-width: 0.8"/>
      </g>
     </g>
     <g id="text_20">
      <!-- 30 -->
      <g transform="translate(364.060113 186.312035) scale(0.1 -0.1)">
       <use xlink:href="#DejaVuSans-16"/>
       <use xlink:href="#DejaVuSans-13" transform="translate(63.625 0)"/>
      </g>
     </g>
    </g>
    <g id="ytick_5">
     <g id="line2d_17">
      <g>
       <use xlink:href="#mc95aae9497" x="383.785113" y="147.124276" style="stroke: #000000; stroke-width: 0.8"/>
      </g>
     </g>
     <g id="text_21">
      <!-- 40 -->
      <g transform="translate(364.060113 150.923104) scale(0.1 -0.1)">
       <defs>
        <path id="DejaVuSans-17" d="M 2419 4116 
L 825 1625 
L 2419 1625 
L 2419 4116 
z
M 2253 4666 
L 3047 4666 
L 3047 1625 
L 3713 1625 
L 3713 1100 
L 3047 1100 
L 3047 0 
L 2419 0 
L 2419 1100 
L 313 1100 
L 313 1709 
L 2253 4666 
z
" transform="scale(0.015625)"/>
       </defs>
       <use xlink:href="#DejaVuSans-17"/>
       <use xlink:href="#DejaVuSans-13" transform="translate(63.625 0)"/>
      </g>
     </g>
    </g>
    <g id="ytick_6">
     <g id="line2d_18">
      <g>
       <use xlink:href="#mc95aae9497" x="383.785113" y="111.735345" style="stroke: #000000; stroke-width: 0.8"/>
      </g>
     </g>
     <g id="text_22">
      <!-- 50 -->
      <g transform="translate(364.060113 115.534173) scale(0.1 -0.1)">
       <use xlink:href="#DejaVuSans-18"/>
       <use xlink:href="#DejaVuSans-13" transform="translate(63.625 0)"/>
      </g>
     </g>
    </g>
    <g id="ytick_7">
     <g id="line2d_19">
      <g>
       <use xlink:href="#mc95aae9497" x="383.785113" y="76.346414" style="stroke: #000000; stroke-width: 0.8"/>
      </g>
     </g>
     <g id="text_23">
      <!-- 60 -->
      <g transform="translate(364.060113 80.145242) scale(0.1 -0.1)">
       <defs>
        <path id="DejaVuSans-19" d="M 2113 2584 
Q 1688 2584 1439 2293 
Q 1191 2003 1191 1497 
Q 1191 994 1439 701 
Q 1688 409 2113 409 
Q 2538 409 2786 701 
Q 3034 994 3034 1497 
Q 3034 2003 2786 2293 
Q 2538 2584 2113 2584 
z
M 3366 4563 
L 3366 3988 
Q 3128 4100 2886 4159 
Q 2644 4219 2406 4219 
Q 1781 4219 1451 3797 
Q 1122 3375 1075 2522 
Q 1259 2794 1537 2939 
Q 1816 3084 2150 3084 
Q 2853 3084 3261 2657 
Q 3669 2231 3669 1497 
Q 3669 778 3244 343 
Q 2819 -91 2113 -91 
Q 1303 -91 875 529 
Q 447 1150 447 2328 
Q 447 3434 972 4092 
Q 1497 4750 2381 4750 
Q 2619 4750 2861 4703 
Q 3103 4656 3366 4563 
z
" transform="scale(0.015625)"/>
       </defs>
       <use xlink:href="#DejaVuSans-19"/>
       <use xlink:href="#DejaVuSans-13" transform="translate(63.625 0)"/>
      </g>
     </g>
    </g>
    <g id="ytick_8">
     <g id="line2d_20">
      <g>
       <use xlink:href="#mc95aae9497" x="383.785113" y="40.957483" style="stroke: #000000; stroke-width: 0.8"/>
      </g>
     </g>
     <g id="text_24">
      <!-- 70 -->
      <g transform="translate(364.060113 44.756311) scale(0.1 -0.1)">
       <defs>
        <path id="DejaVuSans-1a" d="M 525 4666 
L 3525 4666 
L 3525 4397 
L 1831 0 
L 1172 0 
L 2766 4134 
L 525 4134 
L 525 4666 
z
" transform="scale(0.015625)"/>
       </defs>
       <use xlink:href="#DejaVuSans-1a"/>
       <use xlink:href="#DejaVuSans-13" transform="translate(63.625 0)"/>
      </g>
     </g>
    </g>
    <g id="text_25">
     <!-- Calibration customers -->
     <g transform="translate(357.657769 212.241563) rotate(-90) scale(0.1 -0.1)">
      <defs>
       <path id="DejaVuSans-26" d="M 4122 4306 
L 4122 3641 
Q 3803 3938 3442 4084 
Q 3081 4231 2675 4231 
Q 1875 4231 1450 3742 
Q 1025 3253 1025 2328 
Q 1025 1406 1450 917 
Q 1875 428 2675 428 
Q 3081 428 3442 575 
Q 3803 722 4122 1019 
L 4122 359 
Q 3791 134 3420 21 
Q 3050 -91 2638 -91 
Q 1578 -91 968 557 
Q 359 1206 359 2328 
Q 359 3453 968 4101 
Q 1578 4750 2638 4750 
Q 3056 4750 3426 4639 
Q 3797 4528 4122 4306 
z
" transform="scale(0.015625)"/>
       <path id="DejaVuSans-58" d="M 544 1381 
L 544 3500 
L 1119 3500 
L 1119 1403 
Q 1119 906 1312 657 
Q 1506 409 1894 409 
Q 2359 409 2629 706 
Q 2900 1003 2900 1516 
L 2900 3500 
L 3475 3500 
L 3475 0 
L 2900 0 
L 2900 538 
Q 2691 219 2414 64 
Q 2138 -91 1772 -91 
Q 1169 -91 856 284 
Q 544 659 544 1381 
z
M 1991 3584 
L 1991 3584 
z
" transform="scale(0.015625)"/>
       <path id="DejaVuSans-50" d="M 3328 2828 
Q 3544 3216 3844 3400 
Q 4144 3584 4550 3584 
Q 5097 3584 5394 3201 
Q 5691 2819 5691 2113 
L 5691 0 
L 5113 0 
L 5113 2094 
Q 5113 2597 4934 2840 
Q 4756 3084 4391 3084 
Q 3944 3084 3684 2787 
Q 3425 2491 3425 1978 
L 3425 0 
L 2847 0 
L 2847 2094 
Q 2847 2600 2669 2842 
Q 2491 3084 2119 3084 
Q 1678 3084 1418 2786 
Q 1159 2488 1159 1978 
L 1159 0 
L 581 0 
L 581 3500 
L 1159 3500 
L 1159 2956 
Q 1356 3278 1631 3431 
Q 1906 3584 2284 3584 
Q 2666 3584 2933 3390 
Q 3200 3197 3328 2828 
z
" transform="scale(0.015625)"/>
      </defs>
      <use xlink:href="#DejaVuSans-26"/>
      <use xlink:href="#DejaVuSans-44" transform="translate(69.828125 0)"/>
      <use xlink:href="#DejaVuSans-4f" transform="translate(131.109375 0)"/>
      <use xlink:href="#DejaVuSans-4c" transform="translate(158.890625 0)"/>
      <use xlink:href="#DejaVuSans-45" transform="translate(186.671875 0)"/>
      <use xlink:href="#DejaVuSans-55" transform="translate(250.15625 0)"/>
      <use xlink:href="#DejaVuSans-44" transform="translate(291.265625 0)"/>
      <use xlink:href="#DejaVuSans-57" transform="translate(352.546875 0)"/>
      <use xlink:href="#DejaVuSans-4c" transform="translate(391.75 0)"/>
      <use xlink:href="#DejaVuSans-52" transform="translate(419.53125 0)"/>
      <use xlink:href="#DejaVuSans-51" transform="translate(480.71875 0)"/>
      <use xlink:href="#DejaVuSans-3" transform="translate(544.09375 0)"/>
      <use xlink:href="#DejaVuSans-46" transform="translate(575.875 0)"/>
      <use xlink:href="#DejaVuSans-58" transform="translate(630.859375 0)"/>
      <use xlink:href="#DejaVuSans-56" transform="translate(694.234375 0)"/>
      <use xlink:href="#DejaVuSans-57" transform="translate(746.328125 0)"/>
      <use xlink:href="#DejaVuSans-52" transform="translate(785.53125 0)"/>
      <use xlink:href="#DejaVuSans-50" transform="translate(846.71875 0)"/>
      <use xlink:href="#DejaVuSans-48" transform="translate(944.125 0)"/>
      <use xlink:href="#DejaVuSans-55" transform="translate(1005.65625 0)"/>
      <use xlink:href="#DejaVuSans-56" transform="translate(1046.765625 0)"/>
     </g>
    </g>
   </g>
   <g id="line2d_21">
    <path d="M 543.192553 288.68 
L 543.192553 25.917188 
" clip-path="url(#p5ee4441922)" style="fill: none; stroke-dasharray: 5.92,2.56; stroke-dashoffset: 0; stroke: #1e293b; stroke-width: 1.6"/>
   </g>
   <g id="patch_37">
    <path d="M 383.785113 288.68 
L 383.785113 25.917188 
" style="fill: none; stroke: #000000; stroke-width: 0.8; stroke-linejoin: miter; stroke-linecap: square"/>
   </g>
   <g id="patch_38">
    <path d="M 383.785113 288.68 
L 722.88 288.68 
" style="fill: none; stroke: #000000; stroke-width: 0.8; stroke-linejoin: miter; stroke-linecap: square"/>
   </g>
   <g id="text_26">
    <!-- $\tau$ = 90th percentile -->
    <g style="fill: #1e293b" transform="translate(494.682553 59.005838) scale(0.09 -0.09)">
     <defs>
      <path id="DejaVuSans-Oblique-358" d="M 2103 638 
Q 2188 488 2525 488 
L 2800 488 
L 2706 0 
L 2363 0 
Q 1800 0 1600 300 
Q 1403 606 1534 1269 
L 1856 2925 
L 541 2925 
L 653 3500 
L 3881 3500 
L 3769 2925 
L 2444 2925 
L 2113 1234 
Q 2025 781 2103 638 
z
" transform="scale(0.015625)"/>
      <path id="DejaVuSans-Bold-20" d="M 678 3084 
L 4684 3084 
L 4684 2350 
L 678 2350 
L 678 3084 
z
M 678 1663 
L 4684 1663 
L 4684 922 
L 678 922 
L 678 1663 
z
" transform="scale(0.015625)"/>
      <path id="DejaVuSans-Bold-1c" d="M 641 103 
L 641 966 
Q 928 831 1190 764 
Q 1453 697 1709 697 
Q 2247 697 2547 995 
Q 2847 1294 2900 1881 
Q 2688 1725 2447 1647 
Q 2206 1569 1925 1569 
Q 1209 1569 770 1986 
Q 331 2403 331 3084 
Q 331 3838 820 4291 
Q 1309 4744 2131 4744 
Q 3044 4744 3544 4128 
Q 4044 3513 4044 2388 
Q 4044 1231 3459 570 
Q 2875 -91 1856 -91 
Q 1528 -91 1228 -42 
Q 928 6 641 103 
z
M 2125 2350 
Q 2441 2350 2600 2554 
Q 2759 2759 2759 3169 
Q 2759 3575 2600 3781 
Q 2441 3988 2125 3988 
Q 1809 3988 1650 3781 
Q 1491 3575 1491 3169 
Q 1491 2759 1650 2554 
Q 1809 2350 2125 2350 
z
" transform="scale(0.015625)"/>
      <path id="DejaVuSans-Bold-13" d="M 2944 2338 
Q 2944 3213 2780 3570 
Q 2616 3928 2228 3928 
Q 1841 3928 1675 3570 
Q 1509 3213 1509 2338 
Q 1509 1453 1675 1090 
Q 1841 728 2228 728 
Q 2613 728 2778 1090 
Q 2944 1453 2944 2338 
z
M 4147 2328 
Q 4147 1169 3647 539 
Q 3147 -91 2228 -91 
Q 1306 -91 806 539 
Q 306 1169 306 2328 
Q 306 3491 806 4120 
Q 1306 4750 2228 4750 
Q 3147 4750 3647 4120 
Q 4147 3491 4147 2328 
z
" transform="scale(0.015625)"/>
     </defs>
     <use xlink:href="#DejaVuSans-Oblique-358" transform="translate(0 0.015625)"/>
     <use xlink:href="#DejaVuSans-Bold-3" transform="translate(60.205078 0.015625)"/>
     <use xlink:href="#DejaVuSans-Bold-20" transform="translate(95.019531 0.015625)"/>
     <use xlink:href="#DejaVuSans-Bold-3" transform="translate(178.808594 0.015625)"/>
     <use xlink:href="#DejaVuSans-Bold-1c" transform="translate(213.623047 0.015625)"/>
     <use xlink:href="#DejaVuSans-Bold-13" transform="translate(283.203125 0.015625)"/>
     <use xlink:href="#DejaVuSans-Bold-57" transform="translate(352.783203 0.015625)"/>
     <use xlink:href="#DejaVuSans-Bold-4b" transform="translate(400.585938 0.015625)"/>
     <use xlink:href="#DejaVuSans-Bold-3" transform="translate(471.777344 0.015625)"/>
     <use xlink:href="#DejaVuSans-Bold-53" transform="translate(506.591797 0.015625)"/>
     <use xlink:href="#DejaVuSans-Bold-48" transform="translate(578.173828 0.015625)"/>
     <use xlink:href="#DejaVuSans-Bold-55" transform="translate(645.996094 0.015625)"/>
     <use xlink:href="#DejaVuSans-Bold-46" transform="translate(695.3125 0.015625)"/>
     <use xlink:href="#DejaVuSans-Bold-48" transform="translate(754.589844 0.015625)"/>
     <use xlink:href="#DejaVuSans-Bold-51" transform="translate(822.412109 0.015625)"/>
     <use xlink:href="#DejaVuSans-Bold-57" transform="translate(893.603516 0.015625)"/>
     <use xlink:href="#DejaVuSans-Bold-4c" transform="translate(941.40625 0.015625)"/>
     <use xlink:href="#DejaVuSans-Bold-4f" transform="translate(975.683594 0.015625)"/>
     <use xlink:href="#DejaVuSans-Bold-48" transform="translate(1009.960938 0.015625)"/>
    </g>
   </g>
   <g id="text_27">
    <!-- Trusted: -->
    <g style="fill: #059669" transform="translate(441.880142 171.546187) scale(0.084 -0.084)">
     <defs>
      <path id="DejaVuSans-Bold-37" d="M 31 4666 
L 4331 4666 
L 4331 3756 
L 2784 3756 
L 2784 0 
L 1581 0 
L 1581 3756 
L 31 3756 
L 31 4666 
z
" transform="scale(0.015625)"/>
      <path id="DejaVuSans-Bold-47" d="M 2919 2988 
L 2919 4863 
L 4044 4863 
L 4044 0 
L 2919 0 
L 2919 506 
Q 2688 197 2409 53 
Q 2131 -91 1766 -91 
Q 1119 -91 703 423 
Q 288 938 288 1747 
Q 288 2556 703 3070 
Q 1119 3584 1766 3584 
Q 2128 3584 2408 3439 
Q 2688 3294 2919 2988 
z
M 2181 722 
Q 2541 722 2730 984 
Q 2919 1247 2919 1747 
Q 2919 2247 2730 2509 
Q 2541 2772 2181 2772 
Q 1825 2772 1636 2509 
Q 1447 2247 1447 1747 
Q 1447 1247 1636 984 
Q 1825 722 2181 722 
z
" transform="scale(0.015625)"/>
      <path id="DejaVuSans-Bold-1d" d="M 716 3500 
L 1844 3500 
L 1844 2291 
L 716 2291 
L 716 3500 
z
M 716 1209 
L 1844 1209 
L 1844 0 
L 716 0 
L 716 1209 
z
" transform="scale(0.015625)"/>
     </defs>
     <use xlink:href="#DejaVuSans-Bold-37"/>
     <use xlink:href="#DejaVuSans-Bold-55" transform="translate(57.234375 0)"/>
     <use xlink:href="#DejaVuSans-Bold-58" transform="translate(106.546875 0)"/>
     <use xlink:href="#DejaVuSans-Bold-56" transform="translate(177.734375 0)"/>
     <use xlink:href="#DejaVuSans-Bold-57" transform="translate(237.25 0)"/>
     <use xlink:href="#DejaVuSans-Bold-48" transform="translate(285.046875 0)"/>
     <use xlink:href="#DejaVuSans-Bold-47" transform="translate(352.875 0)"/>
     <use xlink:href="#DejaVuSans-Bold-1d" transform="translate(424.453125 0)"/>
    </g>
    <!-- blend the specialists -->
    <g style="fill: #059669" transform="translate(412.320017 181.628484) scale(0.084 -0.084)">
     <use xlink:href="#DejaVuSans-Bold-45"/>
     <use xlink:href="#DejaVuSans-Bold-4f" transform="translate(71.578125 0)"/>
     <use xlink:href="#DejaVuSans-Bold-48" transform="translate(105.859375 0)"/>
     <use xlink:href="#DejaVuSans-Bold-51" transform="translate(173.6875 0)"/>
     <use xlink:href="#DejaVuSans-Bold-47" transform="translate(244.875 0)"/>
     <use xlink:href="#DejaVuSans-Bold-3" transform="translate(316.453125 0)"/>
     <use xlink:href="#DejaVuSans-Bold-57" transform="translate(351.265625 0)"/>
     <use xlink:href="#DejaVuSans-Bold-4b" transform="translate(399.0625 0)"/>
     <use xlink:href="#DejaVuSans-Bold-48" transform="translate(470.25 0)"/>
     <use xlink:href="#DejaVuSans-Bold-3" transform="translate(538.078125 0)"/>
     <use xlink:href="#DejaVuSans-Bold-56" transform="translate(572.890625 0)"/>
     <use xlink:href="#DejaVuSans-Bold-53" transform="translate(632.40625 0)"/>
     <use xlink:href="#DejaVuSans-Bold-48" transform="translate(703.984375 0)"/>
     <use xlink:href="#DejaVuSans-Bold-46" transform="translate(771.8125 0)"/>
     <use xlink:href="#DejaVuSans-Bold-4c" transform="translate(831.09375 0)"/>
     <use xlink:href="#DejaVuSans-Bold-44" transform="translate(865.375 0)"/>
     <use xlink:href="#DejaVuSans-Bold-4f" transform="translate(932.859375 0)"/>
     <use xlink:href="#DejaVuSans-Bold-4c" transform="translate(967.140625 0)"/>
     <use xlink:href="#DejaVuSans-Bold-56" transform="translate(1001.421875 0)"/>
     <use xlink:href="#DejaVuSans-Bold-57" transform="translate(1060.9375 0)"/>
     <use xlink:href="#DejaVuSans-Bold-56" transform="translate(1108.734375 0)"/>
    </g>
   </g>
   <g id="text_28">
    <!-- Flagged: -->
    <g style="fill: #dc2626" transform="translate(596.871426 171.546187) scale(0.084 -0.084)">
     <defs>
      <path id="DejaVuSans-Bold-29" d="M 588 4666 
L 3834 4666 
L 3834 3756 
L 1791 3756 
L 1791 2888 
L 3713 2888 
L 3713 1978 
L 1791 1978 
L 1791 0 
L 588 0 
L 588 4666 
z
" transform="scale(0.015625)"/>
     </defs>
     <use xlink:href="#DejaVuSans-Bold-29"/>
     <use xlink:href="#DejaVuSans-Bold-4f" transform="translate(68.3125 0)"/>
     <use xlink:href="#DejaVuSans-Bold-44" transform="translate(102.59375 0)"/>
     <use xlink:href="#DejaVuSans-Bold-4a" transform="translate(170.078125 0)"/>
     <use xlink:href="#DejaVuSans-Bold-4a" transform="translate(241.65625 0)"/>
     <use xlink:href="#DejaVuSans-Bold-48" transform="translate(313.234375 0)"/>
     <use xlink:href="#DejaVuSans-Bold-47" transform="translate(381.0625 0)"/>
     <use xlink:href="#DejaVuSans-Bold-1d" transform="translate(452.640625 0)"/>
    </g>
    <!-- fall back to blind -->
    <g style="fill: #dc2626" transform="translate(577.735833 181.628484) scale(0.084 -0.084)">
     <defs>
      <path id="DejaVuSans-Bold-49" d="M 2841 4863 
L 2841 4128 
L 2222 4128 
Q 1984 4128 1890 4042 
Q 1797 3956 1797 3744 
L 1797 3500 
L 2753 3500 
L 2753 2700 
L 1797 2700 
L 1797 0 
L 678 0 
L 678 2700 
L 122 2700 
L 122 3500 
L 678 3500 
L 678 3744 
Q 678 4316 997 4589 
Q 1316 4863 1984 4863 
L 2841 4863 
z
" transform="scale(0.015625)"/>
      <path id="DejaVuSans-Bold-4e" d="M 538 4863 
L 1656 4863 
L 1656 2216 
L 2944 3500 
L 4244 3500 
L 2534 1894 
L 4378 0 
L 3022 0 
L 1656 1459 
L 1656 0 
L 538 0 
L 538 4863 
z
" transform="scale(0.015625)"/>
     </defs>
     <use xlink:href="#DejaVuSans-Bold-49"/>
     <use xlink:href="#DejaVuSans-Bold-44" transform="translate(43.5 0)"/>
     <use xlink:href="#DejaVuSans-Bold-4f" transform="translate(110.984375 0)"/>
     <use xlink:href="#DejaVuSans-Bold-4f" transform="translate(145.265625 0)"/>
     <use xlink:href="#DejaVuSans-Bold-3" transform="translate(179.546875 0)"/>
     <use xlink:href="#DejaVuSans-Bold-45" transform="translate(214.359375 0)"/>
     <use xlink:href="#DejaVuSans-Bold-44" transform="translate(285.9375 0)"/>
     <use xlink:href="#DejaVuSans-Bold-46" transform="translate(353.421875 0)"/>
     <use xlink:href="#DejaVuSans-Bold-4e" transform="translate(412.703125 0)"/>
     <use xlink:href="#DejaVuSans-Bold-3" transform="translate(479.203125 0)"/>
     <use xlink:href="#DejaVuSans-Bold-57" transform="translate(514.015625 0)"/>
     <use xlink:href="#DejaVuSans-Bold-52" transform="translate(561.8125 0)"/>
     <use xlink:href="#DejaVuSans-Bold-3" transform="translate(630.515625 0)"/>
     <use xlink:href="#DejaVuSans-Bold-45" transform="translate(665.328125 0)"/>
     <use xlink:href="#DejaVuSans-Bold-4f" transform="translate(736.90625 0)"/>
     <use xlink:href="#DejaVuSans-Bold-4c" transform="translate(771.1875 0)"/>
     <use xlink:href="#DejaVuSans-Bold-51" transform="translate(805.46875 0)"/>
     <use xlink:href="#DejaVuSans-Bold-47" transform="translate(876.65625 0)"/>
    </g>
   </g>
   <g id="text_29">
    <!-- A calibrated "do we trust this" gate -->
    <g style="fill: #1e293b" transform="translate(433.036307 19.917188) scale(0.12 -0.12)">
     <defs>
      <path id="DejaVuSans-Bold-24" d="M 3419 850 
L 1538 850 
L 1241 0 
L 31 0 
L 1759 4666 
L 3194 4666 
L 4922 0 
L 3713 0 
L 3419 850 
z
M 1838 1716 
L 3116 1716 
L 2478 3572 
L 1838 1716 
z
" transform="scale(0.015625)"/>
      <path id="DejaVuSans-Bold-5" d="M 2725 4666 
L 2725 2931 
L 1984 2931 
L 1984 4666 
L 2725 4666 
z
M 1350 4666 
L 1350 2931 
L 609 2931 
L 609 4666 
L 1350 4666 
z
" transform="scale(0.015625)"/>
     </defs>
     <use xlink:href="#DejaVuSans-Bold-24"/>
     <use xlink:href="#DejaVuSans-Bold-3" transform="translate(77.390625 0)"/>
     <use xlink:href="#DejaVuSans-Bold-46" transform="translate(112.203125 0)"/>
     <use xlink:href="#DejaVuSans-Bold-44" transform="translate(171.484375 0)"/>
     <use xlink:href="#DejaVuSans-Bold-4f" transform="translate(238.96875 0)"/>
     <use xlink:href="#DejaVuSans-Bold-4c" transform="translate(273.25 0)"/>
     <use xlink:href="#DejaVuSans-Bold-45" transform="translate(307.53125 0)"/>
     <use xlink:href="#DejaVuSans-Bold-55" transform="translate(379.109375 0)"/>
     <use xlink:href="#DejaVuSans-Bold-44" transform="translate(428.421875 0)"/>
     <use xlink:href="#DejaVuSans-Bold-57" transform="translate(495.90625 0)"/>
     <use xlink:href="#DejaVuSans-Bold-48" transform="translate(543.703125 0)"/>
     <use xlink:href="#DejaVuSans-Bold-47" transform="translate(611.53125 0)"/>
     <use xlink:href="#DejaVuSans-Bold-3" transform="translate(683.109375 0)"/>
     <use xlink:href="#DejaVuSans-Bold-5" transform="translate(717.921875 0)"/>
     <use xlink:href="#DejaVuSans-Bold-47" transform="translate(770.015625 0)"/>
     <use xlink:href="#DejaVuSans-Bold-52" transform="translate(841.59375 0)"/>
     <use xlink:href="#DejaVuSans-Bold-3" transform="translate(910.296875 0)"/>
     <use xlink:href="#DejaVuSans-Bold-5a" transform="translate(945.109375 0)"/>
     <use xlink:href="#DejaVuSans-Bold-48" transform="translate(1037.5 0)"/>
     <use xlink:href="#DejaVuSans-Bold-3" transform="translate(1105.328125 0)"/>
     <use xlink:href="#DejaVuSans-Bold-57" transform="translate(1140.140625 0)"/>
     <use xlink:href="#DejaVuSans-Bold-55" transform="translate(1187.9375 0)"/>
     <use xlink:href="#DejaVuSans-Bold-58" transform="translate(1237.25 0)"/>
     <use xlink:href="#DejaVuSans-Bold-56" transform="translate(1308.4375 0)"/>
     <use xlink:href="#DejaVuSans-Bold-57" transform="translate(1367.953125 0)"/>
     <use xlink:href="#DejaVuSans-Bold-3" transform="translate(1415.75 0)"/>
     <use xlink:href="#DejaVuSans-Bold-57" transform="translate(1450.5625 0)"/>
     <use xlink:href="#DejaVuSans-Bold-4b" transform="translate(1498.359375 0)"/>
     <use xlink:href="#DejaVuSans-Bold-4c" transform="translate(1569.546875 0)"/>
     <use xlink:href="#DejaVuSans-Bold-56" transform="translate(1603.828125 0)"/>
     <use xlink:href="#DejaVuSans-Bold-5" transform="translate(1663.34375 0)"/>
     <use xlink:href="#DejaVuSans-Bold-3" transform="translate(1715.4375 0)"/>
     <use xlink:href="#DejaVuSans-Bold-4a" transform="translate(1750.25 0)"/>
     <use xlink:href="#DejaVuSans-Bold-44" transform="translate(1821.828125 0)"/>
     <use xlink:href="#DejaVuSans-Bold-57" transform="translate(1889.3125 0)"/>
     <use xlink:href="#DejaVuSans-Bold-48" transform="translate(1937.109375 0)"/>
    </g>
   </g>
  </g>
 </g>
 <defs>
  <clipPath id="p8111531c44">
   <rect x="58.132182" y="25.917188" width="244.430523" height="262.762812"/>
  </clipPath>
  <clipPath id="p5ee4441922">
   <rect x="383.785113" y="25.917188" width="339.094887" height="262.762812"/>
  </clipPath>
 </defs>
</svg>
