<?xml version="1.0" encoding="utf-8" standalone="no"?>
<!DOCTYPE svg PUBLIC "-//W3C//DTD SVG 1.1//EN"
  "http://www.w3.org/Graphics/SVG/1.1/DTD/svg11.dtd">
<svg xmlns:xlink="http://www.w3.org/1999/xlink" width="532.8pt" height="432pt" viewBox="0 0 532.8 432" xmlns="http://www.w3.org/2000/svg" version="1.1">
 <metadata>
  <rdf:RDF xmlns:dc="http://purl.org/dc/elements/1.1/" xmlns:cc="http://creativecommons.org/ns#" xmlns:rdf="http://www.w3.org/1999/02/22-rdf-syntax-ns#">
   <cc:Work>
    <dc:type rdf:resource="http://purl.org/dc/dcmitype/StillImage"/>
    <dc:date>2026-07-19T19:22:35.159136</dc:date>
    <dc:format>image/svg+xml</dc:format>
    <dc:creator>
     <cc:Agent>
      <dc:title>Matplotlib v3.11.0, https://matplotlib.org/</dc:title>
     </cc:Agent>
    </dc:creator>
   </cc:Work>
  </rdf:RDF>
 </metadata>
 <defs>
  <style type="text/css">*{stroke-linejoin: round; stroke-linecap: butt}</style>
 </defs>
 <g id="figure_1">
  <g id="patch_1">
   <path d="M 0 432 
L 532.8 432 
L 532.8 0 
L 0 0 
z
" style="fill: #ffffff"/>
  </g>
  <g id="axes_1">
   <g id="patch_2">
    <path d="M 157.554875 364.486933 
Q 290.893046 364.486933 422.889576 364.486933 
" clip-path="url(#p48c0fd12b7)" style="fill: none; stroke: #6b7280; stroke-width: 1.2; stroke-linecap: round"/>
    <path d="M 417.289576 361.686933 
L 422.889576 364.486933 
L 417.289576 367.286933 
z
" clip-path="url(#p48c0fd12b7)" style="fill: #6b7280; stroke: #6b7280; stroke-width: 1.2; stroke-linecap: round"/>
   </g>
   <g id="patch_3">
    <path d="M 155.551733 362.483792 
Q 155.551733 229.145621 155.551733 97.14909 
" clip-path="url(#p48c0fd12b7)" style="fill: none; stroke: #6b7280; stroke-width: 1.2; stroke-linecap: round"/>
    <path d="M 152.751733 102.74909 
L 155.551733 97.14909 
L 158.351733 102.74909 
z
" clip-path="url(#p48c0fd12b7)" style="fill: #6b7280; stroke: #6b7280; stroke-width: 1.2; stroke-linecap: round"/>
   </g>
   <g id="text_1">
    <!-- Hand-engineered -->
    <g style="fill: #6b7280" transform="translate(155.551733 392.849339) scale(0.09 -0.09)">
     <defs>
      <path id="DejaVuSans-2b" d="M 628 4666 
L 1259 4666 
L 1259 2753 
L 3553 2753 
L 3553 4666 
L 4184 4666 
L 4184 0 
L 3553 0 
L 3553 2222 
L 1259 2222 
L 1259 0 
L 628 0 
L 628 4666 
z
" transform="scale(0.015625)"/>
      <path id="DejaVuSans-44" d="M 2194 1759 
Q 1497 1759 1228 1600 
Q 959 1441 959 1056 
Q 959 750 1161 570 
Q 1363 391 1709 391 
Q 2188 391 2477 730 
Q 2766 1069 2766 1631 
L 2766 1759 
L 2194 1759 
z
M 3341 1997 
L 3341 0 
L 2766 0 
L 2766 531 
Q 2569 213 2275 61 
Q 1981 -91 1556 -91 
Q 1019 -91 701 211 
Q 384 513 384 1019 
Q 384 1609 779 1909 
Q 1175 2209 1959 2209 
L 2766 2209 
L 2766 2266 
Q 2766 2663 2505 2880 
Q 2244 3097 1772 3097 
Q 1472 3097 1187 3025 
Q 903 2953 641 2809 
L 641 3341 
Q 956 3463 1253 3523 
Q 1550 3584 1831 3584 
Q 2591 3584 2966 3190 
Q 3341 2797 3341 1997 
z
" transform="scale(0.015625)"/>
      <path id="DejaVuSans-51" d="M 3513 2113 
L 3513 0 
L 2938 0 
L 2938 2094 
Q 2938 2591 2744 2837 
Q 2550 3084 2163 3084 
Q 1697 3084 1428 2787 
Q 1159 2491 1159 1978 
L 1159 0 
L 581 0 
L 581 3500 
L 1159 3500 
L 1159 2956 
Q 1366 3272 1645 3428 
Q 1925 3584 2291 3584 
Q 2894 3584 3203 3211 
Q 3513 2838 3513 2113 
z
" transform="scale(0.015625)"/>
      <path id="DejaVuSans-47" d="M 2906 2969 
L 2906 4863 
L 3481 4863 
L 3481 0 
L 2906 0 
L 2906 525 
Q 2725 213 2448 61 
Q 2172 -91 1784 -91 
Q 1150 -91 751 415 
Q 353 922 353 1747 
Q 353 2572 751 3078 
Q 1150 3584 1784 3584 
Q 2172 3584 2448 3432 
Q 2725 3281 2906 2969 
z
M 947 1747 
Q 947 1113 1208 752 
Q 1469 391 1925 391 
Q 2381 391 2643 752 
Q 2906 1113 2906 1747 
Q 2906 2381 2643 2742 
Q 2381 3103 1925 3103 
Q 1469 3103 1208 2742 
Q 947 2381 947 1747 
z
" transform="scale(0.015625)"/>
      <path id="DejaVuSans-10" d="M 313 2009 
L 1997 2009 
L 1997 1497 
L 313 1497 
L 313 2009 
z
" transform="scale(0.015625)"/>
      <path id="DejaVuSans-48" d="M 3597 1894 
L 3597 1613 
L 953 1613 
Q 991 1019 1311 708 
Q 1631 397 2203 397 
Q 2534 397 2845 478 
Q 3156 559 3463 722 
L 3463 178 
Q 3153 47 2828 -22 
Q 2503 -91 2169 -91 
Q 1331 -91 842 396 
Q 353 884 353 1716 
Q 353 2575 817 3079 
Q 1281 3584 2069 3584 
Q 2775 3584 3186 3129 
Q 3597 2675 3597 1894 
z
M 3022 2063 
Q 3016 2534 2758 2815 
Q 2500 3097 2075 3097 
Q 1594 3097 1305 2825 
Q 1016 2553 972 2059 
L 3022 2063 
z
" transform="scale(0.015625)"/>
      <path id="DejaVuSans-4a" d="M 2906 1791 
Q 2906 2416 2648 2759 
Q 2391 3103 1925 3103 
Q 1463 3103 1205 2759 
Q 947 2416 947 1791 
Q 947 1169 1205 825 
Q 1463 481 1925 481 
Q 2391 481 2648 825 
Q 2906 1169 2906 1791 
z
M 3481 434 
Q 3481 -459 3084 -895 
Q 2688 -1331 1869 -1331 
Q 1566 -1331 1297 -1286 
Q 1028 -1241 775 -1147 
L 775 -588 
Q 1028 -725 1275 -790 
Q 1522 -856 1778 -856 
Q 2344 -856 2625 -561 
Q 2906 -266 2906 331 
L 2906 616 
Q 2728 306 2450 153 
Q 2172 0 1784 0 
Q 1141 0 747 490 
Q 353 981 353 1791 
Q 353 2603 747 3093 
Q 1141 3584 1784 3584 
Q 2172 3584 2450 3431 
Q 2728 3278 2906 2969 
L 2906 3500 
L 3481 3500 
L 3481 434 
z
" transform="scale(0.015625)"/>
      <path id="DejaVuSans-4c" d="M 603 3500 
L 1178 3500 
L 1178 0 
L 603 0 
L 603 3500 
z
M 603 4863 
L 1178 4863 
L 1178 4134 
L 603 4134 
L 603 4863 
z
" transform="scale(0.015625)"/>
      <path id="DejaVuSans-55" d="M 2631 2963 
Q 2534 3019 2420 3045 
Q 2306 3072 2169 3072 
Q 1681 3072 1420 2755 
Q 1159 2438 1159 1844 
L 1159 0 
L 581 0 
L 581 3500 
L 1159 3500 
L 1159 2956 
Q 1341 3275 1631 3429 
Q 1922 3584 2338 3584 
Q 2397 3584 2469 3576 
Q 2541 3569 2628 3553 
L 2631 2963 
z
" transform="scale(0.015625)"/>
     </defs>
     <use xlink:href="#DejaVuSans-2b"/>
     <use xlink:href="#DejaVuSans-44" transform="translate(75.203125 0)"/>
     <use xlink:href="#DejaVuSans-51" transform="translate(136.484375 0)"/>
     <use xlink:href="#DejaVuSans-47" transform="translate(199.859375 0)"/>
     <use xlink:href="#DejaVuSans-10" transform="translate(263.34375 0)"/>
     <use xlink:href="#DejaVuSans-48" transform="translate(299.421875 0)"/>
     <use xlink:href="#DejaVuSans-51" transform="translate(360.953125 0)"/>
     <use xlink:href="#DejaVuSans-4a" transform="translate(424.328125 0)"/>
     <use xlink:href="#DejaVuSans-4c" transform="translate(487.8125 0)"/>
     <use xlink:href="#DejaVuSans-51" transform="translate(515.59375 0)"/>
     <use xlink:href="#DejaVuSans-48" transform="translate(578.96875 0)"/>
     <use xlink:href="#DejaVuSans-48" transform="translate(640.5 0)"/>
     <use xlink:href="#DejaVuSans-55" transform="translate(702.03125 0)"/>
     <use xlink:href="#DejaVuSans-48" transform="translate(740.9375 0)"/>
     <use xlink:href="#DejaVuSans-47" transform="translate(802.46875 0)"/>
    </g>
    <!-- feature -->
    <g style="fill: #6b7280" transform="translate(155.551733 403.6518) scale(0.09 -0.09)">
     <defs>
      <path id="DejaVuSans-49" d="M 2375 4863 
L 2375 4384 
L 1825 4384 
Q 1516 4384 1395 4259 
Q 1275 4134 1275 3809 
L 1275 3500 
L 2222 3500 
L 2222 3053 
L 1275 3053 
L 1275 0 
L 697 0 
L 697 3053 
L 147 3053 
L 147 3500 
L 697 3500 
L 697 3744 
Q 697 4328 969 4595 
Q 1241 4863 1831 4863 
L 2375 4863 
z
" transform="scale(0.015625)"/>
      <path id="DejaVuSans-57" d="M 1172 4494 
L 1172 3500 
L 2356 3500 
L 2356 3053 
L 1172 3053 
L 1172 1153 
Q 1172 725 1289 603 
Q 1406 481 1766 481 
L 2356 481 
L 2356 0 
L 1766 0 
Q 1100 0 847 248 
Q 594 497 594 1153 
L 594 3053 
L 172 3053 
L 172 3500 
L 594 3500 
L 594 4494 
L 1172 4494 
z
" transform="scale(0.015625)"/>
      <path id="DejaVuSans-58" d="M 544 1381 
L 544 3500 
L 1119 3500 
L 1119 1403 
Q 1119 906 1312 657 
Q 1506 409 1894 409 
Q 2359 409 2629 706 
Q 2900 1003 2900 1516 
L 2900 3500 
L 3475 3500 
L 3475 0 
L 2900 0 
L 2900 538 
Q 2691 219 2414 64 
Q 2138 -91 1772 -91 
Q 1169 -91 856 284 
Q 544 659 544 1381 
z
M 1991 3584 
L 1991 3584 
z
" transform="scale(0.015625)"/>
     </defs>
     <use xlink:href="#DejaVuSans-49"/>
     <use xlink:href="#DejaVuSans-48" transform="translate(35.203125 0)"/>
     <use xlink:href="#DejaVuSans-44" transform="translate(96.734375 0)"/>
     <use xlink:href="#DejaVuSans-57" transform="translate(158.015625 0)"/>
     <use xlink:href="#DejaVuSans-58" transform="translate(197.21875 0)"/>
     <use xlink:href="#DejaVuSans-55" transform="translate(260.59375 0)"/>
     <use xlink:href="#DejaVuSans-48" transform="translate(299.5 0)"/>
    </g>
   </g>
   <g id="text_2">
    <!-- Learned -->
    <g style="fill: #6b7280" transform="translate(389.819921 392.849339) scale(0.09 -0.09)">
     <defs>
      <path id="DejaVuSans-2f" d="M 628 4666 
L 1259 4666 
L 1259 531 
L 3531 531 
L 3531 0 
L 628 0 
L 628 4666 
z
" transform="scale(0.015625)"/>
     </defs>
     <use xlink:href="#DejaVuSans-2f"/>
     <use xlink:href="#DejaVuSans-48" transform="translate(53.96875 0)"/>
     <use xlink:href="#DejaVuSans-44" transform="translate(115.5 0)"/>
     <use xlink:href="#DejaVuSans-55" transform="translate(176.78125 0)"/>
     <use xlink:href="#DejaVuSans-51" transform="translate(216.140625 0)"/>
     <use xlink:href="#DejaVuSans-48" transform="translate(279.515625 0)"/>
     <use xlink:href="#DejaVuSans-47" transform="translate(341.046875 0)"/>
    </g>
    <!-- embedding -->
    <g style="fill: #6b7280" transform="translate(375.327108 403.6518) scale(0.09 -0.09)">
     <defs>
      <path id="DejaVuSans-50" d="M 3328 2828 
Q 3544 3216 3844 3400 
Q 4144 3584 4550 3584 
Q 5097 3584 5394 3201 
Q 5691 2819 5691 2113 
L 5691 0 
L 5113 0 
L 5113 2094 
Q 5113 2597 4934 2840 
Q 4756 3084 4391 3084 
Q 3944 3084 3684 2787 
Q 3425 2491 3425 1978 
L 3425 0 
L 2847 0 
L 2847 2094 
Q 2847 2600 2669 2842 
Q 2491 3084 2119 3084 
Q 1678 3084 1418 2786 
Q 1159 2488 1159 1978 
L 1159 0 
L 581 0 
L 581 3500 
L 1159 3500 
L 1159 2956 
Q 1356 3278 1631 3431 
Q 1906 3584 2284 3584 
Q 2666 3584 2933 3390 
Q 3200 3197 3328 2828 
z
" transform="scale(0.015625)"/>
      <path id="DejaVuSans-45" d="M 3116 1747 
Q 3116 2381 2855 2742 
Q 2594 3103 2138 3103 
Q 1681 3103 1420 2742 
Q 1159 2381 1159 1747 
Q 1159 1113 1420 752 
Q 1681 391 2138 391 
Q 2594 391 2855 752 
Q 3116 1113 3116 1747 
z
M 1159 2969 
Q 1341 3281 1617 3432 
Q 1894 3584 2278 3584 
Q 2916 3584 3314 3078 
Q 3713 2572 3713 1747 
Q 3713 922 3314 415 
Q 2916 -91 2278 -91 
Q 1894 -91 1617 61 
Q 1341 213 1159 525 
L 1159 0 
L 581 0 
L 581 4863 
L 1159 4863 
L 1159 2969 
z
" transform="scale(0.015625)"/>
     </defs>
     <use xlink:href="#DejaVuSans-48"/>
     <use xlink:href="#DejaVuSans-50" transform="translate(61.53125 0)"/>
     <use xlink:href="#DejaVuSans-45" transform="translate(158.9375 0)"/>
     <use xlink:href="#DejaVuSans-48" transform="translate(222.421875 0)"/>
     <use xlink:href="#DejaVuSans-47" transform="translate(283.953125 0)"/>
     <use xlink:href="#DejaVuSans-47" transform="translate(347.4375 0)"/>
     <use xlink:href="#DejaVuSans-4c" transform="translate(410.921875 0)"/>
     <use xlink:href="#DejaVuSans-51" transform="translate(438.703125 0)"/>
     <use xlink:href="#DejaVuSans-4a" transform="translate(502.078125 0)"/>
    </g>
   </g>
   <g id="text_3">
    <!-- Partition -->
    <g style="fill: #6b7280" transform="translate(137.922424 364.486933) rotate(-90) scale(0.09 -0.09)">
     <defs>
      <path id="DejaVuSans-33" d="M 1259 4147 
L 1259 2394 
L 2053 2394 
Q 2494 2394 2734 2622 
Q 2975 2850 2975 3272 
Q 2975 3691 2734 3919 
Q 2494 4147 2053 4147 
L 1259 4147 
z
M 628 4666 
L 2053 4666 
Q 2838 4666 3239 4311 
Q 3641 3956 3641 3272 
Q 3641 2581 3239 2228 
Q 2838 1875 2053 1875 
L 1259 1875 
L 1259 0 
L 628 0 
L 628 4666 
z
" transform="scale(0.015625)"/>
      <path id="DejaVuSans-52" d="M 1959 3097 
Q 1497 3097 1228 2736 
Q 959 2375 959 1747 
Q 959 1119 1226 758 
Q 1494 397 1959 397 
Q 2419 397 2687 759 
Q 2956 1122 2956 1747 
Q 2956 2369 2687 2733 
Q 2419 3097 1959 3097 
z
M 1959 3584 
Q 2709 3584 3137 3096 
Q 3566 2609 3566 1747 
Q 3566 888 3137 398 
Q 2709 -91 1959 -91 
Q 1206 -91 779 398 
Q 353 888 353 1747 
Q 353 2609 779 3096 
Q 1206 3584 1959 3584 
z
" transform="scale(0.015625)"/>
     </defs>
     <use xlink:href="#DejaVuSans-33"/>
     <use xlink:href="#DejaVuSans-44" transform="translate(55.8125 0)"/>
     <use xlink:href="#DejaVuSans-55" transform="translate(117.09375 0)"/>
     <use xlink:href="#DejaVuSans-57" transform="translate(158.203125 0)"/>
     <use xlink:href="#DejaVuSans-4c" transform="translate(197.40625 0)"/>
     <use xlink:href="#DejaVuSans-57" transform="translate(225.1875 0)"/>
     <use xlink:href="#DejaVuSans-4c" transform="translate(264.390625 0)"/>
     <use xlink:href="#DejaVuSans-52" transform="translate(292.171875 0)"/>
     <use xlink:href="#DejaVuSans-51" transform="translate(353.359375 0)"/>
    </g>
   </g>
   <g id="text_4">
    <!-- Spectral / manifold -->
    <g style="fill: #6b7280" transform="translate(137.922424 179.095777) rotate(-90) scale(0.09 -0.09)">
     <defs>
      <path id="DejaVuSans-36" d="M 3425 4513 
L 3425 3897 
Q 3066 4069 2747 4153 
Q 2428 4238 2131 4238 
Q 1616 4238 1336 4038 
Q 1056 3838 1056 3469 
Q 1056 3159 1242 3001 
Q 1428 2844 1947 2747 
L 2328 2669 
Q 3034 2534 3370 2195 
Q 3706 1856 3706 1288 
Q 3706 609 3251 259 
Q 2797 -91 1919 -91 
Q 1588 -91 1214 -16 
Q 841 59 441 206 
L 441 856 
Q 825 641 1194 531 
Q 1563 422 1919 422 
Q 2459 422 2753 634 
Q 3047 847 3047 1241 
Q 3047 1584 2836 1778 
Q 2625 1972 2144 2069 
L 1759 2144 
Q 1053 2284 737 2584 
Q 422 2884 422 3419 
Q 422 4038 858 4394 
Q 1294 4750 2059 4750 
Q 2388 4750 2728 4690 
Q 3069 4631 3425 4513 
z
" transform="scale(0.015625)"/>
      <path id="DejaVuSans-53" d="M 1159 525 
L 1159 -1331 
L 581 -1331 
L 581 3500 
L 1159 3500 
L 1159 2969 
Q 1341 3281 1617 3432 
Q 1894 3584 2278 3584 
Q 2916 3584 3314 3078 
Q 3713 2572 3713 1747 
Q 3713 922 3314 415 
Q 2916 -91 2278 -91 
Q 1894 -91 1617 61 
Q 1341 213 1159 525 
z
M 3116 1747 
Q 3116 2381 2855 2742 
Q 2594 3103 2138 3103 
Q 1681 3103 1420 2742 
Q 1159 2381 1159 1747 
Q 1159 1113 1420 752 
Q 1681 391 2138 391 
Q 2594 391 2855 752 
Q 3116 1113 3116 1747 
z
" transform="scale(0.015625)"/>
      <path id="DejaVuSans-46" d="M 3122 3366 
L 3122 2828 
Q 2878 2963 2633 3030 
Q 2388 3097 2138 3097 
Q 1578 3097 1268 2742 
Q 959 2388 959 1747 
Q 959 1106 1268 751 
Q 1578 397 2138 397 
Q 2388 397 2633 464 
Q 2878 531 3122 666 
L 3122 134 
Q 2881 22 2623 -34 
Q 2366 -91 2075 -91 
Q 1284 -91 818 406 
Q 353 903 353 1747 
Q 353 2603 823 3093 
Q 1294 3584 2113 3584 
Q 2378 3584 2631 3529 
Q 2884 3475 3122 3366 
z
" transform="scale(0.015625)"/>
      <path id="DejaVuSans-4f" d="M 603 4863 
L 1178 4863 
L 1178 0 
L 603 0 
L 603 4863 
z
" transform="scale(0.015625)"/>
      <path id="DejaVuSans-3" transform="scale(0.015625)"/>
      <path id="DejaVuSans-12" d="M 1625 4666 
L 2156 4666 
L 531 -594 
L 0 -594 
L 1625 4666 
z
" transform="scale(0.015625)"/>
     </defs>
     <use xlink:href="#DejaVuSans-36"/>
     <use xlink:href="#DejaVuSans-53" transform="translate(63.484375 0)"/>
     <use xlink:href="#DejaVuSans-48" transform="translate(126.96875 0)"/>
     <use xlink:href="#DejaVuSans-46" transform="translate(188.5 0)"/>
     <use xlink:href="#DejaVuSans-57" transform="translate(243.484375 0)"/>
     <use xlink:href="#DejaVuSans-55" transform="translate(282.6875 0)"/>
     <use xlink:href="#DejaVuSans-44" transform="translate(323.796875 0)"/>
     <use xlink:href="#DejaVuSans-4f" transform="translate(385.078125 0)"/>
     <use xlink:href="#DejaVuSans-3" transform="translate(412.859375 0)"/>
     <use xlink:href="#DejaVuSans-12" transform="translate(444.640625 0)"/>
     <use xlink:href="#DejaVuSans-3" transform="translate(478.328125 0)"/>
     <use xlink:href="#DejaVuSans-50" transform="translate(510.109375 0)"/>
     <use xlink:href="#DejaVuSans-44" transform="translate(607.515625 0)"/>
     <use xlink:href="#DejaVuSans-51" transform="translate(668.796875 0)"/>
     <use xlink:href="#DejaVuSans-4c" transform="translate(732.171875 0)"/>
     <use xlink:href="#DejaVuSans-49" transform="translate(759.953125 0)"/>
     <use xlink:href="#DejaVuSans-52" transform="translate(795.15625 0)"/>
     <use xlink:href="#DejaVuSans-4f" transform="translate(856.34375 0)"/>
     <use xlink:href="#DejaVuSans-47" transform="translate(884.125 0)"/>
    </g>
   </g>
   <g id="text_5">
    <!-- Hierarchical / -->
    <g style="fill: #6b7280" transform="translate(126.990051 250.816689) rotate(-90) scale(0.085 -0.085)">
     <defs>
      <path id="DejaVuSans-4b" d="M 3513 2113 
L 3513 0 
L 2938 0 
L 2938 2094 
Q 2938 2591 2744 2837 
Q 2550 3084 2163 3084 
Q 1697 3084 1428 2787 
Q 1159 2491 1159 1978 
L 1159 0 
L 581 0 
L 581 4863 
L 1159 4863 
L 1159 2956 
Q 1366 3272 1645 3428 
Q 1925 3584 2291 3584 
Q 2894 3584 3203 3211 
Q 3513 2838 3513 2113 
z
" transform="scale(0.015625)"/>
     </defs>
     <use xlink:href="#DejaVuSans-2b"/>
     <use xlink:href="#DejaVuSans-4c" transform="translate(75.203125 0)"/>
     <use xlink:href="#DejaVuSans-48" transform="translate(102.984375 0)"/>
     <use xlink:href="#DejaVuSans-55" transform="translate(164.515625 0)"/>
     <use xlink:href="#DejaVuSans-44" transform="translate(205.625 0)"/>
     <use xlink:href="#DejaVuSans-55" transform="translate(266.90625 0)"/>
     <use xlink:href="#DejaVuSans-46" transform="translate(305.8125 0)"/>
     <use xlink:href="#DejaVuSans-4b" transform="translate(360.796875 0)"/>
     <use xlink:href="#DejaVuSans-4c" transform="translate(424.171875 0)"/>
     <use xlink:href="#DejaVuSans-46" transform="translate(451.953125 0)"/>
     <use xlink:href="#DejaVuSans-44" transform="translate(506.9375 0)"/>
     <use xlink:href="#DejaVuSans-4f" transform="translate(568.21875 0)"/>
     <use xlink:href="#DejaVuSans-3" transform="translate(596 0)"/>
     <use xlink:href="#DejaVuSans-12" transform="translate(627.78125 0)"/>
    </g>
    <!-- two-stage -->
    <g style="fill: #6b7280" transform="translate(137.191711 236.89661) rotate(-90) scale(0.085 -0.085)">
     <defs>
      <path id="DejaVuSans-5a" d="M 269 3500 
L 844 3500 
L 1563 769 
L 2278 3500 
L 2956 3500 
L 3675 769 
L 4391 3500 
L 4966 3500 
L 4050 0 
L 3372 0 
L 2619 2869 
L 1863 0 
L 1184 0 
L 269 3500 
z
" transform="scale(0.015625)"/>
      <path id="DejaVuSans-56" d="M 2834 3397 
L 2834 2853 
Q 2591 2978 2328 3040 
Q 2066 3103 1784 3103 
Q 1356 3103 1142 2972 
Q 928 2841 928 2578 
Q 928 2378 1081 2264 
Q 1234 2150 1697 2047 
L 1894 2003 
Q 2506 1872 2764 1633 
Q 3022 1394 3022 966 
Q 3022 478 2636 193 
Q 2250 -91 1575 -91 
Q 1294 -91 989 -36 
Q 684 19 347 128 
L 347 722 
Q 666 556 975 473 
Q 1284 391 1588 391 
Q 1994 391 2212 530 
Q 2431 669 2431 922 
Q 2431 1156 2273 1281 
Q 2116 1406 1581 1522 
L 1381 1569 
Q 847 1681 609 1914 
Q 372 2147 372 2553 
Q 372 3047 722 3315 
Q 1072 3584 1716 3584 
Q 2034 3584 2315 3537 
Q 2597 3491 2834 3397 
z
" transform="scale(0.015625)"/>
     </defs>
     <use xlink:href="#DejaVuSans-57"/>
     <use xlink:href="#DejaVuSans-5a" transform="translate(39.203125 0)"/>
     <use xlink:href="#DejaVuSans-52" transform="translate(120.984375 0)"/>
     <use xlink:href="#DejaVuSans-10" transform="translate(184.03125 0)"/>
     <use xlink:href="#DejaVuSans-56" transform="translate(220.109375 0)"/>
     <use xlink:href="#DejaVuSans-57" transform="translate(272.203125 0)"/>
     <use xlink:href="#DejaVuSans-44" transform="translate(311.40625 0)"/>
     <use xlink:href="#DejaVuSans-4a" transform="translate(372.6875 0)"/>
     <use xlink:href="#DejaVuSans-48" transform="translate(436.171875 0)"/>
    </g>
   </g>
   <g id="patch_4">
    <path d="M 186.486133 335.614827 
C 188.400376 335.614827 190.236475 334.85429 191.590049 333.500716 
C 192.943623 332.147141 193.70416 330.311043 193.70416 328.3968 
C 193.70416 326.482557 192.943623 324.646459 191.590049 323.292884 
C 190.236475 321.93931 188.400376 321.178773 186.486133 321.178773 
C 184.57189 321.178773 182.735792 321.93931 181.382218 323.292884 
C 180.028643 324.646459 179.268107 326.482557 179.268107 328.3968 
C 179.268107 330.311043 180.028643 332.147141 181.382218 333.500716 
C 182.735792 334.85429 184.57189 335.614827 186.486133 335.614827 
z
" clip-path="url(#p48c0fd12b7)" style="fill: #1e293b; stroke: #ffffff; stroke-width: 1.2; stroke-linejoin: miter"/>
   </g>
   <g id="text_6">
    <!-- Shape k-means -->
    <g style="fill: #1e293b" transform="translate(147.645508 297.878157) scale(0.09 -0.09)">
     <defs>
      <path id="DejaVuSans-Bold-36" d="M 3834 4519 
L 3834 3531 
Q 3450 3703 3084 3790 
Q 2719 3878 2394 3878 
Q 1963 3878 1756 3759 
Q 1550 3641 1550 3391 
Q 1550 3203 1689 3098 
Q 1828 2994 2194 2919 
L 2706 2816 
Q 3484 2659 3812 2340 
Q 4141 2022 4141 1434 
Q 4141 663 3683 286 
Q 3225 -91 2284 -91 
Q 1841 -91 1394 -6 
Q 947 78 500 244 
L 500 1259 
Q 947 1022 1364 901 
Q 1781 781 2169 781 
Q 2563 781 2772 912 
Q 2981 1044 2981 1288 
Q 2981 1506 2839 1625 
Q 2697 1744 2272 1838 
L 1806 1941 
Q 1106 2091 782 2419 
Q 459 2747 459 3303 
Q 459 4000 909 4375 
Q 1359 4750 2203 4750 
Q 2588 4750 2994 4692 
Q 3400 4634 3834 4519 
z
" transform="scale(0.015625)"/>
      <path id="DejaVuSans-Bold-4b" d="M 4056 2131 
L 4056 0 
L 2931 0 
L 2931 347 
L 2931 1625 
Q 2931 2084 2911 2256 
Q 2891 2428 2841 2509 
Q 2775 2619 2662 2680 
Q 2550 2741 2406 2741 
Q 2056 2741 1856 2470 
Q 1656 2200 1656 1722 
L 1656 0 
L 538 0 
L 538 4863 
L 1656 4863 
L 1656 2988 
Q 1909 3294 2193 3439 
Q 2478 3584 2822 3584 
Q 3428 3584 3742 3212 
Q 4056 2841 4056 2131 
z
" transform="scale(0.015625)"/>
      <path id="DejaVuSans-Bold-44" d="M 2106 1575 
Q 1756 1575 1579 1456 
Q 1403 1338 1403 1106 
Q 1403 894 1545 773 
Q 1688 653 1941 653 
Q 2256 653 2472 879 
Q 2688 1106 2688 1447 
L 2688 1575 
L 2106 1575 
z
M 3816 1997 
L 3816 0 
L 2688 0 
L 2688 519 
Q 2463 200 2181 54 
Q 1900 -91 1497 -91 
Q 953 -91 614 226 
Q 275 544 275 1050 
Q 275 1666 698 1953 
Q 1122 2241 2028 2241 
L 2688 2241 
L 2688 2328 
Q 2688 2594 2478 2717 
Q 2269 2841 1825 2841 
Q 1466 2841 1156 2769 
Q 847 2697 581 2553 
L 581 3406 
Q 941 3494 1303 3539 
Q 1666 3584 2028 3584 
Q 2975 3584 3395 3211 
Q 3816 2838 3816 1997 
z
" transform="scale(0.015625)"/>
      <path id="DejaVuSans-Bold-53" d="M 1656 506 
L 1656 -1331 
L 538 -1331 
L 538 3500 
L 1656 3500 
L 1656 2988 
Q 1888 3294 2169 3439 
Q 2450 3584 2816 3584 
Q 3463 3584 3878 3070 
Q 4294 2556 4294 1747 
Q 4294 938 3878 423 
Q 3463 -91 2816 -91 
Q 2450 -91 2169 54 
Q 1888 200 1656 506 
z
M 2400 2772 
Q 2041 2772 1848 2508 
Q 1656 2244 1656 1747 
Q 1656 1250 1848 986 
Q 2041 722 2400 722 
Q 2759 722 2948 984 
Q 3138 1247 3138 1747 
Q 3138 2247 2948 2509 
Q 2759 2772 2400 2772 
z
" transform="scale(0.015625)"/>
      <path id="DejaVuSans-Bold-48" d="M 4031 1759 
L 4031 1441 
L 1416 1441 
Q 1456 1047 1700 850 
Q 1944 653 2381 653 
Q 2734 653 3104 758 
Q 3475 863 3866 1075 
L 3866 213 
Q 3469 63 3072 -14 
Q 2675 -91 2278 -91 
Q 1328 -91 801 392 
Q 275 875 275 1747 
Q 275 2603 792 3093 
Q 1309 3584 2216 3584 
Q 3041 3584 3536 3087 
Q 4031 2591 4031 1759 
z
M 2881 2131 
Q 2881 2450 2695 2645 
Q 2509 2841 2209 2841 
Q 1884 2841 1681 2658 
Q 1478 2475 1428 2131 
L 2881 2131 
z
" transform="scale(0.015625)"/>
      <path id="DejaVuSans-Bold-3" transform="scale(0.015625)"/>
      <path id="DejaVuSans-Bold-4e" d="M 538 4863 
L 1656 4863 
L 1656 2216 
L 2944 3500 
L 4244 3500 
L 2534 1894 
L 4378 0 
L 3022 0 
L 1656 1459 
L 1656 0 
L 538 0 
L 538 4863 
z
" transform="scale(0.015625)"/>
      <path id="DejaVuSans-Bold-10" d="M 347 2297 
L 2309 2297 
L 2309 1388 
L 347 1388 
L 347 2297 
z
" transform="scale(0.015625)"/>
      <path id="DejaVuSans-Bold-50" d="M 3781 2919 
Q 3994 3244 4286 3414 
Q 4578 3584 4928 3584 
Q 5531 3584 5847 3212 
Q 6163 2841 6163 2131 
L 6163 0 
L 5038 0 
L 5038 1825 
Q 5041 1866 5042 1909 
Q 5044 1953 5044 2034 
Q 5044 2406 4934 2573 
Q 4825 2741 4581 2741 
Q 4263 2741 4089 2478 
Q 3916 2216 3909 1719 
L 3909 0 
L 2784 0 
L 2784 1825 
Q 2784 2406 2684 2573 
Q 2584 2741 2328 2741 
Q 2006 2741 1831 2477 
Q 1656 2213 1656 1722 
L 1656 0 
L 531 0 
L 531 3500 
L 1656 3500 
L 1656 2988 
Q 1863 3284 2130 3434 
Q 2397 3584 2719 3584 
Q 3081 3584 3359 3409 
Q 3638 3234 3781 2919 
z
" transform="scale(0.015625)"/>
      <path id="DejaVuSans-Bold-51" d="M 4056 2131 
L 4056 0 
L 2931 0 
L 2931 347 
L 2931 1631 
Q 2931 2084 2911 2256 
Q 2891 2428 2841 2509 
Q 2775 2619 2662 2680 
Q 2550 2741 2406 2741 
Q 2056 2741 1856 2470 
Q 1656 2200 1656 1722 
L 1656 0 
L 538 0 
L 538 3500 
L 1656 3500 
L 1656 2988 
Q 1909 3294 2193 3439 
Q 2478 3584 2822 3584 
Q 3428 3584 3742 3212 
Q 4056 2841 4056 2131 
z
" transform="scale(0.015625)"/>
      <path id="DejaVuSans-Bold-56" d="M 3272 3391 
L 3272 2541 
Q 2913 2691 2578 2766 
Q 2244 2841 1947 2841 
Q 1628 2841 1473 2761 
Q 1319 2681 1319 2516 
Q 1319 2381 1436 2309 
Q 1553 2238 1856 2203 
L 2053 2175 
Q 2913 2066 3209 1816 
Q 3506 1566 3506 1031 
Q 3506 472 3093 190 
Q 2681 -91 1863 -91 
Q 1516 -91 1145 -36 
Q 775 19 384 128 
L 384 978 
Q 719 816 1070 734 
Q 1422 653 1784 653 
Q 2113 653 2278 743 
Q 2444 834 2444 1013 
Q 2444 1163 2330 1236 
Q 2216 1309 1875 1350 
L 1678 1375 
Q 931 1469 631 1722 
Q 331 1975 331 2491 
Q 331 3047 712 3315 
Q 1094 3584 1881 3584 
Q 2191 3584 2531 3537 
Q 2872 3491 3272 3391 
z
" transform="scale(0.015625)"/>
     </defs>
     <use xlink:href="#DejaVuSans-Bold-36"/>
     <use xlink:href="#DejaVuSans-Bold-4b" transform="translate(72.015625 0)"/>
     <use xlink:href="#DejaVuSans-Bold-44" transform="translate(143.203125 0)"/>
     <use xlink:href="#DejaVuSans-Bold-53" transform="translate(210.6875 0)"/>
     <use xlink:href="#DejaVuSans-Bold-48" transform="translate(282.265625 0)"/>
     <use xlink:href="#DejaVuSans-Bold-3" transform="translate(350.09375 0)"/>
     <use xlink:href="#DejaVuSans-Bold-4e" transform="translate(384.90625 0)"/>
     <use xlink:href="#DejaVuSans-Bold-10" transform="translate(451.40625 0)"/>
     <use xlink:href="#DejaVuSans-Bold-50" transform="translate(492.90625 0)"/>
     <use xlink:href="#DejaVuSans-Bold-48" transform="translate(597.109375 0)"/>
     <use xlink:href="#DejaVuSans-Bold-44" transform="translate(664.9375 0)"/>
     <use xlink:href="#DejaVuSans-Bold-51" transform="translate(732.421875 0)"/>
     <use xlink:href="#DejaVuSans-Bold-56" transform="translate(803.609375 0)"/>
    </g>
   </g>
   <g id="patch_5">
    <path d="M 217.420533 227.344427 
C 219.334776 227.344427 221.170875 226.58389 222.524449 225.230316 
C 223.878023 223.876741 224.63856 222.040643 224.63856 220.1264 
C 224.63856 218.212157 223.878023 216.376059 222.524449 215.022484 
C 221.170875 213.66891 219.334776 212.908373 217.420533 212.908373 
C 215.50629 212.908373 213.670192 213.66891 212.316618 215.022484 
C 210.963043 216.376059 210.202507 218.212157 210.202507 220.1264 
C 210.202507 222.040643 210.963043 223.876741 212.316618 225.230316 
C 213.670192 226.58389 215.50629 227.344427 217.420533 227.344427 
z
" clip-path="url(#p48c0fd12b7)" style="fill: #0369a1; stroke: #ffffff; stroke-width: 1.2; stroke-linejoin: miter"/>
   </g>
   <g id="text_7">
    <!-- CROCS -->
    <g style="fill: #0369a1" transform="translate(200.200299 177.905121) scale(0.09 -0.09)">
     <defs>
      <path id="DejaVuSans-Bold-26" d="M 4288 256 
Q 3956 84 3597 -3 
Q 3238 -91 2847 -91 
Q 1681 -91 1000 561 
Q 319 1213 319 2328 
Q 319 3447 1000 4098 
Q 1681 4750 2847 4750 
Q 3238 4750 3597 4662 
Q 3956 4575 4288 4403 
L 4288 3438 
Q 3953 3666 3628 3772 
Q 3303 3878 2944 3878 
Q 2300 3878 1931 3465 
Q 1563 3053 1563 2328 
Q 1563 1606 1931 1193 
Q 2300 781 2944 781 
Q 3303 781 3628 887 
Q 3953 994 4288 1222 
L 4288 256 
z
" transform="scale(0.015625)"/>
      <path id="DejaVuSans-Bold-35" d="M 2297 2597 
Q 2675 2597 2839 2737 
Q 3003 2878 3003 3200 
Q 3003 3519 2839 3656 
Q 2675 3794 2297 3794 
L 1791 3794 
L 1791 2597 
L 2297 2597 
z
M 1791 1766 
L 1791 0 
L 588 0 
L 588 4666 
L 2425 4666 
Q 3347 4666 3776 4356 
Q 4206 4047 4206 3378 
Q 4206 2916 3982 2619 
Q 3759 2322 3309 2181 
Q 3556 2125 3751 1926 
Q 3947 1728 4147 1325 
L 4800 0 
L 3519 0 
L 2950 1159 
Q 2778 1509 2601 1637 
Q 2425 1766 2131 1766 
L 1791 1766 
z
" transform="scale(0.015625)"/>
      <path id="DejaVuSans-Bold-32" d="M 2719 3878 
Q 2169 3878 1866 3472 
Q 1563 3066 1563 2328 
Q 1563 1594 1866 1187 
Q 2169 781 2719 781 
Q 3272 781 3575 1187 
Q 3878 1594 3878 2328 
Q 3878 3066 3575 3472 
Q 3272 3878 2719 3878 
z
M 2719 4750 
Q 3844 4750 4481 4106 
Q 5119 3463 5119 2328 
Q 5119 1197 4481 553 
Q 3844 -91 2719 -91 
Q 1597 -91 958 553 
Q 319 1197 319 2328 
Q 319 3463 958 4106 
Q 1597 4750 2719 4750 
z
" transform="scale(0.015625)"/>
     </defs>
     <use xlink:href="#DejaVuSans-Bold-26"/>
     <use xlink:href="#DejaVuSans-Bold-35" transform="translate(73.390625 0)"/>
     <use xlink:href="#DejaVuSans-Bold-32" transform="translate(150.390625 0)"/>
     <use xlink:href="#DejaVuSans-Bold-26" transform="translate(235.40625 0)"/>
     <use xlink:href="#DejaVuSans-Bold-36" transform="translate(310.65625 0)"/>
    </g>
    <!-- (RLS + WSMD) -->
    <g style="fill: #0369a1" transform="translate(180.412252 188.706878) scale(0.09 -0.09)">
     <defs>
      <path id="DejaVuSans-Bold-b" d="M 2413 -844 
L 1484 -844 
Q 1006 -72 778 623 
Q 550 1319 550 2003 
Q 550 2688 779 3389 
Q 1009 4091 1484 4856 
L 2413 4856 
Q 2013 4116 1813 3408 
Q 1613 2700 1613 2009 
Q 1613 1319 1811 609 
Q 2009 -100 2413 -844 
z
" transform="scale(0.015625)"/>
      <path id="DejaVuSans-Bold-2f" d="M 588 4666 
L 1791 4666 
L 1791 909 
L 3903 909 
L 3903 0 
L 588 0 
L 588 4666 
z
" transform="scale(0.015625)"/>
      <path id="DejaVuSans-Bold-e" d="M 3053 4013 
L 3053 2375 
L 4684 2375 
L 4684 1638 
L 3053 1638 
L 3053 0 
L 2309 0 
L 2309 1638 
L 678 1638 
L 678 2375 
L 2309 2375 
L 2309 4013 
L 3053 4013 
z
" transform="scale(0.015625)"/>
      <path id="DejaVuSans-Bold-3a" d="M 191 4666 
L 1344 4666 
L 2150 1275 
L 2950 4666 
L 4109 4666 
L 4909 1275 
L 5716 4666 
L 6859 4666 
L 5759 0 
L 4372 0 
L 3525 3547 
L 2688 0 
L 1300 0 
L 191 4666 
z
" transform="scale(0.015625)"/>
      <path id="DejaVuSans-Bold-30" d="M 588 4666 
L 2119 4666 
L 3181 2169 
L 4250 4666 
L 5778 4666 
L 5778 0 
L 4641 0 
L 4641 3413 
L 3566 897 
L 2803 897 
L 1728 3413 
L 1728 0 
L 588 0 
L 588 4666 
z
" transform="scale(0.015625)"/>
      <path id="DejaVuSans-Bold-27" d="M 1791 3756 
L 1791 909 
L 2222 909 
Q 2959 909 3348 1275 
Q 3738 1641 3738 2338 
Q 3738 3031 3350 3393 
Q 2963 3756 2222 3756 
L 1791 3756 
z
M 588 4666 
L 1856 4666 
Q 2919 4666 3439 4514 
Q 3959 4363 4331 4000 
Q 4659 3684 4818 3271 
Q 4978 2859 4978 2338 
Q 4978 1809 4818 1395 
Q 4659 981 4331 666 
Q 3956 303 3431 151 
Q 2906 0 1856 0 
L 588 0 
L 588 4666 
z
" transform="scale(0.015625)"/>
      <path id="DejaVuSans-Bold-c" d="M 513 -844 
Q 913 -100 1113 609 
Q 1313 1319 1313 2009 
Q 1313 2700 1113 3408 
Q 913 4116 513 4856 
L 1441 4856 
Q 1916 4091 2145 3389 
Q 2375 2688 2375 2003 
Q 2375 1319 2147 623 
Q 1919 -72 1441 -844 
L 513 -844 
z
" transform="scale(0.015625)"/>
     </defs>
     <use xlink:href="#DejaVuSans-Bold-b"/>
     <use xlink:href="#DejaVuSans-Bold-35" transform="translate(45.703125 0)"/>
     <use xlink:href="#DejaVuSans-Bold-2f" transform="translate(122.703125 0)"/>
     <use xlink:href="#DejaVuSans-Bold-36" transform="translate(186.421875 0)"/>
     <use xlink:href="#DejaVuSans-Bold-3" transform="translate(258.4375 0)"/>
     <use xlink:href="#DejaVuSans-Bold-e" transform="translate(293.25 0)"/>
     <use xlink:href="#DejaVuSans-Bold-3" transform="translate(377.046875 0)"/>
     <use xlink:href="#DejaVuSans-Bold-3a" transform="translate(411.859375 0)"/>
     <use xlink:href="#DejaVuSans-Bold-36" transform="translate(522.15625 0)"/>
     <use xlink:href="#DejaVuSans-Bold-30" transform="translate(594.171875 0)"/>
     <use xlink:href="#DejaVuSans-Bold-27" transform="translate(693.6875 0)"/>
     <use xlink:href="#DejaVuSans-Bold-c" transform="translate(776.703125 0)"/>
    </g>
   </g>
   <g id="patch_6">
    <path d="M 315.379467 320.147627 
C 317.29371 320.147627 319.129808 319.38709 320.483382 318.033516 
C 321.836957 316.679941 322.597493 314.843843 322.597493 312.9296 
C 322.597493 311.015357 321.836957 309.179259 320.483382 307.825684 
C 319.129808 306.47211 317.29371 305.711573 315.379467 305.711573 
C 313.465224 305.711573 311.629125 306.47211 310.275551 307.825684 
C 308.921977 309.179259 308.16144 311.015357 308.16144 312.9296 
C 308.16144 314.843843 308.921977 316.679941 310.275551 318.033516 
C 311.629125 319.38709 313.465224 320.147627 315.379467 320.147627 
z
" clip-path="url(#p48c0fd12b7)" style="fill: #059669; stroke: #ffffff; stroke-width: 1.2; stroke-linejoin: miter"/>
   </g>
   <g id="text_8">
    <!-- Tucker -->
    <g style="fill: #059669" transform="translate(298.789935 270.707617) scale(0.09 -0.09)">
     <defs>
      <path id="DejaVuSans-Bold-37" d="M 31 4666 
L 4331 4666 
L 4331 3756 
L 2784 3756 
L 2784 0 
L 1581 0 
L 1581 3756 
L 31 3756 
L 31 4666 
z
" transform="scale(0.015625)"/>
      <path id="DejaVuSans-Bold-58" d="M 500 1363 
L 500 3500 
L 1625 3500 
L 1625 3150 
Q 1625 2866 1622 2436 
Q 1619 2006 1619 1863 
Q 1619 1441 1641 1255 
Q 1663 1069 1716 984 
Q 1784 875 1895 815 
Q 2006 756 2150 756 
Q 2500 756 2700 1025 
Q 2900 1294 2900 1772 
L 2900 3500 
L 4019 3500 
L 4019 0 
L 2900 0 
L 2900 506 
Q 2647 200 2364 54 
Q 2081 -91 1741 -91 
Q 1134 -91 817 281 
Q 500 653 500 1363 
z
" transform="scale(0.015625)"/>
      <path id="DejaVuSans-Bold-46" d="M 3366 3391 
L 3366 2478 
Q 3138 2634 2908 2709 
Q 2678 2784 2431 2784 
Q 1963 2784 1702 2511 
Q 1441 2238 1441 1747 
Q 1441 1256 1702 982 
Q 1963 709 2431 709 
Q 2694 709 2930 787 
Q 3166 866 3366 1019 
L 3366 103 
Q 3103 6 2833 -42 
Q 2563 -91 2291 -91 
Q 1344 -91 809 395 
Q 275 881 275 1747 
Q 275 2613 809 3098 
Q 1344 3584 2291 3584 
Q 2566 3584 2833 3536 
Q 3100 3488 3366 3391 
z
" transform="scale(0.015625)"/>
      <path id="DejaVuSans-Bold-55" d="M 3138 2547 
Q 2991 2616 2845 2648 
Q 2700 2681 2553 2681 
Q 2122 2681 1889 2404 
Q 1656 2128 1656 1613 
L 1656 0 
L 538 0 
L 538 3500 
L 1656 3500 
L 1656 2925 
Q 1872 3269 2151 3426 
Q 2431 3584 2822 3584 
Q 2878 3584 2943 3579 
Q 3009 3575 3134 3559 
L 3138 2547 
z
" transform="scale(0.015625)"/>
     </defs>
     <use xlink:href="#DejaVuSans-Bold-37"/>
     <use xlink:href="#DejaVuSans-Bold-58" transform="translate(57.234375 0)"/>
     <use xlink:href="#DejaVuSans-Bold-46" transform="translate(128.421875 0)"/>
     <use xlink:href="#DejaVuSans-Bold-4e" transform="translate(187.703125 0)"/>
     <use xlink:href="#DejaVuSans-Bold-48" transform="translate(251.515625 0)"/>
     <use xlink:href="#DejaVuSans-Bold-55" transform="translate(319.34375 0)"/>
    </g>
    <!-- decomposition -->
    <g style="fill: #059669" transform="translate(278.135639 281.510078) scale(0.09 -0.09)">
     <defs>
      <path id="DejaVuSans-Bold-47" d="M 2919 2988 
L 2919 4863 
L 4044 4863 
L 4044 0 
L 2919 0 
L 2919 506 
Q 2688 197 2409 53 
Q 2131 -91 1766 -91 
Q 1119 -91 703 423 
Q 288 938 288 1747 
Q 288 2556 703 3070 
Q 1119 3584 1766 3584 
Q 2128 3584 2408 3439 
Q 2688 3294 2919 2988 
z
M 2181 722 
Q 2541 722 2730 984 
Q 2919 1247 2919 1747 
Q 2919 2247 2730 2509 
Q 2541 2772 2181 2772 
Q 1825 2772 1636 2509 
Q 1447 2247 1447 1747 
Q 1447 1247 1636 984 
Q 1825 722 2181 722 
z
" transform="scale(0.015625)"/>
      <path id="DejaVuSans-Bold-52" d="M 2203 2784 
Q 1831 2784 1636 2517 
Q 1441 2250 1441 1747 
Q 1441 1244 1636 976 
Q 1831 709 2203 709 
Q 2569 709 2762 976 
Q 2956 1244 2956 1747 
Q 2956 2250 2762 2517 
Q 2569 2784 2203 2784 
z
M 2203 3584 
Q 3106 3584 3614 3096 
Q 4122 2609 4122 1747 
Q 4122 884 3614 396 
Q 3106 -91 2203 -91 
Q 1297 -91 786 396 
Q 275 884 275 1747 
Q 275 2609 786 3096 
Q 1297 3584 2203 3584 
z
" transform="scale(0.015625)"/>
      <path id="DejaVuSans-Bold-4c" d="M 538 3500 
L 1656 3500 
L 1656 0 
L 538 0 
L 538 3500 
z
M 538 4863 
L 1656 4863 
L 1656 3950 
L 538 3950 
L 538 4863 
z
" transform="scale(0.015625)"/>
      <path id="DejaVuSans-Bold-57" d="M 1759 4494 
L 1759 3500 
L 2913 3500 
L 2913 2700 
L 1759 2700 
L 1759 1216 
Q 1759 972 1856 886 
Q 1953 800 2241 800 
L 2816 800 
L 2816 0 
L 1856 0 
Q 1194 0 917 276 
Q 641 553 641 1216 
L 641 2700 
L 84 2700 
L 84 3500 
L 641 3500 
L 641 4494 
L 1759 4494 
z
" transform="scale(0.015625)"/>
     </defs>
     <use xlink:href="#DejaVuSans-Bold-47"/>
     <use xlink:href="#DejaVuSans-Bold-48" transform="translate(71.578125 0)"/>
     <use xlink:href="#DejaVuSans-Bold-46" transform="translate(139.40625 0)"/>
     <use xlink:href="#DejaVuSans-Bold-52" transform="translate(198.6875 0)"/>
     <use xlink:href="#DejaVuSans-Bold-50" transform="translate(267.390625 0)"/>
     <use xlink:href="#DejaVuSans-Bold-53" transform="translate(371.59375 0)"/>
     <use xlink:href="#DejaVuSans-Bold-52" transform="translate(443.171875 0)"/>
     <use xlink:href="#DejaVuSans-Bold-56" transform="translate(511.875 0)"/>
     <use xlink:href="#DejaVuSans-Bold-4c" transform="translate(571.390625 0)"/>
     <use xlink:href="#DejaVuSans-Bold-57" transform="translate(605.671875 0)"/>
     <use xlink:href="#DejaVuSans-Bold-4c" transform="translate(653.46875 0)"/>
     <use xlink:href="#DejaVuSans-Bold-52" transform="translate(687.75 0)"/>
     <use xlink:href="#DejaVuSans-Bold-51" transform="translate(756.453125 0)"/>
    </g>
   </g>
   <g id="patch_7">
    <path d="M 387.559733 304.680427 
C 389.473976 304.680427 391.310075 303.91989 392.663649 302.566316 
C 394.017223 301.212741 394.77776 299.376643 394.77776 297.4624 
C 394.77776 295.548157 394.017223 293.712059 392.663649 292.358484 
C 391.310075 291.00491 389.473976 290.244373 387.559733 290.244373 
C 385.64549 290.244373 383.809392 291.00491 382.455818 292.358484 
C 381.102243 293.712059 380.341707 295.548157 380.341707 297.4624 
C 380.341707 299.376643 381.102243 301.212741 382.455818 302.566316 
C 383.809392 303.91989 385.64549 304.680427 387.559733 304.680427 
z
" clip-path="url(#p48c0fd12b7)" style="fill: #8b5cf6; stroke: #ffffff; stroke-width: 1.2; stroke-linejoin: miter"/>
   </g>
   <g id="text_9">
    <!-- Chronos-2 -->
    <g style="fill: #8b5cf6" transform="translate(361.771218 255.240417) scale(0.09 -0.09)">
     <defs>
      <path id="DejaVuSans-Bold-15" d="M 1844 884 
L 3897 884 
L 3897 0 
L 506 0 
L 506 884 
L 2209 2388 
Q 2438 2594 2547 2791 
Q 2656 2988 2656 3200 
Q 2656 3528 2436 3728 
Q 2216 3928 1850 3928 
Q 1569 3928 1234 3808 
Q 900 3688 519 3450 
L 519 4475 
Q 925 4609 1322 4679 
Q 1719 4750 2100 4750 
Q 2938 4750 3402 4381 
Q 3866 4013 3866 3353 
Q 3866 2972 3669 2642 
Q 3472 2313 2841 1759 
L 1844 884 
z
" transform="scale(0.015625)"/>
     </defs>
     <use xlink:href="#DejaVuSans-Bold-26"/>
     <use xlink:href="#DejaVuSans-Bold-4b" transform="translate(73.390625 0)"/>
     <use xlink:href="#DejaVuSans-Bold-55" transform="translate(144.578125 0)"/>
     <use xlink:href="#DejaVuSans-Bold-52" transform="translate(193.890625 0)"/>
     <use xlink:href="#DejaVuSans-Bold-51" transform="translate(262.59375 0)"/>
     <use xlink:href="#DejaVuSans-Bold-52" transform="translate(333.78125 0)"/>
     <use xlink:href="#DejaVuSans-Bold-56" transform="translate(402.484375 0)"/>
     <use xlink:href="#DejaVuSans-Bold-10" transform="translate(462 0)"/>
     <use xlink:href="#DejaVuSans-Bold-15" transform="translate(503.5 0)"/>
    </g>
    <!-- embeddings -->
    <g style="fill: #8b5cf6" transform="translate(356.457702 266.042878) scale(0.09 -0.09)">
     <defs>
      <path id="DejaVuSans-Bold-45" d="M 2400 722 
Q 2759 722 2948 984 
Q 3138 1247 3138 1747 
Q 3138 2247 2948 2509 
Q 2759 2772 2400 2772 
Q 2041 2772 1848 2508 
Q 1656 2244 1656 1747 
Q 1656 1250 1848 986 
Q 2041 722 2400 722 
z
M 1656 2988 
Q 1888 3294 2169 3439 
Q 2450 3584 2816 3584 
Q 3463 3584 3878 3070 
Q 4294 2556 4294 1747 
Q 4294 938 3878 423 
Q 3463 -91 2816 -91 
Q 2450 -91 2169 54 
Q 1888 200 1656 506 
L 1656 0 
L 538 0 
L 538 4863 
L 1656 4863 
L 1656 2988 
z
" transform="scale(0.015625)"/>
      <path id="DejaVuSans-Bold-4a" d="M 2919 594 
Q 2688 288 2409 144 
Q 2131 0 1766 0 
Q 1125 0 706 504 
Q 288 1009 288 1791 
Q 288 2575 706 3076 
Q 1125 3578 1766 3578 
Q 2131 3578 2409 3434 
Q 2688 3291 2919 2981 
L 2919 3500 
L 4044 3500 
L 4044 353 
Q 4044 -491 3511 -936 
Q 2978 -1381 1966 -1381 
Q 1638 -1381 1331 -1331 
Q 1025 -1281 716 -1178 
L 716 -306 
Q 1009 -475 1290 -558 
Q 1572 -641 1856 -641 
Q 2406 -641 2662 -400 
Q 2919 -159 2919 353 
L 2919 594 
z
M 2181 2772 
Q 1834 2772 1640 2515 
Q 1447 2259 1447 1791 
Q 1447 1309 1634 1061 
Q 1822 813 2181 813 
Q 2531 813 2725 1069 
Q 2919 1325 2919 1791 
Q 2919 2259 2725 2515 
Q 2531 2772 2181 2772 
z
" transform="scale(0.015625)"/>
     </defs>
     <use xlink:href="#DejaVuSans-Bold-48"/>
     <use xlink:href="#DejaVuSans-Bold-50" transform="translate(67.828125 0)"/>
     <use xlink:href="#DejaVuSans-Bold-45" transform="translate(172.03125 0)"/>
     <use xlink:href="#DejaVuSans-Bold-48" transform="translate(243.609375 0)"/>
     <use xlink:href="#DejaVuSans-Bold-47" transform="translate(311.4375 0)"/>
     <use xlink:href="#DejaVuSans-Bold-47" transform="translate(383.015625 0)"/>
     <use xlink:href="#DejaVuSans-Bold-4c" transform="translate(454.59375 0)"/>
     <use xlink:href="#DejaVuSans-Bold-51" transform="translate(488.875 0)"/>
     <use xlink:href="#DejaVuSans-Bold-4a" transform="translate(560.0625 0)"/>
     <use xlink:href="#DejaVuSans-Bold-56" transform="translate(631.640625 0)"/>
    </g>
   </g>
   <g id="patch_8">
    <path d="M 325.690933 139.69696 
C 327.605176 139.69696 329.441275 138.936423 330.794849 137.582849 
C 332.148423 136.229275 332.90896 134.393176 332.90896 132.478933 
C 332.90896 130.56469 332.148423 128.728592 330.794849 127.375018 
C 329.441275 126.021443 327.605176 125.260907 325.690933 125.260907 
C 323.77669 125.260907 321.940592 126.021443 320.587018 127.375018 
C 319.233443 128.728592 318.472907 130.56469 318.472907 132.478933 
C 318.472907 134.393176 319.233443 136.229275 320.587018 137.582849 
C 321.940592 138.936423 323.77669 139.69696 325.690933 139.69696 
z
" clip-path="url(#p48c0fd12b7)" style="fill: #ea580c; stroke: #ffffff; stroke-width: 1.2; stroke-linejoin: miter"/>
   </g>
   <g id="text_10">
    <!-- Diffusion maps -->
    <g style="fill: #ea580c" transform="translate(287.85648 167.67406) scale(0.09 -0.09)">
     <defs>
      <path id="DejaVuSans-Bold-13aa" d="M 2841 4863 
L 2841 4128 
L 2222 4128 
Q 1984 4128 1891 4044 
Q 1797 3956 1797 3744 
L 1797 3500 
L 3078 3500 
L 3078 3744 
Q 3078 4316 3397 4588 
Q 3716 4863 4384 4863 
L 5241 4863 
L 5241 4128 
L 4622 4128 
Q 4384 4128 4291 4044 
Q 4197 3956 4197 3744 
L 4197 3500 
L 5153 3500 
L 5153 2700 
L 4197 2700 
L 4197 0 
L 3078 0 
L 3078 2700 
L 1797 2700 
L 1797 0 
L 678 0 
L 678 2700 
L 122 2700 
L 122 3500 
L 678 3500 
L 678 3744 
Q 678 4316 997 4588 
Q 1316 4863 1984 4863 
L 2841 4863 
z
" transform="scale(0.015625)"/>
     </defs>
     <use xlink:href="#DejaVuSans-Bold-27"/>
     <use xlink:href="#DejaVuSans-Bold-4c" transform="translate(83.015625 0)"/>
     <use xlink:href="#DejaVuSans-Bold-13aa" transform="translate(117.296875 0)"/>
     <use xlink:href="#DejaVuSans-Bold-58" transform="translate(198.296875 0)"/>
     <use xlink:href="#DejaVuSans-Bold-56" transform="translate(269.484375 0)"/>
     <use xlink:href="#DejaVuSans-Bold-4c" transform="translate(329 0)"/>
     <use xlink:href="#DejaVuSans-Bold-52" transform="translate(363.28125 0)"/>
     <use xlink:href="#DejaVuSans-Bold-51" transform="translate(431.984375 0)"/>
     <use xlink:href="#DejaVuSans-Bold-3" transform="translate(503.171875 0)"/>
     <use xlink:href="#DejaVuSans-Bold-50" transform="translate(537.984375 0)"/>
     <use xlink:href="#DejaVuSans-Bold-44" transform="translate(642.1875 0)"/>
     <use xlink:href="#DejaVuSans-Bold-53" transform="translate(709.671875 0)"/>
     <use xlink:href="#DejaVuSans-Bold-56" transform="translate(781.25 0)"/>
    </g>
   </g>
   <g id="text_11">
    <!-- Where this chapter's five methods sit -->
    <g style="fill: #1e293b" transform="translate(134.060156 20.52) scale(0.125 -0.125)">
     <defs>
      <path id="DejaVuSans-Bold-a" d="M 1350 4666 
L 1350 2931 
L 609 2931 
L 609 4666 
L 1350 4666 
z
" transform="scale(0.015625)"/>
      <path id="DejaVuSans-Bold-13ab" d="M 3078 4863 
L 4206 4863 
L 4206 3950 
L 3078 3950 
L 3078 4863 
z
M 2847 4863 
L 2847 4128 
L 2228 4128 
Q 1994 4128 1903 4042 
Q 1813 3956 1813 3744 
L 1813 3500 
L 4206 3500 
L 4206 0 
L 3078 0 
L 3078 2700 
L 1813 2700 
L 1813 0 
L 684 0 
L 684 2700 
L 134 2700 
L 134 3500 
L 684 3500 
L 684 3744 
Q 684 4316 1003 4589 
Q 1322 4863 1991 4863 
L 2847 4863 
z
" transform="scale(0.015625)"/>
      <path id="DejaVuSans-Bold-59" d="M 97 3500 
L 1216 3500 
L 2088 1081 
L 2956 3500 
L 4078 3500 
L 2700 0 
L 1472 0 
L 97 3500 
z
" transform="scale(0.015625)"/>
     </defs>
     <use xlink:href="#DejaVuSans-Bold-3a"/>
     <use xlink:href="#DejaVuSans-Bold-4b" transform="translate(110.296875 0)"/>
     <use xlink:href="#DejaVuSans-Bold-48" transform="translate(181.484375 0)"/>
     <use xlink:href="#DejaVuSans-Bold-55" transform="translate(249.3125 0)"/>
     <use xlink:href="#DejaVuSans-Bold-48" transform="translate(298.625 0)"/>
     <use xlink:href="#DejaVuSans-Bold-3" transform="translate(366.453125 0)"/>
     <use xlink:href="#DejaVuSans-Bold-57" transform="translate(401.265625 0)"/>
     <use xlink:href="#DejaVuSans-Bold-4b" transform="translate(449.0625 0)"/>
     <use xlink:href="#DejaVuSans-Bold-4c" transform="translate(520.25 0)"/>
     <use xlink:href="#DejaVuSans-Bold-56" transform="translate(554.53125 0)"/>
     <use xlink:href="#DejaVuSans-Bold-3" transform="translate(614.046875 0)"/>
     <use xlink:href="#DejaVuSans-Bold-46" transform="translate(648.859375 0)"/>
     <use xlink:href="#DejaVuSans-Bold-4b" transform="translate(708.140625 0)"/>
     <use xlink:href="#DejaVuSans-Bold-44" transform="translate(779.328125 0)"/>
     <use xlink:href="#DejaVuSans-Bold-53" transform="translate(846.8125 0)"/>
     <use xlink:href="#DejaVuSans-Bold-57" transform="translate(918.390625 0)"/>
     <use xlink:href="#DejaVuSans-Bold-48" transform="translate(966.1875 0)"/>
     <use xlink:href="#DejaVuSans-Bold-55" transform="translate(1034.015625 0)"/>
     <use xlink:href="#DejaVuSans-Bold-a" transform="translate(1083.328125 0)"/>
     <use xlink:href="#DejaVuSans-Bold-56" transform="translate(1113.9375 0)"/>
     <use xlink:href="#DejaVuSans-Bold-3" transform="translate(1173.453125 0)"/>
     <use xlink:href="#DejaVuSans-Bold-13ab" transform="translate(1208.265625 0)"/>
     <use xlink:href="#DejaVuSans-Bold-59" transform="translate(1282.390625 0)"/>
     <use xlink:href="#DejaVuSans-Bold-48" transform="translate(1347.578125 0)"/>
     <use xlink:href="#DejaVuSans-Bold-3" transform="translate(1415.40625 0)"/>
     <use xlink:href="#DejaVuSans-Bold-50" transform="translate(1450.21875 0)"/>
     <use xlink:href="#DejaVuSans-Bold-48" transform="translate(1554.421875 0)"/>
     <use xlink:href="#DejaVuSans-Bold-57" transform="translate(1622.25 0)"/>
     <use xlink:href="#DejaVuSans-Bold-4b" transform="translate(1670.046875 0)"/>
     <use xlink:href="#DejaVuSans-Bold-52" transform="translate(1741.234375 0)"/>
     <use xlink:href="#DejaVuSans-Bold-47" transform="translate(1809.9375 0)"/>
     <use xlink:href="#DejaVuSans-Bold-56" transform="translate(1881.515625 0)"/>
     <use xlink:href="#DejaVuSans-Bold-3" transform="translate(1941.03125 0)"/>
     <use xlink:href="#DejaVuSans-Bold-56" transform="translate(1975.84375 0)"/>
     <use xlink:href="#DejaVuSans-Bold-4c" transform="translate(2035.359375 0)"/>
     <use xlink:href="#DejaVuSans-Bold-57" transform="translate(2069.640625 0)"/>
    </g>
   </g>
  </g>
 </g>
 <defs>
  <clipPath id="p48c0fd12b7">
   <rect x="73.06" y="34.52" width="386.68" height="386.68"/>
  </clipPath>
 </defs>
</svg>
