<?xml version="1.0" encoding="utf-8" standalone="no"?>
<!DOCTYPE svg PUBLIC "-//W3C//DTD SVG 1.1//EN"
  "http://www.w3.org/Graphics/SVG/1.1/DTD/svg11.dtd">
<svg xmlns:xlink="http://www.w3.org/1999/xlink" width="430.768957pt" height="367.201562pt" viewBox="0 0 430.768957 367.201562" xmlns="http://www.w3.org/2000/svg" version="1.1">
 <metadata>
  <rdf:RDF xmlns:dc="http://purl.org/dc/elements/1.1/" xmlns:cc="http://creativecommons.org/ns#" xmlns:rdf="http://www.w3.org/1999/02/22-rdf-syntax-ns#">
   <cc:Work>
    <dc:type rdf:resource="http://purl.org/dc/dcmitype/StillImage"/>
    <dc:date>2026-07-12T06:40:10.968636</dc:date>
    <dc:format>image/svg+xml</dc:format>
    <dc:creator>
     <cc:Agent>
      <dc:title>Matplotlib v3.11.0, https://matplotlib.org/</dc:title>
     </cc:Agent>
    </dc:creator>
   </cc:Work>
  </rdf:RDF>
 </metadata>
 <defs>
  <style type="text/css">*{stroke-linejoin: round; stroke-linecap: butt}</style>
 </defs>
 <g id="figure_1">
  <g id="patch_1">
   <path d="M -0 367.201562 
L 430.768957 367.201562 
L 430.768957 0 
L -0 0 
z
" style="fill: #ffffff"/>
  </g>
  <g id="axes_1">
   <g id="patch_2">
    <path d="M 136.646689 205.338047 
C 152.307818 205.338047 167.329617 199.115815 178.403708 188.041724 
C 189.477798 176.967633 195.700031 161.945834 195.700031 146.284705 
C 195.700031 130.623576 189.477798 115.601777 178.403708 104.527686 
C 167.329617 93.453595 152.307818 87.231363 136.646689 87.231363 
C 120.985559 87.231363 105.963761 93.453595 94.88967 104.527686 
C 83.815579 115.601777 77.593347 130.623576 77.593347 146.284705 
C 77.593347 161.945834 83.815579 176.967633 94.88967 188.041724 
C 105.963761 199.115815 120.985559 205.338047 136.646689 205.338047 
z
" clip-path="url(#p0ba1025bcb)" style="fill: #0369a1; opacity: 0.15; stroke: #0369a1; stroke-width: 1.8; stroke-linejoin: miter"/>
   </g>
   <g id="patch_3">
    <path d="M 294.122268 205.338047 
C 309.783397 205.338047 324.805196 199.115815 335.879287 188.041724 
C 346.953378 176.967633 353.17561 161.945834 353.17561 146.284705 
C 353.17561 130.623576 346.953378 115.601777 335.879287 104.527686 
C 324.805196 93.453595 309.783397 87.231363 294.122268 87.231363 
C 278.461139 87.231363 263.43934 93.453595 252.365249 104.527686 
C 241.291158 115.601777 235.068926 130.623576 235.068926 146.284705 
C 235.068926 161.945834 241.291158 176.967633 252.365249 188.041724 
C 263.43934 199.115815 278.461139 205.338047 294.122268 205.338047 
z
" clip-path="url(#p0ba1025bcb)" style="fill: #ea580c; opacity: 0.15; stroke: #ea580c; stroke-width: 1.8; stroke-linejoin: miter"/>
   </g>
   <g id="patch_4">
    <path d="M 215.384478 334.692987 
C 231.045608 334.692987 246.067406 328.470755 257.141497 317.396664 
C 268.215588 306.322573 274.437821 291.300774 274.437821 275.639645 
C 274.437821 259.978516 268.215588 244.956717 257.141497 233.882626 
C 246.067406 222.808536 231.045608 216.586303 215.384478 216.586303 
C 199.723349 216.586303 184.70155 222.808536 173.62746 233.882626 
C 162.553369 244.956717 156.331136 259.978516 156.331136 275.639645 
C 156.331136 291.300774 162.553369 306.322573 173.62746 317.396664 
C 184.70155 328.470755 199.723349 334.692987 215.384478 334.692987 
z
" clip-path="url(#p0ba1025bcb)" style="fill: #059669; opacity: 0.15; stroke: #059669; stroke-width: 1.8; stroke-linejoin: miter"/>
   </g>
   <g id="PathCollection_1">
    <defs>
     <path id="m49a2675f39" d="M 0 4.1833 
C 1.109424 4.1833 2.173559 3.742521 2.95804 2.95804 
C 3.742521 2.173559 4.1833 1.109424 4.1833 0 
C 4.1833 -1.109424 3.742521 -2.173559 2.95804 -2.95804 
C 2.173559 -3.742521 1.109424 -4.1833 0 -4.1833 
C -1.109424 -4.1833 -2.173559 -3.742521 -2.95804 -2.95804 
C -3.742521 -2.173559 -4.1833 -1.109424 -4.1833 0 
C -4.1833 1.109424 -3.742521 2.173559 -2.95804 2.95804 
C -2.173559 3.742521 -1.109424 4.1833 0 4.1833 
z
" style="stroke: #0369a1"/>
    </defs>
    <g clip-path="url(#p0ba1025bcb)">
     <use xlink:href="#m49a2675f39" x="136.646689" y="146.284705" style="fill: #0369a1; stroke: #0369a1"/>
    </g>
   </g>
   <g id="text_1">
    <!-- Archetype 1 -->
    <g style="fill: #0369a1" transform="translate(7.2 148.75285) scale(0.095 -0.095)">
     <defs>
      <path id="DejaVuSans-Bold-24" d="M 3419 850 
L 1538 850 
L 1241 0 
L 31 0 
L 1759 4666 
L 3194 4666 
L 4922 0 
L 3713 0 
L 3419 850 
z
M 1838 1716 
L 3116 1716 
L 2478 3572 
L 1838 1716 
z
" transform="scale(0.015625)"/>
      <path id="DejaVuSans-Bold-55" d="M 3138 2547 
Q 2991 2616 2845 2648 
Q 2700 2681 2553 2681 
Q 2122 2681 1889 2404 
Q 1656 2128 1656 1613 
L 1656 0 
L 538 0 
L 538 3500 
L 1656 3500 
L 1656 2925 
Q 1872 3269 2151 3426 
Q 2431 3584 2822 3584 
Q 2878 3584 2943 3579 
Q 3009 3575 3134 3559 
L 3138 2547 
z
" transform="scale(0.015625)"/>
      <path id="DejaVuSans-Bold-46" d="M 3366 3391 
L 3366 2478 
Q 3138 2634 2908 2709 
Q 2678 2784 2431 2784 
Q 1963 2784 1702 2511 
Q 1441 2238 1441 1747 
Q 1441 1256 1702 982 
Q 1963 709 2431 709 
Q 2694 709 2930 787 
Q 3166 866 3366 1019 
L 3366 103 
Q 3103 6 2833 -42 
Q 2563 -91 2291 -91 
Q 1344 -91 809 395 
Q 275 881 275 1747 
Q 275 2613 809 3098 
Q 1344 3584 2291 3584 
Q 2566 3584 2833 3536 
Q 3100 3488 3366 3391 
z
" transform="scale(0.015625)"/>
      <path id="DejaVuSans-Bold-4b" d="M 4056 2131 
L 4056 0 
L 2931 0 
L 2931 347 
L 2931 1625 
Q 2931 2084 2911 2256 
Q 2891 2428 2841 2509 
Q 2775 2619 2662 2680 
Q 2550 2741 2406 2741 
Q 2056 2741 1856 2470 
Q 1656 2200 1656 1722 
L 1656 0 
L 538 0 
L 538 4863 
L 1656 4863 
L 1656 2988 
Q 1909 3294 2193 3439 
Q 2478 3584 2822 3584 
Q 3428 3584 3742 3212 
Q 4056 2841 4056 2131 
z
" transform="scale(0.015625)"/>
      <path id="DejaVuSans-Bold-48" d="M 4031 1759 
L 4031 1441 
L 1416 1441 
Q 1456 1047 1700 850 
Q 1944 653 2381 653 
Q 2734 653 3104 758 
Q 3475 863 3866 1075 
L 3866 213 
Q 3469 63 3072 -14 
Q 2675 -91 2278 -91 
Q 1328 -91 801 392 
Q 275 875 275 1747 
Q 275 2603 792 3093 
Q 1309 3584 2216 3584 
Q 3041 3584 3536 3087 
Q 4031 2591 4031 1759 
z
M 2881 2131 
Q 2881 2450 2695 2645 
Q 2509 2841 2209 2841 
Q 1884 2841 1681 2658 
Q 1478 2475 1428 2131 
L 2881 2131 
z
" transform="scale(0.015625)"/>
      <path id="DejaVuSans-Bold-57" d="M 1759 4494 
L 1759 3500 
L 2913 3500 
L 2913 2700 
L 1759 2700 
L 1759 1216 
Q 1759 972 1856 886 
Q 1953 800 2241 800 
L 2816 800 
L 2816 0 
L 1856 0 
Q 1194 0 917 276 
Q 641 553 641 1216 
L 641 2700 
L 84 2700 
L 84 3500 
L 641 3500 
L 641 4494 
L 1759 4494 
z
" transform="scale(0.015625)"/>
      <path id="DejaVuSans-Bold-5c" d="M 78 3500 
L 1197 3500 
L 2138 1125 
L 2938 3500 
L 4056 3500 
L 2584 -331 
Q 2363 -916 2067 -1148 
Q 1772 -1381 1288 -1381 
L 641 -1381 
L 641 -647 
L 991 -647 
Q 1275 -647 1404 -556 
Q 1534 -466 1606 -231 
L 1638 -134 
L 78 3500 
z
" transform="scale(0.015625)"/>
      <path id="DejaVuSans-Bold-53" d="M 1656 506 
L 1656 -1331 
L 538 -1331 
L 538 3500 
L 1656 3500 
L 1656 2988 
Q 1888 3294 2169 3439 
Q 2450 3584 2816 3584 
Q 3463 3584 3878 3070 
Q 4294 2556 4294 1747 
Q 4294 938 3878 423 
Q 3463 -91 2816 -91 
Q 2450 -91 2169 54 
Q 1888 200 1656 506 
z
M 2400 2772 
Q 2041 2772 1848 2508 
Q 1656 2244 1656 1747 
Q 1656 1250 1848 986 
Q 2041 722 2400 722 
Q 2759 722 2948 984 
Q 3138 1247 3138 1747 
Q 3138 2247 2948 2509 
Q 2759 2772 2400 2772 
z
" transform="scale(0.015625)"/>
      <path id="DejaVuSans-Bold-3" transform="scale(0.015625)"/>
      <path id="DejaVuSans-Bold-14" d="M 750 831 
L 1813 831 
L 1813 3847 
L 722 3622 
L 722 4441 
L 1806 4666 
L 2950 4666 
L 2950 831 
L 4013 831 
L 4013 0 
L 750 0 
L 750 831 
z
" transform="scale(0.015625)"/>
     </defs>
     <use xlink:href="#DejaVuSans-Bold-24"/>
     <use xlink:href="#DejaVuSans-Bold-55" transform="translate(77.390625 0)"/>
     <use xlink:href="#DejaVuSans-Bold-46" transform="translate(126.703125 0)"/>
     <use xlink:href="#DejaVuSans-Bold-4b" transform="translate(185.984375 0)"/>
     <use xlink:href="#DejaVuSans-Bold-48" transform="translate(257.171875 0)"/>
     <use xlink:href="#DejaVuSans-Bold-57" transform="translate(325 0)"/>
     <use xlink:href="#DejaVuSans-Bold-5c" transform="translate(372.796875 0)"/>
     <use xlink:href="#DejaVuSans-Bold-53" transform="translate(437.984375 0)"/>
     <use xlink:href="#DejaVuSans-Bold-48" transform="translate(509.5625 0)"/>
     <use xlink:href="#DejaVuSans-Bold-3" transform="translate(577.390625 0)"/>
     <use xlink:href="#DejaVuSans-Bold-14" transform="translate(612.203125 0)"/>
    </g>
   </g>
   <g id="PathCollection_2">
    <defs>
     <path id="m2f7bfec047" d="M 0 4.1833 
C 1.109424 4.1833 2.173559 3.742521 2.95804 2.95804 
C 3.742521 2.173559 4.1833 1.109424 4.1833 0 
C 4.1833 -1.109424 3.742521 -2.173559 2.95804 -2.95804 
C 2.173559 -3.742521 1.109424 -4.1833 0 -4.1833 
C -1.109424 -4.1833 -2.173559 -3.742521 -2.95804 -2.95804 
C -3.742521 -2.173559 -4.1833 -1.109424 -4.1833 0 
C -4.1833 1.109424 -3.742521 2.173559 -2.95804 2.95804 
C -2.173559 3.742521 -1.109424 4.1833 0 4.1833 
z
" style="stroke: #ea580c"/>
    </defs>
    <g clip-path="url(#p0ba1025bcb)">
     <use xlink:href="#m2f7bfec047" x="294.122268" y="146.284705" style="fill: #ea580c; stroke: #ea580c"/>
    </g>
   </g>
   <g id="text_2">
    <!-- Archetype 2 -->
    <g style="fill: #ea580c" transform="translate(358.799738 148.75285) scale(0.095 -0.095)">
     <defs>
      <path id="DejaVuSans-Bold-15" d="M 1844 884 
L 3897 884 
L 3897 0 
L 506 0 
L 506 884 
L 2209 2388 
Q 2438 2594 2547 2791 
Q 2656 2988 2656 3200 
Q 2656 3528 2436 3728 
Q 2216 3928 1850 3928 
Q 1569 3928 1234 3808 
Q 900 3688 519 3450 
L 519 4475 
Q 925 4609 1322 4679 
Q 1719 4750 2100 4750 
Q 2938 4750 3402 4381 
Q 3866 4013 3866 3353 
Q 3866 2972 3669 2642 
Q 3472 2313 2841 1759 
L 1844 884 
z
" transform="scale(0.015625)"/>
     </defs>
     <use xlink:href="#DejaVuSans-Bold-24"/>
     <use xlink:href="#DejaVuSans-Bold-55" transform="translate(77.390625 0)"/>
     <use xlink:href="#DejaVuSans-Bold-46" transform="translate(126.703125 0)"/>
     <use xlink:href="#DejaVuSans-Bold-4b" transform="translate(185.984375 0)"/>
     <use xlink:href="#DejaVuSans-Bold-48" transform="translate(257.171875 0)"/>
     <use xlink:href="#DejaVuSans-Bold-57" transform="translate(325 0)"/>
     <use xlink:href="#DejaVuSans-Bold-5c" transform="translate(372.796875 0)"/>
     <use xlink:href="#DejaVuSans-Bold-53" transform="translate(437.984375 0)"/>
     <use xlink:href="#DejaVuSans-Bold-48" transform="translate(509.5625 0)"/>
     <use xlink:href="#DejaVuSans-Bold-3" transform="translate(577.390625 0)"/>
     <use xlink:href="#DejaVuSans-Bold-15" transform="translate(612.203125 0)"/>
    </g>
   </g>
   <g id="PathCollection_3">
    <defs>
     <path id="mc92f7d47f8" d="M 0 4.1833 
C 1.109424 4.1833 2.173559 3.742521 2.95804 2.95804 
C 3.742521 2.173559 4.1833 1.109424 4.1833 0 
C 4.1833 -1.109424 3.742521 -2.173559 2.95804 -2.95804 
C 2.173559 -3.742521 1.109424 -4.1833 0 -4.1833 
C -1.109424 -4.1833 -2.173559 -3.742521 -2.95804 -2.95804 
C -3.742521 -2.173559 -4.1833 -1.109424 -4.1833 0 
C -4.1833 1.109424 -3.742521 2.173559 -2.95804 2.95804 
C -2.173559 3.742521 -1.109424 4.1833 0 4.1833 
z
" style="stroke: #059669"/>
    </defs>
    <g clip-path="url(#p0ba1025bcb)">
     <use xlink:href="#mc92f7d47f8" x="215.384478" y="275.639645" style="fill: #059669; stroke: #059669"/>
    </g>
   </g>
   <g id="text_3">
    <!-- Archetype 3 -->
    <g style="fill: #059669" transform="translate(182.999869 351.221451) scale(0.095 -0.095)">
     <defs>
      <path id="DejaVuSans-Bold-16" d="M 2981 2516 
Q 3453 2394 3698 2092 
Q 3944 1791 3944 1325 
Q 3944 631 3412 270 
Q 2881 -91 1863 -91 
Q 1503 -91 1142 -33 
Q 781 25 428 141 
L 428 1069 
Q 766 900 1098 814 
Q 1431 728 1753 728 
Q 2231 728 2486 893 
Q 2741 1059 2741 1369 
Q 2741 1688 2480 1852 
Q 2219 2016 1709 2016 
L 1228 2016 
L 1228 2791 
L 1734 2791 
Q 2188 2791 2409 2933 
Q 2631 3075 2631 3366 
Q 2631 3634 2415 3781 
Q 2200 3928 1806 3928 
Q 1516 3928 1219 3862 
Q 922 3797 628 3669 
L 628 4550 
Q 984 4650 1334 4700 
Q 1684 4750 2022 4750 
Q 2931 4750 3382 4451 
Q 3834 4153 3834 3553 
Q 3834 3144 3618 2883 
Q 3403 2622 2981 2516 
z
" transform="scale(0.015625)"/>
     </defs>
     <use xlink:href="#DejaVuSans-Bold-24"/>
     <use xlink:href="#DejaVuSans-Bold-55" transform="translate(77.390625 0)"/>
     <use xlink:href="#DejaVuSans-Bold-46" transform="translate(126.703125 0)"/>
     <use xlink:href="#DejaVuSans-Bold-4b" transform="translate(185.984375 0)"/>
     <use xlink:href="#DejaVuSans-Bold-48" transform="translate(257.171875 0)"/>
     <use xlink:href="#DejaVuSans-Bold-57" transform="translate(325 0)"/>
     <use xlink:href="#DejaVuSans-Bold-5c" transform="translate(372.796875 0)"/>
     <use xlink:href="#DejaVuSans-Bold-53" transform="translate(437.984375 0)"/>
     <use xlink:href="#DejaVuSans-Bold-48" transform="translate(509.5625 0)"/>
     <use xlink:href="#DejaVuSans-Bold-3" transform="translate(577.390625 0)"/>
     <use xlink:href="#DejaVuSans-Bold-16" transform="translate(612.203125 0)"/>
    </g>
   </g>
   <g id="text_4">
    <!-- Customer 1 -->
    <g style="fill: #6b7280" transform="translate(113.401064 73.781693) scale(0.08 -0.08)">
     <defs>
      <path id="DejaVuSans-26" d="M 4122 4306 
L 4122 3641 
Q 3803 3938 3442 4084 
Q 3081 4231 2675 4231 
Q 1875 4231 1450 3742 
Q 1025 3253 1025 2328 
Q 1025 1406 1450 917 
Q 1875 428 2675 428 
Q 3081 428 3442 575 
Q 3803 722 4122 1019 
L 4122 359 
Q 3791 134 3420 21 
Q 3050 -91 2638 -91 
Q 1578 -91 968 557 
Q 359 1206 359 2328 
Q 359 3453 968 4101 
Q 1578 4750 2638 4750 
Q 3056 4750 3426 4639 
Q 3797 4528 4122 4306 
z
" transform="scale(0.015625)"/>
      <path id="DejaVuSans-58" d="M 544 1381 
L 544 3500 
L 1119 3500 
L 1119 1403 
Q 1119 906 1312 657 
Q 1506 409 1894 409 
Q 2359 409 2629 706 
Q 2900 1003 2900 1516 
L 2900 3500 
L 3475 3500 
L 3475 0 
L 2900 0 
L 2900 538 
Q 2691 219 2414 64 
Q 2138 -91 1772 -91 
Q 1169 -91 856 284 
Q 544 659 544 1381 
z
M 1991 3584 
L 1991 3584 
z
" transform="scale(0.015625)"/>
      <path id="DejaVuSans-56" d="M 2834 3397 
L 2834 2853 
Q 2591 2978 2328 3040 
Q 2066 3103 1784 3103 
Q 1356 3103 1142 2972 
Q 928 2841 928 2578 
Q 928 2378 1081 2264 
Q 1234 2150 1697 2047 
L 1894 2003 
Q 2506 1872 2764 1633 
Q 3022 1394 3022 966 
Q 3022 478 2636 193 
Q 2250 -91 1575 -91 
Q 1294 -91 989 -36 
Q 684 19 347 128 
L 347 722 
Q 666 556 975 473 
Q 1284 391 1588 391 
Q 1994 391 2212 530 
Q 2431 669 2431 922 
Q 2431 1156 2273 1281 
Q 2116 1406 1581 1522 
L 1381 1569 
Q 847 1681 609 1914 
Q 372 2147 372 2553 
Q 372 3047 722 3315 
Q 1072 3584 1716 3584 
Q 2034 3584 2315 3537 
Q 2597 3491 2834 3397 
z
" transform="scale(0.015625)"/>
      <path id="DejaVuSans-57" d="M 1172 4494 
L 1172 3500 
L 2356 3500 
L 2356 3053 
L 1172 3053 
L 1172 1153 
Q 1172 725 1289 603 
Q 1406 481 1766 481 
L 2356 481 
L 2356 0 
L 1766 0 
Q 1100 0 847 248 
Q 594 497 594 1153 
L 594 3053 
L 172 3053 
L 172 3500 
L 594 3500 
L 594 4494 
L 1172 4494 
z
" transform="scale(0.015625)"/>
      <path id="DejaVuSans-52" d="M 1959 3097 
Q 1497 3097 1228 2736 
Q 959 2375 959 1747 
Q 959 1119 1226 758 
Q 1494 397 1959 397 
Q 2419 397 2687 759 
Q 2956 1122 2956 1747 
Q 2956 2369 2687 2733 
Q 2419 3097 1959 3097 
z
M 1959 3584 
Q 2709 3584 3137 3096 
Q 3566 2609 3566 1747 
Q 3566 888 3137 398 
Q 2709 -91 1959 -91 
Q 1206 -91 779 398 
Q 353 888 353 1747 
Q 353 2609 779 3096 
Q 1206 3584 1959 3584 
z
" transform="scale(0.015625)"/>
      <path id="DejaVuSans-50" d="M 3328 2828 
Q 3544 3216 3844 3400 
Q 4144 3584 4550 3584 
Q 5097 3584 5394 3201 
Q 5691 2819 5691 2113 
L 5691 0 
L 5113 0 
L 5113 2094 
Q 5113 2597 4934 2840 
Q 4756 3084 4391 3084 
Q 3944 3084 3684 2787 
Q 3425 2491 3425 1978 
L 3425 0 
L 2847 0 
L 2847 2094 
Q 2847 2600 2669 2842 
Q 2491 3084 2119 3084 
Q 1678 3084 1418 2786 
Q 1159 2488 1159 1978 
L 1159 0 
L 581 0 
L 581 3500 
L 1159 3500 
L 1159 2956 
Q 1356 3278 1631 3431 
Q 1906 3584 2284 3584 
Q 2666 3584 2933 3390 
Q 3200 3197 3328 2828 
z
" transform="scale(0.015625)"/>
      <path id="DejaVuSans-48" d="M 3597 1894 
L 3597 1613 
L 953 1613 
Q 991 1019 1311 708 
Q 1631 397 2203 397 
Q 2534 397 2845 478 
Q 3156 559 3463 722 
L 3463 178 
Q 3153 47 2828 -22 
Q 2503 -91 2169 -91 
Q 1331 -91 842 396 
Q 353 884 353 1716 
Q 353 2575 817 3079 
Q 1281 3584 2069 3584 
Q 2775 3584 3186 3129 
Q 3597 2675 3597 1894 
z
M 3022 2063 
Q 3016 2534 2758 2815 
Q 2500 3097 2075 3097 
Q 1594 3097 1305 2825 
Q 1016 2553 972 2059 
L 3022 2063 
z
" transform="scale(0.015625)"/>
      <path id="DejaVuSans-55" d="M 2631 2963 
Q 2534 3019 2420 3045 
Q 2306 3072 2169 3072 
Q 1681 3072 1420 2755 
Q 1159 2438 1159 1844 
L 1159 0 
L 581 0 
L 581 3500 
L 1159 3500 
L 1159 2956 
Q 1341 3275 1631 3429 
Q 1922 3584 2338 3584 
Q 2397 3584 2469 3576 
Q 2541 3569 2628 3553 
L 2631 2963 
z
" transform="scale(0.015625)"/>
      <path id="DejaVuSans-3" transform="scale(0.015625)"/>
      <path id="DejaVuSans-14" d="M 794 531 
L 1825 531 
L 1825 4091 
L 703 3866 
L 703 4441 
L 1819 4666 
L 2450 4666 
L 2450 531 
L 3481 531 
L 3481 0 
L 794 0 
L 794 531 
z
" transform="scale(0.015625)"/>
     </defs>
     <use xlink:href="#DejaVuSans-26"/>
     <use xlink:href="#DejaVuSans-58" transform="translate(69.828125 0)"/>
     <use xlink:href="#DejaVuSans-56" transform="translate(133.203125 0)"/>
     <use xlink:href="#DejaVuSans-57" transform="translate(185.296875 0)"/>
     <use xlink:href="#DejaVuSans-52" transform="translate(224.5 0)"/>
     <use xlink:href="#DejaVuSans-50" transform="translate(285.6875 0)"/>
     <use xlink:href="#DejaVuSans-48" transform="translate(383.09375 0)"/>
     <use xlink:href="#DejaVuSans-55" transform="translate(444.625 0)"/>
     <use xlink:href="#DejaVuSans-3" transform="translate(485.734375 0)"/>
     <use xlink:href="#DejaVuSans-14" transform="translate(517.515625 0)"/>
    </g>
    <!-- confident: {1} -->
    <g style="fill: #6b7280" transform="translate(107.587939 83.383881) scale(0.08 -0.08)">
     <defs>
      <path id="DejaVuSans-46" d="M 3122 3366 
L 3122 2828 
Q 2878 2963 2633 3030 
Q 2388 3097 2138 3097 
Q 1578 3097 1268 2742 
Q 959 2388 959 1747 
Q 959 1106 1268 751 
Q 1578 397 2138 397 
Q 2388 397 2633 464 
Q 2878 531 3122 666 
L 3122 134 
Q 2881 22 2623 -34 
Q 2366 -91 2075 -91 
Q 1284 -91 818 406 
Q 353 903 353 1747 
Q 353 2603 823 3093 
Q 1294 3584 2113 3584 
Q 2378 3584 2631 3529 
Q 2884 3475 3122 3366 
z
" transform="scale(0.015625)"/>
      <path id="DejaVuSans-51" d="M 3513 2113 
L 3513 0 
L 2938 0 
L 2938 2094 
Q 2938 2591 2744 2837 
Q 2550 3084 2163 3084 
Q 1697 3084 1428 2787 
Q 1159 2491 1159 1978 
L 1159 0 
L 581 0 
L 581 3500 
L 1159 3500 
L 1159 2956 
Q 1366 3272 1645 3428 
Q 1925 3584 2291 3584 
Q 2894 3584 3203 3211 
Q 3513 2838 3513 2113 
z
" transform="scale(0.015625)"/>
      <path id="DejaVuSans-13af" d="M 3431 3500 
L 3431 0 
L 2853 0 
L 2853 3053 
L 1275 3053 
L 1275 0 
L 697 0 
L 697 3053 
L 147 3053 
L 147 3500 
L 697 3500 
L 697 3744 
Q 697 4316 967 4589 
Q 1238 4863 1797 4863 
L 2375 4863 
L 2375 4384 
L 1825 4384 
Q 1516 4384 1395 4259 
Q 1275 4134 1275 3809 
L 1275 3500 
L 3431 3500 
z
M 2853 4856 
L 3431 4856 
L 3431 4128 
L 2853 4128 
L 2853 4856 
z
" transform="scale(0.015625)"/>
      <path id="DejaVuSans-47" d="M 2906 2969 
L 2906 4863 
L 3481 4863 
L 3481 0 
L 2906 0 
L 2906 525 
Q 2725 213 2448 61 
Q 2172 -91 1784 -91 
Q 1150 -91 751 415 
Q 353 922 353 1747 
Q 353 2572 751 3078 
Q 1150 3584 1784 3584 
Q 2172 3584 2448 3432 
Q 2725 3281 2906 2969 
z
M 947 1747 
Q 947 1113 1208 752 
Q 1469 391 1925 391 
Q 2381 391 2643 752 
Q 2906 1113 2906 1747 
Q 2906 2381 2643 2742 
Q 2381 3103 1925 3103 
Q 1469 3103 1208 2742 
Q 947 2381 947 1747 
z
" transform="scale(0.015625)"/>
      <path id="DejaVuSans-1d" d="M 750 794 
L 1409 794 
L 1409 0 
L 750 0 
L 750 794 
z
M 750 3309 
L 1409 3309 
L 1409 2516 
L 750 2516 
L 750 3309 
z
" transform="scale(0.015625)"/>
      <path id="DejaVuSans-5e" d="M 3272 -594 
L 3272 -1044 
L 3078 -1044 
Q 2300 -1044 2036 -812 
Q 1772 -581 1772 109 
L 1772 856 
Q 1772 1328 1603 1509 
Q 1434 1691 991 1691 
L 800 1691 
L 800 2138 
L 991 2138 
Q 1438 2138 1605 2317 
Q 1772 2497 1772 2963 
L 1772 3713 
Q 1772 4403 2036 4633 
Q 2300 4863 3078 4863 
L 3272 4863 
L 3272 4416 
L 3059 4416 
Q 2619 4416 2484 4278 
Q 2350 4141 2350 3700 
L 2350 2925 
Q 2350 2434 2208 2212 
Q 2066 1991 1722 1913 
Q 2069 1828 2209 1606 
Q 2350 1384 2350 897 
L 2350 122 
Q 2350 -319 2484 -456 
Q 2619 -594 3059 -594 
L 3272 -594 
z
" transform="scale(0.015625)"/>
      <path id="DejaVuSans-60" d="M 800 -594 
L 1019 -594 
Q 1456 -594 1589 -459 
Q 1722 -325 1722 122 
L 1722 897 
Q 1722 1384 1862 1606 
Q 2003 1828 2350 1913 
Q 2003 1991 1862 2212 
Q 1722 2434 1722 2925 
L 1722 3700 
Q 1722 4144 1589 4280 
Q 1456 4416 1019 4416 
L 800 4416 
L 800 4863 
L 997 4863 
Q 1775 4863 2036 4633 
Q 2297 4403 2297 3713 
L 2297 2963 
Q 2297 2497 2465 2317 
Q 2634 2138 3078 2138 
L 3272 2138 
L 3272 1691 
L 3078 1691 
Q 2634 1691 2465 1509 
Q 2297 1328 2297 856 
L 2297 109 
Q 2297 -581 2036 -812 
Q 1775 -1044 997 -1044 
L 800 -1044 
L 800 -594 
z
" transform="scale(0.015625)"/>
     </defs>
     <use xlink:href="#DejaVuSans-46"/>
     <use xlink:href="#DejaVuSans-52" transform="translate(54.984375 0)"/>
     <use xlink:href="#DejaVuSans-51" transform="translate(116.171875 0)"/>
     <use xlink:href="#DejaVuSans-13af" transform="translate(179.546875 0)"/>
     <use xlink:href="#DejaVuSans-47" transform="translate(242.53125 0)"/>
     <use xlink:href="#DejaVuSans-48" transform="translate(306.015625 0)"/>
     <use xlink:href="#DejaVuSans-51" transform="translate(367.546875 0)"/>
     <use xlink:href="#DejaVuSans-57" transform="translate(430.921875 0)"/>
     <use xlink:href="#DejaVuSans-1d" transform="translate(470.125 0)"/>
     <use xlink:href="#DejaVuSans-3" transform="translate(503.8125 0)"/>
     <use xlink:href="#DejaVuSans-5e" transform="translate(535.59375 0)"/>
     <use xlink:href="#DejaVuSans-14" transform="translate(599.21875 0)"/>
     <use xlink:href="#DejaVuSans-60" transform="translate(662.84375 0)"/>
    </g>
   </g>
   <g id="text_5">
    <!-- Customer 2 -->
    <g style="fill: #6b7280" transform="translate(192.138853 115.962652) scale(0.08 -0.08)">
     <defs>
      <path id="DejaVuSans-15" d="M 1228 531 
L 3431 531 
L 3431 0 
L 469 0 
L 469 531 
Q 828 903 1448 1529 
Q 2069 2156 2228 2338 
Q 2531 2678 2651 2914 
Q 2772 3150 2772 3378 
Q 2772 3750 2511 3984 
Q 2250 4219 1831 4219 
Q 1534 4219 1204 4116 
Q 875 4013 500 3803 
L 500 4441 
Q 881 4594 1212 4672 
Q 1544 4750 1819 4750 
Q 2544 4750 2975 4387 
Q 3406 4025 3406 3419 
Q 3406 3131 3298 2873 
Q 3191 2616 2906 2266 
Q 2828 2175 2409 1742 
Q 1991 1309 1228 531 
z
" transform="scale(0.015625)"/>
     </defs>
     <use xlink:href="#DejaVuSans-26"/>
     <use xlink:href="#DejaVuSans-58" transform="translate(69.828125 0)"/>
     <use xlink:href="#DejaVuSans-56" transform="translate(133.203125 0)"/>
     <use xlink:href="#DejaVuSans-57" transform="translate(185.296875 0)"/>
     <use xlink:href="#DejaVuSans-52" transform="translate(224.5 0)"/>
     <use xlink:href="#DejaVuSans-50" transform="translate(285.6875 0)"/>
     <use xlink:href="#DejaVuSans-48" transform="translate(383.09375 0)"/>
     <use xlink:href="#DejaVuSans-55" transform="translate(444.625 0)"/>
     <use xlink:href="#DejaVuSans-3" transform="translate(485.734375 0)"/>
     <use xlink:href="#DejaVuSans-15" transform="translate(517.515625 0)"/>
    </g>
    <!-- ambiguous: {1, 2} -->
    <g style="fill: #6b7280" transform="translate(177.904478 125.56484) scale(0.08 -0.08)">
     <defs>
      <path id="DejaVuSans-44" d="M 2194 1759 
Q 1497 1759 1228 1600 
Q 959 1441 959 1056 
Q 959 750 1161 570 
Q 1363 391 1709 391 
Q 2188 391 2477 730 
Q 2766 1069 2766 1631 
L 2766 1759 
L 2194 1759 
z
M 3341 1997 
L 3341 0 
L 2766 0 
L 2766 531 
Q 2569 213 2275 61 
Q 1981 -91 1556 -91 
Q 1019 -91 701 211 
Q 384 513 384 1019 
Q 384 1609 779 1909 
Q 1175 2209 1959 2209 
L 2766 2209 
L 2766 2266 
Q 2766 2663 2505 2880 
Q 2244 3097 1772 3097 
Q 1472 3097 1187 3025 
Q 903 2953 641 2809 
L 641 3341 
Q 956 3463 1253 3523 
Q 1550 3584 1831 3584 
Q 2591 3584 2966 3190 
Q 3341 2797 3341 1997 
z
" transform="scale(0.015625)"/>
      <path id="DejaVuSans-45" d="M 3116 1747 
Q 3116 2381 2855 2742 
Q 2594 3103 2138 3103 
Q 1681 3103 1420 2742 
Q 1159 2381 1159 1747 
Q 1159 1113 1420 752 
Q 1681 391 2138 391 
Q 2594 391 2855 752 
Q 3116 1113 3116 1747 
z
M 1159 2969 
Q 1341 3281 1617 3432 
Q 1894 3584 2278 3584 
Q 2916 3584 3314 3078 
Q 3713 2572 3713 1747 
Q 3713 922 3314 415 
Q 2916 -91 2278 -91 
Q 1894 -91 1617 61 
Q 1341 213 1159 525 
L 1159 0 
L 581 0 
L 581 4863 
L 1159 4863 
L 1159 2969 
z
" transform="scale(0.015625)"/>
      <path id="DejaVuSans-4c" d="M 603 3500 
L 1178 3500 
L 1178 0 
L 603 0 
L 603 3500 
z
M 603 4863 
L 1178 4863 
L 1178 4134 
L 603 4134 
L 603 4863 
z
" transform="scale(0.015625)"/>
      <path id="DejaVuSans-4a" d="M 2906 1791 
Q 2906 2416 2648 2759 
Q 2391 3103 1925 3103 
Q 1463 3103 1205 2759 
Q 947 2416 947 1791 
Q 947 1169 1205 825 
Q 1463 481 1925 481 
Q 2391 481 2648 825 
Q 2906 1169 2906 1791 
z
M 3481 434 
Q 3481 -459 3084 -895 
Q 2688 -1331 1869 -1331 
Q 1566 -1331 1297 -1286 
Q 1028 -1241 775 -1147 
L 775 -588 
Q 1028 -725 1275 -790 
Q 1522 -856 1778 -856 
Q 2344 -856 2625 -561 
Q 2906 -266 2906 331 
L 2906 616 
Q 2728 306 2450 153 
Q 2172 0 1784 0 
Q 1141 0 747 490 
Q 353 981 353 1791 
Q 353 2603 747 3093 
Q 1141 3584 1784 3584 
Q 2172 3584 2450 3431 
Q 2728 3278 2906 2969 
L 2906 3500 
L 3481 3500 
L 3481 434 
z
" transform="scale(0.015625)"/>
      <path id="DejaVuSans-f" d="M 750 794 
L 1409 794 
L 1409 256 
L 897 -744 
L 494 -744 
L 750 256 
L 750 794 
z
" transform="scale(0.015625)"/>
     </defs>
     <use xlink:href="#DejaVuSans-44"/>
     <use xlink:href="#DejaVuSans-50" transform="translate(61.28125 0)"/>
     <use xlink:href="#DejaVuSans-45" transform="translate(158.6875 0)"/>
     <use xlink:href="#DejaVuSans-4c" transform="translate(222.171875 0)"/>
     <use xlink:href="#DejaVuSans-4a" transform="translate(249.953125 0)"/>
     <use xlink:href="#DejaVuSans-58" transform="translate(313.4375 0)"/>
     <use xlink:href="#DejaVuSans-52" transform="translate(376.8125 0)"/>
     <use xlink:href="#DejaVuSans-58" transform="translate(438 0)"/>
     <use xlink:href="#DejaVuSans-56" transform="translate(501.375 0)"/>
     <use xlink:href="#DejaVuSans-1d" transform="translate(553.46875 0)"/>
     <use xlink:href="#DejaVuSans-3" transform="translate(587.15625 0)"/>
     <use xlink:href="#DejaVuSans-5e" transform="translate(618.9375 0)"/>
     <use xlink:href="#DejaVuSans-14" transform="translate(682.5625 0)"/>
     <use xlink:href="#DejaVuSans-f" transform="translate(746.1875 0)"/>
     <use xlink:href="#DejaVuSans-3" transform="translate(777.96875 0)"/>
     <use xlink:href="#DejaVuSans-15" transform="translate(809.75 0)"/>
     <use xlink:href="#DejaVuSans-60" transform="translate(873.375 0)"/>
    </g>
   </g>
   <g id="text_6">
    <!-- Customer 3 -->
    <g style="fill: #dc2626" transform="translate(332.742049 183.452186) scale(0.08 -0.08)">
     <defs>
      <path id="DejaVuSans-16" d="M 2597 2516 
Q 3050 2419 3304 2112 
Q 3559 1806 3559 1356 
Q 3559 666 3084 287 
Q 2609 -91 1734 -91 
Q 1441 -91 1130 -33 
Q 819 25 488 141 
L 488 750 
Q 750 597 1062 519 
Q 1375 441 1716 441 
Q 2309 441 2620 675 
Q 2931 909 2931 1356 
Q 2931 1769 2642 2001 
Q 2353 2234 1838 2234 
L 1294 2234 
L 1294 2753 
L 1863 2753 
Q 2328 2753 2575 2939 
Q 2822 3125 2822 3475 
Q 2822 3834 2567 4026 
Q 2313 4219 1838 4219 
Q 1578 4219 1281 4162 
Q 984 4106 628 3988 
L 628 4550 
Q 988 4650 1302 4700 
Q 1616 4750 1894 4750 
Q 2613 4750 3031 4423 
Q 3450 4097 3450 3541 
Q 3450 3153 3228 2886 
Q 3006 2619 2597 2516 
z
" transform="scale(0.015625)"/>
     </defs>
     <use xlink:href="#DejaVuSans-26"/>
     <use xlink:href="#DejaVuSans-58" transform="translate(69.828125 0)"/>
     <use xlink:href="#DejaVuSans-56" transform="translate(133.203125 0)"/>
     <use xlink:href="#DejaVuSans-57" transform="translate(185.296875 0)"/>
     <use xlink:href="#DejaVuSans-52" transform="translate(224.5 0)"/>
     <use xlink:href="#DejaVuSans-50" transform="translate(285.6875 0)"/>
     <use xlink:href="#DejaVuSans-48" transform="translate(383.09375 0)"/>
     <use xlink:href="#DejaVuSans-55" transform="translate(444.625 0)"/>
     <use xlink:href="#DejaVuSans-3" transform="translate(485.734375 0)"/>
     <use xlink:href="#DejaVuSans-16" transform="translate(517.515625 0)"/>
    </g>
    <!-- no match: {} -->
    <g style="fill: #dc2626" transform="translate(329.375174 193.054374) scale(0.08 -0.08)">
     <defs>
      <path id="DejaVuSans-4b" d="M 3513 2113 
L 3513 0 
L 2938 0 
L 2938 2094 
Q 2938 2591 2744 2837 
Q 2550 3084 2163 3084 
Q 1697 3084 1428 2787 
Q 1159 2491 1159 1978 
L 1159 0 
L 581 0 
L 581 4863 
L 1159 4863 
L 1159 2956 
Q 1366 3272 1645 3428 
Q 1925 3584 2291 3584 
Q 2894 3584 3203 3211 
Q 3513 2838 3513 2113 
z
" transform="scale(0.015625)"/>
     </defs>
     <use xlink:href="#DejaVuSans-51"/>
     <use xlink:href="#DejaVuSans-52" transform="translate(63.375 0)"/>
     <use xlink:href="#DejaVuSans-3" transform="translate(124.5625 0)"/>
     <use xlink:href="#DejaVuSans-50" transform="translate(156.34375 0)"/>
     <use xlink:href="#DejaVuSans-44" transform="translate(253.75 0)"/>
     <use xlink:href="#DejaVuSans-57" transform="translate(315.03125 0)"/>
     <use xlink:href="#DejaVuSans-46" transform="translate(354.234375 0)"/>
     <use xlink:href="#DejaVuSans-4b" transform="translate(409.21875 0)"/>
     <use xlink:href="#DejaVuSans-1d" transform="translate(472.59375 0)"/>
     <use xlink:href="#DejaVuSans-3" transform="translate(506.28125 0)"/>
     <use xlink:href="#DejaVuSans-5e" transform="translate(538.0625 0)"/>
     <use xlink:href="#DejaVuSans-60" transform="translate(601.6875 0)"/>
    </g>
   </g>
   <g id="text_7">
    <!-- Each circle's radius is the calibrated threshold -->
    <g style="fill: #1e293b" transform="translate(90.218762 15.799414) scale(0.1 -0.1)">
     <defs>
      <path id="DejaVuSans-Bold-28" d="M 588 4666 
L 3834 4666 
L 3834 3756 
L 1791 3756 
L 1791 2888 
L 3713 2888 
L 3713 1978 
L 1791 1978 
L 1791 909 
L 3903 909 
L 3903 0 
L 588 0 
L 588 4666 
z
" transform="scale(0.015625)"/>
      <path id="DejaVuSans-Bold-44" d="M 2106 1575 
Q 1756 1575 1579 1456 
Q 1403 1338 1403 1106 
Q 1403 894 1545 773 
Q 1688 653 1941 653 
Q 2256 653 2472 879 
Q 2688 1106 2688 1447 
L 2688 1575 
L 2106 1575 
z
M 3816 1997 
L 3816 0 
L 2688 0 
L 2688 519 
Q 2463 200 2181 54 
Q 1900 -91 1497 -91 
Q 953 -91 614 226 
Q 275 544 275 1050 
Q 275 1666 698 1953 
Q 1122 2241 2028 2241 
L 2688 2241 
L 2688 2328 
Q 2688 2594 2478 2717 
Q 2269 2841 1825 2841 
Q 1466 2841 1156 2769 
Q 847 2697 581 2553 
L 581 3406 
Q 941 3494 1303 3539 
Q 1666 3584 2028 3584 
Q 2975 3584 3395 3211 
Q 3816 2838 3816 1997 
z
" transform="scale(0.015625)"/>
      <path id="DejaVuSans-Bold-4c" d="M 538 3500 
L 1656 3500 
L 1656 0 
L 538 0 
L 538 3500 
z
M 538 4863 
L 1656 4863 
L 1656 3950 
L 538 3950 
L 538 4863 
z
" transform="scale(0.015625)"/>
      <path id="DejaVuSans-Bold-4f" d="M 538 4863 
L 1656 4863 
L 1656 0 
L 538 0 
L 538 4863 
z
" transform="scale(0.015625)"/>
      <path id="DejaVuSans-Bold-a" d="M 1350 4666 
L 1350 2931 
L 609 2931 
L 609 4666 
L 1350 4666 
z
" transform="scale(0.015625)"/>
      <path id="DejaVuSans-Bold-56" d="M 3272 3391 
L 3272 2541 
Q 2913 2691 2578 2766 
Q 2244 2841 1947 2841 
Q 1628 2841 1473 2761 
Q 1319 2681 1319 2516 
Q 1319 2381 1436 2309 
Q 1553 2238 1856 2203 
L 2053 2175 
Q 2913 2066 3209 1816 
Q 3506 1566 3506 1031 
Q 3506 472 3093 190 
Q 2681 -91 1863 -91 
Q 1516 -91 1145 -36 
Q 775 19 384 128 
L 384 978 
Q 719 816 1070 734 
Q 1422 653 1784 653 
Q 2113 653 2278 743 
Q 2444 834 2444 1013 
Q 2444 1163 2330 1236 
Q 2216 1309 1875 1350 
L 1678 1375 
Q 931 1469 631 1722 
Q 331 1975 331 2491 
Q 331 3047 712 3315 
Q 1094 3584 1881 3584 
Q 2191 3584 2531 3537 
Q 2872 3491 3272 3391 
z
" transform="scale(0.015625)"/>
      <path id="DejaVuSans-Bold-47" d="M 2919 2988 
L 2919 4863 
L 4044 4863 
L 4044 0 
L 2919 0 
L 2919 506 
Q 2688 197 2409 53 
Q 2131 -91 1766 -91 
Q 1119 -91 703 423 
Q 288 938 288 1747 
Q 288 2556 703 3070 
Q 1119 3584 1766 3584 
Q 2128 3584 2408 3439 
Q 2688 3294 2919 2988 
z
M 2181 722 
Q 2541 722 2730 984 
Q 2919 1247 2919 1747 
Q 2919 2247 2730 2509 
Q 2541 2772 2181 2772 
Q 1825 2772 1636 2509 
Q 1447 2247 1447 1747 
Q 1447 1247 1636 984 
Q 1825 722 2181 722 
z
" transform="scale(0.015625)"/>
      <path id="DejaVuSans-Bold-58" d="M 500 1363 
L 500 3500 
L 1625 3500 
L 1625 3150 
Q 1625 2866 1622 2436 
Q 1619 2006 1619 1863 
Q 1619 1441 1641 1255 
Q 1663 1069 1716 984 
Q 1784 875 1895 815 
Q 2006 756 2150 756 
Q 2500 756 2700 1025 
Q 2900 1294 2900 1772 
L 2900 3500 
L 4019 3500 
L 4019 0 
L 2900 0 
L 2900 506 
Q 2647 200 2364 54 
Q 2081 -91 1741 -91 
Q 1134 -91 817 281 
Q 500 653 500 1363 
z
" transform="scale(0.015625)"/>
      <path id="DejaVuSans-Bold-45" d="M 2400 722 
Q 2759 722 2948 984 
Q 3138 1247 3138 1747 
Q 3138 2247 2948 2509 
Q 2759 2772 2400 2772 
Q 2041 2772 1848 2508 
Q 1656 2244 1656 1747 
Q 1656 1250 1848 986 
Q 2041 722 2400 722 
z
M 1656 2988 
Q 1888 3294 2169 3439 
Q 2450 3584 2816 3584 
Q 3463 3584 3878 3070 
Q 4294 2556 4294 1747 
Q 4294 938 3878 423 
Q 3463 -91 2816 -91 
Q 2450 -91 2169 54 
Q 1888 200 1656 506 
L 1656 0 
L 538 0 
L 538 4863 
L 1656 4863 
L 1656 2988 
z
" transform="scale(0.015625)"/>
      <path id="DejaVuSans-Bold-52" d="M 2203 2784 
Q 1831 2784 1636 2517 
Q 1441 2250 1441 1747 
Q 1441 1244 1636 976 
Q 1831 709 2203 709 
Q 2569 709 2762 976 
Q 2956 1244 2956 1747 
Q 2956 2250 2762 2517 
Q 2569 2784 2203 2784 
z
M 2203 3584 
Q 3106 3584 3614 3096 
Q 4122 2609 4122 1747 
Q 4122 884 3614 396 
Q 3106 -91 2203 -91 
Q 1297 -91 786 396 
Q 275 884 275 1747 
Q 275 2609 786 3096 
Q 1297 3584 2203 3584 
z
" transform="scale(0.015625)"/>
     </defs>
     <use xlink:href="#DejaVuSans-Bold-28"/>
     <use xlink:href="#DejaVuSans-Bold-44" transform="translate(68.3125 0)"/>
     <use xlink:href="#DejaVuSans-Bold-46" transform="translate(135.796875 0)"/>
     <use xlink:href="#DejaVuSans-Bold-4b" transform="translate(195.078125 0)"/>
     <use xlink:href="#DejaVuSans-Bold-3" transform="translate(266.265625 0)"/>
     <use xlink:href="#DejaVuSans-Bold-46" transform="translate(301.078125 0)"/>
     <use xlink:href="#DejaVuSans-Bold-4c" transform="translate(360.359375 0)"/>
     <use xlink:href="#DejaVuSans-Bold-55" transform="translate(394.640625 0)"/>
     <use xlink:href="#DejaVuSans-Bold-46" transform="translate(443.953125 0)"/>
     <use xlink:href="#DejaVuSans-Bold-4f" transform="translate(503.234375 0)"/>
     <use xlink:href="#DejaVuSans-Bold-48" transform="translate(537.515625 0)"/>
     <use xlink:href="#DejaVuSans-Bold-a" transform="translate(605.34375 0)"/>
     <use xlink:href="#DejaVuSans-Bold-56" transform="translate(635.953125 0)"/>
     <use xlink:href="#DejaVuSans-Bold-3" transform="translate(695.46875 0)"/>
     <use xlink:href="#DejaVuSans-Bold-55" transform="translate(730.28125 0)"/>
     <use xlink:href="#DejaVuSans-Bold-44" transform="translate(779.59375 0)"/>
     <use xlink:href="#DejaVuSans-Bold-47" transform="translate(847.078125 0)"/>
     <use xlink:href="#DejaVuSans-Bold-4c" transform="translate(918.65625 0)"/>
     <use xlink:href="#DejaVuSans-Bold-58" transform="translate(952.9375 0)"/>
     <use xlink:href="#DejaVuSans-Bold-56" transform="translate(1024.125 0)"/>
     <use xlink:href="#DejaVuSans-Bold-3" transform="translate(1083.640625 0)"/>
     <use xlink:href="#DejaVuSans-Bold-4c" transform="translate(1118.453125 0)"/>
     <use xlink:href="#DejaVuSans-Bold-56" transform="translate(1152.734375 0)"/>
     <use xlink:href="#DejaVuSans-Bold-3" transform="translate(1212.25 0)"/>
     <use xlink:href="#DejaVuSans-Bold-57" transform="translate(1247.0625 0)"/>
     <use xlink:href="#DejaVuSans-Bold-4b" transform="translate(1294.859375 0)"/>
     <use xlink:href="#DejaVuSans-Bold-48" transform="translate(1366.046875 0)"/>
     <use xlink:href="#DejaVuSans-Bold-3" transform="translate(1433.875 0)"/>
     <use xlink:href="#DejaVuSans-Bold-46" transform="translate(1468.6875 0)"/>
     <use xlink:href="#DejaVuSans-Bold-44" transform="translate(1527.96875 0)"/>
     <use xlink:href="#DejaVuSans-Bold-4f" transform="translate(1595.453125 0)"/>
     <use xlink:href="#DejaVuSans-Bold-4c" transform="translate(1629.734375 0)"/>
     <use xlink:href="#DejaVuSans-Bold-45" transform="translate(1664.015625 0)"/>
     <use xlink:href="#DejaVuSans-Bold-55" transform="translate(1735.59375 0)"/>
     <use xlink:href="#DejaVuSans-Bold-44" transform="translate(1784.90625 0)"/>
     <use xlink:href="#DejaVuSans-Bold-57" transform="translate(1852.390625 0)"/>
     <use xlink:href="#DejaVuSans-Bold-48" transform="translate(1900.1875 0)"/>
     <use xlink:href="#DejaVuSans-Bold-47" transform="translate(1968.015625 0)"/>
     <use xlink:href="#DejaVuSans-Bold-3" transform="translate(2039.59375 0)"/>
     <use xlink:href="#DejaVuSans-Bold-57" transform="translate(2074.40625 0)"/>
     <use xlink:href="#DejaVuSans-Bold-4b" transform="translate(2122.203125 0)"/>
     <use xlink:href="#DejaVuSans-Bold-55" transform="translate(2193.390625 0)"/>
     <use xlink:href="#DejaVuSans-Bold-48" transform="translate(2242.703125 0)"/>
     <use xlink:href="#DejaVuSans-Bold-56" transform="translate(2310.53125 0)"/>
     <use xlink:href="#DejaVuSans-Bold-4b" transform="translate(2370.046875 0)"/>
     <use xlink:href="#DejaVuSans-Bold-52" transform="translate(2441.234375 0)"/>
     <use xlink:href="#DejaVuSans-Bold-4f" transform="translate(2509.9375 0)"/>
     <use xlink:href="#DejaVuSans-Bold-47" transform="translate(2544.21875 0)"/>
    </g>
    <!-- inside one, inside two, or inside none -->
    <g style="fill: #1e293b" transform="translate(115.289075 27.802148) scale(0.1 -0.1)">
     <defs>
      <path id="DejaVuSans-Bold-51" d="M 4056 2131 
L 4056 0 
L 2931 0 
L 2931 347 
L 2931 1631 
Q 2931 2084 2911 2256 
Q 2891 2428 2841 2509 
Q 2775 2619 2662 2680 
Q 2550 2741 2406 2741 
Q 2056 2741 1856 2470 
Q 1656 2200 1656 1722 
L 1656 0 
L 538 0 
L 538 3500 
L 1656 3500 
L 1656 2988 
Q 1909 3294 2193 3439 
Q 2478 3584 2822 3584 
Q 3428 3584 3742 3212 
Q 4056 2841 4056 2131 
z
" transform="scale(0.015625)"/>
      <path id="DejaVuSans-Bold-f" d="M 653 1209 
L 1778 1209 
L 1778 256 
L 1006 -909 
L 341 -909 
L 653 256 
L 653 1209 
z
" transform="scale(0.015625)"/>
      <path id="DejaVuSans-Bold-5a" d="M 225 3500 
L 1313 3500 
L 1900 1088 
L 2491 3500 
L 3425 3500 
L 4013 1113 
L 4603 3500 
L 5691 3500 
L 4769 0 
L 3547 0 
L 2956 2406 
L 2369 0 
L 1147 0 
L 225 3500 
z
" transform="scale(0.015625)"/>
     </defs>
     <use xlink:href="#DejaVuSans-Bold-4c"/>
     <use xlink:href="#DejaVuSans-Bold-51" transform="translate(34.28125 0)"/>
     <use xlink:href="#DejaVuSans-Bold-56" transform="translate(105.46875 0)"/>
     <use xlink:href="#DejaVuSans-Bold-4c" transform="translate(164.984375 0)"/>
     <use xlink:href="#DejaVuSans-Bold-47" transform="translate(199.265625 0)"/>
     <use xlink:href="#DejaVuSans-Bold-48" transform="translate(270.84375 0)"/>
     <use xlink:href="#DejaVuSans-Bold-3" transform="translate(338.671875 0)"/>
     <use xlink:href="#DejaVuSans-Bold-52" transform="translate(373.484375 0)"/>
     <use xlink:href="#DejaVuSans-Bold-51" transform="translate(442.1875 0)"/>
     <use xlink:href="#DejaVuSans-Bold-48" transform="translate(513.375 0)"/>
     <use xlink:href="#DejaVuSans-Bold-f" transform="translate(581.203125 0)"/>
     <use xlink:href="#DejaVuSans-Bold-3" transform="translate(619.1875 0)"/>
     <use xlink:href="#DejaVuSans-Bold-4c" transform="translate(654 0)"/>
     <use xlink:href="#DejaVuSans-Bold-51" transform="translate(688.28125 0)"/>
     <use xlink:href="#DejaVuSans-Bold-56" transform="translate(759.46875 0)"/>
     <use xlink:href="#DejaVuSans-Bold-4c" transform="translate(818.984375 0)"/>
     <use xlink:href="#DejaVuSans-Bold-47" transform="translate(853.265625 0)"/>
     <use xlink:href="#DejaVuSans-Bold-48" transform="translate(924.84375 0)"/>
     <use xlink:href="#DejaVuSans-Bold-3" transform="translate(992.671875 0)"/>
     <use xlink:href="#DejaVuSans-Bold-57" transform="translate(1027.484375 0)"/>
     <use xlink:href="#DejaVuSans-Bold-5a" transform="translate(1075.28125 0)"/>
     <use xlink:href="#DejaVuSans-Bold-52" transform="translate(1167.671875 0)"/>
     <use xlink:href="#DejaVuSans-Bold-f" transform="translate(1236.375 0)"/>
     <use xlink:href="#DejaVuSans-Bold-3" transform="translate(1274.359375 0)"/>
     <use xlink:href="#DejaVuSans-Bold-52" transform="translate(1309.171875 0)"/>
     <use xlink:href="#DejaVuSans-Bold-55" transform="translate(1377.875 0)"/>
     <use xlink:href="#DejaVuSans-Bold-3" transform="translate(1427.1875 0)"/>
     <use xlink:href="#DejaVuSans-Bold-4c" transform="translate(1462 0)"/>
     <use xlink:href="#DejaVuSans-Bold-51" transform="translate(1496.28125 0)"/>
     <use xlink:href="#DejaVuSans-Bold-56" transform="translate(1567.46875 0)"/>
     <use xlink:href="#DejaVuSans-Bold-4c" transform="translate(1626.984375 0)"/>
     <use xlink:href="#DejaVuSans-Bold-47" transform="translate(1661.265625 0)"/>
     <use xlink:href="#DejaVuSans-Bold-48" transform="translate(1732.84375 0)"/>
     <use xlink:href="#DejaVuSans-Bold-3" transform="translate(1800.671875 0)"/>
     <use xlink:href="#DejaVuSans-Bold-51" transform="translate(1835.484375 0)"/>
     <use xlink:href="#DejaVuSans-Bold-52" transform="translate(1906.671875 0)"/>
     <use xlink:href="#DejaVuSans-Bold-51" transform="translate(1975.375 0)"/>
     <use xlink:href="#DejaVuSans-Bold-48" transform="translate(2046.5625 0)"/>
    </g>
   </g>
   <g id="PathCollection_4">
    <defs>
     <path id="m65c3aa5ad6" d="M -4.743416 4.743416 
L 4.743416 -4.743416 
M -4.743416 -4.743416 
L 4.743416 4.743416 
" style="stroke: #6b7280; stroke-width: 2.4"/>
    </defs>
    <g clip-path="url(#p0ba1025bcb)">
     <use xlink:href="#m65c3aa5ad6" x="136.646689" y="104.103746" style="fill: #6b7280; stroke: #6b7280; stroke-width: 2.4"/>
    </g>
   </g>
   <g id="PathCollection_5">
    <g clip-path="url(#p0ba1025bcb)">
     <use xlink:href="#m65c3aa5ad6" x="215.384478" y="146.284705" style="fill: #6b7280; stroke: #6b7280; stroke-width: 2.4"/>
    </g>
   </g>
   <g id="PathCollection_6">
    <defs>
     <path id="m62b970b941" d="M -4.743416 4.743416 
L 4.743416 -4.743416 
M -4.743416 -4.743416 
L 4.743416 4.743416 
" style="stroke: #dc2626; stroke-width: 2.4"/>
    </defs>
    <g clip-path="url(#p0ba1025bcb)">
     <use xlink:href="#m62b970b941" x="355.987674" y="213.774239" style="fill: #dc2626; stroke: #dc2626; stroke-width: 2.4"/>
    </g>
   </g>
  </g>
 </g>
 <defs>
  <clipPath id="p0ba1025bcb">
   <rect x="46.660644" y="33.802148" width="348.695925" height="326.199414"/>
  </clipPath>
 </defs>
</svg>
