<?xml version="1.0" encoding="utf-8" standalone="no"?>
<!DOCTYPE svg PUBLIC "-//W3C//DTD SVG 1.1//EN"
  "http://www.w3.org/Graphics/SVG/1.1/DTD/svg11.dtd">
<svg xmlns:xlink="http://www.w3.org/1999/xlink" width="625.462091pt" height="314.762091pt" viewBox="0 0 625.462091 314.762091" xmlns="http://www.w3.org/2000/svg" version="1.1">
 <metadata>
  <rdf:RDF xmlns:dc="http://purl.org/dc/elements/1.1/" xmlns:cc="http://creativecommons.org/ns#" xmlns:rdf="http://www.w3.org/1999/02/22-rdf-syntax-ns#">
   <cc:Work>
    <dc:type rdf:resource="http://purl.org/dc/dcmitype/StillImage"/>
    <dc:date>2026-07-17T11:52:18.764764</dc:date>
    <dc:format>image/svg+xml</dc:format>
    <dc:creator>
     <cc:Agent>
      <dc:title>Matplotlib v3.11.0, https://matplotlib.org/</dc:title>
     </cc:Agent>
    </dc:creator>
   </cc:Work>
  </rdf:RDF>
 </metadata>
 <defs>
  <style type="text/css">*{stroke-linejoin: round; stroke-linecap: butt}</style>
 </defs>
 <g id="figure_1">
  <g id="patch_1">
   <path d="M 0 314.762091 
L 625.462091 314.762091 
L 625.462091 0 
L 0 0 
z
" style="fill: #ffffff"/>
  </g>
  <g id="axes_1">
   <g id="patch_2">
    <path d="M 150.011045 236.156568 
C 168.948011 236.156568 187.111918 228.632832 200.502375 215.242375 
C 213.892832 201.851918 221.416568 183.688011 221.416568 164.751045 
C 221.416568 145.814079 213.892832 127.650173 200.502375 114.259716 
C 187.111918 100.869259 168.948011 93.345523 150.011045 93.345523 
C 131.074079 93.345523 112.910173 100.869259 99.519716 114.259716 
C 86.129259 127.650173 78.605523 145.814079 78.605523 164.751045 
C 78.605523 183.688011 86.129259 201.851918 99.519716 215.242375 
C 112.910173 228.632832 131.074079 236.156568 150.011045 236.156568 
z
" clip-path="url(#pff0da0988a)" style="fill: #059669; opacity: 0.08; stroke: #059669; stroke-width: 1.6; stroke-linejoin: miter"/>
   </g>
   <g id="PathCollection_1">
    <defs>
     <path id="m16f24466cd" d="M 0 2.915476 
C 0.773193 2.915476 1.514823 2.608283 2.061553 2.061553 
C 2.608283 1.514823 2.915476 0.773193 2.915476 0 
C 2.915476 -0.773193 2.608283 -1.514823 2.061553 -2.061553 
C 1.514823 -2.608283 0.773193 -2.915476 0 -2.915476 
C -0.773193 -2.915476 -1.514823 -2.608283 -2.061553 -2.061553 
C -2.608283 -1.514823 -2.915476 -0.773193 -2.915476 0 
C -2.915476 0.773193 -2.608283 1.514823 -2.061553 2.061553 
C -1.514823 2.608283 -0.773193 2.915476 0 2.915476 
z
" style="stroke: #ffffff; stroke-width: 0.6"/>
    </defs>
    <g clip-path="url(#pff0da0988a)">
     <use xlink:href="#m16f24466cd" x="150.047938" y="155.791571" style="fill: #0369a1; stroke: #ffffff; stroke-width: 0.6"/>
     <use xlink:href="#m16f24466cd" x="141.789564" y="191.460179" style="fill: #0369a1; stroke: #ffffff; stroke-width: 0.6"/>
     <use xlink:href="#m16f24466cd" x="136.375323" y="194.490843" style="fill: #0369a1; stroke: #ffffff; stroke-width: 0.6"/>
     <use xlink:href="#m16f24466cd" x="151.814771" y="124.557562" style="fill: #0369a1; stroke: #ffffff; stroke-width: 0.6"/>
     <use xlink:href="#m16f24466cd" x="135.249615" y="183.359286" style="fill: #0369a1; stroke: #ffffff; stroke-width: 0.6"/>
     <use xlink:href="#m16f24466cd" x="164.701565" y="154.04789" style="fill: #0369a1; stroke: #ffffff; stroke-width: 0.6"/>
     <use xlink:href="#m16f24466cd" x="153.172452" y="192.656079" style="fill: #0369a1; stroke: #ffffff; stroke-width: 0.6"/>
     <use xlink:href="#m16f24466cd" x="149.133774" y="143.89868" style="fill: #0369a1; stroke: #ffffff; stroke-width: 0.6"/>
     <use xlink:href="#m16f24466cd" x="109.697622" y="178.475088" style="fill: #0369a1; stroke: #ffffff; stroke-width: 0.6"/>
     <use xlink:href="#m16f24466cd" x="92.992768" y="203.424694" style="fill: #0369a1; stroke: #ffffff; stroke-width: 0.6"/>
     <use xlink:href="#m16f24466cd" x="94.776823" y="171.801504" style="fill: #0369a1; stroke: #ffffff; stroke-width: 0.6"/>
     <use xlink:href="#m16f24466cd" x="111.99992" y="156.615741" style="fill: #0369a1; stroke: #ffffff; stroke-width: 0.6"/>
     <use xlink:href="#m16f24466cd" x="154.712061" y="170.357164" style="fill: #0369a1; stroke: #ffffff; stroke-width: 0.6"/>
     <use xlink:href="#m16f24466cd" x="74.532618" y="180.906618" style="fill: #0369a1; stroke: #ffffff; stroke-width: 0.6"/>
     <use xlink:href="#m16f24466cd" x="148.556487" y="161.352873" style="fill: #0369a1; stroke: #ffffff; stroke-width: 0.6"/>
     <use xlink:href="#m16f24466cd" x="104.121785" y="179.079019" style="fill: #0369a1; stroke: #ffffff; stroke-width: 0.6"/>
     <use xlink:href="#m16f24466cd" x="120.664946" y="189.008333" style="fill: #0369a1; stroke: #ffffff; stroke-width: 0.6"/>
     <use xlink:href="#m16f24466cd" x="181.827734" y="188.969268" style="fill: #0369a1; stroke: #ffffff; stroke-width: 0.6"/>
     <use xlink:href="#m16f24466cd" x="149.035709" y="138.227911" style="fill: #0369a1; stroke: #ffffff; stroke-width: 0.6"/>
     <use xlink:href="#m16f24466cd" x="132.508682" y="168.101023" style="fill: #0369a1; stroke: #ffffff; stroke-width: 0.6"/>
     <use xlink:href="#m16f24466cd" x="153.3239" y="162.83821" style="fill: #0369a1; stroke: #ffffff; stroke-width: 0.6"/>
     <use xlink:href="#m16f24466cd" x="113.27123" y="162.467576" style="fill: #0369a1; stroke: #ffffff; stroke-width: 0.6"/>
     <use xlink:href="#m16f24466cd" x="190.762594" y="211.150409" style="fill: #0369a1; stroke: #ffffff; stroke-width: 0.6"/>
     <use xlink:href="#m16f24466cd" x="175.784207" y="161.17158" style="fill: #0369a1; stroke: #ffffff; stroke-width: 0.6"/>
     <use xlink:href="#m16f24466cd" x="130.773143" y="104.757914" style="fill: #0369a1; stroke: #ffffff; stroke-width: 0.6"/>
     <use xlink:href="#m16f24466cd" x="172.871458" y="200.718103" style="fill: #0369a1; stroke: #ffffff; stroke-width: 0.6"/>
     <use xlink:href="#m16f24466cd" x="152.245811" y="147.455941" style="fill: #0369a1; stroke: #ffffff; stroke-width: 0.6"/>
     <use xlink:href="#m16f24466cd" x="144.349409" y="144.270348" style="fill: #0369a1; stroke: #ffffff; stroke-width: 0.6"/>
     <use xlink:href="#m16f24466cd" x="148.01617" y="144.740078" style="fill: #0369a1; stroke: #ffffff; stroke-width: 0.6"/>
     <use xlink:href="#m16f24466cd" x="193.152798" y="185.014372" style="fill: #0369a1; stroke: #ffffff; stroke-width: 0.6"/>
     <use xlink:href="#m16f24466cd" x="156.103237" y="178.645788" style="fill: #0369a1; stroke: #ffffff; stroke-width: 0.6"/>
     <use xlink:href="#m16f24466cd" x="153.827866" y="200.355389" style="fill: #0369a1; stroke: #ffffff; stroke-width: 0.6"/>
     <use xlink:href="#m16f24466cd" x="132.637605" y="170.635025" style="fill: #0369a1; stroke: #ffffff; stroke-width: 0.6"/>
     <use xlink:href="#m16f24466cd" x="176.965261" y="130.405472" style="fill: #0369a1; stroke: #ffffff; stroke-width: 0.6"/>
     <use xlink:href="#m16f24466cd" x="110.318024" y="188.582624" style="fill: #0369a1; stroke: #ffffff; stroke-width: 0.6"/>
     <use xlink:href="#m16f24466cd" x="169.411886" y="224.504351" style="fill: #0369a1; stroke: #ffffff; stroke-width: 0.6"/>
     <use xlink:href="#m16f24466cd" x="136.120433" y="167.668711" style="fill: #0369a1; stroke: #ffffff; stroke-width: 0.6"/>
     <use xlink:href="#m16f24466cd" x="187.709326" y="144.075602" style="fill: #0369a1; stroke: #ffffff; stroke-width: 0.6"/>
     <use xlink:href="#m16f24466cd" x="140.19781" y="175.804754" style="fill: #0369a1; stroke: #ffffff; stroke-width: 0.6"/>
     <use xlink:href="#m16f24466cd" x="142.507605" y="119.059912" style="fill: #0369a1; stroke: #ffffff; stroke-width: 0.6"/>
    </g>
   </g>
   <g id="text_1">
    <!-- $\tau$ = 90% of AusNet's own held-back distances -->
    <g style="fill: #059669" transform="translate(52.388545 259.006335) scale(0.085 -0.085)">
     <defs>
      <path id="DejaVuSans-Oblique-358" d="M 2103 638 
Q 2188 488 2525 488 
L 2800 488 
L 2706 0 
L 2363 0 
Q 1800 0 1600 300 
Q 1403 606 1534 1269 
L 1856 2925 
L 541 2925 
L 653 3500 
L 3881 3500 
L 3769 2925 
L 2444 2925 
L 2113 1234 
Q 2025 781 2103 638 
z
" transform="scale(0.015625)"/>
      <path id="DejaVuSans-3" transform="scale(0.015625)"/>
      <path id="DejaVuSans-20" d="M 678 2906 
L 4684 2906 
L 4684 2381 
L 678 2381 
L 678 2906 
z
M 678 1631 
L 4684 1631 
L 4684 1100 
L 678 1100 
L 678 1631 
z
" transform="scale(0.015625)"/>
      <path id="DejaVuSans-1c" d="M 703 97 
L 703 672 
Q 941 559 1184 500 
Q 1428 441 1663 441 
Q 2288 441 2617 861 
Q 2947 1281 2994 2138 
Q 2813 1869 2534 1725 
Q 2256 1581 1919 1581 
Q 1219 1581 811 2004 
Q 403 2428 403 3163 
Q 403 3881 828 4315 
Q 1253 4750 1959 4750 
Q 2769 4750 3195 4129 
Q 3622 3509 3622 2328 
Q 3622 1225 3098 567 
Q 2575 -91 1691 -91 
Q 1453 -91 1209 -44 
Q 966 3 703 97 
z
M 1959 2075 
Q 2384 2075 2632 2365 
Q 2881 2656 2881 3163 
Q 2881 3666 2632 3958 
Q 2384 4250 1959 4250 
Q 1534 4250 1286 3958 
Q 1038 3666 1038 3163 
Q 1038 2656 1286 2365 
Q 1534 2075 1959 2075 
z
" transform="scale(0.015625)"/>
      <path id="DejaVuSans-13" d="M 2034 4250 
Q 1547 4250 1301 3770 
Q 1056 3291 1056 2328 
Q 1056 1369 1301 889 
Q 1547 409 2034 409 
Q 2525 409 2770 889 
Q 3016 1369 3016 2328 
Q 3016 3291 2770 3770 
Q 2525 4250 2034 4250 
z
M 2034 4750 
Q 2819 4750 3233 4129 
Q 3647 3509 3647 2328 
Q 3647 1150 3233 529 
Q 2819 -91 2034 -91 
Q 1250 -91 836 529 
Q 422 1150 422 2328 
Q 422 3509 836 4129 
Q 1250 4750 2034 4750 
z
" transform="scale(0.015625)"/>
      <path id="DejaVuSans-8" d="M 4653 2053 
Q 4381 2053 4226 1822 
Q 4072 1591 4072 1178 
Q 4072 772 4226 539 
Q 4381 306 4653 306 
Q 4919 306 5073 539 
Q 5228 772 5228 1178 
Q 5228 1588 5073 1820 
Q 4919 2053 4653 2053 
z
M 4653 2450 
Q 5147 2450 5437 2106 
Q 5728 1763 5728 1178 
Q 5728 594 5436 251 
Q 5144 -91 4653 -91 
Q 4153 -91 3862 251 
Q 3572 594 3572 1178 
Q 3572 1766 3864 2108 
Q 4156 2450 4653 2450 
z
M 1428 4353 
Q 1159 4353 1004 4120 
Q 850 3888 850 3481 
Q 850 3069 1003 2837 
Q 1156 2606 1428 2606 
Q 1700 2606 1854 2837 
Q 2009 3069 2009 3481 
Q 2009 3884 1853 4118 
Q 1697 4353 1428 4353 
z
M 4250 4750 
L 4750 4750 
L 1831 -91 
L 1331 -91 
L 4250 4750 
z
M 1428 4750 
Q 1922 4750 2215 4408 
Q 2509 4066 2509 3481 
Q 2509 2891 2217 2550 
Q 1925 2209 1428 2209 
Q 931 2209 642 2551 
Q 353 2894 353 3481 
Q 353 4063 643 4406 
Q 934 4750 1428 4750 
z
" transform="scale(0.015625)"/>
      <path id="DejaVuSans-52" d="M 1959 3097 
Q 1497 3097 1228 2736 
Q 959 2375 959 1747 
Q 959 1119 1226 758 
Q 1494 397 1959 397 
Q 2419 397 2687 759 
Q 2956 1122 2956 1747 
Q 2956 2369 2687 2733 
Q 2419 3097 1959 3097 
z
M 1959 3584 
Q 2709 3584 3137 3096 
Q 3566 2609 3566 1747 
Q 3566 888 3137 398 
Q 2709 -91 1959 -91 
Q 1206 -91 779 398 
Q 353 888 353 1747 
Q 353 2609 779 3096 
Q 1206 3584 1959 3584 
z
" transform="scale(0.015625)"/>
      <path id="DejaVuSans-49" d="M 2375 4863 
L 2375 4384 
L 1825 4384 
Q 1516 4384 1395 4259 
Q 1275 4134 1275 3809 
L 1275 3500 
L 2222 3500 
L 2222 3053 
L 1275 3053 
L 1275 0 
L 697 0 
L 697 3053 
L 147 3053 
L 147 3500 
L 697 3500 
L 697 3744 
Q 697 4328 969 4595 
Q 1241 4863 1831 4863 
L 2375 4863 
z
" transform="scale(0.015625)"/>
      <path id="DejaVuSans-24" d="M 2188 4044 
L 1331 1722 
L 3047 1722 
L 2188 4044 
z
M 1831 4666 
L 2547 4666 
L 4325 0 
L 3669 0 
L 3244 1197 
L 1141 1197 
L 716 0 
L 50 0 
L 1831 4666 
z
" transform="scale(0.015625)"/>
      <path id="DejaVuSans-58" d="M 544 1381 
L 544 3500 
L 1119 3500 
L 1119 1403 
Q 1119 906 1312 657 
Q 1506 409 1894 409 
Q 2359 409 2629 706 
Q 2900 1003 2900 1516 
L 2900 3500 
L 3475 3500 
L 3475 0 
L 2900 0 
L 2900 538 
Q 2691 219 2414 64 
Q 2138 -91 1772 -91 
Q 1169 -91 856 284 
Q 544 659 544 1381 
z
M 1991 3584 
L 1991 3584 
z
" transform="scale(0.015625)"/>
      <path id="DejaVuSans-56" d="M 2834 3397 
L 2834 2853 
Q 2591 2978 2328 3040 
Q 2066 3103 1784 3103 
Q 1356 3103 1142 2972 
Q 928 2841 928 2578 
Q 928 2378 1081 2264 
Q 1234 2150 1697 2047 
L 1894 2003 
Q 2506 1872 2764 1633 
Q 3022 1394 3022 966 
Q 3022 478 2636 193 
Q 2250 -91 1575 -91 
Q 1294 -91 989 -36 
Q 684 19 347 128 
L 347 722 
Q 666 556 975 473 
Q 1284 391 1588 391 
Q 1994 391 2212 530 
Q 2431 669 2431 922 
Q 2431 1156 2273 1281 
Q 2116 1406 1581 1522 
L 1381 1569 
Q 847 1681 609 1914 
Q 372 2147 372 2553 
Q 372 3047 722 3315 
Q 1072 3584 1716 3584 
Q 2034 3584 2315 3537 
Q 2597 3491 2834 3397 
z
" transform="scale(0.015625)"/>
      <path id="DejaVuSans-31" d="M 628 4666 
L 1478 4666 
L 3547 763 
L 3547 4666 
L 4159 4666 
L 4159 0 
L 3309 0 
L 1241 3903 
L 1241 0 
L 628 0 
L 628 4666 
z
" transform="scale(0.015625)"/>
      <path id="DejaVuSans-48" d="M 3597 1894 
L 3597 1613 
L 953 1613 
Q 991 1019 1311 708 
Q 1631 397 2203 397 
Q 2534 397 2845 478 
Q 3156 559 3463 722 
L 3463 178 
Q 3153 47 2828 -22 
Q 2503 -91 2169 -91 
Q 1331 -91 842 396 
Q 353 884 353 1716 
Q 353 2575 817 3079 
Q 1281 3584 2069 3584 
Q 2775 3584 3186 3129 
Q 3597 2675 3597 1894 
z
M 3022 2063 
Q 3016 2534 2758 2815 
Q 2500 3097 2075 3097 
Q 1594 3097 1305 2825 
Q 1016 2553 972 2059 
L 3022 2063 
z
" transform="scale(0.015625)"/>
      <path id="DejaVuSans-57" d="M 1172 4494 
L 1172 3500 
L 2356 3500 
L 2356 3053 
L 1172 3053 
L 1172 1153 
Q 1172 725 1289 603 
Q 1406 481 1766 481 
L 2356 481 
L 2356 0 
L 1766 0 
Q 1100 0 847 248 
Q 594 497 594 1153 
L 594 3053 
L 172 3053 
L 172 3500 
L 594 3500 
L 594 4494 
L 1172 4494 
z
" transform="scale(0.015625)"/>
      <path id="DejaVuSans-a" d="M 1147 4666 
L 1147 2931 
L 616 2931 
L 616 4666 
L 1147 4666 
z
" transform="scale(0.015625)"/>
      <path id="DejaVuSans-5a" d="M 269 3500 
L 844 3500 
L 1563 769 
L 2278 3500 
L 2956 3500 
L 3675 769 
L 4391 3500 
L 4966 3500 
L 4050 0 
L 3372 0 
L 2619 2869 
L 1863 0 
L 1184 0 
L 269 3500 
z
" transform="scale(0.015625)"/>
      <path id="DejaVuSans-51" d="M 3513 2113 
L 3513 0 
L 2938 0 
L 2938 2094 
Q 2938 2591 2744 2837 
Q 2550 3084 2163 3084 
Q 1697 3084 1428 2787 
Q 1159 2491 1159 1978 
L 1159 0 
L 581 0 
L 581 3500 
L 1159 3500 
L 1159 2956 
Q 1366 3272 1645 3428 
Q 1925 3584 2291 3584 
Q 2894 3584 3203 3211 
Q 3513 2838 3513 2113 
z
" transform="scale(0.015625)"/>
      <path id="DejaVuSans-4b" d="M 3513 2113 
L 3513 0 
L 2938 0 
L 2938 2094 
Q 2938 2591 2744 2837 
Q 2550 3084 2163 3084 
Q 1697 3084 1428 2787 
Q 1159 2491 1159 1978 
L 1159 0 
L 581 0 
L 581 4863 
L 1159 4863 
L 1159 2956 
Q 1366 3272 1645 3428 
Q 1925 3584 2291 3584 
Q 2894 3584 3203 3211 
Q 3513 2838 3513 2113 
z
" transform="scale(0.015625)"/>
      <path id="DejaVuSans-4f" d="M 603 4863 
L 1178 4863 
L 1178 0 
L 603 0 
L 603 4863 
z
" transform="scale(0.015625)"/>
      <path id="DejaVuSans-47" d="M 2906 2969 
L 2906 4863 
L 3481 4863 
L 3481 0 
L 2906 0 
L 2906 525 
Q 2725 213 2448 61 
Q 2172 -91 1784 -91 
Q 1150 -91 751 415 
Q 353 922 353 1747 
Q 353 2572 751 3078 
Q 1150 3584 1784 3584 
Q 2172 3584 2448 3432 
Q 2725 3281 2906 2969 
z
M 947 1747 
Q 947 1113 1208 752 
Q 1469 391 1925 391 
Q 2381 391 2643 752 
Q 2906 1113 2906 1747 
Q 2906 2381 2643 2742 
Q 2381 3103 1925 3103 
Q 1469 3103 1208 2742 
Q 947 2381 947 1747 
z
" transform="scale(0.015625)"/>
      <path id="DejaVuSans-10" d="M 313 2009 
L 1997 2009 
L 1997 1497 
L 313 1497 
L 313 2009 
z
" transform="scale(0.015625)"/>
      <path id="DejaVuSans-45" d="M 3116 1747 
Q 3116 2381 2855 2742 
Q 2594 3103 2138 3103 
Q 1681 3103 1420 2742 
Q 1159 2381 1159 1747 
Q 1159 1113 1420 752 
Q 1681 391 2138 391 
Q 2594 391 2855 752 
Q 3116 1113 3116 1747 
z
M 1159 2969 
Q 1341 3281 1617 3432 
Q 1894 3584 2278 3584 
Q 2916 3584 3314 3078 
Q 3713 2572 3713 1747 
Q 3713 922 3314 415 
Q 2916 -91 2278 -91 
Q 1894 -91 1617 61 
Q 1341 213 1159 525 
L 1159 0 
L 581 0 
L 581 4863 
L 1159 4863 
L 1159 2969 
z
" transform="scale(0.015625)"/>
      <path id="DejaVuSans-44" d="M 2194 1759 
Q 1497 1759 1228 1600 
Q 959 1441 959 1056 
Q 959 750 1161 570 
Q 1363 391 1709 391 
Q 2188 391 2477 730 
Q 2766 1069 2766 1631 
L 2766 1759 
L 2194 1759 
z
M 3341 1997 
L 3341 0 
L 2766 0 
L 2766 531 
Q 2569 213 2275 61 
Q 1981 -91 1556 -91 
Q 1019 -91 701 211 
Q 384 513 384 1019 
Q 384 1609 779 1909 
Q 1175 2209 1959 2209 
L 2766 2209 
L 2766 2266 
Q 2766 2663 2505 2880 
Q 2244 3097 1772 3097 
Q 1472 3097 1187 3025 
Q 903 2953 641 2809 
L 641 3341 
Q 956 3463 1253 3523 
Q 1550 3584 1831 3584 
Q 2591 3584 2966 3190 
Q 3341 2797 3341 1997 
z
" transform="scale(0.015625)"/>
      <path id="DejaVuSans-46" d="M 3122 3366 
L 3122 2828 
Q 2878 2963 2633 3030 
Q 2388 3097 2138 3097 
Q 1578 3097 1268 2742 
Q 959 2388 959 1747 
Q 959 1106 1268 751 
Q 1578 397 2138 397 
Q 2388 397 2633 464 
Q 2878 531 3122 666 
L 3122 134 
Q 2881 22 2623 -34 
Q 2366 -91 2075 -91 
Q 1284 -91 818 406 
Q 353 903 353 1747 
Q 353 2603 823 3093 
Q 1294 3584 2113 3584 
Q 2378 3584 2631 3529 
Q 2884 3475 3122 3366 
z
" transform="scale(0.015625)"/>
      <path id="DejaVuSans-4e" d="M 581 4863 
L 1159 4863 
L 1159 1991 
L 2875 3500 
L 3609 3500 
L 1753 1863 
L 3688 0 
L 2938 0 
L 1159 1709 
L 1159 0 
L 581 0 
L 581 4863 
z
" transform="scale(0.015625)"/>
      <path id="DejaVuSans-4c" d="M 603 3500 
L 1178 3500 
L 1178 0 
L 603 0 
L 603 3500 
z
M 603 4863 
L 1178 4863 
L 1178 4134 
L 603 4134 
L 603 4863 
z
" transform="scale(0.015625)"/>
     </defs>
     <use xlink:href="#DejaVuSans-Oblique-358" transform="translate(0 0.015625)"/>
     <use xlink:href="#DejaVuSans-3" transform="translate(60.205078 0.015625)"/>
     <use xlink:href="#DejaVuSans-20" transform="translate(91.992188 0.015625)"/>
     <use xlink:href="#DejaVuSans-3" transform="translate(175.78125 0.015625)"/>
     <use xlink:href="#DejaVuSans-1c" transform="translate(207.568359 0.015625)"/>
     <use xlink:href="#DejaVuSans-13" transform="translate(271.191406 0.015625)"/>
     <use xlink:href="#DejaVuSans-8" transform="translate(334.814453 0.015625)"/>
     <use xlink:href="#DejaVuSans-3" transform="translate(429.833984 0.015625)"/>
     <use xlink:href="#DejaVuSans-52" transform="translate(461.621094 0.015625)"/>
     <use xlink:href="#DejaVuSans-49" transform="translate(522.802734 0.015625)"/>
     <use xlink:href="#DejaVuSans-3" transform="translate(558.007812 0.015625)"/>
     <use xlink:href="#DejaVuSans-24" transform="translate(589.794922 0.015625)"/>
     <use xlink:href="#DejaVuSans-58" transform="translate(658.203125 0.015625)"/>
     <use xlink:href="#DejaVuSans-56" transform="translate(721.582031 0.015625)"/>
     <use xlink:href="#DejaVuSans-31" transform="translate(773.681641 0.015625)"/>
     <use xlink:href="#DejaVuSans-48" transform="translate(848.486328 0.015625)"/>
     <use xlink:href="#DejaVuSans-57" transform="translate(910.009766 0.015625)"/>
     <use xlink:href="#DejaVuSans-a" transform="translate(949.21875 0.015625)"/>
     <use xlink:href="#DejaVuSans-56" transform="translate(976.708984 0.015625)"/>
     <use xlink:href="#DejaVuSans-3" transform="translate(1028.808594 0.015625)"/>
     <use xlink:href="#DejaVuSans-52" transform="translate(1060.595703 0.015625)"/>
     <use xlink:href="#DejaVuSans-5a" transform="translate(1121.777344 0.015625)"/>
     <use xlink:href="#DejaVuSans-51" transform="translate(1203.564453 0.015625)"/>
     <use xlink:href="#DejaVuSans-3" transform="translate(1266.943359 0.015625)"/>
     <use xlink:href="#DejaVuSans-4b" transform="translate(1298.730469 0.015625)"/>
     <use xlink:href="#DejaVuSans-48" transform="translate(1362.109375 0.015625)"/>
     <use xlink:href="#DejaVuSans-4f" transform="translate(1423.632812 0.015625)"/>
     <use xlink:href="#DejaVuSans-47" transform="translate(1451.416016 0.015625)"/>
     <use xlink:href="#DejaVuSans-10" transform="translate(1514.892578 0.015625)"/>
     <use xlink:href="#DejaVuSans-45" transform="translate(1550.976562 0.015625)"/>
     <use xlink:href="#DejaVuSans-44" transform="translate(1614.453125 0.015625)"/>
     <use xlink:href="#DejaVuSans-46" transform="translate(1675.732422 0.015625)"/>
     <use xlink:href="#DejaVuSans-4e" transform="translate(1730.712891 0.015625)"/>
     <use xlink:href="#DejaVuSans-3" transform="translate(1788.623047 0.015625)"/>
     <use xlink:href="#DejaVuSans-47" transform="translate(1820.410156 0.015625)"/>
     <use xlink:href="#DejaVuSans-4c" transform="translate(1883.886719 0.015625)"/>
     <use xlink:href="#DejaVuSans-56" transform="translate(1911.669922 0.015625)"/>
     <use xlink:href="#DejaVuSans-57" transform="translate(1963.769531 0.015625)"/>
     <use xlink:href="#DejaVuSans-44" transform="translate(2002.978516 0.015625)"/>
     <use xlink:href="#DejaVuSans-51" transform="translate(2064.257812 0.015625)"/>
     <use xlink:href="#DejaVuSans-46" transform="translate(2127.636719 0.015625)"/>
     <use xlink:href="#DejaVuSans-48" transform="translate(2182.617188 0.015625)"/>
     <use xlink:href="#DejaVuSans-56" transform="translate(2244.140625 0.015625)"/>
    </g>
   </g>
   <g id="text_2">
    <!-- Calibrated on AusNet alone -->
    <g style="fill: #1e293b" transform="translate(61.102569 15.94) scale(0.115 -0.115)">
     <defs>
      <path id="DejaVuSans-Bold-26" d="M 4288 256 
Q 3956 84 3597 -3 
Q 3238 -91 2847 -91 
Q 1681 -91 1000 561 
Q 319 1213 319 2328 
Q 319 3447 1000 4098 
Q 1681 4750 2847 4750 
Q 3238 4750 3597 4662 
Q 3956 4575 4288 4403 
L 4288 3438 
Q 3953 3666 3628 3772 
Q 3303 3878 2944 3878 
Q 2300 3878 1931 3465 
Q 1563 3053 1563 2328 
Q 1563 1606 1931 1193 
Q 2300 781 2944 781 
Q 3303 781 3628 887 
Q 3953 994 4288 1222 
L 4288 256 
z
" transform="scale(0.015625)"/>
      <path id="DejaVuSans-Bold-44" d="M 2106 1575 
Q 1756 1575 1579 1456 
Q 1403 1338 1403 1106 
Q 1403 894 1545 773 
Q 1688 653 1941 653 
Q 2256 653 2472 879 
Q 2688 1106 2688 1447 
L 2688 1575 
L 2106 1575 
z
M 3816 1997 
L 3816 0 
L 2688 0 
L 2688 519 
Q 2463 200 2181 54 
Q 1900 -91 1497 -91 
Q 953 -91 614 226 
Q 275 544 275 1050 
Q 275 1666 698 1953 
Q 1122 2241 2028 2241 
L 2688 2241 
L 2688 2328 
Q 2688 2594 2478 2717 
Q 2269 2841 1825 2841 
Q 1466 2841 1156 2769 
Q 847 2697 581 2553 
L 581 3406 
Q 941 3494 1303 3539 
Q 1666 3584 2028 3584 
Q 2975 3584 3395 3211 
Q 3816 2838 3816 1997 
z
" transform="scale(0.015625)"/>
      <path id="DejaVuSans-Bold-4f" d="M 538 4863 
L 1656 4863 
L 1656 0 
L 538 0 
L 538 4863 
z
" transform="scale(0.015625)"/>
      <path id="DejaVuSans-Bold-4c" d="M 538 3500 
L 1656 3500 
L 1656 0 
L 538 0 
L 538 3500 
z
M 538 4863 
L 1656 4863 
L 1656 3950 
L 538 3950 
L 538 4863 
z
" transform="scale(0.015625)"/>
      <path id="DejaVuSans-Bold-45" d="M 2400 722 
Q 2759 722 2948 984 
Q 3138 1247 3138 1747 
Q 3138 2247 2948 2509 
Q 2759 2772 2400 2772 
Q 2041 2772 1848 2508 
Q 1656 2244 1656 1747 
Q 1656 1250 1848 986 
Q 2041 722 2400 722 
z
M 1656 2988 
Q 1888 3294 2169 3439 
Q 2450 3584 2816 3584 
Q 3463 3584 3878 3070 
Q 4294 2556 4294 1747 
Q 4294 938 3878 423 
Q 3463 -91 2816 -91 
Q 2450 -91 2169 54 
Q 1888 200 1656 506 
L 1656 0 
L 538 0 
L 538 4863 
L 1656 4863 
L 1656 2988 
z
" transform="scale(0.015625)"/>
      <path id="DejaVuSans-Bold-55" d="M 3138 2547 
Q 2991 2616 2845 2648 
Q 2700 2681 2553 2681 
Q 2122 2681 1889 2404 
Q 1656 2128 1656 1613 
L 1656 0 
L 538 0 
L 538 3500 
L 1656 3500 
L 1656 2925 
Q 1872 3269 2151 3426 
Q 2431 3584 2822 3584 
Q 2878 3584 2943 3579 
Q 3009 3575 3134 3559 
L 3138 2547 
z
" transform="scale(0.015625)"/>
      <path id="DejaVuSans-Bold-57" d="M 1759 4494 
L 1759 3500 
L 2913 3500 
L 2913 2700 
L 1759 2700 
L 1759 1216 
Q 1759 972 1856 886 
Q 1953 800 2241 800 
L 2816 800 
L 2816 0 
L 1856 0 
Q 1194 0 917 276 
Q 641 553 641 1216 
L 641 2700 
L 84 2700 
L 84 3500 
L 641 3500 
L 641 4494 
L 1759 4494 
z
" transform="scale(0.015625)"/>
      <path id="DejaVuSans-Bold-48" d="M 4031 1759 
L 4031 1441 
L 1416 1441 
Q 1456 1047 1700 850 
Q 1944 653 2381 653 
Q 2734 653 3104 758 
Q 3475 863 3866 1075 
L 3866 213 
Q 3469 63 3072 -14 
Q 2675 -91 2278 -91 
Q 1328 -91 801 392 
Q 275 875 275 1747 
Q 275 2603 792 3093 
Q 1309 3584 2216 3584 
Q 3041 3584 3536 3087 
Q 4031 2591 4031 1759 
z
M 2881 2131 
Q 2881 2450 2695 2645 
Q 2509 2841 2209 2841 
Q 1884 2841 1681 2658 
Q 1478 2475 1428 2131 
L 2881 2131 
z
" transform="scale(0.015625)"/>
      <path id="DejaVuSans-Bold-47" d="M 2919 2988 
L 2919 4863 
L 4044 4863 
L 4044 0 
L 2919 0 
L 2919 506 
Q 2688 197 2409 53 
Q 2131 -91 1766 -91 
Q 1119 -91 703 423 
Q 288 938 288 1747 
Q 288 2556 703 3070 
Q 1119 3584 1766 3584 
Q 2128 3584 2408 3439 
Q 2688 3294 2919 2988 
z
M 2181 722 
Q 2541 722 2730 984 
Q 2919 1247 2919 1747 
Q 2919 2247 2730 2509 
Q 2541 2772 2181 2772 
Q 1825 2772 1636 2509 
Q 1447 2247 1447 1747 
Q 1447 1247 1636 984 
Q 1825 722 2181 722 
z
" transform="scale(0.015625)"/>
      <path id="DejaVuSans-Bold-3" transform="scale(0.015625)"/>
      <path id="DejaVuSans-Bold-52" d="M 2203 2784 
Q 1831 2784 1636 2517 
Q 1441 2250 1441 1747 
Q 1441 1244 1636 976 
Q 1831 709 2203 709 
Q 2569 709 2762 976 
Q 2956 1244 2956 1747 
Q 2956 2250 2762 2517 
Q 2569 2784 2203 2784 
z
M 2203 3584 
Q 3106 3584 3614 3096 
Q 4122 2609 4122 1747 
Q 4122 884 3614 396 
Q 3106 -91 2203 -91 
Q 1297 -91 786 396 
Q 275 884 275 1747 
Q 275 2609 786 3096 
Q 1297 3584 2203 3584 
z
" transform="scale(0.015625)"/>
      <path id="DejaVuSans-Bold-51" d="M 4056 2131 
L 4056 0 
L 2931 0 
L 2931 347 
L 2931 1631 
Q 2931 2084 2911 2256 
Q 2891 2428 2841 2509 
Q 2775 2619 2662 2680 
Q 2550 2741 2406 2741 
Q 2056 2741 1856 2470 
Q 1656 2200 1656 1722 
L 1656 0 
L 538 0 
L 538 3500 
L 1656 3500 
L 1656 2988 
Q 1909 3294 2193 3439 
Q 2478 3584 2822 3584 
Q 3428 3584 3742 3212 
Q 4056 2841 4056 2131 
z
" transform="scale(0.015625)"/>
      <path id="DejaVuSans-Bold-24" d="M 3419 850 
L 1538 850 
L 1241 0 
L 31 0 
L 1759 4666 
L 3194 4666 
L 4922 0 
L 3713 0 
L 3419 850 
z
M 1838 1716 
L 3116 1716 
L 2478 3572 
L 1838 1716 
z
" transform="scale(0.015625)"/>
      <path id="DejaVuSans-Bold-58" d="M 500 1363 
L 500 3500 
L 1625 3500 
L 1625 3150 
Q 1625 2866 1622 2436 
Q 1619 2006 1619 1863 
Q 1619 1441 1641 1255 
Q 1663 1069 1716 984 
Q 1784 875 1895 815 
Q 2006 756 2150 756 
Q 2500 756 2700 1025 
Q 2900 1294 2900 1772 
L 2900 3500 
L 4019 3500 
L 4019 0 
L 2900 0 
L 2900 506 
Q 2647 200 2364 54 
Q 2081 -91 1741 -91 
Q 1134 -91 817 281 
Q 500 653 500 1363 
z
" transform="scale(0.015625)"/>
      <path id="DejaVuSans-Bold-56" d="M 3272 3391 
L 3272 2541 
Q 2913 2691 2578 2766 
Q 2244 2841 1947 2841 
Q 1628 2841 1473 2761 
Q 1319 2681 1319 2516 
Q 1319 2381 1436 2309 
Q 1553 2238 1856 2203 
L 2053 2175 
Q 2913 2066 3209 1816 
Q 3506 1566 3506 1031 
Q 3506 472 3093 190 
Q 2681 -91 1863 -91 
Q 1516 -91 1145 -36 
Q 775 19 384 128 
L 384 978 
Q 719 816 1070 734 
Q 1422 653 1784 653 
Q 2113 653 2278 743 
Q 2444 834 2444 1013 
Q 2444 1163 2330 1236 
Q 2216 1309 1875 1350 
L 1678 1375 
Q 931 1469 631 1722 
Q 331 1975 331 2491 
Q 331 3047 712 3315 
Q 1094 3584 1881 3584 
Q 2191 3584 2531 3537 
Q 2872 3491 3272 3391 
z
" transform="scale(0.015625)"/>
      <path id="DejaVuSans-Bold-31" d="M 588 4666 
L 1931 4666 
L 3628 1466 
L 3628 4666 
L 4769 4666 
L 4769 0 
L 3425 0 
L 1728 3200 
L 1728 0 
L 588 0 
L 588 4666 
z
" transform="scale(0.015625)"/>
     </defs>
     <use xlink:href="#DejaVuSans-Bold-26"/>
     <use xlink:href="#DejaVuSans-Bold-44" transform="translate(73.390625 0)"/>
     <use xlink:href="#DejaVuSans-Bold-4f" transform="translate(140.875 0)"/>
     <use xlink:href="#DejaVuSans-Bold-4c" transform="translate(175.15625 0)"/>
     <use xlink:href="#DejaVuSans-Bold-45" transform="translate(209.4375 0)"/>
     <use xlink:href="#DejaVuSans-Bold-55" transform="translate(281.015625 0)"/>
     <use xlink:href="#DejaVuSans-Bold-44" transform="translate(330.328125 0)"/>
     <use xlink:href="#DejaVuSans-Bold-57" transform="translate(397.8125 0)"/>
     <use xlink:href="#DejaVuSans-Bold-48" transform="translate(445.609375 0)"/>
     <use xlink:href="#DejaVuSans-Bold-47" transform="translate(513.4375 0)"/>
     <use xlink:href="#DejaVuSans-Bold-3" transform="translate(585.015625 0)"/>
     <use xlink:href="#DejaVuSans-Bold-52" transform="translate(619.828125 0)"/>
     <use xlink:href="#DejaVuSans-Bold-51" transform="translate(688.53125 0)"/>
     <use xlink:href="#DejaVuSans-Bold-3" transform="translate(759.71875 0)"/>
     <use xlink:href="#DejaVuSans-Bold-24" transform="translate(794.53125 0)"/>
     <use xlink:href="#DejaVuSans-Bold-58" transform="translate(871.921875 0)"/>
     <use xlink:href="#DejaVuSans-Bold-56" transform="translate(943.109375 0)"/>
     <use xlink:href="#DejaVuSans-Bold-31" transform="translate(1002.625 0)"/>
     <use xlink:href="#DejaVuSans-Bold-48" transform="translate(1086.3125 0)"/>
     <use xlink:href="#DejaVuSans-Bold-57" transform="translate(1154.140625 0)"/>
     <use xlink:href="#DejaVuSans-Bold-3" transform="translate(1201.9375 0)"/>
     <use xlink:href="#DejaVuSans-Bold-44" transform="translate(1236.75 0)"/>
     <use xlink:href="#DejaVuSans-Bold-4f" transform="translate(1304.234375 0)"/>
     <use xlink:href="#DejaVuSans-Bold-52" transform="translate(1338.515625 0)"/>
     <use xlink:href="#DejaVuSans-Bold-51" transform="translate(1407.21875 0)"/>
     <use xlink:href="#DejaVuSans-Bold-48" transform="translate(1478.40625 0)"/>
    </g>
   </g>
  </g>
  <g id="axes_2">
   <g id="patch_3">
    <path d="M 475.451045 236.156568 
C 494.388011 236.156568 512.551918 228.632832 525.942375 215.242375 
C 539.332832 201.851918 546.856568 183.688011 546.856568 164.751045 
C 546.856568 145.814079 539.332832 127.650173 525.942375 114.259716 
C 512.551918 100.869259 494.388011 93.345523 475.451045 93.345523 
C 456.514079 93.345523 438.350173 100.869259 424.959716 114.259716 
C 411.569259 127.650173 404.045523 145.814079 404.045523 164.751045 
C 404.045523 183.688011 411.569259 201.851918 424.959716 215.242375 
C 438.350173 228.632832 456.514079 236.156568 475.451045 236.156568 
z
" clip-path="url(#p1bac3140fc)" style="fill: #059669; opacity: 0.08; stroke: #059669; stroke-width: 1.6; stroke-linejoin: miter"/>
   </g>
   <g id="PathCollection_2">
    <defs>
     <path id="m1f2b369a0d" d="M 0 2.645751 
C 0.701661 2.645751 1.374679 2.366978 1.870829 1.870829 
C 2.366978 1.374679 2.645751 0.701661 2.645751 0 
C 2.645751 -0.701661 2.366978 -1.374679 1.870829 -1.870829 
C 1.374679 -2.366978 0.701661 -2.645751 0 -2.645751 
C -0.701661 -2.645751 -1.374679 -2.366978 -1.870829 -1.870829 
C -2.366978 -1.374679 -2.645751 -0.701661 -2.645751 0 
C -2.645751 0.701661 -2.366978 1.374679 -1.870829 1.870829 
C -1.374679 2.366978 -0.701661 2.645751 0 2.645751 
z
" style="stroke: #ffffff; stroke-opacity: 0.5; stroke-width: 0.5"/>
    </defs>
    <g clip-path="url(#p1bac3140fc)">
     <use xlink:href="#m1f2b369a0d" x="475.487938" y="155.791571" style="fill: #0369a1; fill-opacity: 0.5; stroke: #ffffff; stroke-opacity: 0.5; stroke-width: 0.5"/>
     <use xlink:href="#m1f2b369a0d" x="467.229564" y="191.460179" style="fill: #0369a1; fill-opacity: 0.5; stroke: #ffffff; stroke-opacity: 0.5; stroke-width: 0.5"/>
     <use xlink:href="#m1f2b369a0d" x="461.815323" y="194.490843" style="fill: #0369a1; fill-opacity: 0.5; stroke: #ffffff; stroke-opacity: 0.5; stroke-width: 0.5"/>
     <use xlink:href="#m1f2b369a0d" x="477.254771" y="124.557562" style="fill: #0369a1; fill-opacity: 0.5; stroke: #ffffff; stroke-opacity: 0.5; stroke-width: 0.5"/>
     <use xlink:href="#m1f2b369a0d" x="460.689615" y="183.359286" style="fill: #0369a1; fill-opacity: 0.5; stroke: #ffffff; stroke-opacity: 0.5; stroke-width: 0.5"/>
     <use xlink:href="#m1f2b369a0d" x="490.141565" y="154.04789" style="fill: #0369a1; fill-opacity: 0.5; stroke: #ffffff; stroke-opacity: 0.5; stroke-width: 0.5"/>
     <use xlink:href="#m1f2b369a0d" x="478.612452" y="192.656079" style="fill: #0369a1; fill-opacity: 0.5; stroke: #ffffff; stroke-opacity: 0.5; stroke-width: 0.5"/>
     <use xlink:href="#m1f2b369a0d" x="474.573774" y="143.89868" style="fill: #0369a1; fill-opacity: 0.5; stroke: #ffffff; stroke-opacity: 0.5; stroke-width: 0.5"/>
     <use xlink:href="#m1f2b369a0d" x="435.137622" y="178.475088" style="fill: #0369a1; fill-opacity: 0.5; stroke: #ffffff; stroke-opacity: 0.5; stroke-width: 0.5"/>
     <use xlink:href="#m1f2b369a0d" x="418.432768" y="203.424694" style="fill: #0369a1; fill-opacity: 0.5; stroke: #ffffff; stroke-opacity: 0.5; stroke-width: 0.5"/>
     <use xlink:href="#m1f2b369a0d" x="420.216823" y="171.801504" style="fill: #0369a1; fill-opacity: 0.5; stroke: #ffffff; stroke-opacity: 0.5; stroke-width: 0.5"/>
     <use xlink:href="#m1f2b369a0d" x="437.43992" y="156.615741" style="fill: #0369a1; fill-opacity: 0.5; stroke: #ffffff; stroke-opacity: 0.5; stroke-width: 0.5"/>
     <use xlink:href="#m1f2b369a0d" x="480.152061" y="170.357164" style="fill: #0369a1; fill-opacity: 0.5; stroke: #ffffff; stroke-opacity: 0.5; stroke-width: 0.5"/>
     <use xlink:href="#m1f2b369a0d" x="399.972618" y="180.906618" style="fill: #0369a1; fill-opacity: 0.5; stroke: #ffffff; stroke-opacity: 0.5; stroke-width: 0.5"/>
     <use xlink:href="#m1f2b369a0d" x="473.996487" y="161.352873" style="fill: #0369a1; fill-opacity: 0.5; stroke: #ffffff; stroke-opacity: 0.5; stroke-width: 0.5"/>
     <use xlink:href="#m1f2b369a0d" x="429.561785" y="179.079019" style="fill: #0369a1; fill-opacity: 0.5; stroke: #ffffff; stroke-opacity: 0.5; stroke-width: 0.5"/>
     <use xlink:href="#m1f2b369a0d" x="446.104946" y="189.008333" style="fill: #0369a1; fill-opacity: 0.5; stroke: #ffffff; stroke-opacity: 0.5; stroke-width: 0.5"/>
     <use xlink:href="#m1f2b369a0d" x="507.267734" y="188.969268" style="fill: #0369a1; fill-opacity: 0.5; stroke: #ffffff; stroke-opacity: 0.5; stroke-width: 0.5"/>
     <use xlink:href="#m1f2b369a0d" x="474.475709" y="138.227911" style="fill: #0369a1; fill-opacity: 0.5; stroke: #ffffff; stroke-opacity: 0.5; stroke-width: 0.5"/>
     <use xlink:href="#m1f2b369a0d" x="457.948682" y="168.101023" style="fill: #0369a1; fill-opacity: 0.5; stroke: #ffffff; stroke-opacity: 0.5; stroke-width: 0.5"/>
     <use xlink:href="#m1f2b369a0d" x="478.7639" y="162.83821" style="fill: #0369a1; fill-opacity: 0.5; stroke: #ffffff; stroke-opacity: 0.5; stroke-width: 0.5"/>
     <use xlink:href="#m1f2b369a0d" x="438.71123" y="162.467576" style="fill: #0369a1; fill-opacity: 0.5; stroke: #ffffff; stroke-opacity: 0.5; stroke-width: 0.5"/>
     <use xlink:href="#m1f2b369a0d" x="516.202594" y="211.150409" style="fill: #0369a1; fill-opacity: 0.5; stroke: #ffffff; stroke-opacity: 0.5; stroke-width: 0.5"/>
     <use xlink:href="#m1f2b369a0d" x="501.224207" y="161.17158" style="fill: #0369a1; fill-opacity: 0.5; stroke: #ffffff; stroke-opacity: 0.5; stroke-width: 0.5"/>
     <use xlink:href="#m1f2b369a0d" x="456.213143" y="104.757914" style="fill: #0369a1; fill-opacity: 0.5; stroke: #ffffff; stroke-opacity: 0.5; stroke-width: 0.5"/>
     <use xlink:href="#m1f2b369a0d" x="498.311458" y="200.718103" style="fill: #0369a1; fill-opacity: 0.5; stroke: #ffffff; stroke-opacity: 0.5; stroke-width: 0.5"/>
     <use xlink:href="#m1f2b369a0d" x="477.685811" y="147.455941" style="fill: #0369a1; fill-opacity: 0.5; stroke: #ffffff; stroke-opacity: 0.5; stroke-width: 0.5"/>
     <use xlink:href="#m1f2b369a0d" x="469.789409" y="144.270348" style="fill: #0369a1; fill-opacity: 0.5; stroke: #ffffff; stroke-opacity: 0.5; stroke-width: 0.5"/>
     <use xlink:href="#m1f2b369a0d" x="473.45617" y="144.740078" style="fill: #0369a1; fill-opacity: 0.5; stroke: #ffffff; stroke-opacity: 0.5; stroke-width: 0.5"/>
     <use xlink:href="#m1f2b369a0d" x="518.592798" y="185.014372" style="fill: #0369a1; fill-opacity: 0.5; stroke: #ffffff; stroke-opacity: 0.5; stroke-width: 0.5"/>
     <use xlink:href="#m1f2b369a0d" x="481.543237" y="178.645788" style="fill: #0369a1; fill-opacity: 0.5; stroke: #ffffff; stroke-opacity: 0.5; stroke-width: 0.5"/>
     <use xlink:href="#m1f2b369a0d" x="479.267866" y="200.355389" style="fill: #0369a1; fill-opacity: 0.5; stroke: #ffffff; stroke-opacity: 0.5; stroke-width: 0.5"/>
     <use xlink:href="#m1f2b369a0d" x="458.077605" y="170.635025" style="fill: #0369a1; fill-opacity: 0.5; stroke: #ffffff; stroke-opacity: 0.5; stroke-width: 0.5"/>
     <use xlink:href="#m1f2b369a0d" x="502.405261" y="130.405472" style="fill: #0369a1; fill-opacity: 0.5; stroke: #ffffff; stroke-opacity: 0.5; stroke-width: 0.5"/>
     <use xlink:href="#m1f2b369a0d" x="435.758024" y="188.582624" style="fill: #0369a1; fill-opacity: 0.5; stroke: #ffffff; stroke-opacity: 0.5; stroke-width: 0.5"/>
     <use xlink:href="#m1f2b369a0d" x="494.851886" y="224.504351" style="fill: #0369a1; fill-opacity: 0.5; stroke: #ffffff; stroke-opacity: 0.5; stroke-width: 0.5"/>
     <use xlink:href="#m1f2b369a0d" x="461.560433" y="167.668711" style="fill: #0369a1; fill-opacity: 0.5; stroke: #ffffff; stroke-opacity: 0.5; stroke-width: 0.5"/>
     <use xlink:href="#m1f2b369a0d" x="513.149326" y="144.075602" style="fill: #0369a1; fill-opacity: 0.5; stroke: #ffffff; stroke-opacity: 0.5; stroke-width: 0.5"/>
     <use xlink:href="#m1f2b369a0d" x="465.63781" y="175.804754" style="fill: #0369a1; fill-opacity: 0.5; stroke: #ffffff; stroke-opacity: 0.5; stroke-width: 0.5"/>
     <use xlink:href="#m1f2b369a0d" x="467.947605" y="119.059912" style="fill: #0369a1; fill-opacity: 0.5; stroke: #ffffff; stroke-opacity: 0.5; stroke-width: 0.5"/>
    </g>
   </g>
   <g id="text_3">
    <!-- Same $\tau$, real NREL buildings added -->
    <g style="fill: #1e293b" transform="translate(362.463545 15.94) scale(0.115 -0.115)">
     <defs>
      <path id="DejaVuSans-Bold-36" d="M 3834 4519 
L 3834 3531 
Q 3450 3703 3084 3790 
Q 2719 3878 2394 3878 
Q 1963 3878 1756 3759 
Q 1550 3641 1550 3391 
Q 1550 3203 1689 3098 
Q 1828 2994 2194 2919 
L 2706 2816 
Q 3484 2659 3812 2340 
Q 4141 2022 4141 1434 
Q 4141 663 3683 286 
Q 3225 -91 2284 -91 
Q 1841 -91 1394 -6 
Q 947 78 500 244 
L 500 1259 
Q 947 1022 1364 901 
Q 1781 781 2169 781 
Q 2563 781 2772 912 
Q 2981 1044 2981 1288 
Q 2981 1506 2839 1625 
Q 2697 1744 2272 1838 
L 1806 1941 
Q 1106 2091 782 2419 
Q 459 2747 459 3303 
Q 459 4000 909 4375 
Q 1359 4750 2203 4750 
Q 2588 4750 2994 4692 
Q 3400 4634 3834 4519 
z
" transform="scale(0.015625)"/>
      <path id="DejaVuSans-Bold-50" d="M 3781 2919 
Q 3994 3244 4286 3414 
Q 4578 3584 4928 3584 
Q 5531 3584 5847 3212 
Q 6163 2841 6163 2131 
L 6163 0 
L 5038 0 
L 5038 1825 
Q 5041 1866 5042 1909 
Q 5044 1953 5044 2034 
Q 5044 2406 4934 2573 
Q 4825 2741 4581 2741 
Q 4263 2741 4089 2478 
Q 3916 2216 3909 1719 
L 3909 0 
L 2784 0 
L 2784 1825 
Q 2784 2406 2684 2573 
Q 2584 2741 2328 2741 
Q 2006 2741 1831 2477 
Q 1656 2213 1656 1722 
L 1656 0 
L 531 0 
L 531 3500 
L 1656 3500 
L 1656 2988 
Q 1863 3284 2130 3434 
Q 2397 3584 2719 3584 
Q 3081 3584 3359 3409 
Q 3638 3234 3781 2919 
z
" transform="scale(0.015625)"/>
      <path id="DejaVuSans-Bold-f" d="M 653 1209 
L 1778 1209 
L 1778 256 
L 1006 -909 
L 341 -909 
L 653 256 
L 653 1209 
z
" transform="scale(0.015625)"/>
      <path id="DejaVuSans-Bold-35" d="M 2297 2597 
Q 2675 2597 2839 2737 
Q 3003 2878 3003 3200 
Q 3003 3519 2839 3656 
Q 2675 3794 2297 3794 
L 1791 3794 
L 1791 2597 
L 2297 2597 
z
M 1791 1766 
L 1791 0 
L 588 0 
L 588 4666 
L 2425 4666 
Q 3347 4666 3776 4356 
Q 4206 4047 4206 3378 
Q 4206 2916 3982 2619 
Q 3759 2322 3309 2181 
Q 3556 2125 3751 1926 
Q 3947 1728 4147 1325 
L 4800 0 
L 3519 0 
L 2950 1159 
Q 2778 1509 2601 1637 
Q 2425 1766 2131 1766 
L 1791 1766 
z
" transform="scale(0.015625)"/>
      <path id="DejaVuSans-Bold-28" d="M 588 4666 
L 3834 4666 
L 3834 3756 
L 1791 3756 
L 1791 2888 
L 3713 2888 
L 3713 1978 
L 1791 1978 
L 1791 909 
L 3903 909 
L 3903 0 
L 588 0 
L 588 4666 
z
" transform="scale(0.015625)"/>
      <path id="DejaVuSans-Bold-2f" d="M 588 4666 
L 1791 4666 
L 1791 909 
L 3903 909 
L 3903 0 
L 588 0 
L 588 4666 
z
" transform="scale(0.015625)"/>
      <path id="DejaVuSans-Bold-4a" d="M 2919 594 
Q 2688 288 2409 144 
Q 2131 0 1766 0 
Q 1125 0 706 504 
Q 288 1009 288 1791 
Q 288 2575 706 3076 
Q 1125 3578 1766 3578 
Q 2131 3578 2409 3434 
Q 2688 3291 2919 2981 
L 2919 3500 
L 4044 3500 
L 4044 353 
Q 4044 -491 3511 -936 
Q 2978 -1381 1966 -1381 
Q 1638 -1381 1331 -1331 
Q 1025 -1281 716 -1178 
L 716 -306 
Q 1009 -475 1290 -558 
Q 1572 -641 1856 -641 
Q 2406 -641 2662 -400 
Q 2919 -159 2919 353 
L 2919 594 
z
M 2181 2772 
Q 1834 2772 1640 2515 
Q 1447 2259 1447 1791 
Q 1447 1309 1634 1061 
Q 1822 813 2181 813 
Q 2531 813 2725 1069 
Q 2919 1325 2919 1791 
Q 2919 2259 2725 2515 
Q 2531 2772 2181 2772 
z
" transform="scale(0.015625)"/>
     </defs>
     <use xlink:href="#DejaVuSans-Bold-36" transform="translate(0 0.015625)"/>
     <use xlink:href="#DejaVuSans-Bold-44" transform="translate(72.021484 0.015625)"/>
     <use xlink:href="#DejaVuSans-Bold-50" transform="translate(139.501953 0.015625)"/>
     <use xlink:href="#DejaVuSans-Bold-48" transform="translate(243.701172 0.015625)"/>
     <use xlink:href="#DejaVuSans-Bold-3" transform="translate(311.523438 0.015625)"/>
     <use xlink:href="#DejaVuSans-Oblique-358" transform="translate(346.337891 0.015625)"/>
     <use xlink:href="#DejaVuSans-Bold-f" transform="translate(406.542969 0.015625)"/>
     <use xlink:href="#DejaVuSans-Bold-3" transform="translate(444.53125 0.015625)"/>
     <use xlink:href="#DejaVuSans-Bold-55" transform="translate(479.345703 0.015625)"/>
     <use xlink:href="#DejaVuSans-Bold-48" transform="translate(528.662109 0.015625)"/>
     <use xlink:href="#DejaVuSans-Bold-44" transform="translate(596.484375 0.015625)"/>
     <use xlink:href="#DejaVuSans-Bold-4f" transform="translate(663.964844 0.015625)"/>
     <use xlink:href="#DejaVuSans-Bold-3" transform="translate(698.242188 0.015625)"/>
     <use xlink:href="#DejaVuSans-Bold-31" transform="translate(733.056641 0.015625)"/>
     <use xlink:href="#DejaVuSans-Bold-35" transform="translate(816.748047 0.015625)"/>
     <use xlink:href="#DejaVuSans-Bold-28" transform="translate(893.75 0.015625)"/>
     <use xlink:href="#DejaVuSans-Bold-2f" transform="translate(962.060547 0.015625)"/>
     <use xlink:href="#DejaVuSans-Bold-3" transform="translate(1025.78125 0.015625)"/>
     <use xlink:href="#DejaVuSans-Bold-45" transform="translate(1060.595703 0.015625)"/>
     <use xlink:href="#DejaVuSans-Bold-58" transform="translate(1132.177734 0.015625)"/>
     <use xlink:href="#DejaVuSans-Bold-4c" transform="translate(1203.369141 0.015625)"/>
     <use xlink:href="#DejaVuSans-Bold-4f" transform="translate(1237.646484 0.015625)"/>
     <use xlink:href="#DejaVuSans-Bold-47" transform="translate(1271.923828 0.015625)"/>
     <use xlink:href="#DejaVuSans-Bold-4c" transform="translate(1343.505859 0.015625)"/>
     <use xlink:href="#DejaVuSans-Bold-51" transform="translate(1377.783203 0.015625)"/>
     <use xlink:href="#DejaVuSans-Bold-4a" transform="translate(1448.974609 0.015625)"/>
     <use xlink:href="#DejaVuSans-Bold-56" transform="translate(1520.556641 0.015625)"/>
     <use xlink:href="#DejaVuSans-Bold-3" transform="translate(1580.078125 0.015625)"/>
     <use xlink:href="#DejaVuSans-Bold-44" transform="translate(1614.892578 0.015625)"/>
     <use xlink:href="#DejaVuSans-Bold-47" transform="translate(1682.373047 0.015625)"/>
     <use xlink:href="#DejaVuSans-Bold-47" transform="translate(1753.955078 0.015625)"/>
     <use xlink:href="#DejaVuSans-Bold-48" transform="translate(1825.537109 0.015625)"/>
     <use xlink:href="#DejaVuSans-Bold-47" transform="translate(1893.359375 0.015625)"/>
    </g>
   </g>
   <g id="PathCollection_3">
    <defs>
     <path id="mabb0c6689e" d="M 0 3.24037 
C 0.859356 3.24037 1.683631 2.898944 2.291288 2.291288 
C 2.898944 1.683631 3.24037 0.859356 3.24037 0 
C 3.24037 -0.859356 2.898944 -1.683631 2.291288 -2.291288 
C 1.683631 -2.898944 0.859356 -3.24037 0 -3.24037 
C -0.859356 -3.24037 -1.683631 -2.898944 -2.291288 -2.291288 
C -2.898944 -1.683631 -3.24037 -0.859356 -3.24037 0 
C -3.24037 0.859356 -2.898944 1.683631 -2.291288 2.291288 
C -1.683631 2.898944 -0.859356 3.24037 0 3.24037 
z
" style="stroke: #ffffff; stroke-width: 0.8"/>
    </defs>
    <g clip-path="url(#p1bac3140fc)">
     <use xlink:href="#mabb0c6689e" x="458.641206" y="176.677497" style="fill: #059669; stroke: #ffffff; stroke-width: 0.8"/>
     <use xlink:href="#mabb0c6689e" x="489.298289" y="169.494068" style="fill: #059669; stroke: #ffffff; stroke-width: 0.8"/>
     <use xlink:href="#mabb0c6689e" x="467.703095" y="208.503846" style="fill: #059669; stroke: #ffffff; stroke-width: 0.8"/>
     <use xlink:href="#mabb0c6689e" x="474.998562" y="182.171827" style="fill: #059669; stroke: #ffffff; stroke-width: 0.8"/>
     <use xlink:href="#mabb0c6689e" x="521.248425" y="139.102276" style="fill: #059669; stroke: #ffffff; stroke-width: 0.8"/>
     <use xlink:href="#mabb0c6689e" x="474.502852" y="138.501692" style="fill: #059669; stroke: #ffffff; stroke-width: 0.8"/>
     <use xlink:href="#mabb0c6689e" x="462.103336" y="123.430848" style="fill: #059669; stroke: #ffffff; stroke-width: 0.8"/>
     <use xlink:href="#mabb0c6689e" x="475.238988" y="141.839848" style="fill: #059669; stroke: #ffffff; stroke-width: 0.8"/>
     <use xlink:href="#mabb0c6689e" x="424.753747" y="151.135867" style="fill: #059669; stroke: #ffffff; stroke-width: 0.8"/>
     <use xlink:href="#mabb0c6689e" x="436.702408" y="211.467092" style="fill: #059669; stroke: #ffffff; stroke-width: 0.8"/>
    </g>
   </g>
   <g id="PathCollection_4">
    <defs>
     <path id="mcb32d71ec1" d="M 0 3.24037 
C 0.859356 3.24037 1.683631 2.898944 2.291288 2.291288 
C 2.898944 1.683631 3.24037 0.859356 3.24037 0 
C 3.24037 -0.859356 2.898944 -1.683631 2.291288 -2.291288 
C 1.683631 -2.898944 0.859356 -3.24037 0 -3.24037 
C -0.859356 -3.24037 -1.683631 -2.898944 -2.291288 -2.291288 
C -2.898944 -1.683631 -3.24037 -0.859356 -3.24037 0 
C -3.24037 0.859356 -2.898944 1.683631 -2.291288 2.291288 
C -1.683631 2.898944 -0.859356 3.24037 0 3.24037 
z
" style="stroke: #ffffff; stroke-width: 0.8"/>
    </defs>
    <g clip-path="url(#p1bac3140fc)">
     <use xlink:href="#mcb32d71ec1" x="412.524591" y="260.89027" style="fill: #dc2626; stroke: #ffffff; stroke-width: 0.8"/>
     <use xlink:href="#mcb32d71ec1" x="366.488175" y="111.980787" style="fill: #dc2626; stroke: #ffffff; stroke-width: 0.8"/>
     <use xlink:href="#mcb32d71ec1" x="387.846394" y="177.916248" style="fill: #dc2626; stroke: #ffffff; stroke-width: 0.8"/>
     <use xlink:href="#mcb32d71ec1" x="560.597162" y="252.274129" style="fill: #dc2626; stroke: #ffffff; stroke-width: 0.8"/>
     <use xlink:href="#mcb32d71ec1" x="429.508408" y="96.422001" style="fill: #dc2626; stroke: #ffffff; stroke-width: 0.8"/>
     <use xlink:href="#mcb32d71ec1" x="378.992065" y="226.213445" style="fill: #dc2626; stroke: #ffffff; stroke-width: 0.8"/>
     <use xlink:href="#mcb32d71ec1" x="428.162668" y="271.596091" style="fill: #dc2626; stroke: #ffffff; stroke-width: 0.8"/>
     <use xlink:href="#mcb32d71ec1" x="421.349528" y="95.376965" style="fill: #dc2626; stroke: #ffffff; stroke-width: 0.8"/>
     <use xlink:href="#mcb32d71ec1" x="376.107059" y="176.72981" style="fill: #dc2626; stroke: #ffffff; stroke-width: 0.8"/>
    </g>
   </g>
   <g id="legend_1">
    <g id="PathCollection_5">
     <g>
      <use xlink:href="#mabb0c6689e" x="540.420841" y="284.339591" style="fill: #059669; stroke: #ffffff; stroke-width: 0.8"/>
     </g>
    </g>
    <g id="text_4">
     <!-- NREL, trusted -->
     <g transform="translate(554.820841 286.439591) scale(0.08 -0.08)">
      <defs>
       <path id="DejaVuSans-35" d="M 2841 2188 
Q 3044 2119 3236 1894 
Q 3428 1669 3622 1275 
L 4263 0 
L 3584 0 
L 2988 1197 
Q 2756 1666 2539 1819 
Q 2322 1972 1947 1972 
L 1259 1972 
L 1259 0 
L 628 0 
L 628 4666 
L 2053 4666 
Q 2853 4666 3247 4331 
Q 3641 3997 3641 3322 
Q 3641 2881 3436 2590 
Q 3231 2300 2841 2188 
z
M 1259 4147 
L 1259 2491 
L 2053 2491 
Q 2509 2491 2742 2702 
Q 2975 2913 2975 3322 
Q 2975 3731 2742 3939 
Q 2509 4147 2053 4147 
L 1259 4147 
z
" transform="scale(0.015625)"/>
       <path id="DejaVuSans-28" d="M 628 4666 
L 3578 4666 
L 3578 4134 
L 1259 4134 
L 1259 2753 
L 3481 2753 
L 3481 2222 
L 1259 2222 
L 1259 531 
L 3634 531 
L 3634 0 
L 628 0 
L 628 4666 
z
" transform="scale(0.015625)"/>
       <path id="DejaVuSans-2f" d="M 628 4666 
L 1259 4666 
L 1259 531 
L 3531 531 
L 3531 0 
L 628 0 
L 628 4666 
z
" transform="scale(0.015625)"/>
       <path id="DejaVuSans-f" d="M 750 794 
L 1409 794 
L 1409 256 
L 897 -744 
L 494 -744 
L 750 256 
L 750 794 
z
" transform="scale(0.015625)"/>
       <path id="DejaVuSans-55" d="M 2631 2963 
Q 2534 3019 2420 3045 
Q 2306 3072 2169 3072 
Q 1681 3072 1420 2755 
Q 1159 2438 1159 1844 
L 1159 0 
L 581 0 
L 581 3500 
L 1159 3500 
L 1159 2956 
Q 1341 3275 1631 3429 
Q 1922 3584 2338 3584 
Q 2397 3584 2469 3576 
Q 2541 3569 2628 3553 
L 2631 2963 
z
" transform="scale(0.015625)"/>
      </defs>
      <use xlink:href="#DejaVuSans-31"/>
      <use xlink:href="#DejaVuSans-35" transform="translate(74.8125 0)"/>
      <use xlink:href="#DejaVuSans-28" transform="translate(144.296875 0)"/>
      <use xlink:href="#DejaVuSans-2f" transform="translate(207.484375 0)"/>
      <use xlink:href="#DejaVuSans-f" transform="translate(263.203125 0)"/>
      <use xlink:href="#DejaVuSans-3" transform="translate(294.984375 0)"/>
      <use xlink:href="#DejaVuSans-57" transform="translate(326.765625 0)"/>
      <use xlink:href="#DejaVuSans-55" transform="translate(365.96875 0)"/>
      <use xlink:href="#DejaVuSans-58" transform="translate(407.078125 0)"/>
      <use xlink:href="#DejaVuSans-56" transform="translate(470.453125 0)"/>
      <use xlink:href="#DejaVuSans-57" transform="translate(522.546875 0)"/>
      <use xlink:href="#DejaVuSans-48" transform="translate(561.75 0)"/>
      <use xlink:href="#DejaVuSans-47" transform="translate(623.28125 0)"/>
     </g>
    </g>
    <g id="PathCollection_6">
     <g>
      <use xlink:href="#mcb32d71ec1" x="540.420841" y="296.340216" style="fill: #dc2626; stroke: #ffffff; stroke-width: 0.8"/>
     </g>
    </g>
    <g id="text_5">
     <!-- NREL, flagged -->
     <g transform="translate(554.820841 298.440216) scale(0.08 -0.08)">
      <defs>
       <path id="DejaVuSans-13b0" d="M 1831 4863 
L 3431 4863 
L 3431 0 
L 2853 0 
L 2853 4384 
L 1825 4384 
Q 1516 4384 1395 4259 
Q 1275 4134 1275 3809 
L 1275 3500 
L 2222 3500 
L 2222 3053 
L 1275 3053 
L 1275 0 
L 697 0 
L 697 3053 
L 147 3053 
L 147 3500 
L 697 3500 
L 697 3744 
Q 697 4328 969 4595 
Q 1241 4863 1831 4863 
z
" transform="scale(0.015625)"/>
       <path id="DejaVuSans-4a" d="M 2906 1791 
Q 2906 2416 2648 2759 
Q 2391 3103 1925 3103 
Q 1463 3103 1205 2759 
Q 947 2416 947 1791 
Q 947 1169 1205 825 
Q 1463 481 1925 481 
Q 2391 481 2648 825 
Q 2906 1169 2906 1791 
z
M 3481 434 
Q 3481 -459 3084 -895 
Q 2688 -1331 1869 -1331 
Q 1566 -1331 1297 -1286 
Q 1028 -1241 775 -1147 
L 775 -588 
Q 1028 -725 1275 -790 
Q 1522 -856 1778 -856 
Q 2344 -856 2625 -561 
Q 2906 -266 2906 331 
L 2906 616 
Q 2728 306 2450 153 
Q 2172 0 1784 0 
Q 1141 0 747 490 
Q 353 981 353 1791 
Q 353 2603 747 3093 
Q 1141 3584 1784 3584 
Q 2172 3584 2450 3431 
Q 2728 3278 2906 2969 
L 2906 3500 
L 3481 3500 
L 3481 434 
z
" transform="scale(0.015625)"/>
      </defs>
      <use xlink:href="#DejaVuSans-31"/>
      <use xlink:href="#DejaVuSans-35" transform="translate(74.8125 0)"/>
      <use xlink:href="#DejaVuSans-28" transform="translate(144.296875 0)"/>
      <use xlink:href="#DejaVuSans-2f" transform="translate(207.484375 0)"/>
      <use xlink:href="#DejaVuSans-f" transform="translate(263.203125 0)"/>
      <use xlink:href="#DejaVuSans-3" transform="translate(294.984375 0)"/>
      <use xlink:href="#DejaVuSans-13b0" transform="translate(326.765625 0)"/>
      <use xlink:href="#DejaVuSans-44" transform="translate(389.75 0)"/>
      <use xlink:href="#DejaVuSans-4a" transform="translate(451.03125 0)"/>
      <use xlink:href="#DejaVuSans-4a" transform="translate(514.515625 0)"/>
      <use xlink:href="#DejaVuSans-48" transform="translate(578 0)"/>
      <use xlink:href="#DejaVuSans-47" transform="translate(639.53125 0)"/>
     </g>
    </g>
   </g>
  </g>
 </g>
 <defs>
  <clipPath id="pff0da0988a">
   <rect x="7.2" y="21.94" width="285.622091" height="285.622091"/>
  </clipPath>
  <clipPath id="p1bac3140fc">
   <rect x="332.64" y="21.94" width="285.622091" height="285.622091"/>
  </clipPath>
 </defs>
</svg>
