<?xml version="1.0" encoding="utf-8" standalone="no"?>
<!DOCTYPE svg PUBLIC "-//W3C//DTD SVG 1.1//EN"
  "http://www.w3.org/Graphics/SVG/1.1/DTD/svg11.dtd">
<svg xmlns:xlink="http://www.w3.org/1999/xlink" width="661.68pt" height="288pt" viewBox="0 0 661.68 288" xmlns="http://www.w3.org/2000/svg" version="1.1">
 <metadata>
  <rdf:RDF xmlns:dc="http://purl.org/dc/elements/1.1/" xmlns:cc="http://creativecommons.org/ns#" xmlns:rdf="http://www.w3.org/1999/02/22-rdf-syntax-ns#">
   <cc:Work>
    <dc:type rdf:resource="http://purl.org/dc/dcmitype/StillImage"/>
    <dc:date>2026-07-19T20:45:46.663642</dc:date>
    <dc:format>image/svg+xml</dc:format>
    <dc:creator>
     <cc:Agent>
      <dc:title>Matplotlib v3.11.0, https://matplotlib.org/</dc:title>
     </cc:Agent>
    </dc:creator>
   </cc:Work>
  </rdf:RDF>
 </metadata>
 <defs>
  <style type="text/css">*{stroke-linejoin: round; stroke-linecap: butt}</style>
 </defs>
 <g id="figure_1">
  <g id="patch_1">
   <path d="M 0 288 
L 661.68 288 
L 661.68 0 
L 0 0 
z
" style="fill: #ffffff"/>
  </g>
  <g id="axes_1">
   <g id="patch_2">
    <path d="M 10.8 247.197891 
L 325.44 247.197891 
L 325.44 25.44 
L 10.8 25.44 
z
" style="fill: #ffffff"/>
   </g>
   <g id="line2d_1">
    <path d="M 25.101818 233.897697 
L 25.101818 237.117987 
" clip-path="url(#p8240517cde)" style="fill: none; stroke: #dc2626; stroke-opacity: 0.8; stroke-width: 0.8; stroke-linecap: square"/>
   </g>
   <g id="line2d_2">
    <path d="M 54.190262 212.129774 
L 54.190262 235.330141 
" clip-path="url(#p8240517cde)" style="fill: none; stroke: #dc2626; stroke-opacity: 0.8; stroke-width: 0.8; stroke-linecap: square"/>
   </g>
   <g id="line2d_3">
    <path d="M 83.278706 203.602545 
L 83.278706 217.080255 
" clip-path="url(#p8240517cde)" style="fill: none; stroke: #dc2626; stroke-opacity: 0.8; stroke-width: 0.8; stroke-linecap: square"/>
   </g>
   <g id="line2d_4">
    <path d="M 112.367149 177.483647 
L 112.367149 202.947394 
" clip-path="url(#p8240517cde)" style="fill: none; stroke: #dc2626; stroke-opacity: 0.8; stroke-width: 0.8; stroke-linecap: square"/>
   </g>
   <g id="line2d_5">
    <path d="M 141.455593 85.928144 
L 141.455593 188.100859 
" clip-path="url(#p8240517cde)" style="fill: none; stroke: #dc2626; stroke-opacity: 0.8; stroke-width: 0.8; stroke-linecap: square"/>
   </g>
   <g id="line2d_6">
    <path d="M 170.544037 35.661959 
L 170.544037 103.620438 
" clip-path="url(#p8240517cde)" style="fill: none; stroke: #dc2626; stroke-opacity: 0.8; stroke-width: 0.8; stroke-linecap: square"/>
   </g>
   <g id="line2d_7">
    <path d="M 199.632481 102.379562 
L 199.632481 35.828376 
" clip-path="url(#p8240517cde)" style="fill: none; stroke: #dc2626; stroke-opacity: 0.8; stroke-width: 0.8; stroke-linecap: square"/>
   </g>
   <g id="line2d_8">
    <path d="M 228.720924 191.905052 
L 228.720924 84.69972 
" clip-path="url(#p8240517cde)" style="fill: none; stroke: #dc2626; stroke-opacity: 0.8; stroke-width: 0.8; stroke-linecap: square"/>
   </g>
   <g id="line2d_9">
    <path d="M 257.809368 229.519369 
L 257.809368 179.20954 
" clip-path="url(#p8240517cde)" style="fill: none; stroke: #dc2626; stroke-opacity: 0.8; stroke-width: 0.8; stroke-linecap: square"/>
   </g>
   <g id="line2d_10">
    <path d="M 286.897812 236.495041 
L 286.897812 226.091372 
" clip-path="url(#p8240517cde)" style="fill: none; stroke: #dc2626; stroke-opacity: 0.8; stroke-width: 0.8; stroke-linecap: square"/>
   </g>
   <g id="matplotlib.axis_1">
    <g id="xtick_1">
     <g id="line2d_11">
      <defs>
       <path id="me4ad4e1eb4" d="M 0 0 
L 0 3.5 
" style="stroke: #000000; stroke-width: 0.8"/>
      </defs>
      <g>
       <use xlink:href="#me4ad4e1eb4" x="25.101818" y="247.197891" style="stroke: #000000; stroke-width: 0.8"/>
      </g>
     </g>
     <g id="text_1">
      <!-- 0 -->
      <g transform="translate(21.920568 261.795547) scale(0.1 -0.1)">
       <defs>
        <path id="DejaVuSans-13" d="M 2034 4250 
Q 1547 4250 1301 3770 
Q 1056 3291 1056 2328 
Q 1056 1369 1301 889 
Q 1547 409 2034 409 
Q 2525 409 2770 889 
Q 3016 1369 3016 2328 
Q 3016 3291 2770 3770 
Q 2525 4250 2034 4250 
z
M 2034 4750 
Q 2819 4750 3233 4129 
Q 3647 3509 3647 2328 
Q 3647 1150 3233 529 
Q 2819 -91 2034 -91 
Q 1250 -91 836 529 
Q 422 1150 422 2328 
Q 422 3509 836 4129 
Q 1250 4750 2034 4750 
z
" transform="scale(0.015625)"/>
       </defs>
       <use xlink:href="#DejaVuSans-13"/>
      </g>
     </g>
    </g>
    <g id="xtick_2">
     <g id="line2d_12">
      <g>
       <use xlink:href="#me4ad4e1eb4" x="82.309091" y="247.197891" style="stroke: #000000; stroke-width: 0.8"/>
      </g>
     </g>
     <g id="text_2">
      <!-- 2 -->
      <g transform="translate(79.127841 261.795547) scale(0.1 -0.1)">
       <defs>
        <path id="DejaVuSans-15" d="M 1228 531 
L 3431 531 
L 3431 0 
L 469 0 
L 469 531 
Q 828 903 1448 1529 
Q 2069 2156 2228 2338 
Q 2531 2678 2651 2914 
Q 2772 3150 2772 3378 
Q 2772 3750 2511 3984 
Q 2250 4219 1831 4219 
Q 1534 4219 1204 4116 
Q 875 4013 500 3803 
L 500 4441 
Q 881 4594 1212 4672 
Q 1544 4750 1819 4750 
Q 2544 4750 2975 4387 
Q 3406 4025 3406 3419 
Q 3406 3131 3298 2873 
Q 3191 2616 2906 2266 
Q 2828 2175 2409 1742 
Q 1991 1309 1228 531 
z
" transform="scale(0.015625)"/>
       </defs>
       <use xlink:href="#DejaVuSans-15"/>
      </g>
     </g>
    </g>
    <g id="xtick_3">
     <g id="line2d_13">
      <g>
       <use xlink:href="#me4ad4e1eb4" x="139.516364" y="247.197891" style="stroke: #000000; stroke-width: 0.8"/>
      </g>
     </g>
     <g id="text_3">
      <!-- 4 -->
      <g transform="translate(136.335114 261.795547) scale(0.1 -0.1)">
       <defs>
        <path id="DejaVuSans-17" d="M 2419 4116 
L 825 1625 
L 2419 1625 
L 2419 4116 
z
M 2253 4666 
L 3047 4666 
L 3047 1625 
L 3713 1625 
L 3713 1100 
L 3047 1100 
L 3047 0 
L 2419 0 
L 2419 1100 
L 313 1100 
L 313 1709 
L 2253 4666 
z
" transform="scale(0.015625)"/>
       </defs>
       <use xlink:href="#DejaVuSans-17"/>
      </g>
     </g>
    </g>
    <g id="xtick_4">
     <g id="line2d_14">
      <g>
       <use xlink:href="#me4ad4e1eb4" x="196.723636" y="247.197891" style="stroke: #000000; stroke-width: 0.8"/>
      </g>
     </g>
     <g id="text_4">
      <!-- 6 -->
      <g transform="translate(193.542386 261.795547) scale(0.1 -0.1)">
       <defs>
        <path id="DejaVuSans-19" d="M 2113 2584 
Q 1688 2584 1439 2293 
Q 1191 2003 1191 1497 
Q 1191 994 1439 701 
Q 1688 409 2113 409 
Q 2538 409 2786 701 
Q 3034 994 3034 1497 
Q 3034 2003 2786 2293 
Q 2538 2584 2113 2584 
z
M 3366 4563 
L 3366 3988 
Q 3128 4100 2886 4159 
Q 2644 4219 2406 4219 
Q 1781 4219 1451 3797 
Q 1122 3375 1075 2522 
Q 1259 2794 1537 2939 
Q 1816 3084 2150 3084 
Q 2853 3084 3261 2657 
Q 3669 2231 3669 1497 
Q 3669 778 3244 343 
Q 2819 -91 2113 -91 
Q 1303 -91 875 529 
Q 447 1150 447 2328 
Q 447 3434 972 4092 
Q 1497 4750 2381 4750 
Q 2619 4750 2861 4703 
Q 3103 4656 3366 4563 
z
" transform="scale(0.015625)"/>
       </defs>
       <use xlink:href="#DejaVuSans-19"/>
      </g>
     </g>
    </g>
    <g id="xtick_5">
     <g id="line2d_15">
      <g>
       <use xlink:href="#me4ad4e1eb4" x="253.930909" y="247.197891" style="stroke: #000000; stroke-width: 0.8"/>
      </g>
     </g>
     <g id="text_5">
      <!-- 8 -->
      <g transform="translate(250.749659 261.795547) scale(0.1 -0.1)">
       <defs>
        <path id="DejaVuSans-1b" d="M 2034 2216 
Q 1584 2216 1326 1975 
Q 1069 1734 1069 1313 
Q 1069 891 1326 650 
Q 1584 409 2034 409 
Q 2484 409 2743 651 
Q 3003 894 3003 1313 
Q 3003 1734 2745 1975 
Q 2488 2216 2034 2216 
z
M 1403 2484 
Q 997 2584 770 2862 
Q 544 3141 544 3541 
Q 544 4100 942 4425 
Q 1341 4750 2034 4750 
Q 2731 4750 3128 4425 
Q 3525 4100 3525 3541 
Q 3525 3141 3298 2862 
Q 3072 2584 2669 2484 
Q 3125 2378 3379 2068 
Q 3634 1759 3634 1313 
Q 3634 634 3220 271 
Q 2806 -91 2034 -91 
Q 1263 -91 848 271 
Q 434 634 434 1313 
Q 434 1759 690 2068 
Q 947 2378 1403 2484 
z
M 1172 3481 
Q 1172 3119 1398 2916 
Q 1625 2713 2034 2713 
Q 2441 2713 2670 2916 
Q 2900 3119 2900 3481 
Q 2900 3844 2670 4047 
Q 2441 4250 2034 4250 
Q 1625 4250 1398 4047 
Q 1172 3844 1172 3481 
z
" transform="scale(0.015625)"/>
       </defs>
       <use xlink:href="#DejaVuSans-1b"/>
      </g>
     </g>
    </g>
    <g id="xtick_6">
     <g id="line2d_16">
      <g>
       <use xlink:href="#me4ad4e1eb4" x="311.138182" y="247.197891" style="stroke: #000000; stroke-width: 0.8"/>
      </g>
     </g>
     <g id="text_6">
      <!-- 10 -->
      <g transform="translate(304.775682 261.795547) scale(0.1 -0.1)">
       <defs>
        <path id="DejaVuSans-14" d="M 794 531 
L 1825 531 
L 1825 4091 
L 703 3866 
L 703 4441 
L 1819 4666 
L 2450 4666 
L 2450 531 
L 3481 531 
L 3481 0 
L 794 0 
L 794 531 
z
" transform="scale(0.015625)"/>
       </defs>
       <use xlink:href="#DejaVuSans-14"/>
       <use xlink:href="#DejaVuSans-13" transform="translate(63.625 0)"/>
      </g>
     </g>
    </g>
    <g id="text_7">
     <!-- time of day -->
     <g transform="translate(142.477734 275.036484) scale(0.09 -0.09)">
      <defs>
       <path id="DejaVuSans-57" d="M 1172 4494 
L 1172 3500 
L 2356 3500 
L 2356 3053 
L 1172 3053 
L 1172 1153 
Q 1172 725 1289 603 
Q 1406 481 1766 481 
L 2356 481 
L 2356 0 
L 1766 0 
Q 1100 0 847 248 
Q 594 497 594 1153 
L 594 3053 
L 172 3053 
L 172 3500 
L 594 3500 
L 594 4494 
L 1172 4494 
z
" transform="scale(0.015625)"/>
       <path id="DejaVuSans-4c" d="M 603 3500 
L 1178 3500 
L 1178 0 
L 603 0 
L 603 3500 
z
M 603 4863 
L 1178 4863 
L 1178 4134 
L 603 4134 
L 603 4863 
z
" transform="scale(0.015625)"/>
       <path id="DejaVuSans-50" d="M 3328 2828 
Q 3544 3216 3844 3400 
Q 4144 3584 4550 3584 
Q 5097 3584 5394 3201 
Q 5691 2819 5691 2113 
L 5691 0 
L 5113 0 
L 5113 2094 
Q 5113 2597 4934 2840 
Q 4756 3084 4391 3084 
Q 3944 3084 3684 2787 
Q 3425 2491 3425 1978 
L 3425 0 
L 2847 0 
L 2847 2094 
Q 2847 2600 2669 2842 
Q 2491 3084 2119 3084 
Q 1678 3084 1418 2786 
Q 1159 2488 1159 1978 
L 1159 0 
L 581 0 
L 581 3500 
L 1159 3500 
L 1159 2956 
Q 1356 3278 1631 3431 
Q 1906 3584 2284 3584 
Q 2666 3584 2933 3390 
Q 3200 3197 3328 2828 
z
" transform="scale(0.015625)"/>
       <path id="DejaVuSans-48" d="M 3597 1894 
L 3597 1613 
L 953 1613 
Q 991 1019 1311 708 
Q 1631 397 2203 397 
Q 2534 397 2845 478 
Q 3156 559 3463 722 
L 3463 178 
Q 3153 47 2828 -22 
Q 2503 -91 2169 -91 
Q 1331 -91 842 396 
Q 353 884 353 1716 
Q 353 2575 817 3079 
Q 1281 3584 2069 3584 
Q 2775 3584 3186 3129 
Q 3597 2675 3597 1894 
z
M 3022 2063 
Q 3016 2534 2758 2815 
Q 2500 3097 2075 3097 
Q 1594 3097 1305 2825 
Q 1016 2553 972 2059 
L 3022 2063 
z
" transform="scale(0.015625)"/>
       <path id="DejaVuSans-3" transform="scale(0.015625)"/>
       <path id="DejaVuSans-52" d="M 1959 3097 
Q 1497 3097 1228 2736 
Q 959 2375 959 1747 
Q 959 1119 1226 758 
Q 1494 397 1959 397 
Q 2419 397 2687 759 
Q 2956 1122 2956 1747 
Q 2956 2369 2687 2733 
Q 2419 3097 1959 3097 
z
M 1959 3584 
Q 2709 3584 3137 3096 
Q 3566 2609 3566 1747 
Q 3566 888 3137 398 
Q 2709 -91 1959 -91 
Q 1206 -91 779 398 
Q 353 888 353 1747 
Q 353 2609 779 3096 
Q 1206 3584 1959 3584 
z
" transform="scale(0.015625)"/>
       <path id="DejaVuSans-49" d="M 2375 4863 
L 2375 4384 
L 1825 4384 
Q 1516 4384 1395 4259 
Q 1275 4134 1275 3809 
L 1275 3500 
L 2222 3500 
L 2222 3053 
L 1275 3053 
L 1275 0 
L 697 0 
L 697 3053 
L 147 3053 
L 147 3500 
L 697 3500 
L 697 3744 
Q 697 4328 969 4595 
Q 1241 4863 1831 4863 
L 2375 4863 
z
" transform="scale(0.015625)"/>
       <path id="DejaVuSans-47" d="M 2906 2969 
L 2906 4863 
L 3481 4863 
L 3481 0 
L 2906 0 
L 2906 525 
Q 2725 213 2448 61 
Q 2172 -91 1784 -91 
Q 1150 -91 751 415 
Q 353 922 353 1747 
Q 353 2572 751 3078 
Q 1150 3584 1784 3584 
Q 2172 3584 2448 3432 
Q 2725 3281 2906 2969 
z
M 947 1747 
Q 947 1113 1208 752 
Q 1469 391 1925 391 
Q 2381 391 2643 752 
Q 2906 1113 2906 1747 
Q 2906 2381 2643 2742 
Q 2381 3103 1925 3103 
Q 1469 3103 1208 2742 
Q 947 2381 947 1747 
z
" transform="scale(0.015625)"/>
       <path id="DejaVuSans-44" d="M 2194 1759 
Q 1497 1759 1228 1600 
Q 959 1441 959 1056 
Q 959 750 1161 570 
Q 1363 391 1709 391 
Q 2188 391 2477 730 
Q 2766 1069 2766 1631 
L 2766 1759 
L 2194 1759 
z
M 3341 1997 
L 3341 0 
L 2766 0 
L 2766 531 
Q 2569 213 2275 61 
Q 1981 -91 1556 -91 
Q 1019 -91 701 211 
Q 384 513 384 1019 
Q 384 1609 779 1909 
Q 1175 2209 1959 2209 
L 2766 2209 
L 2766 2266 
Q 2766 2663 2505 2880 
Q 2244 3097 1772 3097 
Q 1472 3097 1187 3025 
Q 903 2953 641 2809 
L 641 3341 
Q 956 3463 1253 3523 
Q 1550 3584 1831 3584 
Q 2591 3584 2966 3190 
Q 3341 2797 3341 1997 
z
" transform="scale(0.015625)"/>
       <path id="DejaVuSans-5c" d="M 2059 -325 
Q 1816 -950 1584 -1140 
Q 1353 -1331 966 -1331 
L 506 -1331 
L 506 -850 
L 844 -850 
Q 1081 -850 1212 -737 
Q 1344 -625 1503 -206 
L 1606 56 
L 191 3500 
L 800 3500 
L 1894 763 
L 2988 3500 
L 3597 3500 
L 2059 -325 
z
" transform="scale(0.015625)"/>
      </defs>
      <use xlink:href="#DejaVuSans-57"/>
      <use xlink:href="#DejaVuSans-4c" transform="translate(39.203125 0)"/>
      <use xlink:href="#DejaVuSans-50" transform="translate(66.984375 0)"/>
      <use xlink:href="#DejaVuSans-48" transform="translate(164.390625 0)"/>
      <use xlink:href="#DejaVuSans-3" transform="translate(225.921875 0)"/>
      <use xlink:href="#DejaVuSans-52" transform="translate(257.703125 0)"/>
      <use xlink:href="#DejaVuSans-49" transform="translate(318.890625 0)"/>
      <use xlink:href="#DejaVuSans-3" transform="translate(354.09375 0)"/>
      <use xlink:href="#DejaVuSans-47" transform="translate(385.875 0)"/>
      <use xlink:href="#DejaVuSans-44" transform="translate(449.359375 0)"/>
      <use xlink:href="#DejaVuSans-5c" transform="translate(510.640625 0)"/>
     </g>
    </g>
   </g>
   <g id="matplotlib.axis_2"/>
   <g id="line2d_17">
    <path d="M 25.101818 233.897697 
L 29.949892 231.895846 
L 34.797966 229.125122 
L 39.64604 225.562423 
L 44.494114 221.327141 
L 49.342188 216.705799 
L 54.190262 212.129774 
L 59.038336 208.097359 
L 63.88641 205.052579 
L 68.734484 203.254282 
L 73.582558 202.678943 
L 78.430632 202.992511 
L 83.278706 203.602545 
L 88.12678 203.772856 
L 92.974854 202.762458 
L 97.822928 199.94764 
L 102.671002 194.899512 
L 107.519076 187.41077 
L 112.367149 177.483647 
L 117.215223 165.299149 
L 122.063297 151.185139 
L 126.911371 135.592086 
L 131.759445 119.076121 
L 136.607519 102.283322 
L 141.455593 85.928144 
L 146.303667 70.761314 
L 151.151741 57.526544 
L 155.999815 46.909243 
L 160.847889 39.483126 
L 165.695963 35.661778 
L 170.544037 35.661959 
L 175.392111 39.483908 
L 180.240185 46.911589 
L 185.088259 57.533027 
L 189.936333 70.778191 
L 194.784407 85.969621 
L 199.632481 102.379562 
L 204.480555 119.28696 
L 209.328629 136.028198 
L 214.176703 152.036848 
L 219.024777 166.869633 
L 223.872851 180.217801 
L 228.720924 191.905052 
L 233.568998 201.874529 
L 238.417072 210.168276 
L 243.265146 216.902748 
L 248.11322 222.243687 
L 252.961294 226.382994 
L 257.809368 229.519369 
L 262.657442 231.843614 
L 267.505516 233.528718 
L 272.35359 234.724302 
L 277.201664 235.554618 
L 282.049738 236.11917 
L 286.897812 236.495041 
L 291.745886 236.740125 
L 296.59396 236.896653 
L 301.442034 236.994584 
L 306.290108 237.054611 
L 311.138182 237.090662 
" clip-path="url(#p8240517cde)" style="fill: none; stroke: #1e293b; stroke-width: 1.8; stroke-linecap: square"/>
   </g>
   <g id="line2d_18">
    <path d="M 25.101818 237.117987 
L 29.949892 237.087948 
L 34.797966 237.02213 
L 39.64604 236.886459 
L 44.494114 236.623629 
L 49.342188 236.145571 
L 54.190262 235.330141 
L 59.038336 234.027686 
L 63.88641 232.083199 
L 68.734484 229.376411 
L 73.582558 225.874819 
L 78.430632 221.685018 
L 83.278706 217.080255 
L 88.12678 212.482464 
L 92.974854 208.38864 
L 97.822928 205.252108 
L 102.671002 203.350824 
L 107.519076 202.685954 
L 112.367149 202.947394 
L 117.215223 203.559774 
L 122.063297 203.793335 
L 126.911371 202.902531 
L 131.759445 200.250728 
L 136.607519 195.391831 
L 141.455593 188.100859 
L 146.303667 178.364297 
L 151.151741 166.350091 
L 155.999815 152.375367 
L 160.847889 136.881479 
L 165.695963 120.416649 
L 170.544037 103.620438 
L 175.392111 87.202856 
L 180.240185 71.913185 
L 185.088259 58.497512 
L 189.936333 47.64789 
L 194.784407 39.948865 
L 199.632481 35.828376 
L 204.480555 35.519904 
L 209.328629 39.041275 
L 214.176703 46.193261 
L 219.024777 56.578377 
L 223.872851 69.637506 
L 228.720924 84.69972 
L 233.568998 101.03915 
L 238.417072 117.932221 
L 243.265146 134.709087 
L 248.11322 150.794399 
L 252.961294 165.734417 
L 257.809368 179.20954 
L 262.657442 191.033223 
L 267.505516 201.139735 
L 272.35359 209.564079 
L 277.201664 216.417691 
L 282.049738 221.863263 
L 286.897812 226.091372 
L 291.745886 229.300781 
L 296.59396 231.683348 
L 301.442034 233.413746 
L 306.290108 234.643582 
L 311.138182 235.499141 
" clip-path="url(#p8240517cde)" style="fill: none; stroke: #0369a1; stroke-width: 1.8; stroke-linecap: square"/>
   </g>
   <g id="patch_3">
    <path d="M 10.8 247.197891 
L 325.44 247.197891 
" style="fill: none; stroke: #000000; stroke-width: 0.8; stroke-linejoin: miter; stroke-linecap: square"/>
   </g>
   <g id="text_8">
    <!-- Euclidean: point by point -->
    <g style="fill: #1e293b" transform="translate(90.366328 19.44) scale(0.11 -0.11)">
     <defs>
      <path id="DejaVuSans-Bold-28" d="M 588 4666 
L 3834 4666 
L 3834 3756 
L 1791 3756 
L 1791 2888 
L 3713 2888 
L 3713 1978 
L 1791 1978 
L 1791 909 
L 3903 909 
L 3903 0 
L 588 0 
L 588 4666 
z
" transform="scale(0.015625)"/>
      <path id="DejaVuSans-Bold-58" d="M 500 1363 
L 500 3500 
L 1625 3500 
L 1625 3150 
Q 1625 2866 1622 2436 
Q 1619 2006 1619 1863 
Q 1619 1441 1641 1255 
Q 1663 1069 1716 984 
Q 1784 875 1895 815 
Q 2006 756 2150 756 
Q 2500 756 2700 1025 
Q 2900 1294 2900 1772 
L 2900 3500 
L 4019 3500 
L 4019 0 
L 2900 0 
L 2900 506 
Q 2647 200 2364 54 
Q 2081 -91 1741 -91 
Q 1134 -91 817 281 
Q 500 653 500 1363 
z
" transform="scale(0.015625)"/>
      <path id="DejaVuSans-Bold-46" d="M 3366 3391 
L 3366 2478 
Q 3138 2634 2908 2709 
Q 2678 2784 2431 2784 
Q 1963 2784 1702 2511 
Q 1441 2238 1441 1747 
Q 1441 1256 1702 982 
Q 1963 709 2431 709 
Q 2694 709 2930 787 
Q 3166 866 3366 1019 
L 3366 103 
Q 3103 6 2833 -42 
Q 2563 -91 2291 -91 
Q 1344 -91 809 395 
Q 275 881 275 1747 
Q 275 2613 809 3098 
Q 1344 3584 2291 3584 
Q 2566 3584 2833 3536 
Q 3100 3488 3366 3391 
z
" transform="scale(0.015625)"/>
      <path id="DejaVuSans-Bold-4f" d="M 538 4863 
L 1656 4863 
L 1656 0 
L 538 0 
L 538 4863 
z
" transform="scale(0.015625)"/>
      <path id="DejaVuSans-Bold-4c" d="M 538 3500 
L 1656 3500 
L 1656 0 
L 538 0 
L 538 3500 
z
M 538 4863 
L 1656 4863 
L 1656 3950 
L 538 3950 
L 538 4863 
z
" transform="scale(0.015625)"/>
      <path id="DejaVuSans-Bold-47" d="M 2919 2988 
L 2919 4863 
L 4044 4863 
L 4044 0 
L 2919 0 
L 2919 506 
Q 2688 197 2409 53 
Q 2131 -91 1766 -91 
Q 1119 -91 703 423 
Q 288 938 288 1747 
Q 288 2556 703 3070 
Q 1119 3584 1766 3584 
Q 2128 3584 2408 3439 
Q 2688 3294 2919 2988 
z
M 2181 722 
Q 2541 722 2730 984 
Q 2919 1247 2919 1747 
Q 2919 2247 2730 2509 
Q 2541 2772 2181 2772 
Q 1825 2772 1636 2509 
Q 1447 2247 1447 1747 
Q 1447 1247 1636 984 
Q 1825 722 2181 722 
z
" transform="scale(0.015625)"/>
      <path id="DejaVuSans-Bold-48" d="M 4031 1759 
L 4031 1441 
L 1416 1441 
Q 1456 1047 1700 850 
Q 1944 653 2381 653 
Q 2734 653 3104 758 
Q 3475 863 3866 1075 
L 3866 213 
Q 3469 63 3072 -14 
Q 2675 -91 2278 -91 
Q 1328 -91 801 392 
Q 275 875 275 1747 
Q 275 2603 792 3093 
Q 1309 3584 2216 3584 
Q 3041 3584 3536 3087 
Q 4031 2591 4031 1759 
z
M 2881 2131 
Q 2881 2450 2695 2645 
Q 2509 2841 2209 2841 
Q 1884 2841 1681 2658 
Q 1478 2475 1428 2131 
L 2881 2131 
z
" transform="scale(0.015625)"/>
      <path id="DejaVuSans-Bold-44" d="M 2106 1575 
Q 1756 1575 1579 1456 
Q 1403 1338 1403 1106 
Q 1403 894 1545 773 
Q 1688 653 1941 653 
Q 2256 653 2472 879 
Q 2688 1106 2688 1447 
L 2688 1575 
L 2106 1575 
z
M 3816 1997 
L 3816 0 
L 2688 0 
L 2688 519 
Q 2463 200 2181 54 
Q 1900 -91 1497 -91 
Q 953 -91 614 226 
Q 275 544 275 1050 
Q 275 1666 698 1953 
Q 1122 2241 2028 2241 
L 2688 2241 
L 2688 2328 
Q 2688 2594 2478 2717 
Q 2269 2841 1825 2841 
Q 1466 2841 1156 2769 
Q 847 2697 581 2553 
L 581 3406 
Q 941 3494 1303 3539 
Q 1666 3584 2028 3584 
Q 2975 3584 3395 3211 
Q 3816 2838 3816 1997 
z
" transform="scale(0.015625)"/>
      <path id="DejaVuSans-Bold-51" d="M 4056 2131 
L 4056 0 
L 2931 0 
L 2931 347 
L 2931 1631 
Q 2931 2084 2911 2256 
Q 2891 2428 2841 2509 
Q 2775 2619 2662 2680 
Q 2550 2741 2406 2741 
Q 2056 2741 1856 2470 
Q 1656 2200 1656 1722 
L 1656 0 
L 538 0 
L 538 3500 
L 1656 3500 
L 1656 2988 
Q 1909 3294 2193 3439 
Q 2478 3584 2822 3584 
Q 3428 3584 3742 3212 
Q 4056 2841 4056 2131 
z
" transform="scale(0.015625)"/>
      <path id="DejaVuSans-Bold-1d" d="M 716 3500 
L 1844 3500 
L 1844 2291 
L 716 2291 
L 716 3500 
z
M 716 1209 
L 1844 1209 
L 1844 0 
L 716 0 
L 716 1209 
z
" transform="scale(0.015625)"/>
      <path id="DejaVuSans-Bold-3" transform="scale(0.015625)"/>
      <path id="DejaVuSans-Bold-53" d="M 1656 506 
L 1656 -1331 
L 538 -1331 
L 538 3500 
L 1656 3500 
L 1656 2988 
Q 1888 3294 2169 3439 
Q 2450 3584 2816 3584 
Q 3463 3584 3878 3070 
Q 4294 2556 4294 1747 
Q 4294 938 3878 423 
Q 3463 -91 2816 -91 
Q 2450 -91 2169 54 
Q 1888 200 1656 506 
z
M 2400 2772 
Q 2041 2772 1848 2508 
Q 1656 2244 1656 1747 
Q 1656 1250 1848 986 
Q 2041 722 2400 722 
Q 2759 722 2948 984 
Q 3138 1247 3138 1747 
Q 3138 2247 2948 2509 
Q 2759 2772 2400 2772 
z
" transform="scale(0.015625)"/>
      <path id="DejaVuSans-Bold-52" d="M 2203 2784 
Q 1831 2784 1636 2517 
Q 1441 2250 1441 1747 
Q 1441 1244 1636 976 
Q 1831 709 2203 709 
Q 2569 709 2762 976 
Q 2956 1244 2956 1747 
Q 2956 2250 2762 2517 
Q 2569 2784 2203 2784 
z
M 2203 3584 
Q 3106 3584 3614 3096 
Q 4122 2609 4122 1747 
Q 4122 884 3614 396 
Q 3106 -91 2203 -91 
Q 1297 -91 786 396 
Q 275 884 275 1747 
Q 275 2609 786 3096 
Q 1297 3584 2203 3584 
z
" transform="scale(0.015625)"/>
      <path id="DejaVuSans-Bold-57" d="M 1759 4494 
L 1759 3500 
L 2913 3500 
L 2913 2700 
L 1759 2700 
L 1759 1216 
Q 1759 972 1856 886 
Q 1953 800 2241 800 
L 2816 800 
L 2816 0 
L 1856 0 
Q 1194 0 917 276 
Q 641 553 641 1216 
L 641 2700 
L 84 2700 
L 84 3500 
L 641 3500 
L 641 4494 
L 1759 4494 
z
" transform="scale(0.015625)"/>
      <path id="DejaVuSans-Bold-45" d="M 2400 722 
Q 2759 722 2948 984 
Q 3138 1247 3138 1747 
Q 3138 2247 2948 2509 
Q 2759 2772 2400 2772 
Q 2041 2772 1848 2508 
Q 1656 2244 1656 1747 
Q 1656 1250 1848 986 
Q 2041 722 2400 722 
z
M 1656 2988 
Q 1888 3294 2169 3439 
Q 2450 3584 2816 3584 
Q 3463 3584 3878 3070 
Q 4294 2556 4294 1747 
Q 4294 938 3878 423 
Q 3463 -91 2816 -91 
Q 2450 -91 2169 54 
Q 1888 200 1656 506 
L 1656 0 
L 538 0 
L 538 4863 
L 1656 4863 
L 1656 2988 
z
" transform="scale(0.015625)"/>
      <path id="DejaVuSans-Bold-5c" d="M 78 3500 
L 1197 3500 
L 2138 1125 
L 2938 3500 
L 4056 3500 
L 2584 -331 
Q 2363 -916 2067 -1148 
Q 1772 -1381 1288 -1381 
L 641 -1381 
L 641 -647 
L 991 -647 
Q 1275 -647 1404 -556 
Q 1534 -466 1606 -231 
L 1638 -134 
L 78 3500 
z
" transform="scale(0.015625)"/>
     </defs>
     <use xlink:href="#DejaVuSans-Bold-28"/>
     <use xlink:href="#DejaVuSans-Bold-58" transform="translate(68.3125 0)"/>
     <use xlink:href="#DejaVuSans-Bold-46" transform="translate(139.5 0)"/>
     <use xlink:href="#DejaVuSans-Bold-4f" transform="translate(198.78125 0)"/>
     <use xlink:href="#DejaVuSans-Bold-4c" transform="translate(233.0625 0)"/>
     <use xlink:href="#DejaVuSans-Bold-47" transform="translate(267.34375 0)"/>
     <use xlink:href="#DejaVuSans-Bold-48" transform="translate(338.921875 0)"/>
     <use xlink:href="#DejaVuSans-Bold-44" transform="translate(406.75 0)"/>
     <use xlink:href="#DejaVuSans-Bold-51" transform="translate(474.234375 0)"/>
     <use xlink:href="#DejaVuSans-Bold-1d" transform="translate(545.421875 0)"/>
     <use xlink:href="#DejaVuSans-Bold-3" transform="translate(585.40625 0)"/>
     <use xlink:href="#DejaVuSans-Bold-53" transform="translate(620.21875 0)"/>
     <use xlink:href="#DejaVuSans-Bold-52" transform="translate(691.796875 0)"/>
     <use xlink:href="#DejaVuSans-Bold-4c" transform="translate(760.5 0)"/>
     <use xlink:href="#DejaVuSans-Bold-51" transform="translate(794.78125 0)"/>
     <use xlink:href="#DejaVuSans-Bold-57" transform="translate(865.96875 0)"/>
     <use xlink:href="#DejaVuSans-Bold-3" transform="translate(913.765625 0)"/>
     <use xlink:href="#DejaVuSans-Bold-45" transform="translate(948.578125 0)"/>
     <use xlink:href="#DejaVuSans-Bold-5c" transform="translate(1020.15625 0)"/>
     <use xlink:href="#DejaVuSans-Bold-3" transform="translate(1085.34375 0)"/>
     <use xlink:href="#DejaVuSans-Bold-53" transform="translate(1120.15625 0)"/>
     <use xlink:href="#DejaVuSans-Bold-52" transform="translate(1191.734375 0)"/>
     <use xlink:href="#DejaVuSans-Bold-4c" transform="translate(1260.4375 0)"/>
     <use xlink:href="#DejaVuSans-Bold-51" transform="translate(1294.71875 0)"/>
     <use xlink:href="#DejaVuSans-Bold-57" transform="translate(1365.90625 0)"/>
    </g>
   </g>
   <g id="legend_1">
    <g id="line2d_19">
     <path d="M 18 35.91875 
L 26 35.91875 
L 34 35.91875 
" style="fill: none; stroke: #1e293b; stroke-width: 1.8; stroke-linecap: square"/>
    </g>
    <g id="text_9">
     <!-- Customer A -->
     <g transform="translate(40.4 38.71875) scale(0.08 -0.08)">
      <defs>
       <path id="DejaVuSans-26" d="M 4122 4306 
L 4122 3641 
Q 3803 3938 3442 4084 
Q 3081 4231 2675 4231 
Q 1875 4231 1450 3742 
Q 1025 3253 1025 2328 
Q 1025 1406 1450 917 
Q 1875 428 2675 428 
Q 3081 428 3442 575 
Q 3803 722 4122 1019 
L 4122 359 
Q 3791 134 3420 21 
Q 3050 -91 2638 -91 
Q 1578 -91 968 557 
Q 359 1206 359 2328 
Q 359 3453 968 4101 
Q 1578 4750 2638 4750 
Q 3056 4750 3426 4639 
Q 3797 4528 4122 4306 
z
" transform="scale(0.015625)"/>
       <path id="DejaVuSans-58" d="M 544 1381 
L 544 3500 
L 1119 3500 
L 1119 1403 
Q 1119 906 1312 657 
Q 1506 409 1894 409 
Q 2359 409 2629 706 
Q 2900 1003 2900 1516 
L 2900 3500 
L 3475 3500 
L 3475 0 
L 2900 0 
L 2900 538 
Q 2691 219 2414 64 
Q 2138 -91 1772 -91 
Q 1169 -91 856 284 
Q 544 659 544 1381 
z
M 1991 3584 
L 1991 3584 
z
" transform="scale(0.015625)"/>
       <path id="DejaVuSans-56" d="M 2834 3397 
L 2834 2853 
Q 2591 2978 2328 3040 
Q 2066 3103 1784 3103 
Q 1356 3103 1142 2972 
Q 928 2841 928 2578 
Q 928 2378 1081 2264 
Q 1234 2150 1697 2047 
L 1894 2003 
Q 2506 1872 2764 1633 
Q 3022 1394 3022 966 
Q 3022 478 2636 193 
Q 2250 -91 1575 -91 
Q 1294 -91 989 -36 
Q 684 19 347 128 
L 347 722 
Q 666 556 975 473 
Q 1284 391 1588 391 
Q 1994 391 2212 530 
Q 2431 669 2431 922 
Q 2431 1156 2273 1281 
Q 2116 1406 1581 1522 
L 1381 1569 
Q 847 1681 609 1914 
Q 372 2147 372 2553 
Q 372 3047 722 3315 
Q 1072 3584 1716 3584 
Q 2034 3584 2315 3537 
Q 2597 3491 2834 3397 
z
" transform="scale(0.015625)"/>
       <path id="DejaVuSans-55" d="M 2631 2963 
Q 2534 3019 2420 3045 
Q 2306 3072 2169 3072 
Q 1681 3072 1420 2755 
Q 1159 2438 1159 1844 
L 1159 0 
L 581 0 
L 581 3500 
L 1159 3500 
L 1159 2956 
Q 1341 3275 1631 3429 
Q 1922 3584 2338 3584 
Q 2397 3584 2469 3576 
Q 2541 3569 2628 3553 
L 2631 2963 
z
" transform="scale(0.015625)"/>
       <path id="DejaVuSans-24" d="M 2188 4044 
L 1331 1722 
L 3047 1722 
L 2188 4044 
z
M 1831 4666 
L 2547 4666 
L 4325 0 
L 3669 0 
L 3244 1197 
L 1141 1197 
L 716 0 
L 50 0 
L 1831 4666 
z
" transform="scale(0.015625)"/>
      </defs>
      <use xlink:href="#DejaVuSans-26"/>
      <use xlink:href="#DejaVuSans-58" transform="translate(69.828125 0)"/>
      <use xlink:href="#DejaVuSans-56" transform="translate(133.203125 0)"/>
      <use xlink:href="#DejaVuSans-57" transform="translate(185.296875 0)"/>
      <use xlink:href="#DejaVuSans-52" transform="translate(224.5 0)"/>
      <use xlink:href="#DejaVuSans-50" transform="translate(285.6875 0)"/>
      <use xlink:href="#DejaVuSans-48" transform="translate(383.09375 0)"/>
      <use xlink:href="#DejaVuSans-55" transform="translate(444.625 0)"/>
      <use xlink:href="#DejaVuSans-3" transform="translate(485.734375 0)"/>
      <use xlink:href="#DejaVuSans-24" transform="translate(517.515625 0)"/>
     </g>
    </g>
    <g id="line2d_20">
     <path d="M 18 47.919375 
L 26 47.919375 
L 34 47.919375 
" style="fill: none; stroke: #0369a1; stroke-width: 1.8; stroke-linecap: square"/>
    </g>
    <g id="text_10">
     <!-- Customer B -->
     <g transform="translate(40.4 50.719375) scale(0.08 -0.08)">
      <defs>
       <path id="DejaVuSans-25" d="M 1259 2228 
L 1259 519 
L 2272 519 
Q 2781 519 3026 730 
Q 3272 941 3272 1375 
Q 3272 1813 3026 2020 
Q 2781 2228 2272 2228 
L 1259 2228 
z
M 1259 4147 
L 1259 2741 
L 2194 2741 
Q 2656 2741 2882 2914 
Q 3109 3088 3109 3444 
Q 3109 3797 2882 3972 
Q 2656 4147 2194 4147 
L 1259 4147 
z
M 628 4666 
L 2241 4666 
Q 2963 4666 3353 4366 
Q 3744 4066 3744 3513 
Q 3744 3084 3544 2831 
Q 3344 2578 2956 2516 
Q 3422 2416 3680 2098 
Q 3938 1781 3938 1306 
Q 3938 681 3513 340 
Q 3088 0 2303 0 
L 628 0 
L 628 4666 
z
" transform="scale(0.015625)"/>
      </defs>
      <use xlink:href="#DejaVuSans-26"/>
      <use xlink:href="#DejaVuSans-58" transform="translate(69.828125 0)"/>
      <use xlink:href="#DejaVuSans-56" transform="translate(133.203125 0)"/>
      <use xlink:href="#DejaVuSans-57" transform="translate(185.296875 0)"/>
      <use xlink:href="#DejaVuSans-52" transform="translate(224.5 0)"/>
      <use xlink:href="#DejaVuSans-50" transform="translate(285.6875 0)"/>
      <use xlink:href="#DejaVuSans-48" transform="translate(383.09375 0)"/>
      <use xlink:href="#DejaVuSans-55" transform="translate(444.625 0)"/>
      <use xlink:href="#DejaVuSans-3" transform="translate(485.734375 0)"/>
      <use xlink:href="#DejaVuSans-25" transform="translate(517.515625 0)"/>
     </g>
    </g>
   </g>
  </g>
  <g id="axes_2">
   <g id="patch_4">
    <path d="M 336.24 247.197891 
L 650.88 247.197891 
L 650.88 25.44 
L 336.24 25.44 
z
" style="fill: #ffffff"/>
   </g>
   <g id="line2d_21">
    <path d="M 350.541818 233.897697 
L 384.478336 234.027686 
" clip-path="url(#p067e7ad002)" style="fill: none; stroke: #059669; stroke-opacity: 0.8; stroke-width: 0.8; stroke-linecap: square"/>
   </g>
   <g id="line2d_22">
    <path d="M 379.630262 212.129774 
L 413.56678 212.482464 
" clip-path="url(#p067e7ad002)" style="fill: none; stroke: #059669; stroke-opacity: 0.8; stroke-width: 0.8; stroke-linecap: square"/>
   </g>
   <g id="line2d_23">
    <path d="M 408.718706 203.602545 
L 442.655223 203.559774 
" clip-path="url(#p067e7ad002)" style="fill: none; stroke: #059669; stroke-opacity: 0.8; stroke-width: 0.8; stroke-linecap: square"/>
   </g>
   <g id="line2d_24">
    <path d="M 437.807149 177.483647 
L 471.743667 178.364297 
" clip-path="url(#p067e7ad002)" style="fill: none; stroke: #059669; stroke-opacity: 0.8; stroke-width: 0.8; stroke-linecap: square"/>
   </g>
   <g id="line2d_25">
    <path d="M 466.895593 85.928144 
L 500.832111 87.202856 
" clip-path="url(#p067e7ad002)" style="fill: none; stroke: #059669; stroke-opacity: 0.8; stroke-width: 0.8; stroke-linecap: square"/>
   </g>
   <g id="line2d_26">
    <path d="M 495.984037 35.661959 
L 529.920555 35.519904 
" clip-path="url(#p067e7ad002)" style="fill: none; stroke: #059669; stroke-opacity: 0.8; stroke-width: 0.8; stroke-linecap: square"/>
   </g>
   <g id="line2d_27">
    <path d="M 525.072481 102.379562 
L 559.008998 101.03915 
" clip-path="url(#p067e7ad002)" style="fill: none; stroke: #059669; stroke-opacity: 0.8; stroke-width: 0.8; stroke-linecap: square"/>
   </g>
   <g id="line2d_28">
    <path d="M 554.160924 191.905052 
L 588.097442 191.033223 
" clip-path="url(#p067e7ad002)" style="fill: none; stroke: #059669; stroke-opacity: 0.8; stroke-width: 0.8; stroke-linecap: square"/>
   </g>
   <g id="line2d_29">
    <path d="M 583.249368 229.519369 
L 617.185886 229.300781 
" clip-path="url(#p067e7ad002)" style="fill: none; stroke: #059669; stroke-opacity: 0.8; stroke-width: 0.8; stroke-linecap: square"/>
   </g>
   <g id="line2d_30">
    <path d="M 612.337812 236.495041 
L 636.578182 235.499141 
" clip-path="url(#p067e7ad002)" style="fill: none; stroke: #059669; stroke-opacity: 0.8; stroke-width: 0.8; stroke-linecap: square"/>
   </g>
   <g id="matplotlib.axis_3">
    <g id="xtick_7">
     <g id="line2d_31">
      <g>
       <use xlink:href="#me4ad4e1eb4" x="350.541818" y="247.197891" style="stroke: #000000; stroke-width: 0.8"/>
      </g>
     </g>
     <g id="text_11">
      <!-- 0 -->
      <g transform="translate(347.360568 261.795547) scale(0.1 -0.1)">
       <use xlink:href="#DejaVuSans-13"/>
      </g>
     </g>
    </g>
    <g id="xtick_8">
     <g id="line2d_32">
      <g>
       <use xlink:href="#me4ad4e1eb4" x="407.749091" y="247.197891" style="stroke: #000000; stroke-width: 0.8"/>
      </g>
     </g>
     <g id="text_12">
      <!-- 2 -->
      <g transform="translate(404.567841 261.795547) scale(0.1 -0.1)">
       <use xlink:href="#DejaVuSans-15"/>
      </g>
     </g>
    </g>
    <g id="xtick_9">
     <g id="line2d_33">
      <g>
       <use xlink:href="#me4ad4e1eb4" x="464.956364" y="247.197891" style="stroke: #000000; stroke-width: 0.8"/>
      </g>
     </g>
     <g id="text_13">
      <!-- 4 -->
      <g transform="translate(461.775114 261.795547) scale(0.1 -0.1)">
       <use xlink:href="#DejaVuSans-17"/>
      </g>
     </g>
    </g>
    <g id="xtick_10">
     <g id="line2d_34">
      <g>
       <use xlink:href="#me4ad4e1eb4" x="522.163636" y="247.197891" style="stroke: #000000; stroke-width: 0.8"/>
      </g>
     </g>
     <g id="text_14">
      <!-- 6 -->
      <g transform="translate(518.982386 261.795547) scale(0.1 -0.1)">
       <use xlink:href="#DejaVuSans-19"/>
      </g>
     </g>
    </g>
    <g id="xtick_11">
     <g id="line2d_35">
      <g>
       <use xlink:href="#me4ad4e1eb4" x="579.370909" y="247.197891" style="stroke: #000000; stroke-width: 0.8"/>
      </g>
     </g>
     <g id="text_15">
      <!-- 8 -->
      <g transform="translate(576.189659 261.795547) scale(0.1 -0.1)">
       <use xlink:href="#DejaVuSans-1b"/>
      </g>
     </g>
    </g>
    <g id="xtick_12">
     <g id="line2d_36">
      <g>
       <use xlink:href="#me4ad4e1eb4" x="636.578182" y="247.197891" style="stroke: #000000; stroke-width: 0.8"/>
      </g>
     </g>
     <g id="text_16">
      <!-- 10 -->
      <g transform="translate(630.215682 261.795547) scale(0.1 -0.1)">
       <use xlink:href="#DejaVuSans-14"/>
       <use xlink:href="#DejaVuSans-13" transform="translate(63.625 0)"/>
      </g>
     </g>
    </g>
    <g id="text_17">
     <!-- time of day -->
     <g transform="translate(467.917734 275.036484) scale(0.09 -0.09)">
      <use xlink:href="#DejaVuSans-57"/>
      <use xlink:href="#DejaVuSans-4c" transform="translate(39.203125 0)"/>
      <use xlink:href="#DejaVuSans-50" transform="translate(66.984375 0)"/>
      <use xlink:href="#DejaVuSans-48" transform="translate(164.390625 0)"/>
      <use xlink:href="#DejaVuSans-3" transform="translate(225.921875 0)"/>
      <use xlink:href="#DejaVuSans-52" transform="translate(257.703125 0)"/>
      <use xlink:href="#DejaVuSans-49" transform="translate(318.890625 0)"/>
      <use xlink:href="#DejaVuSans-3" transform="translate(354.09375 0)"/>
      <use xlink:href="#DejaVuSans-47" transform="translate(385.875 0)"/>
      <use xlink:href="#DejaVuSans-44" transform="translate(449.359375 0)"/>
      <use xlink:href="#DejaVuSans-5c" transform="translate(510.640625 0)"/>
     </g>
    </g>
   </g>
   <g id="matplotlib.axis_4"/>
   <g id="line2d_37">
    <path d="M 350.541818 233.897697 
L 355.389892 231.895846 
L 360.237966 229.125122 
L 365.08604 225.562423 
L 369.934114 221.327141 
L 374.782188 216.705799 
L 379.630262 212.129774 
L 384.478336 208.097359 
L 389.32641 205.052579 
L 394.174484 203.254282 
L 399.022558 202.678943 
L 403.870632 202.992511 
L 408.718706 203.602545 
L 413.56678 203.772856 
L 418.414854 202.762458 
L 423.262928 199.94764 
L 428.111002 194.899512 
L 432.959076 187.41077 
L 437.807149 177.483647 
L 442.655223 165.299149 
L 447.503297 151.185139 
L 452.351371 135.592086 
L 457.199445 119.076121 
L 462.047519 102.283322 
L 466.895593 85.928144 
L 471.743667 70.761314 
L 476.591741 57.526544 
L 481.439815 46.909243 
L 486.287889 39.483126 
L 491.135963 35.661778 
L 495.984037 35.661959 
L 500.832111 39.483908 
L 505.680185 46.911589 
L 510.528259 57.533027 
L 515.376333 70.778191 
L 520.224407 85.969621 
L 525.072481 102.379562 
L 529.920555 119.28696 
L 534.768629 136.028198 
L 539.616703 152.036848 
L 544.464777 166.869633 
L 549.312851 180.217801 
L 554.160924 191.905052 
L 559.008998 201.874529 
L 563.857072 210.168276 
L 568.705146 216.902748 
L 573.55322 222.243687 
L 578.401294 226.382994 
L 583.249368 229.519369 
L 588.097442 231.843614 
L 592.945516 233.528718 
L 597.79359 234.724302 
L 602.641664 235.554618 
L 607.489738 236.11917 
L 612.337812 236.495041 
L 617.185886 236.740125 
L 622.03396 236.896653 
L 626.882034 236.994584 
L 631.730108 237.054611 
L 636.578182 237.090662 
" clip-path="url(#p067e7ad002)" style="fill: none; stroke: #1e293b; stroke-width: 1.8; stroke-linecap: square"/>
   </g>
   <g id="line2d_38">
    <path d="M 350.541818 237.117987 
L 355.389892 237.087948 
L 360.237966 237.02213 
L 365.08604 236.886459 
L 369.934114 236.623629 
L 374.782188 236.145571 
L 379.630262 235.330141 
L 384.478336 234.027686 
L 389.32641 232.083199 
L 394.174484 229.376411 
L 399.022558 225.874819 
L 403.870632 221.685018 
L 408.718706 217.080255 
L 413.56678 212.482464 
L 418.414854 208.38864 
L 423.262928 205.252108 
L 428.111002 203.350824 
L 432.959076 202.685954 
L 437.807149 202.947394 
L 442.655223 203.559774 
L 447.503297 203.793335 
L 452.351371 202.902531 
L 457.199445 200.250728 
L 462.047519 195.391831 
L 466.895593 188.100859 
L 471.743667 178.364297 
L 476.591741 166.350091 
L 481.439815 152.375367 
L 486.287889 136.881479 
L 491.135963 120.416649 
L 495.984037 103.620438 
L 500.832111 87.202856 
L 505.680185 71.913185 
L 510.528259 58.497512 
L 515.376333 47.64789 
L 520.224407 39.948865 
L 525.072481 35.828376 
L 529.920555 35.519904 
L 534.768629 39.041275 
L 539.616703 46.193261 
L 544.464777 56.578377 
L 549.312851 69.637506 
L 554.160924 84.69972 
L 559.008998 101.03915 
L 563.857072 117.932221 
L 568.705146 134.709087 
L 573.55322 150.794399 
L 578.401294 165.734417 
L 583.249368 179.20954 
L 588.097442 191.033223 
L 592.945516 201.139735 
L 597.79359 209.564079 
L 602.641664 216.417691 
L 607.489738 221.863263 
L 612.337812 226.091372 
L 617.185886 229.300781 
L 622.03396 231.683348 
L 626.882034 233.413746 
L 631.730108 234.643582 
L 636.578182 235.499141 
" clip-path="url(#p067e7ad002)" style="fill: none; stroke: #0369a1; stroke-width: 1.8; stroke-linecap: square"/>
   </g>
   <g id="patch_5">
    <path d="M 336.24 247.197891 
L 650.88 247.197891 
" style="fill: none; stroke: #000000; stroke-width: 0.8; stroke-linejoin: miter; stroke-linecap: square"/>
   </g>
   <g id="text_18">
    <!-- DTW: warped alignment -->
    <g style="fill: #1e293b" transform="translate(418.866562 19.44) scale(0.11 -0.11)">
     <defs>
      <path id="DejaVuSans-Bold-27" d="M 1791 3756 
L 1791 909 
L 2222 909 
Q 2959 909 3348 1275 
Q 3738 1641 3738 2338 
Q 3738 3031 3350 3393 
Q 2963 3756 2222 3756 
L 1791 3756 
z
M 588 4666 
L 1856 4666 
Q 2919 4666 3439 4514 
Q 3959 4363 4331 4000 
Q 4659 3684 4818 3271 
Q 4978 2859 4978 2338 
Q 4978 1809 4818 1395 
Q 4659 981 4331 666 
Q 3956 303 3431 151 
Q 2906 0 1856 0 
L 588 0 
L 588 4666 
z
" transform="scale(0.015625)"/>
      <path id="DejaVuSans-Bold-37" d="M 31 4666 
L 4331 4666 
L 4331 3756 
L 2784 3756 
L 2784 0 
L 1581 0 
L 1581 3756 
L 31 3756 
L 31 4666 
z
" transform="scale(0.015625)"/>
      <path id="DejaVuSans-Bold-3a" d="M 191 4666 
L 1344 4666 
L 2150 1275 
L 2950 4666 
L 4109 4666 
L 4909 1275 
L 5716 4666 
L 6859 4666 
L 5759 0 
L 4372 0 
L 3525 3547 
L 2688 0 
L 1300 0 
L 191 4666 
z
" transform="scale(0.015625)"/>
      <path id="DejaVuSans-Bold-5a" d="M 225 3500 
L 1313 3500 
L 1900 1088 
L 2491 3500 
L 3425 3500 
L 4013 1113 
L 4603 3500 
L 5691 3500 
L 4769 0 
L 3547 0 
L 2956 2406 
L 2369 0 
L 1147 0 
L 225 3500 
z
" transform="scale(0.015625)"/>
      <path id="DejaVuSans-Bold-55" d="M 3138 2547 
Q 2991 2616 2845 2648 
Q 2700 2681 2553 2681 
Q 2122 2681 1889 2404 
Q 1656 2128 1656 1613 
L 1656 0 
L 538 0 
L 538 3500 
L 1656 3500 
L 1656 2925 
Q 1872 3269 2151 3426 
Q 2431 3584 2822 3584 
Q 2878 3584 2943 3579 
Q 3009 3575 3134 3559 
L 3138 2547 
z
" transform="scale(0.015625)"/>
      <path id="DejaVuSans-Bold-4a" d="M 2919 594 
Q 2688 288 2409 144 
Q 2131 0 1766 0 
Q 1125 0 706 504 
Q 288 1009 288 1791 
Q 288 2575 706 3076 
Q 1125 3578 1766 3578 
Q 2131 3578 2409 3434 
Q 2688 3291 2919 2981 
L 2919 3500 
L 4044 3500 
L 4044 353 
Q 4044 -491 3511 -936 
Q 2978 -1381 1966 -1381 
Q 1638 -1381 1331 -1331 
Q 1025 -1281 716 -1178 
L 716 -306 
Q 1009 -475 1290 -558 
Q 1572 -641 1856 -641 
Q 2406 -641 2662 -400 
Q 2919 -159 2919 353 
L 2919 594 
z
M 2181 2772 
Q 1834 2772 1640 2515 
Q 1447 2259 1447 1791 
Q 1447 1309 1634 1061 
Q 1822 813 2181 813 
Q 2531 813 2725 1069 
Q 2919 1325 2919 1791 
Q 2919 2259 2725 2515 
Q 2531 2772 2181 2772 
z
" transform="scale(0.015625)"/>
      <path id="DejaVuSans-Bold-50" d="M 3781 2919 
Q 3994 3244 4286 3414 
Q 4578 3584 4928 3584 
Q 5531 3584 5847 3212 
Q 6163 2841 6163 2131 
L 6163 0 
L 5038 0 
L 5038 1825 
Q 5041 1866 5042 1909 
Q 5044 1953 5044 2034 
Q 5044 2406 4934 2573 
Q 4825 2741 4581 2741 
Q 4263 2741 4089 2478 
Q 3916 2216 3909 1719 
L 3909 0 
L 2784 0 
L 2784 1825 
Q 2784 2406 2684 2573 
Q 2584 2741 2328 2741 
Q 2006 2741 1831 2477 
Q 1656 2213 1656 1722 
L 1656 0 
L 531 0 
L 531 3500 
L 1656 3500 
L 1656 2988 
Q 1863 3284 2130 3434 
Q 2397 3584 2719 3584 
Q 3081 3584 3359 3409 
Q 3638 3234 3781 2919 
z
" transform="scale(0.015625)"/>
     </defs>
     <use xlink:href="#DejaVuSans-Bold-27"/>
     <use xlink:href="#DejaVuSans-Bold-37" transform="translate(83.015625 0)"/>
     <use xlink:href="#DejaVuSans-Bold-3a" transform="translate(151.234375 0)"/>
     <use xlink:href="#DejaVuSans-Bold-1d" transform="translate(258.453125 0)"/>
     <use xlink:href="#DejaVuSans-Bold-3" transform="translate(298.4375 0)"/>
     <use xlink:href="#DejaVuSans-Bold-5a" transform="translate(333.25 0)"/>
     <use xlink:href="#DejaVuSans-Bold-44" transform="translate(425.640625 0)"/>
     <use xlink:href="#DejaVuSans-Bold-55" transform="translate(493.125 0)"/>
     <use xlink:href="#DejaVuSans-Bold-53" transform="translate(542.4375 0)"/>
     <use xlink:href="#DejaVuSans-Bold-48" transform="translate(614.015625 0)"/>
     <use xlink:href="#DejaVuSans-Bold-47" transform="translate(681.84375 0)"/>
     <use xlink:href="#DejaVuSans-Bold-3" transform="translate(753.421875 0)"/>
     <use xlink:href="#DejaVuSans-Bold-44" transform="translate(788.234375 0)"/>
     <use xlink:href="#DejaVuSans-Bold-4f" transform="translate(855.71875 0)"/>
     <use xlink:href="#DejaVuSans-Bold-4c" transform="translate(890 0)"/>
     <use xlink:href="#DejaVuSans-Bold-4a" transform="translate(924.28125 0)"/>
     <use xlink:href="#DejaVuSans-Bold-51" transform="translate(995.859375 0)"/>
     <use xlink:href="#DejaVuSans-Bold-50" transform="translate(1067.046875 0)"/>
     <use xlink:href="#DejaVuSans-Bold-48" transform="translate(1171.25 0)"/>
     <use xlink:href="#DejaVuSans-Bold-51" transform="translate(1239.078125 0)"/>
     <use xlink:href="#DejaVuSans-Bold-57" transform="translate(1310.265625 0)"/>
    </g>
   </g>
  </g>
 </g>
 <defs>
  <clipPath id="p8240517cde">
   <rect x="10.8" y="25.44" width="314.64" height="221.757891"/>
  </clipPath>
  <clipPath id="p067e7ad002">
   <rect x="336.24" y="25.44" width="314.64" height="221.757891"/>
  </clipPath>
 </defs>
</svg>
