<?xml version="1.0" encoding="utf-8" standalone="no"?>
<!DOCTYPE svg PUBLIC "-//W3C//DTD SVG 1.1//EN"
  "http://www.w3.org/Graphics/SVG/1.1/DTD/svg11.dtd">
<svg xmlns:xlink="http://www.w3.org/1999/xlink" width="633.80625pt" height="265.071714pt" viewBox="0 0 633.80625 265.071714" xmlns="http://www.w3.org/2000/svg" version="1.1">
 <metadata>
  <rdf:RDF xmlns:dc="http://purl.org/dc/elements/1.1/" xmlns:cc="http://creativecommons.org/ns#" xmlns:rdf="http://www.w3.org/1999/02/22-rdf-syntax-ns#">
   <cc:Work>
    <dc:type rdf:resource="http://purl.org/dc/dcmitype/StillImage"/>
    <dc:date>2026-07-16T12:25:36.942787</dc:date>
    <dc:format>image/svg+xml</dc:format>
    <dc:creator>
     <cc:Agent>
      <dc:title>Matplotlib v3.11.0, https://matplotlib.org/</dc:title>
     </cc:Agent>
    </dc:creator>
   </cc:Work>
  </rdf:RDF>
 </metadata>
 <defs>
  <style type="text/css">*{stroke-linejoin: round; stroke-linecap: butt}</style>
 </defs>
 <g id="figure_1">
  <g id="patch_1">
   <path d="M -0 265.071714 
L 633.80625 265.071714 
L 633.80625 0 
L -0 0 
z
" style="fill: #ffffff"/>
  </g>
  <g id="axes_1">
   <g id="patch_2">
    <path d="M 42.16875 210.2589 
L 324.65375 210.2589 
L 324.65375 21.3 
L 42.16875 21.3 
z
" style="fill: #ffffff"/>
   </g>
   <g id="matplotlib.axis_1">
    <g id="xtick_1">
     <g id="line2d_1">
      <defs>
       <path id="md5019fd794" d="M 0 0 
L 0 3.5 
" style="stroke: #666666; stroke-width: 0.8"/>
      </defs>
      <g>
       <use xlink:href="#md5019fd794" x="42.16875" y="210.2589" style="fill: #666666; stroke: #666666; stroke-width: 0.8"/>
      </g>
     </g>
     <g id="text_1">
      <!-- 0 -->
      <g style="fill: #666666" transform="translate(39.945 224.8749) scale(0.08 -0.08)">
       <defs>
        <path id="HelveticaNeue-17" d="M 845 2234 
Q 845 2400 848 2601 
Q 851 2803 880 3004 
Q 909 3206 963 3398 
Q 1018 3590 1123 3734 
Q 1229 3878 1389 3968 
Q 1549 4058 1779 4058 
Q 2010 4058 2170 3968 
Q 2330 3878 2435 3734 
Q 2541 3590 2595 3398 
Q 2650 3206 2678 3004 
Q 2707 2803 2710 2601 
Q 2714 2400 2714 2234 
Q 2714 1978 2698 1661 
Q 2682 1344 2595 1065 
Q 2509 787 2317 595 
Q 2125 403 1779 403 
Q 1434 403 1242 595 
Q 1050 787 963 1065 
Q 877 1344 861 1661 
Q 845 1978 845 2234 
z
M 269 2227 
Q 269 1978 281 1709 
Q 294 1440 345 1184 
Q 397 928 493 701 
Q 589 474 755 301 
Q 922 128 1174 29 
Q 1427 -70 1779 -70 
Q 2138 -70 2387 29 
Q 2637 128 2803 301 
Q 2970 474 3066 701 
Q 3162 928 3213 1184 
Q 3264 1440 3277 1709 
Q 3290 1978 3290 2227 
Q 3290 2477 3277 2745 
Q 3264 3014 3213 3270 
Q 3162 3526 3066 3756 
Q 2970 3987 2803 4160 
Q 2637 4333 2384 4435 
Q 2131 4538 1779 4538 
Q 1427 4538 1174 4435 
Q 922 4333 755 4160 
Q 589 3987 493 3756 
Q 397 3526 345 3270 
Q 294 3014 281 2745 
Q 269 2477 269 2227 
z
" transform="scale(0.015625)"/>
       </defs>
       <use xlink:href="#HelveticaNeue-17"/>
      </g>
     </g>
    </g>
    <g id="xtick_2">
     <g id="line2d_2">
      <g>
       <use xlink:href="#md5019fd794" x="136.330417" y="210.2589" style="fill: #666666; stroke: #666666; stroke-width: 0.8"/>
      </g>
     </g>
     <g id="text_2">
      <!-- 24 -->
      <g style="fill: #666666" transform="translate(131.882917 224.8749) scale(0.08 -0.08)">
       <defs>
        <path id="HelveticaNeue-19" d="M 282 2931 
L 826 2931 
Q 819 3136 867 3337 
Q 915 3539 1024 3699 
Q 1133 3859 1302 3958 
Q 1472 4058 1709 4058 
Q 1888 4058 2048 4000 
Q 2208 3942 2326 3833 
Q 2445 3725 2515 3574 
Q 2586 3424 2586 3238 
Q 2586 3002 2512 2822 
Q 2438 2643 2294 2489 
Q 2150 2336 1932 2185 
Q 1715 2035 1427 1856 
Q 1190 1715 972 1555 
Q 755 1395 582 1184 
Q 410 973 298 688 
Q 186 403 154 0 
L 3117 0 
L 3117 480 
L 787 480 
Q 826 691 950 854 
Q 1075 1018 1251 1158 
Q 1427 1299 1638 1424 
Q 1850 1549 2061 1677 
Q 2272 1811 2470 1958 
Q 2669 2106 2822 2288 
Q 2976 2470 3069 2700 
Q 3162 2931 3162 3232 
Q 3162 3552 3050 3795 
Q 2938 4038 2746 4201 
Q 2554 4365 2294 4451 
Q 2035 4538 1741 4538 
Q 1382 4538 1100 4416 
Q 819 4294 630 4080 
Q 442 3866 352 3571 
Q 262 3277 282 2931 
z
" transform="scale(0.015625)"/>
        <path id="HelveticaNeue-1b" d="M 2170 1542 
L 646 1542 
L 2157 3763 
L 2170 3763 
L 2170 1542 
z
M 2682 1542 
L 2682 4538 
L 2246 4538 
L 179 1587 
L 179 1062 
L 2170 1062 
L 2170 0 
L 2682 0 
L 2682 1062 
L 3296 1062 
L 3296 1542 
L 2682 1542 
z
" transform="scale(0.015625)"/>
       </defs>
       <use xlink:href="#HelveticaNeue-19"/>
       <use xlink:href="#HelveticaNeue-1b" transform="translate(55.59375 0)"/>
      </g>
     </g>
    </g>
    <g id="xtick_3">
     <g id="line2d_3">
      <g>
       <use xlink:href="#md5019fd794" x="230.492083" y="210.2589" style="fill: #666666; stroke: #666666; stroke-width: 0.8"/>
      </g>
     </g>
     <g id="text_3">
      <!-- 48 -->
      <g style="fill: #666666" transform="translate(226.044583 224.8749) scale(0.08 -0.08)">
       <defs>
        <path id="HelveticaNeue-1f" d="M 992 3360 
Q 992 3533 1056 3661 
Q 1120 3789 1225 3878 
Q 1331 3968 1478 4013 
Q 1626 4058 1786 4058 
Q 2118 4058 2332 3882 
Q 2547 3706 2547 3360 
Q 2547 3014 2336 2822 
Q 2125 2630 1798 2630 
Q 1632 2630 1485 2675 
Q 1338 2720 1229 2809 
Q 1120 2899 1056 3036 
Q 992 3174 992 3360 
z
M 416 3379 
Q 416 3072 589 2813 
Q 762 2554 1050 2438 
Q 666 2304 461 2006 
Q 256 1709 256 1306 
Q 256 960 374 701 
Q 493 442 701 269 
Q 909 96 1190 13 
Q 1472 -70 1798 -70 
Q 2112 -70 2387 19 
Q 2662 109 2864 285 
Q 3066 461 3184 717 
Q 3302 973 3302 1306 
Q 3302 1728 3104 2019 
Q 2906 2310 2496 2438 
Q 2784 2566 2953 2819 
Q 3123 3072 3123 3379 
Q 3123 3597 3046 3805 
Q 2970 4013 2806 4176 
Q 2643 4339 2380 4438 
Q 2118 4538 1747 4538 
Q 1485 4538 1245 4461 
Q 1005 4384 819 4237 
Q 634 4090 525 3875 
Q 416 3661 416 3379 
z
M 832 1280 
Q 832 1478 905 1638 
Q 979 1798 1110 1913 
Q 1242 2029 1418 2089 
Q 1594 2150 1792 2150 
Q 1984 2150 2153 2083 
Q 2323 2016 2451 1901 
Q 2579 1786 2652 1629 
Q 2726 1472 2726 1286 
Q 2726 1094 2659 934 
Q 2592 774 2467 656 
Q 2342 538 2172 470 
Q 2003 403 1798 403 
Q 1376 403 1104 636 
Q 832 870 832 1280 
z
" transform="scale(0.015625)"/>
       </defs>
       <use xlink:href="#HelveticaNeue-1b"/>
       <use xlink:href="#HelveticaNeue-1f" transform="translate(55.59375 0)"/>
      </g>
     </g>
    </g>
    <g id="xtick_4">
     <g id="line2d_4">
      <g>
       <use xlink:href="#md5019fd794" x="324.65375" y="210.2589" style="fill: #666666; stroke: #666666; stroke-width: 0.8"/>
      </g>
     </g>
     <g id="text_4">
      <!-- 72 -->
      <g style="fill: #666666" transform="translate(320.20625 224.8749) scale(0.08 -0.08)">
       <defs>
        <path id="HelveticaNeue-1e" d="M 3258 3994 
L 3258 4461 
L 320 4461 
L 320 3949 
L 2701 3949 
Q 2342 3571 2032 3123 
Q 1722 2675 1485 2172 
Q 1248 1670 1097 1123 
Q 947 576 909 0 
L 1517 0 
Q 1549 531 1696 1094 
Q 1843 1658 2076 2189 
Q 2310 2720 2611 3187 
Q 2912 3654 3258 3994 
z
" transform="scale(0.015625)"/>
       </defs>
       <use xlink:href="#HelveticaNeue-1e"/>
       <use xlink:href="#HelveticaNeue-19" transform="translate(55.59375 0)"/>
      </g>
     </g>
    </g>
    <g id="text_5">
     <!-- Hour (three real days) -->
     <g style="fill: #333333" transform="translate(135.720625 240.0989) scale(0.1 -0.1)">
      <defs>
       <path id="HelveticaNeue-2f" d="M 499 4570 
L 499 0 
L 1107 0 
L 1107 2093 
L 3514 2093 
L 3514 0 
L 4122 0 
L 4122 4570 
L 3514 4570 
L 3514 2605 
L 1107 2605 
L 1107 4570 
L 499 4570 
z
" transform="scale(0.015625)"/>
       <path id="HelveticaNeue-56" d="M 806 1651 
Q 806 1952 886 2185 
Q 966 2419 1107 2579 
Q 1248 2739 1437 2822 
Q 1626 2906 1837 2906 
Q 2048 2906 2237 2822 
Q 2426 2739 2566 2579 
Q 2707 2419 2787 2185 
Q 2867 1952 2867 1651 
Q 2867 1350 2787 1116 
Q 2707 883 2566 726 
Q 2426 570 2237 486 
Q 2048 403 1837 403 
Q 1626 403 1437 486 
Q 1248 570 1107 726 
Q 966 883 886 1116 
Q 806 1350 806 1651 
z
M 230 1651 
Q 230 1286 332 972 
Q 435 659 640 425 
Q 845 192 1145 61 
Q 1446 -70 1837 -70 
Q 2234 -70 2531 61 
Q 2829 192 3033 425 
Q 3238 659 3340 972 
Q 3443 1286 3443 1651 
Q 3443 2016 3340 2333 
Q 3238 2650 3033 2883 
Q 2829 3117 2531 3251 
Q 2234 3386 1837 3386 
Q 1446 3386 1145 3251 
Q 845 3117 640 2883 
Q 435 2650 332 2333 
Q 230 2016 230 1651 
z
" transform="scale(0.015625)"/>
       <path id="HelveticaNeue-5c" d="M 3149 0 
L 3149 3309 
L 2605 3309 
L 2605 1440 
Q 2605 1216 2544 1027 
Q 2483 838 2361 697 
Q 2240 557 2057 480 
Q 1875 403 1626 403 
Q 1312 403 1133 582 
Q 954 762 954 1069 
L 954 3309 
L 410 3309 
L 410 1133 
Q 410 864 464 643 
Q 518 422 652 262 
Q 787 102 1004 16 
Q 1222 -70 1549 -70 
Q 1914 -70 2182 74 
Q 2451 218 2624 525 
L 2637 525 
L 2637 0 
L 3149 0 
z
" transform="scale(0.015625)"/>
       <path id="HelveticaNeue-59" d="M 390 3309 
L 390 0 
L 934 0 
L 934 1472 
Q 934 1792 998 2038 
Q 1062 2285 1203 2457 
Q 1344 2630 1574 2720 
Q 1805 2810 2131 2810 
L 2131 3386 
Q 1690 3398 1402 3206 
Q 1114 3014 915 2611 
L 902 2611 
L 902 3309 
L 390 3309 
z
" transform="scale(0.015625)"/>
       <path id="HelveticaNeue-3" transform="scale(0.015625)"/>
       <path id="HelveticaNeue-f" d="M 1306 -1261 
L 1722 -1261 
Q 1267 -525 1072 198 
Q 877 922 877 1728 
Q 877 2515 1069 3232 
Q 1261 3949 1722 4678 
L 1306 4678 
Q 806 4019 553 3251 
Q 301 2483 301 1728 
Q 301 1306 371 922 
Q 442 538 573 173 
Q 704 -192 889 -547 
Q 1075 -902 1306 -1261 
z
" transform="scale(0.015625)"/>
       <path id="HelveticaNeue-5b" d="M 1165 3309 
L 1165 4301 
L 621 4301 
L 621 3309 
L 58 3309 
L 58 2829 
L 621 2829 
L 621 723 
Q 621 493 665 352 
Q 710 211 803 134 
Q 896 58 1046 29 
Q 1197 0 1408 0 
L 1824 0 
L 1824 480 
L 1574 480 
Q 1446 480 1366 489 
Q 1286 499 1241 531 
Q 1197 563 1181 620 
Q 1165 678 1165 774 
L 1165 2829 
L 1824 2829 
L 1824 3309 
L 1165 3309 
z
" transform="scale(0.015625)"/>
       <path id="HelveticaNeue-4f" d="M 410 4570 
L 410 0 
L 954 0 
L 954 1869 
Q 954 2093 1014 2281 
Q 1075 2470 1196 2611 
Q 1318 2752 1500 2829 
Q 1683 2906 1933 2906 
Q 2246 2906 2425 2726 
Q 2605 2547 2605 2240 
L 2605 0 
L 3149 0 
L 3149 2176 
Q 3149 2445 3094 2665 
Q 3040 2886 2905 3046 
Q 2771 3206 2553 3296 
Q 2336 3386 2010 3386 
Q 1862 3386 1705 3354 
Q 1549 3322 1405 3254 
Q 1261 3187 1145 3081 
Q 1030 2976 966 2822 
L 954 2822 
L 954 4570 
L 410 4570 
z
" transform="scale(0.015625)"/>
       <path id="HelveticaNeue-4c" d="M 2707 1971 
L 806 1971 
Q 819 2163 889 2332 
Q 960 2502 1081 2630 
Q 1203 2758 1372 2832 
Q 1542 2906 1754 2906 
Q 1958 2906 2128 2832 
Q 2298 2758 2422 2633 
Q 2547 2509 2620 2336 
Q 2694 2163 2707 1971 
z
M 3232 1050 
L 2694 1050 
Q 2624 723 2403 563 
Q 2182 403 1837 403 
Q 1568 403 1369 492 
Q 1171 582 1043 732 
Q 915 883 857 1078 
Q 800 1274 806 1491 
L 3283 1491 
Q 3296 1792 3229 2125 
Q 3162 2458 2986 2739 
Q 2810 3021 2518 3203 
Q 2227 3386 1786 3386 
Q 1446 3386 1161 3258 
Q 877 3130 669 2899 
Q 461 2669 345 2355 
Q 230 2042 230 1664 
Q 243 1286 342 966 
Q 442 646 640 416 
Q 838 186 1129 58 
Q 1421 -70 1818 -70 
Q 2381 -70 2752 211 
Q 3123 493 3232 1050 
z
" transform="scale(0.015625)"/>
       <path id="HelveticaNeue-48" d="M 3341 13 
Q 3200 -70 2950 -70 
Q 2739 -70 2614 48 
Q 2490 166 2490 435 
Q 2266 166 1968 48 
Q 1670 -70 1325 -70 
Q 1101 -70 899 -19 
Q 698 32 550 141 
Q 403 250 316 426 
Q 230 602 230 851 
Q 230 1133 326 1312 
Q 422 1491 579 1603 
Q 736 1715 937 1772 
Q 1139 1830 1350 1869 
Q 1574 1914 1776 1936 
Q 1978 1958 2131 2000 
Q 2285 2042 2374 2122 
Q 2464 2202 2464 2355 
Q 2464 2534 2397 2643 
Q 2330 2752 2224 2809 
Q 2118 2867 1987 2886 
Q 1856 2906 1728 2906 
Q 1382 2906 1152 2774 
Q 922 2643 902 2278 
L 358 2278 
Q 371 2586 486 2797 
Q 602 3008 794 3139 
Q 986 3270 1232 3328 
Q 1478 3386 1760 3386 
Q 1984 3386 2205 3354 
Q 2426 3322 2605 3222 
Q 2784 3123 2893 2944 
Q 3002 2765 3002 2477 
L 3002 774 
Q 3002 582 3024 492 
Q 3046 403 3174 403 
Q 3245 403 3341 435 
L 3341 13 
z
M 2458 1709 
Q 2355 1632 2188 1597 
Q 2022 1562 1840 1539 
Q 1658 1517 1472 1488 
Q 1286 1459 1139 1395 
Q 992 1331 899 1212 
Q 806 1094 806 890 
Q 806 755 860 662 
Q 915 570 1001 512 
Q 1088 454 1203 428 
Q 1318 403 1446 403 
Q 1715 403 1907 476 
Q 2099 550 2220 662 
Q 2342 774 2400 905 
Q 2458 1037 2458 1152 
L 2458 1709 
z
" transform="scale(0.015625)"/>
       <path id="HelveticaNeue-53" d="M 442 4570 
L 442 0 
L 986 0 
L 986 4570 
L 442 4570 
z
" transform="scale(0.015625)"/>
       <path id="HelveticaNeue-4b" d="M 806 1626 
Q 806 1869 857 2099 
Q 909 2330 1024 2509 
Q 1139 2688 1331 2797 
Q 1523 2906 1798 2906 
Q 2080 2906 2278 2800 
Q 2477 2694 2601 2521 
Q 2726 2349 2784 2121 
Q 2842 1894 2842 1651 
Q 2842 1421 2787 1197 
Q 2733 973 2611 797 
Q 2490 621 2298 512 
Q 2106 403 1830 403 
Q 1568 403 1373 505 
Q 1178 608 1053 781 
Q 928 954 867 1174 
Q 806 1395 806 1626 
z
M 3366 0 
L 3366 4570 
L 2822 4570 
L 2822 2867 
L 2810 2867 
Q 2720 3014 2589 3113 
Q 2458 3213 2310 3273 
Q 2163 3334 2016 3360 
Q 1869 3386 1741 3386 
Q 1363 3386 1078 3248 
Q 794 3110 605 2876 
Q 416 2643 323 2329 
Q 230 2016 230 1664 
Q 230 1312 326 998 
Q 422 685 611 448 
Q 800 211 1085 70 
Q 1370 -70 1754 -70 
Q 2099 -70 2387 51 
Q 2675 173 2810 448 
L 2822 448 
L 2822 0 
L 3366 0 
z
" transform="scale(0.015625)"/>
       <path id="HelveticaNeue-60" d="M 1709 -442 
Q 1613 -685 1520 -851 
Q 1427 -1018 1315 -1123 
Q 1203 -1229 1065 -1277 
Q 928 -1325 749 -1325 
Q 653 -1325 557 -1312 
Q 461 -1299 371 -1267 
L 371 -768 
Q 442 -800 534 -822 
Q 627 -845 691 -845 
Q 858 -845 970 -765 
Q 1082 -685 1139 -538 
L 1363 19 
L 51 3309 
L 666 3309 
L 1632 602 
L 1645 602 
L 2573 3309 
L 3149 3309 
L 1709 -442 
z
" transform="scale(0.015625)"/>
       <path id="HelveticaNeue-5a" d="M 742 1043 
L 198 1043 
Q 211 736 326 521 
Q 442 307 634 176 
Q 826 45 1075 -12 
Q 1325 -70 1600 -70 
Q 1850 -70 2102 -22 
Q 2355 26 2556 147 
Q 2758 269 2883 467 
Q 3008 666 3008 966 
Q 3008 1203 2915 1363 
Q 2822 1523 2672 1628 
Q 2522 1734 2326 1798 
Q 2131 1862 1926 1907 
Q 1734 1952 1542 1993 
Q 1350 2035 1196 2096 
Q 1043 2157 944 2249 
Q 845 2342 845 2483 
Q 845 2611 909 2691 
Q 973 2771 1075 2819 
Q 1178 2867 1302 2886 
Q 1427 2906 1549 2906 
Q 1683 2906 1814 2877 
Q 1946 2848 2054 2784 
Q 2163 2720 2233 2614 
Q 2304 2509 2317 2349 
L 2861 2349 
Q 2842 2650 2733 2851 
Q 2624 3053 2441 3171 
Q 2259 3290 2022 3338 
Q 1786 3386 1504 3386 
Q 1286 3386 1065 3331 
Q 845 3277 669 3165 
Q 493 3053 381 2873 
Q 269 2694 269 2445 
Q 269 2125 429 1945 
Q 589 1766 829 1667 
Q 1069 1568 1350 1513 
Q 1632 1459 1872 1392 
Q 2112 1325 2272 1216 
Q 2432 1107 2432 896 
Q 2432 742 2355 643 
Q 2278 544 2160 493 
Q 2042 442 1901 422 
Q 1760 403 1632 403 
Q 1466 403 1309 435 
Q 1152 467 1027 540 
Q 902 614 825 739 
Q 749 864 742 1043 
z
" transform="scale(0.015625)"/>
       <path id="HelveticaNeue-10" d="M -58 -1261 
L 352 -1261 
Q 851 -602 1104 163 
Q 1357 928 1357 1683 
Q 1357 2106 1286 2490 
Q 1216 2874 1085 3242 
Q 954 3610 768 3965 
Q 582 4320 352 4678 
L -58 4678 
Q 390 3942 585 3216 
Q 781 2490 781 1683 
Q 781 902 589 182 
Q 397 -538 -58 -1261 
z
" transform="scale(0.015625)"/>
      </defs>
      <use xlink:href="#HelveticaNeue-2f"/>
      <use xlink:href="#HelveticaNeue-56" transform="translate(72.203125 0)"/>
      <use xlink:href="#HelveticaNeue-5c" transform="translate(129.609375 0)"/>
      <use xlink:href="#HelveticaNeue-59" transform="translate(185.203125 0)"/>
      <use xlink:href="#HelveticaNeue-3" transform="translate(218.5 0)"/>
      <use xlink:href="#HelveticaNeue-f" transform="translate(246.296875 0)"/>
      <use xlink:href="#HelveticaNeue-5b" transform="translate(272.203125 0)"/>
      <use xlink:href="#HelveticaNeue-4f" transform="translate(303.703125 0)"/>
      <use xlink:href="#HelveticaNeue-59" transform="translate(359.296875 0)"/>
      <use xlink:href="#HelveticaNeue-4c" transform="translate(390.796875 0)"/>
      <use xlink:href="#HelveticaNeue-4c" transform="translate(444.5 0)"/>
      <use xlink:href="#HelveticaNeue-3" transform="translate(498.203125 0)"/>
      <use xlink:href="#HelveticaNeue-59" transform="translate(526 0)"/>
      <use xlink:href="#HelveticaNeue-4c" transform="translate(557.5 0)"/>
      <use xlink:href="#HelveticaNeue-48" transform="translate(611.203125 0)"/>
      <use xlink:href="#HelveticaNeue-53" transform="translate(664.90625 0)"/>
      <use xlink:href="#HelveticaNeue-3" transform="translate(687.109375 0)"/>
      <use xlink:href="#HelveticaNeue-4b" transform="translate(714.90625 0)"/>
      <use xlink:href="#HelveticaNeue-48" transform="translate(774.203125 0)"/>
      <use xlink:href="#HelveticaNeue-60" transform="translate(827.90625 0)"/>
      <use xlink:href="#HelveticaNeue-5a" transform="translate(877.90625 0)"/>
      <use xlink:href="#HelveticaNeue-10" transform="translate(927.90625 0)"/>
     </g>
    </g>
   </g>
   <g id="matplotlib.axis_2">
    <g id="ytick_1">
     <g id="line2d_5">
      <defs>
       <path id="mf9641be34b" d="M 0 0 
L -3.5 0 
" style="stroke: #666666; stroke-width: 0.8"/>
      </defs>
      <g>
       <use xlink:href="#mf9641be34b" x="42.16875" y="193.284545" style="fill: #666666; stroke: #666666; stroke-width: 0.8"/>
      </g>
     </g>
     <g id="text_6">
      <!-- −0.2 -->
      <g style="fill: #666666" transform="translate(19.25 197.092545) scale(0.08 -0.08)">
       <defs>
        <path id="HelveticaNeue-f2" d="M 307 1837 
L 307 1402 
L 3533 1402 
L 3533 1837 
L 307 1837 
z
" transform="scale(0.015625)"/>
        <path id="HelveticaNeue-15" d="M 531 710 
L 531 0 
L 1242 0 
L 1242 710 
L 531 710 
z
" transform="scale(0.015625)"/>
       </defs>
       <use xlink:href="#HelveticaNeue-f2"/>
       <use xlink:href="#HelveticaNeue-17" transform="translate(60 0)"/>
       <use xlink:href="#HelveticaNeue-15" transform="translate(115.59375 0)"/>
       <use xlink:href="#HelveticaNeue-19" transform="translate(143.390625 0)"/>
      </g>
     </g>
    </g>
    <g id="ytick_2">
     <g id="line2d_6">
      <g>
       <use xlink:href="#mf9641be34b" x="42.16875" y="167.381107" style="fill: #666666; stroke: #666666; stroke-width: 0.8"/>
      </g>
     </g>
     <g id="text_7">
      <!-- 0.0 -->
      <g style="fill: #666666" transform="translate(24.05 171.189107) scale(0.08 -0.08)">
       <use xlink:href="#HelveticaNeue-17"/>
       <use xlink:href="#HelveticaNeue-15" transform="translate(55.59375 0)"/>
       <use xlink:href="#HelveticaNeue-17" transform="translate(83.390625 0)"/>
      </g>
     </g>
    </g>
    <g id="ytick_3">
     <g id="line2d_7">
      <g>
       <use xlink:href="#mf9641be34b" x="42.16875" y="141.477668" style="fill: #666666; stroke: #666666; stroke-width: 0.8"/>
      </g>
     </g>
     <g id="text_8">
      <!-- 0.2 -->
      <g style="fill: #666666" transform="translate(24.05 145.285668) scale(0.08 -0.08)">
       <use xlink:href="#HelveticaNeue-17"/>
       <use xlink:href="#HelveticaNeue-15" transform="translate(55.59375 0)"/>
       <use xlink:href="#HelveticaNeue-19" transform="translate(83.390625 0)"/>
      </g>
     </g>
    </g>
    <g id="ytick_4">
     <g id="line2d_8">
      <g>
       <use xlink:href="#mf9641be34b" x="42.16875" y="115.57423" style="fill: #666666; stroke: #666666; stroke-width: 0.8"/>
      </g>
     </g>
     <g id="text_9">
      <!-- 0.4 -->
      <g style="fill: #666666" transform="translate(24.05 119.38223) scale(0.08 -0.08)">
       <use xlink:href="#HelveticaNeue-17"/>
       <use xlink:href="#HelveticaNeue-15" transform="translate(55.59375 0)"/>
       <use xlink:href="#HelveticaNeue-1b" transform="translate(83.390625 0)"/>
      </g>
     </g>
    </g>
    <g id="ytick_5">
     <g id="line2d_9">
      <g>
       <use xlink:href="#mf9641be34b" x="42.16875" y="89.670792" style="fill: #666666; stroke: #666666; stroke-width: 0.8"/>
      </g>
     </g>
     <g id="text_10">
      <!-- 0.6 -->
      <g style="fill: #666666" transform="translate(24.05 93.478792) scale(0.08 -0.08)">
       <defs>
        <path id="HelveticaNeue-1d" d="M 2650 3379 
L 3194 3379 
Q 3142 3942 2809 4240 
Q 2477 4538 1914 4538 
Q 1427 4538 1107 4333 
Q 787 4128 595 3789 
Q 403 3450 323 3011 
Q 243 2573 243 2106 
Q 243 1747 297 1363 
Q 352 979 518 659 
Q 685 339 992 134 
Q 1299 -70 1805 -70 
Q 2234 -70 2525 74 
Q 2816 218 2992 438 
Q 3168 659 3245 928 
Q 3322 1197 3322 1446 
Q 3322 1760 3226 2029 
Q 3130 2298 2954 2496 
Q 2778 2694 2518 2806 
Q 2259 2918 1933 2918 
Q 1562 2918 1277 2777 
Q 992 2637 800 2323 
L 787 2336 
Q 794 2598 838 2899 
Q 883 3200 1001 3459 
Q 1120 3718 1331 3888 
Q 1542 4058 1888 4058 
Q 2214 4058 2412 3872 
Q 2611 3686 2650 3379 
z
M 1830 2438 
Q 2061 2438 2233 2355 
Q 2406 2272 2521 2134 
Q 2637 1997 2691 1808 
Q 2746 1619 2746 1408 
Q 2746 1210 2685 1027 
Q 2624 845 2509 704 
Q 2394 563 2224 483 
Q 2054 403 1830 403 
Q 1606 403 1430 483 
Q 1254 563 1136 697 
Q 1018 832 954 1017 
Q 890 1203 890 1414 
Q 890 1626 950 1814 
Q 1011 2003 1132 2140 
Q 1254 2278 1427 2358 
Q 1600 2438 1830 2438 
z
" transform="scale(0.015625)"/>
       </defs>
       <use xlink:href="#HelveticaNeue-17"/>
       <use xlink:href="#HelveticaNeue-15" transform="translate(55.59375 0)"/>
       <use xlink:href="#HelveticaNeue-1d" transform="translate(83.390625 0)"/>
      </g>
     </g>
    </g>
    <g id="ytick_6">
     <g id="line2d_10">
      <g>
       <use xlink:href="#mf9641be34b" x="42.16875" y="63.767354" style="fill: #666666; stroke: #666666; stroke-width: 0.8"/>
      </g>
     </g>
     <g id="text_11">
      <!-- 0.8 -->
      <g style="fill: #666666" transform="translate(24.05 67.575354) scale(0.08 -0.08)">
       <use xlink:href="#HelveticaNeue-17"/>
       <use xlink:href="#HelveticaNeue-15" transform="translate(55.59375 0)"/>
       <use xlink:href="#HelveticaNeue-1f" transform="translate(83.390625 0)"/>
      </g>
     </g>
    </g>
    <g id="ytick_7">
     <g id="line2d_11">
      <g>
       <use xlink:href="#mf9641be34b" x="42.16875" y="37.863915" style="fill: #666666; stroke: #666666; stroke-width: 0.8"/>
      </g>
     </g>
     <g id="text_12">
      <!-- 1.0 -->
      <g style="fill: #666666" transform="translate(24.05 41.671915) scale(0.08 -0.08)">
       <defs>
        <path id="HelveticaNeue-18" d="M 2278 0 
L 2278 4538 
L 1862 4538 
Q 1818 4282 1696 4115 
Q 1574 3949 1398 3853 
Q 1222 3757 1004 3721 
Q 787 3686 557 3686 
L 557 3251 
L 1734 3251 
L 1734 0 
L 2278 0 
z
" transform="scale(0.015625)"/>
       </defs>
       <use xlink:href="#HelveticaNeue-18"/>
       <use xlink:href="#HelveticaNeue-15" transform="translate(55.59375 0)"/>
       <use xlink:href="#HelveticaNeue-17" transform="translate(83.390625 0)"/>
      </g>
     </g>
    </g>
    <g id="text_13">
     <!-- Load (normalized) -->
     <g style="fill: #333333" transform="translate(13.12 155.595075) rotate(-90) scale(0.1 -0.1)">
      <defs>
       <path id="HelveticaNeue-33" d="M 499 4570 
L 499 0 
L 3526 0 
L 3526 512 
L 1107 512 
L 1107 4570 
L 499 4570 
z
" transform="scale(0.015625)"/>
       <path id="HelveticaNeue-55" d="M 410 3309 
L 410 0 
L 954 0 
L 954 1869 
Q 954 2093 1014 2281 
Q 1075 2470 1196 2611 
Q 1318 2752 1500 2829 
Q 1683 2906 1933 2906 
Q 2246 2906 2425 2726 
Q 2605 2547 2605 2240 
L 2605 0 
L 3149 0 
L 3149 2176 
Q 3149 2445 3094 2665 
Q 3040 2886 2905 3046 
Q 2771 3206 2553 3296 
Q 2336 3386 2010 3386 
Q 1274 3386 934 2784 
L 922 2784 
L 922 3309 
L 410 3309 
z
" transform="scale(0.015625)"/>
       <path id="HelveticaNeue-54" d="M 410 3309 
L 410 0 
L 954 0 
L 954 2061 
Q 954 2157 1002 2301 
Q 1050 2445 1155 2579 
Q 1261 2714 1430 2810 
Q 1600 2906 1837 2906 
Q 2022 2906 2140 2851 
Q 2259 2797 2329 2697 
Q 2400 2598 2429 2464 
Q 2458 2330 2458 2170 
L 2458 0 
L 3002 0 
L 3002 2061 
Q 3002 2445 3232 2675 
Q 3462 2906 3866 2906 
Q 4064 2906 4189 2848 
Q 4314 2790 4384 2691 
Q 4454 2592 4480 2457 
Q 4506 2323 4506 2170 
L 4506 0 
L 5050 0 
L 5050 2426 
Q 5050 2682 4970 2864 
Q 4890 3046 4746 3161 
Q 4602 3277 4400 3331 
Q 4198 3386 3949 3386 
Q 3622 3386 3350 3238 
Q 3078 3091 2912 2822 
Q 2810 3130 2560 3258 
Q 2310 3386 2003 3386 
Q 1306 3386 934 2822 
L 922 2822 
L 922 3309 
L 410 3309 
z
" transform="scale(0.015625)"/>
       <path id="HelveticaNeue-50" d="M 986 3904 
L 986 4570 
L 442 4570 
L 442 3904 
L 986 3904 
z
M 442 3309 
L 442 0 
L 986 0 
L 986 3309 
L 442 3309 
z
" transform="scale(0.015625)"/>
       <path id="HelveticaNeue-61" d="M 141 416 
L 141 0 
L 2931 0 
L 2931 480 
L 819 480 
L 2842 2938 
L 2842 3309 
L 269 3309 
L 269 2829 
L 2138 2829 
L 141 416 
z
" transform="scale(0.015625)"/>
      </defs>
      <use xlink:href="#HelveticaNeue-33"/>
      <use xlink:href="#HelveticaNeue-56" transform="translate(55.59375 0)"/>
      <use xlink:href="#HelveticaNeue-48" transform="translate(113 0)"/>
      <use xlink:href="#HelveticaNeue-4b" transform="translate(166.703125 0)"/>
      <use xlink:href="#HelveticaNeue-3" transform="translate(226 0)"/>
      <use xlink:href="#HelveticaNeue-f" transform="translate(253.796875 0)"/>
      <use xlink:href="#HelveticaNeue-55" transform="translate(279.703125 0)"/>
      <use xlink:href="#HelveticaNeue-56" transform="translate(335.296875 0)"/>
      <use xlink:href="#HelveticaNeue-59" transform="translate(392.703125 0)"/>
      <use xlink:href="#HelveticaNeue-54" transform="translate(426 0)"/>
      <use xlink:href="#HelveticaNeue-48" transform="translate(511.296875 0)"/>
      <use xlink:href="#HelveticaNeue-53" transform="translate(565 0)"/>
      <use xlink:href="#HelveticaNeue-50" transform="translate(587.203125 0)"/>
      <use xlink:href="#HelveticaNeue-61" transform="translate(609.40625 0)"/>
      <use xlink:href="#HelveticaNeue-4c" transform="translate(657.40625 0)"/>
      <use xlink:href="#HelveticaNeue-4b" transform="translate(711.109375 0)"/>
      <use xlink:href="#HelveticaNeue-10" transform="translate(770.40625 0)"/>
     </g>
    </g>
   </g>
   <g id="line2d_12">
    <path d="M 42.16875 160.900467 
L 43.113516 159.628689 
L 45.003048 163.326412 
L 45.947814 160.828615 
L 46.892579 161.886791 
L 47.837345 156.551645 
L 48.782111 150.11432 
L 49.726877 155.561264 
L 50.671643 154.183967 
L 51.616409 147.798853 
L 52.561175 146.057445 
L 53.505941 144.598465 
L 54.450707 146.018924 
L 56.340238 134.029835 
L 57.285004 138.909298 
L 58.22977 132.295874 
L 59.174536 134.625673 
L 60.119302 128.871804 
L 61.064068 127.555837 
L 62.008834 117.78103 
L 62.953599 118.203501 
L 63.898365 108.593717 
L 64.843131 105.379649 
L 65.787897 103.042647 
L 66.732663 108.424066 
L 67.677429 97.08289 
L 68.622195 91.553201 
L 69.566961 87.344171 
L 70.511727 90.208439 
L 71.456492 82.670969 
L 72.401258 81.254923 
L 73.346024 77.333841 
L 74.29079 66.920129 
L 75.235556 71.1566 
L 77.125088 58.959793 
L 78.069854 62.086579 
L 79.01462 57.845954 
L 79.959385 54.755289 
L 80.904151 52.897709 
L 81.848917 56.063114 
L 83.738449 42.956804 
L 84.683215 53.035959 
L 85.627981 42.69422 
L 86.572747 44.803301 
L 87.517513 47.221057 
L 88.462278 36.647534 
L 89.407044 41.38122 
L 90.35181 49.157199 
L 91.296576 44.593089 
L 92.241342 43.256567 
L 93.186108 47.072456 
L 94.130874 44.750732 
L 95.07564 48.947276 
L 96.965171 46.30556 
L 97.909937 56.429029 
L 98.854703 55.11716 
L 99.799469 59.994975 
L 100.744235 60.165121 
L 101.689001 67.904044 
L 102.633767 68.329884 
L 103.578533 69.774326 
L 104.523298 68.586381 
L 105.468064 70.816654 
L 106.41283 83.705594 
L 107.357596 85.042763 
L 108.302362 82.915887 
L 109.247128 96.7136 
L 110.191894 94.368489 
L 111.13666 96.583602 
L 112.081426 94.983691 
L 113.026191 100.862348 
L 113.970957 108.481977 
L 114.915723 112.294009 
L 115.860489 115.452622 
L 116.805255 112.132258 
L 117.750021 123.225223 
L 118.694787 126.177004 
L 119.639553 126.973089 
L 120.584319 132.056178 
L 121.529084 135.482242 
L 122.47385 142.045679 
L 123.418616 140.623554 
L 124.363382 145.013362 
L 125.308148 141.308276 
L 127.19768 150.507477 
L 128.142446 149.823407 
L 129.087212 155.549879 
L 130.031977 151.745124 
L 130.976743 157.246619 
L 131.921509 156.134423 
L 132.866275 164.370868 
L 133.811041 158.736571 
L 134.755807 167.143375 
L 135.700573 168.762083 
L 136.645339 162.075429 
L 137.590105 164.196156 
L 138.53487 159.638398 
L 139.479636 150.90109 
L 140.424402 161.975639 
L 141.369168 160.066176 
L 142.313934 155.523011 
L 143.2587 152.871435 
L 144.203466 153.731161 
L 145.148232 151.904234 
L 146.092997 146.240397 
L 147.037763 144.631321 
L 147.982529 148.174471 
L 148.927295 141.807425 
L 149.872061 138.549856 
L 150.816827 139.828095 
L 151.761593 131.633646 
L 152.706359 132.769964 
L 153.651125 122.345954 
L 154.59589 121.967224 
L 155.540656 118.882516 
L 156.485422 117.973364 
L 157.430188 112.533306 
L 158.374954 116.192708 
L 159.31972 109.161448 
L 160.264486 99.681926 
L 161.209252 105.694807 
L 162.154018 90.487849 
L 163.098783 96.950121 
L 164.043549 83.663082 
L 164.988315 86.390003 
L 165.933081 76.656982 
L 166.877847 75.845039 
L 167.822613 79.099701 
L 168.767379 65.16635 
L 169.712145 61.439324 
L 170.656911 64.459312 
L 171.601676 62.583095 
L 172.546442 59.618422 
L 173.491208 60.438016 
L 174.435974 50.214911 
L 175.38074 54.618599 
L 176.325506 50.93288 
L 177.270272 52.247292 
L 178.215038 50.240877 
L 179.159804 51.63399 
L 180.104569 40.868416 
L 181.049335 45.660839 
L 181.994101 40.847064 
L 182.938867 44.316954 
L 183.883633 47.066842 
L 184.828399 45.869508 
L 185.773165 47.238916 
L 186.717931 45.721853 
L 187.662696 48.127474 
L 188.607462 48.97361 
L 189.552228 54.5214 
L 190.496994 53.868992 
L 191.44176 46.082317 
L 192.386526 57.091575 
L 193.331292 60.744744 
L 194.276058 57.68657 
L 195.220824 56.050811 
L 196.165589 69.85326 
L 197.110355 67.851314 
L 198.055121 72.475788 
L 198.999887 79.970774 
L 199.944653 73.498283 
L 200.889419 79.774856 
L 201.834185 82.827222 
L 202.778951 89.526519 
L 203.723717 88.398564 
L 204.668482 95.872808 
L 205.613248 97.979479 
L 206.558014 105.39791 
L 207.50278 109.490533 
L 208.447546 103.241203 
L 209.392312 114.042809 
L 210.337078 114.543586 
L 212.22661 124.430218 
L 213.171375 128.096625 
L 214.116141 126.988164 
L 215.060907 133.816167 
L 216.950439 138.600621 
L 217.895205 136.928423 
L 218.839971 141.513972 
L 219.784737 145.164831 
L 221.674268 156.473749 
L 222.619034 149.356319 
L 223.5638 151.031901 
L 224.508566 156.867836 
L 225.453332 155.536335 
L 226.398098 155.707656 
L 227.342864 156.393547 
L 228.28763 156.695778 
L 229.232395 162.469782 
L 230.177161 155.005928 
L 231.121927 165.697438 
L 232.066693 157.235592 
L 233.011459 158.164421 
L 233.956225 155.960621 
L 234.900991 151.100248 
L 235.845757 151.457803 
L 236.790523 160.28278 
L 237.735288 160.790671 
L 238.680054 149.246376 
L 239.62482 154.357513 
L 241.514352 142.57651 
L 242.459118 149.676821 
L 243.403884 148.777149 
L 244.34865 136.709443 
L 246.238181 132.541994 
L 247.182947 128.193352 
L 248.127713 128.340596 
L 249.072479 127.442832 
L 250.017245 118.699495 
L 250.962011 118.256074 
L 251.906777 117.247674 
L 252.851543 105.245752 
L 253.796309 103.779603 
L 254.741074 98.28827 
L 255.68584 100.049513 
L 256.630606 95.125733 
L 257.575372 92.853819 
L 258.520138 88.874502 
L 259.464904 81.195907 
L 260.40967 81.605266 
L 261.354436 73.88293 
L 262.299202 70.758416 
L 263.243967 61.143209 
L 264.188733 71.490703 
L 265.133499 59.841222 
L 266.078265 61.007332 
L 267.023031 58.249299 
L 267.967797 61.539927 
L 269.857329 49.007257 
L 270.802094 50.508202 
L 271.74686 48.373884 
L 272.691626 48.533775 
L 273.636392 41.852841 
L 274.581158 45.580735 
L 275.525924 53.432373 
L 276.47069 47.186401 
L 278.360222 57.053699 
L 279.304987 46.788385 
L 280.249753 40.085485 
L 282.139285 51.580449 
L 283.084051 51.891638 
L 284.028817 45.271621 
L 284.973583 50.690679 
L 287.80788 57.26273 
L 288.752646 56.689574 
L 289.697412 60.249094 
L 290.642178 64.294911 
L 291.586944 72.070993 
L 292.53171 69.056346 
L 293.476476 76.849744 
L 294.421242 73.202717 
L 295.366008 85.753339 
L 296.310773 84.797801 
L 297.255539 87.813026 
L 298.200305 96.511681 
L 299.145071 88.299043 
L 300.089837 92.970723 
L 301.034603 104.117586 
L 301.979369 102.990173 
L 302.924135 108.176367 
L 303.868901 123.433844 
L 304.813666 115.894654 
L 305.758432 120.6381 
L 306.703198 123.537942 
L 307.647964 131.422656 
L 308.59273 131.564353 
L 309.537496 134.378959 
L 310.482262 132.115088 
L 311.427028 138.341627 
L 312.371793 142.42516 
L 313.316559 139.067217 
L 314.261325 149.60156 
L 315.206091 151.215279 
L 316.150857 158.832132 
L 317.095623 147.552002 
L 318.040389 151.574819 
L 318.985155 153.222906 
L 319.929921 155.434717 
L 320.874686 158.634 
L 321.819452 159.028718 
L 322.764218 161.421771 
L 323.708984 161.580562 
L 324.65375 160.69425 
L 324.65375 160.69425 
" clip-path="url(#pa39948210d)" style="fill: none; stroke: #059669; stroke-width: 1.6; stroke-linecap: square"/>
   </g>
   <g id="patch_3">
    <path d="M 42.16875 210.2589 
L 42.16875 21.3 
" style="fill: none; stroke: #bbbbbb; stroke-width: 0.8; stroke-linejoin: miter; stroke-linecap: square"/>
   </g>
   <g id="patch_4">
    <path d="M 42.16875 210.2589 
L 324.65375 210.2589 
" style="fill: none; stroke: #bbbbbb; stroke-width: 0.8; stroke-linejoin: miter; stroke-linecap: square"/>
   </g>
   <g id="text_14">
    <!-- Low entropy, Hurst &gt; 0.5 -->
    <g style="fill: #059669" transform="translate(131.361016 248.399214) scale(0.09 -0.09)">
     <defs>
      <path id="HelveticaNeue-Bold-33" d="M 442 4570 
L 442 0 
L 3674 0 
L 3674 845 
L 1446 845 
L 1446 4570 
L 442 4570 
z
" transform="scale(0.015625)"/>
      <path id="HelveticaNeue-Bold-56" d="M 1152 1651 
Q 1152 1850 1190 2042 
Q 1229 2234 1321 2381 
Q 1414 2528 1568 2621 
Q 1722 2714 1952 2714 
Q 2182 2714 2339 2621 
Q 2496 2528 2589 2381 
Q 2682 2234 2720 2042 
Q 2758 1850 2758 1651 
Q 2758 1453 2720 1264 
Q 2682 1075 2589 924 
Q 2496 774 2339 684 
Q 2182 595 1952 595 
Q 1722 595 1568 684 
Q 1414 774 1321 924 
Q 1229 1075 1190 1264 
Q 1152 1453 1152 1651 
z
M 243 1651 
Q 243 1254 364 934 
Q 486 614 710 387 
Q 934 160 1248 38 
Q 1562 -83 1952 -83 
Q 2342 -83 2659 38 
Q 2976 160 3200 387 
Q 3424 614 3545 934 
Q 3667 1254 3667 1651 
Q 3667 2048 3545 2371 
Q 3424 2694 3200 2921 
Q 2976 3149 2659 3273 
Q 2342 3398 1952 3398 
Q 1562 3398 1248 3273 
Q 934 3149 710 2921 
Q 486 2694 364 2371 
Q 243 2048 243 1651 
z
" transform="scale(0.015625)"/>
      <path id="HelveticaNeue-Bold-5e" d="M 4128 0 
L 5171 3309 
L 4237 3309 
L 3629 1069 
L 3616 1069 
L 3053 3309 
L 2170 3309 
L 1619 1062 
L 1606 1062 
L 998 3309 
L 38 3309 
L 1088 0 
L 2029 0 
L 2592 2221 
L 2605 2221 
L 3194 0 
L 4128 0 
z
" transform="scale(0.015625)"/>
      <path id="HelveticaNeue-Bold-3" transform="scale(0.015625)"/>
      <path id="HelveticaNeue-Bold-4c" d="M 2573 2010 
L 1094 2010 
Q 1101 2106 1136 2227 
Q 1171 2349 1257 2457 
Q 1344 2566 1488 2640 
Q 1632 2714 1850 2714 
Q 2182 2714 2345 2534 
Q 2509 2355 2573 2010 
z
M 1094 1434 
L 3482 1434 
Q 3507 1818 3417 2170 
Q 3328 2522 3126 2797 
Q 2925 3072 2611 3235 
Q 2298 3398 1875 3398 
Q 1498 3398 1187 3264 
Q 877 3130 653 2896 
Q 429 2662 307 2342 
Q 186 2022 186 1651 
Q 186 1267 304 947 
Q 422 627 640 396 
Q 858 166 1171 41 
Q 1485 -83 1875 -83 
Q 2438 -83 2835 173 
Q 3232 429 3424 1024 
L 2624 1024 
Q 2579 870 2380 732 
Q 2182 595 1907 595 
Q 1523 595 1318 793 
Q 1114 992 1094 1434 
z
" transform="scale(0.015625)"/>
      <path id="HelveticaNeue-Bold-55" d="M 346 3309 
L 346 0 
L 1254 0 
L 1254 1734 
Q 1254 2240 1420 2461 
Q 1587 2682 1958 2682 
Q 2285 2682 2413 2480 
Q 2541 2278 2541 1869 
L 2541 0 
L 3450 0 
L 3450 2035 
Q 3450 2342 3395 2595 
Q 3341 2848 3206 3024 
Q 3072 3200 2838 3299 
Q 2605 3398 2240 3398 
Q 1952 3398 1677 3267 
Q 1402 3136 1229 2848 
L 1210 2848 
L 1210 3309 
L 346 3309 
z
" transform="scale(0.015625)"/>
      <path id="HelveticaNeue-Bold-5b" d="M 1498 3309 
L 1498 4301 
L 589 4301 
L 589 3309 
L 38 3309 
L 38 2701 
L 589 2701 
L 589 749 
Q 589 499 672 345 
Q 755 192 899 109 
Q 1043 26 1232 -3 
Q 1421 -32 1632 -32 
Q 1766 -32 1907 -25 
Q 2048 -19 2163 0 
L 2163 704 
Q 2099 691 2028 684 
Q 1958 678 1882 678 
Q 1651 678 1574 755 
Q 1498 832 1498 1062 
L 1498 2701 
L 2163 2701 
L 2163 3309 
L 1498 3309 
z
" transform="scale(0.015625)"/>
      <path id="HelveticaNeue-Bold-59" d="M 346 3309 
L 346 0 
L 1254 0 
L 1254 1491 
Q 1254 1715 1299 1907 
Q 1344 2099 1449 2243 
Q 1555 2387 1728 2470 
Q 1901 2554 2150 2554 
Q 2234 2554 2323 2544 
Q 2413 2534 2477 2522 
L 2477 3366 
Q 2368 3398 2278 3398 
Q 2106 3398 1946 3347 
Q 1786 3296 1645 3203 
Q 1504 3110 1395 2979 
Q 1286 2848 1222 2694 
L 1210 2694 
L 1210 3309 
L 346 3309 
z
" transform="scale(0.015625)"/>
      <path id="HelveticaNeue-Bold-57" d="M 2016 595 
Q 1798 595 1644 684 
Q 1491 774 1398 918 
Q 1306 1062 1264 1254 
Q 1222 1446 1222 1645 
Q 1222 1850 1260 2042 
Q 1299 2234 1392 2381 
Q 1485 2528 1635 2621 
Q 1786 2714 2010 2714 
Q 2227 2714 2377 2621 
Q 2528 2528 2624 2377 
Q 2720 2227 2761 2035 
Q 2803 1843 2803 1645 
Q 2803 1446 2764 1254 
Q 2726 1062 2633 918 
Q 2541 774 2390 684 
Q 2240 595 2016 595 
z
M 346 3309 
L 346 -1158 
L 1254 -1158 
L 1254 410 
L 1267 410 
Q 1434 166 1693 41 
Q 1952 -83 2259 -83 
Q 2624 -83 2896 57 
Q 3168 198 3350 435 
Q 3533 672 3622 979 
Q 3712 1286 3712 1619 
Q 3712 1971 3622 2294 
Q 3533 2618 3347 2861 
Q 3162 3104 2880 3251 
Q 2598 3398 2208 3398 
Q 1901 3398 1645 3276 
Q 1389 3155 1222 2886 
L 1210 2886 
L 1210 3309 
L 346 3309 
z
" transform="scale(0.015625)"/>
      <path id="HelveticaNeue-Bold-60" d="M 1978 -410 
L 3360 3309 
L 2419 3309 
L 1696 1043 
L 1683 1043 
L 934 3309 
L -32 3309 
L 1126 205 
Q 1165 109 1165 0 
Q 1165 -147 1078 -268 
Q 992 -390 813 -410 
Q 678 -416 544 -403 
Q 410 -390 282 -378 
L 282 -1126 
Q 422 -1139 560 -1148 
Q 698 -1158 838 -1158 
Q 1306 -1158 1568 -985 
Q 1830 -813 1978 -410 
z
" transform="scale(0.015625)"/>
      <path id="HelveticaNeue-Bold-13" d="M 390 986 
L 390 0 
L 851 0 
Q 858 -102 826 -201 
Q 794 -301 730 -381 
Q 666 -461 579 -518 
Q 493 -576 397 -595 
L 397 -1056 
Q 602 -1024 784 -937 
Q 966 -851 1100 -716 
Q 1235 -582 1315 -400 
Q 1395 -218 1395 0 
L 1395 986 
L 390 986 
z
" transform="scale(0.015625)"/>
      <path id="HelveticaNeue-Bold-2f" d="M 442 4570 
L 442 0 
L 1446 0 
L 1446 1971 
L 3296 1971 
L 3296 0 
L 4301 0 
L 4301 4570 
L 3296 4570 
L 3296 2816 
L 1446 2816 
L 1446 4570 
L 442 4570 
z
" transform="scale(0.015625)"/>
      <path id="HelveticaNeue-Bold-5c" d="M 3450 0 
L 3450 3309 
L 2541 3309 
L 2541 1574 
Q 2541 1069 2374 848 
Q 2208 627 1837 627 
Q 1510 627 1382 828 
Q 1254 1030 1254 1440 
L 1254 3309 
L 346 3309 
L 346 1274 
Q 346 966 400 713 
Q 454 461 588 285 
Q 723 109 956 13 
Q 1190 -83 1555 -83 
Q 1843 -83 2118 45 
Q 2394 173 2566 461 
L 2586 461 
L 2586 0 
L 3450 0 
z
" transform="scale(0.015625)"/>
      <path id="HelveticaNeue-Bold-5a" d="M 1050 1075 
L 186 1075 
Q 198 742 336 521 
Q 474 301 688 166 
Q 902 32 1177 -25 
Q 1453 -83 1741 -83 
Q 2022 -83 2294 -28 
Q 2566 26 2777 160 
Q 2989 294 3120 515 
Q 3251 736 3251 1062 
Q 3251 1293 3161 1449 
Q 3072 1606 2925 1712 
Q 2778 1818 2589 1882 
Q 2400 1946 2202 1990 
Q 2010 2035 1824 2073 
Q 1638 2112 1494 2160 
Q 1350 2208 1260 2285 
Q 1171 2362 1171 2483 
Q 1171 2586 1222 2646 
Q 1274 2707 1347 2739 
Q 1421 2771 1510 2780 
Q 1600 2790 1677 2790 
Q 1920 2790 2099 2697 
Q 2278 2605 2298 2342 
L 3162 2342 
Q 3136 2650 3005 2851 
Q 2874 3053 2675 3174 
Q 2477 3296 2224 3347 
Q 1971 3398 1702 3398 
Q 1434 3398 1178 3350 
Q 922 3302 717 3184 
Q 512 3066 387 2861 
Q 262 2656 262 2336 
Q 262 2118 352 1968 
Q 442 1818 589 1718 
Q 736 1619 925 1558 
Q 1114 1498 1312 1453 
Q 1798 1350 2070 1248 
Q 2342 1146 2342 941 
Q 2342 819 2284 739 
Q 2227 659 2140 611 
Q 2054 563 1948 540 
Q 1843 518 1747 518 
Q 1613 518 1488 550 
Q 1363 582 1267 649 
Q 1171 717 1110 822 
Q 1050 928 1050 1075 
z
" transform="scale(0.015625)"/>
      <path id="HelveticaNeue-Bold-25" d="M 294 685 
L 294 -45 
L 3546 1242 
L 3546 1997 
L 294 3290 
L 294 2554 
L 2643 1619 
L 294 685 
z
" transform="scale(0.015625)"/>
      <path id="HelveticaNeue-Bold-17" d="M 1043 2259 
Q 1043 2374 1046 2537 
Q 1050 2701 1069 2873 
Q 1088 3046 1133 3216 
Q 1178 3386 1258 3520 
Q 1338 3654 1462 3737 
Q 1587 3821 1773 3821 
Q 1958 3821 2086 3737 
Q 2214 3654 2297 3520 
Q 2381 3386 2422 3216 
Q 2464 3046 2486 2873 
Q 2509 2701 2512 2537 
Q 2515 2374 2515 2259 
Q 2515 2067 2502 1795 
Q 2490 1523 2422 1270 
Q 2355 1018 2204 838 
Q 2054 659 1773 659 
Q 1498 659 1350 838 
Q 1203 1018 1136 1270 
Q 1069 1523 1056 1795 
Q 1043 2067 1043 2259 
z
M 134 2259 
Q 134 1587 265 1136 
Q 397 685 621 416 
Q 845 147 1142 32 
Q 1440 -83 1773 -83 
Q 2112 -83 2409 32 
Q 2707 147 2934 416 
Q 3162 685 3293 1136 
Q 3424 1587 3424 2259 
Q 3424 2912 3293 3357 
Q 3162 3802 2934 4070 
Q 2707 4339 2409 4454 
Q 2112 4570 1773 4570 
Q 1440 4570 1142 4454 
Q 845 4339 621 4070 
Q 397 3802 265 3357 
Q 134 2912 134 2259 
z
" transform="scale(0.015625)"/>
      <path id="HelveticaNeue-Bold-15" d="M 384 986 
L 384 0 
L 1389 0 
L 1389 986 
L 384 986 
z
" transform="scale(0.015625)"/>
      <path id="HelveticaNeue-Bold-1c" d="M 3200 3731 
L 3200 4480 
L 698 4480 
L 256 2003 
L 1075 2003 
Q 1210 2189 1363 2275 
Q 1517 2362 1760 2362 
Q 1946 2362 2086 2298 
Q 2227 2234 2329 2118 
Q 2432 2003 2483 1849 
Q 2534 1696 2534 1523 
Q 2534 1357 2480 1200 
Q 2426 1043 2326 924 
Q 2227 806 2083 732 
Q 1939 659 1760 659 
Q 1453 659 1254 841 
Q 1056 1024 1024 1331 
L 115 1331 
Q 122 979 259 713 
Q 397 448 627 269 
Q 858 90 1155 3 
Q 1453 -83 1779 -83 
Q 2118 -90 2419 28 
Q 2720 147 2947 364 
Q 3174 582 3308 880 
Q 3443 1178 3443 1523 
Q 3443 1837 3350 2115 
Q 3258 2394 3082 2598 
Q 2906 2803 2650 2924 
Q 2394 3046 2061 3046 
Q 1792 3046 1581 2966 
Q 1370 2886 1184 2701 
L 1171 2714 
L 1350 3731 
L 3200 3731 
z
" transform="scale(0.015625)"/>
     </defs>
     <use xlink:href="#HelveticaNeue-Bold-33"/>
     <use xlink:href="#HelveticaNeue-Bold-56" transform="translate(59.296875 0)"/>
     <use xlink:href="#HelveticaNeue-Bold-5e" transform="translate(120.390625 0)"/>
     <use xlink:href="#HelveticaNeue-Bold-3" transform="translate(201.796875 0)"/>
     <use xlink:href="#HelveticaNeue-Bold-4c" transform="translate(229.59375 0)"/>
     <use xlink:href="#HelveticaNeue-Bold-55" transform="translate(287 0)"/>
     <use xlink:href="#HelveticaNeue-Bold-5b" transform="translate(346.296875 0)"/>
     <use xlink:href="#HelveticaNeue-Bold-59" transform="translate(381.5 0)"/>
     <use xlink:href="#HelveticaNeue-Bold-56" transform="translate(418.609375 0)"/>
     <use xlink:href="#HelveticaNeue-Bold-57" transform="translate(479.703125 0)"/>
     <use xlink:href="#HelveticaNeue-Bold-60" transform="translate(540.796875 0)"/>
     <use xlink:href="#HelveticaNeue-Bold-13" transform="translate(585.296875 0)"/>
     <use xlink:href="#HelveticaNeue-Bold-3" transform="translate(613.09375 0)"/>
     <use xlink:href="#HelveticaNeue-Bold-2f" transform="translate(640.890625 0)"/>
     <use xlink:href="#HelveticaNeue-Bold-5c" transform="translate(714.984375 0)"/>
     <use xlink:href="#HelveticaNeue-Bold-59" transform="translate(774.28125 0)"/>
     <use xlink:href="#HelveticaNeue-Bold-5a" transform="translate(813.1875 0)"/>
     <use xlink:href="#HelveticaNeue-Bold-5b" transform="translate(866.890625 0)"/>
     <use xlink:href="#HelveticaNeue-Bold-3" transform="translate(902.09375 0)"/>
     <use xlink:href="#HelveticaNeue-Bold-25" transform="translate(929.890625 0)"/>
     <use xlink:href="#HelveticaNeue-Bold-3" transform="translate(989.890625 0)"/>
     <use xlink:href="#HelveticaNeue-Bold-17" transform="translate(1017.6875 0)"/>
     <use xlink:href="#HelveticaNeue-Bold-15" transform="translate(1073.28125 0)"/>
     <use xlink:href="#HelveticaNeue-Bold-1c" transform="translate(1101.078125 0)"/>
    </g>
    <!-- yesterday predicts today -->
    <g style="fill: #059669" transform="translate(130.57 259.388214) scale(0.09 -0.09)">
     <defs>
      <path id="HelveticaNeue-Bold-4b" d="M 2694 1664 
Q 2694 1459 2656 1267 
Q 2618 1075 2528 924 
Q 2438 774 2288 684 
Q 2138 595 1914 595 
Q 1702 595 1552 688 
Q 1402 781 1302 931 
Q 1203 1082 1158 1274 
Q 1114 1466 1114 1658 
Q 1114 1862 1155 2051 
Q 1197 2240 1289 2387 
Q 1382 2534 1536 2624 
Q 1690 2714 1914 2714 
Q 2138 2714 2285 2624 
Q 2432 2534 2525 2390 
Q 2618 2246 2656 2057 
Q 2694 1869 2694 1664 
z
M 2707 422 
L 2707 0 
L 3571 0 
L 3571 4570 
L 2662 4570 
L 2662 2906 
L 2650 2906 
Q 2496 3149 2230 3273 
Q 1965 3398 1670 3398 
Q 1306 3398 1030 3254 
Q 755 3110 572 2873 
Q 390 2637 297 2326 
Q 205 2016 205 1683 
Q 205 1338 297 1018 
Q 390 698 572 451 
Q 755 205 1036 61 
Q 1318 -83 1690 -83 
Q 2016 -83 2275 35 
Q 2534 154 2694 422 
L 2707 422 
z
" transform="scale(0.015625)"/>
      <path id="HelveticaNeue-Bold-48" d="M 307 2291 
Q 326 2611 467 2822 
Q 608 3034 825 3162 
Q 1043 3290 1315 3344 
Q 1587 3398 1862 3398 
Q 2112 3398 2368 3363 
Q 2624 3328 2835 3225 
Q 3046 3123 3180 2940 
Q 3315 2758 3315 2458 
L 3315 736 
Q 3315 512 3340 307 
Q 3366 102 3430 0 
L 2509 0 
Q 2483 77 2467 157 
Q 2451 237 2445 320 
Q 2227 96 1932 6 
Q 1638 -83 1331 -83 
Q 1094 -83 889 -25 
Q 685 32 531 153 
Q 378 275 291 460 
Q 205 646 205 902 
Q 205 1184 304 1366 
Q 403 1549 560 1657 
Q 717 1766 918 1820 
Q 1120 1875 1325 1907 
Q 1530 1939 1728 1958 
Q 1926 1978 2080 2016 
Q 2234 2054 2323 2128 
Q 2413 2202 2406 2342 
Q 2406 2490 2358 2576 
Q 2310 2662 2230 2710 
Q 2150 2758 2044 2774 
Q 1939 2790 1818 2790 
Q 1549 2790 1395 2675 
Q 1242 2560 1216 2291 
L 307 2291 
z
M 2406 1619 
Q 2349 1568 2262 1539 
Q 2176 1510 2077 1491 
Q 1978 1472 1869 1459 
Q 1760 1446 1651 1427 
Q 1549 1408 1449 1376 
Q 1350 1344 1276 1289 
Q 1203 1235 1158 1152 
Q 1114 1069 1114 941 
Q 1114 819 1158 736 
Q 1203 653 1280 605 
Q 1357 557 1459 537 
Q 1562 518 1670 518 
Q 1939 518 2086 608 
Q 2234 698 2304 822 
Q 2374 947 2390 1075 
Q 2406 1203 2406 1280 
L 2406 1619 
z
" transform="scale(0.015625)"/>
      <path id="HelveticaNeue-Bold-50" d="M 1280 3821 
L 1280 4570 
L 371 4570 
L 371 3821 
L 1280 3821 
z
M 371 3309 
L 371 0 
L 1280 0 
L 1280 3309 
L 371 3309 
z
" transform="scale(0.015625)"/>
      <path id="HelveticaNeue-Bold-4a" d="M 2598 2144 
L 3488 2144 
Q 3469 2464 3334 2697 
Q 3200 2931 2985 3088 
Q 2771 3245 2499 3321 
Q 2227 3398 1933 3398 
Q 1530 3398 1216 3264 
Q 902 3130 684 2890 
Q 467 2650 355 2320 
Q 243 1990 243 1606 
Q 243 1235 364 924 
Q 486 614 704 390 
Q 922 166 1232 41 
Q 1542 -83 1914 -83 
Q 2573 -83 2995 262 
Q 3418 608 3507 1267 
L 2630 1267 
Q 2586 960 2410 777 
Q 2234 595 1907 595 
Q 1696 595 1549 691 
Q 1402 787 1315 937 
Q 1229 1088 1190 1273 
Q 1152 1459 1152 1638 
Q 1152 1824 1190 2013 
Q 1229 2202 1321 2358 
Q 1414 2515 1561 2614 
Q 1709 2714 1926 2714 
Q 2509 2714 2598 2144 
z
" transform="scale(0.015625)"/>
     </defs>
     <use xlink:href="#HelveticaNeue-Bold-60"/>
     <use xlink:href="#HelveticaNeue-Bold-4c" transform="translate(51.90625 0)"/>
     <use xlink:href="#HelveticaNeue-Bold-5a" transform="translate(109.3125 0)"/>
     <use xlink:href="#HelveticaNeue-Bold-5b" transform="translate(163.015625 0)"/>
     <use xlink:href="#HelveticaNeue-Bold-4c" transform="translate(198.21875 0)"/>
     <use xlink:href="#HelveticaNeue-Bold-59" transform="translate(255.625 0)"/>
     <use xlink:href="#HelveticaNeue-Bold-4b" transform="translate(292.734375 0)"/>
     <use xlink:href="#HelveticaNeue-Bold-48" transform="translate(353.828125 0)"/>
     <use xlink:href="#HelveticaNeue-Bold-60" transform="translate(411.234375 0)"/>
     <use xlink:href="#HelveticaNeue-Bold-3" transform="translate(463.140625 0)"/>
     <use xlink:href="#HelveticaNeue-Bold-57" transform="translate(490.9375 0)"/>
     <use xlink:href="#HelveticaNeue-Bold-59" transform="translate(552.03125 0)"/>
     <use xlink:href="#HelveticaNeue-Bold-4c" transform="translate(589.140625 0)"/>
     <use xlink:href="#HelveticaNeue-Bold-4b" transform="translate(646.546875 0)"/>
     <use xlink:href="#HelveticaNeue-Bold-50" transform="translate(707.640625 0)"/>
     <use xlink:href="#HelveticaNeue-Bold-4a" transform="translate(733.4375 0)"/>
     <use xlink:href="#HelveticaNeue-Bold-5b" transform="translate(790.84375 0)"/>
     <use xlink:href="#HelveticaNeue-Bold-5a" transform="translate(826.046875 0)"/>
     <use xlink:href="#HelveticaNeue-Bold-3" transform="translate(879.75 0)"/>
     <use xlink:href="#HelveticaNeue-Bold-5b" transform="translate(907.546875 0)"/>
     <use xlink:href="#HelveticaNeue-Bold-56" transform="translate(942.75 0)"/>
     <use xlink:href="#HelveticaNeue-Bold-4b" transform="translate(1003.84375 0)"/>
     <use xlink:href="#HelveticaNeue-Bold-48" transform="translate(1064.9375 0)"/>
     <use xlink:href="#HelveticaNeue-Bold-60" transform="translate(1122.34375 0)"/>
    </g>
   </g>
   <g id="text_15">
    <!-- Persistent: forecastable -->
    <g style="fill: #1e293b" transform="translate(115.41625 15.3) scale(0.12 -0.12)">
     <defs>
      <path id="HelveticaNeue-Bold-37" d="M 1446 2419 
L 1446 3789 
L 2227 3789 
Q 2400 3789 2560 3763 
Q 2720 3738 2841 3664 
Q 2963 3590 3036 3456 
Q 3110 3322 3110 3104 
Q 3110 2886 3036 2752 
Q 2963 2618 2841 2544 
Q 2720 2470 2560 2444 
Q 2400 2419 2227 2419 
L 1446 2419 
z
M 442 4570 
L 442 0 
L 1446 0 
L 1446 1638 
L 2502 1638 
Q 2931 1638 3232 1763 
Q 3533 1888 3721 2093 
Q 3910 2298 3996 2563 
Q 4083 2829 4083 3104 
Q 4083 3386 3996 3648 
Q 3910 3910 3721 4115 
Q 3533 4320 3232 4445 
Q 2931 4570 2502 4570 
L 442 4570 
z
" transform="scale(0.015625)"/>
      <path id="HelveticaNeue-Bold-21" d="M 1395 2266 
L 1395 3251 
L 390 3251 
L 390 2266 
L 1395 2266 
z
M 390 986 
L 390 0 
L 1395 0 
L 1395 986 
L 390 986 
z
" transform="scale(0.015625)"/>
      <path id="HelveticaNeue-Bold-4d" d="M 544 2701 
L 544 0 
L 1453 0 
L 1453 2701 
L 2080 2701 
L 2080 3309 
L 1453 3309 
L 1453 3507 
Q 1453 3712 1533 3798 
Q 1613 3885 1798 3885 
Q 1971 3885 2131 3866 
L 2131 4544 
Q 2016 4550 1894 4560 
Q 1773 4570 1651 4570 
Q 1094 4570 819 4288 
Q 544 4006 544 3565 
L 544 3309 
L 0 3309 
L 0 2701 
L 544 2701 
z
" transform="scale(0.015625)"/>
      <path id="HelveticaNeue-Bold-49" d="M 2771 1651 
Q 2771 1446 2726 1254 
Q 2682 1062 2586 915 
Q 2490 768 2346 681 
Q 2202 595 1997 595 
Q 1798 595 1651 681 
Q 1504 768 1408 915 
Q 1312 1062 1267 1254 
Q 1222 1446 1222 1651 
Q 1222 1862 1267 2054 
Q 1312 2246 1408 2393 
Q 1504 2541 1651 2627 
Q 1798 2714 1997 2714 
Q 2202 2714 2346 2627 
Q 2490 2541 2586 2393 
Q 2682 2246 2726 2054 
Q 2771 1862 2771 1651 
z
M 346 4570 
L 346 0 
L 1210 0 
L 1210 422 
L 1222 422 
Q 1370 147 1658 32 
Q 1946 -83 2310 -83 
Q 2560 -83 2803 19 
Q 3046 122 3241 333 
Q 3437 544 3558 873 
Q 3680 1203 3680 1658 
Q 3680 2112 3558 2441 
Q 3437 2771 3241 2982 
Q 3046 3194 2803 3296 
Q 2560 3398 2310 3398 
Q 2003 3398 1718 3280 
Q 1434 3162 1267 2906 
L 1254 2906 
L 1254 4570 
L 346 4570 
z
" transform="scale(0.015625)"/>
      <path id="HelveticaNeue-Bold-53" d="M 371 4570 
L 371 0 
L 1280 0 
L 1280 4570 
L 371 4570 
z
" transform="scale(0.015625)"/>
     </defs>
     <use xlink:href="#HelveticaNeue-Bold-37"/>
     <use xlink:href="#HelveticaNeue-Bold-4c" transform="translate(66.703125 0)"/>
     <use xlink:href="#HelveticaNeue-Bold-59" transform="translate(124.109375 0)"/>
     <use xlink:href="#HelveticaNeue-Bold-5a" transform="translate(163.015625 0)"/>
     <use xlink:href="#HelveticaNeue-Bold-50" transform="translate(216.71875 0)"/>
     <use xlink:href="#HelveticaNeue-Bold-5a" transform="translate(242.515625 0)"/>
     <use xlink:href="#HelveticaNeue-Bold-5b" transform="translate(296.21875 0)"/>
     <use xlink:href="#HelveticaNeue-Bold-4c" transform="translate(331.421875 0)"/>
     <use xlink:href="#HelveticaNeue-Bold-55" transform="translate(388.828125 0)"/>
     <use xlink:href="#HelveticaNeue-Bold-5b" transform="translate(448.125 0)"/>
     <use xlink:href="#HelveticaNeue-Bold-21" transform="translate(483.328125 0)"/>
     <use xlink:href="#HelveticaNeue-Bold-3" transform="translate(511.125 0)"/>
     <use xlink:href="#HelveticaNeue-Bold-4d" transform="translate(538.921875 0)"/>
     <use xlink:href="#HelveticaNeue-Bold-56" transform="translate(572.21875 0)"/>
     <use xlink:href="#HelveticaNeue-Bold-59" transform="translate(633.3125 0)"/>
     <use xlink:href="#HelveticaNeue-Bold-4c" transform="translate(670.421875 0)"/>
     <use xlink:href="#HelveticaNeue-Bold-4a" transform="translate(727.828125 0)"/>
     <use xlink:href="#HelveticaNeue-Bold-48" transform="translate(785.234375 0)"/>
     <use xlink:href="#HelveticaNeue-Bold-5a" transform="translate(842.640625 0)"/>
     <use xlink:href="#HelveticaNeue-Bold-5b" transform="translate(896.34375 0)"/>
     <use xlink:href="#HelveticaNeue-Bold-48" transform="translate(931.546875 0)"/>
     <use xlink:href="#HelveticaNeue-Bold-49" transform="translate(988.953125 0)"/>
     <use xlink:href="#HelveticaNeue-Bold-53" transform="translate(1050.046875 0)"/>
     <use xlink:href="#HelveticaNeue-Bold-4c" transform="translate(1075.84375 0)"/>
    </g>
   </g>
  </g>
  <g id="axes_2">
   <g id="patch_5">
    <path d="M 343.27375 210.2589 
L 625.75875 210.2589 
L 625.75875 21.3 
L 343.27375 21.3 
z
" style="fill: #ffffff"/>
   </g>
   <g id="matplotlib.axis_3">
    <g id="xtick_5">
     <g id="line2d_13">
      <g>
       <use xlink:href="#md5019fd794" x="343.27375" y="210.2589" style="fill: #666666; stroke: #666666; stroke-width: 0.8"/>
      </g>
     </g>
     <g id="text_16">
      <!-- 0 -->
      <g style="fill: #666666" transform="translate(341.05 224.8749) scale(0.08 -0.08)">
       <use xlink:href="#HelveticaNeue-17"/>
      </g>
     </g>
    </g>
    <g id="xtick_6">
     <g id="line2d_14">
      <g>
       <use xlink:href="#md5019fd794" x="437.435417" y="210.2589" style="fill: #666666; stroke: #666666; stroke-width: 0.8"/>
      </g>
     </g>
     <g id="text_17">
      <!-- 24 -->
      <g style="fill: #666666" transform="translate(432.987917 224.8749) scale(0.08 -0.08)">
       <use xlink:href="#HelveticaNeue-19"/>
       <use xlink:href="#HelveticaNeue-1b" transform="translate(55.59375 0)"/>
      </g>
     </g>
    </g>
    <g id="xtick_7">
     <g id="line2d_15">
      <g>
       <use xlink:href="#md5019fd794" x="531.597083" y="210.2589" style="fill: #666666; stroke: #666666; stroke-width: 0.8"/>
      </g>
     </g>
     <g id="text_18">
      <!-- 48 -->
      <g style="fill: #666666" transform="translate(527.149583 224.8749) scale(0.08 -0.08)">
       <use xlink:href="#HelveticaNeue-1b"/>
       <use xlink:href="#HelveticaNeue-1f" transform="translate(55.59375 0)"/>
      </g>
     </g>
    </g>
    <g id="xtick_8">
     <g id="line2d_16">
      <g>
       <use xlink:href="#md5019fd794" x="625.75875" y="210.2589" style="fill: #666666; stroke: #666666; stroke-width: 0.8"/>
      </g>
     </g>
     <g id="text_19">
      <!-- 72 -->
      <g style="fill: #666666" transform="translate(621.31125 224.8749) scale(0.08 -0.08)">
       <use xlink:href="#HelveticaNeue-1e"/>
       <use xlink:href="#HelveticaNeue-19" transform="translate(55.59375 0)"/>
      </g>
     </g>
    </g>
    <g id="text_20">
     <!-- Hour (three real days) -->
     <g style="fill: #333333" transform="translate(436.825625 240.0989) scale(0.1 -0.1)">
      <use xlink:href="#HelveticaNeue-2f"/>
      <use xlink:href="#HelveticaNeue-56" transform="translate(72.203125 0)"/>
      <use xlink:href="#HelveticaNeue-5c" transform="translate(129.609375 0)"/>
      <use xlink:href="#HelveticaNeue-59" transform="translate(185.203125 0)"/>
      <use xlink:href="#HelveticaNeue-3" transform="translate(218.5 0)"/>
      <use xlink:href="#HelveticaNeue-f" transform="translate(246.296875 0)"/>
      <use xlink:href="#HelveticaNeue-5b" transform="translate(272.203125 0)"/>
      <use xlink:href="#HelveticaNeue-4f" transform="translate(303.703125 0)"/>
      <use xlink:href="#HelveticaNeue-59" transform="translate(359.296875 0)"/>
      <use xlink:href="#HelveticaNeue-4c" transform="translate(390.796875 0)"/>
      <use xlink:href="#HelveticaNeue-4c" transform="translate(444.5 0)"/>
      <use xlink:href="#HelveticaNeue-3" transform="translate(498.203125 0)"/>
      <use xlink:href="#HelveticaNeue-59" transform="translate(526 0)"/>
      <use xlink:href="#HelveticaNeue-4c" transform="translate(557.5 0)"/>
      <use xlink:href="#HelveticaNeue-48" transform="translate(611.203125 0)"/>
      <use xlink:href="#HelveticaNeue-53" transform="translate(664.90625 0)"/>
      <use xlink:href="#HelveticaNeue-3" transform="translate(687.109375 0)"/>
      <use xlink:href="#HelveticaNeue-4b" transform="translate(714.90625 0)"/>
      <use xlink:href="#HelveticaNeue-48" transform="translate(774.203125 0)"/>
      <use xlink:href="#HelveticaNeue-60" transform="translate(827.90625 0)"/>
      <use xlink:href="#HelveticaNeue-5a" transform="translate(877.90625 0)"/>
      <use xlink:href="#HelveticaNeue-10" transform="translate(927.90625 0)"/>
     </g>
    </g>
   </g>
   <g id="matplotlib.axis_4">
    <g id="ytick_8">
     <g id="line2d_17">
      <g>
       <use xlink:href="#mf9641be34b" x="343.27375" y="193.284545" style="fill: #666666; stroke: #666666; stroke-width: 0.8"/>
      </g>
     </g>
    </g>
    <g id="ytick_9">
     <g id="line2d_18">
      <g>
       <use xlink:href="#mf9641be34b" x="343.27375" y="167.381107" style="fill: #666666; stroke: #666666; stroke-width: 0.8"/>
      </g>
     </g>
    </g>
    <g id="ytick_10">
     <g id="line2d_19">
      <g>
       <use xlink:href="#mf9641be34b" x="343.27375" y="141.477668" style="fill: #666666; stroke: #666666; stroke-width: 0.8"/>
      </g>
     </g>
    </g>
    <g id="ytick_11">
     <g id="line2d_20">
      <g>
       <use xlink:href="#mf9641be34b" x="343.27375" y="115.57423" style="fill: #666666; stroke: #666666; stroke-width: 0.8"/>
      </g>
     </g>
    </g>
    <g id="ytick_12">
     <g id="line2d_21">
      <g>
       <use xlink:href="#mf9641be34b" x="343.27375" y="89.670792" style="fill: #666666; stroke: #666666; stroke-width: 0.8"/>
      </g>
     </g>
    </g>
    <g id="ytick_13">
     <g id="line2d_22">
      <g>
       <use xlink:href="#mf9641be34b" x="343.27375" y="63.767354" style="fill: #666666; stroke: #666666; stroke-width: 0.8"/>
      </g>
     </g>
    </g>
    <g id="ytick_14">
     <g id="line2d_23">
      <g>
       <use xlink:href="#mf9641be34b" x="343.27375" y="37.863915" style="fill: #666666; stroke: #666666; stroke-width: 0.8"/>
      </g>
     </g>
    </g>
   </g>
   <g id="line2d_24">
    <path d="M 343.27375 78.972349 
L 344.218516 106.177847 
L 345.163282 123.561622 
L 346.108048 138.212746 
L 347.052814 139.529177 
L 347.997579 75.425791 
L 348.942345 106.239348 
L 350.831877 129.4953 
L 351.776643 150.607168 
L 353.666175 92.669231 
L 354.610941 127.935896 
L 355.555707 122.357867 
L 356.500472 121.260128 
L 357.445238 110.869398 
L 358.390004 158.368023 
L 359.33477 118.62833 
L 360.279536 135.172781 
L 361.224302 84.496929 
L 362.169068 130.505527 
L 363.113834 90.928623 
L 364.058599 62.737625 
L 365.003365 113.89979 
L 365.948131 120.885759 
L 366.892897 97.06582 
L 367.837663 101.354541 
L 368.782429 128.390159 
L 370.671961 40.24681 
L 371.616727 103.857285 
L 372.561492 101.133934 
L 373.506258 124.006697 
L 374.451024 84.053334 
L 375.39579 127.626832 
L 376.340556 122.628629 
L 377.285322 53.663459 
L 378.230088 115.013491 
L 379.174854 57.542704 
L 380.11962 44.117594 
L 381.064385 79.420649 
L 382.009151 70.361971 
L 382.953917 29.889041 
L 383.898683 90.575422 
L 384.843449 101.39083 
L 385.788215 122.648513 
L 387.677747 41.357612 
L 388.622513 55.982043 
L 389.567278 110.065478 
L 390.512044 107.568884 
L 391.45681 97.6132 
L 392.401576 75.048059 
L 393.346342 89.430874 
L 394.291108 77.750717 
L 395.235874 75.761177 
L 396.18064 93.157804 
L 398.070171 79.82673 
L 399.014937 88.742199 
L 399.959703 72.70328 
L 400.904469 34.504943 
L 401.849235 71.767353 
L 402.794001 87.921814 
L 403.738767 138.485237 
L 404.683533 80.364644 
L 405.628298 147.909419 
L 406.573064 133.652528 
L 407.51783 70.250771 
L 408.462596 75.610089 
L 409.407362 101.163817 
L 410.352128 146.797032 
L 411.296894 109.852409 
L 412.24166 119.82336 
L 413.186426 83.558287 
L 414.131191 38.597405 
L 415.075957 97.970699 
L 416.020723 127.574496 
L 416.965489 139.928609 
L 417.910255 109.363997 
L 418.855021 113.973223 
L 419.799787 142.891827 
L 420.744553 107.880633 
L 421.689319 145.071194 
L 422.634084 81.632095 
L 423.57885 84.041724 
L 424.523616 84.365937 
L 425.468382 129.685772 
L 426.413148 102.367465 
L 427.357914 121.58385 
L 428.30268 129.631622 
L 429.247446 128.885354 
L 430.192212 156.858581 
L 431.136977 161.500537 
L 432.081743 98.190521 
L 433.026509 126.664415 
L 433.971275 115.366605 
L 434.916041 93.23369 
L 435.860807 171.326451 
L 437.750339 117.049848 
L 438.695105 110.809235 
L 439.63987 132.58456 
L 440.584636 92.297508 
L 441.529402 115.334715 
L 442.474168 155.536132 
L 443.418934 147.043025 
L 444.3637 97.059772 
L 445.308466 106.213939 
L 446.253232 172.894474 
L 447.197997 79.670196 
L 448.142763 100.258766 
L 449.087529 78.190787 
L 450.032295 126.514685 
L 450.977061 123.069784 
L 451.921827 145.755656 
L 452.866593 40.342707 
L 453.811359 116.559815 
L 454.756125 65.22116 
L 455.70089 127.764198 
L 456.645656 103.489725 
L 457.590422 154.597132 
L 459.479954 76.527587 
L 460.42472 139.003705 
L 461.369486 71.560438 
L 462.314252 91.280569 
L 463.259018 129.420238 
L 464.203783 112.762622 
L 465.148549 110.363325 
L 466.093315 97.527604 
L 467.038081 110.253031 
L 467.982847 117.438853 
L 468.927613 101.469965 
L 469.872379 121.014959 
L 470.817145 127.50553 
L 471.761911 91.188946 
L 472.706676 63.764844 
L 473.651442 131.658344 
L 474.596208 87.198062 
L 475.540974 105.09588 
L 476.48574 113.760638 
L 477.430506 61.008667 
L 478.375272 99.56793 
L 479.320038 41.658812 
L 480.264804 106.192037 
L 481.209569 72.65303 
L 482.154335 89.91187 
L 483.099101 104.766663 
L 484.043867 66.459498 
L 484.988633 87.620622 
L 485.933399 66.093979 
L 486.878165 84.783231 
L 487.822931 114.604945 
L 488.767696 86.879802 
L 489.712462 82.870695 
L 490.657228 57.493082 
L 491.601994 111.149365 
L 492.54676 87.038725 
L 493.491526 135.639007 
L 494.436292 68.734521 
L 495.381058 118.8963 
L 496.325824 140.391285 
L 497.270589 91.503527 
L 498.215355 59.256894 
L 499.160121 135.192246 
L 500.104887 123.793358 
L 501.049653 115.045004 
L 501.994419 127.159893 
L 502.939185 85.305275 
L 503.883951 120.28776 
L 504.828717 119.028903 
L 505.773482 83.05355 
L 506.718248 122.417219 
L 507.663014 89.780714 
L 508.60778 131.015227 
L 509.552546 139.096896 
L 510.497312 158.071381 
L 511.442078 53.941272 
L 512.386844 117.283571 
L 513.33161 102.369804 
L 514.276375 111.340703 
L 515.221141 107.002545 
L 516.165907 111.21367 
L 517.110673 59.286313 
L 518.055439 144.246943 
L 519.000205 159.959582 
L 519.944971 145.302268 
L 520.889737 155.329725 
L 521.834503 96.787843 
L 522.779268 95.407359 
L 523.724034 146.821767 
L 524.6688 159.629463 
L 525.613566 130.631543 
L 526.558332 81.323904 
L 527.503098 201.669859 
L 528.447864 106.617128 
L 529.39263 152.492618 
L 530.337395 92.337503 
L 531.282161 152.75993 
L 532.226927 130.165511 
L 533.171693 164.86254 
L 534.116459 149.62198 
L 535.061225 82.045569 
L 536.005991 97.834005 
L 536.950757 132.268599 
L 537.895523 145.153902 
L 538.840288 173.786506 
L 539.785054 130.43858 
L 540.72982 119.433447 
L 541.674586 120.215717 
L 542.619352 119.700589 
L 543.564118 148.14288 
L 544.508884 117.162997 
L 545.45365 115.422609 
L 546.398416 76.547244 
L 547.343181 59.087019 
L 548.287947 115.099369 
L 549.232713 131.915645 
L 550.177479 110.787303 
L 551.122245 125.079087 
L 552.067011 127.729916 
L 553.011777 107.040139 
L 553.956543 133.879558 
L 554.901309 85.658413 
L 555.846074 104.665235 
L 556.79084 93.359856 
L 557.735606 104.483939 
L 558.680372 118.794578 
L 559.625138 123.902441 
L 560.569904 102.494287 
L 561.51467 110.238933 
L 562.459436 86.839084 
L 563.404202 92.567464 
L 564.348967 130.23628 
L 565.293733 88.528801 
L 566.238499 127.77524 
L 567.183265 106.200661 
L 568.128031 96.200517 
L 569.072797 146.182878 
L 570.017563 83.742191 
L 570.962329 81.411241 
L 571.907094 89.646958 
L 572.85186 96.735019 
L 573.796626 94.861786 
L 574.741392 111.686624 
L 575.686158 91.265559 
L 576.630924 99.121882 
L 577.57569 80.634991 
L 578.520456 117.506396 
L 579.465222 76.508888 
L 580.409987 79.243697 
L 582.299519 96.274069 
L 583.244285 68.35159 
L 584.189051 131.92465 
L 585.133817 71.849829 
L 586.078583 78.590997 
L 587.023349 78.055723 
L 587.968115 75.887815 
L 588.91288 106.17712 
L 589.857646 95.747669 
L 590.802412 71.061507 
L 592.691944 85.197949 
L 593.63671 135.244474 
L 594.581476 77.818933 
L 595.526242 60.90998 
L 596.471008 66.583865 
L 597.415773 89.838628 
L 598.360539 142.060641 
L 599.305305 72.013257 
L 600.250071 104.274112 
L 601.194837 173.457789 
L 602.139603 91.772383 
L 603.084369 146.262194 
L 604.029135 141.904742 
L 604.973901 124.266994 
L 605.918666 71.109932 
L 606.863432 119.115043 
L 607.808198 101.980527 
L 608.752964 61.021603 
L 609.69773 66.501004 
L 610.642496 115.922048 
L 611.587262 120.874004 
L 612.532028 150.888997 
L 613.476793 135.670603 
L 614.421559 104.630957 
L 615.366325 106.287186 
L 616.311091 115.174617 
L 617.255857 90.66038 
L 618.200623 141.638956 
L 620.090155 99.840907 
L 621.034921 104.448392 
L 621.979686 90.920373 
L 623.869218 130.711921 
L 624.813984 111.69127 
L 625.75875 150.617819 
L 625.75875 150.617819 
" clip-path="url(#p983548989d)" style="fill: none; stroke: #dc2626; stroke-width: 1.6; stroke-linecap: square"/>
   </g>
   <g id="patch_6">
    <path d="M 343.27375 210.2589 
L 343.27375 21.3 
" style="fill: none; stroke: #bbbbbb; stroke-width: 0.8; stroke-linejoin: miter; stroke-linecap: square"/>
   </g>
   <g id="patch_7">
    <path d="M 343.27375 210.2589 
L 625.75875 210.2589 
" style="fill: none; stroke: #bbbbbb; stroke-width: 0.8; stroke-linejoin: miter; stroke-linecap: square"/>
   </g>
   <g id="text_21">
    <!-- High entropy, Hurst near 0.5 -->
    <g style="fill: #dc2626" transform="translate(424.748516 248.399214) scale(0.09 -0.09)">
     <defs>
      <path id="HelveticaNeue-Bold-4e" d="M 1888 781 
Q 1677 781 1536 870 
Q 1395 960 1308 1101 
Q 1222 1242 1187 1418 
Q 1152 1594 1152 1773 
Q 1152 1958 1193 2128 
Q 1235 2298 1328 2429 
Q 1421 2560 1558 2637 
Q 1696 2714 1888 2714 
Q 2112 2714 2259 2630 
Q 2406 2547 2496 2406 
Q 2586 2266 2624 2083 
Q 2662 1901 2662 1696 
Q 2662 1517 2614 1353 
Q 2566 1190 2470 1062 
Q 2374 934 2227 857 
Q 2080 781 1888 781 
z
M 3526 211 
L 3526 3309 
L 2662 3309 
L 2662 2867 
L 2650 2867 
Q 2483 3155 2236 3276 
Q 1990 3398 1664 3398 
Q 1318 3398 1052 3264 
Q 787 3130 608 2902 
Q 429 2675 336 2377 
Q 243 2080 243 1760 
Q 243 1421 323 1117 
Q 403 813 576 585 
Q 749 358 1017 227 
Q 1286 96 1658 96 
Q 1958 96 2230 221 
Q 2502 346 2650 608 
L 2662 608 
L 2662 173 
Q 2669 -179 2493 -409 
Q 2317 -640 1933 -640 
Q 1690 -640 1504 -541 
Q 1318 -442 1254 -186 
L 352 -186 
Q 371 -467 508 -668 
Q 646 -870 854 -998 
Q 1062 -1126 1315 -1187 
Q 1568 -1248 1811 -1248 
Q 2381 -1248 2720 -1094 
Q 3059 -941 3238 -720 
Q 3418 -499 3472 -243 
Q 3526 13 3526 211 
z
" transform="scale(0.015625)"/>
      <path id="HelveticaNeue-Bold-4f" d="M 346 4570 
L 346 0 
L 1254 0 
L 1254 1734 
Q 1254 2240 1420 2461 
Q 1587 2682 1958 2682 
Q 2285 2682 2413 2480 
Q 2541 2278 2541 1869 
L 2541 0 
L 3450 0 
L 3450 2035 
Q 3450 2342 3395 2595 
Q 3341 2848 3206 3024 
Q 3072 3200 2838 3299 
Q 2605 3398 2240 3398 
Q 1984 3398 1715 3267 
Q 1446 3136 1274 2848 
L 1254 2848 
L 1254 4570 
L 346 4570 
z
" transform="scale(0.015625)"/>
     </defs>
     <use xlink:href="#HelveticaNeue-Bold-2f"/>
     <use xlink:href="#HelveticaNeue-Bold-50" transform="translate(74.09375 0)"/>
     <use xlink:href="#HelveticaNeue-Bold-4e" transform="translate(99.890625 0)"/>
     <use xlink:href="#HelveticaNeue-Bold-4f" transform="translate(160.984375 0)"/>
     <use xlink:href="#HelveticaNeue-Bold-3" transform="translate(220.28125 0)"/>
     <use xlink:href="#HelveticaNeue-Bold-4c" transform="translate(248.078125 0)"/>
     <use xlink:href="#HelveticaNeue-Bold-55" transform="translate(305.484375 0)"/>
     <use xlink:href="#HelveticaNeue-Bold-5b" transform="translate(364.78125 0)"/>
     <use xlink:href="#HelveticaNeue-Bold-59" transform="translate(399.984375 0)"/>
     <use xlink:href="#HelveticaNeue-Bold-56" transform="translate(437.09375 0)"/>
     <use xlink:href="#HelveticaNeue-Bold-57" transform="translate(498.1875 0)"/>
     <use xlink:href="#HelveticaNeue-Bold-60" transform="translate(559.28125 0)"/>
     <use xlink:href="#HelveticaNeue-Bold-13" transform="translate(603.78125 0)"/>
     <use xlink:href="#HelveticaNeue-Bold-3" transform="translate(631.578125 0)"/>
     <use xlink:href="#HelveticaNeue-Bold-2f" transform="translate(659.375 0)"/>
     <use xlink:href="#HelveticaNeue-Bold-5c" transform="translate(733.46875 0)"/>
     <use xlink:href="#HelveticaNeue-Bold-59" transform="translate(792.765625 0)"/>
     <use xlink:href="#HelveticaNeue-Bold-5a" transform="translate(831.671875 0)"/>
     <use xlink:href="#HelveticaNeue-Bold-5b" transform="translate(885.375 0)"/>
     <use xlink:href="#HelveticaNeue-Bold-3" transform="translate(920.578125 0)"/>
     <use xlink:href="#HelveticaNeue-Bold-55" transform="translate(948.375 0)"/>
     <use xlink:href="#HelveticaNeue-Bold-4c" transform="translate(1007.671875 0)"/>
     <use xlink:href="#HelveticaNeue-Bold-48" transform="translate(1065.078125 0)"/>
     <use xlink:href="#HelveticaNeue-Bold-59" transform="translate(1122.484375 0)"/>
     <use xlink:href="#HelveticaNeue-Bold-3" transform="translate(1161.390625 0)"/>
     <use xlink:href="#HelveticaNeue-Bold-17" transform="translate(1189.1875 0)"/>
     <use xlink:href="#HelveticaNeue-Bold-15" transform="translate(1244.78125 0)"/>
     <use xlink:href="#HelveticaNeue-Bold-1c" transform="translate(1272.578125 0)"/>
    </g>
    <!-- the same cycle, buried in noise -->
    <g style="fill: #dc2626" transform="translate(418.199609 259.388214) scale(0.09 -0.09)">
     <defs>
      <path id="HelveticaNeue-Bold-54" d="M 371 3309 
L 371 0 
L 1280 0 
L 1280 1920 
Q 1280 2163 1350 2313 
Q 1421 2464 1520 2544 
Q 1619 2624 1724 2653 
Q 1830 2682 1894 2682 
Q 2112 2682 2224 2608 
Q 2336 2534 2384 2412 
Q 2432 2291 2438 2147 
Q 2445 2003 2445 1856 
L 2445 0 
L 3354 0 
L 3354 1843 
Q 3354 1997 3376 2147 
Q 3398 2298 3465 2416 
Q 3533 2534 3651 2608 
Q 3770 2682 3962 2682 
Q 4154 2682 4266 2618 
Q 4378 2554 4435 2445 
Q 4493 2336 4505 2189 
Q 4518 2042 4518 1875 
L 4518 0 
L 5427 0 
L 5427 2214 
Q 5427 2534 5337 2761 
Q 5248 2989 5088 3129 
Q 4928 3270 4704 3334 
Q 4480 3398 4218 3398 
Q 3872 3398 3619 3232 
Q 3366 3066 3219 2848 
Q 3085 3155 2825 3276 
Q 2566 3398 2253 3398 
Q 1926 3398 1673 3257 
Q 1421 3117 1242 2861 
L 1229 2861 
L 1229 3309 
L 371 3309 
z
" transform="scale(0.015625)"/>
     </defs>
     <use xlink:href="#HelveticaNeue-Bold-5b"/>
     <use xlink:href="#HelveticaNeue-Bold-4f" transform="translate(35.203125 0)"/>
     <use xlink:href="#HelveticaNeue-Bold-4c" transform="translate(94.5 0)"/>
     <use xlink:href="#HelveticaNeue-Bold-3" transform="translate(151.90625 0)"/>
     <use xlink:href="#HelveticaNeue-Bold-5a" transform="translate(179.703125 0)"/>
     <use xlink:href="#HelveticaNeue-Bold-48" transform="translate(233.40625 0)"/>
     <use xlink:href="#HelveticaNeue-Bold-54" transform="translate(290.8125 0)"/>
     <use xlink:href="#HelveticaNeue-Bold-4c" transform="translate(381.40625 0)"/>
     <use xlink:href="#HelveticaNeue-Bold-3" transform="translate(438.8125 0)"/>
     <use xlink:href="#HelveticaNeue-Bold-4a" transform="translate(466.609375 0)"/>
     <use xlink:href="#HelveticaNeue-Bold-60" transform="translate(524.015625 0)"/>
     <use xlink:href="#HelveticaNeue-Bold-4a" transform="translate(575.921875 0)"/>
     <use xlink:href="#HelveticaNeue-Bold-53" transform="translate(633.328125 0)"/>
     <use xlink:href="#HelveticaNeue-Bold-4c" transform="translate(659.125 0)"/>
     <use xlink:href="#HelveticaNeue-Bold-13" transform="translate(716.53125 0)"/>
     <use xlink:href="#HelveticaNeue-Bold-3" transform="translate(744.328125 0)"/>
     <use xlink:href="#HelveticaNeue-Bold-49" transform="translate(772.125 0)"/>
     <use xlink:href="#HelveticaNeue-Bold-5c" transform="translate(833.21875 0)"/>
     <use xlink:href="#HelveticaNeue-Bold-59" transform="translate(892.515625 0)"/>
     <use xlink:href="#HelveticaNeue-Bold-50" transform="translate(931.421875 0)"/>
     <use xlink:href="#HelveticaNeue-Bold-4c" transform="translate(957.21875 0)"/>
     <use xlink:href="#HelveticaNeue-Bold-4b" transform="translate(1014.625 0)"/>
     <use xlink:href="#HelveticaNeue-Bold-3" transform="translate(1075.71875 0)"/>
     <use xlink:href="#HelveticaNeue-Bold-50" transform="translate(1103.515625 0)"/>
     <use xlink:href="#HelveticaNeue-Bold-55" transform="translate(1129.3125 0)"/>
     <use xlink:href="#HelveticaNeue-Bold-3" transform="translate(1188.609375 0)"/>
     <use xlink:href="#HelveticaNeue-Bold-55" transform="translate(1216.40625 0)"/>
     <use xlink:href="#HelveticaNeue-Bold-56" transform="translate(1275.703125 0)"/>
     <use xlink:href="#HelveticaNeue-Bold-50" transform="translate(1336.796875 0)"/>
     <use xlink:href="#HelveticaNeue-Bold-5a" transform="translate(1362.59375 0)"/>
     <use xlink:href="#HelveticaNeue-Bold-4c" transform="translate(1416.296875 0)"/>
    </g>
   </g>
   <g id="text_22">
    <!-- Volatile: hard to forecast -->
    <g style="fill: #1e293b" transform="translate(414.855313 15.3) scale(0.12 -0.12)">
     <defs>
      <path id="HelveticaNeue-Bold-3d" d="M 2566 0 
L 4083 4570 
L 3046 4570 
L 2016 1357 
L 2003 1357 
L 986 4570 
L -45 4570 
L 1434 0 
L 2566 0 
z
" transform="scale(0.015625)"/>
     </defs>
     <use xlink:href="#HelveticaNeue-Bold-3d"/>
     <use xlink:href="#HelveticaNeue-Bold-56" transform="translate(57.5 0)"/>
     <use xlink:href="#HelveticaNeue-Bold-53" transform="translate(118.59375 0)"/>
     <use xlink:href="#HelveticaNeue-Bold-48" transform="translate(144.390625 0)"/>
     <use xlink:href="#HelveticaNeue-Bold-5b" transform="translate(201.796875 0)"/>
     <use xlink:href="#HelveticaNeue-Bold-50" transform="translate(237 0)"/>
     <use xlink:href="#HelveticaNeue-Bold-53" transform="translate(262.796875 0)"/>
     <use xlink:href="#HelveticaNeue-Bold-4c" transform="translate(288.59375 0)"/>
     <use xlink:href="#HelveticaNeue-Bold-21" transform="translate(346 0)"/>
     <use xlink:href="#HelveticaNeue-Bold-3" transform="translate(373.796875 0)"/>
     <use xlink:href="#HelveticaNeue-Bold-4f" transform="translate(401.59375 0)"/>
     <use xlink:href="#HelveticaNeue-Bold-48" transform="translate(460.890625 0)"/>
     <use xlink:href="#HelveticaNeue-Bold-59" transform="translate(518.296875 0)"/>
     <use xlink:href="#HelveticaNeue-Bold-4b" transform="translate(555.40625 0)"/>
     <use xlink:href="#HelveticaNeue-Bold-3" transform="translate(616.5 0)"/>
     <use xlink:href="#HelveticaNeue-Bold-5b" transform="translate(644.296875 0)"/>
     <use xlink:href="#HelveticaNeue-Bold-56" transform="translate(679.5 0)"/>
     <use xlink:href="#HelveticaNeue-Bold-3" transform="translate(740.59375 0)"/>
     <use xlink:href="#HelveticaNeue-Bold-4d" transform="translate(768.390625 0)"/>
     <use xlink:href="#HelveticaNeue-Bold-56" transform="translate(801.6875 0)"/>
     <use xlink:href="#HelveticaNeue-Bold-59" transform="translate(862.78125 0)"/>
     <use xlink:href="#HelveticaNeue-Bold-4c" transform="translate(899.890625 0)"/>
     <use xlink:href="#HelveticaNeue-Bold-4a" transform="translate(957.296875 0)"/>
     <use xlink:href="#HelveticaNeue-Bold-48" transform="translate(1014.703125 0)"/>
     <use xlink:href="#HelveticaNeue-Bold-5a" transform="translate(1072.109375 0)"/>
     <use xlink:href="#HelveticaNeue-Bold-5b" transform="translate(1125.8125 0)"/>
    </g>
   </g>
  </g>
 </g>
 <defs>
  <clipPath id="pa39948210d">
   <rect x="42.16875" y="21.3" width="282.485" height="188.9589"/>
  </clipPath>
  <clipPath id="p983548989d">
   <rect x="343.27375" y="21.3" width="282.485" height="188.9589"/>
  </clipPath>
 </defs>
</svg>
