<?xml version="1.0" encoding="utf-8" standalone="no"?>
<!DOCTYPE svg PUBLIC "-//W3C//DTD SVG 1.1//EN"
  "http://www.w3.org/Graphics/SVG/1.1/DTD/svg11.dtd">
<svg xmlns:xlink="http://www.w3.org/1999/xlink" width="733.68pt" height="388.8pt" viewBox="0 0 733.68 388.8" xmlns="http://www.w3.org/2000/svg" version="1.1">
 <metadata>
  <rdf:RDF xmlns:dc="http://purl.org/dc/elements/1.1/" xmlns:cc="http://creativecommons.org/ns#" xmlns:rdf="http://www.w3.org/1999/02/22-rdf-syntax-ns#">
   <cc:Work>
    <dc:type rdf:resource="http://purl.org/dc/dcmitype/StillImage"/>
    <dc:date>2026-07-18T07:36:30.490581</dc:date>
    <dc:format>image/svg+xml</dc:format>
    <dc:creator>
     <cc:Agent>
      <dc:title>Matplotlib v3.11.0, https://matplotlib.org/</dc:title>
     </cc:Agent>
    </dc:creator>
   </cc:Work>
  </rdf:RDF>
 </metadata>
 <defs>
  <style type="text/css">*{stroke-linejoin: round; stroke-linecap: butt}</style>
 </defs>
 <g id="figure_1">
  <g id="patch_1">
   <path d="M 0 388.8 
L 733.68 388.8 
L 733.68 0 
L 0 0 
z
" style="fill: #ffffff"/>
  </g>
  <g id="axes_1">
   <g id="patch_2">
    <path d="M 109.946483 135.153931 
L 226.020414 135.153931 
Q 229.647724 135.153931 229.647724 131.526621 
L 229.647724 97.067172 
Q 229.647724 93.439862 226.020414 93.439862 
L 109.946483 93.439862 
Q 106.319172 93.439862 106.319172 97.067172 
L 106.319172 131.526621 
Q 106.319172 135.153931 109.946483 135.153931 
z
" clip-path="url(#p49beb37c7a)" style="fill: #6b7280; stroke: #6b7280; stroke-width: 1.6; stroke-linejoin: miter"/>
   </g>
   <g id="patch_3">
    <path d="M 167.983448 135.945671 
Q 167.983448 156.614694 167.983448 175.606667 
" clip-path="url(#p49beb37c7a)" style="fill: none; stroke: #0369a1; stroke-width: 1.5; stroke-linecap: round"/>
    <path d="M 170.583448 170.406667 
L 167.983448 175.606667 
L 165.383448 170.406667 
z
" clip-path="url(#p49beb37c7a)" style="fill: #0369a1; stroke: #0369a1; stroke-width: 1.5; stroke-linecap: round"/>
   </g>
   <g id="patch_4">
    <path d="M 91.809931 222.813931 
L 244.156966 222.813931 
Q 247.784276 222.813931 247.784276 219.186621 
L 247.784276 181.704414 
Q 247.784276 178.077103 244.156966 178.077103 
L 91.809931 178.077103 
Q 88.182621 178.077103 88.182621 181.704414 
L 88.182621 219.186621 
Q 88.182621 222.813931 91.809931 222.813931 
z
" clip-path="url(#p49beb37c7a)" style="fill: #0369a1; stroke: #0369a1; stroke-width: 1.6; stroke-linejoin: miter"/>
   </g>
   <g id="patch_5">
    <path d="M 167.983448 223.606593 
Q 167.983448 242.763497 167.983448 260.24335 
" clip-path="url(#p49beb37c7a)" style="fill: none; stroke: #0369a1; stroke-width: 1.5; stroke-linecap: round"/>
    <path d="M 170.583448 255.04335 
L 167.983448 260.24335 
L 165.383448 255.04335 
z
" clip-path="url(#p49beb37c7a)" style="fill: #0369a1; stroke: #0369a1; stroke-width: 1.5; stroke-linecap: round"/>
   </g>
   <g id="line2d_1">
    <path d="M 47.073103 282.06 
L 288.893793 282.06 
" clip-path="url(#p49beb37c7a)" style="fill: none; stroke: #6b7280; stroke-width: 1.2; stroke-linecap: square"/>
   </g>
   <g id="line2d_2">
    <path d="M 59.164138 282.06 
" clip-path="url(#p49beb37c7a)" style="fill: none; stroke: #6b7280; stroke-width: 1.5; stroke-linecap: square"/>
    <defs>
     <path id="m7fb6accb88" d="M 0 7 
L 0 -7 
" style="stroke: #6b7280; stroke-width: 2.2"/>
    </defs>
    <g clip-path="url(#p49beb37c7a)">
     <use xlink:href="#m7fb6accb88" x="59.164138" y="282.06" style="fill: #6b7280; stroke: #6b7280; stroke-width: 2.2"/>
    </g>
   </g>
   <g id="line2d_3">
    <path d="M 107.528276 282.06 
" clip-path="url(#p49beb37c7a)" style="fill: none; stroke: #6b7280; stroke-width: 1.5; stroke-linecap: square"/>
    <g clip-path="url(#p49beb37c7a)">
     <use xlink:href="#m7fb6accb88" x="107.528276" y="282.06" style="fill: #6b7280; stroke: #6b7280; stroke-width: 2.2"/>
    </g>
   </g>
   <g id="line2d_4">
    <path d="M 167.983448 282.06 
" clip-path="url(#p49beb37c7a)" style="fill: none; stroke: #6b7280; stroke-width: 1.5; stroke-linecap: square"/>
    <g clip-path="url(#p49beb37c7a)">
     <use xlink:href="#m7fb6accb88" x="167.983448" y="282.06" style="fill: #6b7280; stroke: #6b7280; stroke-width: 2.2"/>
    </g>
   </g>
   <g id="line2d_5">
    <path d="M 228.438621 282.06 
" clip-path="url(#p49beb37c7a)" style="fill: none; stroke: #6b7280; stroke-width: 1.5; stroke-linecap: square"/>
    <g clip-path="url(#p49beb37c7a)">
     <use xlink:href="#m7fb6accb88" x="228.438621" y="282.06" style="fill: #6b7280; stroke: #6b7280; stroke-width: 2.2"/>
    </g>
   </g>
   <g id="line2d_6">
    <path d="M 276.802759 282.06 
" clip-path="url(#p49beb37c7a)" style="fill: none; stroke: #6b7280; stroke-width: 1.5; stroke-linecap: square"/>
    <g clip-path="url(#p49beb37c7a)">
     <use xlink:href="#m7fb6accb88" x="276.802759" y="282.06" style="fill: #6b7280; stroke: #6b7280; stroke-width: 2.2"/>
    </g>
   </g>
   <g id="text_1">
    <!-- Context $\phi$ -->
    <g style="fill: #ffffff" transform="translate(145.490448 116.453924) scale(0.083 -0.083)">
     <defs>
      <path id="DejaVuSans-Bold-26" d="M 4288 256 
Q 3956 84 3597 -3 
Q 3238 -91 2847 -91 
Q 1681 -91 1000 561 
Q 319 1213 319 2328 
Q 319 3447 1000 4098 
Q 1681 4750 2847 4750 
Q 3238 4750 3597 4662 
Q 3956 4575 4288 4403 
L 4288 3438 
Q 3953 3666 3628 3772 
Q 3303 3878 2944 3878 
Q 2300 3878 1931 3465 
Q 1563 3053 1563 2328 
Q 1563 1606 1931 1193 
Q 2300 781 2944 781 
Q 3303 781 3628 887 
Q 3953 994 4288 1222 
L 4288 256 
z
" transform="scale(0.015625)"/>
      <path id="DejaVuSans-Bold-52" d="M 2203 2784 
Q 1831 2784 1636 2517 
Q 1441 2250 1441 1747 
Q 1441 1244 1636 976 
Q 1831 709 2203 709 
Q 2569 709 2762 976 
Q 2956 1244 2956 1747 
Q 2956 2250 2762 2517 
Q 2569 2784 2203 2784 
z
M 2203 3584 
Q 3106 3584 3614 3096 
Q 4122 2609 4122 1747 
Q 4122 884 3614 396 
Q 3106 -91 2203 -91 
Q 1297 -91 786 396 
Q 275 884 275 1747 
Q 275 2609 786 3096 
Q 1297 3584 2203 3584 
z
" transform="scale(0.015625)"/>
      <path id="DejaVuSans-Bold-51" d="M 4056 2131 
L 4056 0 
L 2931 0 
L 2931 347 
L 2931 1631 
Q 2931 2084 2911 2256 
Q 2891 2428 2841 2509 
Q 2775 2619 2662 2680 
Q 2550 2741 2406 2741 
Q 2056 2741 1856 2470 
Q 1656 2200 1656 1722 
L 1656 0 
L 538 0 
L 538 3500 
L 1656 3500 
L 1656 2988 
Q 1909 3294 2193 3439 
Q 2478 3584 2822 3584 
Q 3428 3584 3742 3212 
Q 4056 2841 4056 2131 
z
" transform="scale(0.015625)"/>
      <path id="DejaVuSans-Bold-57" d="M 1759 4494 
L 1759 3500 
L 2913 3500 
L 2913 2700 
L 1759 2700 
L 1759 1216 
Q 1759 972 1856 886 
Q 1953 800 2241 800 
L 2816 800 
L 2816 0 
L 1856 0 
Q 1194 0 917 276 
Q 641 553 641 1216 
L 641 2700 
L 84 2700 
L 84 3500 
L 641 3500 
L 641 4494 
L 1759 4494 
z
" transform="scale(0.015625)"/>
      <path id="DejaVuSans-Bold-48" d="M 4031 1759 
L 4031 1441 
L 1416 1441 
Q 1456 1047 1700 850 
Q 1944 653 2381 653 
Q 2734 653 3104 758 
Q 3475 863 3866 1075 
L 3866 213 
Q 3469 63 3072 -14 
Q 2675 -91 2278 -91 
Q 1328 -91 801 392 
Q 275 875 275 1747 
Q 275 2603 792 3093 
Q 1309 3584 2216 3584 
Q 3041 3584 3536 3087 
Q 4031 2591 4031 1759 
z
M 2881 2131 
Q 2881 2450 2695 2645 
Q 2509 2841 2209 2841 
Q 1884 2841 1681 2658 
Q 1478 2475 1428 2131 
L 2881 2131 
z
" transform="scale(0.015625)"/>
      <path id="DejaVuSans-Bold-5b" d="M 1422 1791 
L 159 3500 
L 1344 3500 
L 2059 2463 
L 2784 3500 
L 3969 3500 
L 2706 1797 
L 4031 0 
L 2847 0 
L 2059 1106 
L 1281 0 
L 97 0 
L 1422 1791 
z
" transform="scale(0.015625)"/>
      <path id="DejaVuSans-Bold-3" transform="scale(0.015625)"/>
      <path id="DejaVuSans-Oblique-369" d="M 2991 4863 
L 2738 3572 
Q 3363 3572 3684 3094 
Q 4016 2606 3850 1747 
Q 3681 888 3159 400 
Q 2653 -78 2028 -78 
L 1784 -1331 
L 1213 -1331 
L 1456 -78 
Q 834 -78 509 400 
Q 178 888 347 1747 
Q 513 2606 1034 3094 
Q 1544 3572 2166 3572 
L 2419 4863 
L 2991 4863 
z
M 2128 434 
Q 2481 434 2784 756 
Q 3116 1116 3244 1747 
Q 3369 2372 3169 2738 
Q 2991 3059 2638 3059 
L 2128 434 
z
M 1556 434 
L 2066 3059 
Q 1716 3059 1413 2738 
Q 1072 2372 953 1747 
Q 834 1116 1028 756 
Q 1203 434 1556 434 
z
" transform="scale(0.015625)"/>
     </defs>
     <use xlink:href="#DejaVuSans-Bold-26" transform="translate(0 0.015625)"/>
     <use xlink:href="#DejaVuSans-Bold-52" transform="translate(73.388672 0.015625)"/>
     <use xlink:href="#DejaVuSans-Bold-51" transform="translate(142.089844 0.015625)"/>
     <use xlink:href="#DejaVuSans-Bold-57" transform="translate(213.28125 0.015625)"/>
     <use xlink:href="#DejaVuSans-Bold-48" transform="translate(261.083984 0.015625)"/>
     <use xlink:href="#DejaVuSans-Bold-5b" transform="translate(328.90625 0.015625)"/>
     <use xlink:href="#DejaVuSans-Bold-57" transform="translate(393.408203 0.015625)"/>
     <use xlink:href="#DejaVuSans-Bold-3" transform="translate(441.210938 0.015625)"/>
     <use xlink:href="#DejaVuSans-Oblique-369" transform="translate(476.025391 0.015625)"/>
    </g>
   </g>
   <g id="text_2">
    <!-- QVN -->
    <g style="fill: #ffffff" transform="translate(157.770558 202.601572) scale(0.083 -0.083)">
     <defs>
      <path id="DejaVuSans-Bold-34" d="M 2847 -84 
L 2753 -84 
Q 1600 -84 959 553 
Q 319 1191 319 2328 
Q 319 3463 958 4106 
Q 1597 4750 2719 4750 
Q 3853 4750 4486 4112 
Q 5119 3475 5119 2328 
Q 5119 1541 4783 972 
Q 4447 403 3816 116 
L 4756 -934 
L 3609 -934 
L 2847 -84 
z
M 2719 3878 
Q 2169 3878 1866 3472 
Q 1563 3066 1563 2328 
Q 1563 1578 1859 1179 
Q 2156 781 2719 781 
Q 3272 781 3575 1187 
Q 3878 1594 3878 2328 
Q 3878 3066 3575 3472 
Q 3272 3878 2719 3878 
z
" transform="scale(0.015625)"/>
      <path id="DejaVuSans-Bold-39" d="M 31 4666 
L 1241 4666 
L 2478 1222 
L 3713 4666 
L 4922 4666 
L 3194 0 
L 1759 0 
L 31 4666 
z
" transform="scale(0.015625)"/>
      <path id="DejaVuSans-Bold-31" d="M 588 4666 
L 1931 4666 
L 3628 1466 
L 3628 4666 
L 4769 4666 
L 4769 0 
L 3425 0 
L 1728 3200 
L 1728 0 
L 588 0 
L 588 4666 
z
" transform="scale(0.015625)"/>
     </defs>
     <use xlink:href="#DejaVuSans-Bold-34"/>
     <use xlink:href="#DejaVuSans-Bold-39" transform="translate(85.015625 0)"/>
     <use xlink:href="#DejaVuSans-Bold-31" transform="translate(162.40625 0)"/>
    </g>
   </g>
   <g id="text_3">
    <!-- 0 -->
    <g style="fill: #6b7280" transform="translate(44.528103 298.987448) scale(0.08 -0.08)">
     <defs>
      <path id="DejaVuSans-13" d="M 2034 4250 
Q 1547 4250 1301 3770 
Q 1056 3291 1056 2328 
Q 1056 1369 1301 889 
Q 1547 409 2034 409 
Q 2525 409 2770 889 
Q 3016 1369 3016 2328 
Q 3016 3291 2770 3770 
Q 2525 4250 2034 4250 
z
M 2034 4750 
Q 2819 4750 3233 4129 
Q 3647 3509 3647 2328 
Q 3647 1150 3233 529 
Q 2819 -91 2034 -91 
Q 1250 -91 836 529 
Q 422 1150 422 2328 
Q 422 3509 836 4129 
Q 1250 4750 2034 4750 
z
" transform="scale(0.015625)"/>
     </defs>
     <use xlink:href="#DejaVuSans-13"/>
    </g>
   </g>
   <g id="text_4">
    <!-- 1 -->
    <g style="fill: #6b7280" transform="translate(286.348793 298.987448) scale(0.08 -0.08)">
     <defs>
      <path id="DejaVuSans-14" d="M 794 531 
L 1825 531 
L 1825 4091 
L 703 3866 
L 703 4441 
L 1819 4666 
L 2450 4666 
L 2450 531 
L 3481 531 
L 3481 0 
L 794 0 
L 794 531 
z
" transform="scale(0.015625)"/>
     </defs>
     <use xlink:href="#DejaVuSans-14"/>
    </g>
   </g>
   <g id="text_5">
    <!-- fixed by the user -->
    <g style="fill: #6b7280" transform="translate(131.475105 312.287586) scale(0.086 -0.086)">
     <defs>
      <path id="DejaVuSans-Oblique-127c" d="M 3525 4863 
L 4103 4863 
L 3963 4134 
L 3384 4134 
L 3525 4863 
z
M 3059 4863 
L 2969 4384 
L 2419 4384 
Q 2106 4384 1964 4261 
Q 1822 4138 1753 3809 
L 1691 3500 
L 3841 3500 
L 3156 0 
L 2578 0 
L 3188 3056 
L 1606 3056 
L 1013 0 
L 434 0 
L 1031 3053 
L 481 3053 
L 563 3500 
L 1113 3500 
L 1159 3744 
Q 1278 4363 1575 4613 
Q 1875 4863 2516 4863 
L 3059 4863 
z
" transform="scale(0.015625)"/>
      <path id="DejaVuSans-Oblique-5b" d="M 3841 3500 
L 2234 1784 
L 3219 0 
L 2559 0 
L 1819 1388 
L 531 0 
L -166 0 
L 1556 1844 
L 641 3500 
L 1300 3500 
L 1972 2234 
L 3144 3500 
L 3841 3500 
z
" transform="scale(0.015625)"/>
      <path id="DejaVuSans-Oblique-48" d="M 3078 2063 
Q 3088 2113 3092 2166 
Q 3097 2219 3097 2272 
Q 3097 2653 2873 2875 
Q 2650 3097 2266 3097 
Q 1838 3097 1509 2826 
Q 1181 2556 1013 2059 
L 3078 2063 
z
M 3578 1613 
L 903 1613 
Q 884 1494 878 1425 
Q 872 1356 872 1306 
Q 872 872 1139 634 
Q 1406 397 1894 397 
Q 2269 397 2603 481 
Q 2938 566 3225 728 
L 3116 159 
Q 2806 34 2476 -28 
Q 2147 -91 1806 -91 
Q 1078 -91 686 257 
Q 294 606 294 1247 
Q 294 1794 489 2264 
Q 684 2734 1063 3103 
Q 1306 3334 1642 3459 
Q 1978 3584 2356 3584 
Q 2950 3584 3301 3228 
Q 3653 2872 3653 2272 
Q 3653 2128 3634 1964 
Q 3616 1800 3578 1613 
z
" transform="scale(0.015625)"/>
      <path id="DejaVuSans-Oblique-47" d="M 2675 525 
Q 2444 222 2128 65 
Q 1813 -91 1428 -91 
Q 903 -91 598 267 
Q 294 625 294 1247 
Q 294 1766 478 2236 
Q 663 2706 1013 3078 
Q 1244 3325 1534 3454 
Q 1825 3584 2144 3584 
Q 2481 3584 2739 3421 
Q 2997 3259 3138 2956 
L 3513 4863 
L 4091 4863 
L 3144 0 
L 2566 0 
L 2675 525 
z
M 891 1350 
Q 891 897 1095 644 
Q 1300 391 1663 391 
Q 1931 391 2161 520 
Q 2391 650 2566 903 
Q 2750 1166 2856 1509 
Q 2963 1853 2963 2188 
Q 2963 2622 2758 2865 
Q 2553 3109 2194 3109 
Q 1922 3109 1687 2981 
Q 1453 2853 1288 2613 
Q 1106 2353 998 2009 
Q 891 1666 891 1350 
z
" transform="scale(0.015625)"/>
      <path id="DejaVuSans-Oblique-3" transform="scale(0.015625)"/>
      <path id="DejaVuSans-Oblique-45" d="M 3169 2138 
Q 3169 2591 2961 2847 
Q 2753 3103 2388 3103 
Q 2122 3103 1889 2973 
Q 1656 2844 1484 2597 
Q 1303 2338 1198 1995 
Q 1094 1653 1094 1313 
Q 1094 881 1298 636 
Q 1503 391 1863 391 
Q 2134 391 2365 517 
Q 2597 644 2772 891 
Q 2950 1147 3059 1487 
Q 3169 1828 3169 2138 
z
M 1381 2969 
Q 1594 3256 1914 3420 
Q 2234 3584 2584 3584 
Q 3122 3584 3439 3221 
Q 3756 2859 3756 2241 
Q 3756 1734 3570 1259 
Q 3384 784 3041 416 
Q 2816 172 2522 40 
Q 2228 -91 1906 -91 
Q 1566 -91 1316 65 
Q 1066 222 909 531 
L 806 0 
L 231 0 
L 1178 4863 
L 1753 4863 
L 1381 2969 
z
" transform="scale(0.015625)"/>
      <path id="DejaVuSans-Oblique-5c" d="M 1588 -325 
Q 1188 -997 936 -1164 
Q 684 -1331 294 -1331 
L -159 -1331 
L -63 -850 
L 269 -850 
Q 509 -850 678 -719 
Q 847 -588 1056 -206 
L 1234 128 
L 459 3500 
L 1069 3500 
L 1650 819 
L 3256 3500 
L 3859 3500 
L 1588 -325 
z
" transform="scale(0.015625)"/>
      <path id="DejaVuSans-Oblique-57" d="M 2706 3500 
L 2619 3053 
L 1472 3053 
L 1100 1153 
Q 1081 1047 1072 975 
Q 1063 903 1063 863 
Q 1063 663 1183 572 
Q 1303 481 1569 481 
L 2150 481 
L 2053 0 
L 1503 0 
Q 991 0 739 200 
Q 488 400 488 806 
Q 488 878 497 964 
Q 506 1050 525 1153 
L 897 3053 
L 409 3053 
L 500 3500 
L 978 3500 
L 1172 4494 
L 1747 4494 
L 1556 3500 
L 2706 3500 
z
" transform="scale(0.015625)"/>
      <path id="DejaVuSans-Oblique-4b" d="M 3566 2113 
L 3156 0 
L 2578 0 
L 2988 2091 
Q 3016 2238 3031 2350 
Q 3047 2463 3047 2528 
Q 3047 2791 2881 2937 
Q 2716 3084 2419 3084 
Q 1956 3084 1617 2771 
Q 1278 2459 1178 1941 
L 800 0 
L 225 0 
L 1172 4863 
L 1747 4863 
L 1375 2950 
Q 1594 3244 1934 3414 
Q 2275 3584 2650 3584 
Q 3113 3584 3367 3334 
Q 3622 3084 3622 2631 
Q 3622 2519 3608 2391 
Q 3594 2263 3566 2113 
z
" transform="scale(0.015625)"/>
      <path id="DejaVuSans-Oblique-58" d="M 428 1388 
L 838 3500 
L 1416 3500 
L 1006 1409 
Q 975 1256 961 1147 
Q 947 1038 947 966 
Q 947 700 1109 554 
Q 1272 409 1569 409 
Q 2031 409 2368 721 
Q 2706 1034 2809 1563 
L 3194 3500 
L 3769 3500 
L 3091 0 
L 2516 0 
L 2631 550 
Q 2388 244 2052 76 
Q 1716 -91 1338 -91 
Q 878 -91 622 161 
Q 366 413 366 863 
Q 366 956 381 1097 
Q 397 1238 428 1388 
z
" transform="scale(0.015625)"/>
      <path id="DejaVuSans-Oblique-56" d="M 3200 3397 
L 3091 2853 
Q 2863 2978 2609 3040 
Q 2356 3103 2088 3103 
Q 1634 3103 1373 2948 
Q 1113 2794 1113 2528 
Q 1113 2219 1719 2053 
Q 1766 2041 1788 2034 
L 1972 1978 
Q 2547 1819 2739 1644 
Q 2931 1469 2931 1166 
Q 2931 609 2489 259 
Q 2047 -91 1331 -91 
Q 1053 -91 747 -37 
Q 441 16 72 128 
L 184 722 
Q 500 559 806 475 
Q 1113 391 1394 391 
Q 1816 391 2080 572 
Q 2344 753 2344 1031 
Q 2344 1331 1650 1516 
L 1591 1531 
L 1394 1581 
Q 956 1697 753 1886 
Q 550 2075 550 2369 
Q 550 2928 970 3256 
Q 1391 3584 2113 3584 
Q 2397 3584 2667 3537 
Q 2938 3491 3200 3397 
z
" transform="scale(0.015625)"/>
      <path id="DejaVuSans-Oblique-55" d="M 2853 2969 
Q 2766 3016 2653 3041 
Q 2541 3066 2413 3066 
Q 1953 3066 1609 2717 
Q 1266 2369 1153 1784 
L 800 0 
L 225 0 
L 909 3500 
L 1484 3500 
L 1375 2956 
Q 1603 3259 1920 3421 
Q 2238 3584 2597 3584 
Q 2691 3584 2781 3573 
Q 2872 3563 2963 3538 
L 2853 2969 
z
" transform="scale(0.015625)"/>
     </defs>
     <use xlink:href="#DejaVuSans-Oblique-127c"/>
     <use xlink:href="#DejaVuSans-Oblique-5b" transform="translate(64.59375 0)"/>
     <use xlink:href="#DejaVuSans-Oblique-48" transform="translate(123.78125 0)"/>
     <use xlink:href="#DejaVuSans-Oblique-47" transform="translate(185.3125 0)"/>
     <use xlink:href="#DejaVuSans-Oblique-3" transform="translate(248.796875 0)"/>
     <use xlink:href="#DejaVuSans-Oblique-45" transform="translate(280.578125 0)"/>
     <use xlink:href="#DejaVuSans-Oblique-5c" transform="translate(344.0625 0)"/>
     <use xlink:href="#DejaVuSans-Oblique-3" transform="translate(403.25 0)"/>
     <use xlink:href="#DejaVuSans-Oblique-57" transform="translate(435.03125 0)"/>
     <use xlink:href="#DejaVuSans-Oblique-4b" transform="translate(474.234375 0)"/>
     <use xlink:href="#DejaVuSans-Oblique-48" transform="translate(537.609375 0)"/>
     <use xlink:href="#DejaVuSans-Oblique-3" transform="translate(599.140625 0)"/>
     <use xlink:href="#DejaVuSans-Oblique-58" transform="translate(630.921875 0)"/>
     <use xlink:href="#DejaVuSans-Oblique-56" transform="translate(694.296875 0)"/>
     <use xlink:href="#DejaVuSans-Oblique-48" transform="translate(746.390625 0)"/>
     <use xlink:href="#DejaVuSans-Oblique-55" transform="translate(807.921875 0)"/>
    </g>
   </g>
   <g id="text_6">
    <!-- one network, -->
    <g style="fill: #6b7280" transform="translate(139.130448 56.909568) scale(0.088 -0.088)">
     <defs>
      <path id="DejaVuSans-Oblique-52" d="M 1625 -91 
Q 1009 -91 651 289 
Q 294 669 294 1325 
Q 294 1706 417 2101 
Q 541 2497 738 2766 
Q 1047 3184 1428 3384 
Q 1809 3584 2291 3584 
Q 2888 3584 3255 3212 
Q 3622 2841 3622 2241 
Q 3622 1825 3500 1412 
Q 3378 1000 3181 728 
Q 2875 309 2494 109 
Q 2113 -91 1625 -91 
z
M 891 1344 
Q 891 869 1089 633 
Q 1288 397 1691 397 
Q 2269 397 2648 901 
Q 3028 1406 3028 2181 
Q 3028 2634 2825 2865 
Q 2622 3097 2228 3097 
Q 1903 3097 1650 2945 
Q 1397 2794 1197 2484 
Q 1050 2253 970 1956 
Q 891 1659 891 1344 
z
" transform="scale(0.015625)"/>
      <path id="DejaVuSans-Oblique-51" d="M 3566 2113 
L 3156 0 
L 2578 0 
L 2988 2091 
Q 3016 2238 3031 2350 
Q 3047 2463 3047 2528 
Q 3047 2791 2881 2937 
Q 2716 3084 2419 3084 
Q 1956 3084 1622 2776 
Q 1288 2469 1184 1941 
L 800 0 
L 225 0 
L 903 3500 
L 1478 3500 
L 1363 2950 
Q 1603 3253 1940 3418 
Q 2278 3584 2650 3584 
Q 3113 3584 3367 3334 
Q 3622 3084 3622 2631 
Q 3622 2519 3608 2391 
Q 3594 2263 3566 2113 
z
" transform="scale(0.015625)"/>
      <path id="DejaVuSans-Oblique-5a" d="M 544 3500 
L 1113 3500 
L 1259 684 
L 2566 3500 
L 3231 3500 
L 3425 684 
L 4666 3500 
L 5241 3500 
L 3641 0 
L 2969 0 
L 2797 2900 
L 1459 0 
L 781 0 
L 544 3500 
z
" transform="scale(0.015625)"/>
      <path id="DejaVuSans-Oblique-4e" d="M 1172 4863 
L 1747 4863 
L 1197 2028 
L 3169 3500 
L 3916 3500 
L 1716 1825 
L 3322 0 
L 2625 0 
L 1131 1709 
L 800 0 
L 225 0 
L 1172 4863 
z
" transform="scale(0.015625)"/>
      <path id="DejaVuSans-Oblique-f" d="M 575 794 
L 1234 794 
L 1131 256 
L 422 -744 
L 19 -744 
L 469 256 
L 575 794 
z
" transform="scale(0.015625)"/>
     </defs>
     <use xlink:href="#DejaVuSans-Oblique-52"/>
     <use xlink:href="#DejaVuSans-Oblique-51" transform="translate(61.1875 0)"/>
     <use xlink:href="#DejaVuSans-Oblique-48" transform="translate(124.5625 0)"/>
     <use xlink:href="#DejaVuSans-Oblique-3" transform="translate(186.09375 0)"/>
     <use xlink:href="#DejaVuSans-Oblique-51" transform="translate(217.875 0)"/>
     <use xlink:href="#DejaVuSans-Oblique-48" transform="translate(281.25 0)"/>
     <use xlink:href="#DejaVuSans-Oblique-57" transform="translate(342.78125 0)"/>
     <use xlink:href="#DejaVuSans-Oblique-5a" transform="translate(381.984375 0)"/>
     <use xlink:href="#DejaVuSans-Oblique-52" transform="translate(463.765625 0)"/>
     <use xlink:href="#DejaVuSans-Oblique-55" transform="translate(524.953125 0)"/>
     <use xlink:href="#DejaVuSans-Oblique-4e" transform="translate(566.0625 0)"/>
     <use xlink:href="#DejaVuSans-Oblique-f" transform="translate(623.96875 0)"/>
    </g>
    <!-- fixed quantile levels -->
    <g style="fill: #6b7280" transform="translate(123.540011 67.471975) scale(0.088 -0.088)">
     <defs>
      <path id="DejaVuSans-Oblique-54" d="M 2669 525 
Q 2438 222 2123 65 
Q 1809 -91 1428 -91 
Q 897 -91 595 267 
Q 294 625 294 1253 
Q 294 1759 480 2231 
Q 666 2703 1013 3078 
Q 1238 3322 1530 3453 
Q 1822 3584 2144 3584 
Q 2531 3584 2781 3431 
Q 3031 3278 3144 2969 
L 3244 3494 
L 3822 3494 
L 2888 -1319 
L 2309 -1319 
L 2669 525 
z
M 891 1338 
Q 891 875 1084 633 
Q 1278 391 1644 391 
Q 2188 391 2572 911 
Q 2956 1431 2956 2175 
Q 2956 2625 2757 2864 
Q 2559 3103 2188 3103 
Q 1916 3103 1684 2976 
Q 1453 2850 1281 2606 
Q 1100 2350 995 2006 
Q 891 1663 891 1338 
z
" transform="scale(0.015625)"/>
      <path id="DejaVuSans-Oblique-44" d="M 3438 1997 
L 3047 0 
L 2472 0 
L 2578 531 
Q 2325 219 2001 64 
Q 1678 -91 1281 -91 
Q 834 -91 548 182 
Q 263 456 263 884 
Q 263 1497 752 1853 
Q 1241 2209 2100 2209 
L 2900 2209 
L 2931 2363 
Q 2938 2388 2941 2417 
Q 2944 2447 2944 2509 
Q 2944 2788 2717 2942 
Q 2491 3097 2081 3097 
Q 1800 3097 1504 3025 
Q 1209 2953 897 2809 
L 997 3341 
Q 1322 3463 1633 3523 
Q 1944 3584 2234 3584 
Q 2853 3584 3176 3315 
Q 3500 3047 3500 2534 
Q 3500 2431 3484 2292 
Q 3469 2153 3438 1997 
z
M 2816 1759 
L 2241 1759 
Q 1534 1759 1195 1570 
Q 856 1381 856 984 
Q 856 709 1029 553 
Q 1203 397 1509 397 
Q 1978 397 2328 733 
Q 2678 1069 2791 1631 
L 2816 1759 
z
" transform="scale(0.015625)"/>
      <path id="DejaVuSans-Oblique-4c" d="M 1172 4863 
L 1747 4863 
L 1606 4134 
L 1031 4134 
L 1172 4863 
z
M 909 3500 
L 1484 3500 
L 800 0 
L 225 0 
L 909 3500 
z
" transform="scale(0.015625)"/>
      <path id="DejaVuSans-Oblique-4f" d="M 1172 4863 
L 1747 4863 
L 800 0 
L 225 0 
L 1172 4863 
z
" transform="scale(0.015625)"/>
      <path id="DejaVuSans-Oblique-59" d="M 459 3500 
L 1069 3500 
L 1581 525 
L 3256 3500 
L 3866 3500 
L 1875 0 
L 1100 0 
L 459 3500 
z
" transform="scale(0.015625)"/>
     </defs>
     <use xlink:href="#DejaVuSans-Oblique-127c"/>
     <use xlink:href="#DejaVuSans-Oblique-5b" transform="translate(64.59375 0)"/>
     <use xlink:href="#DejaVuSans-Oblique-48" transform="translate(123.78125 0)"/>
     <use xlink:href="#DejaVuSans-Oblique-47" transform="translate(185.3125 0)"/>
     <use xlink:href="#DejaVuSans-Oblique-3" transform="translate(248.796875 0)"/>
     <use xlink:href="#DejaVuSans-Oblique-54" transform="translate(280.578125 0)"/>
     <use xlink:href="#DejaVuSans-Oblique-58" transform="translate(344.0625 0)"/>
     <use xlink:href="#DejaVuSans-Oblique-44" transform="translate(407.4375 0)"/>
     <use xlink:href="#DejaVuSans-Oblique-51" transform="translate(468.71875 0)"/>
     <use xlink:href="#DejaVuSans-Oblique-57" transform="translate(532.09375 0)"/>
     <use xlink:href="#DejaVuSans-Oblique-4c" transform="translate(571.296875 0)"/>
     <use xlink:href="#DejaVuSans-Oblique-4f" transform="translate(599.078125 0)"/>
     <use xlink:href="#DejaVuSans-Oblique-48" transform="translate(626.859375 0)"/>
     <use xlink:href="#DejaVuSans-Oblique-3" transform="translate(688.390625 0)"/>
     <use xlink:href="#DejaVuSans-Oblique-4f" transform="translate(720.171875 0)"/>
     <use xlink:href="#DejaVuSans-Oblique-48" transform="translate(747.953125 0)"/>
     <use xlink:href="#DejaVuSans-Oblique-59" transform="translate(809.484375 0)"/>
     <use xlink:href="#DejaVuSans-Oblique-48" transform="translate(868.671875 0)"/>
     <use xlink:href="#DejaVuSans-Oblique-4f" transform="translate(930.203125 0)"/>
     <use xlink:href="#DejaVuSans-Oblique-56" transform="translate(957.984375 0)"/>
    </g>
   </g>
   <g id="text_7">
    <!-- Standard QR -->
    <g style="fill: #1e293b" transform="translate(143.204063 49.353103) scale(0.12 -0.12)">
     <defs>
      <path id="DejaVuSans-Bold-36" d="M 3834 4519 
L 3834 3531 
Q 3450 3703 3084 3790 
Q 2719 3878 2394 3878 
Q 1963 3878 1756 3759 
Q 1550 3641 1550 3391 
Q 1550 3203 1689 3098 
Q 1828 2994 2194 2919 
L 2706 2816 
Q 3484 2659 3812 2340 
Q 4141 2022 4141 1434 
Q 4141 663 3683 286 
Q 3225 -91 2284 -91 
Q 1841 -91 1394 -6 
Q 947 78 500 244 
L 500 1259 
Q 947 1022 1364 901 
Q 1781 781 2169 781 
Q 2563 781 2772 912 
Q 2981 1044 2981 1288 
Q 2981 1506 2839 1625 
Q 2697 1744 2272 1838 
L 1806 1941 
Q 1106 2091 782 2419 
Q 459 2747 459 3303 
Q 459 4000 909 4375 
Q 1359 4750 2203 4750 
Q 2588 4750 2994 4692 
Q 3400 4634 3834 4519 
z
" transform="scale(0.015625)"/>
      <path id="DejaVuSans-Bold-44" d="M 2106 1575 
Q 1756 1575 1579 1456 
Q 1403 1338 1403 1106 
Q 1403 894 1545 773 
Q 1688 653 1941 653 
Q 2256 653 2472 879 
Q 2688 1106 2688 1447 
L 2688 1575 
L 2106 1575 
z
M 3816 1997 
L 3816 0 
L 2688 0 
L 2688 519 
Q 2463 200 2181 54 
Q 1900 -91 1497 -91 
Q 953 -91 614 226 
Q 275 544 275 1050 
Q 275 1666 698 1953 
Q 1122 2241 2028 2241 
L 2688 2241 
L 2688 2328 
Q 2688 2594 2478 2717 
Q 2269 2841 1825 2841 
Q 1466 2841 1156 2769 
Q 847 2697 581 2553 
L 581 3406 
Q 941 3494 1303 3539 
Q 1666 3584 2028 3584 
Q 2975 3584 3395 3211 
Q 3816 2838 3816 1997 
z
" transform="scale(0.015625)"/>
      <path id="DejaVuSans-Bold-47" d="M 2919 2988 
L 2919 4863 
L 4044 4863 
L 4044 0 
L 2919 0 
L 2919 506 
Q 2688 197 2409 53 
Q 2131 -91 1766 -91 
Q 1119 -91 703 423 
Q 288 938 288 1747 
Q 288 2556 703 3070 
Q 1119 3584 1766 3584 
Q 2128 3584 2408 3439 
Q 2688 3294 2919 2988 
z
M 2181 722 
Q 2541 722 2730 984 
Q 2919 1247 2919 1747 
Q 2919 2247 2730 2509 
Q 2541 2772 2181 2772 
Q 1825 2772 1636 2509 
Q 1447 2247 1447 1747 
Q 1447 1247 1636 984 
Q 1825 722 2181 722 
z
" transform="scale(0.015625)"/>
      <path id="DejaVuSans-Bold-55" d="M 3138 2547 
Q 2991 2616 2845 2648 
Q 2700 2681 2553 2681 
Q 2122 2681 1889 2404 
Q 1656 2128 1656 1613 
L 1656 0 
L 538 0 
L 538 3500 
L 1656 3500 
L 1656 2925 
Q 1872 3269 2151 3426 
Q 2431 3584 2822 3584 
Q 2878 3584 2943 3579 
Q 3009 3575 3134 3559 
L 3138 2547 
z
" transform="scale(0.015625)"/>
      <path id="DejaVuSans-Bold-35" d="M 2297 2597 
Q 2675 2597 2839 2737 
Q 3003 2878 3003 3200 
Q 3003 3519 2839 3656 
Q 2675 3794 2297 3794 
L 1791 3794 
L 1791 2597 
L 2297 2597 
z
M 1791 1766 
L 1791 0 
L 588 0 
L 588 4666 
L 2425 4666 
Q 3347 4666 3776 4356 
Q 4206 4047 4206 3378 
Q 4206 2916 3982 2619 
Q 3759 2322 3309 2181 
Q 3556 2125 3751 1926 
Q 3947 1728 4147 1325 
L 4800 0 
L 3519 0 
L 2950 1159 
Q 2778 1509 2601 1637 
Q 2425 1766 2131 1766 
L 1791 1766 
z
" transform="scale(0.015625)"/>
     </defs>
     <use xlink:href="#DejaVuSans-Bold-36"/>
     <use xlink:href="#DejaVuSans-Bold-57" transform="translate(72.015625 0)"/>
     <use xlink:href="#DejaVuSans-Bold-44" transform="translate(119.8125 0)"/>
     <use xlink:href="#DejaVuSans-Bold-51" transform="translate(187.296875 0)"/>
     <use xlink:href="#DejaVuSans-Bold-47" transform="translate(258.484375 0)"/>
     <use xlink:href="#DejaVuSans-Bold-44" transform="translate(330.0625 0)"/>
     <use xlink:href="#DejaVuSans-Bold-55" transform="translate(397.546875 0)"/>
     <use xlink:href="#DejaVuSans-Bold-47" transform="translate(446.859375 0)"/>
     <use xlink:href="#DejaVuSans-Bold-3" transform="translate(518.4375 0)"/>
     <use xlink:href="#DejaVuSans-Bold-34" transform="translate(553.25 0)"/>
     <use xlink:href="#DejaVuSans-Bold-35" transform="translate(638.265625 0)"/>
    </g>
   </g>
  </g>
  <g id="axes_2">
   <g id="patch_6">
    <path d="M 471.386483 135.153931 
L 587.460414 135.153931 
Q 591.087724 135.153931 591.087724 131.526621 
L 591.087724 97.067172 
Q 591.087724 93.439862 587.460414 93.439862 
L 471.386483 93.439862 
Q 467.759172 93.439862 467.759172 97.067172 
L 467.759172 131.526621 
Q 467.759172 135.153931 471.386483 135.153931 
z
" clip-path="url(#p667661d0c4)" style="fill: #6b7280; stroke: #6b7280; stroke-width: 1.6; stroke-linejoin: miter"/>
   </g>
   <g id="patch_7">
    <path d="M 500.90668 135.458605 
Q 482.569654 156.616712 465.330981 176.507489 
" clip-path="url(#p667661d0c4)" style="fill: none; stroke: #ea580c; stroke-width: 1.5; stroke-linecap: round"/>
    <path d="M 470.701411 174.280725 
L 465.330981 176.507489 
L 466.771828 170.875086 
z
" clip-path="url(#p667661d0c4)" style="fill: #ea580c; stroke: #ea580c; stroke-width: 1.5; stroke-linecap: round"/>
   </g>
   <g id="patch_8">
    <path d="M 557.656095 135.657859 
Q 570.229335 156.61326 581.93974 176.130601 
" clip-path="url(#p667661d0c4)" style="fill: none; stroke: #0369a1; stroke-width: 1.5; stroke-linecap: round"/>
    <path d="M 581.493844 170.333949 
L 581.93974 176.130601 
L 577.03488 173.009327 
z
" clip-path="url(#p667661d0c4)" style="fill: #0369a1; stroke: #0369a1; stroke-width: 1.5; stroke-linecap: round"/>
   </g>
   <g id="patch_9">
    <path d="M 398.840276 222.813931 
L 527.005241 222.813931 
Q 530.632552 222.813931 530.632552 219.186621 
L 530.632552 181.704414 
Q 530.632552 178.077103 527.005241 178.077103 
L 398.840276 178.077103 
Q 395.212966 178.077103 395.212966 181.704414 
L 395.212966 219.186621 
Q 395.212966 222.813931 398.840276 222.813931 
z
" clip-path="url(#p667661d0c4)" style="fill: #ea580c; stroke: #ea580c; stroke-width: 1.6; stroke-linejoin: miter"/>
   </g>
   <g id="patch_10">
    <path d="M 531.841655 222.813931 
L 647.915586 222.813931 
Q 651.542897 222.813931 651.542897 219.186621 
L 651.542897 181.704414 
Q 651.542897 178.077103 647.915586 178.077103 
L 531.841655 178.077103 
Q 528.214345 178.077103 528.214345 181.704414 
L 528.214345 219.186621 
Q 528.214345 222.813931 531.841655 222.813931 
z
" clip-path="url(#p667661d0c4)" style="fill: #0369a1; stroke: #0369a1; stroke-width: 1.6; stroke-linejoin: miter"/>
   </g>
   <g id="patch_11">
    <path d="M 464.801836 220.915833 
Q 508.264636 204.979473 550.152893 189.620445 
" clip-path="url(#p667661d0c4)" style="fill: none; stroke: #ea580c; stroke-width: 1.5; stroke-linecap: round"/>
    <path d="M 544.375674 188.969491 
L 550.152893 189.620445 
L 546.165798 193.851648 
z
" clip-path="url(#p667661d0c4)" style="fill: #ea580c; stroke: #ea580c; stroke-width: 1.5; stroke-linecap: round"/>
   </g>
   <g id="patch_12">
    <path d="M 589.878621 223.606593 
Q 589.878621 242.763497 589.878621 260.24335 
" clip-path="url(#p667661d0c4)" style="fill: none; stroke: #0369a1; stroke-width: 1.5; stroke-linecap: round"/>
    <path d="M 592.478621 255.04335 
L 589.878621 260.24335 
L 587.278621 255.04335 
z
" clip-path="url(#p667661d0c4)" style="fill: #0369a1; stroke: #0369a1; stroke-width: 1.5; stroke-linecap: round"/>
   </g>
   <g id="line2d_7">
    <path d="M 408.513103 282.06 
L 650.333793 282.06 
" clip-path="url(#p667661d0c4)" style="fill: none; stroke: #6b7280; stroke-width: 1.2; stroke-linecap: square"/>
   </g>
   <g id="line2d_8">
    <path d="M 418.185931 282.06 
" clip-path="url(#p667661d0c4)" style="fill: none; stroke: #ea580c; stroke-width: 1.5; stroke-linecap: square"/>
    <defs>
     <path id="mbfef6dd6b3" d="M 0 7 
L 0 -7 
" style="stroke: #ea580c; stroke-width: 2.2"/>
    </defs>
    <g clip-path="url(#p667661d0c4)">
     <use xlink:href="#mbfef6dd6b3" x="418.185931" y="282.06" style="fill: #ea580c; stroke: #ea580c; stroke-width: 2.2"/>
    </g>
   </g>
   <g id="line2d_9">
    <path d="M 430.276966 282.06 
" clip-path="url(#p667661d0c4)" style="fill: none; stroke: #ea580c; stroke-width: 1.5; stroke-linecap: square"/>
    <g clip-path="url(#p667661d0c4)">
     <use xlink:href="#mbfef6dd6b3" x="430.276966" y="282.06" style="fill: #ea580c; stroke: #ea580c; stroke-width: 2.2"/>
    </g>
   </g>
   <g id="line2d_10">
    <path d="M 461.713655 282.06 
" clip-path="url(#p667661d0c4)" style="fill: none; stroke: #ea580c; stroke-width: 1.5; stroke-linecap: square"/>
    <g clip-path="url(#p667661d0c4)">
     <use xlink:href="#mbfef6dd6b3" x="461.713655" y="282.06" style="fill: #ea580c; stroke: #ea580c; stroke-width: 2.2"/>
    </g>
   </g>
   <g id="line2d_11">
    <path d="M 541.514483 282.06 
" clip-path="url(#p667661d0c4)" style="fill: none; stroke: #ea580c; stroke-width: 1.5; stroke-linecap: square"/>
    <g clip-path="url(#p667661d0c4)">
     <use xlink:href="#mbfef6dd6b3" x="541.514483" y="282.06" style="fill: #ea580c; stroke: #ea580c; stroke-width: 2.2"/>
    </g>
   </g>
   <g id="line2d_12">
    <path d="M 643.079172 282.06 
" clip-path="url(#p667661d0c4)" style="fill: none; stroke: #ea580c; stroke-width: 1.5; stroke-linecap: square"/>
    <g clip-path="url(#p667661d0c4)">
     <use xlink:href="#mbfef6dd6b3" x="643.079172" y="282.06" style="fill: #ea580c; stroke: #ea580c; stroke-width: 2.2"/>
    </g>
   </g>
   <g id="text_8">
    <!-- Context $\phi$ -->
    <g style="fill: #ffffff" transform="translate(506.930448 116.453924) scale(0.083 -0.083)">
     <use xlink:href="#DejaVuSans-Bold-26" transform="translate(0 0.015625)"/>
     <use xlink:href="#DejaVuSans-Bold-52" transform="translate(73.388672 0.015625)"/>
     <use xlink:href="#DejaVuSans-Bold-51" transform="translate(142.089844 0.015625)"/>
     <use xlink:href="#DejaVuSans-Bold-57" transform="translate(213.28125 0.015625)"/>
     <use xlink:href="#DejaVuSans-Bold-48" transform="translate(261.083984 0.015625)"/>
     <use xlink:href="#DejaVuSans-Bold-5b" transform="translate(328.90625 0.015625)"/>
     <use xlink:href="#DejaVuSans-Bold-57" transform="translate(393.408203 0.015625)"/>
     <use xlink:href="#DejaVuSans-Bold-3" transform="translate(441.210938 0.015625)"/>
     <use xlink:href="#DejaVuSans-Oblique-369" transform="translate(476.025391 0.015625)"/>
    </g>
   </g>
   <g id="text_9">
    <!-- FPN -->
    <g style="fill: #ffffff" transform="translate(453.572938 202.601572) scale(0.083 -0.083)">
     <defs>
      <path id="DejaVuSans-Bold-29" d="M 588 4666 
L 3834 4666 
L 3834 3756 
L 1791 3756 
L 1791 2888 
L 3713 2888 
L 3713 1978 
L 1791 1978 
L 1791 0 
L 588 0 
L 588 4666 
z
" transform="scale(0.015625)"/>
      <path id="DejaVuSans-Bold-33" d="M 588 4666 
L 2584 4666 
Q 3475 4666 3951 4270 
Q 4428 3875 4428 3144 
Q 4428 2409 3951 2014 
Q 3475 1619 2584 1619 
L 1791 1619 
L 1791 0 
L 588 0 
L 588 4666 
z
M 1791 3794 
L 1791 2491 
L 2456 2491 
Q 2806 2491 2997 2661 
Q 3188 2831 3188 3144 
Q 3188 3456 2997 3625 
Q 2806 3794 2456 3794 
L 1791 3794 
z
" transform="scale(0.015625)"/>
     </defs>
     <use xlink:href="#DejaVuSans-Bold-29"/>
     <use xlink:href="#DejaVuSans-Bold-33" transform="translate(68.3125 0)"/>
     <use xlink:href="#DejaVuSans-Bold-31" transform="translate(141.609375 0)"/>
    </g>
   </g>
   <g id="text_10">
    <!-- QVN -->
    <g style="fill: #ffffff" transform="translate(579.66573 202.601572) scale(0.083 -0.083)">
     <use xlink:href="#DejaVuSans-Bold-34"/>
     <use xlink:href="#DejaVuSans-Bold-39" transform="translate(85.015625 0)"/>
     <use xlink:href="#DejaVuSans-Bold-31" transform="translate(162.40625 0)"/>
    </g>
   </g>
   <g id="text_11">
    <!-- 0 -->
    <g style="fill: #6b7280" transform="translate(405.968103 298.987448) scale(0.08 -0.08)">
     <use xlink:href="#DejaVuSans-13"/>
    </g>
   </g>
   <g id="text_12">
    <!-- 1 -->
    <g style="fill: #6b7280" transform="translate(647.788793 298.987448) scale(0.08 -0.08)">
     <use xlink:href="#DejaVuSans-14"/>
    </g>
   </g>
   <g id="text_13">
    <!-- learned per window -->
    <g style="fill: #ea580c" transform="translate(541.298713 312.287586) scale(0.086 -0.086)">
     <defs>
      <path id="DejaVuSans-Oblique-53" d="M 3175 2156 
Q 3175 2616 2975 2859 
Q 2775 3103 2400 3103 
Q 2144 3103 1911 2972 
Q 1678 2841 1497 2591 
Q 1319 2344 1212 1994 
Q 1106 1644 1106 1300 
Q 1106 863 1306 627 
Q 1506 391 1875 391 
Q 2147 391 2380 519 
Q 2613 647 2778 891 
Q 2956 1147 3065 1494 
Q 3175 1841 3175 2156 
z
M 1394 2969 
Q 1625 3272 1939 3428 
Q 2253 3584 2638 3584 
Q 3175 3584 3472 3232 
Q 3769 2881 3769 2247 
Q 3769 1728 3584 1258 
Q 3400 788 3053 416 
Q 2822 169 2531 39 
Q 2241 -91 1919 -91 
Q 1547 -91 1294 64 
Q 1041 219 916 525 
L 556 -1331 
L -19 -1331 
L 922 3500 
L 1497 3500 
L 1394 2969 
z
" transform="scale(0.015625)"/>
     </defs>
     <use xlink:href="#DejaVuSans-Oblique-4f"/>
     <use xlink:href="#DejaVuSans-Oblique-48" transform="translate(27.78125 0)"/>
     <use xlink:href="#DejaVuSans-Oblique-44" transform="translate(89.3125 0)"/>
     <use xlink:href="#DejaVuSans-Oblique-55" transform="translate(150.59375 0)"/>
     <use xlink:href="#DejaVuSans-Oblique-51" transform="translate(191.703125 0)"/>
     <use xlink:href="#DejaVuSans-Oblique-48" transform="translate(255.078125 0)"/>
     <use xlink:href="#DejaVuSans-Oblique-47" transform="translate(316.609375 0)"/>
     <use xlink:href="#DejaVuSans-Oblique-3" transform="translate(380.09375 0)"/>
     <use xlink:href="#DejaVuSans-Oblique-53" transform="translate(411.875 0)"/>
     <use xlink:href="#DejaVuSans-Oblique-48" transform="translate(475.359375 0)"/>
     <use xlink:href="#DejaVuSans-Oblique-55" transform="translate(536.890625 0)"/>
     <use xlink:href="#DejaVuSans-Oblique-3" transform="translate(578 0)"/>
     <use xlink:href="#DejaVuSans-Oblique-5a" transform="translate(609.78125 0)"/>
     <use xlink:href="#DejaVuSans-Oblique-4c" transform="translate(691.5625 0)"/>
     <use xlink:href="#DejaVuSans-Oblique-51" transform="translate(719.34375 0)"/>
     <use xlink:href="#DejaVuSans-Oblique-47" transform="translate(782.71875 0)"/>
     <use xlink:href="#DejaVuSans-Oblique-52" transform="translate(846.203125 0)"/>
     <use xlink:href="#DejaVuSans-Oblique-5a" transform="translate(907.390625 0)"/>
    </g>
   </g>
   <g id="text_14">
    <!-- two networks, -->
    <g style="fill: #ea580c" transform="translate(552.860541 56.909568) scale(0.088 -0.088)">
     <use xlink:href="#DejaVuSans-Oblique-57"/>
     <use xlink:href="#DejaVuSans-Oblique-5a" transform="translate(39.203125 0)"/>
     <use xlink:href="#DejaVuSans-Oblique-52" transform="translate(120.984375 0)"/>
     <use xlink:href="#DejaVuSans-Oblique-3" transform="translate(182.171875 0)"/>
     <use xlink:href="#DejaVuSans-Oblique-51" transform="translate(213.953125 0)"/>
     <use xlink:href="#DejaVuSans-Oblique-48" transform="translate(277.328125 0)"/>
     <use xlink:href="#DejaVuSans-Oblique-57" transform="translate(338.859375 0)"/>
     <use xlink:href="#DejaVuSans-Oblique-5a" transform="translate(378.0625 0)"/>
     <use xlink:href="#DejaVuSans-Oblique-52" transform="translate(459.84375 0)"/>
     <use xlink:href="#DejaVuSans-Oblique-55" transform="translate(521.03125 0)"/>
     <use xlink:href="#DejaVuSans-Oblique-4e" transform="translate(562.140625 0)"/>
     <use xlink:href="#DejaVuSans-Oblique-56" transform="translate(620.046875 0)"/>
     <use xlink:href="#DejaVuSans-Oblique-f" transform="translate(672.140625 0)"/>
    </g>
    <!-- learned quantile levels -->
    <g style="fill: #ea580c" transform="translate(533.612603 67.471975) scale(0.088 -0.088)">
     <use xlink:href="#DejaVuSans-Oblique-4f"/>
     <use xlink:href="#DejaVuSans-Oblique-48" transform="translate(27.78125 0)"/>
     <use xlink:href="#DejaVuSans-Oblique-44" transform="translate(89.3125 0)"/>
     <use xlink:href="#DejaVuSans-Oblique-55" transform="translate(150.59375 0)"/>
     <use xlink:href="#DejaVuSans-Oblique-51" transform="translate(191.703125 0)"/>
     <use xlink:href="#DejaVuSans-Oblique-48" transform="translate(255.078125 0)"/>
     <use xlink:href="#DejaVuSans-Oblique-47" transform="translate(316.609375 0)"/>
     <use xlink:href="#DejaVuSans-Oblique-3" transform="translate(380.09375 0)"/>
     <use xlink:href="#DejaVuSans-Oblique-54" transform="translate(411.875 0)"/>
     <use xlink:href="#DejaVuSans-Oblique-58" transform="translate(475.359375 0)"/>
     <use xlink:href="#DejaVuSans-Oblique-44" transform="translate(538.734375 0)"/>
     <use xlink:href="#DejaVuSans-Oblique-51" transform="translate(600.015625 0)"/>
     <use xlink:href="#DejaVuSans-Oblique-57" transform="translate(663.390625 0)"/>
     <use xlink:href="#DejaVuSans-Oblique-4c" transform="translate(702.59375 0)"/>
     <use xlink:href="#DejaVuSans-Oblique-4f" transform="translate(730.375 0)"/>
     <use xlink:href="#DejaVuSans-Oblique-48" transform="translate(758.15625 0)"/>
     <use xlink:href="#DejaVuSans-Oblique-3" transform="translate(819.6875 0)"/>
     <use xlink:href="#DejaVuSans-Oblique-4f" transform="translate(851.46875 0)"/>
     <use xlink:href="#DejaVuSans-Oblique-48" transform="translate(879.25 0)"/>
     <use xlink:href="#DejaVuSans-Oblique-59" transform="translate(940.78125 0)"/>
     <use xlink:href="#DejaVuSans-Oblique-48" transform="translate(999.96875 0)"/>
     <use xlink:href="#DejaVuSans-Oblique-4f" transform="translate(1061.5 0)"/>
     <use xlink:href="#DejaVuSans-Oblique-56" transform="translate(1089.28125 0)"/>
    </g>
   </g>
   <g id="text_15">
    <!-- FPQR -->
    <g style="fill: #ea580c" transform="translate(529.3425 49.353103) scale(0.12 -0.12)">
     <use xlink:href="#DejaVuSans-Bold-29"/>
     <use xlink:href="#DejaVuSans-Bold-33" transform="translate(68.3125 0)"/>
     <use xlink:href="#DejaVuSans-Bold-34" transform="translate(141.609375 0)"/>
     <use xlink:href="#DejaVuSans-Bold-35" transform="translate(226.625 0)"/>
    </g>
   </g>
  </g>
 </g>
 <defs>
  <clipPath id="p49beb37c7a">
   <rect x="10.8" y="55.353103" width="350.64" height="278.093793"/>
  </clipPath>
  <clipPath id="p667661d0c4">
   <rect x="372.24" y="55.353103" width="350.64" height="278.093793"/>
  </clipPath>
 </defs>
</svg>
