<?xml version="1.0" encoding="utf-8" standalone="no"?>
<!DOCTYPE svg PUBLIC "-//W3C//DTD SVG 1.1//EN"
  "http://www.w3.org/Graphics/SVG/1.1/DTD/svg11.dtd">
<svg xmlns:xlink="http://www.w3.org/1999/xlink" width="684pt" height="388.8pt" viewBox="0 0 684 388.8" xmlns="http://www.w3.org/2000/svg" version="1.1">
 <metadata>
  <rdf:RDF xmlns:dc="http://purl.org/dc/elements/1.1/" xmlns:cc="http://creativecommons.org/ns#" xmlns:rdf="http://www.w3.org/1999/02/22-rdf-syntax-ns#">
   <cc:Work>
    <dc:type rdf:resource="http://purl.org/dc/dcmitype/StillImage"/>
    <dc:date>2026-07-09T10:26:07.919308</dc:date>
    <dc:format>image/svg+xml</dc:format>
    <dc:creator>
     <cc:Agent>
      <dc:title>Matplotlib v3.11.0, https://matplotlib.org/</dc:title>
     </cc:Agent>
    </dc:creator>
   </cc:Work>
  </rdf:RDF>
 </metadata>
 <defs>
  <style type="text/css">*{stroke-linejoin: round; stroke-linecap: butt}</style>
 </defs>
 <g id="figure_1">
  <g id="patch_1">
   <path d="M 0 388.8 
L 684 388.8 
L 684 0 
L 0 0 
z
" style="fill: #ffffff"/>
  </g>
  <g id="axes_1">
   <g id="patch_2">
    <path d="M 183.148926 103.724847 
L 228.33602 103.724847 
Q 231.488608 103.724847 231.488608 100.572259 
L 231.488608 48.029126 
Q 231.488608 44.876538 228.33602 44.876538 
L 183.148926 44.876538 
Q 179.996338 44.876538 179.996338 48.029126 
L 179.996338 100.572259 
Q 179.996338 103.724847 183.148926 103.724847 
L 183.148926 103.724847 
z
" clip-path="url(#p5d1f233bf2)" style="fill: none; opacity: 0.55; stroke-dasharray: 4.4,3.3; stroke-dashoffset: 0; stroke: #6b7280; stroke-width: 1.1; stroke-linejoin: miter"/>
   </g>
   <g id="patch_3">
    <path d="M 181.572632 219.319739 
L 229.912314 219.319739 
Q 233.064902 219.319739 233.064902 216.167151 
L 233.064902 137.352452 
Q 233.064902 134.199864 229.912314 134.199864 
L 181.572632 134.199864 
Q 178.420044 134.199864 178.420044 137.352452 
L 178.420044 216.167151 
Q 178.420044 219.319739 181.572632 219.319739 
L 181.572632 219.319739 
z
" clip-path="url(#p5d1f233bf2)" style="fill: none; opacity: 0.55; stroke-dasharray: 4.4,3.3; stroke-dashoffset: 0; stroke: #6b7280; stroke-width: 1.1; stroke-linejoin: miter"/>
   </g>
   <g id="patch_4">
    <path d="M 182.098064 352.779296 
L 229.386883 352.779296 
Q 232.539471 352.779296 232.539471 349.626708 
L 232.539471 248.743893 
Q 232.539471 245.591306 229.386883 245.591306 
L 182.098064 245.591306 
Q 178.945476 245.591306 178.945476 248.743893 
L 178.945476 349.626708 
Q 178.945476 352.779296 182.098064 352.779296 
L 182.098064 352.779296 
z
" clip-path="url(#p5d1f233bf2)" style="fill: none; opacity: 0.55; stroke-dasharray: 4.4,3.3; stroke-dashoffset: 0; stroke: #6b7280; stroke-width: 1.1; stroke-linejoin: miter"/>
   </g>
   <g id="patch_5">
    <path d="M 203.115317 178.598811 
C 206.529294 178.598811 209.803903 177.242424 212.21795 174.828377 
C 214.631997 172.414331 215.988384 169.139721 215.988384 165.725744 
C 215.988384 162.311766 214.631997 159.037157 212.21795 156.62311 
C 209.803903 154.209064 206.529294 152.852676 203.115317 152.852676 
C 199.701339 152.852676 196.42673 154.209064 194.012683 156.62311 
C 191.598637 159.037157 190.242249 162.311766 190.242249 165.725744 
C 190.242249 169.139721 191.598637 172.414331 194.012683 174.828377 
C 196.42673 177.242424 199.701339 178.598811 203.115317 178.598811 
z
" clip-path="url(#p5d1f233bf2)" style="fill: #ffffff; stroke: #1e293b; stroke-width: 1.4; stroke-linejoin: miter"/>
   </g>
   <g id="patch_6">
    <path d="M 203.420723 88.661869 
Q 200.257826 116.281214 202.408177 142.203158 
" clip-path="url(#p5d1f233bf2)" style="fill: none; stroke: #6b7280; stroke-width: 1.6; stroke-linecap: round"/>
    <path d="M 204.735635 136.390849 
L 202.408177 142.203158 
L 199.154804 136.853806 
z
" clip-path="url(#p5d1f233bf2)" style="fill: #6b7280; stroke: #6b7280; stroke-width: 1.6; stroke-linecap: round"/>
   </g>
   <g id="patch_7">
    <path d="M 204.056076 186.363612 
Q 211.424841 237.807387 190.977967 283.999654 
" clip-path="url(#p5d1f233bf2)" style="fill: none; stroke: #6b7280; stroke-width: 1.3; stroke-linecap: round"/>
    <path d="M 195.805032 280.012243 
L 190.977967 283.999654 
L 190.684277 277.745555 
z
" clip-path="url(#p5d1f233bf2)" style="fill: #6b7280; stroke: #6b7280; stroke-width: 1.3; stroke-linecap: round"/>
   </g>
   <g id="patch_8">
    <path d="M 203.080673 186.434275 
Q 202.824614 240.087088 204.453077 292.26166 
" clip-path="url(#p5d1f233bf2)" style="fill: none; stroke: #6b7280; stroke-width: 1.3; stroke-linecap: round"/>
    <path d="M 207.077013 286.577035 
L 204.453077 292.26166 
L 201.479739 286.751736 
z
" clip-path="url(#p5d1f233bf2)" style="fill: #6b7280; stroke: #6b7280; stroke-width: 1.3; stroke-linecap: round"/>
   </g>
   <g id="patch_9">
    <path d="M 202.761325 186.429165 
Q 200.438558 236.894198 220.034184 281.876457 
" clip-path="url(#p5d1f233bf2)" style="fill: none; stroke: #6b7280; stroke-width: 1.3; stroke-linecap: round"/>
    <path d="M 220.364659 275.624194 
L 220.034184 281.876457 
L 215.230659 277.860719 
z
" clip-path="url(#p5d1f233bf2)" style="fill: #6b7280; stroke: #6b7280; stroke-width: 1.3; stroke-linecap: round"/>
   </g>
   <g id="text_1">
    <!-- HV transmission -->
    <g style="fill: #6b7280; opacity: 0.85" transform="translate(173.175598 38.751213) scale(0.08 -0.08)">
     <defs>
      <path id="DejaVuSans-Oblique-2b" d="M 1081 4666 
L 1716 4666 
L 1344 2753 
L 3634 2753 
L 4006 4666 
L 4641 4666 
L 3731 0 
L 3097 0 
L 3531 2222 
L 1241 2222 
L 806 0 
L 172 0 
L 1081 4666 
z
" transform="scale(0.015625)"/>
      <path id="DejaVuSans-Oblique-39" d="M 1319 0 
L 500 4666 
L 1119 4666 
L 1797 653 
L 4063 4666 
L 4750 4666 
L 2053 0 
L 1319 0 
z
" transform="scale(0.015625)"/>
      <path id="DejaVuSans-Oblique-3" transform="scale(0.015625)"/>
      <path id="DejaVuSans-Oblique-57" d="M 2706 3500 
L 2619 3053 
L 1472 3053 
L 1100 1153 
Q 1081 1047 1072 975 
Q 1063 903 1063 863 
Q 1063 663 1183 572 
Q 1303 481 1569 481 
L 2150 481 
L 2053 0 
L 1503 0 
Q 991 0 739 200 
Q 488 400 488 806 
Q 488 878 497 964 
Q 506 1050 525 1153 
L 897 3053 
L 409 3053 
L 500 3500 
L 978 3500 
L 1172 4494 
L 1747 4494 
L 1556 3500 
L 2706 3500 
z
" transform="scale(0.015625)"/>
      <path id="DejaVuSans-Oblique-55" d="M 2853 2969 
Q 2766 3016 2653 3041 
Q 2541 3066 2413 3066 
Q 1953 3066 1609 2717 
Q 1266 2369 1153 1784 
L 800 0 
L 225 0 
L 909 3500 
L 1484 3500 
L 1375 2956 
Q 1603 3259 1920 3421 
Q 2238 3584 2597 3584 
Q 2691 3584 2781 3573 
Q 2872 3563 2963 3538 
L 2853 2969 
z
" transform="scale(0.015625)"/>
      <path id="DejaVuSans-Oblique-44" d="M 3438 1997 
L 3047 0 
L 2472 0 
L 2578 531 
Q 2325 219 2001 64 
Q 1678 -91 1281 -91 
Q 834 -91 548 182 
Q 263 456 263 884 
Q 263 1497 752 1853 
Q 1241 2209 2100 2209 
L 2900 2209 
L 2931 2363 
Q 2938 2388 2941 2417 
Q 2944 2447 2944 2509 
Q 2944 2788 2717 2942 
Q 2491 3097 2081 3097 
Q 1800 3097 1504 3025 
Q 1209 2953 897 2809 
L 997 3341 
Q 1322 3463 1633 3523 
Q 1944 3584 2234 3584 
Q 2853 3584 3176 3315 
Q 3500 3047 3500 2534 
Q 3500 2431 3484 2292 
Q 3469 2153 3438 1997 
z
M 2816 1759 
L 2241 1759 
Q 1534 1759 1195 1570 
Q 856 1381 856 984 
Q 856 709 1029 553 
Q 1203 397 1509 397 
Q 1978 397 2328 733 
Q 2678 1069 2791 1631 
L 2816 1759 
z
" transform="scale(0.015625)"/>
      <path id="DejaVuSans-Oblique-51" d="M 3566 2113 
L 3156 0 
L 2578 0 
L 2988 2091 
Q 3016 2238 3031 2350 
Q 3047 2463 3047 2528 
Q 3047 2791 2881 2937 
Q 2716 3084 2419 3084 
Q 1956 3084 1622 2776 
Q 1288 2469 1184 1941 
L 800 0 
L 225 0 
L 903 3500 
L 1478 3500 
L 1363 2950 
Q 1603 3253 1940 3418 
Q 2278 3584 2650 3584 
Q 3113 3584 3367 3334 
Q 3622 3084 3622 2631 
Q 3622 2519 3608 2391 
Q 3594 2263 3566 2113 
z
" transform="scale(0.015625)"/>
      <path id="DejaVuSans-Oblique-56" d="M 3200 3397 
L 3091 2853 
Q 2863 2978 2609 3040 
Q 2356 3103 2088 3103 
Q 1634 3103 1373 2948 
Q 1113 2794 1113 2528 
Q 1113 2219 1719 2053 
Q 1766 2041 1788 2034 
L 1972 1978 
Q 2547 1819 2739 1644 
Q 2931 1469 2931 1166 
Q 2931 609 2489 259 
Q 2047 -91 1331 -91 
Q 1053 -91 747 -37 
Q 441 16 72 128 
L 184 722 
Q 500 559 806 475 
Q 1113 391 1394 391 
Q 1816 391 2080 572 
Q 2344 753 2344 1031 
Q 2344 1331 1650 1516 
L 1591 1531 
L 1394 1581 
Q 956 1697 753 1886 
Q 550 2075 550 2369 
Q 550 2928 970 3256 
Q 1391 3584 2113 3584 
Q 2397 3584 2667 3537 
Q 2938 3491 3200 3397 
z
" transform="scale(0.015625)"/>
      <path id="DejaVuSans-Oblique-50" d="M 5747 2113 
L 5338 0 
L 4763 0 
L 5166 2094 
Q 5191 2228 5203 2325 
Q 5216 2422 5216 2491 
Q 5216 2772 5059 2928 
Q 4903 3084 4622 3084 
Q 4203 3084 3875 2770 
Q 3547 2456 3450 1953 
L 3066 0 
L 2491 0 
L 2900 2094 
Q 2925 2209 2937 2307 
Q 2950 2406 2950 2484 
Q 2950 2769 2794 2926 
Q 2638 3084 2363 3084 
Q 1938 3084 1609 2770 
Q 1281 2456 1184 1953 
L 800 0 
L 225 0 
L 909 3500 
L 1484 3500 
L 1375 2956 
Q 1609 3263 1923 3423 
Q 2238 3584 2597 3584 
Q 2978 3584 3223 3384 
Q 3469 3184 3519 2828 
Q 3781 3197 4126 3390 
Q 4472 3584 4856 3584 
Q 5306 3584 5551 3325 
Q 5797 3066 5797 2591 
Q 5797 2488 5784 2364 
Q 5772 2241 5747 2113 
z
" transform="scale(0.015625)"/>
      <path id="DejaVuSans-Oblique-4c" d="M 1172 4863 
L 1747 4863 
L 1606 4134 
L 1031 4134 
L 1172 4863 
z
M 909 3500 
L 1484 3500 
L 800 0 
L 225 0 
L 909 3500 
z
" transform="scale(0.015625)"/>
      <path id="DejaVuSans-Oblique-52" d="M 1625 -91 
Q 1009 -91 651 289 
Q 294 669 294 1325 
Q 294 1706 417 2101 
Q 541 2497 738 2766 
Q 1047 3184 1428 3384 
Q 1809 3584 2291 3584 
Q 2888 3584 3255 3212 
Q 3622 2841 3622 2241 
Q 3622 1825 3500 1412 
Q 3378 1000 3181 728 
Q 2875 309 2494 109 
Q 2113 -91 1625 -91 
z
M 891 1344 
Q 891 869 1089 633 
Q 1288 397 1691 397 
Q 2269 397 2648 901 
Q 3028 1406 3028 2181 
Q 3028 2634 2825 2865 
Q 2622 3097 2228 3097 
Q 1903 3097 1650 2945 
Q 1397 2794 1197 2484 
Q 1050 2253 970 1956 
Q 891 1659 891 1344 
z
" transform="scale(0.015625)"/>
     </defs>
     <use xlink:href="#DejaVuSans-Oblique-2b"/>
     <use xlink:href="#DejaVuSans-Oblique-39" transform="translate(75.203125 0)"/>
     <use xlink:href="#DejaVuSans-Oblique-3" transform="translate(143.609375 0)"/>
     <use xlink:href="#DejaVuSans-Oblique-57" transform="translate(175.390625 0)"/>
     <use xlink:href="#DejaVuSans-Oblique-55" transform="translate(214.59375 0)"/>
     <use xlink:href="#DejaVuSans-Oblique-44" transform="translate(255.703125 0)"/>
     <use xlink:href="#DejaVuSans-Oblique-51" transform="translate(316.984375 0)"/>
     <use xlink:href="#DejaVuSans-Oblique-56" transform="translate(380.359375 0)"/>
     <use xlink:href="#DejaVuSans-Oblique-50" transform="translate(432.453125 0)"/>
     <use xlink:href="#DejaVuSans-Oblique-4c" transform="translate(529.859375 0)"/>
     <use xlink:href="#DejaVuSans-Oblique-56" transform="translate(557.640625 0)"/>
     <use xlink:href="#DejaVuSans-Oblique-56" transform="translate(609.734375 0)"/>
     <use xlink:href="#DejaVuSans-Oblique-4c" transform="translate(661.828125 0)"/>
     <use xlink:href="#DejaVuSans-Oblique-52" transform="translate(689.609375 0)"/>
     <use xlink:href="#DejaVuSans-Oblique-51" transform="translate(750.796875 0)"/>
    </g>
   </g>
   <g id="text_2">
    <!-- MV substation -->
    <g style="fill: #6b7280; opacity: 0.85" transform="translate(177.360598 128.074539) scale(0.08 -0.08)">
     <defs>
      <path id="DejaVuSans-Oblique-30" d="M 1081 4666 
L 2028 4666 
L 2572 1522 
L 4378 4666 
L 5350 4666 
L 4441 0 
L 3828 0 
L 4622 4091 
L 2791 897 
L 2175 897 
L 1581 4103 
L 788 0 
L 172 0 
L 1081 4666 
z
" transform="scale(0.015625)"/>
      <path id="DejaVuSans-Oblique-58" d="M 428 1388 
L 838 3500 
L 1416 3500 
L 1006 1409 
Q 975 1256 961 1147 
Q 947 1038 947 966 
Q 947 700 1109 554 
Q 1272 409 1569 409 
Q 2031 409 2368 721 
Q 2706 1034 2809 1563 
L 3194 3500 
L 3769 3500 
L 3091 0 
L 2516 0 
L 2631 550 
Q 2388 244 2052 76 
Q 1716 -91 1338 -91 
Q 878 -91 622 161 
Q 366 413 366 863 
Q 366 956 381 1097 
Q 397 1238 428 1388 
z
" transform="scale(0.015625)"/>
      <path id="DejaVuSans-Oblique-45" d="M 3169 2138 
Q 3169 2591 2961 2847 
Q 2753 3103 2388 3103 
Q 2122 3103 1889 2973 
Q 1656 2844 1484 2597 
Q 1303 2338 1198 1995 
Q 1094 1653 1094 1313 
Q 1094 881 1298 636 
Q 1503 391 1863 391 
Q 2134 391 2365 517 
Q 2597 644 2772 891 
Q 2950 1147 3059 1487 
Q 3169 1828 3169 2138 
z
M 1381 2969 
Q 1594 3256 1914 3420 
Q 2234 3584 2584 3584 
Q 3122 3584 3439 3221 
Q 3756 2859 3756 2241 
Q 3756 1734 3570 1259 
Q 3384 784 3041 416 
Q 2816 172 2522 40 
Q 2228 -91 1906 -91 
Q 1566 -91 1316 65 
Q 1066 222 909 531 
L 806 0 
L 231 0 
L 1178 4863 
L 1753 4863 
L 1381 2969 
z
" transform="scale(0.015625)"/>
     </defs>
     <use xlink:href="#DejaVuSans-Oblique-30"/>
     <use xlink:href="#DejaVuSans-Oblique-39" transform="translate(86.28125 0)"/>
     <use xlink:href="#DejaVuSans-Oblique-3" transform="translate(154.6875 0)"/>
     <use xlink:href="#DejaVuSans-Oblique-56" transform="translate(186.46875 0)"/>
     <use xlink:href="#DejaVuSans-Oblique-58" transform="translate(238.5625 0)"/>
     <use xlink:href="#DejaVuSans-Oblique-45" transform="translate(301.9375 0)"/>
     <use xlink:href="#DejaVuSans-Oblique-56" transform="translate(365.421875 0)"/>
     <use xlink:href="#DejaVuSans-Oblique-57" transform="translate(417.515625 0)"/>
     <use xlink:href="#DejaVuSans-Oblique-44" transform="translate(456.71875 0)"/>
     <use xlink:href="#DejaVuSans-Oblique-57" transform="translate(518 0)"/>
     <use xlink:href="#DejaVuSans-Oblique-4c" transform="translate(557.203125 0)"/>
     <use xlink:href="#DejaVuSans-Oblique-52" transform="translate(584.984375 0)"/>
     <use xlink:href="#DejaVuSans-Oblique-51" transform="translate(646.171875 0)"/>
    </g>
   </g>
   <g id="text_3">
    <!-- LV feeder -->
    <g style="fill: #6b7280; opacity: 0.85" transform="translate(186.821848 239.46598) scale(0.08 -0.08)">
     <defs>
      <path id="DejaVuSans-Oblique-2f" d="M 1075 4666 
L 1709 4666 
L 909 525 
L 3181 525 
L 3078 0 
L 172 0 
L 1075 4666 
z
" transform="scale(0.015625)"/>
      <path id="DejaVuSans-Oblique-49" d="M 3059 4863 
L 2969 4384 
L 2419 4384 
Q 2106 4384 1964 4261 
Q 1822 4138 1753 3809 
L 1691 3500 
L 2638 3500 
L 2553 3053 
L 1606 3053 
L 1013 0 
L 434 0 
L 1031 3053 
L 481 3053 
L 563 3500 
L 1113 3500 
L 1159 3744 
Q 1278 4363 1576 4613 
Q 1875 4863 2516 4863 
L 3059 4863 
z
" transform="scale(0.015625)"/>
      <path id="DejaVuSans-Oblique-48" d="M 3078 2063 
Q 3088 2113 3092 2166 
Q 3097 2219 3097 2272 
Q 3097 2653 2873 2875 
Q 2650 3097 2266 3097 
Q 1838 3097 1509 2826 
Q 1181 2556 1013 2059 
L 3078 2063 
z
M 3578 1613 
L 903 1613 
Q 884 1494 878 1425 
Q 872 1356 872 1306 
Q 872 872 1139 634 
Q 1406 397 1894 397 
Q 2269 397 2603 481 
Q 2938 566 3225 728 
L 3116 159 
Q 2806 34 2476 -28 
Q 2147 -91 1806 -91 
Q 1078 -91 686 257 
Q 294 606 294 1247 
Q 294 1794 489 2264 
Q 684 2734 1063 3103 
Q 1306 3334 1642 3459 
Q 1978 3584 2356 3584 
Q 2950 3584 3301 3228 
Q 3653 2872 3653 2272 
Q 3653 2128 3634 1964 
Q 3616 1800 3578 1613 
z
" transform="scale(0.015625)"/>
      <path id="DejaVuSans-Oblique-47" d="M 2675 525 
Q 2444 222 2128 65 
Q 1813 -91 1428 -91 
Q 903 -91 598 267 
Q 294 625 294 1247 
Q 294 1766 478 2236 
Q 663 2706 1013 3078 
Q 1244 3325 1534 3454 
Q 1825 3584 2144 3584 
Q 2481 3584 2739 3421 
Q 2997 3259 3138 2956 
L 3513 4863 
L 4091 4863 
L 3144 0 
L 2566 0 
L 2675 525 
z
M 891 1350 
Q 891 897 1095 644 
Q 1300 391 1663 391 
Q 1931 391 2161 520 
Q 2391 650 2566 903 
Q 2750 1166 2856 1509 
Q 2963 1853 2963 2188 
Q 2963 2622 2758 2865 
Q 2553 3109 2194 3109 
Q 1922 3109 1687 2981 
Q 1453 2853 1288 2613 
Q 1106 2353 998 2009 
Q 891 1666 891 1350 
z
" transform="scale(0.015625)"/>
     </defs>
     <use xlink:href="#DejaVuSans-Oblique-2f"/>
     <use xlink:href="#DejaVuSans-Oblique-39" transform="translate(48.4375 0)"/>
     <use xlink:href="#DejaVuSans-Oblique-3" transform="translate(116.84375 0)"/>
     <use xlink:href="#DejaVuSans-Oblique-49" transform="translate(148.625 0)"/>
     <use xlink:href="#DejaVuSans-Oblique-48" transform="translate(183.828125 0)"/>
     <use xlink:href="#DejaVuSans-Oblique-48" transform="translate(245.359375 0)"/>
     <use xlink:href="#DejaVuSans-Oblique-47" transform="translate(306.890625 0)"/>
     <use xlink:href="#DejaVuSans-Oblique-48" transform="translate(370.375 0)"/>
     <use xlink:href="#DejaVuSans-Oblique-55" transform="translate(431.90625 0)"/>
    </g>
   </g>
   <g id="text_4">
    <!--  -->
    <g style="fill: #1e293b" transform="translate(191.666179 79.444654) scale(0.25 -0.25)">
     <defs>
      <path id="bootstrap-icons-15a" d="M 1195 6400 
Q 1024 6400 917 6282 
Q 811 6165 811 5995 
L 811 405 
Q 811 235 917 117 
Q 1024 0 1195 0 
L 2411 0 
L 2411 1408 
Q 2389 1493 2453 1546 
Q 2517 1600 2603 1600 
L 3797 1600 
Q 3883 1600 3947 1546 
Q 4011 1493 4011 1408 
L 4011 0 
L 5205 0 
Q 5376 0 5493 117 
Q 5611 235 5611 405 
L 5611 5995 
Q 5611 6165 5493 6282 
Q 5376 6400 5205 6400 
L 1195 6400 
z
M 1600 5397 
Q 1600 5483 1653 5547 
Q 1707 5611 1792 5611 
L 2197 5611 
Q 2283 5611 2347 5547 
Q 2411 5483 2411 5397 
L 2411 4992 
Q 2389 4907 2336 4853 
Q 2283 4800 2197 4800 
L 1792 4800 
Q 1707 4800 1653 4853 
Q 1600 4907 1600 4992 
L 1600 5397 
z
M 2795 5397 
Q 2795 5483 2859 5547 
Q 2923 5611 3008 5611 
L 3392 5611 
Q 3477 5611 3541 5547 
Q 3605 5483 3605 5397 
L 3605 4992 
Q 3605 4907 3541 4853 
Q 3477 4800 3392 4800 
L 3008 4800 
Q 2923 4800 2859 4853 
Q 2795 4907 2795 4992 
L 2795 5397 
z
M 4203 5611 
L 4608 5611 
Q 4693 5611 4746 5547 
Q 4800 5483 4800 5397 
L 4800 4992 
Q 4800 4907 4746 4853 
Q 4693 4800 4608 4800 
L 4203 4800 
Q 4117 4800 4053 4853 
Q 3989 4907 3989 4992 
L 3989 5397 
Q 4011 5483 4064 5547 
Q 4117 5611 4203 5611 
z
M 1600 4203 
Q 1600 4288 1653 4341 
Q 1707 4395 1792 4395 
L 2197 4395 
Q 2283 4395 2347 4341 
Q 2411 4288 2411 4203 
L 2411 3797 
Q 2389 3712 2336 3658 
Q 2283 3605 2197 3605 
L 1792 3605 
Q 1707 3605 1653 3658 
Q 1600 3712 1600 3797 
L 1600 4203 
z
M 3008 4395 
L 3392 4395 
Q 3477 4395 3541 4341 
Q 3605 4288 3605 4203 
L 3605 3797 
Q 3605 3712 3541 3658 
Q 3477 3605 3392 3605 
L 3008 3605 
Q 2923 3605 2859 3658 
Q 2795 3712 2795 3797 
L 2795 4203 
Q 2795 4288 2859 4341 
Q 2923 4395 3008 4395 
z
M 4011 4203 
Q 4011 4288 4064 4341 
Q 4117 4395 4203 4395 
L 4608 4395 
Q 4693 4395 4746 4341 
Q 4800 4288 4800 4203 
L 4800 3797 
Q 4800 3712 4746 3658 
Q 4693 3605 4608 3605 
L 4203 3605 
Q 4117 3605 4064 3658 
Q 4011 3712 3989 3797 
L 4011 4203 
z
M 1792 3200 
L 2197 3200 
Q 2283 3200 2347 3146 
Q 2411 3093 2411 3008 
L 2411 2603 
Q 2389 2517 2336 2453 
Q 2283 2389 2197 2389 
L 1792 2389 
Q 1707 2389 1653 2453 
Q 1600 2517 1600 2603 
L 1600 3008 
Q 1600 3093 1653 3146 
Q 1707 3200 1792 3200 
z
M 2795 3008 
Q 2795 3093 2859 3146 
Q 2923 3200 3008 3200 
L 3392 3200 
Q 3477 3200 3541 3146 
Q 3605 3093 3605 3008 
L 3605 2603 
Q 3605 2517 3541 2453 
Q 3477 2389 3392 2389 
L 3008 2389 
Q 2923 2389 2859 2453 
Q 2795 2517 2795 2603 
L 2795 3008 
z
M 4203 3200 
L 4608 3200 
Q 4693 3200 4746 3146 
Q 4800 3093 4800 3008 
L 4800 2603 
Q 4800 2517 4746 2453 
Q 4693 2389 4608 2389 
L 4203 2389 
Q 4117 2389 4053 2453 
Q 3989 2517 3989 2603 
L 3989 3008 
Q 4011 3093 4064 3146 
Q 4117 3200 4203 3200 
z
" transform="scale(0.015625)"/>
     </defs>
     <use xlink:href="#bootstrap-icons-15a"/>
    </g>
   </g>
   <g id="text_5">
    <!-- power plant -->
    <g style="fill: #6b7280" transform="translate(181.816179 86.911045) scale(0.075 -0.075)">
     <defs>
      <path id="DejaVuSans-53" d="M 1159 525 
L 1159 -1331 
L 581 -1331 
L 581 3500 
L 1159 3500 
L 1159 2969 
Q 1341 3281 1617 3432 
Q 1894 3584 2278 3584 
Q 2916 3584 3314 3078 
Q 3713 2572 3713 1747 
Q 3713 922 3314 415 
Q 2916 -91 2278 -91 
Q 1894 -91 1617 61 
Q 1341 213 1159 525 
z
M 3116 1747 
Q 3116 2381 2855 2742 
Q 2594 3103 2138 3103 
Q 1681 3103 1420 2742 
Q 1159 2381 1159 1747 
Q 1159 1113 1420 752 
Q 1681 391 2138 391 
Q 2594 391 2855 752 
Q 3116 1113 3116 1747 
z
" transform="scale(0.015625)"/>
      <path id="DejaVuSans-52" d="M 1959 3097 
Q 1497 3097 1228 2736 
Q 959 2375 959 1747 
Q 959 1119 1226 758 
Q 1494 397 1959 397 
Q 2419 397 2687 759 
Q 2956 1122 2956 1747 
Q 2956 2369 2687 2733 
Q 2419 3097 1959 3097 
z
M 1959 3584 
Q 2709 3584 3137 3096 
Q 3566 2609 3566 1747 
Q 3566 888 3137 398 
Q 2709 -91 1959 -91 
Q 1206 -91 779 398 
Q 353 888 353 1747 
Q 353 2609 779 3096 
Q 1206 3584 1959 3584 
z
" transform="scale(0.015625)"/>
      <path id="DejaVuSans-5a" d="M 269 3500 
L 844 3500 
L 1563 769 
L 2278 3500 
L 2956 3500 
L 3675 769 
L 4391 3500 
L 4966 3500 
L 4050 0 
L 3372 0 
L 2619 2869 
L 1863 0 
L 1184 0 
L 269 3500 
z
" transform="scale(0.015625)"/>
      <path id="DejaVuSans-48" d="M 3597 1894 
L 3597 1613 
L 953 1613 
Q 991 1019 1311 708 
Q 1631 397 2203 397 
Q 2534 397 2845 478 
Q 3156 559 3463 722 
L 3463 178 
Q 3153 47 2828 -22 
Q 2503 -91 2169 -91 
Q 1331 -91 842 396 
Q 353 884 353 1716 
Q 353 2575 817 3079 
Q 1281 3584 2069 3584 
Q 2775 3584 3186 3129 
Q 3597 2675 3597 1894 
z
M 3022 2063 
Q 3016 2534 2758 2815 
Q 2500 3097 2075 3097 
Q 1594 3097 1305 2825 
Q 1016 2553 972 2059 
L 3022 2063 
z
" transform="scale(0.015625)"/>
      <path id="DejaVuSans-55" d="M 2631 2963 
Q 2534 3019 2420 3045 
Q 2306 3072 2169 3072 
Q 1681 3072 1420 2755 
Q 1159 2438 1159 1844 
L 1159 0 
L 581 0 
L 581 3500 
L 1159 3500 
L 1159 2956 
Q 1341 3275 1631 3429 
Q 1922 3584 2338 3584 
Q 2397 3584 2469 3576 
Q 2541 3569 2628 3553 
L 2631 2963 
z
" transform="scale(0.015625)"/>
      <path id="DejaVuSans-3" transform="scale(0.015625)"/>
      <path id="DejaVuSans-4f" d="M 603 4863 
L 1178 4863 
L 1178 0 
L 603 0 
L 603 4863 
z
" transform="scale(0.015625)"/>
      <path id="DejaVuSans-44" d="M 2194 1759 
Q 1497 1759 1228 1600 
Q 959 1441 959 1056 
Q 959 750 1161 570 
Q 1363 391 1709 391 
Q 2188 391 2477 730 
Q 2766 1069 2766 1631 
L 2766 1759 
L 2194 1759 
z
M 3341 1997 
L 3341 0 
L 2766 0 
L 2766 531 
Q 2569 213 2275 61 
Q 1981 -91 1556 -91 
Q 1019 -91 701 211 
Q 384 513 384 1019 
Q 384 1609 779 1909 
Q 1175 2209 1959 2209 
L 2766 2209 
L 2766 2266 
Q 2766 2663 2505 2880 
Q 2244 3097 1772 3097 
Q 1472 3097 1187 3025 
Q 903 2953 641 2809 
L 641 3341 
Q 956 3463 1253 3523 
Q 1550 3584 1831 3584 
Q 2591 3584 2966 3190 
Q 3341 2797 3341 1997 
z
" transform="scale(0.015625)"/>
      <path id="DejaVuSans-51" d="M 3513 2113 
L 3513 0 
L 2938 0 
L 2938 2094 
Q 2938 2591 2744 2837 
Q 2550 3084 2163 3084 
Q 1697 3084 1428 2787 
Q 1159 2491 1159 1978 
L 1159 0 
L 581 0 
L 581 3500 
L 1159 3500 
L 1159 2956 
Q 1366 3272 1645 3428 
Q 1925 3584 2291 3584 
Q 2894 3584 3203 3211 
Q 3513 2838 3513 2113 
z
" transform="scale(0.015625)"/>
      <path id="DejaVuSans-57" d="M 1172 4494 
L 1172 3500 
L 2356 3500 
L 2356 3053 
L 1172 3053 
L 1172 1153 
Q 1172 725 1289 603 
Q 1406 481 1766 481 
L 2356 481 
L 2356 0 
L 1766 0 
Q 1100 0 847 248 
Q 594 497 594 1153 
L 594 3053 
L 172 3053 
L 172 3500 
L 594 3500 
L 594 4494 
L 1172 4494 
z
" transform="scale(0.015625)"/>
     </defs>
     <use xlink:href="#DejaVuSans-53"/>
     <use xlink:href="#DejaVuSans-52" transform="translate(63.484375 0)"/>
     <use xlink:href="#DejaVuSans-5a" transform="translate(124.671875 0)"/>
     <use xlink:href="#DejaVuSans-48" transform="translate(206.453125 0)"/>
     <use xlink:href="#DejaVuSans-55" transform="translate(267.984375 0)"/>
     <use xlink:href="#DejaVuSans-3" transform="translate(309.09375 0)"/>
     <use xlink:href="#DejaVuSans-53" transform="translate(340.875 0)"/>
     <use xlink:href="#DejaVuSans-4f" transform="translate(404.359375 0)"/>
     <use xlink:href="#DejaVuSans-44" transform="translate(432.140625 0)"/>
     <use xlink:href="#DejaVuSans-51" transform="translate(493.421875 0)"/>
     <use xlink:href="#DejaVuSans-57" transform="translate(556.796875 0)"/>
    </g>
   </g>
   <g id="text_6">
    <!--  -->
    <g style="fill: #1e293b" transform="translate(194.115317 174.725744) scale(0.18 -0.18)">
     <defs>
      <path id="bootstrap-icons-499" d="M 811 5611 
Q 469 5611 234 5376 
Q 0 5141 0 4800 
L 0 4395 
Q 0 4075 234 3840 
Q 469 3605 789 3605 
L 3008 3605 
L 3008 2411 
Q 2752 2411 2581 2229 
Q 2411 2048 2411 1792 
L 192 1792 
Q 107 1792 53 1738 
Q 0 1685 0 1600 
Q 0 1515 53 1461 
Q 107 1408 192 1408 
L 2411 1408 
Q 2411 1152 2581 981 
Q 2752 811 3008 789 
L 3392 789 
Q 3648 789 3829 970 
Q 4011 1152 3989 1408 
L 6208 1408 
Q 6293 1408 6346 1461 
Q 6400 1515 6400 1600 
Q 6400 1685 6346 1738 
Q 6293 1792 6208 1792 
L 4011 1792 
Q 3989 2048 3818 2218 
Q 3648 2389 3392 2389 
L 3392 3605 
L 5611 3605 
Q 5931 3605 6165 3840 
Q 6400 4075 6400 4395 
L 6400 4800 
Q 6400 5141 6165 5376 
Q 5931 5611 5589 5611 
L 811 5611 
z
M 1003 4395 
Q 917 4395 864 4459 
Q 811 4523 811 4608 
Q 811 4693 864 4746 
Q 917 4800 1002 4800 
Q 1088 4800 1141 4746 
Q 1195 4693 1195 4608 
Q 1195 4523 1141 4459 
Q 1088 4395 1003 4395 
z
M 1792 4395 
Q 1707 4395 1653 4459 
Q 1600 4523 1600 4608 
Q 1600 4693 1653 4746 
Q 1707 4800 1792 4800 
Q 1877 4800 1941 4746 
Q 2005 4693 2005 4608 
Q 2005 4523 1941 4459 
Q 1877 4395 1792 4395 
z
" transform="scale(0.015625)"/>
     </defs>
     <use xlink:href="#bootstrap-icons-499"/>
    </g>
   </g>
   <g id="text_7">
    <!-- substation -->
    <g style="fill: #6b7280" transform="translate(183.499887 187.79386) scale(0.075 -0.075)">
     <defs>
      <path id="DejaVuSans-56" d="M 2834 3397 
L 2834 2853 
Q 2591 2978 2328 3040 
Q 2066 3103 1784 3103 
Q 1356 3103 1142 2972 
Q 928 2841 928 2578 
Q 928 2378 1081 2264 
Q 1234 2150 1697 2047 
L 1894 2003 
Q 2506 1872 2764 1633 
Q 3022 1394 3022 966 
Q 3022 478 2636 193 
Q 2250 -91 1575 -91 
Q 1294 -91 989 -36 
Q 684 19 347 128 
L 347 722 
Q 666 556 975 473 
Q 1284 391 1588 391 
Q 1994 391 2212 530 
Q 2431 669 2431 922 
Q 2431 1156 2273 1281 
Q 2116 1406 1581 1522 
L 1381 1569 
Q 847 1681 609 1914 
Q 372 2147 372 2553 
Q 372 3047 722 3315 
Q 1072 3584 1716 3584 
Q 2034 3584 2315 3537 
Q 2597 3491 2834 3397 
z
" transform="scale(0.015625)"/>
      <path id="DejaVuSans-58" d="M 544 1381 
L 544 3500 
L 1119 3500 
L 1119 1403 
Q 1119 906 1312 657 
Q 1506 409 1894 409 
Q 2359 409 2629 706 
Q 2900 1003 2900 1516 
L 2900 3500 
L 3475 3500 
L 3475 0 
L 2900 0 
L 2900 538 
Q 2691 219 2414 64 
Q 2138 -91 1772 -91 
Q 1169 -91 856 284 
Q 544 659 544 1381 
z
M 1991 3584 
L 1991 3584 
z
" transform="scale(0.015625)"/>
      <path id="DejaVuSans-45" d="M 3116 1747 
Q 3116 2381 2855 2742 
Q 2594 3103 2138 3103 
Q 1681 3103 1420 2742 
Q 1159 2381 1159 1747 
Q 1159 1113 1420 752 
Q 1681 391 2138 391 
Q 2594 391 2855 752 
Q 3116 1113 3116 1747 
z
M 1159 2969 
Q 1341 3281 1617 3432 
Q 1894 3584 2278 3584 
Q 2916 3584 3314 3078 
Q 3713 2572 3713 1747 
Q 3713 922 3314 415 
Q 2916 -91 2278 -91 
Q 1894 -91 1617 61 
Q 1341 213 1159 525 
L 1159 0 
L 581 0 
L 581 4863 
L 1159 4863 
L 1159 2969 
z
" transform="scale(0.015625)"/>
      <path id="DejaVuSans-4c" d="M 603 3500 
L 1178 3500 
L 1178 0 
L 603 0 
L 603 3500 
z
M 603 4863 
L 1178 4863 
L 1178 4134 
L 603 4134 
L 603 4863 
z
" transform="scale(0.015625)"/>
     </defs>
     <use xlink:href="#DejaVuSans-56"/>
     <use xlink:href="#DejaVuSans-58" transform="translate(52.09375 0)"/>
     <use xlink:href="#DejaVuSans-45" transform="translate(115.46875 0)"/>
     <use xlink:href="#DejaVuSans-56" transform="translate(178.953125 0)"/>
     <use xlink:href="#DejaVuSans-57" transform="translate(231.046875 0)"/>
     <use xlink:href="#DejaVuSans-44" transform="translate(270.25 0)"/>
     <use xlink:href="#DejaVuSans-57" transform="translate(331.53125 0)"/>
     <use xlink:href="#DejaVuSans-4c" transform="translate(370.734375 0)"/>
     <use xlink:href="#DejaVuSans-52" transform="translate(398.515625 0)"/>
     <use xlink:href="#DejaVuSans-51" transform="translate(459.703125 0)"/>
    </g>
   </g>
   <g id="patch_10">
    <path d="M 187.877808 312.058368 
C 190.177018 312.058368 192.382367 311.144883 194.008153 309.519096 
C 195.63394 307.89331 196.547425 305.687961 196.547425 303.388752 
C 196.547425 301.089542 195.63394 298.884193 194.008153 297.258407 
C 192.382367 295.63262 190.177018 294.719135 187.877808 294.719135 
C 185.578599 294.719135 183.37325 295.63262 181.747463 297.258407 
C 180.121677 298.884193 179.208191 301.089542 179.208191 303.388752 
C 179.208191 305.687961 180.121677 307.89331 181.747463 309.519096 
C 183.37325 311.144883 185.578599 312.058368 187.877808 312.058368 
z
" clip-path="url(#p5d1f233bf2)" style="fill: #059669; stroke: #ffffff; stroke-width: 1.2; stroke-linejoin: miter"/>
   </g>
   <g id="patch_11">
    <path d="M 204.691611 320.990701 
C 206.99082 320.990701 209.196169 320.077215 210.821956 318.451429 
C 212.447742 316.825643 213.361228 314.620293 213.361228 312.321084 
C 213.361228 310.021875 212.447742 307.816526 210.821956 306.190739 
C 209.196169 304.564953 206.99082 303.651467 204.691611 303.651467 
C 202.392401 303.651467 200.187052 304.564953 198.561266 306.190739 
C 196.935479 307.816526 196.021994 310.021875 196.021994 312.321084 
C 196.021994 314.620293 196.935479 316.825643 198.561266 318.451429 
C 200.187052 320.077215 202.392401 320.990701 204.691611 320.990701 
z
" clip-path="url(#p5d1f233bf2)" style="fill: #059669; stroke: #ffffff; stroke-width: 1.2; stroke-linejoin: miter"/>
   </g>
   <g id="text_8">
    <!-- smart meter -->
    <g style="fill: #0369a1" transform="translate(222.030845 322.416462) scale(0.065 -0.065)">
     <use xlink:href="#DejaVuSans-Oblique-56"/>
     <use xlink:href="#DejaVuSans-Oblique-50" transform="translate(52.09375 0)"/>
     <use xlink:href="#DejaVuSans-Oblique-44" transform="translate(149.5 0)"/>
     <use xlink:href="#DejaVuSans-Oblique-55" transform="translate(210.78125 0)"/>
     <use xlink:href="#DejaVuSans-Oblique-57" transform="translate(251.890625 0)"/>
     <use xlink:href="#DejaVuSans-Oblique-3" transform="translate(291.09375 0)"/>
     <use xlink:href="#DejaVuSans-Oblique-50" transform="translate(322.875 0)"/>
     <use xlink:href="#DejaVuSans-Oblique-48" transform="translate(420.28125 0)"/>
     <use xlink:href="#DejaVuSans-Oblique-57" transform="translate(481.8125 0)"/>
     <use xlink:href="#DejaVuSans-Oblique-48" transform="translate(521.015625 0)"/>
     <use xlink:href="#DejaVuSans-Oblique-55" transform="translate(582.546875 0)"/>
    </g>
   </g>
   <g id="patch_12">
    <path d="M 223.081707 309.956643 
C 225.380916 309.956643 227.586266 309.043158 229.212052 307.417371 
C 230.837839 305.791585 231.751324 303.586235 231.751324 301.287026 
C 231.751324 298.987817 230.837839 296.782468 229.212052 295.156681 
C 227.586266 293.530895 225.380916 292.617409 223.081707 292.617409 
C 220.782498 292.617409 218.577149 293.530895 216.951362 295.156681 
C 215.325576 296.782468 214.41209 298.987817 214.41209 301.287026 
C 214.41209 303.586235 215.325576 305.791585 216.951362 307.417371 
C 218.577149 309.043158 220.782498 309.956643 223.081707 309.956643 
z
" clip-path="url(#p5d1f233bf2)" style="fill: #059669; stroke: #ffffff; stroke-width: 1.2; stroke-linejoin: miter"/>
   </g>
   <g id="text_9">
    <!-- power flows one way only -->
    <g style="fill: #6b7280" transform="translate(150.673098 366.440511) scale(0.085 -0.085)">
     <defs>
      <path id="DejaVuSans-Oblique-53" d="M 3175 2156 
Q 3175 2616 2975 2859 
Q 2775 3103 2400 3103 
Q 2144 3103 1911 2972 
Q 1678 2841 1497 2591 
Q 1319 2344 1212 1994 
Q 1106 1644 1106 1300 
Q 1106 863 1306 627 
Q 1506 391 1875 391 
Q 2147 391 2380 519 
Q 2613 647 2778 891 
Q 2956 1147 3065 1494 
Q 3175 1841 3175 2156 
z
M 1394 2969 
Q 1625 3272 1939 3428 
Q 2253 3584 2638 3584 
Q 3175 3584 3472 3232 
Q 3769 2881 3769 2247 
Q 3769 1728 3584 1258 
Q 3400 788 3053 416 
Q 2822 169 2531 39 
Q 2241 -91 1919 -91 
Q 1547 -91 1294 64 
Q 1041 219 916 525 
L 556 -1331 
L -19 -1331 
L 922 3500 
L 1497 3500 
L 1394 2969 
z
" transform="scale(0.015625)"/>
      <path id="DejaVuSans-Oblique-5a" d="M 544 3500 
L 1113 3500 
L 1259 684 
L 2566 3500 
L 3231 3500 
L 3425 684 
L 4666 3500 
L 5241 3500 
L 3641 0 
L 2969 0 
L 2797 2900 
L 1459 0 
L 781 0 
L 544 3500 
z
" transform="scale(0.015625)"/>
      <path id="DejaVuSans-Oblique-127d" d="M 2516 4863 
L 4103 4863 
L 3156 0 
L 2578 0 
L 3450 4384 
L 2419 4384 
Q 2106 4384 1964 4261 
Q 1822 4138 1753 3809 
L 1691 3500 
L 2638 3500 
L 2553 3053 
L 1606 3053 
L 1013 0 
L 434 0 
L 1031 3053 
L 481 3053 
L 563 3500 
L 1113 3500 
L 1159 3744 
Q 1278 4366 1575 4614 
Q 1872 4863 2516 4863 
z
" transform="scale(0.015625)"/>
      <path id="DejaVuSans-Oblique-5c" d="M 1588 -325 
Q 1188 -997 936 -1164 
Q 684 -1331 294 -1331 
L -159 -1331 
L -63 -850 
L 269 -850 
Q 509 -850 678 -719 
Q 847 -588 1056 -206 
L 1234 128 
L 459 3500 
L 1069 3500 
L 1650 819 
L 3256 3500 
L 3859 3500 
L 1588 -325 
z
" transform="scale(0.015625)"/>
      <path id="DejaVuSans-Oblique-4f" d="M 1172 4863 
L 1747 4863 
L 800 0 
L 225 0 
L 1172 4863 
z
" transform="scale(0.015625)"/>
     </defs>
     <use xlink:href="#DejaVuSans-Oblique-53"/>
     <use xlink:href="#DejaVuSans-Oblique-52" transform="translate(63.484375 0)"/>
     <use xlink:href="#DejaVuSans-Oblique-5a" transform="translate(124.671875 0)"/>
     <use xlink:href="#DejaVuSans-Oblique-48" transform="translate(206.453125 0)"/>
     <use xlink:href="#DejaVuSans-Oblique-55" transform="translate(267.984375 0)"/>
     <use xlink:href="#DejaVuSans-Oblique-3" transform="translate(309.09375 0)"/>
     <use xlink:href="#DejaVuSans-Oblique-127d" transform="translate(340.875 0)"/>
     <use xlink:href="#DejaVuSans-Oblique-52" transform="translate(405.46875 0)"/>
     <use xlink:href="#DejaVuSans-Oblique-5a" transform="translate(466.65625 0)"/>
     <use xlink:href="#DejaVuSans-Oblique-56" transform="translate(548.4375 0)"/>
     <use xlink:href="#DejaVuSans-Oblique-3" transform="translate(600.53125 0)"/>
     <use xlink:href="#DejaVuSans-Oblique-52" transform="translate(632.3125 0)"/>
     <use xlink:href="#DejaVuSans-Oblique-51" transform="translate(693.5 0)"/>
     <use xlink:href="#DejaVuSans-Oblique-48" transform="translate(756.875 0)"/>
     <use xlink:href="#DejaVuSans-Oblique-3" transform="translate(818.40625 0)"/>
     <use xlink:href="#DejaVuSans-Oblique-5a" transform="translate(850.1875 0)"/>
     <use xlink:href="#DejaVuSans-Oblique-44" transform="translate(931.96875 0)"/>
     <use xlink:href="#DejaVuSans-Oblique-5c" transform="translate(993.25 0)"/>
     <use xlink:href="#DejaVuSans-Oblique-3" transform="translate(1052.4375 0)"/>
     <use xlink:href="#DejaVuSans-Oblique-52" transform="translate(1084.21875 0)"/>
     <use xlink:href="#DejaVuSans-Oblique-51" transform="translate(1145.40625 0)"/>
     <use xlink:href="#DejaVuSans-Oblique-4f" transform="translate(1208.78125 0)"/>
     <use xlink:href="#DejaVuSans-Oblique-5c" transform="translate(1236.5625 0)"/>
    </g>
   </g>
   <g id="text_10">
    <!-- Centralized grid -->
    <g style="fill: #1e293b" transform="translate(153.720247 19.537305) scale(0.115 -0.115)">
     <defs>
      <path id="DejaVuSans-Bold-26" d="M 4288 256 
Q 3956 84 3597 -3 
Q 3238 -91 2847 -91 
Q 1681 -91 1000 561 
Q 319 1213 319 2328 
Q 319 3447 1000 4098 
Q 1681 4750 2847 4750 
Q 3238 4750 3597 4662 
Q 3956 4575 4288 4403 
L 4288 3438 
Q 3953 3666 3628 3772 
Q 3303 3878 2944 3878 
Q 2300 3878 1931 3465 
Q 1563 3053 1563 2328 
Q 1563 1606 1931 1193 
Q 2300 781 2944 781 
Q 3303 781 3628 887 
Q 3953 994 4288 1222 
L 4288 256 
z
" transform="scale(0.015625)"/>
      <path id="DejaVuSans-Bold-48" d="M 4031 1759 
L 4031 1441 
L 1416 1441 
Q 1456 1047 1700 850 
Q 1944 653 2381 653 
Q 2734 653 3104 758 
Q 3475 863 3866 1075 
L 3866 213 
Q 3469 63 3072 -14 
Q 2675 -91 2278 -91 
Q 1328 -91 801 392 
Q 275 875 275 1747 
Q 275 2603 792 3093 
Q 1309 3584 2216 3584 
Q 3041 3584 3536 3087 
Q 4031 2591 4031 1759 
z
M 2881 2131 
Q 2881 2450 2695 2645 
Q 2509 2841 2209 2841 
Q 1884 2841 1681 2658 
Q 1478 2475 1428 2131 
L 2881 2131 
z
" transform="scale(0.015625)"/>
      <path id="DejaVuSans-Bold-51" d="M 4056 2131 
L 4056 0 
L 2931 0 
L 2931 347 
L 2931 1631 
Q 2931 2084 2911 2256 
Q 2891 2428 2841 2509 
Q 2775 2619 2662 2680 
Q 2550 2741 2406 2741 
Q 2056 2741 1856 2470 
Q 1656 2200 1656 1722 
L 1656 0 
L 538 0 
L 538 3500 
L 1656 3500 
L 1656 2988 
Q 1909 3294 2193 3439 
Q 2478 3584 2822 3584 
Q 3428 3584 3742 3212 
Q 4056 2841 4056 2131 
z
" transform="scale(0.015625)"/>
      <path id="DejaVuSans-Bold-57" d="M 1759 4494 
L 1759 3500 
L 2913 3500 
L 2913 2700 
L 1759 2700 
L 1759 1216 
Q 1759 972 1856 886 
Q 1953 800 2241 800 
L 2816 800 
L 2816 0 
L 1856 0 
Q 1194 0 917 276 
Q 641 553 641 1216 
L 641 2700 
L 84 2700 
L 84 3500 
L 641 3500 
L 641 4494 
L 1759 4494 
z
" transform="scale(0.015625)"/>
      <path id="DejaVuSans-Bold-55" d="M 3138 2547 
Q 2991 2616 2845 2648 
Q 2700 2681 2553 2681 
Q 2122 2681 1889 2404 
Q 1656 2128 1656 1613 
L 1656 0 
L 538 0 
L 538 3500 
L 1656 3500 
L 1656 2925 
Q 1872 3269 2151 3426 
Q 2431 3584 2822 3584 
Q 2878 3584 2943 3579 
Q 3009 3575 3134 3559 
L 3138 2547 
z
" transform="scale(0.015625)"/>
      <path id="DejaVuSans-Bold-44" d="M 2106 1575 
Q 1756 1575 1579 1456 
Q 1403 1338 1403 1106 
Q 1403 894 1545 773 
Q 1688 653 1941 653 
Q 2256 653 2472 879 
Q 2688 1106 2688 1447 
L 2688 1575 
L 2106 1575 
z
M 3816 1997 
L 3816 0 
L 2688 0 
L 2688 519 
Q 2463 200 2181 54 
Q 1900 -91 1497 -91 
Q 953 -91 614 226 
Q 275 544 275 1050 
Q 275 1666 698 1953 
Q 1122 2241 2028 2241 
L 2688 2241 
L 2688 2328 
Q 2688 2594 2478 2717 
Q 2269 2841 1825 2841 
Q 1466 2841 1156 2769 
Q 847 2697 581 2553 
L 581 3406 
Q 941 3494 1303 3539 
Q 1666 3584 2028 3584 
Q 2975 3584 3395 3211 
Q 3816 2838 3816 1997 
z
" transform="scale(0.015625)"/>
      <path id="DejaVuSans-Bold-4f" d="M 538 4863 
L 1656 4863 
L 1656 0 
L 538 0 
L 538 4863 
z
" transform="scale(0.015625)"/>
      <path id="DejaVuSans-Bold-4c" d="M 538 3500 
L 1656 3500 
L 1656 0 
L 538 0 
L 538 3500 
z
M 538 4863 
L 1656 4863 
L 1656 3950 
L 538 3950 
L 538 4863 
z
" transform="scale(0.015625)"/>
      <path id="DejaVuSans-Bold-5d" d="M 366 3500 
L 3419 3500 
L 3419 2719 
L 1575 800 
L 3419 800 
L 3419 0 
L 288 0 
L 288 781 
L 2131 2700 
L 366 2700 
L 366 3500 
z
" transform="scale(0.015625)"/>
      <path id="DejaVuSans-Bold-47" d="M 2919 2988 
L 2919 4863 
L 4044 4863 
L 4044 0 
L 2919 0 
L 2919 506 
Q 2688 197 2409 53 
Q 2131 -91 1766 -91 
Q 1119 -91 703 423 
Q 288 938 288 1747 
Q 288 2556 703 3070 
Q 1119 3584 1766 3584 
Q 2128 3584 2408 3439 
Q 2688 3294 2919 2988 
z
M 2181 722 
Q 2541 722 2730 984 
Q 2919 1247 2919 1747 
Q 2919 2247 2730 2509 
Q 2541 2772 2181 2772 
Q 1825 2772 1636 2509 
Q 1447 2247 1447 1747 
Q 1447 1247 1636 984 
Q 1825 722 2181 722 
z
" transform="scale(0.015625)"/>
      <path id="DejaVuSans-Bold-3" transform="scale(0.015625)"/>
      <path id="DejaVuSans-Bold-4a" d="M 2919 594 
Q 2688 288 2409 144 
Q 2131 0 1766 0 
Q 1125 0 706 504 
Q 288 1009 288 1791 
Q 288 2575 706 3076 
Q 1125 3578 1766 3578 
Q 2131 3578 2409 3434 
Q 2688 3291 2919 2981 
L 2919 3500 
L 4044 3500 
L 4044 353 
Q 4044 -491 3511 -936 
Q 2978 -1381 1966 -1381 
Q 1638 -1381 1331 -1331 
Q 1025 -1281 716 -1178 
L 716 -306 
Q 1009 -475 1290 -558 
Q 1572 -641 1856 -641 
Q 2406 -641 2662 -400 
Q 2919 -159 2919 353 
L 2919 594 
z
M 2181 2772 
Q 1834 2772 1640 2515 
Q 1447 2259 1447 1791 
Q 1447 1309 1634 1061 
Q 1822 813 2181 813 
Q 2531 813 2725 1069 
Q 2919 1325 2919 1791 
Q 2919 2259 2725 2515 
Q 2531 2772 2181 2772 
z
" transform="scale(0.015625)"/>
     </defs>
     <use xlink:href="#DejaVuSans-Bold-26"/>
     <use xlink:href="#DejaVuSans-Bold-48" transform="translate(73.390625 0)"/>
     <use xlink:href="#DejaVuSans-Bold-51" transform="translate(141.21875 0)"/>
     <use xlink:href="#DejaVuSans-Bold-57" transform="translate(212.40625 0)"/>
     <use xlink:href="#DejaVuSans-Bold-55" transform="translate(260.203125 0)"/>
     <use xlink:href="#DejaVuSans-Bold-44" transform="translate(309.515625 0)"/>
     <use xlink:href="#DejaVuSans-Bold-4f" transform="translate(377 0)"/>
     <use xlink:href="#DejaVuSans-Bold-4c" transform="translate(411.28125 0)"/>
     <use xlink:href="#DejaVuSans-Bold-5d" transform="translate(445.5625 0)"/>
     <use xlink:href="#DejaVuSans-Bold-48" transform="translate(503.765625 0)"/>
     <use xlink:href="#DejaVuSans-Bold-47" transform="translate(571.59375 0)"/>
     <use xlink:href="#DejaVuSans-Bold-3" transform="translate(643.171875 0)"/>
     <use xlink:href="#DejaVuSans-Bold-4a" transform="translate(677.984375 0)"/>
     <use xlink:href="#DejaVuSans-Bold-55" transform="translate(749.5625 0)"/>
     <use xlink:href="#DejaVuSans-Bold-4c" transform="translate(798.875 0)"/>
     <use xlink:href="#DejaVuSans-Bold-47" transform="translate(833.15625 0)"/>
    </g>
   </g>
   <g id="text_11">
    <!--  -->
    <g style="fill: #ffffff" transform="translate(181.877808 309.388752) scale(0.12 -0.12)">
     <defs>
      <path id="bootstrap-icons-4c8" d="M 3477 5803 
Q 3371 5909 3200 5909 
Q 3029 5909 2923 5803 
L 256 3136 
Q 192 3093 192 3008 
Q 192 2923 256 2859 
Q 320 2795 405 2795 
Q 491 2795 533 2859 
L 3200 5525 
L 5867 2859 
Q 5909 2795 5994 2795 
Q 6080 2795 6144 2859 
Q 6208 2923 6208 3008 
Q 6208 3093 6144 3136 
L 5205 4075 
L 5205 5397 
Q 5205 5483 5141 5547 
Q 5077 5611 4992 5611 
L 4608 5611 
Q 4523 5611 4459 5547 
Q 4395 5483 4395 5397 
L 4395 4885 
L 3477 5803 
z
M 3200 5077 
L 5611 2688 
L 5611 1003 
Q 5611 747 5429 576 
Q 5248 405 4992 405 
L 1408 405 
Q 1152 405 970 576 
Q 789 747 789 1003 
L 789 2688 
L 3200 5077 
z
" transform="scale(0.015625)"/>
     </defs>
     <use xlink:href="#bootstrap-icons-4c8"/>
    </g>
   </g>
   <g id="text_12">
    <!--  -->
    <g style="fill: #ffffff" transform="translate(198.691611 318.321084) scale(0.12 -0.12)">
     <use xlink:href="#bootstrap-icons-4c8"/>
    </g>
   </g>
   <g id="text_13">
    <!--  -->
    <g style="fill: #ffffff" transform="translate(217.081707 307.287026) scale(0.12 -0.12)">
     <use xlink:href="#bootstrap-icons-4c8"/>
    </g>
   </g>
   <g id="patch_13">
    <path d="M 214.674806 326.245014 
C 216.137939 326.245014 217.541343 325.663705 218.575935 324.629114 
C 219.610526 323.594523 220.191835 322.191119 220.191835 320.727985 
C 220.191835 319.264852 219.610526 317.861448 218.575935 316.826857 
C 217.541343 315.792265 216.137939 315.210956 214.674806 315.210956 
C 213.211673 315.210956 211.808269 315.792265 210.773677 316.826857 
C 209.739086 317.861448 209.157777 319.264852 209.157777 320.727985 
C 209.157777 322.191119 209.739086 323.594523 210.773677 324.629114 
C 211.808269 325.663705 213.211673 326.245014 214.674806 326.245014 
z
" clip-path="url(#p5d1f233bf2)" style="fill: #0369a1; stroke: #ffffff; stroke-width: 0.8; stroke-linejoin: miter"/>
   </g>
   <g id="text_14">
    <!--  -->
    <g style="fill: #ffffff" transform="translate(210.174806 325.227985) scale(0.09 -0.09)">
     <defs>
      <path id="bootstrap-icons-70f" d="M 3200 4800 
Q 3285 4800 3338 4746 
Q 3392 4693 3392 4608 
L 3392 4011 
Q 3392 3925 3338 3861 
Q 3285 3797 3200 3797 
Q 3115 3797 3061 3861 
Q 3008 3925 3008 3989 
L 3008 4608 
Q 3008 4693 3061 4746 
Q 3115 4800 3200 4800 
z
M 1493 4117 
Q 1557 4160 1632 4160 
Q 1707 4160 1771 4117 
L 2133 3733 
Q 2197 3691 2197 3605 
Q 2197 3520 2144 3456 
Q 2091 3392 2005 3392 
Q 1920 3392 1856 3456 
L 1493 3819 
Q 1429 3883 1429 3968 
Q 1429 4053 1493 4117 
z
M 811 2411 
Q 811 2475 864 2539 
Q 917 2603 1003 2603 
L 1643 2603 
Q 1707 2603 1771 2539 
Q 1835 2475 1835 2400 
Q 1835 2325 1771 2261 
Q 1707 2197 1643 2197 
L 1003 2197 
Q 917 2197 864 2261 
Q 811 2325 811 2411 
z
M 4608 2411 
Q 4608 2475 4661 2539 
Q 4715 2603 4800 2603 
L 5397 2603 
Q 5483 2603 5547 2539 
Q 5611 2475 5611 2400 
Q 5611 2325 5547 2261 
Q 5483 2197 5397 2197 
L 4800 2197 
Q 4715 2197 4661 2261 
Q 4608 2325 4608 2411 
z
M 4907 4096 
Q 4864 4139 4800 4139 
Q 4736 4139 4693 4096 
L 3029 2667 
Q 2944 2603 2912 2507 
Q 2880 2411 2901 2315 
Q 2923 2219 2997 2144 
Q 3072 2069 3178 2048 
Q 3285 2027 3381 2059 
Q 3477 2091 3541 2176 
L 4907 3883 
Q 4949 3947 4949 4000 
Q 4949 4053 4907 4096 
z
M 0 2411 
Q 0 3349 522 4149 
Q 1045 4949 1920 5333 
Q 2795 5717 3733 5557 
Q 4672 5397 5376 4746 
Q 6080 4096 6304 3168 
Q 6528 2240 6229 1344 
Q 6101 981 5749 853 
Q 5397 725 5056 832 
Q 3925 1195 3200 1195 
Q 2475 1195 1344 832 
Q 1003 725 651 853 
Q 299 981 171 1344 
Q 0 1856 0 2389 
L 0 2411 
z
M 3200 5205 
Q 2517 5205 1909 4885 
Q 1301 4565 906 4010 
Q 512 3456 426 2784 
Q 341 2112 555 1472 
Q 619 1301 811 1226 
Q 1003 1152 1237 1216 
Q 2411 1600 3200 1600 
Q 3989 1600 5163 1216 
Q 5397 1152 5589 1226 
Q 5781 1301 5845 1472 
Q 6059 2112 5973 2784 
Q 5888 3456 5493 4010 
Q 5099 4565 4491 4885 
Q 3883 5205 3200 5205 
z
" transform="scale(0.015625)"/>
     </defs>
     <use xlink:href="#bootstrap-icons-70f"/>
    </g>
   </g>
  </g>
  <g id="axes_2">
   <g id="patch_14">
    <path d="M 454.087686 99.521397 
L 502.427368 99.521397 
Q 505.579956 99.521397 505.579956 96.368809 
L 505.579956 46.978264 
Q 505.579956 43.825676 502.427368 43.825676 
L 454.087686 43.825676 
Q 450.935098 43.825676 450.935098 46.978264 
L 450.935098 96.368809 
Q 450.935098 99.521397 454.087686 99.521397 
L 454.087686 99.521397 
z
" clip-path="url(#p28e06cd786)" style="fill: none; opacity: 0.55; stroke-dasharray: 4.4,3.3; stroke-dashoffset: 0; stroke: #6b7280; stroke-width: 1.1; stroke-linejoin: miter"/>
   </g>
   <g id="patch_15">
    <path d="M 454.613117 215.116289 
L 502.427368 215.116289 
Q 505.579956 215.116289 505.579956 211.963701 
L 505.579956 137.352452 
Q 505.579956 134.199864 502.427368 134.199864 
L 454.613117 134.199864 
Q 451.460529 134.199864 451.460529 137.352452 
L 451.460529 211.963701 
Q 451.460529 215.116289 454.613117 215.116289 
L 454.613117 215.116289 
z
" clip-path="url(#p28e06cd786)" style="fill: none; opacity: 0.55; stroke-dasharray: 4.4,3.3; stroke-dashoffset: 0; stroke: #6b7280; stroke-width: 1.1; stroke-linejoin: miter"/>
   </g>
   <g id="patch_16">
    <path d="M 455.66398 355.931884 
L 501.376505 355.931884 
Q 504.529093 355.931884 504.529093 352.779296 
L 504.529093 247.693031 
Q 504.529093 244.540443 501.376505 244.540443 
L 455.66398 244.540443 
Q 452.511392 244.540443 452.511392 247.693031 
L 452.511392 352.779296 
Q 452.511392 355.931884 455.66398 355.931884 
L 455.66398 355.931884 
z
" clip-path="url(#p28e06cd786)" style="fill: none; opacity: 0.55; stroke-dasharray: 4.4,3.3; stroke-dashoffset: 0; stroke: #6b7280; stroke-width: 1.1; stroke-linejoin: miter"/>
   </g>
   <g id="patch_17">
    <path d="M 477.732095 173.869929 
C 481.006727 173.869929 484.147679 172.568904 486.463193 170.25339 
C 488.778707 167.937876 490.079731 164.796925 490.079731 161.522293 
C 490.079731 158.247662 488.778707 155.10671 486.463193 152.791196 
C 484.147679 150.475682 481.006727 149.174657 477.732095 149.174657 
C 474.457464 149.174657 471.316512 150.475682 469.000998 152.791196 
C 466.685484 155.10671 465.384459 158.247662 465.384459 161.522293 
C 465.384459 164.796925 466.685484 167.937876 469.000998 170.25339 
C 471.316512 172.568904 474.457464 173.869929 477.732095 173.869929 
z
" clip-path="url(#p28e06cd786)" style="fill: #ffffff; stroke: #1e293b; stroke-width: 1.4; stroke-linejoin: miter"/>
   </g>
   <g id="patch_18">
    <path d="M 478.266895 82.197895 
Q 471.156234 110.851197 476.194518 138.123408 
" clip-path="url(#p28e06cd786)" style="fill: none; stroke: #6b7280; stroke-width: 1.6; stroke-linecap: round"/>
    <path d="M 477.930594 132.107925 
L 476.194518 138.123408 
L 472.423777 133.125257 
z
" clip-path="url(#p28e06cd786)" style="fill: #6b7280; stroke: #6b7280; stroke-width: 1.6; stroke-linecap: round"/>
   </g>
   <g id="patch_19">
    <path d="M 476.093405 182.153505 
Q 483.88408 234.308812 458.8088 279.169063 
" clip-path="url(#p28e06cd786)" style="fill: none; stroke: #6b7280; stroke-width: 1.2; stroke-linecap: round"/>
    <path d="M 463.98522 275.647035 
L 458.8088 279.169063 
L 459.097029 272.914711 
z
" clip-path="url(#p28e06cd786)" style="fill: #6b7280; stroke: #6b7280; stroke-width: 1.2; stroke-linecap: round"/>
   </g>
   <g id="patch_20">
    <path d="M 460.798451 279.535656 
Q 464.484862 229.803311 478.177335 183.4811 
" clip-path="url(#p28e06cd786)" style="fill: none; stroke: #ea580c; stroke-width: 1.4; stroke-linecap: round"/>
    <path d="M 473.904769 188.05769 
L 478.177335 183.4811 
L 479.275067 189.645108 
z
" clip-path="url(#p28e06cd786)" style="fill: #ea580c; stroke: #ea580c; stroke-width: 1.4; stroke-linecap: round"/>
   </g>
   <g id="patch_21">
    <path d="M 475.637677 182.214115 
Q 480.313914 237.12916 477.138179 290.807464 
" clip-path="url(#p28e06cd786)" style="fill: none; stroke: #6b7280; stroke-width: 1.2; stroke-linecap: round"/>
    <path d="M 480.264022 285.382605 
L 477.138179 290.807464 
L 474.673797 285.051874 
z
" clip-path="url(#p28e06cd786)" style="fill: #6b7280; stroke: #6b7280; stroke-width: 1.2; stroke-linecap: round"/>
   </g>
   <g id="patch_22">
    <path d="M 482.650769 292.175763 
Q 488.888267 237.084253 481.444551 183.722689 
" clip-path="url(#p28e06cd786)" style="fill: none; stroke: #ea580c; stroke-width: 1.4; stroke-linecap: round"/>
    <path d="M 479.445088 189.655829 
L 481.444551 183.722689 
L 484.991385 188.882143 
z
" clip-path="url(#p28e06cd786)" style="fill: #ea580c; stroke: #ea580c; stroke-width: 1.4; stroke-linecap: round"/>
   </g>
   <g id="patch_23">
    <path d="M 475.238041 182.232769 
Q 476.786667 230.956079 493.027461 275.49359 
" clip-path="url(#p28e06cd786)" style="fill: none; stroke: #6b7280; stroke-width: 1.2; stroke-linecap: round"/>
    <path d="M 493.739531 269.273224 
L 493.027461 275.49359 
L 488.47841 271.191714 
z
" clip-path="url(#p28e06cd786)" style="fill: #6b7280; stroke: #6b7280; stroke-width: 1.2; stroke-linecap: round"/>
   </g>
   <g id="patch_24">
    <path d="M 501.777082 276.444121 
Q 508.775276 225.794425 484.200855 182.749585 
" clip-path="url(#p28e06cd786)" style="fill: none; stroke: #ea580c; stroke-width: 1.4; stroke-linecap: round"/>
    <path d="M 484.545675 189.001072 
L 484.200855 182.749585 
L 489.408937 186.224622 
z
" clip-path="url(#p28e06cd786)" style="fill: #ea580c; stroke: #ea580c; stroke-width: 1.4; stroke-linecap: round"/>
   </g>
   <g id="text_15">
    <!-- HV transmission -->
    <g style="fill: #6b7280; opacity: 0.85" transform="translate(445.690652 37.70035) scale(0.08 -0.08)">
     <use xlink:href="#DejaVuSans-Oblique-2b"/>
     <use xlink:href="#DejaVuSans-Oblique-39" transform="translate(75.203125 0)"/>
     <use xlink:href="#DejaVuSans-Oblique-3" transform="translate(143.609375 0)"/>
     <use xlink:href="#DejaVuSans-Oblique-57" transform="translate(175.390625 0)"/>
     <use xlink:href="#DejaVuSans-Oblique-55" transform="translate(214.59375 0)"/>
     <use xlink:href="#DejaVuSans-Oblique-44" transform="translate(255.703125 0)"/>
     <use xlink:href="#DejaVuSans-Oblique-51" transform="translate(316.984375 0)"/>
     <use xlink:href="#DejaVuSans-Oblique-56" transform="translate(380.359375 0)"/>
     <use xlink:href="#DejaVuSans-Oblique-50" transform="translate(432.453125 0)"/>
     <use xlink:href="#DejaVuSans-Oblique-4c" transform="translate(529.859375 0)"/>
     <use xlink:href="#DejaVuSans-Oblique-56" transform="translate(557.640625 0)"/>
     <use xlink:href="#DejaVuSans-Oblique-56" transform="translate(609.734375 0)"/>
     <use xlink:href="#DejaVuSans-Oblique-4c" transform="translate(661.828125 0)"/>
     <use xlink:href="#DejaVuSans-Oblique-52" transform="translate(689.609375 0)"/>
     <use xlink:href="#DejaVuSans-Oblique-51" transform="translate(750.796875 0)"/>
    </g>
   </g>
   <g id="text_16">
    <!-- MV substation -->
    <g style="fill: #6b7280; opacity: 0.85" transform="translate(450.138367 128.074539) scale(0.08 -0.08)">
     <use xlink:href="#DejaVuSans-Oblique-30"/>
     <use xlink:href="#DejaVuSans-Oblique-39" transform="translate(86.28125 0)"/>
     <use xlink:href="#DejaVuSans-Oblique-3" transform="translate(154.6875 0)"/>
     <use xlink:href="#DejaVuSans-Oblique-56" transform="translate(186.46875 0)"/>
     <use xlink:href="#DejaVuSans-Oblique-58" transform="translate(238.5625 0)"/>
     <use xlink:href="#DejaVuSans-Oblique-45" transform="translate(301.9375 0)"/>
     <use xlink:href="#DejaVuSans-Oblique-56" transform="translate(365.421875 0)"/>
     <use xlink:href="#DejaVuSans-Oblique-57" transform="translate(417.515625 0)"/>
     <use xlink:href="#DejaVuSans-Oblique-44" transform="translate(456.71875 0)"/>
     <use xlink:href="#DejaVuSans-Oblique-57" transform="translate(518 0)"/>
     <use xlink:href="#DejaVuSans-Oblique-4c" transform="translate(557.203125 0)"/>
     <use xlink:href="#DejaVuSans-Oblique-52" transform="translate(584.984375 0)"/>
     <use xlink:href="#DejaVuSans-Oblique-51" transform="translate(646.171875 0)"/>
    </g>
   </g>
   <g id="text_17">
    <!-- LV feeder -->
    <g style="fill: #6b7280; opacity: 0.85" transform="translate(459.599617 238.415117) scale(0.08 -0.08)">
     <use xlink:href="#DejaVuSans-Oblique-2f"/>
     <use xlink:href="#DejaVuSans-Oblique-39" transform="translate(48.4375 0)"/>
     <use xlink:href="#DejaVuSans-Oblique-3" transform="translate(116.84375 0)"/>
     <use xlink:href="#DejaVuSans-Oblique-49" transform="translate(148.625 0)"/>
     <use xlink:href="#DejaVuSans-Oblique-48" transform="translate(183.828125 0)"/>
     <use xlink:href="#DejaVuSans-Oblique-48" transform="translate(245.359375 0)"/>
     <use xlink:href="#DejaVuSans-Oblique-47" transform="translate(306.890625 0)"/>
     <use xlink:href="#DejaVuSans-Oblique-48" transform="translate(370.375 0)"/>
     <use xlink:href="#DejaVuSans-Oblique-55" transform="translate(431.90625 0)"/>
    </g>
   </g>
   <g id="text_18">
    <!--  -->
    <g style="fill: #1e293b" transform="translate(466.833821 73.639478) scale(0.26 -0.26)">
     <use xlink:href="#bootstrap-icons-15a"/>
    </g>
   </g>
   <g id="text_19">
    <!-- power plant -->
    <g style="fill: #6b7280" transform="translate(457.483821 80.605869) scale(0.075 -0.075)">
     <use xlink:href="#DejaVuSans-53"/>
     <use xlink:href="#DejaVuSans-52" transform="translate(63.484375 0)"/>
     <use xlink:href="#DejaVuSans-5a" transform="translate(124.671875 0)"/>
     <use xlink:href="#DejaVuSans-48" transform="translate(206.453125 0)"/>
     <use xlink:href="#DejaVuSans-55" transform="translate(267.984375 0)"/>
     <use xlink:href="#DejaVuSans-3" transform="translate(309.09375 0)"/>
     <use xlink:href="#DejaVuSans-53" transform="translate(340.875 0)"/>
     <use xlink:href="#DejaVuSans-4f" transform="translate(404.359375 0)"/>
     <use xlink:href="#DejaVuSans-44" transform="translate(432.140625 0)"/>
     <use xlink:href="#DejaVuSans-51" transform="translate(493.421875 0)"/>
     <use xlink:href="#DejaVuSans-57" transform="translate(556.796875 0)"/>
    </g>
   </g>
   <g id="text_20">
    <!--  -->
    <g style="fill: #1e293b" transform="translate(469.232095 170.022293) scale(0.17 -0.17)">
     <use xlink:href="#bootstrap-icons-499"/>
    </g>
   </g>
   <g id="text_21">
    <!-- substation -->
    <g style="fill: #6b7280" transform="translate(458.116666 183.590409) scale(0.075 -0.075)">
     <use xlink:href="#DejaVuSans-56"/>
     <use xlink:href="#DejaVuSans-58" transform="translate(52.09375 0)"/>
     <use xlink:href="#DejaVuSans-45" transform="translate(115.46875 0)"/>
     <use xlink:href="#DejaVuSans-56" transform="translate(178.953125 0)"/>
     <use xlink:href="#DejaVuSans-57" transform="translate(231.046875 0)"/>
     <use xlink:href="#DejaVuSans-44" transform="translate(270.25 0)"/>
     <use xlink:href="#DejaVuSans-57" transform="translate(331.53125 0)"/>
     <use xlink:href="#DejaVuSans-4c" transform="translate(370.734375 0)"/>
     <use xlink:href="#DejaVuSans-52" transform="translate(398.515625 0)"/>
     <use xlink:href="#DejaVuSans-51" transform="translate(459.703125 0)"/>
    </g>
   </g>
   <g id="patch_25">
    <path d="M 457.765705 307.329486 
C 460.20426 307.329486 462.543267 306.360638 464.267586 304.636319 
C 465.991905 302.912 466.960753 300.572994 466.960753 298.134438 
C 466.960753 295.695883 465.991905 293.356876 464.267586 291.632557 
C 462.543267 289.908238 460.20426 288.93939 457.765705 288.93939 
C 455.32715 288.93939 452.988143 289.908238 451.263824 291.632557 
C 449.539505 293.356876 448.570657 295.695883 448.570657 298.134438 
C 448.570657 300.572994 449.539505 302.912 451.263824 304.636319 
C 452.988143 306.360638 455.32715 307.329486 457.765705 307.329486 
z
" clip-path="url(#p28e06cd786)" style="fill: #059669; stroke: #ffffff; stroke-width: 1.2; stroke-linejoin: miter"/>
   </g>
   <g id="patch_26">
    <path d="M 479.308389 319.939838 
C 481.746945 319.939838 484.085951 318.97099 485.81027 317.246671 
C 487.534589 315.522352 488.503438 313.183345 488.503438 310.74479 
C 488.503438 308.306235 487.534589 305.967228 485.81027 304.242909 
C 484.085951 302.51859 481.746945 301.549742 479.308389 301.549742 
C 476.869834 301.549742 474.530827 302.51859 472.806508 304.242909 
C 471.082189 305.967228 470.113341 308.306235 470.113341 310.74479 
C 470.113341 313.183345 471.082189 315.522352 472.806508 317.246671 
C 474.530827 318.97099 476.869834 319.939838 479.308389 319.939838 
z
" clip-path="url(#p28e06cd786)" style="fill: #059669; stroke: #ffffff; stroke-width: 1.2; stroke-linejoin: miter"/>
   </g>
   <g id="text_22">
    <!-- smart meter -->
    <g style="fill: #0369a1" transform="translate(496.647623 320.840168) scale(0.065 -0.065)">
     <use xlink:href="#DejaVuSans-Oblique-56"/>
     <use xlink:href="#DejaVuSans-Oblique-50" transform="translate(52.09375 0)"/>
     <use xlink:href="#DejaVuSans-Oblique-44" transform="translate(149.5 0)"/>
     <use xlink:href="#DejaVuSans-Oblique-55" transform="translate(210.78125 0)"/>
     <use xlink:href="#DejaVuSans-Oblique-57" transform="translate(251.890625 0)"/>
     <use xlink:href="#DejaVuSans-Oblique-3" transform="translate(291.09375 0)"/>
     <use xlink:href="#DejaVuSans-Oblique-50" transform="translate(322.875 0)"/>
     <use xlink:href="#DejaVuSans-Oblique-48" transform="translate(420.28125 0)"/>
     <use xlink:href="#DejaVuSans-Oblique-57" transform="translate(481.8125 0)"/>
     <use xlink:href="#DejaVuSans-Oblique-48" transform="translate(521.015625 0)"/>
     <use xlink:href="#DejaVuSans-Oblique-55" transform="translate(582.546875 0)"/>
    </g>
   </g>
   <g id="patch_27">
    <path d="M 498.223917 304.176899 
C 500.662472 304.176899 503.001479 303.20805 504.725798 301.483731 
C 506.450117 299.759412 507.418965 297.420406 507.418965 294.98185 
C 507.418965 292.543295 506.450117 290.204288 504.725798 288.479969 
C 503.001479 286.75565 500.662472 285.786802 498.223917 285.786802 
C 495.785362 285.786802 493.446355 286.75565 491.722036 288.479969 
C 489.997717 290.204288 489.028869 292.543295 489.028869 294.98185 
C 489.028869 297.420406 489.997717 299.759412 491.722036 301.483731 
C 493.446355 303.20805 495.785362 304.176899 498.223917 304.176899 
z
" clip-path="url(#p28e06cd786)" style="fill: #dc2626; stroke: #ffffff; stroke-width: 1.2; stroke-linejoin: miter"/>
   </g>
   <g id="text_23">
    <!-- power flows both ways -->
    <g style="fill: #ea580c" transform="translate(423.247917 366.440511) scale(0.085 -0.085)">
     <defs>
      <path id="DejaVuSans-BoldOblique-53" d="M 1422 506 
L 1063 -1331 
L -63 -1331 
L 878 3500 
L 2003 3500 
L 1900 2988 
Q 2156 3294 2437 3439 
Q 2719 3584 3053 3584 
Q 3644 3584 3987 3209 
Q 4331 2834 4331 2188 
Q 4331 1784 4211 1403 
Q 4091 1022 3866 709 
Q 3581 316 3223 112 
Q 2866 -91 2456 -91 
Q 2097 -91 1845 54 
Q 1594 200 1422 506 
z
M 2597 2772 
Q 2166 2772 1892 2373 
Q 1619 1975 1619 1338 
Q 1619 1050 1773 886 
Q 1928 722 2203 722 
Q 2625 722 2900 1114 
Q 3175 1506 3175 2119 
Q 3175 2438 3026 2605 
Q 2878 2772 2597 2772 
z
" transform="scale(0.015625)"/>
      <path id="DejaVuSans-BoldOblique-52" d="M 2400 2784 
Q 1966 2784 1684 2390 
Q 1403 1997 1403 1388 
Q 1403 1056 1554 882 
Q 1706 709 1997 709 
Q 2431 709 2712 1104 
Q 2994 1500 2994 2113 
Q 2994 2441 2842 2612 
Q 2691 2784 2400 2784 
z
M 2491 3584 
Q 3272 3584 3719 3187 
Q 4166 2791 4166 2106 
Q 4166 1709 4025 1336 
Q 3884 963 3616 653 
Q 3297 284 2862 96 
Q 2428 -91 1894 -91 
Q 1122 -91 676 306 
Q 231 703 231 1388 
Q 231 1781 375 2157 
Q 519 2534 788 2847 
Q 1100 3209 1533 3396 
Q 1966 3584 2491 3584 
z
" transform="scale(0.015625)"/>
      <path id="DejaVuSans-BoldOblique-5a" d="M 556 3500 
L 1588 3500 
L 1709 1094 
L 2766 3500 
L 3653 3500 
L 3781 1100 
L 4831 3500 
L 5931 3500 
L 4331 0 
L 3144 0 
L 3028 2406 
L 1959 0 
L 800 0 
L 556 3500 
z
" transform="scale(0.015625)"/>
      <path id="DejaVuSans-BoldOblique-48" d="M 4025 1619 
L 3988 1441 
L 1369 1441 
Q 1369 1422 1366 1386 
Q 1363 1350 1363 1331 
Q 1363 991 1567 822 
Q 1772 653 2181 653 
Q 2534 653 2926 759 
Q 3319 866 3750 1075 
L 3578 206 
Q 3169 56 2764 -17 
Q 2359 -91 1941 -91 
Q 1122 -91 676 287 
Q 231 666 231 1356 
Q 231 1756 373 2132 
Q 516 2509 788 2822 
Q 1109 3197 1557 3390 
Q 2006 3584 2553 3584 
Q 3263 3584 3680 3206 
Q 4097 2828 4097 2188 
Q 4097 2063 4080 1923 
Q 4063 1784 4025 1619 
z
M 2969 2131 
Q 2978 2172 2983 2214 
Q 2988 2256 2988 2297 
Q 2988 2547 2838 2694 
Q 2688 2841 2431 2841 
Q 2103 2841 1873 2661 
Q 1644 2481 1522 2131 
L 2969 2131 
z
" transform="scale(0.015625)"/>
      <path id="DejaVuSans-BoldOblique-55" d="M 3291 2547 
Q 3175 2613 3034 2647 
Q 2894 2681 2731 2681 
Q 2303 2681 2020 2406 
Q 1738 2131 1638 1613 
L 1319 0 
L 197 0 
L 878 3500 
L 2003 3500 
L 1881 2900 
Q 2103 3231 2436 3407 
Q 2769 3584 3175 3584 
Q 3234 3584 3309 3578 
Q 3384 3572 3488 3559 
L 3291 2547 
z
" transform="scale(0.015625)"/>
      <path id="DejaVuSans-BoldOblique-3" transform="scale(0.015625)"/>
      <path id="DejaVuSans-BoldOblique-127d" d="M 2597 4863 
L 5106 4863 
L 4159 0 
L 3041 0 
L 3834 4128 
L 2694 4128 
Q 2459 4128 2351 4042 
Q 2244 3956 2203 3747 
L 2150 3500 
L 3097 3500 
L 2944 2700 
L 1997 2700 
L 1472 0 
L 347 0 
L 872 2700 
L 319 2700 
L 475 3500 
L 1025 3500 
L 1075 3744 
Q 1191 4325 1556 4594 
Q 1922 4863 2597 4863 
z
" transform="scale(0.015625)"/>
      <path id="DejaVuSans-BoldOblique-56" d="M 3584 3391 
L 3419 2522 
Q 3091 2678 2766 2759 
Q 2441 2841 2150 2841 
Q 1819 2841 1639 2755 
Q 1459 2669 1459 2509 
Q 1459 2416 1559 2359 
Q 1659 2303 1953 2241 
L 2156 2203 
Q 2834 2059 3106 1832 
Q 3378 1606 3378 1203 
Q 3378 594 2900 251 
Q 2422 -91 1563 -91 
Q 1203 -91 828 -34 
Q 453 22 63 134 
L 231 1013 
Q 534 834 879 743 
Q 1225 653 1588 653 
Q 1941 653 2119 737 
Q 2297 822 2297 984 
Q 2297 1097 2197 1159 
Q 2097 1222 1784 1288 
L 1581 1325 
Q 981 1450 725 1694 
Q 469 1938 469 2369 
Q 469 2953 911 3268 
Q 1353 3584 2175 3584 
Q 2534 3584 2882 3536 
Q 3231 3488 3584 3391 
z
" transform="scale(0.015625)"/>
      <path id="DejaVuSans-BoldOblique-45" d="M 2597 2772 
Q 2166 2772 1892 2373 
Q 1619 1975 1619 1338 
Q 1619 1050 1773 886 
Q 1928 722 2203 722 
Q 2625 722 2900 1114 
Q 3175 1506 3175 2119 
Q 3175 2438 3026 2605 
Q 2878 2772 2597 2772 
z
M 1422 506 
L 1319 0 
L 197 0 
L 1141 4863 
L 2266 4863 
L 1900 2988 
Q 2156 3294 2437 3439 
Q 2719 3584 3053 3584 
Q 3644 3584 3987 3209 
Q 4331 2834 4331 2188 
Q 4331 1784 4211 1403 
Q 4091 1022 3866 709 
Q 3581 316 3223 112 
Q 2866 -91 2456 -91 
Q 2097 -91 1845 54 
Q 1594 200 1422 506 
z
" transform="scale(0.015625)"/>
      <path id="DejaVuSans-BoldOblique-57" d="M 2303 4494 
L 2113 3500 
L 3256 3500 
L 3097 2700 
L 1953 2700 
L 1666 1219 
Q 1653 1169 1648 1134 
Q 1644 1100 1644 1069 
Q 1644 925 1739 862 
Q 1834 800 2059 800 
L 2638 800 
L 2478 0 
L 1538 0 
Q 1031 0 765 212 
Q 500 425 500 825 
Q 500 913 509 1013 
Q 519 1113 538 1216 
L 825 2700 
L 275 2700 
L 428 3500 
L 984 3500 
L 1178 4494 
L 2303 4494 
z
" transform="scale(0.015625)"/>
      <path id="DejaVuSans-BoldOblique-4b" d="M 4128 2131 
L 3713 0 
L 2591 0 
L 2944 1825 
Q 2981 2003 3001 2126 
Q 3022 2250 3022 2322 
Q 3022 2522 2911 2631 
Q 2800 2741 2597 2741 
Q 2250 2741 2001 2470 
Q 1753 2200 1656 1722 
L 1319 0 
L 197 0 
L 1141 4863 
L 2266 4863 
L 1900 2988 
Q 2209 3291 2521 3437 
Q 2834 3584 3175 3584 
Q 3659 3584 3921 3331 
Q 4184 3078 4184 2619 
Q 4184 2519 4170 2397 
Q 4156 2275 4128 2131 
z
" transform="scale(0.015625)"/>
      <path id="DejaVuSans-BoldOblique-44" d="M 2106 1575 
Q 1688 1575 1473 1445 
Q 1259 1316 1259 1063 
Q 1259 872 1386 762 
Q 1513 653 1734 653 
Q 2078 653 2309 861 
Q 2541 1069 2619 1447 
L 2644 1575 
L 2106 1575 
z
M 3853 1997 
L 3463 0 
L 2344 0 
L 2438 519 
Q 2163 206 1856 57 
Q 1550 -91 1191 -91 
Q 694 -91 401 167 
Q 109 425 109 863 
Q 109 1531 626 1886 
Q 1144 2241 2119 2241 
L 2778 2241 
L 2791 2328 
Q 2800 2372 2801 2390 
Q 2803 2409 2803 2425 
Q 2803 2631 2608 2736 
Q 2413 2841 2028 2841 
Q 1681 2841 1356 2769 
Q 1031 2697 728 2553 
L 897 3406 
Q 1247 3494 1614 3539 
Q 1981 3584 2375 3584 
Q 3153 3584 3531 3317 
Q 3909 3050 3909 2503 
Q 3909 2397 3895 2270 
Q 3881 2144 3853 1997 
z
" transform="scale(0.015625)"/>
      <path id="DejaVuSans-BoldOblique-5c" d="M 422 3500 
L 1478 3500 
L 1959 1075 
L 3200 3500 
L 4397 3500 
L 2181 -331 
Q 1809 -978 1493 -1179 
Q 1178 -1381 678 -1381 
L 0 -1381 
L 116 -647 
L 469 -647 
Q 744 -647 895 -555 
Q 1047 -463 1166 -231 
L 1269 -44 
L 422 3500 
z
" transform="scale(0.015625)"/>
     </defs>
     <use xlink:href="#DejaVuSans-BoldOblique-53"/>
     <use xlink:href="#DejaVuSans-BoldOblique-52" transform="translate(71.578125 0)"/>
     <use xlink:href="#DejaVuSans-BoldOblique-5a" transform="translate(140.28125 0)"/>
     <use xlink:href="#DejaVuSans-BoldOblique-48" transform="translate(232.671875 0)"/>
     <use xlink:href="#DejaVuSans-BoldOblique-55" transform="translate(300.5 0)"/>
     <use xlink:href="#DejaVuSans-BoldOblique-3" transform="translate(349.8125 0)"/>
     <use xlink:href="#DejaVuSans-BoldOblique-127d" transform="translate(384.625 0)"/>
     <use xlink:href="#DejaVuSans-BoldOblique-52" transform="translate(463.34375 0)"/>
     <use xlink:href="#DejaVuSans-BoldOblique-5a" transform="translate(532.046875 0)"/>
     <use xlink:href="#DejaVuSans-BoldOblique-56" transform="translate(624.4375 0)"/>
     <use xlink:href="#DejaVuSans-BoldOblique-3" transform="translate(683.953125 0)"/>
     <use xlink:href="#DejaVuSans-BoldOblique-45" transform="translate(718.765625 0)"/>
     <use xlink:href="#DejaVuSans-BoldOblique-52" transform="translate(790.34375 0)"/>
     <use xlink:href="#DejaVuSans-BoldOblique-57" transform="translate(859.046875 0)"/>
     <use xlink:href="#DejaVuSans-BoldOblique-4b" transform="translate(906.84375 0)"/>
     <use xlink:href="#DejaVuSans-BoldOblique-3" transform="translate(978.03125 0)"/>
     <use xlink:href="#DejaVuSans-BoldOblique-5a" transform="translate(1012.84375 0)"/>
     <use xlink:href="#DejaVuSans-BoldOblique-44" transform="translate(1105.234375 0)"/>
     <use xlink:href="#DejaVuSans-BoldOblique-5c" transform="translate(1169.640625 0)"/>
     <use xlink:href="#DejaVuSans-BoldOblique-56" transform="translate(1234.828125 0)"/>
    </g>
   </g>
   <g id="text_24">
    <!-- Decentralized, DER-rich grid -->
    <g style="fill: #1e293b" transform="translate(386.363542 19.537305) scale(0.115 -0.115)">
     <defs>
      <path id="DejaVuSans-Bold-27" d="M 1791 3756 
L 1791 909 
L 2222 909 
Q 2959 909 3348 1275 
Q 3738 1641 3738 2338 
Q 3738 3031 3350 3393 
Q 2963 3756 2222 3756 
L 1791 3756 
z
M 588 4666 
L 1856 4666 
Q 2919 4666 3439 4514 
Q 3959 4363 4331 4000 
Q 4659 3684 4818 3271 
Q 4978 2859 4978 2338 
Q 4978 1809 4818 1395 
Q 4659 981 4331 666 
Q 3956 303 3431 151 
Q 2906 0 1856 0 
L 588 0 
L 588 4666 
z
" transform="scale(0.015625)"/>
      <path id="DejaVuSans-Bold-46" d="M 3366 3391 
L 3366 2478 
Q 3138 2634 2908 2709 
Q 2678 2784 2431 2784 
Q 1963 2784 1702 2511 
Q 1441 2238 1441 1747 
Q 1441 1256 1702 982 
Q 1963 709 2431 709 
Q 2694 709 2930 787 
Q 3166 866 3366 1019 
L 3366 103 
Q 3103 6 2833 -42 
Q 2563 -91 2291 -91 
Q 1344 -91 809 395 
Q 275 881 275 1747 
Q 275 2613 809 3098 
Q 1344 3584 2291 3584 
Q 2566 3584 2833 3536 
Q 3100 3488 3366 3391 
z
" transform="scale(0.015625)"/>
      <path id="DejaVuSans-Bold-f" d="M 653 1209 
L 1778 1209 
L 1778 256 
L 1006 -909 
L 341 -909 
L 653 256 
L 653 1209 
z
" transform="scale(0.015625)"/>
      <path id="DejaVuSans-Bold-28" d="M 588 4666 
L 3834 4666 
L 3834 3756 
L 1791 3756 
L 1791 2888 
L 3713 2888 
L 3713 1978 
L 1791 1978 
L 1791 909 
L 3903 909 
L 3903 0 
L 588 0 
L 588 4666 
z
" transform="scale(0.015625)"/>
      <path id="DejaVuSans-Bold-35" d="M 2297 2597 
Q 2675 2597 2839 2737 
Q 3003 2878 3003 3200 
Q 3003 3519 2839 3656 
Q 2675 3794 2297 3794 
L 1791 3794 
L 1791 2597 
L 2297 2597 
z
M 1791 1766 
L 1791 0 
L 588 0 
L 588 4666 
L 2425 4666 
Q 3347 4666 3776 4356 
Q 4206 4047 4206 3378 
Q 4206 2916 3982 2619 
Q 3759 2322 3309 2181 
Q 3556 2125 3751 1926 
Q 3947 1728 4147 1325 
L 4800 0 
L 3519 0 
L 2950 1159 
Q 2778 1509 2601 1637 
Q 2425 1766 2131 1766 
L 1791 1766 
z
" transform="scale(0.015625)"/>
      <path id="DejaVuSans-Bold-10" d="M 347 2297 
L 2309 2297 
L 2309 1388 
L 347 1388 
L 347 2297 
z
" transform="scale(0.015625)"/>
      <path id="DejaVuSans-Bold-4b" d="M 4056 2131 
L 4056 0 
L 2931 0 
L 2931 347 
L 2931 1625 
Q 2931 2084 2911 2256 
Q 2891 2428 2841 2509 
Q 2775 2619 2662 2680 
Q 2550 2741 2406 2741 
Q 2056 2741 1856 2470 
Q 1656 2200 1656 1722 
L 1656 0 
L 538 0 
L 538 4863 
L 1656 4863 
L 1656 2988 
Q 1909 3294 2193 3439 
Q 2478 3584 2822 3584 
Q 3428 3584 3742 3212 
Q 4056 2841 4056 2131 
z
" transform="scale(0.015625)"/>
     </defs>
     <use xlink:href="#DejaVuSans-Bold-27"/>
     <use xlink:href="#DejaVuSans-Bold-48" transform="translate(83.015625 0)"/>
     <use xlink:href="#DejaVuSans-Bold-46" transform="translate(150.84375 0)"/>
     <use xlink:href="#DejaVuSans-Bold-48" transform="translate(210.125 0)"/>
     <use xlink:href="#DejaVuSans-Bold-51" transform="translate(277.953125 0)"/>
     <use xlink:href="#DejaVuSans-Bold-57" transform="translate(349.140625 0)"/>
     <use xlink:href="#DejaVuSans-Bold-55" transform="translate(396.9375 0)"/>
     <use xlink:href="#DejaVuSans-Bold-44" transform="translate(446.25 0)"/>
     <use xlink:href="#DejaVuSans-Bold-4f" transform="translate(513.734375 0)"/>
     <use xlink:href="#DejaVuSans-Bold-4c" transform="translate(548.015625 0)"/>
     <use xlink:href="#DejaVuSans-Bold-5d" transform="translate(582.296875 0)"/>
     <use xlink:href="#DejaVuSans-Bold-48" transform="translate(640.5 0)"/>
     <use xlink:href="#DejaVuSans-Bold-47" transform="translate(708.328125 0)"/>
     <use xlink:href="#DejaVuSans-Bold-f" transform="translate(779.90625 0)"/>
     <use xlink:href="#DejaVuSans-Bold-3" transform="translate(817.890625 0)"/>
     <use xlink:href="#DejaVuSans-Bold-27" transform="translate(852.703125 0)"/>
     <use xlink:href="#DejaVuSans-Bold-28" transform="translate(935.71875 0)"/>
     <use xlink:href="#DejaVuSans-Bold-35" transform="translate(1004.03125 0)"/>
     <use xlink:href="#DejaVuSans-Bold-10" transform="translate(1081.03125 0)"/>
     <use xlink:href="#DejaVuSans-Bold-55" transform="translate(1122.53125 0)"/>
     <use xlink:href="#DejaVuSans-Bold-4c" transform="translate(1171.84375 0)"/>
     <use xlink:href="#DejaVuSans-Bold-46" transform="translate(1206.125 0)"/>
     <use xlink:href="#DejaVuSans-Bold-4b" transform="translate(1265.40625 0)"/>
     <use xlink:href="#DejaVuSans-Bold-3" transform="translate(1336.59375 0)"/>
     <use xlink:href="#DejaVuSans-Bold-4a" transform="translate(1371.40625 0)"/>
     <use xlink:href="#DejaVuSans-Bold-55" transform="translate(1442.984375 0)"/>
     <use xlink:href="#DejaVuSans-Bold-4c" transform="translate(1492.296875 0)"/>
     <use xlink:href="#DejaVuSans-Bold-47" transform="translate(1526.578125 0)"/>
    </g>
   </g>
   <g id="text_25">
    <!--  -->
    <g style="fill: #ffffff" transform="translate(451.765705 304.134438) scale(0.12 -0.12)">
     <use xlink:href="#bootstrap-icons-4c8"/>
    </g>
   </g>
   <g id="text_26">
    <!--  -->
    <g style="fill: #ffffff" transform="translate(473.308389 316.74479) scale(0.12 -0.12)">
     <use xlink:href="#bootstrap-icons-4c8"/>
    </g>
   </g>
   <g id="text_27">
    <!--  -->
    <g style="fill: #ffffff" transform="translate(492.223917 300.98185) scale(0.12 -0.12)">
     <use xlink:href="#bootstrap-icons-4c8"/>
    </g>
   </g>
   <g id="patch_28">
    <path d="M 466.172606 295.769997 
C 467.635739 295.769997 469.039143 295.188688 470.073735 294.154097 
C 471.108326 293.119506 471.689635 291.716102 471.689635 290.252968 
C 471.689635 288.789835 471.108326 287.386431 470.073735 286.35184 
C 469.039143 285.317248 467.635739 284.735939 466.172606 284.735939 
C 464.709473 284.735939 463.306069 285.317248 462.271478 286.35184 
C 461.236886 287.386431 460.655577 288.789835 460.655577 290.252968 
C 460.655577 291.716102 461.236886 293.119506 462.271478 294.154097 
C 463.306069 295.188688 464.709473 295.769997 466.172606 295.769997 
z
" clip-path="url(#p28e06cd786)" style="fill: #ea580c; stroke: #ffffff; stroke-width: 0.8; stroke-linejoin: miter"/>
   </g>
   <g id="patch_29">
    <path d="M 489.291585 324.66872 
C 490.754718 324.66872 492.158122 324.087411 493.192713 323.05282 
C 494.227304 322.018229 494.808613 320.614825 494.808613 319.151691 
C 494.808613 317.688558 494.227304 316.285154 493.192713 315.250563 
C 492.158122 314.215971 490.754718 313.634662 489.291585 313.634662 
C 487.828451 313.634662 486.425047 314.215971 485.390456 315.250563 
C 484.355865 316.285154 483.774556 317.688558 483.774556 319.151691 
C 483.774556 320.614825 484.355865 322.018229 485.390456 323.05282 
C 486.425047 324.087411 487.828451 324.66872 489.291585 324.66872 
z
" clip-path="url(#p28e06cd786)" style="fill: #0369a1; stroke: #ffffff; stroke-width: 0.8; stroke-linejoin: miter"/>
   </g>
   <g id="patch_30">
    <path d="M 506.630818 292.617409 
C 508.093951 292.617409 509.497355 292.0361 510.531947 291.001509 
C 511.566538 289.966918 512.147847 288.563514 512.147847 287.10038 
C 512.147847 285.637247 511.566538 284.233843 510.531947 283.199252 
C 509.497355 282.16466 508.093951 281.583351 506.630818 281.583351 
C 505.167685 281.583351 503.764281 282.16466 502.72969 283.199252 
C 501.695098 284.233843 501.113789 285.637247 501.113789 287.10038 
C 501.113789 288.563514 501.695098 289.966918 502.72969 291.001509 
C 503.764281 292.0361 505.167685 292.617409 506.630818 292.617409 
z
" clip-path="url(#p28e06cd786)" style="fill: #1e293b; stroke: #ffffff; stroke-width: 0.8; stroke-linejoin: miter"/>
   </g>
   <g id="text_28">
    <!--  -->
    <g style="fill: #ffffff" transform="translate(461.672606 294.752968) scale(0.09 -0.09)">
     <defs>
      <path id="bootstrap-icons-73c" d="M 3200 1600 
Q 3627 1600 4000 1813 
Q 4373 2027 4586 2400 
Q 4800 2773 4800 3200 
Q 4800 3627 4586 4000 
Q 4373 4373 4000 4586 
Q 3627 4800 3200 4800 
Q 2773 4800 2400 4586 
Q 2027 4373 1813 4000 
Q 1600 3627 1600 3200 
Q 1600 2773 1813 2400 
Q 2027 2027 2400 1813 
Q 2773 1600 3200 1600 
z
M 3200 6400 
Q 3285 6400 3338 6346 
Q 3392 6293 3392 6208 
L 3392 5397 
Q 3392 5312 3338 5258 
Q 3285 5205 3200 5205 
Q 3115 5205 3061 5258 
Q 3008 5312 3008 5397 
L 3008 6208 
Q 3008 6293 3061 6346 
Q 3115 6400 3200 6400 
z
M 3200 1195 
Q 3285 1195 3338 1141 
Q 3392 1088 3392 1003 
L 3392 192 
Q 3392 107 3338 53 
Q 3285 0 3200 0 
Q 3115 0 3061 53 
Q 3008 107 3008 192 
L 3008 1003 
Q 3008 1088 3061 1141 
Q 3115 1195 3200 1195 
z
M 6400 3200 
Q 6400 3115 6346 3061 
Q 6293 3008 6208 3008 
L 5397 3008 
Q 5312 3008 5258 3061 
Q 5205 3115 5205 3200 
Q 5205 3285 5258 3338 
Q 5312 3392 5397 3392 
L 6208 3392 
Q 6293 3392 6346 3338 
Q 6400 3285 6400 3200 
z
M 1195 3200 
Q 1195 3115 1141 3061 
Q 1088 3008 1003 3008 
L 192 3008 
Q 107 3008 53 3061 
Q 0 3115 0 3200 
Q 0 3285 53 3338 
Q 107 3392 192 3392 
L 1003 3392 
Q 1088 3392 1141 3338 
Q 1195 3285 1195 3200 
z
M 5461 5461 
Q 5525 5397 5525 5322 
Q 5525 5248 5461 5184 
L 4907 4608 
Q 4843 4565 4757 4565 
Q 4672 4565 4618 4618 
Q 4565 4672 4565 4757 
Q 4565 4843 4608 4907 
L 5184 5461 
Q 5248 5525 5322 5525 
Q 5397 5525 5461 5461 
z
M 1792 1792 
Q 1835 1728 1835 1642 
Q 1835 1557 1792 1493 
L 1216 939 
Q 1152 875 1077 875 
Q 1003 875 939 939 
Q 875 1003 875 1077 
Q 875 1152 939 1216 
L 1493 1792 
Q 1557 1835 1642 1835 
Q 1728 1835 1792 1792 
z
M 5461 939 
Q 5397 875 5322 875 
Q 5248 875 5184 939 
L 4608 1493 
Q 4565 1557 4565 1642 
Q 4565 1728 4618 1781 
Q 4672 1835 4757 1835 
Q 4843 1835 4907 1792 
L 5461 1216 
Q 5525 1152 5525 1077 
Q 5525 1003 5461 939 
z
M 1792 4608 
Q 1728 4565 1642 4565 
Q 1557 4565 1493 4608 
L 939 5184 
Q 853 5269 885 5376 
Q 917 5483 1024 5515 
Q 1131 5547 1216 5461 
L 1792 4907 
Q 1835 4843 1835 4757 
Q 1835 4672 1792 4608 
z
" transform="scale(0.015625)"/>
     </defs>
     <use xlink:href="#bootstrap-icons-73c"/>
    </g>
   </g>
   <g id="text_29">
    <!--  -->
    <g style="fill: #ffffff" transform="translate(484.791585 323.651691) scale(0.09 -0.09)">
     <use xlink:href="#bootstrap-icons-70f"/>
    </g>
   </g>
   <g id="text_30">
    <!--  -->
    <g style="fill: #ffffff" transform="translate(502.130818 291.60038) scale(0.09 -0.09)">
     <defs>
      <path id="bootstrap-icons-353" d="M 1003 4992 
Q 1131 5269 1376 5440 
Q 1621 5611 1920 5611 
L 4480 5611 
Q 4779 5611 5024 5440 
Q 5269 5269 5397 4992 
L 5717 4245 
Q 5760 4139 5867 4096 
Q 6016 4011 6112 3883 
Q 6208 3755 6251 3584 
L 6379 2923 
Q 6400 2816 6400 2731 
L 6400 2560 
Q 6400 2325 6293 2112 
Q 6187 1899 5995 1749 
L 5995 1003 
Q 5995 917 5941 864 
Q 5888 811 5803 811 
L 4992 811 
Q 4928 811 4864 864 
Q 4800 917 4800 1003 
L 4800 1536 
Q 3861 1493 3200 1493 
Q 2539 1493 1600 1536 
L 1600 1003 
Q 1600 917 1546 853 
Q 1493 789 1408 811 
L 597 811 
Q 512 811 458 864 
Q 405 917 405 1003 
L 405 1749 
Q 213 1899 106 2112 
Q 0 2325 0 2560 
L 0 2731 
Q 0 2816 21 2923 
L 149 3584 
Q 192 3755 288 3883 
Q 384 4011 533 4096 
Q 640 4139 683 4245 
L 1003 4992 
z
M 3712 4800 
Q 3648 4821 3627 4779 
L 2411 3499 
Q 2389 3456 2410 3413 
Q 2432 3371 2475 3371 
L 2965 3371 
L 2709 2496 
Q 2688 2432 2741 2410 
Q 2795 2389 2837 2432 
L 3989 3691 
Q 4011 3733 3989 3776 
Q 3968 3819 3925 3819 
L 3435 3819 
L 3733 4693 
Q 3755 4757 3712 4800 
z
" transform="scale(0.015625)"/>
     </defs>
     <use xlink:href="#bootstrap-icons-353"/>
    </g>
   </g>
  </g>
 </g>
 <defs>
  <clipPath id="p5d1f233bf2">
   <rect x="175.267456" y="27.537305" width="60.950034" height="350.462695"/>
  </clipPath>
  <clipPath id="p28e06cd786">
   <rect x="447.78251" y="27.537305" width="60.950034" height="350.462695"/>
  </clipPath>
 </defs>
</svg>
