<?xml version="1.0" encoding="utf-8" standalone="no"?>
<!DOCTYPE svg PUBLIC "-//W3C//DTD SVG 1.1//EN"
  "http://www.w3.org/Graphics/SVG/1.1/DTD/svg11.dtd">
<svg xmlns:xlink="http://www.w3.org/1999/xlink" width="648pt" height="302.4pt" viewBox="0 0 648 302.4" xmlns="http://www.w3.org/2000/svg" version="1.1">
 <metadata>
  <rdf:RDF xmlns:dc="http://purl.org/dc/elements/1.1/" xmlns:cc="http://creativecommons.org/ns#" xmlns:rdf="http://www.w3.org/1999/02/22-rdf-syntax-ns#">
   <cc:Work>
    <dc:type rdf:resource="http://purl.org/dc/dcmitype/StillImage"/>
    <dc:date>2026-07-17T10:47:12.144654</dc:date>
    <dc:format>image/svg+xml</dc:format>
    <dc:creator>
     <cc:Agent>
      <dc:title>Matplotlib v3.11.0, https://matplotlib.org/</dc:title>
     </cc:Agent>
    </dc:creator>
   </cc:Work>
  </rdf:RDF>
 </metadata>
 <defs>
  <style type="text/css">*{stroke-linejoin: round; stroke-linecap: butt}</style>
 </defs>
 <g id="figure_1">
  <g id="patch_1">
   <path d="M 0 302.4 
L 648 302.4 
L 648 0 
L 0 0 
z
" style="fill: #ffffff"/>
  </g>
  <g id="axes_1">
   <g id="patch_2">
    <path d="M 54.73707 102.950195 
C 57.27485 102.950195 59.70903 101.941925 61.503511 100.147444 
C 63.297992 98.352963 64.306263 95.918782 64.306263 93.381002 
C 64.306263 90.843223 63.297992 88.409042 61.503511 86.614561 
C 59.70903 84.82008 57.27485 83.81181 54.73707 83.81181 
C 52.19929 83.81181 49.76511 84.82008 47.970629 86.614561 
C 46.176148 88.409042 45.167877 90.843223 45.167877 93.381002 
C 45.167877 95.918782 46.176148 98.352963 47.970629 100.147444 
C 49.76511 101.941925 52.19929 102.950195 54.73707 102.950195 
z
" clip-path="url(#p4956a51338)" style="fill: #059669; stroke: #ffffff; stroke-width: 1.2; stroke-linejoin: miter"/>
   </g>
   <g id="patch_3">
    <path d="M 92.330328 102.950195 
C 94.868108 102.950195 97.302288 101.941925 99.096769 100.147444 
C 100.891251 98.352963 101.899521 95.918782 101.899521 93.381002 
C 101.899521 90.843223 100.891251 88.409042 99.096769 86.614561 
C 97.302288 84.82008 94.868108 83.81181 92.330328 83.81181 
C 89.792549 83.81181 87.358368 84.82008 85.563887 86.614561 
C 83.769406 88.409042 82.761135 90.843223 82.761135 93.381002 
C 82.761135 95.918782 83.769406 98.352963 85.563887 100.147444 
C 87.358368 101.941925 89.792549 102.950195 92.330328 102.950195 
z
" clip-path="url(#p4956a51338)" style="fill: #059669; stroke: #ffffff; stroke-width: 1.2; stroke-linejoin: miter"/>
   </g>
   <g id="patch_4">
    <path d="M 129.923586 102.950195 
C 132.461366 102.950195 134.895546 101.941925 136.690028 100.147444 
C 138.484509 98.352963 139.492779 95.918782 139.492779 93.381002 
C 139.492779 90.843223 138.484509 88.409042 136.690028 86.614561 
C 134.895546 84.82008 132.461366 83.81181 129.923586 83.81181 
C 127.385807 83.81181 124.951626 84.82008 123.157145 86.614561 
C 121.362664 88.409042 120.354393 90.843223 120.354393 93.381002 
C 120.354393 95.918782 121.362664 98.352963 123.157145 100.147444 
C 124.951626 101.941925 127.385807 102.950195 129.923586 102.950195 
z
" clip-path="url(#p4956a51338)" style="fill: #059669; stroke: #ffffff; stroke-width: 1.2; stroke-linejoin: miter"/>
   </g>
   <g id="patch_5">
    <path d="M 54.73707 140.543454 
C 57.27485 140.543454 59.70903 139.535183 61.503511 137.740702 
C 63.297992 135.946221 64.306263 133.51204 64.306263 130.974261 
C 64.306263 128.436481 63.297992 126.002301 61.503511 124.207819 
C 59.70903 122.413338 57.27485 121.405068 54.73707 121.405068 
C 52.19929 121.405068 49.76511 122.413338 47.970629 124.207819 
C 46.176148 126.002301 45.167877 128.436481 45.167877 130.974261 
C 45.167877 133.51204 46.176148 135.946221 47.970629 137.740702 
C 49.76511 139.535183 52.19929 140.543454 54.73707 140.543454 
z
" clip-path="url(#p4956a51338)" style="fill: #059669; stroke: #ffffff; stroke-width: 1.2; stroke-linejoin: miter"/>
   </g>
   <g id="patch_6">
    <path d="M 92.330328 140.543454 
C 94.868108 140.543454 97.302288 139.535183 99.096769 137.740702 
C 100.891251 135.946221 101.899521 133.51204 101.899521 130.974261 
C 101.899521 128.436481 100.891251 126.002301 99.096769 124.207819 
C 97.302288 122.413338 94.868108 121.405068 92.330328 121.405068 
C 89.792549 121.405068 87.358368 122.413338 85.563887 124.207819 
C 83.769406 126.002301 82.761135 128.436481 82.761135 130.974261 
C 82.761135 133.51204 83.769406 135.946221 85.563887 137.740702 
C 87.358368 139.535183 89.792549 140.543454 92.330328 140.543454 
z
" clip-path="url(#p4956a51338)" style="fill: #059669; stroke: #ffffff; stroke-width: 1.2; stroke-linejoin: miter"/>
   </g>
   <g id="patch_7">
    <path d="M 129.923586 140.543454 
C 132.461366 140.543454 134.895546 139.535183 136.690028 137.740702 
C 138.484509 135.946221 139.492779 133.51204 139.492779 130.974261 
C 139.492779 128.436481 138.484509 126.002301 136.690028 124.207819 
C 134.895546 122.413338 132.461366 121.405068 129.923586 121.405068 
C 127.385807 121.405068 124.951626 122.413338 123.157145 124.207819 
C 121.362664 126.002301 120.354393 128.436481 120.354393 130.974261 
C 120.354393 133.51204 121.362664 135.946221 123.157145 137.740702 
C 124.951626 139.535183 127.385807 140.543454 129.923586 140.543454 
z
" clip-path="url(#p4956a51338)" style="fill: #059669; stroke: #ffffff; stroke-width: 1.2; stroke-linejoin: miter"/>
   </g>
   <g id="patch_8">
    <path d="M 218.780378 102.950195 
C 221.318158 102.950195 223.752338 101.941925 225.54682 100.147444 
C 227.341301 98.352963 228.349571 95.918782 228.349571 93.381002 
C 228.349571 90.843223 227.341301 88.409042 225.54682 86.614561 
C 223.752338 84.82008 221.318158 83.81181 218.780378 83.81181 
C 216.242599 83.81181 213.808418 84.82008 212.013937 86.614561 
C 210.219456 88.409042 209.211185 90.843223 209.211185 93.381002 
C 209.211185 95.918782 210.219456 98.352963 212.013937 100.147444 
C 213.808418 101.941925 216.242599 102.950195 218.780378 102.950195 
z
" clip-path="url(#p4956a51338)" style="fill: #ea580c; stroke: #ffffff; stroke-width: 1.2; stroke-linejoin: miter"/>
   </g>
   <g id="patch_9">
    <path d="M 256.373636 102.950195 
C 258.911416 102.950195 261.345597 101.941925 263.140078 100.147444 
C 264.934559 98.352963 265.942829 95.918782 265.942829 93.381002 
C 265.942829 90.843223 264.934559 88.409042 263.140078 86.614561 
C 261.345597 84.82008 258.911416 83.81181 256.373636 83.81181 
C 253.835857 83.81181 251.401676 84.82008 249.607195 86.614561 
C 247.812714 88.409042 246.804443 90.843223 246.804443 93.381002 
C 246.804443 95.918782 247.812714 98.352963 249.607195 100.147444 
C 251.401676 101.941925 253.835857 102.950195 256.373636 102.950195 
z
" clip-path="url(#p4956a51338)" style="fill: #ea580c; stroke: #ffffff; stroke-width: 1.2; stroke-linejoin: miter"/>
   </g>
   <g id="patch_10">
    <path d="M 293.966895 102.950195 
C 296.504674 102.950195 298.938855 101.941925 300.733336 100.147444 
C 302.527817 98.352963 303.536088 95.918782 303.536088 93.381002 
C 303.536088 90.843223 302.527817 88.409042 300.733336 86.614561 
C 298.938855 84.82008 296.504674 83.81181 293.966895 83.81181 
C 291.429115 83.81181 288.994935 84.82008 287.200453 86.614561 
C 285.405972 88.409042 284.397702 90.843223 284.397702 93.381002 
C 284.397702 95.918782 285.405972 98.352963 287.200453 100.147444 
C 288.994935 101.941925 291.429115 102.950195 293.966895 102.950195 
z
" clip-path="url(#p4956a51338)" style="fill: #ea580c; stroke: #ffffff; stroke-width: 1.2; stroke-linejoin: miter"/>
   </g>
   <g id="patch_11">
    <path d="M 218.780378 140.543454 
C 221.318158 140.543454 223.752338 139.535183 225.54682 137.740702 
C 227.341301 135.946221 228.349571 133.51204 228.349571 130.974261 
C 228.349571 128.436481 227.341301 126.002301 225.54682 124.207819 
C 223.752338 122.413338 221.318158 121.405068 218.780378 121.405068 
C 216.242599 121.405068 213.808418 122.413338 212.013937 124.207819 
C 210.219456 126.002301 209.211185 128.436481 209.211185 130.974261 
C 209.211185 133.51204 210.219456 135.946221 212.013937 137.740702 
C 213.808418 139.535183 216.242599 140.543454 218.780378 140.543454 
z
" clip-path="url(#p4956a51338)" style="fill: #ea580c; stroke: #ffffff; stroke-width: 1.2; stroke-linejoin: miter"/>
   </g>
   <g id="patch_12">
    <path d="M 256.373636 140.543454 
C 258.911416 140.543454 261.345597 139.535183 263.140078 137.740702 
C 264.934559 135.946221 265.942829 133.51204 265.942829 130.974261 
C 265.942829 128.436481 264.934559 126.002301 263.140078 124.207819 
C 261.345597 122.413338 258.911416 121.405068 256.373636 121.405068 
C 253.835857 121.405068 251.401676 122.413338 249.607195 124.207819 
C 247.812714 126.002301 246.804443 128.436481 246.804443 130.974261 
C 246.804443 133.51204 247.812714 135.946221 249.607195 137.740702 
C 251.401676 139.535183 253.835857 140.543454 256.373636 140.543454 
z
" clip-path="url(#p4956a51338)" style="fill: #ea580c; stroke: #ffffff; stroke-width: 1.2; stroke-linejoin: miter"/>
   </g>
   <g id="patch_13">
    <path d="M 293.966895 140.543454 
C 296.504674 140.543454 298.938855 139.535183 300.733336 137.740702 
C 302.527817 135.946221 303.536088 133.51204 303.536088 130.974261 
C 303.536088 128.436481 302.527817 126.002301 300.733336 124.207819 
C 298.938855 122.413338 296.504674 121.405068 293.966895 121.405068 
C 291.429115 121.405068 288.994935 122.413338 287.200453 124.207819 
C 285.405972 126.002301 284.397702 128.436481 284.397702 130.974261 
C 284.397702 133.51204 285.405972 135.946221 287.200453 137.740702 
C 288.994935 139.535183 291.429115 140.543454 293.966895 140.543454 
z
" clip-path="url(#p4956a51338)" style="fill: #ea580c; stroke: #ffffff; stroke-width: 1.2; stroke-linejoin: miter"/>
   </g>
   <g id="patch_14">
    <path d="M 136.758724 239.652952 
C 139.296504 239.652952 141.730684 238.644682 143.525165 236.850201 
C 145.319647 235.055719 146.327917 232.621539 146.327917 230.083759 
C 146.327917 227.54598 145.319647 225.111799 143.525165 223.317318 
C 141.730684 221.522837 139.296504 220.514566 136.758724 220.514566 
C 134.220945 220.514566 131.786764 221.522837 129.992283 223.317318 
C 128.197802 225.111799 127.189531 227.54598 127.189531 230.083759 
C 127.189531 232.621539 128.197802 235.055719 129.992283 236.850201 
C 131.786764 238.644682 134.220945 239.652952 136.758724 239.652952 
z
" clip-path="url(#p4956a51338)" style="fill: #0369a1; stroke: #ffffff; stroke-width: 1.2; stroke-linejoin: miter"/>
   </g>
   <g id="patch_15">
    <path d="M 174.351982 239.652952 
C 176.889762 239.652952 179.323942 238.644682 181.118424 236.850201 
C 182.912905 235.055719 183.921175 232.621539 183.921175 230.083759 
C 183.921175 227.54598 182.912905 225.111799 181.118424 223.317318 
C 179.323942 221.522837 176.889762 220.514566 174.351982 220.514566 
C 171.814203 220.514566 169.380022 221.522837 167.585541 223.317318 
C 165.79106 225.111799 164.782789 227.54598 164.782789 230.083759 
C 164.782789 232.621539 165.79106 235.055719 167.585541 236.850201 
C 169.380022 238.644682 171.814203 239.652952 174.351982 239.652952 
z
" clip-path="url(#p4956a51338)" style="fill: #0369a1; stroke: #ffffff; stroke-width: 1.2; stroke-linejoin: miter"/>
   </g>
   <g id="patch_16">
    <path d="M 211.94524 239.652952 
C 214.48302 239.652952 216.917201 238.644682 218.711682 236.850201 
C 220.506163 235.055719 221.514433 232.621539 221.514433 230.083759 
C 221.514433 227.54598 220.506163 225.111799 218.711682 223.317318 
C 216.917201 221.522837 214.48302 220.514566 211.94524 220.514566 
C 209.407461 220.514566 206.97328 221.522837 205.178799 223.317318 
C 203.384318 225.111799 202.376047 227.54598 202.376047 230.083759 
C 202.376047 232.621539 203.384318 235.055719 205.178799 236.850201 
C 206.97328 238.644682 209.407461 239.652952 211.94524 239.652952 
z
" clip-path="url(#p4956a51338)" style="fill: #0369a1; stroke: #ffffff; stroke-width: 1.2; stroke-linejoin: miter"/>
   </g>
   <g id="patch_17">
    <path d="M 136.758724 277.246211 
C 139.296504 277.246211 141.730684 276.23794 143.525165 274.443459 
C 145.319647 272.648978 146.327917 270.214797 146.327917 267.677018 
C 146.327917 265.139238 145.319647 262.705057 143.525165 260.910576 
C 141.730684 259.116095 139.296504 258.107825 136.758724 258.107825 
C 134.220945 258.107825 131.786764 259.116095 129.992283 260.910576 
C 128.197802 262.705057 127.189531 265.139238 127.189531 267.677018 
C 127.189531 270.214797 128.197802 272.648978 129.992283 274.443459 
C 131.786764 276.23794 134.220945 277.246211 136.758724 277.246211 
z
" clip-path="url(#p4956a51338)" style="fill: #0369a1; stroke: #ffffff; stroke-width: 1.2; stroke-linejoin: miter"/>
   </g>
   <g id="patch_18">
    <path d="M 174.351982 277.246211 
C 176.889762 277.246211 179.323942 276.23794 181.118424 274.443459 
C 182.912905 272.648978 183.921175 270.214797 183.921175 267.677018 
C 183.921175 265.139238 182.912905 262.705057 181.118424 260.910576 
C 179.323942 259.116095 176.889762 258.107825 174.351982 258.107825 
C 171.814203 258.107825 169.380022 259.116095 167.585541 260.910576 
C 165.79106 262.705057 164.782789 265.139238 164.782789 267.677018 
C 164.782789 270.214797 165.79106 272.648978 167.585541 274.443459 
C 169.380022 276.23794 171.814203 277.246211 174.351982 277.246211 
z
" clip-path="url(#p4956a51338)" style="fill: #0369a1; stroke: #ffffff; stroke-width: 1.2; stroke-linejoin: miter"/>
   </g>
   <g id="patch_19">
    <path d="M 211.94524 277.246211 
C 214.48302 277.246211 216.917201 276.23794 218.711682 274.443459 
C 220.506163 272.648978 221.514433 270.214797 221.514433 267.677018 
C 221.514433 265.139238 220.506163 262.705057 218.711682 260.910576 
C 216.917201 259.116095 214.48302 258.107825 211.94524 258.107825 
C 209.407461 258.107825 206.97328 259.116095 205.178799 260.910576 
C 203.384318 262.705057 202.376047 265.139238 202.376047 267.677018 
C 202.376047 270.214797 203.384318 272.648978 205.178799 274.443459 
C 206.97328 276.23794 209.407461 277.246211 211.94524 277.246211 
z
" clip-path="url(#p4956a51338)" style="fill: #0369a1; stroke: #ffffff; stroke-width: 1.2; stroke-linejoin: miter"/>
   </g>
   <g id="text_1">
    <!-- Ground truth -->
    <g style="fill: #1e293b" transform="translate(119.930838 12.194486) scale(0.12 -0.12)">
     <defs>
      <path id="DejaVuSans-Bold-2a" d="M 4781 347 
Q 4331 128 3847 18 
Q 3363 -91 2847 -91 
Q 1681 -91 1000 561 
Q 319 1213 319 2328 
Q 319 3456 1012 4103 
Q 1706 4750 2913 4750 
Q 3378 4750 3804 4662 
Q 4231 4575 4609 4403 
L 4609 3438 
Q 4219 3659 3833 3768 
Q 3447 3878 3059 3878 
Q 2341 3878 1952 3476 
Q 1563 3075 1563 2328 
Q 1563 1588 1938 1184 
Q 2313 781 3003 781 
Q 3191 781 3352 804 
Q 3513 828 3641 878 
L 3641 1784 
L 2906 1784 
L 2906 2591 
L 4781 2591 
L 4781 347 
z
" transform="scale(0.015625)"/>
      <path id="DejaVuSans-Bold-55" d="M 3138 2547 
Q 2991 2616 2845 2648 
Q 2700 2681 2553 2681 
Q 2122 2681 1889 2404 
Q 1656 2128 1656 1613 
L 1656 0 
L 538 0 
L 538 3500 
L 1656 3500 
L 1656 2925 
Q 1872 3269 2151 3426 
Q 2431 3584 2822 3584 
Q 2878 3584 2943 3579 
Q 3009 3575 3134 3559 
L 3138 2547 
z
" transform="scale(0.015625)"/>
      <path id="DejaVuSans-Bold-52" d="M 2203 2784 
Q 1831 2784 1636 2517 
Q 1441 2250 1441 1747 
Q 1441 1244 1636 976 
Q 1831 709 2203 709 
Q 2569 709 2762 976 
Q 2956 1244 2956 1747 
Q 2956 2250 2762 2517 
Q 2569 2784 2203 2784 
z
M 2203 3584 
Q 3106 3584 3614 3096 
Q 4122 2609 4122 1747 
Q 4122 884 3614 396 
Q 3106 -91 2203 -91 
Q 1297 -91 786 396 
Q 275 884 275 1747 
Q 275 2609 786 3096 
Q 1297 3584 2203 3584 
z
" transform="scale(0.015625)"/>
      <path id="DejaVuSans-Bold-58" d="M 500 1363 
L 500 3500 
L 1625 3500 
L 1625 3150 
Q 1625 2866 1622 2436 
Q 1619 2006 1619 1863 
Q 1619 1441 1641 1255 
Q 1663 1069 1716 984 
Q 1784 875 1895 815 
Q 2006 756 2150 756 
Q 2500 756 2700 1025 
Q 2900 1294 2900 1772 
L 2900 3500 
L 4019 3500 
L 4019 0 
L 2900 0 
L 2900 506 
Q 2647 200 2364 54 
Q 2081 -91 1741 -91 
Q 1134 -91 817 281 
Q 500 653 500 1363 
z
" transform="scale(0.015625)"/>
      <path id="DejaVuSans-Bold-51" d="M 4056 2131 
L 4056 0 
L 2931 0 
L 2931 347 
L 2931 1631 
Q 2931 2084 2911 2256 
Q 2891 2428 2841 2509 
Q 2775 2619 2662 2680 
Q 2550 2741 2406 2741 
Q 2056 2741 1856 2470 
Q 1656 2200 1656 1722 
L 1656 0 
L 538 0 
L 538 3500 
L 1656 3500 
L 1656 2988 
Q 1909 3294 2193 3439 
Q 2478 3584 2822 3584 
Q 3428 3584 3742 3212 
Q 4056 2841 4056 2131 
z
" transform="scale(0.015625)"/>
      <path id="DejaVuSans-Bold-47" d="M 2919 2988 
L 2919 4863 
L 4044 4863 
L 4044 0 
L 2919 0 
L 2919 506 
Q 2688 197 2409 53 
Q 2131 -91 1766 -91 
Q 1119 -91 703 423 
Q 288 938 288 1747 
Q 288 2556 703 3070 
Q 1119 3584 1766 3584 
Q 2128 3584 2408 3439 
Q 2688 3294 2919 2988 
z
M 2181 722 
Q 2541 722 2730 984 
Q 2919 1247 2919 1747 
Q 2919 2247 2730 2509 
Q 2541 2772 2181 2772 
Q 1825 2772 1636 2509 
Q 1447 2247 1447 1747 
Q 1447 1247 1636 984 
Q 1825 722 2181 722 
z
" transform="scale(0.015625)"/>
      <path id="DejaVuSans-Bold-3" transform="scale(0.015625)"/>
      <path id="DejaVuSans-Bold-57" d="M 1759 4494 
L 1759 3500 
L 2913 3500 
L 2913 2700 
L 1759 2700 
L 1759 1216 
Q 1759 972 1856 886 
Q 1953 800 2241 800 
L 2816 800 
L 2816 0 
L 1856 0 
Q 1194 0 917 276 
Q 641 553 641 1216 
L 641 2700 
L 84 2700 
L 84 3500 
L 641 3500 
L 641 4494 
L 1759 4494 
z
" transform="scale(0.015625)"/>
      <path id="DejaVuSans-Bold-4b" d="M 4056 2131 
L 4056 0 
L 2931 0 
L 2931 347 
L 2931 1625 
Q 2931 2084 2911 2256 
Q 2891 2428 2841 2509 
Q 2775 2619 2662 2680 
Q 2550 2741 2406 2741 
Q 2056 2741 1856 2470 
Q 1656 2200 1656 1722 
L 1656 0 
L 538 0 
L 538 4863 
L 1656 4863 
L 1656 2988 
Q 1909 3294 2193 3439 
Q 2478 3584 2822 3584 
Q 3428 3584 3742 3212 
Q 4056 2841 4056 2131 
z
" transform="scale(0.015625)"/>
     </defs>
     <use xlink:href="#DejaVuSans-Bold-2a"/>
     <use xlink:href="#DejaVuSans-Bold-55" transform="translate(82.078125 0)"/>
     <use xlink:href="#DejaVuSans-Bold-52" transform="translate(131.390625 0)"/>
     <use xlink:href="#DejaVuSans-Bold-58" transform="translate(200.09375 0)"/>
     <use xlink:href="#DejaVuSans-Bold-51" transform="translate(271.28125 0)"/>
     <use xlink:href="#DejaVuSans-Bold-47" transform="translate(342.46875 0)"/>
     <use xlink:href="#DejaVuSans-Bold-3" transform="translate(414.046875 0)"/>
     <use xlink:href="#DejaVuSans-Bold-57" transform="translate(448.859375 0)"/>
     <use xlink:href="#DejaVuSans-Bold-55" transform="translate(496.65625 0)"/>
     <use xlink:href="#DejaVuSans-Bold-58" transform="translate(545.96875 0)"/>
     <use xlink:href="#DejaVuSans-Bold-57" transform="translate(617.15625 0)"/>
     <use xlink:href="#DejaVuSans-Bold-4b" transform="translate(664.953125 0)"/>
    </g>
   </g>
  </g>
  <g id="axes_2">
   <g id="patch_20">
    <path d="M 358.858406 108.294263 
C 361.135111 108.294263 363.318874 107.389719 364.928748 105.779846 
C 366.538621 104.169972 367.443166 101.986209 367.443166 99.709504 
C 367.443166 97.432799 366.538621 95.249036 364.928748 93.639162 
C 363.318874 92.029289 361.135111 91.124744 358.858406 91.124744 
C 356.581701 91.124744 354.397938 92.029289 352.788065 93.639162 
C 351.178191 95.249036 350.273647 97.432799 350.273647 99.709504 
C 350.273647 101.986209 351.178191 104.169972 352.788065 105.779846 
C 354.397938 107.389719 356.581701 108.294263 358.858406 108.294263 
z
" clip-path="url(#p6f1af1afb9)" style="fill: #ea580c; stroke: #dc2626; stroke-width: 2.4; stroke-linejoin: miter"/>
   </g>
   <g id="patch_21">
    <path d="M 392.584247 108.294263 
C 394.860952 108.294263 397.044715 107.389719 398.654588 105.779846 
C 400.264462 104.169972 401.169006 101.986209 401.169006 99.709504 
C 401.169006 97.432799 400.264462 95.249036 398.654588 93.639162 
C 397.044715 92.029289 394.860952 91.124744 392.584247 91.124744 
C 390.307542 91.124744 388.123779 92.029289 386.513905 93.639162 
C 384.904032 95.249036 383.999487 97.432799 383.999487 99.709504 
C 383.999487 101.986209 384.904032 104.169972 386.513905 105.779846 
C 388.123779 107.389719 390.307542 108.294263 392.584247 108.294263 
z
" clip-path="url(#p6f1af1afb9)" style="fill: #059669; stroke: #ffffff; stroke-width: 1.2; stroke-linejoin: miter"/>
   </g>
   <g id="patch_22">
    <path d="M 426.310088 108.294263 
C 428.586792 108.294263 430.770556 107.389719 432.380429 105.779846 
C 433.990303 104.169972 434.894847 101.986209 434.894847 99.709504 
C 434.894847 97.432799 433.990303 95.249036 432.380429 93.639162 
C 430.770556 92.029289 428.586792 91.124744 426.310088 91.124744 
C 424.033383 91.124744 421.849619 92.029289 420.239746 93.639162 
C 418.629872 95.249036 417.725328 97.432799 417.725328 99.709504 
C 417.725328 101.986209 418.629872 104.169972 420.239746 105.779846 
C 421.849619 107.389719 424.033383 108.294263 426.310088 108.294263 
z
" clip-path="url(#p6f1af1afb9)" style="fill: #059669; stroke: #ffffff; stroke-width: 1.2; stroke-linejoin: miter"/>
   </g>
   <g id="patch_23">
    <path d="M 358.858406 142.020104 
C 361.135111 142.020104 363.318874 141.11556 364.928748 139.505686 
C 366.538621 137.895813 367.443166 135.712049 367.443166 133.435345 
C 367.443166 131.15864 366.538621 128.974876 364.928748 127.365003 
C 363.318874 125.755129 361.135111 124.850585 358.858406 124.850585 
C 356.581701 124.850585 354.397938 125.755129 352.788065 127.365003 
C 351.178191 128.974876 350.273647 131.15864 350.273647 133.435345 
C 350.273647 135.712049 351.178191 137.895813 352.788065 139.505686 
C 354.397938 141.11556 356.581701 142.020104 358.858406 142.020104 
z
" clip-path="url(#p6f1af1afb9)" style="fill: #059669; stroke: #ffffff; stroke-width: 1.2; stroke-linejoin: miter"/>
   </g>
   <g id="patch_24">
    <path d="M 392.584247 142.020104 
C 394.860952 142.020104 397.044715 141.11556 398.654588 139.505686 
C 400.264462 137.895813 401.169006 135.712049 401.169006 133.435345 
C 401.169006 131.15864 400.264462 128.974876 398.654588 127.365003 
C 397.044715 125.755129 394.860952 124.850585 392.584247 124.850585 
C 390.307542 124.850585 388.123779 125.755129 386.513905 127.365003 
C 384.904032 128.974876 383.999487 131.15864 383.999487 133.435345 
C 383.999487 135.712049 384.904032 137.895813 386.513905 139.505686 
C 388.123779 141.11556 390.307542 142.020104 392.584247 142.020104 
z
" clip-path="url(#p6f1af1afb9)" style="fill: #059669; stroke: #ffffff; stroke-width: 1.2; stroke-linejoin: miter"/>
   </g>
   <g id="patch_25">
    <path d="M 426.310088 142.020104 
C 428.586792 142.020104 430.770556 141.11556 432.380429 139.505686 
C 433.990303 137.895813 434.894847 135.712049 434.894847 133.435345 
C 434.894847 131.15864 433.990303 128.974876 432.380429 127.365003 
C 430.770556 125.755129 428.586792 124.850585 426.310088 124.850585 
C 424.033383 124.850585 421.849619 125.755129 420.239746 127.365003 
C 418.629872 128.974876 417.725328 131.15864 417.725328 133.435345 
C 417.725328 135.712049 418.629872 137.895813 420.239746 139.505686 
C 421.849619 141.11556 424.033383 142.020104 426.310088 142.020104 
z
" clip-path="url(#p6f1af1afb9)" style="fill: #059669; stroke: #ffffff; stroke-width: 1.2; stroke-linejoin: miter"/>
   </g>
   <g id="patch_26">
    <path d="M 506.025711 108.294263 
C 508.302416 108.294263 510.486179 107.389719 512.096052 105.779846 
C 513.705926 104.169972 514.61047 101.986209 514.61047 99.709504 
C 514.61047 97.432799 513.705926 95.249036 512.096052 93.639162 
C 510.486179 92.029289 508.302416 91.124744 506.025711 91.124744 
C 503.749006 91.124744 501.565243 92.029289 499.955369 93.639162 
C 498.345496 95.249036 497.440951 97.432799 497.440951 99.709504 
C 497.440951 101.986209 498.345496 104.169972 499.955369 105.779846 
C 501.565243 107.389719 503.749006 108.294263 506.025711 108.294263 
z
" clip-path="url(#p6f1af1afb9)" style="fill: #ea580c; stroke: #ffffff; stroke-width: 1.2; stroke-linejoin: miter"/>
   </g>
   <g id="patch_27">
    <path d="M 539.751551 108.294263 
C 542.028256 108.294263 544.21202 107.389719 545.821893 105.779846 
C 547.431766 104.169972 548.336311 101.986209 548.336311 99.709504 
C 548.336311 97.432799 547.431766 95.249036 545.821893 93.639162 
C 544.21202 92.029289 542.028256 91.124744 539.751551 91.124744 
C 537.474847 91.124744 535.291083 92.029289 533.68121 93.639162 
C 532.071336 95.249036 531.166792 97.432799 531.166792 99.709504 
C 531.166792 101.986209 532.071336 104.169972 533.68121 105.779846 
C 535.291083 107.389719 537.474847 108.294263 539.751551 108.294263 
z
" clip-path="url(#p6f1af1afb9)" style="fill: #ea580c; stroke: #ffffff; stroke-width: 1.2; stroke-linejoin: miter"/>
   </g>
   <g id="patch_28">
    <path d="M 573.477392 108.294263 
C 575.754097 108.294263 577.93786 107.389719 579.547734 105.779846 
C 581.157607 104.169972 582.062151 101.986209 582.062151 99.709504 
C 582.062151 97.432799 581.157607 95.249036 579.547734 93.639162 
C 577.93786 92.029289 575.754097 91.124744 573.477392 91.124744 
C 571.200687 91.124744 569.016924 92.029289 567.40705 93.639162 
C 565.797177 95.249036 564.892633 97.432799 564.892633 99.709504 
C 564.892633 101.986209 565.797177 104.169972 567.40705 105.779846 
C 569.016924 107.389719 571.200687 108.294263 573.477392 108.294263 
z
" clip-path="url(#p6f1af1afb9)" style="fill: #ea580c; stroke: #ffffff; stroke-width: 1.2; stroke-linejoin: miter"/>
   </g>
   <g id="patch_29">
    <path d="M 506.025711 142.020104 
C 508.302416 142.020104 510.486179 141.11556 512.096052 139.505686 
C 513.705926 137.895813 514.61047 135.712049 514.61047 133.435345 
C 514.61047 131.15864 513.705926 128.974876 512.096052 127.365003 
C 510.486179 125.755129 508.302416 124.850585 506.025711 124.850585 
C 503.749006 124.850585 501.565243 125.755129 499.955369 127.365003 
C 498.345496 128.974876 497.440951 131.15864 497.440951 133.435345 
C 497.440951 135.712049 498.345496 137.895813 499.955369 139.505686 
C 501.565243 141.11556 503.749006 142.020104 506.025711 142.020104 
z
" clip-path="url(#p6f1af1afb9)" style="fill: #ea580c; stroke: #ffffff; stroke-width: 1.2; stroke-linejoin: miter"/>
   </g>
   <g id="patch_30">
    <path d="M 539.751551 142.020104 
C 542.028256 142.020104 544.21202 141.11556 545.821893 139.505686 
C 547.431766 137.895813 548.336311 135.712049 548.336311 133.435345 
C 548.336311 131.15864 547.431766 128.974876 545.821893 127.365003 
C 544.21202 125.755129 542.028256 124.850585 539.751551 124.850585 
C 537.474847 124.850585 535.291083 125.755129 533.68121 127.365003 
C 532.071336 128.974876 531.166792 131.15864 531.166792 133.435345 
C 531.166792 135.712049 532.071336 137.895813 533.68121 139.505686 
C 535.291083 141.11556 537.474847 142.020104 539.751551 142.020104 
z
" clip-path="url(#p6f1af1afb9)" style="fill: #0369a1; stroke: #dc2626; stroke-width: 2.4; stroke-linejoin: miter"/>
   </g>
   <g id="patch_31">
    <path d="M 573.477392 142.020104 
C 575.754097 142.020104 577.93786 141.11556 579.547734 139.505686 
C 581.157607 137.895813 582.062151 135.712049 582.062151 133.435345 
C 582.062151 131.15864 581.157607 128.974876 579.547734 127.365003 
C 577.93786 125.755129 575.754097 124.850585 573.477392 124.850585 
C 571.200687 124.850585 569.016924 125.755129 567.40705 127.365003 
C 565.797177 128.974876 564.892633 131.15864 564.892633 133.435345 
C 564.892633 135.712049 565.797177 137.895813 567.40705 139.505686 
C 569.016924 141.11556 571.200687 142.020104 573.477392 142.020104 
z
" clip-path="url(#p6f1af1afb9)" style="fill: #ea580c; stroke: #ffffff; stroke-width: 1.2; stroke-linejoin: miter"/>
   </g>
   <g id="patch_32">
    <path d="M 432.442059 230.933684 
C 434.718763 230.933684 436.902527 230.029139 438.5124 228.419266 
C 440.122274 226.809393 441.026818 224.625629 441.026818 222.348924 
C 441.026818 220.07222 440.122274 217.888456 438.5124 216.278583 
C 436.902527 214.668709 434.718763 213.764165 432.442059 213.764165 
C 430.165354 213.764165 427.98159 214.668709 426.371717 216.278583 
C 424.761844 217.888456 423.857299 220.07222 423.857299 222.348924 
C 423.857299 224.625629 424.761844 226.809393 426.371717 228.419266 
C 427.98159 230.029139 430.165354 230.933684 432.442059 230.933684 
z
" clip-path="url(#p6f1af1afb9)" style="fill: #0369a1; stroke: #ffffff; stroke-width: 1.2; stroke-linejoin: miter"/>
   </g>
   <g id="patch_33">
    <path d="M 466.167899 230.933684 
C 468.444604 230.933684 470.628367 230.029139 472.238241 228.419266 
C 473.848114 226.809393 474.752659 224.625629 474.752659 222.348924 
C 474.752659 220.07222 473.848114 217.888456 472.238241 216.278583 
C 470.628367 214.668709 468.444604 213.764165 466.167899 213.764165 
C 463.891194 213.764165 461.707431 214.668709 460.097558 216.278583 
C 458.487684 217.888456 457.58314 220.07222 457.58314 222.348924 
C 457.58314 224.625629 458.487684 226.809393 460.097558 228.419266 
C 461.707431 230.029139 463.891194 230.933684 466.167899 230.933684 
z
" clip-path="url(#p6f1af1afb9)" style="fill: #059669; stroke: #dc2626; stroke-width: 2.4; stroke-linejoin: miter"/>
   </g>
   <g id="patch_34">
    <path d="M 499.89374 230.933684 
C 502.170445 230.933684 504.354208 230.029139 505.964081 228.419266 
C 507.573955 226.809393 508.478499 224.625629 508.478499 222.348924 
C 508.478499 220.07222 507.573955 217.888456 505.964081 216.278583 
C 504.354208 214.668709 502.170445 213.764165 499.89374 213.764165 
C 497.617035 213.764165 495.433272 214.668709 493.823398 216.278583 
C 492.213525 217.888456 491.30898 220.07222 491.30898 222.348924 
C 491.30898 224.625629 492.213525 226.809393 493.823398 228.419266 
C 495.433272 230.029139 497.617035 230.933684 499.89374 230.933684 
z
" clip-path="url(#p6f1af1afb9)" style="fill: #0369a1; stroke: #ffffff; stroke-width: 1.2; stroke-linejoin: miter"/>
   </g>
   <g id="patch_35">
    <path d="M 432.442059 264.659524 
C 434.718763 264.659524 436.902527 263.75498 438.5124 262.145107 
C 440.122274 260.535233 441.026818 258.35147 441.026818 256.074765 
C 441.026818 253.79806 440.122274 251.614297 438.5124 250.004423 
C 436.902527 248.39455 434.718763 247.490006 432.442059 247.490006 
C 430.165354 247.490006 427.98159 248.39455 426.371717 250.004423 
C 424.761844 251.614297 423.857299 253.79806 423.857299 256.074765 
C 423.857299 258.35147 424.761844 260.535233 426.371717 262.145107 
C 427.98159 263.75498 430.165354 264.659524 432.442059 264.659524 
z
" clip-path="url(#p6f1af1afb9)" style="fill: #0369a1; stroke: #ffffff; stroke-width: 1.2; stroke-linejoin: miter"/>
   </g>
   <g id="patch_36">
    <path d="M 466.167899 264.659524 
C 468.444604 264.659524 470.628367 263.75498 472.238241 262.145107 
C 473.848114 260.535233 474.752659 258.35147 474.752659 256.074765 
C 474.752659 253.79806 473.848114 251.614297 472.238241 250.004423 
C 470.628367 248.39455 468.444604 247.490006 466.167899 247.490006 
C 463.891194 247.490006 461.707431 248.39455 460.097558 250.004423 
C 458.487684 251.614297 457.58314 253.79806 457.58314 256.074765 
C 457.58314 258.35147 458.487684 260.535233 460.097558 262.145107 
C 461.707431 263.75498 463.891194 264.659524 466.167899 264.659524 
z
" clip-path="url(#p6f1af1afb9)" style="fill: #0369a1; stroke: #ffffff; stroke-width: 1.2; stroke-linejoin: miter"/>
   </g>
   <g id="patch_37">
    <path d="M 499.89374 264.659524 
C 502.170445 264.659524 504.354208 263.75498 505.964081 262.145107 
C 507.573955 260.535233 508.478499 258.35147 508.478499 256.074765 
C 508.478499 253.79806 507.573955 251.614297 505.964081 250.004423 
C 504.354208 248.39455 502.170445 247.490006 499.89374 247.490006 
C 497.617035 247.490006 495.433272 248.39455 493.823398 250.004423 
C 492.213525 251.614297 491.30898 253.79806 491.30898 256.074765 
C 491.30898 258.35147 492.213525 260.535233 493.823398 262.145107 
C 495.433272 263.75498 497.617035 264.659524 499.89374 264.659524 
z
" clip-path="url(#p6f1af1afb9)" style="fill: #0369a1; stroke: #ffffff; stroke-width: 1.2; stroke-linejoin: miter"/>
   </g>
   <g id="patch_38">
    <path d="M 563.154883 54.025431 
Q 461.983923 76.648932 360.812964 99.272432 
" style="fill: none; stroke: #dc2626; stroke-width: 0.8; stroke-linecap: round"/>
   </g>
   <g id="text_2">
    <!-- disagreement -->
    <g style="fill: #dc2626" transform="translate(564.279436 49.666188) scale(0.08 -0.08)">
     <defs>
      <path id="DejaVuSans-47" d="M 2906 2969 
L 2906 4863 
L 3481 4863 
L 3481 0 
L 2906 0 
L 2906 525 
Q 2725 213 2448 61 
Q 2172 -91 1784 -91 
Q 1150 -91 751 415 
Q 353 922 353 1747 
Q 353 2572 751 3078 
Q 1150 3584 1784 3584 
Q 2172 3584 2448 3432 
Q 2725 3281 2906 2969 
z
M 947 1747 
Q 947 1113 1208 752 
Q 1469 391 1925 391 
Q 2381 391 2643 752 
Q 2906 1113 2906 1747 
Q 2906 2381 2643 2742 
Q 2381 3103 1925 3103 
Q 1469 3103 1208 2742 
Q 947 2381 947 1747 
z
" transform="scale(0.015625)"/>
      <path id="DejaVuSans-4c" d="M 603 3500 
L 1178 3500 
L 1178 0 
L 603 0 
L 603 3500 
z
M 603 4863 
L 1178 4863 
L 1178 4134 
L 603 4134 
L 603 4863 
z
" transform="scale(0.015625)"/>
      <path id="DejaVuSans-56" d="M 2834 3397 
L 2834 2853 
Q 2591 2978 2328 3040 
Q 2066 3103 1784 3103 
Q 1356 3103 1142 2972 
Q 928 2841 928 2578 
Q 928 2378 1081 2264 
Q 1234 2150 1697 2047 
L 1894 2003 
Q 2506 1872 2764 1633 
Q 3022 1394 3022 966 
Q 3022 478 2636 193 
Q 2250 -91 1575 -91 
Q 1294 -91 989 -36 
Q 684 19 347 128 
L 347 722 
Q 666 556 975 473 
Q 1284 391 1588 391 
Q 1994 391 2212 530 
Q 2431 669 2431 922 
Q 2431 1156 2273 1281 
Q 2116 1406 1581 1522 
L 1381 1569 
Q 847 1681 609 1914 
Q 372 2147 372 2553 
Q 372 3047 722 3315 
Q 1072 3584 1716 3584 
Q 2034 3584 2315 3537 
Q 2597 3491 2834 3397 
z
" transform="scale(0.015625)"/>
      <path id="DejaVuSans-44" d="M 2194 1759 
Q 1497 1759 1228 1600 
Q 959 1441 959 1056 
Q 959 750 1161 570 
Q 1363 391 1709 391 
Q 2188 391 2477 730 
Q 2766 1069 2766 1631 
L 2766 1759 
L 2194 1759 
z
M 3341 1997 
L 3341 0 
L 2766 0 
L 2766 531 
Q 2569 213 2275 61 
Q 1981 -91 1556 -91 
Q 1019 -91 701 211 
Q 384 513 384 1019 
Q 384 1609 779 1909 
Q 1175 2209 1959 2209 
L 2766 2209 
L 2766 2266 
Q 2766 2663 2505 2880 
Q 2244 3097 1772 3097 
Q 1472 3097 1187 3025 
Q 903 2953 641 2809 
L 641 3341 
Q 956 3463 1253 3523 
Q 1550 3584 1831 3584 
Q 2591 3584 2966 3190 
Q 3341 2797 3341 1997 
z
" transform="scale(0.015625)"/>
      <path id="DejaVuSans-4a" d="M 2906 1791 
Q 2906 2416 2648 2759 
Q 2391 3103 1925 3103 
Q 1463 3103 1205 2759 
Q 947 2416 947 1791 
Q 947 1169 1205 825 
Q 1463 481 1925 481 
Q 2391 481 2648 825 
Q 2906 1169 2906 1791 
z
M 3481 434 
Q 3481 -459 3084 -895 
Q 2688 -1331 1869 -1331 
Q 1566 -1331 1297 -1286 
Q 1028 -1241 775 -1147 
L 775 -588 
Q 1028 -725 1275 -790 
Q 1522 -856 1778 -856 
Q 2344 -856 2625 -561 
Q 2906 -266 2906 331 
L 2906 616 
Q 2728 306 2450 153 
Q 2172 0 1784 0 
Q 1141 0 747 490 
Q 353 981 353 1791 
Q 353 2603 747 3093 
Q 1141 3584 1784 3584 
Q 2172 3584 2450 3431 
Q 2728 3278 2906 2969 
L 2906 3500 
L 3481 3500 
L 3481 434 
z
" transform="scale(0.015625)"/>
      <path id="DejaVuSans-55" d="M 2631 2963 
Q 2534 3019 2420 3045 
Q 2306 3072 2169 3072 
Q 1681 3072 1420 2755 
Q 1159 2438 1159 1844 
L 1159 0 
L 581 0 
L 581 3500 
L 1159 3500 
L 1159 2956 
Q 1341 3275 1631 3429 
Q 1922 3584 2338 3584 
Q 2397 3584 2469 3576 
Q 2541 3569 2628 3553 
L 2631 2963 
z
" transform="scale(0.015625)"/>
      <path id="DejaVuSans-48" d="M 3597 1894 
L 3597 1613 
L 953 1613 
Q 991 1019 1311 708 
Q 1631 397 2203 397 
Q 2534 397 2845 478 
Q 3156 559 3463 722 
L 3463 178 
Q 3153 47 2828 -22 
Q 2503 -91 2169 -91 
Q 1331 -91 842 396 
Q 353 884 353 1716 
Q 353 2575 817 3079 
Q 1281 3584 2069 3584 
Q 2775 3584 3186 3129 
Q 3597 2675 3597 1894 
z
M 3022 2063 
Q 3016 2534 2758 2815 
Q 2500 3097 2075 3097 
Q 1594 3097 1305 2825 
Q 1016 2553 972 2059 
L 3022 2063 
z
" transform="scale(0.015625)"/>
      <path id="DejaVuSans-50" d="M 3328 2828 
Q 3544 3216 3844 3400 
Q 4144 3584 4550 3584 
Q 5097 3584 5394 3201 
Q 5691 2819 5691 2113 
L 5691 0 
L 5113 0 
L 5113 2094 
Q 5113 2597 4934 2840 
Q 4756 3084 4391 3084 
Q 3944 3084 3684 2787 
Q 3425 2491 3425 1978 
L 3425 0 
L 2847 0 
L 2847 2094 
Q 2847 2600 2669 2842 
Q 2491 3084 2119 3084 
Q 1678 3084 1418 2786 
Q 1159 2488 1159 1978 
L 1159 0 
L 581 0 
L 581 3500 
L 1159 3500 
L 1159 2956 
Q 1356 3278 1631 3431 
Q 1906 3584 2284 3584 
Q 2666 3584 2933 3390 
Q 3200 3197 3328 2828 
z
" transform="scale(0.015625)"/>
      <path id="DejaVuSans-51" d="M 3513 2113 
L 3513 0 
L 2938 0 
L 2938 2094 
Q 2938 2591 2744 2837 
Q 2550 3084 2163 3084 
Q 1697 3084 1428 2787 
Q 1159 2491 1159 1978 
L 1159 0 
L 581 0 
L 581 3500 
L 1159 3500 
L 1159 2956 
Q 1366 3272 1645 3428 
Q 1925 3584 2291 3584 
Q 2894 3584 3203 3211 
Q 3513 2838 3513 2113 
z
" transform="scale(0.015625)"/>
      <path id="DejaVuSans-57" d="M 1172 4494 
L 1172 3500 
L 2356 3500 
L 2356 3053 
L 1172 3053 
L 1172 1153 
Q 1172 725 1289 603 
Q 1406 481 1766 481 
L 2356 481 
L 2356 0 
L 1766 0 
Q 1100 0 847 248 
Q 594 497 594 1153 
L 594 3053 
L 172 3053 
L 172 3500 
L 594 3500 
L 594 4494 
L 1172 4494 
z
" transform="scale(0.015625)"/>
     </defs>
     <use xlink:href="#DejaVuSans-47"/>
     <use xlink:href="#DejaVuSans-4c" transform="translate(63.484375 0)"/>
     <use xlink:href="#DejaVuSans-56" transform="translate(91.265625 0)"/>
     <use xlink:href="#DejaVuSans-44" transform="translate(143.359375 0)"/>
     <use xlink:href="#DejaVuSans-4a" transform="translate(204.640625 0)"/>
     <use xlink:href="#DejaVuSans-55" transform="translate(268.125 0)"/>
     <use xlink:href="#DejaVuSans-48" transform="translate(307.03125 0)"/>
     <use xlink:href="#DejaVuSans-48" transform="translate(368.5625 0)"/>
     <use xlink:href="#DejaVuSans-50" transform="translate(430.09375 0)"/>
     <use xlink:href="#DejaVuSans-48" transform="translate(527.5 0)"/>
     <use xlink:href="#DejaVuSans-51" transform="translate(589.03125 0)"/>
     <use xlink:href="#DejaVuSans-57" transform="translate(652.40625 0)"/>
    </g>
   </g>
   <g id="patch_39">
    <path d="M 585.977854 74.780092 
Q 563.484006 103.321901 540.990159 131.86371 
" style="fill: none; stroke: #dc2626; stroke-width: 0.8; stroke-linecap: round"/>
   </g>
   <g id="text_3">
    <!-- disagreement -->
    <g style="fill: #dc2626" transform="translate(564.279436 69.288495) scale(0.08 -0.08)">
     <use xlink:href="#DejaVuSans-47"/>
     <use xlink:href="#DejaVuSans-4c" transform="translate(63.484375 0)"/>
     <use xlink:href="#DejaVuSans-56" transform="translate(91.265625 0)"/>
     <use xlink:href="#DejaVuSans-44" transform="translate(143.359375 0)"/>
     <use xlink:href="#DejaVuSans-4a" transform="translate(204.640625 0)"/>
     <use xlink:href="#DejaVuSans-55" transform="translate(268.125 0)"/>
     <use xlink:href="#DejaVuSans-48" transform="translate(307.03125 0)"/>
     <use xlink:href="#DejaVuSans-48" transform="translate(368.5625 0)"/>
     <use xlink:href="#DejaVuSans-50" transform="translate(430.09375 0)"/>
     <use xlink:href="#DejaVuSans-48" transform="translate(527.5 0)"/>
     <use xlink:href="#DejaVuSans-51" transform="translate(589.03125 0)"/>
     <use xlink:href="#DejaVuSans-57" transform="translate(652.40625 0)"/>
    </g>
   </g>
   <g id="patch_40">
    <path d="M 585.017079 94.295534 
Q 526.273456 157.588525 467.529834 220.881516 
" style="fill: none; stroke: #dc2626; stroke-width: 0.8; stroke-linecap: round"/>
   </g>
   <g id="text_4">
    <!-- disagreement -->
    <g style="fill: #dc2626" transform="translate(564.279436 88.910802) scale(0.08 -0.08)">
     <use xlink:href="#DejaVuSans-47"/>
     <use xlink:href="#DejaVuSans-4c" transform="translate(63.484375 0)"/>
     <use xlink:href="#DejaVuSans-56" transform="translate(91.265625 0)"/>
     <use xlink:href="#DejaVuSans-44" transform="translate(143.359375 0)"/>
     <use xlink:href="#DejaVuSans-4a" transform="translate(204.640625 0)"/>
     <use xlink:href="#DejaVuSans-55" transform="translate(268.125 0)"/>
     <use xlink:href="#DejaVuSans-48" transform="translate(307.03125 0)"/>
     <use xlink:href="#DejaVuSans-48" transform="translate(368.5625 0)"/>
     <use xlink:href="#DejaVuSans-50" transform="translate(430.09375 0)"/>
     <use xlink:href="#DejaVuSans-48" transform="translate(527.5 0)"/>
     <use xlink:href="#DejaVuSans-51" transform="translate(589.03125 0)"/>
     <use xlink:href="#DejaVuSans-57" transform="translate(652.40625 0)"/>
    </g>
   </g>
   <g id="text_5">
    <!-- Discovered by clustering -->
    <g style="fill: #1e293b" transform="translate(397.547514 26.257823) scale(0.12 -0.12)">
     <defs>
      <path id="DejaVuSans-Bold-27" d="M 1791 3756 
L 1791 909 
L 2222 909 
Q 2959 909 3348 1275 
Q 3738 1641 3738 2338 
Q 3738 3031 3350 3393 
Q 2963 3756 2222 3756 
L 1791 3756 
z
M 588 4666 
L 1856 4666 
Q 2919 4666 3439 4514 
Q 3959 4363 4331 4000 
Q 4659 3684 4818 3271 
Q 4978 2859 4978 2338 
Q 4978 1809 4818 1395 
Q 4659 981 4331 666 
Q 3956 303 3431 151 
Q 2906 0 1856 0 
L 588 0 
L 588 4666 
z
" transform="scale(0.015625)"/>
      <path id="DejaVuSans-Bold-4c" d="M 538 3500 
L 1656 3500 
L 1656 0 
L 538 0 
L 538 3500 
z
M 538 4863 
L 1656 4863 
L 1656 3950 
L 538 3950 
L 538 4863 
z
" transform="scale(0.015625)"/>
      <path id="DejaVuSans-Bold-56" d="M 3272 3391 
L 3272 2541 
Q 2913 2691 2578 2766 
Q 2244 2841 1947 2841 
Q 1628 2841 1473 2761 
Q 1319 2681 1319 2516 
Q 1319 2381 1436 2309 
Q 1553 2238 1856 2203 
L 2053 2175 
Q 2913 2066 3209 1816 
Q 3506 1566 3506 1031 
Q 3506 472 3093 190 
Q 2681 -91 1863 -91 
Q 1516 -91 1145 -36 
Q 775 19 384 128 
L 384 978 
Q 719 816 1070 734 
Q 1422 653 1784 653 
Q 2113 653 2278 743 
Q 2444 834 2444 1013 
Q 2444 1163 2330 1236 
Q 2216 1309 1875 1350 
L 1678 1375 
Q 931 1469 631 1722 
Q 331 1975 331 2491 
Q 331 3047 712 3315 
Q 1094 3584 1881 3584 
Q 2191 3584 2531 3537 
Q 2872 3491 3272 3391 
z
" transform="scale(0.015625)"/>
      <path id="DejaVuSans-Bold-46" d="M 3366 3391 
L 3366 2478 
Q 3138 2634 2908 2709 
Q 2678 2784 2431 2784 
Q 1963 2784 1702 2511 
Q 1441 2238 1441 1747 
Q 1441 1256 1702 982 
Q 1963 709 2431 709 
Q 2694 709 2930 787 
Q 3166 866 3366 1019 
L 3366 103 
Q 3103 6 2833 -42 
Q 2563 -91 2291 -91 
Q 1344 -91 809 395 
Q 275 881 275 1747 
Q 275 2613 809 3098 
Q 1344 3584 2291 3584 
Q 2566 3584 2833 3536 
Q 3100 3488 3366 3391 
z
" transform="scale(0.015625)"/>
      <path id="DejaVuSans-Bold-59" d="M 97 3500 
L 1216 3500 
L 2088 1081 
L 2956 3500 
L 4078 3500 
L 2700 0 
L 1472 0 
L 97 3500 
z
" transform="scale(0.015625)"/>
      <path id="DejaVuSans-Bold-48" d="M 4031 1759 
L 4031 1441 
L 1416 1441 
Q 1456 1047 1700 850 
Q 1944 653 2381 653 
Q 2734 653 3104 758 
Q 3475 863 3866 1075 
L 3866 213 
Q 3469 63 3072 -14 
Q 2675 -91 2278 -91 
Q 1328 -91 801 392 
Q 275 875 275 1747 
Q 275 2603 792 3093 
Q 1309 3584 2216 3584 
Q 3041 3584 3536 3087 
Q 4031 2591 4031 1759 
z
M 2881 2131 
Q 2881 2450 2695 2645 
Q 2509 2841 2209 2841 
Q 1884 2841 1681 2658 
Q 1478 2475 1428 2131 
L 2881 2131 
z
" transform="scale(0.015625)"/>
      <path id="DejaVuSans-Bold-45" d="M 2400 722 
Q 2759 722 2948 984 
Q 3138 1247 3138 1747 
Q 3138 2247 2948 2509 
Q 2759 2772 2400 2772 
Q 2041 2772 1848 2508 
Q 1656 2244 1656 1747 
Q 1656 1250 1848 986 
Q 2041 722 2400 722 
z
M 1656 2988 
Q 1888 3294 2169 3439 
Q 2450 3584 2816 3584 
Q 3463 3584 3878 3070 
Q 4294 2556 4294 1747 
Q 4294 938 3878 423 
Q 3463 -91 2816 -91 
Q 2450 -91 2169 54 
Q 1888 200 1656 506 
L 1656 0 
L 538 0 
L 538 4863 
L 1656 4863 
L 1656 2988 
z
" transform="scale(0.015625)"/>
      <path id="DejaVuSans-Bold-5c" d="M 78 3500 
L 1197 3500 
L 2138 1125 
L 2938 3500 
L 4056 3500 
L 2584 -331 
Q 2363 -916 2067 -1148 
Q 1772 -1381 1288 -1381 
L 641 -1381 
L 641 -647 
L 991 -647 
Q 1275 -647 1404 -556 
Q 1534 -466 1606 -231 
L 1638 -134 
L 78 3500 
z
" transform="scale(0.015625)"/>
      <path id="DejaVuSans-Bold-4f" d="M 538 4863 
L 1656 4863 
L 1656 0 
L 538 0 
L 538 4863 
z
" transform="scale(0.015625)"/>
      <path id="DejaVuSans-Bold-4a" d="M 2919 594 
Q 2688 288 2409 144 
Q 2131 0 1766 0 
Q 1125 0 706 504 
Q 288 1009 288 1791 
Q 288 2575 706 3076 
Q 1125 3578 1766 3578 
Q 2131 3578 2409 3434 
Q 2688 3291 2919 2981 
L 2919 3500 
L 4044 3500 
L 4044 353 
Q 4044 -491 3511 -936 
Q 2978 -1381 1966 -1381 
Q 1638 -1381 1331 -1331 
Q 1025 -1281 716 -1178 
L 716 -306 
Q 1009 -475 1290 -558 
Q 1572 -641 1856 -641 
Q 2406 -641 2662 -400 
Q 2919 -159 2919 353 
L 2919 594 
z
M 2181 2772 
Q 1834 2772 1640 2515 
Q 1447 2259 1447 1791 
Q 1447 1309 1634 1061 
Q 1822 813 2181 813 
Q 2531 813 2725 1069 
Q 2919 1325 2919 1791 
Q 2919 2259 2725 2515 
Q 2531 2772 2181 2772 
z
" transform="scale(0.015625)"/>
     </defs>
     <use xlink:href="#DejaVuSans-Bold-27"/>
     <use xlink:href="#DejaVuSans-Bold-4c" transform="translate(83.015625 0)"/>
     <use xlink:href="#DejaVuSans-Bold-56" transform="translate(117.296875 0)"/>
     <use xlink:href="#DejaVuSans-Bold-46" transform="translate(176.8125 0)"/>
     <use xlink:href="#DejaVuSans-Bold-52" transform="translate(236.09375 0)"/>
     <use xlink:href="#DejaVuSans-Bold-59" transform="translate(304.796875 0)"/>
     <use xlink:href="#DejaVuSans-Bold-48" transform="translate(369.984375 0)"/>
     <use xlink:href="#DejaVuSans-Bold-55" transform="translate(437.8125 0)"/>
     <use xlink:href="#DejaVuSans-Bold-48" transform="translate(487.125 0)"/>
     <use xlink:href="#DejaVuSans-Bold-47" transform="translate(554.953125 0)"/>
     <use xlink:href="#DejaVuSans-Bold-3" transform="translate(626.53125 0)"/>
     <use xlink:href="#DejaVuSans-Bold-45" transform="translate(661.34375 0)"/>
     <use xlink:href="#DejaVuSans-Bold-5c" transform="translate(732.921875 0)"/>
     <use xlink:href="#DejaVuSans-Bold-3" transform="translate(798.109375 0)"/>
     <use xlink:href="#DejaVuSans-Bold-46" transform="translate(832.921875 0)"/>
     <use xlink:href="#DejaVuSans-Bold-4f" transform="translate(892.203125 0)"/>
     <use xlink:href="#DejaVuSans-Bold-58" transform="translate(926.484375 0)"/>
     <use xlink:href="#DejaVuSans-Bold-56" transform="translate(997.671875 0)"/>
     <use xlink:href="#DejaVuSans-Bold-57" transform="translate(1057.1875 0)"/>
     <use xlink:href="#DejaVuSans-Bold-48" transform="translate(1104.984375 0)"/>
     <use xlink:href="#DejaVuSans-Bold-55" transform="translate(1172.8125 0)"/>
     <use xlink:href="#DejaVuSans-Bold-4c" transform="translate(1222.125 0)"/>
     <use xlink:href="#DejaVuSans-Bold-51" transform="translate(1256.40625 0)"/>
     <use xlink:href="#DejaVuSans-Bold-4a" transform="translate(1327.59375 0)"/>
    </g>
   </g>
  </g>
 </g>
 <defs>
  <clipPath id="p4956a51338">
   <rect x="20.561381" y="18.194486" width="287.075789" height="273.405514"/>
  </clipPath>
  <clipPath id="p6f1af1afb9">
   <rect x="328.198551" y="32.257823" width="306.598551" height="245.278841"/>
  </clipPath>
 </defs>
</svg>
