<?xml version="1.0" encoding="utf-8" standalone="no"?>
<!DOCTYPE svg PUBLIC "-//W3C//DTD SVG 1.1//EN"
  "http://www.w3.org/Graphics/SVG/1.1/DTD/svg11.dtd">
<svg xmlns:xlink="http://www.w3.org/1999/xlink" width="726.48pt" height="337.838567pt" viewBox="0 0 726.48 337.838567" xmlns="http://www.w3.org/2000/svg" version="1.1">
 <metadata>
  <rdf:RDF xmlns:dc="http://purl.org/dc/elements/1.1/" xmlns:cc="http://creativecommons.org/ns#" xmlns:rdf="http://www.w3.org/1999/02/22-rdf-syntax-ns#">
   <cc:Work>
    <dc:type rdf:resource="http://purl.org/dc/dcmitype/StillImage"/>
    <dc:date>2026-07-16T19:14:22.767303</dc:date>
    <dc:format>image/svg+xml</dc:format>
    <dc:creator>
     <cc:Agent>
      <dc:title>Matplotlib v3.11.0, https://matplotlib.org/</dc:title>
     </cc:Agent>
    </dc:creator>
   </cc:Work>
  </rdf:RDF>
 </metadata>
 <defs>
  <style type="text/css">*{stroke-linejoin: round; stroke-linecap: butt}</style>
 </defs>
 <g id="figure_1">
  <g id="patch_1">
   <path d="M 0 337.838567 
L 726.48 337.838567 
L 726.48 0 
L 0 0 
z
" style="fill: #ffffff"/>
  </g>
  <g id="axes_1">
   <g id="patch_2">
    <path d="M 57.982345 114.20905 
L 155.919724 114.20905 
Q 159.547034 114.20905 159.547034 110.581739 
L 159.547034 79.14505 
Q 159.547034 75.517739 155.919724 75.517739 
L 57.982345 75.517739 
Q 54.355034 75.517739 54.355034 79.14505 
L 54.355034 110.581739 
Q 54.355034 114.20905 57.982345 114.20905 
z
" clip-path="url(#pc08fe0d1e0)" style="fill: #0369a1; stroke: #0369a1; stroke-width: 1.6; stroke-linejoin: miter"/>
   </g>
   <g id="patch_3">
    <path d="M 184.938207 114.20905 
L 294.966621 114.20905 
Q 298.593931 114.20905 298.593931 110.581739 
L 298.593931 79.14505 
Q 298.593931 75.517739 294.966621 75.517739 
L 184.938207 75.517739 
Q 181.310897 75.517739 181.310897 79.14505 
L 181.310897 110.581739 
Q 181.310897 114.20905 184.938207 114.20905 
z
" clip-path="url(#pc08fe0d1e0)" style="fill: #059669; stroke: #059669; stroke-width: 1.6; stroke-linejoin: miter"/>
   </g>
   <g id="patch_4">
    <path d="M 112.392 210.937325 
L 240.556966 210.937325 
Q 244.184276 210.937325 244.184276 207.310015 
L 244.184276 169.827808 
Q 244.184276 166.200498 240.556966 166.200498 
L 112.392 166.200498 
Q 108.76469 166.200498 108.76469 169.827808 
L 108.76469 207.310015 
Q 108.76469 210.937325 112.392 210.937325 
z
" clip-path="url(#pc08fe0d1e0)" style="fill: #1e293b; stroke: #1e293b; stroke-width: 1.6; stroke-linejoin: miter"/>
   </g>
   <g id="patch_5">
    <path d="M 108.232349 114.537524 
Q 129.621004 140.20391 149.936037 164.58195 
" clip-path="url(#pc08fe0d1e0)" style="fill: none; stroke: #0369a1; stroke-width: 1.5; stroke-linecap: round"/>
    <path d="M 148.604454 158.922719 
L 149.936037 164.58195 
L 144.609703 162.251678 
z
" clip-path="url(#pc08fe0d1e0)" style="fill: #0369a1; stroke: #0369a1; stroke-width: 1.5; stroke-linecap: round"/>
   </g>
   <g id="patch_6">
    <path d="M 238.779582 114.623867 
Q 220.303268 140.206455 202.808852 164.429493 
" clip-path="url(#pc08fe0d1e0)" style="fill: none; stroke: #059669; stroke-width: 1.5; stroke-linecap: round"/>
    <path d="M 207.961169 161.736236 
L 202.808852 164.429493 
L 203.745637 158.691685 
z
" clip-path="url(#pc08fe0d1e0)" style="fill: #059669; stroke: #059669; stroke-width: 1.5; stroke-linecap: round"/>
   </g>
   <g id="patch_7">
    <path d="M 176.474483 211.731833 
Q 176.474483 239.956902 176.474483 266.50492 
" clip-path="url(#pc08fe0d1e0)" style="fill: none; stroke: #1e293b; stroke-width: 1.5; stroke-linecap: round"/>
    <path d="M 179.074483 261.30492 
L 176.474483 266.50492 
L 173.874483 261.30492 
z
" clip-path="url(#pc08fe0d1e0)" style="fill: #1e293b; stroke: #1e293b; stroke-width: 1.5; stroke-linecap: round"/>
   </g>
   <g id="text_1">
    <!-- Lag features -->
    <g style="fill: #ffffff" transform="translate(77.401089 97.019773) scale(0.083 -0.083)">
     <defs>
      <path id="DejaVuSans-Bold-2f" d="M 588 4666 
L 1791 4666 
L 1791 909 
L 3903 909 
L 3903 0 
L 588 0 
L 588 4666 
z
" transform="scale(0.015625)"/>
      <path id="DejaVuSans-Bold-44" d="M 2106 1575 
Q 1756 1575 1579 1456 
Q 1403 1338 1403 1106 
Q 1403 894 1545 773 
Q 1688 653 1941 653 
Q 2256 653 2472 879 
Q 2688 1106 2688 1447 
L 2688 1575 
L 2106 1575 
z
M 3816 1997 
L 3816 0 
L 2688 0 
L 2688 519 
Q 2463 200 2181 54 
Q 1900 -91 1497 -91 
Q 953 -91 614 226 
Q 275 544 275 1050 
Q 275 1666 698 1953 
Q 1122 2241 2028 2241 
L 2688 2241 
L 2688 2328 
Q 2688 2594 2478 2717 
Q 2269 2841 1825 2841 
Q 1466 2841 1156 2769 
Q 847 2697 581 2553 
L 581 3406 
Q 941 3494 1303 3539 
Q 1666 3584 2028 3584 
Q 2975 3584 3395 3211 
Q 3816 2838 3816 1997 
z
" transform="scale(0.015625)"/>
      <path id="DejaVuSans-Bold-4a" d="M 2919 594 
Q 2688 288 2409 144 
Q 2131 0 1766 0 
Q 1125 0 706 504 
Q 288 1009 288 1791 
Q 288 2575 706 3076 
Q 1125 3578 1766 3578 
Q 2131 3578 2409 3434 
Q 2688 3291 2919 2981 
L 2919 3500 
L 4044 3500 
L 4044 353 
Q 4044 -491 3511 -936 
Q 2978 -1381 1966 -1381 
Q 1638 -1381 1331 -1331 
Q 1025 -1281 716 -1178 
L 716 -306 
Q 1009 -475 1290 -558 
Q 1572 -641 1856 -641 
Q 2406 -641 2662 -400 
Q 2919 -159 2919 353 
L 2919 594 
z
M 2181 2772 
Q 1834 2772 1640 2515 
Q 1447 2259 1447 1791 
Q 1447 1309 1634 1061 
Q 1822 813 2181 813 
Q 2531 813 2725 1069 
Q 2919 1325 2919 1791 
Q 2919 2259 2725 2515 
Q 2531 2772 2181 2772 
z
" transform="scale(0.015625)"/>
      <path id="DejaVuSans-Bold-3" transform="scale(0.015625)"/>
      <path id="DejaVuSans-Bold-49" d="M 2841 4863 
L 2841 4128 
L 2222 4128 
Q 1984 4128 1890 4042 
Q 1797 3956 1797 3744 
L 1797 3500 
L 2753 3500 
L 2753 2700 
L 1797 2700 
L 1797 0 
L 678 0 
L 678 2700 
L 122 2700 
L 122 3500 
L 678 3500 
L 678 3744 
Q 678 4316 997 4589 
Q 1316 4863 1984 4863 
L 2841 4863 
z
" transform="scale(0.015625)"/>
      <path id="DejaVuSans-Bold-48" d="M 4031 1759 
L 4031 1441 
L 1416 1441 
Q 1456 1047 1700 850 
Q 1944 653 2381 653 
Q 2734 653 3104 758 
Q 3475 863 3866 1075 
L 3866 213 
Q 3469 63 3072 -14 
Q 2675 -91 2278 -91 
Q 1328 -91 801 392 
Q 275 875 275 1747 
Q 275 2603 792 3093 
Q 1309 3584 2216 3584 
Q 3041 3584 3536 3087 
Q 4031 2591 4031 1759 
z
M 2881 2131 
Q 2881 2450 2695 2645 
Q 2509 2841 2209 2841 
Q 1884 2841 1681 2658 
Q 1478 2475 1428 2131 
L 2881 2131 
z
" transform="scale(0.015625)"/>
      <path id="DejaVuSans-Bold-57" d="M 1759 4494 
L 1759 3500 
L 2913 3500 
L 2913 2700 
L 1759 2700 
L 1759 1216 
Q 1759 972 1856 886 
Q 1953 800 2241 800 
L 2816 800 
L 2816 0 
L 1856 0 
Q 1194 0 917 276 
Q 641 553 641 1216 
L 641 2700 
L 84 2700 
L 84 3500 
L 641 3500 
L 641 4494 
L 1759 4494 
z
" transform="scale(0.015625)"/>
      <path id="DejaVuSans-Bold-58" d="M 500 1363 
L 500 3500 
L 1625 3500 
L 1625 3150 
Q 1625 2866 1622 2436 
Q 1619 2006 1619 1863 
Q 1619 1441 1641 1255 
Q 1663 1069 1716 984 
Q 1784 875 1895 815 
Q 2006 756 2150 756 
Q 2500 756 2700 1025 
Q 2900 1294 2900 1772 
L 2900 3500 
L 4019 3500 
L 4019 0 
L 2900 0 
L 2900 506 
Q 2647 200 2364 54 
Q 2081 -91 1741 -91 
Q 1134 -91 817 281 
Q 500 653 500 1363 
z
" transform="scale(0.015625)"/>
      <path id="DejaVuSans-Bold-55" d="M 3138 2547 
Q 2991 2616 2845 2648 
Q 2700 2681 2553 2681 
Q 2122 2681 1889 2404 
Q 1656 2128 1656 1613 
L 1656 0 
L 538 0 
L 538 3500 
L 1656 3500 
L 1656 2925 
Q 1872 3269 2151 3426 
Q 2431 3584 2822 3584 
Q 2878 3584 2943 3579 
Q 3009 3575 3134 3559 
L 3138 2547 
z
" transform="scale(0.015625)"/>
      <path id="DejaVuSans-Bold-56" d="M 3272 3391 
L 3272 2541 
Q 2913 2691 2578 2766 
Q 2244 2841 1947 2841 
Q 1628 2841 1473 2761 
Q 1319 2681 1319 2516 
Q 1319 2381 1436 2309 
Q 1553 2238 1856 2203 
L 2053 2175 
Q 2913 2066 3209 1816 
Q 3506 1566 3506 1031 
Q 3506 472 3093 190 
Q 2681 -91 1863 -91 
Q 1516 -91 1145 -36 
Q 775 19 384 128 
L 384 978 
Q 719 816 1070 734 
Q 1422 653 1784 653 
Q 2113 653 2278 743 
Q 2444 834 2444 1013 
Q 2444 1163 2330 1236 
Q 2216 1309 1875 1350 
L 1678 1375 
Q 931 1469 631 1722 
Q 331 1975 331 2491 
Q 331 3047 712 3315 
Q 1094 3584 1881 3584 
Q 2191 3584 2531 3537 
Q 2872 3491 3272 3391 
z
" transform="scale(0.015625)"/>
     </defs>
     <use xlink:href="#DejaVuSans-Bold-2f"/>
     <use xlink:href="#DejaVuSans-Bold-44" transform="translate(63.71875 0)"/>
     <use xlink:href="#DejaVuSans-Bold-4a" transform="translate(131.203125 0)"/>
     <use xlink:href="#DejaVuSans-Bold-3" transform="translate(202.78125 0)"/>
     <use xlink:href="#DejaVuSans-Bold-49" transform="translate(237.59375 0)"/>
     <use xlink:href="#DejaVuSans-Bold-48" transform="translate(281.09375 0)"/>
     <use xlink:href="#DejaVuSans-Bold-44" transform="translate(348.921875 0)"/>
     <use xlink:href="#DejaVuSans-Bold-57" transform="translate(416.40625 0)"/>
     <use xlink:href="#DejaVuSans-Bold-58" transform="translate(464.203125 0)"/>
     <use xlink:href="#DejaVuSans-Bold-55" transform="translate(535.390625 0)"/>
     <use xlink:href="#DejaVuSans-Bold-48" transform="translate(584.703125 0)"/>
     <use xlink:href="#DejaVuSans-Bold-56" transform="translate(652.53125 0)"/>
    </g>
   </g>
   <g id="text_2">
    <!-- Own archetype -->
    <g style="fill: #ffffff" transform="translate(204.640453 92.038639) scale(0.083 -0.083)">
     <defs>
      <path id="DejaVuSans-Bold-32" d="M 2719 3878 
Q 2169 3878 1866 3472 
Q 1563 3066 1563 2328 
Q 1563 1594 1866 1187 
Q 2169 781 2719 781 
Q 3272 781 3575 1187 
Q 3878 1594 3878 2328 
Q 3878 3066 3575 3472 
Q 3272 3878 2719 3878 
z
M 2719 4750 
Q 3844 4750 4481 4106 
Q 5119 3463 5119 2328 
Q 5119 1197 4481 553 
Q 3844 -91 2719 -91 
Q 1597 -91 958 553 
Q 319 1197 319 2328 
Q 319 3463 958 4106 
Q 1597 4750 2719 4750 
z
" transform="scale(0.015625)"/>
      <path id="DejaVuSans-Bold-5a" d="M 225 3500 
L 1313 3500 
L 1900 1088 
L 2491 3500 
L 3425 3500 
L 4013 1113 
L 4603 3500 
L 5691 3500 
L 4769 0 
L 3547 0 
L 2956 2406 
L 2369 0 
L 1147 0 
L 225 3500 
z
" transform="scale(0.015625)"/>
      <path id="DejaVuSans-Bold-51" d="M 4056 2131 
L 4056 0 
L 2931 0 
L 2931 347 
L 2931 1631 
Q 2931 2084 2911 2256 
Q 2891 2428 2841 2509 
Q 2775 2619 2662 2680 
Q 2550 2741 2406 2741 
Q 2056 2741 1856 2470 
Q 1656 2200 1656 1722 
L 1656 0 
L 538 0 
L 538 3500 
L 1656 3500 
L 1656 2988 
Q 1909 3294 2193 3439 
Q 2478 3584 2822 3584 
Q 3428 3584 3742 3212 
Q 4056 2841 4056 2131 
z
" transform="scale(0.015625)"/>
      <path id="DejaVuSans-Bold-46" d="M 3366 3391 
L 3366 2478 
Q 3138 2634 2908 2709 
Q 2678 2784 2431 2784 
Q 1963 2784 1702 2511 
Q 1441 2238 1441 1747 
Q 1441 1256 1702 982 
Q 1963 709 2431 709 
Q 2694 709 2930 787 
Q 3166 866 3366 1019 
L 3366 103 
Q 3103 6 2833 -42 
Q 2563 -91 2291 -91 
Q 1344 -91 809 395 
Q 275 881 275 1747 
Q 275 2613 809 3098 
Q 1344 3584 2291 3584 
Q 2566 3584 2833 3536 
Q 3100 3488 3366 3391 
z
" transform="scale(0.015625)"/>
      <path id="DejaVuSans-Bold-4b" d="M 4056 2131 
L 4056 0 
L 2931 0 
L 2931 347 
L 2931 1625 
Q 2931 2084 2911 2256 
Q 2891 2428 2841 2509 
Q 2775 2619 2662 2680 
Q 2550 2741 2406 2741 
Q 2056 2741 1856 2470 
Q 1656 2200 1656 1722 
L 1656 0 
L 538 0 
L 538 4863 
L 1656 4863 
L 1656 2988 
Q 1909 3294 2193 3439 
Q 2478 3584 2822 3584 
Q 3428 3584 3742 3212 
Q 4056 2841 4056 2131 
z
" transform="scale(0.015625)"/>
      <path id="DejaVuSans-Bold-5c" d="M 78 3500 
L 1197 3500 
L 2138 1125 
L 2938 3500 
L 4056 3500 
L 2584 -331 
Q 2363 -916 2067 -1148 
Q 1772 -1381 1288 -1381 
L 641 -1381 
L 641 -647 
L 991 -647 
Q 1275 -647 1404 -556 
Q 1534 -466 1606 -231 
L 1638 -134 
L 78 3500 
z
" transform="scale(0.015625)"/>
      <path id="DejaVuSans-Bold-53" d="M 1656 506 
L 1656 -1331 
L 538 -1331 
L 538 3500 
L 1656 3500 
L 1656 2988 
Q 1888 3294 2169 3439 
Q 2450 3584 2816 3584 
Q 3463 3584 3878 3070 
Q 4294 2556 4294 1747 
Q 4294 938 3878 423 
Q 3463 -91 2816 -91 
Q 2450 -91 2169 54 
Q 1888 200 1656 506 
z
M 2400 2772 
Q 2041 2772 1848 2508 
Q 1656 2244 1656 1747 
Q 1656 1250 1848 986 
Q 2041 722 2400 722 
Q 2759 722 2948 984 
Q 3138 1247 3138 1747 
Q 3138 2247 2948 2509 
Q 2759 2772 2400 2772 
z
" transform="scale(0.015625)"/>
     </defs>
     <use xlink:href="#DejaVuSans-Bold-32"/>
     <use xlink:href="#DejaVuSans-Bold-5a" transform="translate(85.015625 0)"/>
     <use xlink:href="#DejaVuSans-Bold-51" transform="translate(177.40625 0)"/>
     <use xlink:href="#DejaVuSans-Bold-3" transform="translate(248.59375 0)"/>
     <use xlink:href="#DejaVuSans-Bold-44" transform="translate(283.40625 0)"/>
     <use xlink:href="#DejaVuSans-Bold-55" transform="translate(350.890625 0)"/>
     <use xlink:href="#DejaVuSans-Bold-46" transform="translate(400.203125 0)"/>
     <use xlink:href="#DejaVuSans-Bold-4b" transform="translate(459.484375 0)"/>
     <use xlink:href="#DejaVuSans-Bold-48" transform="translate(530.671875 0)"/>
     <use xlink:href="#DejaVuSans-Bold-57" transform="translate(598.5 0)"/>
     <use xlink:href="#DejaVuSans-Bold-5c" transform="translate(646.296875 0)"/>
     <use xlink:href="#DejaVuSans-Bold-53" transform="translate(711.484375 0)"/>
     <use xlink:href="#DejaVuSans-Bold-48" transform="translate(783.0625 0)"/>
    </g>
    <!-- distance -->
    <g style="fill: #ffffff" transform="translate(220.075859 102.000908) scale(0.083 -0.083)">
     <defs>
      <path id="DejaVuSans-Bold-47" d="M 2919 2988 
L 2919 4863 
L 4044 4863 
L 4044 0 
L 2919 0 
L 2919 506 
Q 2688 197 2409 53 
Q 2131 -91 1766 -91 
Q 1119 -91 703 423 
Q 288 938 288 1747 
Q 288 2556 703 3070 
Q 1119 3584 1766 3584 
Q 2128 3584 2408 3439 
Q 2688 3294 2919 2988 
z
M 2181 722 
Q 2541 722 2730 984 
Q 2919 1247 2919 1747 
Q 2919 2247 2730 2509 
Q 2541 2772 2181 2772 
Q 1825 2772 1636 2509 
Q 1447 2247 1447 1747 
Q 1447 1247 1636 984 
Q 1825 722 2181 722 
z
" transform="scale(0.015625)"/>
      <path id="DejaVuSans-Bold-4c" d="M 538 3500 
L 1656 3500 
L 1656 0 
L 538 0 
L 538 3500 
z
M 538 4863 
L 1656 4863 
L 1656 3950 
L 538 3950 
L 538 4863 
z
" transform="scale(0.015625)"/>
     </defs>
     <use xlink:href="#DejaVuSans-Bold-47"/>
     <use xlink:href="#DejaVuSans-Bold-4c" transform="translate(71.578125 0)"/>
     <use xlink:href="#DejaVuSans-Bold-56" transform="translate(105.859375 0)"/>
     <use xlink:href="#DejaVuSans-Bold-57" transform="translate(165.375 0)"/>
     <use xlink:href="#DejaVuSans-Bold-44" transform="translate(213.171875 0)"/>
     <use xlink:href="#DejaVuSans-Bold-51" transform="translate(280.65625 0)"/>
     <use xlink:href="#DejaVuSans-Bold-46" transform="translate(351.84375 0)"/>
     <use xlink:href="#DejaVuSans-Bold-48" transform="translate(411.125 0)"/>
    </g>
   </g>
   <g id="text_3">
    <!-- One shared model -->
    <g style="fill: #ffffff" transform="translate(133.847498 190.725291) scale(0.083 -0.083)">
     <defs>
      <path id="DejaVuSans-Bold-50" d="M 3781 2919 
Q 3994 3244 4286 3414 
Q 4578 3584 4928 3584 
Q 5531 3584 5847 3212 
Q 6163 2841 6163 2131 
L 6163 0 
L 5038 0 
L 5038 1825 
Q 5041 1866 5042 1909 
Q 5044 1953 5044 2034 
Q 5044 2406 4934 2573 
Q 4825 2741 4581 2741 
Q 4263 2741 4089 2478 
Q 3916 2216 3909 1719 
L 3909 0 
L 2784 0 
L 2784 1825 
Q 2784 2406 2684 2573 
Q 2584 2741 2328 2741 
Q 2006 2741 1831 2477 
Q 1656 2213 1656 1722 
L 1656 0 
L 531 0 
L 531 3500 
L 1656 3500 
L 1656 2988 
Q 1863 3284 2130 3434 
Q 2397 3584 2719 3584 
Q 3081 3584 3359 3409 
Q 3638 3234 3781 2919 
z
" transform="scale(0.015625)"/>
      <path id="DejaVuSans-Bold-52" d="M 2203 2784 
Q 1831 2784 1636 2517 
Q 1441 2250 1441 1747 
Q 1441 1244 1636 976 
Q 1831 709 2203 709 
Q 2569 709 2762 976 
Q 2956 1244 2956 1747 
Q 2956 2250 2762 2517 
Q 2569 2784 2203 2784 
z
M 2203 3584 
Q 3106 3584 3614 3096 
Q 4122 2609 4122 1747 
Q 4122 884 3614 396 
Q 3106 -91 2203 -91 
Q 1297 -91 786 396 
Q 275 884 275 1747 
Q 275 2609 786 3096 
Q 1297 3584 2203 3584 
z
" transform="scale(0.015625)"/>
      <path id="DejaVuSans-Bold-4f" d="M 538 4863 
L 1656 4863 
L 1656 0 
L 538 0 
L 538 4863 
z
" transform="scale(0.015625)"/>
     </defs>
     <use xlink:href="#DejaVuSans-Bold-32"/>
     <use xlink:href="#DejaVuSans-Bold-51" transform="translate(85.015625 0)"/>
     <use xlink:href="#DejaVuSans-Bold-48" transform="translate(156.203125 0)"/>
     <use xlink:href="#DejaVuSans-Bold-3" transform="translate(224.03125 0)"/>
     <use xlink:href="#DejaVuSans-Bold-56" transform="translate(258.84375 0)"/>
     <use xlink:href="#DejaVuSans-Bold-4b" transform="translate(318.359375 0)"/>
     <use xlink:href="#DejaVuSans-Bold-44" transform="translate(389.546875 0)"/>
     <use xlink:href="#DejaVuSans-Bold-55" transform="translate(457.03125 0)"/>
     <use xlink:href="#DejaVuSans-Bold-48" transform="translate(506.34375 0)"/>
     <use xlink:href="#DejaVuSans-Bold-47" transform="translate(574.171875 0)"/>
     <use xlink:href="#DejaVuSans-Bold-3" transform="translate(645.75 0)"/>
     <use xlink:href="#DejaVuSans-Bold-50" transform="translate(680.5625 0)"/>
     <use xlink:href="#DejaVuSans-Bold-52" transform="translate(784.765625 0)"/>
     <use xlink:href="#DejaVuSans-Bold-47" transform="translate(853.46875 0)"/>
     <use xlink:href="#DejaVuSans-Bold-48" transform="translate(925.046875 0)"/>
     <use xlink:href="#DejaVuSans-Bold-4f" transform="translate(992.875 0)"/>
    </g>
   </g>
   <g id="text_4">
    <!-- Personalized forecast -->
    <g style="fill: #059669" transform="translate(118.4421 299.856367) scale(0.095 -0.095)">
     <defs>
      <path id="DejaVuSans-Bold-33" d="M 588 4666 
L 2584 4666 
Q 3475 4666 3951 4270 
Q 4428 3875 4428 3144 
Q 4428 2409 3951 2014 
Q 3475 1619 2584 1619 
L 1791 1619 
L 1791 0 
L 588 0 
L 588 4666 
z
M 1791 3794 
L 1791 2491 
L 2456 2491 
Q 2806 2491 2997 2661 
Q 3188 2831 3188 3144 
Q 3188 3456 2997 3625 
Q 2806 3794 2456 3794 
L 1791 3794 
z
" transform="scale(0.015625)"/>
      <path id="DejaVuSans-Bold-5d" d="M 366 3500 
L 3419 3500 
L 3419 2719 
L 1575 800 
L 3419 800 
L 3419 0 
L 288 0 
L 288 781 
L 2131 2700 
L 366 2700 
L 366 3500 
z
" transform="scale(0.015625)"/>
     </defs>
     <use xlink:href="#DejaVuSans-Bold-33"/>
     <use xlink:href="#DejaVuSans-Bold-48" transform="translate(73.296875 0)"/>
     <use xlink:href="#DejaVuSans-Bold-55" transform="translate(141.125 0)"/>
     <use xlink:href="#DejaVuSans-Bold-56" transform="translate(190.4375 0)"/>
     <use xlink:href="#DejaVuSans-Bold-52" transform="translate(249.953125 0)"/>
     <use xlink:href="#DejaVuSans-Bold-51" transform="translate(318.65625 0)"/>
     <use xlink:href="#DejaVuSans-Bold-44" transform="translate(389.84375 0)"/>
     <use xlink:href="#DejaVuSans-Bold-4f" transform="translate(457.328125 0)"/>
     <use xlink:href="#DejaVuSans-Bold-4c" transform="translate(491.609375 0)"/>
     <use xlink:href="#DejaVuSans-Bold-5d" transform="translate(525.890625 0)"/>
     <use xlink:href="#DejaVuSans-Bold-48" transform="translate(584.09375 0)"/>
     <use xlink:href="#DejaVuSans-Bold-47" transform="translate(651.921875 0)"/>
     <use xlink:href="#DejaVuSans-Bold-3" transform="translate(723.5 0)"/>
     <use xlink:href="#DejaVuSans-Bold-49" transform="translate(758.3125 0)"/>
     <use xlink:href="#DejaVuSans-Bold-52" transform="translate(801.8125 0)"/>
     <use xlink:href="#DejaVuSans-Bold-55" transform="translate(870.515625 0)"/>
     <use xlink:href="#DejaVuSans-Bold-48" transform="translate(919.828125 0)"/>
     <use xlink:href="#DejaVuSans-Bold-46" transform="translate(987.65625 0)"/>
     <use xlink:href="#DejaVuSans-Bold-44" transform="translate(1046.9375 0)"/>
     <use xlink:href="#DejaVuSans-Bold-56" transform="translate(1114.421875 0)"/>
     <use xlink:href="#DejaVuSans-Bold-57" transform="translate(1173.9375 0)"/>
    </g>
   </g>
   <g id="text_5">
    <!-- A static distance signature -->
    <g style="fill: #6b7280" transform="translate(121.728592 45.957326) scale(0.082 -0.082)">
     <defs>
      <path id="DejaVuSans-Oblique-24" d="M 2356 4666 
L 3072 4666 
L 3938 0 
L 3278 0 
L 3084 1197 
L 984 1197 
L 325 0 
L -341 0 
L 2356 4666 
z
M 2584 4044 
L 1275 1722 
L 2988 1722 
L 2584 4044 
z
" transform="scale(0.015625)"/>
      <path id="DejaVuSans-Oblique-3" transform="scale(0.015625)"/>
      <path id="DejaVuSans-Oblique-56" d="M 3200 3397 
L 3091 2853 
Q 2863 2978 2609 3040 
Q 2356 3103 2088 3103 
Q 1634 3103 1373 2948 
Q 1113 2794 1113 2528 
Q 1113 2219 1719 2053 
Q 1766 2041 1788 2034 
L 1972 1978 
Q 2547 1819 2739 1644 
Q 2931 1469 2931 1166 
Q 2931 609 2489 259 
Q 2047 -91 1331 -91 
Q 1053 -91 747 -37 
Q 441 16 72 128 
L 184 722 
Q 500 559 806 475 
Q 1113 391 1394 391 
Q 1816 391 2080 572 
Q 2344 753 2344 1031 
Q 2344 1331 1650 1516 
L 1591 1531 
L 1394 1581 
Q 956 1697 753 1886 
Q 550 2075 550 2369 
Q 550 2928 970 3256 
Q 1391 3584 2113 3584 
Q 2397 3584 2667 3537 
Q 2938 3491 3200 3397 
z
" transform="scale(0.015625)"/>
      <path id="DejaVuSans-Oblique-57" d="M 2706 3500 
L 2619 3053 
L 1472 3053 
L 1100 1153 
Q 1081 1047 1072 975 
Q 1063 903 1063 863 
Q 1063 663 1183 572 
Q 1303 481 1569 481 
L 2150 481 
L 2053 0 
L 1503 0 
Q 991 0 739 200 
Q 488 400 488 806 
Q 488 878 497 964 
Q 506 1050 525 1153 
L 897 3053 
L 409 3053 
L 500 3500 
L 978 3500 
L 1172 4494 
L 1747 4494 
L 1556 3500 
L 2706 3500 
z
" transform="scale(0.015625)"/>
      <path id="DejaVuSans-Oblique-44" d="M 3438 1997 
L 3047 0 
L 2472 0 
L 2578 531 
Q 2325 219 2001 64 
Q 1678 -91 1281 -91 
Q 834 -91 548 182 
Q 263 456 263 884 
Q 263 1497 752 1853 
Q 1241 2209 2100 2209 
L 2900 2209 
L 2931 2363 
Q 2938 2388 2941 2417 
Q 2944 2447 2944 2509 
Q 2944 2788 2717 2942 
Q 2491 3097 2081 3097 
Q 1800 3097 1504 3025 
Q 1209 2953 897 2809 
L 997 3341 
Q 1322 3463 1633 3523 
Q 1944 3584 2234 3584 
Q 2853 3584 3176 3315 
Q 3500 3047 3500 2534 
Q 3500 2431 3484 2292 
Q 3469 2153 3438 1997 
z
M 2816 1759 
L 2241 1759 
Q 1534 1759 1195 1570 
Q 856 1381 856 984 
Q 856 709 1029 553 
Q 1203 397 1509 397 
Q 1978 397 2328 733 
Q 2678 1069 2791 1631 
L 2816 1759 
z
" transform="scale(0.015625)"/>
      <path id="DejaVuSans-Oblique-4c" d="M 1172 4863 
L 1747 4863 
L 1606 4134 
L 1031 4134 
L 1172 4863 
z
M 909 3500 
L 1484 3500 
L 800 0 
L 225 0 
L 909 3500 
z
" transform="scale(0.015625)"/>
      <path id="DejaVuSans-Oblique-46" d="M 3431 3366 
L 3316 2797 
Q 3109 2947 2876 3022 
Q 2644 3097 2394 3097 
Q 2119 3097 1870 3000 
Q 1622 2903 1453 2725 
Q 1184 2453 1037 2087 
Q 891 1722 891 1331 
Q 891 859 1127 628 
Q 1363 397 1844 397 
Q 2081 397 2348 469 
Q 2616 541 2906 684 
L 2797 116 
Q 2547 13 2283 -39 
Q 2019 -91 1741 -91 
Q 1044 -91 669 257 
Q 294 606 294 1253 
Q 294 1797 489 2255 
Q 684 2713 1069 3078 
Q 1331 3328 1684 3456 
Q 2038 3584 2456 3584 
Q 2700 3584 2940 3529 
Q 3181 3475 3431 3366 
z
" transform="scale(0.015625)"/>
      <path id="DejaVuSans-Oblique-47" d="M 2675 525 
Q 2444 222 2128 65 
Q 1813 -91 1428 -91 
Q 903 -91 598 267 
Q 294 625 294 1247 
Q 294 1766 478 2236 
Q 663 2706 1013 3078 
Q 1244 3325 1534 3454 
Q 1825 3584 2144 3584 
Q 2481 3584 2739 3421 
Q 2997 3259 3138 2956 
L 3513 4863 
L 4091 4863 
L 3144 0 
L 2566 0 
L 2675 525 
z
M 891 1350 
Q 891 897 1095 644 
Q 1300 391 1663 391 
Q 1931 391 2161 520 
Q 2391 650 2566 903 
Q 2750 1166 2856 1509 
Q 2963 1853 2963 2188 
Q 2963 2622 2758 2865 
Q 2553 3109 2194 3109 
Q 1922 3109 1687 2981 
Q 1453 2853 1288 2613 
Q 1106 2353 998 2009 
Q 891 1666 891 1350 
z
" transform="scale(0.015625)"/>
      <path id="DejaVuSans-Oblique-51" d="M 3566 2113 
L 3156 0 
L 2578 0 
L 2988 2091 
Q 3016 2238 3031 2350 
Q 3047 2463 3047 2528 
Q 3047 2791 2881 2937 
Q 2716 3084 2419 3084 
Q 1956 3084 1622 2776 
Q 1288 2469 1184 1941 
L 800 0 
L 225 0 
L 903 3500 
L 1478 3500 
L 1363 2950 
Q 1603 3253 1940 3418 
Q 2278 3584 2650 3584 
Q 3113 3584 3367 3334 
Q 3622 3084 3622 2631 
Q 3622 2519 3608 2391 
Q 3594 2263 3566 2113 
z
" transform="scale(0.015625)"/>
      <path id="DejaVuSans-Oblique-48" d="M 3078 2063 
Q 3088 2113 3092 2166 
Q 3097 2219 3097 2272 
Q 3097 2653 2873 2875 
Q 2650 3097 2266 3097 
Q 1838 3097 1509 2826 
Q 1181 2556 1013 2059 
L 3078 2063 
z
M 3578 1613 
L 903 1613 
Q 884 1494 878 1425 
Q 872 1356 872 1306 
Q 872 872 1139 634 
Q 1406 397 1894 397 
Q 2269 397 2603 481 
Q 2938 566 3225 728 
L 3116 159 
Q 2806 34 2476 -28 
Q 2147 -91 1806 -91 
Q 1078 -91 686 257 
Q 294 606 294 1247 
Q 294 1794 489 2264 
Q 684 2734 1063 3103 
Q 1306 3334 1642 3459 
Q 1978 3584 2356 3584 
Q 2950 3584 3301 3228 
Q 3653 2872 3653 2272 
Q 3653 2128 3634 1964 
Q 3616 1800 3578 1613 
z
" transform="scale(0.015625)"/>
      <path id="DejaVuSans-Oblique-4a" d="M 3816 3500 
L 3219 434 
Q 3047 -456 2561 -893 
Q 2075 -1331 1253 -1331 
Q 950 -1331 690 -1286 
Q 431 -1241 206 -1147 
L 313 -588 
Q 525 -725 762 -790 
Q 1000 -856 1269 -856 
Q 1816 -856 2167 -557 
Q 2519 -259 2631 300 
L 2681 563 
Q 2441 288 2122 144 
Q 1803 0 1434 0 
Q 903 0 598 351 
Q 294 703 294 1319 
Q 294 1803 478 2267 
Q 663 2731 997 3091 
Q 1219 3328 1514 3456 
Q 1809 3584 2131 3584 
Q 2484 3584 2746 3420 
Q 3009 3256 3138 2956 
L 3238 3500 
L 3816 3500 
z
M 2950 2216 
Q 2950 2641 2750 2872 
Q 2550 3103 2181 3103 
Q 1953 3103 1747 3012 
Q 1541 2922 1394 2759 
Q 1156 2491 1023 2127 
Q 891 1763 891 1375 
Q 891 944 1092 712 
Q 1294 481 1672 481 
Q 2219 481 2584 976 
Q 2950 1472 2950 2216 
z
" transform="scale(0.015625)"/>
      <path id="DejaVuSans-Oblique-58" d="M 428 1388 
L 838 3500 
L 1416 3500 
L 1006 1409 
Q 975 1256 961 1147 
Q 947 1038 947 966 
Q 947 700 1109 554 
Q 1272 409 1569 409 
Q 2031 409 2368 721 
Q 2706 1034 2809 1563 
L 3194 3500 
L 3769 3500 
L 3091 0 
L 2516 0 
L 2631 550 
Q 2388 244 2052 76 
Q 1716 -91 1338 -91 
Q 878 -91 622 161 
Q 366 413 366 863 
Q 366 956 381 1097 
Q 397 1238 428 1388 
z
" transform="scale(0.015625)"/>
      <path id="DejaVuSans-Oblique-55" d="M 2853 2969 
Q 2766 3016 2653 3041 
Q 2541 3066 2413 3066 
Q 1953 3066 1609 2717 
Q 1266 2369 1153 1784 
L 800 0 
L 225 0 
L 909 3500 
L 1484 3500 
L 1375 2956 
Q 1603 3259 1920 3421 
Q 2238 3584 2597 3584 
Q 2691 3584 2781 3573 
Q 2872 3563 2963 3538 
L 2853 2969 
z
" transform="scale(0.015625)"/>
     </defs>
     <use xlink:href="#DejaVuSans-Oblique-24"/>
     <use xlink:href="#DejaVuSans-Oblique-3" transform="translate(68.40625 0)"/>
     <use xlink:href="#DejaVuSans-Oblique-56" transform="translate(100.1875 0)"/>
     <use xlink:href="#DejaVuSans-Oblique-57" transform="translate(152.28125 0)"/>
     <use xlink:href="#DejaVuSans-Oblique-44" transform="translate(191.484375 0)"/>
     <use xlink:href="#DejaVuSans-Oblique-57" transform="translate(252.765625 0)"/>
     <use xlink:href="#DejaVuSans-Oblique-4c" transform="translate(291.96875 0)"/>
     <use xlink:href="#DejaVuSans-Oblique-46" transform="translate(319.75 0)"/>
     <use xlink:href="#DejaVuSans-Oblique-3" transform="translate(374.734375 0)"/>
     <use xlink:href="#DejaVuSans-Oblique-47" transform="translate(406.515625 0)"/>
     <use xlink:href="#DejaVuSans-Oblique-4c" transform="translate(470 0)"/>
     <use xlink:href="#DejaVuSans-Oblique-56" transform="translate(497.78125 0)"/>
     <use xlink:href="#DejaVuSans-Oblique-57" transform="translate(549.875 0)"/>
     <use xlink:href="#DejaVuSans-Oblique-44" transform="translate(589.078125 0)"/>
     <use xlink:href="#DejaVuSans-Oblique-51" transform="translate(650.359375 0)"/>
     <use xlink:href="#DejaVuSans-Oblique-46" transform="translate(713.734375 0)"/>
     <use xlink:href="#DejaVuSans-Oblique-48" transform="translate(768.71875 0)"/>
     <use xlink:href="#DejaVuSans-Oblique-3" transform="translate(830.25 0)"/>
     <use xlink:href="#DejaVuSans-Oblique-56" transform="translate(862.03125 0)"/>
     <use xlink:href="#DejaVuSans-Oblique-4c" transform="translate(914.125 0)"/>
     <use xlink:href="#DejaVuSans-Oblique-4a" transform="translate(941.90625 0)"/>
     <use xlink:href="#DejaVuSans-Oblique-51" transform="translate(1005.390625 0)"/>
     <use xlink:href="#DejaVuSans-Oblique-44" transform="translate(1068.765625 0)"/>
     <use xlink:href="#DejaVuSans-Oblique-57" transform="translate(1130.046875 0)"/>
     <use xlink:href="#DejaVuSans-Oblique-58" transform="translate(1169.25 0)"/>
     <use xlink:href="#DejaVuSans-Oblique-55" transform="translate(1232.625 0)"/>
     <use xlink:href="#DejaVuSans-Oblique-48" transform="translate(1273.734375 0)"/>
    </g>
    <!-- doubles as a personalization signal -->
    <g style="fill: #6b7280" transform="translate(104.500905 55.799568) scale(0.082 -0.082)">
     <defs>
      <path id="DejaVuSans-Oblique-52" d="M 1625 -91 
Q 1009 -91 651 289 
Q 294 669 294 1325 
Q 294 1706 417 2101 
Q 541 2497 738 2766 
Q 1047 3184 1428 3384 
Q 1809 3584 2291 3584 
Q 2888 3584 3255 3212 
Q 3622 2841 3622 2241 
Q 3622 1825 3500 1412 
Q 3378 1000 3181 728 
Q 2875 309 2494 109 
Q 2113 -91 1625 -91 
z
M 891 1344 
Q 891 869 1089 633 
Q 1288 397 1691 397 
Q 2269 397 2648 901 
Q 3028 1406 3028 2181 
Q 3028 2634 2825 2865 
Q 2622 3097 2228 3097 
Q 1903 3097 1650 2945 
Q 1397 2794 1197 2484 
Q 1050 2253 970 1956 
Q 891 1659 891 1344 
z
" transform="scale(0.015625)"/>
      <path id="DejaVuSans-Oblique-45" d="M 3169 2138 
Q 3169 2591 2961 2847 
Q 2753 3103 2388 3103 
Q 2122 3103 1889 2973 
Q 1656 2844 1484 2597 
Q 1303 2338 1198 1995 
Q 1094 1653 1094 1313 
Q 1094 881 1298 636 
Q 1503 391 1863 391 
Q 2134 391 2365 517 
Q 2597 644 2772 891 
Q 2950 1147 3059 1487 
Q 3169 1828 3169 2138 
z
M 1381 2969 
Q 1594 3256 1914 3420 
Q 2234 3584 2584 3584 
Q 3122 3584 3439 3221 
Q 3756 2859 3756 2241 
Q 3756 1734 3570 1259 
Q 3384 784 3041 416 
Q 2816 172 2522 40 
Q 2228 -91 1906 -91 
Q 1566 -91 1316 65 
Q 1066 222 909 531 
L 806 0 
L 231 0 
L 1178 4863 
L 1753 4863 
L 1381 2969 
z
" transform="scale(0.015625)"/>
      <path id="DejaVuSans-Oblique-4f" d="M 1172 4863 
L 1747 4863 
L 800 0 
L 225 0 
L 1172 4863 
z
" transform="scale(0.015625)"/>
      <path id="DejaVuSans-Oblique-53" d="M 3175 2156 
Q 3175 2616 2975 2859 
Q 2775 3103 2400 3103 
Q 2144 3103 1911 2972 
Q 1678 2841 1497 2591 
Q 1319 2344 1212 1994 
Q 1106 1644 1106 1300 
Q 1106 863 1306 627 
Q 1506 391 1875 391 
Q 2147 391 2380 519 
Q 2613 647 2778 891 
Q 2956 1147 3065 1494 
Q 3175 1841 3175 2156 
z
M 1394 2969 
Q 1625 3272 1939 3428 
Q 2253 3584 2638 3584 
Q 3175 3584 3472 3232 
Q 3769 2881 3769 2247 
Q 3769 1728 3584 1258 
Q 3400 788 3053 416 
Q 2822 169 2531 39 
Q 2241 -91 1919 -91 
Q 1547 -91 1294 64 
Q 1041 219 916 525 
L 556 -1331 
L -19 -1331 
L 922 3500 
L 1497 3500 
L 1394 2969 
z
" transform="scale(0.015625)"/>
      <path id="DejaVuSans-Oblique-5d" d="M 744 3500 
L 3475 3500 
L 3372 2975 
L 738 459 
L 2913 459 
L 2822 0 
L -19 0 
L 84 525 
L 2719 3041 
L 653 3041 
L 744 3500 
z
" transform="scale(0.015625)"/>
     </defs>
     <use xlink:href="#DejaVuSans-Oblique-47"/>
     <use xlink:href="#DejaVuSans-Oblique-52" transform="translate(63.484375 0)"/>
     <use xlink:href="#DejaVuSans-Oblique-58" transform="translate(124.671875 0)"/>
     <use xlink:href="#DejaVuSans-Oblique-45" transform="translate(188.046875 0)"/>
     <use xlink:href="#DejaVuSans-Oblique-4f" transform="translate(251.53125 0)"/>
     <use xlink:href="#DejaVuSans-Oblique-48" transform="translate(279.3125 0)"/>
     <use xlink:href="#DejaVuSans-Oblique-56" transform="translate(340.84375 0)"/>
     <use xlink:href="#DejaVuSans-Oblique-3" transform="translate(392.9375 0)"/>
     <use xlink:href="#DejaVuSans-Oblique-44" transform="translate(424.71875 0)"/>
     <use xlink:href="#DejaVuSans-Oblique-56" transform="translate(486 0)"/>
     <use xlink:href="#DejaVuSans-Oblique-3" transform="translate(538.09375 0)"/>
     <use xlink:href="#DejaVuSans-Oblique-44" transform="translate(569.875 0)"/>
     <use xlink:href="#DejaVuSans-Oblique-3" transform="translate(631.15625 0)"/>
     <use xlink:href="#DejaVuSans-Oblique-53" transform="translate(662.9375 0)"/>
     <use xlink:href="#DejaVuSans-Oblique-48" transform="translate(726.421875 0)"/>
     <use xlink:href="#DejaVuSans-Oblique-55" transform="translate(787.953125 0)"/>
     <use xlink:href="#DejaVuSans-Oblique-56" transform="translate(829.0625 0)"/>
     <use xlink:href="#DejaVuSans-Oblique-52" transform="translate(881.15625 0)"/>
     <use xlink:href="#DejaVuSans-Oblique-51" transform="translate(942.34375 0)"/>
     <use xlink:href="#DejaVuSans-Oblique-44" transform="translate(1005.71875 0)"/>
     <use xlink:href="#DejaVuSans-Oblique-4f" transform="translate(1067 0)"/>
     <use xlink:href="#DejaVuSans-Oblique-4c" transform="translate(1094.78125 0)"/>
     <use xlink:href="#DejaVuSans-Oblique-5d" transform="translate(1122.5625 0)"/>
     <use xlink:href="#DejaVuSans-Oblique-44" transform="translate(1175.046875 0)"/>
     <use xlink:href="#DejaVuSans-Oblique-57" transform="translate(1236.328125 0)"/>
     <use xlink:href="#DejaVuSans-Oblique-4c" transform="translate(1275.53125 0)"/>
     <use xlink:href="#DejaVuSans-Oblique-52" transform="translate(1303.3125 0)"/>
     <use xlink:href="#DejaVuSans-Oblique-51" transform="translate(1364.5 0)"/>
     <use xlink:href="#DejaVuSans-Oblique-3" transform="translate(1427.875 0)"/>
     <use xlink:href="#DejaVuSans-Oblique-56" transform="translate(1459.65625 0)"/>
     <use xlink:href="#DejaVuSans-Oblique-4c" transform="translate(1511.75 0)"/>
     <use xlink:href="#DejaVuSans-Oblique-4a" transform="translate(1539.53125 0)"/>
     <use xlink:href="#DejaVuSans-Oblique-51" transform="translate(1603.015625 0)"/>
     <use xlink:href="#DejaVuSans-Oblique-44" transform="translate(1666.390625 0)"/>
     <use xlink:href="#DejaVuSans-Oblique-4f" transform="translate(1727.671875 0)"/>
    </g>
   </g>
   <g id="text_6">
    <!-- Known customer -->
    <g style="fill: #1e293b" transform="translate(125.904375 16.317187) scale(0.12 -0.12)">
     <defs>
      <path id="DejaVuSans-Bold-2e" d="M 588 4666 
L 1791 4666 
L 1791 2963 
L 3525 4666 
L 4922 4666 
L 2675 2456 
L 5153 0 
L 3647 0 
L 1791 1838 
L 1791 0 
L 588 0 
L 588 4666 
z
" transform="scale(0.015625)"/>
     </defs>
     <use xlink:href="#DejaVuSans-Bold-2e"/>
     <use xlink:href="#DejaVuSans-Bold-51" transform="translate(77.484375 0)"/>
     <use xlink:href="#DejaVuSans-Bold-52" transform="translate(148.671875 0)"/>
     <use xlink:href="#DejaVuSans-Bold-5a" transform="translate(217.375 0)"/>
     <use xlink:href="#DejaVuSans-Bold-51" transform="translate(309.765625 0)"/>
     <use xlink:href="#DejaVuSans-Bold-3" transform="translate(380.953125 0)"/>
     <use xlink:href="#DejaVuSans-Bold-46" transform="translate(415.765625 0)"/>
     <use xlink:href="#DejaVuSans-Bold-58" transform="translate(475.046875 0)"/>
     <use xlink:href="#DejaVuSans-Bold-56" transform="translate(546.234375 0)"/>
     <use xlink:href="#DejaVuSans-Bold-57" transform="translate(605.75 0)"/>
     <use xlink:href="#DejaVuSans-Bold-52" transform="translate(653.546875 0)"/>
     <use xlink:href="#DejaVuSans-Bold-50" transform="translate(722.25 0)"/>
     <use xlink:href="#DejaVuSans-Bold-48" transform="translate(826.453125 0)"/>
     <use xlink:href="#DejaVuSans-Bold-55" transform="translate(894.28125 0)"/>
    </g>
   </g>
  </g>
  <g id="axes_2">
   <g id="patch_8">
    <path d="M 473.832 71.890429 
L 601.996966 71.890429 
Q 605.624276 71.890429 605.624276 68.263119 
L 605.624276 36.826429 
Q 605.624276 33.199119 601.996966 33.199119 
L 473.832 33.199119 
Q 470.20469 33.199119 470.20469 36.826429 
L 470.20469 68.263119 
Q 470.20469 71.890429 473.832 71.890429 
z
" clip-path="url(#p6a33deffae)" style="fill: #ea580c; stroke: #ea580c; stroke-width: 1.6; stroke-linejoin: miter"/>
   </g>
   <g id="patch_9">
    <path d="M 537.914483 72.67977 
Q 537.914483 94.862234 537.914483 115.367647 
" clip-path="url(#p6a33deffae)" style="fill: none; stroke: #ea580c; stroke-width: 1.5; stroke-linecap: round"/>
    <path d="M 540.514483 110.167647 
L 537.914483 115.367647 
L 535.314483 110.167647 
z
" clip-path="url(#p6a33deffae)" style="fill: #ea580c; stroke: #ea580c; stroke-width: 1.5; stroke-linecap: round"/>
   </g>
   <g id="patch_10">
    <path d="M 569.603266 156.688439 
Q 592.326172 177.991163 613.825607 198.146884 
" clip-path="url(#p6a33deffae)" style="fill: none; stroke: #059669; stroke-width: 1.5; stroke-linecap: round"/>
    <path d="M 611.810261 192.693593 
L 613.825607 198.146884 
L 608.253767 196.487187 
z
" clip-path="url(#p6a33deffae)" style="fill: #059669; stroke: #059669; stroke-width: 1.5; stroke-linecap: round"/>
   </g>
   <g id="patch_11">
    <path d="M 585.674069 238.142153 
L 707.793517 238.142153 
Q 711.420828 238.142153 711.420828 234.514843 
L 711.420828 200.055394 
Q 711.420828 196.428084 707.793517 196.428084 
L 585.674069 196.428084 
Q 582.046759 196.428084 582.046759 200.055394 
L 582.046759 234.514843 
Q 582.046759 238.142153 585.674069 238.142153 
z
" clip-path="url(#p6a33deffae)" style="fill: #059669; stroke: #059669; stroke-width: 1.6; stroke-linejoin: miter"/>
   </g>
   <g id="patch_12">
    <path d="M 506.2257 156.688439 
Q 483.502794 177.991163 462.003358 198.146884 
" clip-path="url(#p6a33deffae)" style="fill: none; stroke: #dc2626; stroke-width: 1.5; stroke-linecap: round"/>
    <path d="M 467.575199 196.487187 
L 462.003358 198.146884 
L 464.018705 192.693593 
z
" clip-path="url(#p6a33deffae)" style="fill: #dc2626; stroke: #dc2626; stroke-width: 1.5; stroke-linecap: round"/>
   </g>
   <g id="patch_13">
    <path d="M 398.263034 238.142153 
L 520.382483 238.142153 
Q 524.009793 238.142153 524.009793 234.514843 
L 524.009793 200.055394 
Q 524.009793 196.428084 520.382483 196.428084 
L 398.263034 196.428084 
Q 394.635724 196.428084 394.635724 200.055394 
L 394.635724 234.514843 
Q 394.635724 238.142153 398.263034 238.142153 
z
" clip-path="url(#p6a33deffae)" style="fill: #6b7280; stroke: #6b7280; stroke-width: 1.6; stroke-linejoin: miter"/>
   </g>
   <g id="patch_14">
    <path d="M 460.940222 238.109387 
Q 492.571983 261.114304 522.847452 283.132827 
" clip-path="url(#p6a33deffae)" style="fill: none; stroke: #6b7280; stroke-width: 1.5; stroke-linecap: round"/>
    <path d="M 520.171271 277.97162 
L 522.847452 283.132827 
L 517.112778 282.177048 
z
" clip-path="url(#p6a33deffae)" style="fill: #6b7280; stroke: #6b7280; stroke-width: 1.5; stroke-linecap: round"/>
   </g>
   <g id="patch_15">
    <path d="M 644.947886 237.826003 
Q 598.370553 261.11467 553.29322 283.653336 
" clip-path="url(#p6a33deffae)" style="fill: none; stroke: #059669; stroke-width: 1.5; stroke-linecap: round"/>
    <path d="M 559.106997 283.653336 
L 553.29322 283.653336 
L 556.781486 279.002315 
z
" clip-path="url(#p6a33deffae)" style="fill: #059669; stroke: #059669; stroke-width: 1.5; stroke-linecap: round"/>
   </g>
   <g id="text_7">
    <!-- Partial-history distance -->
    <g style="fill: #ffffff" transform="translate(483.030733 54.701153) scale(0.083 -0.083)">
     <defs>
      <path id="DejaVuSans-Bold-10" d="M 347 2297 
L 2309 2297 
L 2309 1388 
L 347 1388 
L 347 2297 
z
" transform="scale(0.015625)"/>
     </defs>
     <use xlink:href="#DejaVuSans-Bold-33"/>
     <use xlink:href="#DejaVuSans-Bold-44" transform="translate(70.609375 0)"/>
     <use xlink:href="#DejaVuSans-Bold-55" transform="translate(138.09375 0)"/>
     <use xlink:href="#DejaVuSans-Bold-57" transform="translate(187.40625 0)"/>
     <use xlink:href="#DejaVuSans-Bold-4c" transform="translate(235.203125 0)"/>
     <use xlink:href="#DejaVuSans-Bold-44" transform="translate(269.484375 0)"/>
     <use xlink:href="#DejaVuSans-Bold-4f" transform="translate(336.96875 0)"/>
     <use xlink:href="#DejaVuSans-Bold-10" transform="translate(371.25 0)"/>
     <use xlink:href="#DejaVuSans-Bold-4b" transform="translate(412.75 0)"/>
     <use xlink:href="#DejaVuSans-Bold-4c" transform="translate(483.9375 0)"/>
     <use xlink:href="#DejaVuSans-Bold-56" transform="translate(518.21875 0)"/>
     <use xlink:href="#DejaVuSans-Bold-57" transform="translate(577.734375 0)"/>
     <use xlink:href="#DejaVuSans-Bold-52" transform="translate(625.53125 0)"/>
     <use xlink:href="#DejaVuSans-Bold-55" transform="translate(694.234375 0)"/>
     <use xlink:href="#DejaVuSans-Bold-5c" transform="translate(743.546875 0)"/>
     <use xlink:href="#DejaVuSans-Bold-3" transform="translate(808.734375 0)"/>
     <use xlink:href="#DejaVuSans-Bold-47" transform="translate(843.546875 0)"/>
     <use xlink:href="#DejaVuSans-Bold-4c" transform="translate(915.125 0)"/>
     <use xlink:href="#DejaVuSans-Bold-56" transform="translate(949.40625 0)"/>
     <use xlink:href="#DejaVuSans-Bold-57" transform="translate(1008.921875 0)"/>
     <use xlink:href="#DejaVuSans-Bold-44" transform="translate(1056.71875 0)"/>
     <use xlink:href="#DejaVuSans-Bold-51" transform="translate(1124.203125 0)"/>
     <use xlink:href="#DejaVuSans-Bold-46" transform="translate(1195.390625 0)"/>
     <use xlink:href="#DejaVuSans-Bold-48" transform="translate(1254.671875 0)"/>
    </g>
   </g>
   <g id="PathCollection_1">
    <defs>
     <path id="m5cb9e4cdbf" d="M -0 26.457513 
L 26.457513 0 
L 0 -26.457513 
L -26.457513 -0 
z
" style="stroke: #1e293b; stroke-width: 1.6"/>
    </defs>
    <g clip-path="url(#p6a33deffae)">
     <use xlink:href="#m5cb9e4cdbf" x="537.914483" y="140.204774" style="fill: #ffffff; stroke: #1e293b; stroke-width: 1.6"/>
    </g>
   </g>
   <g id="text_8">
    <!-- Confident -->
    <g style="fill: #1e293b" transform="translate(517.992897 137.72035) scale(0.073 -0.073)">
     <defs>
      <path id="DejaVuSans-Bold-26" d="M 4288 256 
Q 3956 84 3597 -3 
Q 3238 -91 2847 -91 
Q 1681 -91 1000 561 
Q 319 1213 319 2328 
Q 319 3447 1000 4098 
Q 1681 4750 2847 4750 
Q 3238 4750 3597 4662 
Q 3956 4575 4288 4403 
L 4288 3438 
Q 3953 3666 3628 3772 
Q 3303 3878 2944 3878 
Q 2300 3878 1931 3465 
Q 1563 3053 1563 2328 
Q 1563 1606 1931 1193 
Q 2300 781 2944 781 
Q 3303 781 3628 887 
Q 3953 994 4288 1222 
L 4288 256 
z
" transform="scale(0.015625)"/>
      <path id="DejaVuSans-Bold-13ab" d="M 3078 4863 
L 4206 4863 
L 4206 3950 
L 3078 3950 
L 3078 4863 
z
M 2847 4863 
L 2847 4128 
L 2228 4128 
Q 1994 4128 1903 4042 
Q 1813 3956 1813 3744 
L 1813 3500 
L 4206 3500 
L 4206 0 
L 3078 0 
L 3078 2700 
L 1813 2700 
L 1813 0 
L 684 0 
L 684 2700 
L 134 2700 
L 134 3500 
L 684 3500 
L 684 3744 
Q 684 4316 1003 4589 
Q 1322 4863 1991 4863 
L 2847 4863 
z
" transform="scale(0.015625)"/>
     </defs>
     <use xlink:href="#DejaVuSans-Bold-26"/>
     <use xlink:href="#DejaVuSans-Bold-52" transform="translate(73.390625 0)"/>
     <use xlink:href="#DejaVuSans-Bold-51" transform="translate(142.09375 0)"/>
     <use xlink:href="#DejaVuSans-Bold-13ab" transform="translate(213.28125 0)"/>
     <use xlink:href="#DejaVuSans-Bold-47" transform="translate(287.40625 0)"/>
     <use xlink:href="#DejaVuSans-Bold-48" transform="translate(358.984375 0)"/>
     <use xlink:href="#DejaVuSans-Bold-51" transform="translate(426.8125 0)"/>
     <use xlink:href="#DejaVuSans-Bold-57" transform="translate(498 0)"/>
    </g>
    <!-- match? -->
    <g style="fill: #1e293b" transform="translate(523.023623 146.482346) scale(0.073 -0.073)">
     <defs>
      <path id="DejaVuSans-Bold-22" d="M 2216 1575 
L 1088 1575 
L 1088 1728 
Q 1088 1984 1191 2182 
Q 1294 2381 1625 2688 
L 1825 2869 
Q 2003 3031 2086 3175 
Q 2169 3319 2169 3463 
Q 2169 3681 2019 3804 
Q 1869 3928 1600 3928 
Q 1347 3928 1053 3823 
Q 759 3719 441 3513 
L 441 4494 
Q 819 4625 1131 4687 
Q 1444 4750 1734 4750 
Q 2497 4750 2897 4439 
Q 3297 4128 3297 3531 
Q 3297 3225 3175 2983 
Q 3053 2741 2759 2463 
L 2559 2284 
Q 2347 2091 2281 1973 
Q 2216 1856 2216 1716 
L 2216 1575 
z
M 1088 1113 
L 2216 1113 
L 2216 0 
L 1088 0 
L 1088 1113 
z
" transform="scale(0.015625)"/>
     </defs>
     <use xlink:href="#DejaVuSans-Bold-50"/>
     <use xlink:href="#DejaVuSans-Bold-44" transform="translate(104.203125 0)"/>
     <use xlink:href="#DejaVuSans-Bold-57" transform="translate(171.6875 0)"/>
     <use xlink:href="#DejaVuSans-Bold-46" transform="translate(219.484375 0)"/>
     <use xlink:href="#DejaVuSans-Bold-4b" transform="translate(278.765625 0)"/>
     <use xlink:href="#DejaVuSans-Bold-22" transform="translate(349.953125 0)"/>
    </g>
   </g>
   <g id="text_9">
    <!-- yes -->
    <g style="fill: #059669" transform="translate(625.574483 178.556002) scale(0.08 -0.08)">
     <use xlink:href="#DejaVuSans-Bold-5c"/>
     <use xlink:href="#DejaVuSans-Bold-48" transform="translate(65.1875 0)"/>
     <use xlink:href="#DejaVuSans-Bold-56" transform="translate(133.015625 0)"/>
    </g>
   </g>
   <g id="text_10">
    <!-- Blend of archetype -->
    <g style="fill: #ffffff" transform="translate(602.311934 214.460363) scale(0.083 -0.083)">
     <defs>
      <path id="DejaVuSans-Bold-25" d="M 2456 2859 
Q 2741 2859 2887 2984 
Q 3034 3109 3034 3353 
Q 3034 3594 2887 3720 
Q 2741 3847 2456 3847 
L 1791 3847 
L 1791 2859 
L 2456 2859 
z
M 2497 819 
Q 2859 819 3042 972 
Q 3225 1125 3225 1434 
Q 3225 1738 3044 1889 
Q 2863 2041 2497 2041 
L 1791 2041 
L 1791 819 
L 2497 819 
z
M 3616 2497 
Q 4003 2384 4215 2081 
Q 4428 1778 4428 1338 
Q 4428 663 3972 331 
Q 3516 0 2584 0 
L 588 0 
L 588 4666 
L 2394 4666 
Q 3366 4666 3802 4372 
Q 4238 4078 4238 3431 
Q 4238 3091 4078 2852 
Q 3919 2613 3616 2497 
z
" transform="scale(0.015625)"/>
     </defs>
     <use xlink:href="#DejaVuSans-Bold-25"/>
     <use xlink:href="#DejaVuSans-Bold-4f" transform="translate(76.21875 0)"/>
     <use xlink:href="#DejaVuSans-Bold-48" transform="translate(110.5 0)"/>
     <use xlink:href="#DejaVuSans-Bold-51" transform="translate(178.328125 0)"/>
     <use xlink:href="#DejaVuSans-Bold-47" transform="translate(249.515625 0)"/>
     <use xlink:href="#DejaVuSans-Bold-3" transform="translate(321.09375 0)"/>
     <use xlink:href="#DejaVuSans-Bold-52" transform="translate(355.90625 0)"/>
     <use xlink:href="#DejaVuSans-Bold-49" transform="translate(424.609375 0)"/>
     <use xlink:href="#DejaVuSans-Bold-3" transform="translate(468.109375 0)"/>
     <use xlink:href="#DejaVuSans-Bold-44" transform="translate(502.921875 0)"/>
     <use xlink:href="#DejaVuSans-Bold-55" transform="translate(570.40625 0)"/>
     <use xlink:href="#DejaVuSans-Bold-46" transform="translate(619.71875 0)"/>
     <use xlink:href="#DejaVuSans-Bold-4b" transform="translate(679 0)"/>
     <use xlink:href="#DejaVuSans-Bold-48" transform="translate(750.1875 0)"/>
     <use xlink:href="#DejaVuSans-Bold-57" transform="translate(818.015625 0)"/>
     <use xlink:href="#DejaVuSans-Bold-5c" transform="translate(865.8125 0)"/>
     <use xlink:href="#DejaVuSans-Bold-53" transform="translate(931 0)"/>
     <use xlink:href="#DejaVuSans-Bold-48" transform="translate(1002.578125 0)"/>
    </g>
    <!-- specialists -->
    <g style="fill: #ffffff" transform="translate(622.026379 224.422632) scale(0.083 -0.083)">
     <use xlink:href="#DejaVuSans-Bold-56"/>
     <use xlink:href="#DejaVuSans-Bold-53" transform="translate(59.515625 0)"/>
     <use xlink:href="#DejaVuSans-Bold-48" transform="translate(131.09375 0)"/>
     <use xlink:href="#DejaVuSans-Bold-46" transform="translate(198.921875 0)"/>
     <use xlink:href="#DejaVuSans-Bold-4c" transform="translate(258.203125 0)"/>
     <use xlink:href="#DejaVuSans-Bold-44" transform="translate(292.484375 0)"/>
     <use xlink:href="#DejaVuSans-Bold-4f" transform="translate(359.96875 0)"/>
     <use xlink:href="#DejaVuSans-Bold-4c" transform="translate(394.25 0)"/>
     <use xlink:href="#DejaVuSans-Bold-56" transform="translate(428.53125 0)"/>
     <use xlink:href="#DejaVuSans-Bold-57" transform="translate(488.046875 0)"/>
     <use xlink:href="#DejaVuSans-Bold-56" transform="translate(535.84375 0)"/>
    </g>
   </g>
   <g id="text_11">
    <!-- no -->
    <g style="fill: #dc2626" transform="translate(439.063233 178.556002) scale(0.08 -0.08)">
     <use xlink:href="#DejaVuSans-Bold-51"/>
     <use xlink:href="#DejaVuSans-Bold-52" transform="translate(71.1875 0)"/>
    </g>
   </g>
   <g id="text_12">
    <!-- Global model -->
    <g style="fill: #ffffff" transform="translate(428.62054 214.460363) scale(0.083 -0.083)">
     <defs>
      <path id="DejaVuSans-Bold-2a" d="M 4781 347 
Q 4331 128 3847 18 
Q 3363 -91 2847 -91 
Q 1681 -91 1000 561 
Q 319 1213 319 2328 
Q 319 3456 1012 4103 
Q 1706 4750 2913 4750 
Q 3378 4750 3804 4662 
Q 4231 4575 4609 4403 
L 4609 3438 
Q 4219 3659 3833 3768 
Q 3447 3878 3059 3878 
Q 2341 3878 1952 3476 
Q 1563 3075 1563 2328 
Q 1563 1588 1938 1184 
Q 2313 781 3003 781 
Q 3191 781 3352 804 
Q 3513 828 3641 878 
L 3641 1784 
L 2906 1784 
L 2906 2591 
L 4781 2591 
L 4781 347 
z
" transform="scale(0.015625)"/>
      <path id="DejaVuSans-Bold-45" d="M 2400 722 
Q 2759 722 2948 984 
Q 3138 1247 3138 1747 
Q 3138 2247 2948 2509 
Q 2759 2772 2400 2772 
Q 2041 2772 1848 2508 
Q 1656 2244 1656 1747 
Q 1656 1250 1848 986 
Q 2041 722 2400 722 
z
M 1656 2988 
Q 1888 3294 2169 3439 
Q 2450 3584 2816 3584 
Q 3463 3584 3878 3070 
Q 4294 2556 4294 1747 
Q 4294 938 3878 423 
Q 3463 -91 2816 -91 
Q 2450 -91 2169 54 
Q 1888 200 1656 506 
L 1656 0 
L 538 0 
L 538 4863 
L 1656 4863 
L 1656 2988 
z
" transform="scale(0.015625)"/>
     </defs>
     <use xlink:href="#DejaVuSans-Bold-2a"/>
     <use xlink:href="#DejaVuSans-Bold-4f" transform="translate(82.078125 0)"/>
     <use xlink:href="#DejaVuSans-Bold-52" transform="translate(116.359375 0)"/>
     <use xlink:href="#DejaVuSans-Bold-45" transform="translate(185.0625 0)"/>
     <use xlink:href="#DejaVuSans-Bold-44" transform="translate(256.640625 0)"/>
     <use xlink:href="#DejaVuSans-Bold-4f" transform="translate(324.125 0)"/>
     <use xlink:href="#DejaVuSans-Bold-3" transform="translate(358.40625 0)"/>
     <use xlink:href="#DejaVuSans-Bold-50" transform="translate(393.21875 0)"/>
     <use xlink:href="#DejaVuSans-Bold-52" transform="translate(497.421875 0)"/>
     <use xlink:href="#DejaVuSans-Bold-47" transform="translate(566.125 0)"/>
     <use xlink:href="#DejaVuSans-Bold-48" transform="translate(637.703125 0)"/>
     <use xlink:href="#DejaVuSans-Bold-4f" transform="translate(705.53125 0)"/>
    </g>
    <!-- (safe fallback) -->
    <g style="fill: #ffffff" transform="translate(425.751852 224.422632) scale(0.083 -0.083)">
     <defs>
      <path id="DejaVuSans-Bold-b" d="M 2413 -844 
L 1484 -844 
Q 1006 -72 778 623 
Q 550 1319 550 2003 
Q 550 2688 779 3389 
Q 1009 4091 1484 4856 
L 2413 4856 
Q 2013 4116 1813 3408 
Q 1613 2700 1613 2009 
Q 1613 1319 1811 609 
Q 2009 -100 2413 -844 
z
" transform="scale(0.015625)"/>
      <path id="DejaVuSans-Bold-4e" d="M 538 4863 
L 1656 4863 
L 1656 2216 
L 2944 3500 
L 4244 3500 
L 2534 1894 
L 4378 0 
L 3022 0 
L 1656 1459 
L 1656 0 
L 538 0 
L 538 4863 
z
" transform="scale(0.015625)"/>
      <path id="DejaVuSans-Bold-c" d="M 513 -844 
Q 913 -100 1113 609 
Q 1313 1319 1313 2009 
Q 1313 2700 1113 3408 
Q 913 4116 513 4856 
L 1441 4856 
Q 1916 4091 2145 3389 
Q 2375 2688 2375 2003 
Q 2375 1319 2147 623 
Q 1919 -72 1441 -844 
L 513 -844 
z
" transform="scale(0.015625)"/>
     </defs>
     <use xlink:href="#DejaVuSans-Bold-b"/>
     <use xlink:href="#DejaVuSans-Bold-56" transform="translate(45.703125 0)"/>
     <use xlink:href="#DejaVuSans-Bold-44" transform="translate(105.21875 0)"/>
     <use xlink:href="#DejaVuSans-Bold-49" transform="translate(172.703125 0)"/>
     <use xlink:href="#DejaVuSans-Bold-48" transform="translate(216.203125 0)"/>
     <use xlink:href="#DejaVuSans-Bold-3" transform="translate(284.03125 0)"/>
     <use xlink:href="#DejaVuSans-Bold-49" transform="translate(318.84375 0)"/>
     <use xlink:href="#DejaVuSans-Bold-44" transform="translate(362.34375 0)"/>
     <use xlink:href="#DejaVuSans-Bold-4f" transform="translate(429.828125 0)"/>
     <use xlink:href="#DejaVuSans-Bold-4f" transform="translate(464.109375 0)"/>
     <use xlink:href="#DejaVuSans-Bold-45" transform="translate(498.390625 0)"/>
     <use xlink:href="#DejaVuSans-Bold-44" transform="translate(569.96875 0)"/>
     <use xlink:href="#DejaVuSans-Bold-46" transform="translate(637.453125 0)"/>
     <use xlink:href="#DejaVuSans-Bold-4e" transform="translate(696.734375 0)"/>
     <use xlink:href="#DejaVuSans-Bold-c" transform="translate(763.234375 0)"/>
    </g>
   </g>
   <g id="text_13">
    <!-- Forecast, never worse than the floor -->
    <g style="fill: #1e293b" transform="translate(449.306936 308.690818) scale(0.086 -0.086)">
     <defs>
      <path id="DejaVuSans-Bold-29" d="M 588 4666 
L 3834 4666 
L 3834 3756 
L 1791 3756 
L 1791 2888 
L 3713 2888 
L 3713 1978 
L 1791 1978 
L 1791 0 
L 588 0 
L 588 4666 
z
" transform="scale(0.015625)"/>
      <path id="DejaVuSans-Bold-f" d="M 653 1209 
L 1778 1209 
L 1778 256 
L 1006 -909 
L 341 -909 
L 653 256 
L 653 1209 
z
" transform="scale(0.015625)"/>
      <path id="DejaVuSans-Bold-59" d="M 97 3500 
L 1216 3500 
L 2088 1081 
L 2956 3500 
L 4078 3500 
L 2700 0 
L 1472 0 
L 97 3500 
z
" transform="scale(0.015625)"/>
      <path id="DejaVuSans-Bold-13ac" d="M 1984 4863 
L 4206 4863 
L 4206 0 
L 3078 0 
L 3078 4128 
L 2222 4128 
Q 1984 4128 1890 4042 
Q 1797 3956 1797 3744 
L 1797 3500 
L 2675 3500 
L 2675 2700 
L 1797 2700 
L 1797 0 
L 678 0 
L 678 2700 
L 122 2700 
L 122 3500 
L 678 3500 
L 678 3744 
Q 678 4316 997 4589 
Q 1316 4863 1984 4863 
z
" transform="scale(0.015625)"/>
     </defs>
     <use xlink:href="#DejaVuSans-Bold-29"/>
     <use xlink:href="#DejaVuSans-Bold-52" transform="translate(64.265625 0)"/>
     <use xlink:href="#DejaVuSans-Bold-55" transform="translate(132.96875 0)"/>
     <use xlink:href="#DejaVuSans-Bold-48" transform="translate(182.28125 0)"/>
     <use xlink:href="#DejaVuSans-Bold-46" transform="translate(250.109375 0)"/>
     <use xlink:href="#DejaVuSans-Bold-44" transform="translate(309.390625 0)"/>
     <use xlink:href="#DejaVuSans-Bold-56" transform="translate(376.875 0)"/>
     <use xlink:href="#DejaVuSans-Bold-57" transform="translate(436.390625 0)"/>
     <use xlink:href="#DejaVuSans-Bold-f" transform="translate(484.1875 0)"/>
     <use xlink:href="#DejaVuSans-Bold-3" transform="translate(522.171875 0)"/>
     <use xlink:href="#DejaVuSans-Bold-51" transform="translate(556.984375 0)"/>
     <use xlink:href="#DejaVuSans-Bold-48" transform="translate(628.171875 0)"/>
     <use xlink:href="#DejaVuSans-Bold-59" transform="translate(696 0)"/>
     <use xlink:href="#DejaVuSans-Bold-48" transform="translate(761.1875 0)"/>
     <use xlink:href="#DejaVuSans-Bold-55" transform="translate(829.015625 0)"/>
     <use xlink:href="#DejaVuSans-Bold-3" transform="translate(878.328125 0)"/>
     <use xlink:href="#DejaVuSans-Bold-5a" transform="translate(913.140625 0)"/>
     <use xlink:href="#DejaVuSans-Bold-52" transform="translate(1005.53125 0)"/>
     <use xlink:href="#DejaVuSans-Bold-55" transform="translate(1074.234375 0)"/>
     <use xlink:href="#DejaVuSans-Bold-56" transform="translate(1123.546875 0)"/>
     <use xlink:href="#DejaVuSans-Bold-48" transform="translate(1183.0625 0)"/>
     <use xlink:href="#DejaVuSans-Bold-3" transform="translate(1250.890625 0)"/>
     <use xlink:href="#DejaVuSans-Bold-57" transform="translate(1285.703125 0)"/>
     <use xlink:href="#DejaVuSans-Bold-4b" transform="translate(1333.5 0)"/>
     <use xlink:href="#DejaVuSans-Bold-44" transform="translate(1404.6875 0)"/>
     <use xlink:href="#DejaVuSans-Bold-51" transform="translate(1472.171875 0)"/>
     <use xlink:href="#DejaVuSans-Bold-3" transform="translate(1543.359375 0)"/>
     <use xlink:href="#DejaVuSans-Bold-57" transform="translate(1578.171875 0)"/>
     <use xlink:href="#DejaVuSans-Bold-4b" transform="translate(1625.96875 0)"/>
     <use xlink:href="#DejaVuSans-Bold-48" transform="translate(1697.15625 0)"/>
     <use xlink:href="#DejaVuSans-Bold-3" transform="translate(1764.984375 0)"/>
     <use xlink:href="#DejaVuSans-Bold-13ac" transform="translate(1799.796875 0)"/>
     <use xlink:href="#DejaVuSans-Bold-52" transform="translate(1873.921875 0)"/>
     <use xlink:href="#DejaVuSans-Bold-52" transform="translate(1942.625 0)"/>
     <use xlink:href="#DejaVuSans-Bold-55" transform="translate(2011.328125 0)"/>
    </g>
   </g>
   <g id="text_14">
    <!-- New customer -->
    <g style="fill: #1e293b" transform="translate(495.567188 16.317187) scale(0.12 -0.12)">
     <defs>
      <path id="DejaVuSans-Bold-31" d="M 588 4666 
L 1931 4666 
L 3628 1466 
L 3628 4666 
L 4769 4666 
L 4769 0 
L 3425 0 
L 1728 3200 
L 1728 0 
L 588 0 
L 588 4666 
z
" transform="scale(0.015625)"/>
     </defs>
     <use xlink:href="#DejaVuSans-Bold-31"/>
     <use xlink:href="#DejaVuSans-Bold-48" transform="translate(83.6875 0)"/>
     <use xlink:href="#DejaVuSans-Bold-5a" transform="translate(151.515625 0)"/>
     <use xlink:href="#DejaVuSans-Bold-3" transform="translate(243.90625 0)"/>
     <use xlink:href="#DejaVuSans-Bold-46" transform="translate(278.71875 0)"/>
     <use xlink:href="#DejaVuSans-Bold-58" transform="translate(338 0)"/>
     <use xlink:href="#DejaVuSans-Bold-56" transform="translate(409.1875 0)"/>
     <use xlink:href="#DejaVuSans-Bold-57" transform="translate(468.703125 0)"/>
     <use xlink:href="#DejaVuSans-Bold-52" transform="translate(516.5 0)"/>
     <use xlink:href="#DejaVuSans-Bold-50" transform="translate(585.203125 0)"/>
     <use xlink:href="#DejaVuSans-Bold-48" transform="translate(689.40625 0)"/>
     <use xlink:href="#DejaVuSans-Bold-55" transform="translate(757.234375 0)"/>
    </g>
   </g>
  </g>
 </g>
 <defs>
  <clipPath id="pc08fe0d1e0">
   <rect x="7.2" y="22.317187" width="350.64" height="308.321379"/>
  </clipPath>
  <clipPath id="p6a33deffae">
   <rect x="368.64" y="22.317187" width="350.64" height="308.321379"/>
  </clipPath>
 </defs>
</svg>
