<?xml version="1.0" encoding="utf-8" standalone="no"?>
<!DOCTYPE svg PUBLIC "-//W3C//DTD SVG 1.1//EN"
  "http://www.w3.org/Graphics/SVG/1.1/DTD/svg11.dtd">
<svg xmlns:xlink="http://www.w3.org/1999/xlink" width="403.2pt" height="388.8pt" viewBox="0 0 403.2 388.8" xmlns="http://www.w3.org/2000/svg" version="1.1">
 <metadata>
  <rdf:RDF xmlns:dc="http://purl.org/dc/elements/1.1/" xmlns:cc="http://creativecommons.org/ns#" xmlns:rdf="http://www.w3.org/1999/02/22-rdf-syntax-ns#">
   <cc:Work>
    <dc:type rdf:resource="http://purl.org/dc/dcmitype/StillImage"/>
    <dc:date>2026-07-17T20:08:34.764173</dc:date>
    <dc:format>image/svg+xml</dc:format>
    <dc:creator>
     <cc:Agent>
      <dc:title>Matplotlib v3.11.0, https://matplotlib.org/</dc:title>
     </cc:Agent>
    </dc:creator>
   </cc:Work>
  </rdf:RDF>
 </metadata>
 <defs>
  <style type="text/css">*{stroke-linejoin: round; stroke-linecap: butt}</style>
 </defs>
 <g id="figure_1">
  <g id="patch_1">
   <path d="M 0 388.8 
L 403.2 388.8 
L 403.2 0 
L 0 0 
z
" style="fill: #ffffff"/>
  </g>
  <g id="axes_1">
   <g id="patch_2">
    <path d="M 124.049032 343.347097 
L 279.150968 343.347097 
Q 282.843871 343.347097 282.843871 339.654194 
L 282.843871 307.649032 
Q 282.843871 303.956129 279.150968 303.956129 
L 124.049032 303.956129 
Q 120.356129 303.956129 120.356129 307.649032 
L 120.356129 339.654194 
Q 120.356129 343.347097 124.049032 343.347097 
z
" clip-path="url(#p138053fed2)" style="fill: #6b7280; stroke: #6b7280; stroke-width: 1.6; stroke-linejoin: miter"/>
   </g>
   <g id="patch_3">
    <path d="M 201.6 303.189517 
Q 201.6 282.106359 201.6 262.700252 
" clip-path="url(#p138053fed2)" style="fill: none; stroke: #1e293b; stroke-width: 1.5; stroke-linecap: round"/>
    <path d="M 199 267.900252 
L 201.6 262.700252 
L 204.2 267.900252 
z
" clip-path="url(#p138053fed2)" style="fill: #1e293b; stroke: #1e293b; stroke-width: 1.5; stroke-linecap: round"/>
   </g>
   <g id="patch_4">
    <path d="M 105.584516 260.256774 
L 297.615484 260.256774 
Q 301.308387 260.256774 301.308387 256.563871 
L 301.308387 218.403871 
Q 301.308387 214.710968 297.615484 214.710968 
L 105.584516 214.710968 
Q 101.891613 214.710968 101.891613 218.403871 
L 101.891613 256.563871 
Q 101.891613 260.256774 105.584516 260.256774 
z
" clip-path="url(#p138053fed2)" style="fill: #1e293b; stroke: #1e293b; stroke-width: 1.6; stroke-linejoin: miter"/>
   </g>
   <g id="patch_5">
    <path d="M 172.347142 214.682248 
Q 141.587949 189.781949 112.132235 165.936848 
" clip-path="url(#p138053fed2)" style="fill: none; stroke: #059669; stroke-width: 1.5; stroke-linecap: round"/>
    <path d="M 114.537993 171.229515 
L 112.132235 165.936848 
L 117.809824 167.187842 
z
" clip-path="url(#p138053fed2)" style="fill: #059669; stroke: #059669; stroke-width: 1.5; stroke-linecap: round"/>
   </g>
   <g id="patch_6">
    <path d="M 230.852858 214.682248 
Q 261.612051 189.781949 291.067765 165.936848 
" clip-path="url(#p138053fed2)" style="fill: none; stroke: #ea580c; stroke-width: 1.5; stroke-linecap: round"/>
    <path d="M 285.390176 167.187842 
L 291.067765 165.936848 
L 288.662007 171.229515 
z
" clip-path="url(#p138053fed2)" style="fill: #ea580c; stroke: #ea580c; stroke-width: 1.5; stroke-linecap: round"/>
   </g>
   <g id="patch_7">
    <path d="M 44.036129 164.856774 
L 174.51871 164.856774 
Q 178.211613 164.856774 178.211613 161.163871 
L 178.211613 126.08129 
Q 178.211613 122.388387 174.51871 122.388387 
L 44.036129 122.388387 
Q 40.343226 122.388387 40.343226 126.08129 
L 40.343226 161.163871 
Q 40.343226 164.856774 44.036129 164.856774 
z
" clip-path="url(#p138053fed2)" style="fill: #059669; stroke: #059669; stroke-width: 1.6; stroke-linejoin: miter"/>
   </g>
   <g id="patch_8">
    <path d="M 234.836129 164.856774 
L 365.31871 164.856774 
Q 369.011613 164.856774 369.011613 161.163871 
L 369.011613 126.08129 
Q 369.011613 122.388387 365.31871 122.388387 
L 234.836129 122.388387 
Q 231.143226 122.388387 231.143226 126.08129 
L 231.143226 161.163871 
Q 231.143226 164.856774 234.836129 164.856774 
z
" clip-path="url(#p138053fed2)" style="fill: #ea580c; stroke: #ea580c; stroke-width: 1.6; stroke-linejoin: miter"/>
   </g>
   <g id="patch_9">
    <path d="M 109.277419 121.622338 
Q 109.277419 105.156276 109.277419 90.367266 
" clip-path="url(#p138053fed2)" style="fill: none; stroke: #059669; stroke-width: 1.5; stroke-linecap: round"/>
    <path d="M 106.677419 95.567266 
L 109.277419 90.367266 
L 111.877419 95.567266 
z
" clip-path="url(#p138053fed2)" style="fill: #059669; stroke: #059669; stroke-width: 1.5; stroke-linecap: round"/>
   </g>
   <g id="patch_10">
    <path d="M 300.077419 121.622338 
Q 300.077419 105.156276 300.077419 90.367266 
" clip-path="url(#p138053fed2)" style="fill: none; stroke: #ea580c; stroke-width: 1.5; stroke-linecap: round"/>
    <path d="M 297.477419 95.567266 
L 300.077419 90.367266 
L 302.677419 95.567266 
z
" clip-path="url(#p138053fed2)" style="fill: #ea580c; stroke: #ea580c; stroke-width: 1.5; stroke-linecap: round"/>
   </g>
   <g id="text_1">
    <!-- Input window -->
    <g style="fill: #ffffff" transform="translate(169.88168 320.826857) scale(0.083 -0.083)">
     <defs>
      <path id="DejaVuSans-Bold-2c" d="M 588 4666 
L 1791 4666 
L 1791 0 
L 588 0 
L 588 4666 
z
" transform="scale(0.015625)"/>
      <path id="DejaVuSans-Bold-51" d="M 4056 2131 
L 4056 0 
L 2931 0 
L 2931 347 
L 2931 1631 
Q 2931 2084 2911 2256 
Q 2891 2428 2841 2509 
Q 2775 2619 2662 2680 
Q 2550 2741 2406 2741 
Q 2056 2741 1856 2470 
Q 1656 2200 1656 1722 
L 1656 0 
L 538 0 
L 538 3500 
L 1656 3500 
L 1656 2988 
Q 1909 3294 2193 3439 
Q 2478 3584 2822 3584 
Q 3428 3584 3742 3212 
Q 4056 2841 4056 2131 
z
" transform="scale(0.015625)"/>
      <path id="DejaVuSans-Bold-53" d="M 1656 506 
L 1656 -1331 
L 538 -1331 
L 538 3500 
L 1656 3500 
L 1656 2988 
Q 1888 3294 2169 3439 
Q 2450 3584 2816 3584 
Q 3463 3584 3878 3070 
Q 4294 2556 4294 1747 
Q 4294 938 3878 423 
Q 3463 -91 2816 -91 
Q 2450 -91 2169 54 
Q 1888 200 1656 506 
z
M 2400 2772 
Q 2041 2772 1848 2508 
Q 1656 2244 1656 1747 
Q 1656 1250 1848 986 
Q 2041 722 2400 722 
Q 2759 722 2948 984 
Q 3138 1247 3138 1747 
Q 3138 2247 2948 2509 
Q 2759 2772 2400 2772 
z
" transform="scale(0.015625)"/>
      <path id="DejaVuSans-Bold-58" d="M 500 1363 
L 500 3500 
L 1625 3500 
L 1625 3150 
Q 1625 2866 1622 2436 
Q 1619 2006 1619 1863 
Q 1619 1441 1641 1255 
Q 1663 1069 1716 984 
Q 1784 875 1895 815 
Q 2006 756 2150 756 
Q 2500 756 2700 1025 
Q 2900 1294 2900 1772 
L 2900 3500 
L 4019 3500 
L 4019 0 
L 2900 0 
L 2900 506 
Q 2647 200 2364 54 
Q 2081 -91 1741 -91 
Q 1134 -91 817 281 
Q 500 653 500 1363 
z
" transform="scale(0.015625)"/>
      <path id="DejaVuSans-Bold-57" d="M 1759 4494 
L 1759 3500 
L 2913 3500 
L 2913 2700 
L 1759 2700 
L 1759 1216 
Q 1759 972 1856 886 
Q 1953 800 2241 800 
L 2816 800 
L 2816 0 
L 1856 0 
Q 1194 0 917 276 
Q 641 553 641 1216 
L 641 2700 
L 84 2700 
L 84 3500 
L 641 3500 
L 641 4494 
L 1759 4494 
z
" transform="scale(0.015625)"/>
      <path id="DejaVuSans-Bold-3" transform="scale(0.015625)"/>
      <path id="DejaVuSans-Bold-5a" d="M 225 3500 
L 1313 3500 
L 1900 1088 
L 2491 3500 
L 3425 3500 
L 4013 1113 
L 4603 3500 
L 5691 3500 
L 4769 0 
L 3547 0 
L 2956 2406 
L 2369 0 
L 1147 0 
L 225 3500 
z
" transform="scale(0.015625)"/>
      <path id="DejaVuSans-Bold-4c" d="M 538 3500 
L 1656 3500 
L 1656 0 
L 538 0 
L 538 3500 
z
M 538 4863 
L 1656 4863 
L 1656 3950 
L 538 3950 
L 538 4863 
z
" transform="scale(0.015625)"/>
      <path id="DejaVuSans-Bold-47" d="M 2919 2988 
L 2919 4863 
L 4044 4863 
L 4044 0 
L 2919 0 
L 2919 506 
Q 2688 197 2409 53 
Q 2131 -91 1766 -91 
Q 1119 -91 703 423 
Q 288 938 288 1747 
Q 288 2556 703 3070 
Q 1119 3584 1766 3584 
Q 2128 3584 2408 3439 
Q 2688 3294 2919 2988 
z
M 2181 722 
Q 2541 722 2730 984 
Q 2919 1247 2919 1747 
Q 2919 2247 2730 2509 
Q 2541 2772 2181 2772 
Q 1825 2772 1636 2509 
Q 1447 2247 1447 1747 
Q 1447 1247 1636 984 
Q 1825 722 2181 722 
z
" transform="scale(0.015625)"/>
      <path id="DejaVuSans-Bold-52" d="M 2203 2784 
Q 1831 2784 1636 2517 
Q 1441 2250 1441 1747 
Q 1441 1244 1636 976 
Q 1831 709 2203 709 
Q 2569 709 2762 976 
Q 2956 1244 2956 1747 
Q 2956 2250 2762 2517 
Q 2569 2784 2203 2784 
z
M 2203 3584 
Q 3106 3584 3614 3096 
Q 4122 2609 4122 1747 
Q 4122 884 3614 396 
Q 3106 -91 2203 -91 
Q 1297 -91 786 396 
Q 275 884 275 1747 
Q 275 2609 786 3096 
Q 1297 3584 2203 3584 
z
" transform="scale(0.015625)"/>
     </defs>
     <use xlink:href="#DejaVuSans-Bold-2c"/>
     <use xlink:href="#DejaVuSans-Bold-51" transform="translate(37.203125 0)"/>
     <use xlink:href="#DejaVuSans-Bold-53" transform="translate(108.390625 0)"/>
     <use xlink:href="#DejaVuSans-Bold-58" transform="translate(179.96875 0)"/>
     <use xlink:href="#DejaVuSans-Bold-57" transform="translate(251.15625 0)"/>
     <use xlink:href="#DejaVuSans-Bold-3" transform="translate(298.953125 0)"/>
     <use xlink:href="#DejaVuSans-Bold-5a" transform="translate(333.765625 0)"/>
     <use xlink:href="#DejaVuSans-Bold-4c" transform="translate(426.15625 0)"/>
     <use xlink:href="#DejaVuSans-Bold-51" transform="translate(460.4375 0)"/>
     <use xlink:href="#DejaVuSans-Bold-47" transform="translate(531.625 0)"/>
     <use xlink:href="#DejaVuSans-Bold-52" transform="translate(603.203125 0)"/>
     <use xlink:href="#DejaVuSans-Bold-5a" transform="translate(671.90625 0)"/>
    </g>
    <!-- (100 readings) -->
    <g style="fill: #ffffff" transform="translate(167.249672 330.789127) scale(0.083 -0.083)">
     <defs>
      <path id="DejaVuSans-Bold-b" d="M 2413 -844 
L 1484 -844 
Q 1006 -72 778 623 
Q 550 1319 550 2003 
Q 550 2688 779 3389 
Q 1009 4091 1484 4856 
L 2413 4856 
Q 2013 4116 1813 3408 
Q 1613 2700 1613 2009 
Q 1613 1319 1811 609 
Q 2009 -100 2413 -844 
z
" transform="scale(0.015625)"/>
      <path id="DejaVuSans-Bold-14" d="M 750 831 
L 1813 831 
L 1813 3847 
L 722 3622 
L 722 4441 
L 1806 4666 
L 2950 4666 
L 2950 831 
L 4013 831 
L 4013 0 
L 750 0 
L 750 831 
z
" transform="scale(0.015625)"/>
      <path id="DejaVuSans-Bold-13" d="M 2944 2338 
Q 2944 3213 2780 3570 
Q 2616 3928 2228 3928 
Q 1841 3928 1675 3570 
Q 1509 3213 1509 2338 
Q 1509 1453 1675 1090 
Q 1841 728 2228 728 
Q 2613 728 2778 1090 
Q 2944 1453 2944 2338 
z
M 4147 2328 
Q 4147 1169 3647 539 
Q 3147 -91 2228 -91 
Q 1306 -91 806 539 
Q 306 1169 306 2328 
Q 306 3491 806 4120 
Q 1306 4750 2228 4750 
Q 3147 4750 3647 4120 
Q 4147 3491 4147 2328 
z
" transform="scale(0.015625)"/>
      <path id="DejaVuSans-Bold-55" d="M 3138 2547 
Q 2991 2616 2845 2648 
Q 2700 2681 2553 2681 
Q 2122 2681 1889 2404 
Q 1656 2128 1656 1613 
L 1656 0 
L 538 0 
L 538 3500 
L 1656 3500 
L 1656 2925 
Q 1872 3269 2151 3426 
Q 2431 3584 2822 3584 
Q 2878 3584 2943 3579 
Q 3009 3575 3134 3559 
L 3138 2547 
z
" transform="scale(0.015625)"/>
      <path id="DejaVuSans-Bold-48" d="M 4031 1759 
L 4031 1441 
L 1416 1441 
Q 1456 1047 1700 850 
Q 1944 653 2381 653 
Q 2734 653 3104 758 
Q 3475 863 3866 1075 
L 3866 213 
Q 3469 63 3072 -14 
Q 2675 -91 2278 -91 
Q 1328 -91 801 392 
Q 275 875 275 1747 
Q 275 2603 792 3093 
Q 1309 3584 2216 3584 
Q 3041 3584 3536 3087 
Q 4031 2591 4031 1759 
z
M 2881 2131 
Q 2881 2450 2695 2645 
Q 2509 2841 2209 2841 
Q 1884 2841 1681 2658 
Q 1478 2475 1428 2131 
L 2881 2131 
z
" transform="scale(0.015625)"/>
      <path id="DejaVuSans-Bold-44" d="M 2106 1575 
Q 1756 1575 1579 1456 
Q 1403 1338 1403 1106 
Q 1403 894 1545 773 
Q 1688 653 1941 653 
Q 2256 653 2472 879 
Q 2688 1106 2688 1447 
L 2688 1575 
L 2106 1575 
z
M 3816 1997 
L 3816 0 
L 2688 0 
L 2688 519 
Q 2463 200 2181 54 
Q 1900 -91 1497 -91 
Q 953 -91 614 226 
Q 275 544 275 1050 
Q 275 1666 698 1953 
Q 1122 2241 2028 2241 
L 2688 2241 
L 2688 2328 
Q 2688 2594 2478 2717 
Q 2269 2841 1825 2841 
Q 1466 2841 1156 2769 
Q 847 2697 581 2553 
L 581 3406 
Q 941 3494 1303 3539 
Q 1666 3584 2028 3584 
Q 2975 3584 3395 3211 
Q 3816 2838 3816 1997 
z
" transform="scale(0.015625)"/>
      <path id="DejaVuSans-Bold-4a" d="M 2919 594 
Q 2688 288 2409 144 
Q 2131 0 1766 0 
Q 1125 0 706 504 
Q 288 1009 288 1791 
Q 288 2575 706 3076 
Q 1125 3578 1766 3578 
Q 2131 3578 2409 3434 
Q 2688 3291 2919 2981 
L 2919 3500 
L 4044 3500 
L 4044 353 
Q 4044 -491 3511 -936 
Q 2978 -1381 1966 -1381 
Q 1638 -1381 1331 -1331 
Q 1025 -1281 716 -1178 
L 716 -306 
Q 1009 -475 1290 -558 
Q 1572 -641 1856 -641 
Q 2406 -641 2662 -400 
Q 2919 -159 2919 353 
L 2919 594 
z
M 2181 2772 
Q 1834 2772 1640 2515 
Q 1447 2259 1447 1791 
Q 1447 1309 1634 1061 
Q 1822 813 2181 813 
Q 2531 813 2725 1069 
Q 2919 1325 2919 1791 
Q 2919 2259 2725 2515 
Q 2531 2772 2181 2772 
z
" transform="scale(0.015625)"/>
      <path id="DejaVuSans-Bold-56" d="M 3272 3391 
L 3272 2541 
Q 2913 2691 2578 2766 
Q 2244 2841 1947 2841 
Q 1628 2841 1473 2761 
Q 1319 2681 1319 2516 
Q 1319 2381 1436 2309 
Q 1553 2238 1856 2203 
L 2053 2175 
Q 2913 2066 3209 1816 
Q 3506 1566 3506 1031 
Q 3506 472 3093 190 
Q 2681 -91 1863 -91 
Q 1516 -91 1145 -36 
Q 775 19 384 128 
L 384 978 
Q 719 816 1070 734 
Q 1422 653 1784 653 
Q 2113 653 2278 743 
Q 2444 834 2444 1013 
Q 2444 1163 2330 1236 
Q 2216 1309 1875 1350 
L 1678 1375 
Q 931 1469 631 1722 
Q 331 1975 331 2491 
Q 331 3047 712 3315 
Q 1094 3584 1881 3584 
Q 2191 3584 2531 3537 
Q 2872 3491 3272 3391 
z
" transform="scale(0.015625)"/>
      <path id="DejaVuSans-Bold-c" d="M 513 -844 
Q 913 -100 1113 609 
Q 1313 1319 1313 2009 
Q 1313 2700 1113 3408 
Q 913 4116 513 4856 
L 1441 4856 
Q 1916 4091 2145 3389 
Q 2375 2688 2375 2003 
Q 2375 1319 2147 623 
Q 1919 -72 1441 -844 
L 513 -844 
z
" transform="scale(0.015625)"/>
     </defs>
     <use xlink:href="#DejaVuSans-Bold-b"/>
     <use xlink:href="#DejaVuSans-Bold-14" transform="translate(45.703125 0)"/>
     <use xlink:href="#DejaVuSans-Bold-13" transform="translate(115.28125 0)"/>
     <use xlink:href="#DejaVuSans-Bold-13" transform="translate(184.859375 0)"/>
     <use xlink:href="#DejaVuSans-Bold-3" transform="translate(254.4375 0)"/>
     <use xlink:href="#DejaVuSans-Bold-55" transform="translate(289.25 0)"/>
     <use xlink:href="#DejaVuSans-Bold-48" transform="translate(338.5625 0)"/>
     <use xlink:href="#DejaVuSans-Bold-44" transform="translate(406.390625 0)"/>
     <use xlink:href="#DejaVuSans-Bold-47" transform="translate(473.875 0)"/>
     <use xlink:href="#DejaVuSans-Bold-4c" transform="translate(545.453125 0)"/>
     <use xlink:href="#DejaVuSans-Bold-51" transform="translate(579.734375 0)"/>
     <use xlink:href="#DejaVuSans-Bold-4a" transform="translate(650.921875 0)"/>
     <use xlink:href="#DejaVuSans-Bold-56" transform="translate(722.5 0)"/>
     <use xlink:href="#DejaVuSans-Bold-c" transform="translate(782.015625 0)"/>
    </g>
   </g>
   <g id="text_2">
    <!-- Shared encoder -->
    <g style="fill: #ffffff" transform="translate(164.667594 234.659439) scale(0.083 -0.083)">
     <defs>
      <path id="DejaVuSans-Bold-36" d="M 3834 4519 
L 3834 3531 
Q 3450 3703 3084 3790 
Q 2719 3878 2394 3878 
Q 1963 3878 1756 3759 
Q 1550 3641 1550 3391 
Q 1550 3203 1689 3098 
Q 1828 2994 2194 2919 
L 2706 2816 
Q 3484 2659 3812 2340 
Q 4141 2022 4141 1434 
Q 4141 663 3683 286 
Q 3225 -91 2284 -91 
Q 1841 -91 1394 -6 
Q 947 78 500 244 
L 500 1259 
Q 947 1022 1364 901 
Q 1781 781 2169 781 
Q 2563 781 2772 912 
Q 2981 1044 2981 1288 
Q 2981 1506 2839 1625 
Q 2697 1744 2272 1838 
L 1806 1941 
Q 1106 2091 782 2419 
Q 459 2747 459 3303 
Q 459 4000 909 4375 
Q 1359 4750 2203 4750 
Q 2588 4750 2994 4692 
Q 3400 4634 3834 4519 
z
" transform="scale(0.015625)"/>
      <path id="DejaVuSans-Bold-4b" d="M 4056 2131 
L 4056 0 
L 2931 0 
L 2931 347 
L 2931 1625 
Q 2931 2084 2911 2256 
Q 2891 2428 2841 2509 
Q 2775 2619 2662 2680 
Q 2550 2741 2406 2741 
Q 2056 2741 1856 2470 
Q 1656 2200 1656 1722 
L 1656 0 
L 538 0 
L 538 4863 
L 1656 4863 
L 1656 2988 
Q 1909 3294 2193 3439 
Q 2478 3584 2822 3584 
Q 3428 3584 3742 3212 
Q 4056 2841 4056 2131 
z
" transform="scale(0.015625)"/>
      <path id="DejaVuSans-Bold-46" d="M 3366 3391 
L 3366 2478 
Q 3138 2634 2908 2709 
Q 2678 2784 2431 2784 
Q 1963 2784 1702 2511 
Q 1441 2238 1441 1747 
Q 1441 1256 1702 982 
Q 1963 709 2431 709 
Q 2694 709 2930 787 
Q 3166 866 3366 1019 
L 3366 103 
Q 3103 6 2833 -42 
Q 2563 -91 2291 -91 
Q 1344 -91 809 395 
Q 275 881 275 1747 
Q 275 2613 809 3098 
Q 1344 3584 2291 3584 
Q 2566 3584 2833 3536 
Q 3100 3488 3366 3391 
z
" transform="scale(0.015625)"/>
     </defs>
     <use xlink:href="#DejaVuSans-Bold-36"/>
     <use xlink:href="#DejaVuSans-Bold-4b" transform="translate(72.015625 0)"/>
     <use xlink:href="#DejaVuSans-Bold-44" transform="translate(143.203125 0)"/>
     <use xlink:href="#DejaVuSans-Bold-55" transform="translate(210.6875 0)"/>
     <use xlink:href="#DejaVuSans-Bold-48" transform="translate(260 0)"/>
     <use xlink:href="#DejaVuSans-Bold-47" transform="translate(327.828125 0)"/>
     <use xlink:href="#DejaVuSans-Bold-3" transform="translate(399.40625 0)"/>
     <use xlink:href="#DejaVuSans-Bold-48" transform="translate(434.21875 0)"/>
     <use xlink:href="#DejaVuSans-Bold-51" transform="translate(502.046875 0)"/>
     <use xlink:href="#DejaVuSans-Bold-46" transform="translate(573.234375 0)"/>
     <use xlink:href="#DejaVuSans-Bold-52" transform="translate(632.515625 0)"/>
     <use xlink:href="#DejaVuSans-Bold-47" transform="translate(701.21875 0)"/>
     <use xlink:href="#DejaVuSans-Bold-48" transform="translate(772.796875 0)"/>
     <use xlink:href="#DejaVuSans-Bold-55" transform="translate(840.625 0)"/>
    </g>
    <!-- (CNN1D / U-Net) -->
    <g style="fill: #ffffff" transform="translate(163.713094 244.62106) scale(0.083 -0.083)">
     <defs>
      <path id="DejaVuSans-Bold-26" d="M 4288 256 
Q 3956 84 3597 -3 
Q 3238 -91 2847 -91 
Q 1681 -91 1000 561 
Q 319 1213 319 2328 
Q 319 3447 1000 4098 
Q 1681 4750 2847 4750 
Q 3238 4750 3597 4662 
Q 3956 4575 4288 4403 
L 4288 3438 
Q 3953 3666 3628 3772 
Q 3303 3878 2944 3878 
Q 2300 3878 1931 3465 
Q 1563 3053 1563 2328 
Q 1563 1606 1931 1193 
Q 2300 781 2944 781 
Q 3303 781 3628 887 
Q 3953 994 4288 1222 
L 4288 256 
z
" transform="scale(0.015625)"/>
      <path id="DejaVuSans-Bold-31" d="M 588 4666 
L 1931 4666 
L 3628 1466 
L 3628 4666 
L 4769 4666 
L 4769 0 
L 3425 0 
L 1728 3200 
L 1728 0 
L 588 0 
L 588 4666 
z
" transform="scale(0.015625)"/>
      <path id="DejaVuSans-Bold-27" d="M 1791 3756 
L 1791 909 
L 2222 909 
Q 2959 909 3348 1275 
Q 3738 1641 3738 2338 
Q 3738 3031 3350 3393 
Q 2963 3756 2222 3756 
L 1791 3756 
z
M 588 4666 
L 1856 4666 
Q 2919 4666 3439 4514 
Q 3959 4363 4331 4000 
Q 4659 3684 4818 3271 
Q 4978 2859 4978 2338 
Q 4978 1809 4818 1395 
Q 4659 981 4331 666 
Q 3956 303 3431 151 
Q 2906 0 1856 0 
L 588 0 
L 588 4666 
z
" transform="scale(0.015625)"/>
      <path id="DejaVuSans-Bold-12" d="M 1644 4666 
L 2338 4666 
L 691 -594 
L 0 -594 
L 1644 4666 
z
" transform="scale(0.015625)"/>
      <path id="DejaVuSans-Bold-38" d="M 588 4666 
L 1791 4666 
L 1791 1869 
Q 1791 1291 1980 1042 
Q 2169 794 2597 794 
Q 3028 794 3217 1042 
Q 3406 1291 3406 1869 
L 3406 4666 
L 4609 4666 
L 4609 1869 
Q 4609 878 4112 393 
Q 3616 -91 2597 -91 
Q 1581 -91 1084 393 
Q 588 878 588 1869 
L 588 4666 
z
" transform="scale(0.015625)"/>
      <path id="DejaVuSans-Bold-10" d="M 347 2297 
L 2309 2297 
L 2309 1388 
L 347 1388 
L 347 2297 
z
" transform="scale(0.015625)"/>
     </defs>
     <use xlink:href="#DejaVuSans-Bold-b"/>
     <use xlink:href="#DejaVuSans-Bold-26" transform="translate(45.703125 0)"/>
     <use xlink:href="#DejaVuSans-Bold-31" transform="translate(119.09375 0)"/>
     <use xlink:href="#DejaVuSans-Bold-31" transform="translate(202.78125 0)"/>
     <use xlink:href="#DejaVuSans-Bold-14" transform="translate(286.46875 0)"/>
     <use xlink:href="#DejaVuSans-Bold-27" transform="translate(356.046875 0)"/>
     <use xlink:href="#DejaVuSans-Bold-3" transform="translate(439.0625 0)"/>
     <use xlink:href="#DejaVuSans-Bold-12" transform="translate(473.875 0)"/>
     <use xlink:href="#DejaVuSans-Bold-3" transform="translate(510.40625 0)"/>
     <use xlink:href="#DejaVuSans-Bold-38" transform="translate(545.21875 0)"/>
     <use xlink:href="#DejaVuSans-Bold-10" transform="translate(626.421875 0)"/>
     <use xlink:href="#DejaVuSans-Bold-31" transform="translate(667.921875 0)"/>
     <use xlink:href="#DejaVuSans-Bold-48" transform="translate(751.609375 0)"/>
     <use xlink:href="#DejaVuSans-Bold-57" transform="translate(819.4375 0)"/>
     <use xlink:href="#DejaVuSans-Bold-c" transform="translate(867.234375 0)"/>
    </g>
   </g>
   <g id="text_3">
    <!-- State head -->
    <g style="fill: #ffffff" transform="translate(83.721201 140.797825) scale(0.083 -0.083)">
     <use xlink:href="#DejaVuSans-Bold-36"/>
     <use xlink:href="#DejaVuSans-Bold-57" transform="translate(72.015625 0)"/>
     <use xlink:href="#DejaVuSans-Bold-44" transform="translate(119.8125 0)"/>
     <use xlink:href="#DejaVuSans-Bold-57" transform="translate(187.296875 0)"/>
     <use xlink:href="#DejaVuSans-Bold-48" transform="translate(235.09375 0)"/>
     <use xlink:href="#DejaVuSans-Bold-3" transform="translate(302.921875 0)"/>
     <use xlink:href="#DejaVuSans-Bold-4b" transform="translate(337.734375 0)"/>
     <use xlink:href="#DejaVuSans-Bold-48" transform="translate(408.921875 0)"/>
     <use xlink:href="#DejaVuSans-Bold-44" transform="translate(476.75 0)"/>
     <use xlink:href="#DejaVuSans-Bold-47" transform="translate(544.234375 0)"/>
    </g>
    <!-- softmax, 2-way -->
    <g style="fill: #ffffff" transform="translate(73.522576 150.760094) scale(0.083 -0.083)">
     <defs>
      <path id="DejaVuSans-Bold-49" d="M 2841 4863 
L 2841 4128 
L 2222 4128 
Q 1984 4128 1890 4042 
Q 1797 3956 1797 3744 
L 1797 3500 
L 2753 3500 
L 2753 2700 
L 1797 2700 
L 1797 0 
L 678 0 
L 678 2700 
L 122 2700 
L 122 3500 
L 678 3500 
L 678 3744 
Q 678 4316 997 4589 
Q 1316 4863 1984 4863 
L 2841 4863 
z
" transform="scale(0.015625)"/>
      <path id="DejaVuSans-Bold-50" d="M 3781 2919 
Q 3994 3244 4286 3414 
Q 4578 3584 4928 3584 
Q 5531 3584 5847 3212 
Q 6163 2841 6163 2131 
L 6163 0 
L 5038 0 
L 5038 1825 
Q 5041 1866 5042 1909 
Q 5044 1953 5044 2034 
Q 5044 2406 4934 2573 
Q 4825 2741 4581 2741 
Q 4263 2741 4089 2478 
Q 3916 2216 3909 1719 
L 3909 0 
L 2784 0 
L 2784 1825 
Q 2784 2406 2684 2573 
Q 2584 2741 2328 2741 
Q 2006 2741 1831 2477 
Q 1656 2213 1656 1722 
L 1656 0 
L 531 0 
L 531 3500 
L 1656 3500 
L 1656 2988 
Q 1863 3284 2130 3434 
Q 2397 3584 2719 3584 
Q 3081 3584 3359 3409 
Q 3638 3234 3781 2919 
z
" transform="scale(0.015625)"/>
      <path id="DejaVuSans-Bold-5b" d="M 1422 1791 
L 159 3500 
L 1344 3500 
L 2059 2463 
L 2784 3500 
L 3969 3500 
L 2706 1797 
L 4031 0 
L 2847 0 
L 2059 1106 
L 1281 0 
L 97 0 
L 1422 1791 
z
" transform="scale(0.015625)"/>
      <path id="DejaVuSans-Bold-f" d="M 653 1209 
L 1778 1209 
L 1778 256 
L 1006 -909 
L 341 -909 
L 653 256 
L 653 1209 
z
" transform="scale(0.015625)"/>
      <path id="DejaVuSans-Bold-15" d="M 1844 884 
L 3897 884 
L 3897 0 
L 506 0 
L 506 884 
L 2209 2388 
Q 2438 2594 2547 2791 
Q 2656 2988 2656 3200 
Q 2656 3528 2436 3728 
Q 2216 3928 1850 3928 
Q 1569 3928 1234 3808 
Q 900 3688 519 3450 
L 519 4475 
Q 925 4609 1322 4679 
Q 1719 4750 2100 4750 
Q 2938 4750 3402 4381 
Q 3866 4013 3866 3353 
Q 3866 2972 3669 2642 
Q 3472 2313 2841 1759 
L 1844 884 
z
" transform="scale(0.015625)"/>
      <path id="DejaVuSans-Bold-5c" d="M 78 3500 
L 1197 3500 
L 2138 1125 
L 2938 3500 
L 4056 3500 
L 2584 -331 
Q 2363 -916 2067 -1148 
Q 1772 -1381 1288 -1381 
L 641 -1381 
L 641 -647 
L 991 -647 
Q 1275 -647 1404 -556 
Q 1534 -466 1606 -231 
L 1638 -134 
L 78 3500 
z
" transform="scale(0.015625)"/>
     </defs>
     <use xlink:href="#DejaVuSans-Bold-56"/>
     <use xlink:href="#DejaVuSans-Bold-52" transform="translate(59.515625 0)"/>
     <use xlink:href="#DejaVuSans-Bold-49" transform="translate(128.21875 0)"/>
     <use xlink:href="#DejaVuSans-Bold-57" transform="translate(171.71875 0)"/>
     <use xlink:href="#DejaVuSans-Bold-50" transform="translate(219.515625 0)"/>
     <use xlink:href="#DejaVuSans-Bold-44" transform="translate(323.71875 0)"/>
     <use xlink:href="#DejaVuSans-Bold-5b" transform="translate(391.203125 0)"/>
     <use xlink:href="#DejaVuSans-Bold-f" transform="translate(455.703125 0)"/>
     <use xlink:href="#DejaVuSans-Bold-3" transform="translate(493.6875 0)"/>
     <use xlink:href="#DejaVuSans-Bold-15" transform="translate(528.5 0)"/>
     <use xlink:href="#DejaVuSans-Bold-10" transform="translate(598.078125 0)"/>
     <use xlink:href="#DejaVuSans-Bold-5a" transform="translate(639.578125 0)"/>
     <use xlink:href="#DejaVuSans-Bold-44" transform="translate(731.96875 0)"/>
     <use xlink:href="#DejaVuSans-Bold-5c" transform="translate(796.375 0)"/>
    </g>
   </g>
   <g id="text_4">
    <!-- Power head -->
    <g style="fill: #ffffff" transform="translate(272.503912 140.797825) scale(0.083 -0.083)">
     <defs>
      <path id="DejaVuSans-Bold-33" d="M 588 4666 
L 2584 4666 
Q 3475 4666 3951 4270 
Q 4428 3875 4428 3144 
Q 4428 2409 3951 2014 
Q 3475 1619 2584 1619 
L 1791 1619 
L 1791 0 
L 588 0 
L 588 4666 
z
M 1791 3794 
L 1791 2491 
L 2456 2491 
Q 2806 2491 2997 2661 
Q 3188 2831 3188 3144 
Q 3188 3456 2997 3625 
Q 2806 3794 2456 3794 
L 1791 3794 
z
" transform="scale(0.015625)"/>
     </defs>
     <use xlink:href="#DejaVuSans-Bold-33"/>
     <use xlink:href="#DejaVuSans-Bold-52" transform="translate(73.296875 0)"/>
     <use xlink:href="#DejaVuSans-Bold-5a" transform="translate(142 0)"/>
     <use xlink:href="#DejaVuSans-Bold-48" transform="translate(234.390625 0)"/>
     <use xlink:href="#DejaVuSans-Bold-55" transform="translate(302.21875 0)"/>
     <use xlink:href="#DejaVuSans-Bold-3" transform="translate(351.53125 0)"/>
     <use xlink:href="#DejaVuSans-Bold-4b" transform="translate(386.34375 0)"/>
     <use xlink:href="#DejaVuSans-Bold-48" transform="translate(457.53125 0)"/>
     <use xlink:href="#DejaVuSans-Bold-44" transform="translate(525.359375 0)"/>
     <use xlink:href="#DejaVuSans-Bold-47" transform="translate(592.84375 0)"/>
    </g>
    <!-- 5 quantiles -->
    <g style="fill: #ffffff" transform="translate(273.951872 150.760094) scale(0.083 -0.083)">
     <defs>
      <path id="DejaVuSans-Bold-18" d="M 678 4666 
L 3669 4666 
L 3669 3781 
L 1638 3781 
L 1638 3059 
Q 1775 3097 1914 3117 
Q 2053 3138 2203 3138 
Q 3056 3138 3531 2711 
Q 4006 2284 4006 1522 
Q 4006 766 3489 337 
Q 2972 -91 2053 -91 
Q 1656 -91 1267 -14 
Q 878 63 494 219 
L 494 1166 
Q 875 947 1217 837 
Q 1559 728 1863 728 
Q 2300 728 2551 942 
Q 2803 1156 2803 1522 
Q 2803 1891 2551 2103 
Q 2300 2316 1863 2316 
Q 1603 2316 1309 2248 
Q 1016 2181 678 2041 
L 678 4666 
z
" transform="scale(0.015625)"/>
      <path id="DejaVuSans-Bold-54" d="M 2181 2772 
Q 1825 2772 1636 2509 
Q 1447 2247 1447 1747 
Q 1447 1247 1636 984 
Q 1825 722 2181 722 
Q 2541 722 2730 984 
Q 2919 1247 2919 1747 
Q 2919 2247 2730 2509 
Q 2541 2772 2181 2772 
z
M 2919 506 
Q 2688 197 2409 53 
Q 2131 -91 1766 -91 
Q 1119 -91 703 423 
Q 288 938 288 1747 
Q 288 2556 703 3067 
Q 1119 3578 1766 3578 
Q 2131 3578 2409 3434 
Q 2688 3291 2919 2981 
L 2919 3500 
L 4044 3500 
L 4044 -1331 
L 2919 -1331 
L 2919 506 
z
" transform="scale(0.015625)"/>
      <path id="DejaVuSans-Bold-4f" d="M 538 4863 
L 1656 4863 
L 1656 0 
L 538 0 
L 538 4863 
z
" transform="scale(0.015625)"/>
     </defs>
     <use xlink:href="#DejaVuSans-Bold-18"/>
     <use xlink:href="#DejaVuSans-Bold-3" transform="translate(69.578125 0)"/>
     <use xlink:href="#DejaVuSans-Bold-54" transform="translate(104.390625 0)"/>
     <use xlink:href="#DejaVuSans-Bold-58" transform="translate(175.96875 0)"/>
     <use xlink:href="#DejaVuSans-Bold-44" transform="translate(247.15625 0)"/>
     <use xlink:href="#DejaVuSans-Bold-51" transform="translate(314.640625 0)"/>
     <use xlink:href="#DejaVuSans-Bold-57" transform="translate(385.828125 0)"/>
     <use xlink:href="#DejaVuSans-Bold-4c" transform="translate(433.625 0)"/>
     <use xlink:href="#DejaVuSans-Bold-4f" transform="translate(467.90625 0)"/>
     <use xlink:href="#DejaVuSans-Bold-48" transform="translate(502.1875 0)"/>
     <use xlink:href="#DejaVuSans-Bold-56" transform="translate(570.015625 0)"/>
    </g>
   </g>
   <g id="text_5">
    <!-- on / off -->
    <g style="fill: #059669" transform="translate(90.479294 72.098419) scale(0.095 -0.095)">
     <defs>
      <path id="DejaVuSans-Bold-13aa" d="M 2841 4863 
L 2841 4128 
L 2222 4128 
Q 1984 4128 1891 4044 
Q 1797 3956 1797 3744 
L 1797 3500 
L 3078 3500 
L 3078 3744 
Q 3078 4316 3397 4588 
Q 3716 4863 4384 4863 
L 5241 4863 
L 5241 4128 
L 4622 4128 
Q 4384 4128 4291 4044 
Q 4197 3956 4197 3744 
L 4197 3500 
L 5153 3500 
L 5153 2700 
L 4197 2700 
L 4197 0 
L 3078 0 
L 3078 2700 
L 1797 2700 
L 1797 0 
L 678 0 
L 678 2700 
L 122 2700 
L 122 3500 
L 678 3500 
L 678 3744 
Q 678 4316 997 4588 
Q 1316 4863 1984 4863 
L 2841 4863 
z
" transform="scale(0.015625)"/>
     </defs>
     <use xlink:href="#DejaVuSans-Bold-52"/>
     <use xlink:href="#DejaVuSans-Bold-51" transform="translate(68.703125 0)"/>
     <use xlink:href="#DejaVuSans-Bold-3" transform="translate(139.890625 0)"/>
     <use xlink:href="#DejaVuSans-Bold-12" transform="translate(174.703125 0)"/>
     <use xlink:href="#DejaVuSans-Bold-3" transform="translate(211.234375 0)"/>
     <use xlink:href="#DejaVuSans-Bold-52" transform="translate(246.046875 0)"/>
     <use xlink:href="#DejaVuSans-Bold-13aa" transform="translate(314.75 0)"/>
    </g>
   </g>
   <g id="text_6">
    <!-- power band -->
    <g style="fill: #ea580c" transform="translate(268.420896 72.098419) scale(0.095 -0.095)">
     <defs>
      <path id="DejaVuSans-Bold-45" d="M 2400 722 
Q 2759 722 2948 984 
Q 3138 1247 3138 1747 
Q 3138 2247 2948 2509 
Q 2759 2772 2400 2772 
Q 2041 2772 1848 2508 
Q 1656 2244 1656 1747 
Q 1656 1250 1848 986 
Q 2041 722 2400 722 
z
M 1656 2988 
Q 1888 3294 2169 3439 
Q 2450 3584 2816 3584 
Q 3463 3584 3878 3070 
Q 4294 2556 4294 1747 
Q 4294 938 3878 423 
Q 3463 -91 2816 -91 
Q 2450 -91 2169 54 
Q 1888 200 1656 506 
L 1656 0 
L 538 0 
L 538 4863 
L 1656 4863 
L 1656 2988 
z
" transform="scale(0.015625)"/>
     </defs>
     <use xlink:href="#DejaVuSans-Bold-53"/>
     <use xlink:href="#DejaVuSans-Bold-52" transform="translate(71.578125 0)"/>
     <use xlink:href="#DejaVuSans-Bold-5a" transform="translate(140.28125 0)"/>
     <use xlink:href="#DejaVuSans-Bold-48" transform="translate(232.671875 0)"/>
     <use xlink:href="#DejaVuSans-Bold-55" transform="translate(300.5 0)"/>
     <use xlink:href="#DejaVuSans-Bold-3" transform="translate(349.8125 0)"/>
     <use xlink:href="#DejaVuSans-Bold-45" transform="translate(384.625 0)"/>
     <use xlink:href="#DejaVuSans-Bold-44" transform="translate(456.203125 0)"/>
     <use xlink:href="#DejaVuSans-Bold-51" transform="translate(523.6875 0)"/>
     <use xlink:href="#DejaVuSans-Bold-47" transform="translate(594.875 0)"/>
    </g>
   </g>
   <g id="text_7">
    <!-- One representation, two tasks -->
    <g style="fill: #1e293b" transform="translate(102.82668 50.076014) scale(0.115 -0.115)">
     <defs>
      <path id="DejaVuSans-Bold-32" d="M 2719 3878 
Q 2169 3878 1866 3472 
Q 1563 3066 1563 2328 
Q 1563 1594 1866 1187 
Q 2169 781 2719 781 
Q 3272 781 3575 1187 
Q 3878 1594 3878 2328 
Q 3878 3066 3575 3472 
Q 3272 3878 2719 3878 
z
M 2719 4750 
Q 3844 4750 4481 4106 
Q 5119 3463 5119 2328 
Q 5119 1197 4481 553 
Q 3844 -91 2719 -91 
Q 1597 -91 958 553 
Q 319 1197 319 2328 
Q 319 3463 958 4106 
Q 1597 4750 2719 4750 
z
" transform="scale(0.015625)"/>
      <path id="DejaVuSans-Bold-4e" d="M 538 4863 
L 1656 4863 
L 1656 2216 
L 2944 3500 
L 4244 3500 
L 2534 1894 
L 4378 0 
L 3022 0 
L 1656 1459 
L 1656 0 
L 538 0 
L 538 4863 
z
" transform="scale(0.015625)"/>
     </defs>
     <use xlink:href="#DejaVuSans-Bold-32"/>
     <use xlink:href="#DejaVuSans-Bold-51" transform="translate(85.015625 0)"/>
     <use xlink:href="#DejaVuSans-Bold-48" transform="translate(156.203125 0)"/>
     <use xlink:href="#DejaVuSans-Bold-3" transform="translate(224.03125 0)"/>
     <use xlink:href="#DejaVuSans-Bold-55" transform="translate(258.84375 0)"/>
     <use xlink:href="#DejaVuSans-Bold-48" transform="translate(308.15625 0)"/>
     <use xlink:href="#DejaVuSans-Bold-53" transform="translate(375.984375 0)"/>
     <use xlink:href="#DejaVuSans-Bold-55" transform="translate(447.5625 0)"/>
     <use xlink:href="#DejaVuSans-Bold-48" transform="translate(496.875 0)"/>
     <use xlink:href="#DejaVuSans-Bold-56" transform="translate(564.703125 0)"/>
     <use xlink:href="#DejaVuSans-Bold-48" transform="translate(624.21875 0)"/>
     <use xlink:href="#DejaVuSans-Bold-51" transform="translate(692.046875 0)"/>
     <use xlink:href="#DejaVuSans-Bold-57" transform="translate(763.234375 0)"/>
     <use xlink:href="#DejaVuSans-Bold-44" transform="translate(811.03125 0)"/>
     <use xlink:href="#DejaVuSans-Bold-57" transform="translate(878.515625 0)"/>
     <use xlink:href="#DejaVuSans-Bold-4c" transform="translate(926.3125 0)"/>
     <use xlink:href="#DejaVuSans-Bold-52" transform="translate(960.59375 0)"/>
     <use xlink:href="#DejaVuSans-Bold-51" transform="translate(1029.296875 0)"/>
     <use xlink:href="#DejaVuSans-Bold-f" transform="translate(1100.484375 0)"/>
     <use xlink:href="#DejaVuSans-Bold-3" transform="translate(1138.46875 0)"/>
     <use xlink:href="#DejaVuSans-Bold-57" transform="translate(1173.28125 0)"/>
     <use xlink:href="#DejaVuSans-Bold-5a" transform="translate(1221.078125 0)"/>
     <use xlink:href="#DejaVuSans-Bold-52" transform="translate(1313.46875 0)"/>
     <use xlink:href="#DejaVuSans-Bold-3" transform="translate(1382.171875 0)"/>
     <use xlink:href="#DejaVuSans-Bold-57" transform="translate(1416.984375 0)"/>
     <use xlink:href="#DejaVuSans-Bold-44" transform="translate(1464.78125 0)"/>
     <use xlink:href="#DejaVuSans-Bold-56" transform="translate(1532.265625 0)"/>
     <use xlink:href="#DejaVuSans-Bold-4e" transform="translate(1591.78125 0)"/>
     <use xlink:href="#DejaVuSans-Bold-56" transform="translate(1658.28125 0)"/>
    </g>
   </g>
  </g>
 </g>
 <defs>
  <clipPath id="p138053fed2">
   <rect x="10.8" y="28.219355" width="381.6" height="332.36129"/>
  </clipPath>
 </defs>
</svg>
