<?xml version="1.0" encoding="utf-8" standalone="no"?>
<!DOCTYPE svg PUBLIC "-//W3C//DTD SVG 1.1//EN"
  "http://www.w3.org/Graphics/SVG/1.1/DTD/svg11.dtd">
<svg xmlns:xlink="http://www.w3.org/1999/xlink" width="460.8pt" height="360pt" viewBox="0 0 460.8 360" xmlns="http://www.w3.org/2000/svg" version="1.1">
 <metadata>
  <rdf:RDF xmlns:dc="http://purl.org/dc/elements/1.1/" xmlns:cc="http://creativecommons.org/ns#" xmlns:rdf="http://www.w3.org/1999/02/22-rdf-syntax-ns#">
   <cc:Work>
    <dc:type rdf:resource="http://purl.org/dc/dcmitype/StillImage"/>
    <dc:date>2026-07-19T20:45:46.770027</dc:date>
    <dc:format>image/svg+xml</dc:format>
    <dc:creator>
     <cc:Agent>
      <dc:title>Matplotlib v3.11.0, https://matplotlib.org/</dc:title>
     </cc:Agent>
    </dc:creator>
   </cc:Work>
  </rdf:RDF>
 </metadata>
 <defs>
  <style type="text/css">*{stroke-linejoin: round; stroke-linecap: butt}</style>
 </defs>
 <g id="figure_1">
  <g id="patch_1">
   <path d="M 0 360 
L 460.8 360 
L 460.8 0 
L 0 0 
z
" style="fill: #ffffff"/>
  </g>
  <g id="axes_1">
   <g id="PathCollection_1">
    <defs>
     <path id="C0_0_6e0d7fd7ef" d="M 0 2.915476 
C 0.773193 2.915476 1.514823 2.608283 2.061553 2.061553 
C 2.608283 1.514823 2.915476 0.773193 2.915476 -0 
C 2.915476 -0.773193 2.608283 -1.514823 2.061553 -2.061553 
C 1.514823 -2.608283 0.773193 -2.915476 0 -2.915476 
C -0.773193 -2.915476 -1.514823 -2.608283 -2.061553 -2.061553 
C -2.608283 -1.514823 -2.915476 -0.773193 -2.915476 0 
C -2.915476 0.773193 -2.608283 1.514823 -2.061553 2.061553 
C -1.514823 2.608283 -0.773193 2.915476 0 2.915476 
z
"/>
    </defs>
    <g clip-path="url(#p2b9aa65a14)">
     <use xlink:href="#C0_0_6e0d7fd7ef" x="166.658173" y="94.368627" style="fill: #1e293b; fill-opacity: 0.8"/>
    </g>
    <g clip-path="url(#p2b9aa65a14)">
     <use xlink:href="#C0_0_6e0d7fd7ef" x="213.143725" y="167.387067" style="fill: #1e293b; fill-opacity: 0.8"/>
    </g>
    <g clip-path="url(#p2b9aa65a14)">
     <use xlink:href="#C0_0_6e0d7fd7ef" x="153.688514" y="168.053863" style="fill: #1e293b; fill-opacity: 0.8"/>
    </g>
    <g clip-path="url(#p2b9aa65a14)">
     <use xlink:href="#C0_0_6e0d7fd7ef" x="187.5687" y="149.650639" style="fill: #1e293b; fill-opacity: 0.8"/>
    </g>
    <g clip-path="url(#p2b9aa65a14)">
     <use xlink:href="#C0_0_6e0d7fd7ef" x="194.486088" y="219.592467" style="fill: #1e293b; fill-opacity: 0.8"/>
    </g>
    <g clip-path="url(#p2b9aa65a14)">
     <use xlink:href="#C0_0_6e0d7fd7ef" x="226.490781" y="151.226843" style="fill: #1e293b; fill-opacity: 0.8"/>
    </g>
    <g clip-path="url(#p2b9aa65a14)">
     <use xlink:href="#C0_0_6e0d7fd7ef" x="191.889239" y="152.793929" style="fill: #1e293b; fill-opacity: 0.8"/>
    </g>
    <g clip-path="url(#p2b9aa65a14)">
     <use xlink:href="#C0_0_6e0d7fd7ef" x="150.520736" y="129.378868" style="fill: #1e293b; fill-opacity: 0.8"/>
    </g>
    <g clip-path="url(#p2b9aa65a14)">
     <use xlink:href="#C0_0_6e0d7fd7ef" x="197.517159" y="155.369551" style="fill: #1e293b; fill-opacity: 0.8"/>
    </g>
    <g clip-path="url(#p2b9aa65a14)">
     <use xlink:href="#C0_0_6e0d7fd7ef" x="159.357364" y="120.687645" style="fill: #1e293b; fill-opacity: 0.8"/>
    </g>
    <g clip-path="url(#p2b9aa65a14)">
     <use xlink:href="#C0_0_6e0d7fd7ef" x="131.339622" y="206.59239" style="fill: #1e293b; fill-opacity: 0.8"/>
    </g>
    <g clip-path="url(#p2b9aa65a14)">
     <use xlink:href="#C0_0_6e0d7fd7ef" x="180.7456" y="173.644555" style="fill: #1e293b; fill-opacity: 0.8"/>
    </g>
    <g clip-path="url(#p2b9aa65a14)">
     <use xlink:href="#C0_0_6e0d7fd7ef" x="90.341163" y="179.247203" style="fill: #1e293b; fill-opacity: 0.8"/>
    </g>
    <g clip-path="url(#p2b9aa65a14)">
     <use xlink:href="#C0_0_6e0d7fd7ef" x="147.065191" y="194.051506" style="fill: #1e293b; fill-opacity: 0.8"/>
    </g>
   </g>
   <g id="PathCollection_2">
    <defs>
     <path id="C1_0_d3b6cabd01" d="M 0 2.915476 
C 0.773193 2.915476 1.514823 2.608283 2.061553 2.061553 
C 2.608283 1.514823 2.915476 0.773193 2.915476 -0 
C 2.915476 -0.773193 2.608283 -1.514823 2.061553 -2.061553 
C 1.514823 -2.608283 0.773193 -2.915476 0 -2.915476 
C -0.773193 -2.915476 -1.514823 -2.608283 -2.061553 -2.061553 
C -2.608283 -1.514823 -2.915476 -0.773193 -2.915476 0 
C -2.915476 0.773193 -2.608283 1.514823 -2.061553 2.061553 
C -1.514823 2.608283 -0.773193 2.915476 0 2.915476 
z
"/>
    </defs>
    <g clip-path="url(#p2b9aa65a14)">
     <use xlink:href="#C1_0_d3b6cabd01" x="237.201949" y="211.107895" style="fill: #0369a1; fill-opacity: 0.8"/>
    </g>
    <g clip-path="url(#p2b9aa65a14)">
     <use xlink:href="#C1_0_d3b6cabd01" x="330.511056" y="221.641373" style="fill: #0369a1; fill-opacity: 0.8"/>
    </g>
    <g clip-path="url(#p2b9aa65a14)">
     <use xlink:href="#C1_0_d3b6cabd01" x="266.442358" y="197.505934" style="fill: #0369a1; fill-opacity: 0.8"/>
    </g>
    <g clip-path="url(#p2b9aa65a14)">
     <use xlink:href="#C1_0_d3b6cabd01" x="323.482223" y="224.252722" style="fill: #0369a1; fill-opacity: 0.8"/>
    </g>
    <g clip-path="url(#p2b9aa65a14)">
     <use xlink:href="#C1_0_d3b6cabd01" x="316.744106" y="171.818185" style="fill: #0369a1; fill-opacity: 0.8"/>
    </g>
    <g clip-path="url(#p2b9aa65a14)">
     <use xlink:href="#C1_0_d3b6cabd01" x="287.39607" y="244.303115" style="fill: #0369a1; fill-opacity: 0.8"/>
    </g>
    <g clip-path="url(#p2b9aa65a14)">
     <use xlink:href="#C1_0_d3b6cabd01" x="309.051342" y="202.872752" style="fill: #0369a1; fill-opacity: 0.8"/>
    </g>
    <g clip-path="url(#p2b9aa65a14)">
     <use xlink:href="#C1_0_d3b6cabd01" x="338.381335" y="262.6964" style="fill: #0369a1; fill-opacity: 0.8"/>
    </g>
    <g clip-path="url(#p2b9aa65a14)">
     <use xlink:href="#C1_0_d3b6cabd01" x="269.643483" y="245.265658" style="fill: #0369a1; fill-opacity: 0.8"/>
    </g>
    <g clip-path="url(#p2b9aa65a14)">
     <use xlink:href="#C1_0_d3b6cabd01" x="227.770313" y="207.601678" style="fill: #0369a1; fill-opacity: 0.8"/>
    </g>
    <g clip-path="url(#p2b9aa65a14)">
     <use xlink:href="#C1_0_d3b6cabd01" x="316.085648" y="241.385371" style="fill: #0369a1; fill-opacity: 0.8"/>
    </g>
    <g clip-path="url(#p2b9aa65a14)">
     <use xlink:href="#C1_0_d3b6cabd01" x="349.581112" y="180.445477" style="fill: #0369a1; fill-opacity: 0.8"/>
    </g>
    <g clip-path="url(#p2b9aa65a14)">
     <use xlink:href="#C1_0_d3b6cabd01" x="319.973562" y="196.853345" style="fill: #0369a1; fill-opacity: 0.8"/>
    </g>
    <g clip-path="url(#p2b9aa65a14)">
     <use xlink:href="#C1_0_d3b6cabd01" x="332.792144" y="264.547151" style="fill: #0369a1; fill-opacity: 0.8"/>
    </g>
   </g>
   <g id="patch_2">
    <path d="M 147.160362 74.498745 
Q 152.665025 118.875157 158.169687 163.25157 
" style="fill: none; stroke: #059669; stroke-width: 0.9; stroke-linecap: round"/>
   </g>
   <g id="text_1">
    <!-- must-link -->
    <g style="fill: #059669" transform="translate(125.638087 57.419314) scale(0.085 -0.085)">
     <defs>
      <path id="DejaVuSans-50" d="M 3328 2828 
Q 3544 3216 3844 3400 
Q 4144 3584 4550 3584 
Q 5097 3584 5394 3201 
Q 5691 2819 5691 2113 
L 5691 0 
L 5113 0 
L 5113 2094 
Q 5113 2597 4934 2840 
Q 4756 3084 4391 3084 
Q 3944 3084 3684 2787 
Q 3425 2491 3425 1978 
L 3425 0 
L 2847 0 
L 2847 2094 
Q 2847 2600 2669 2842 
Q 2491 3084 2119 3084 
Q 1678 3084 1418 2786 
Q 1159 2488 1159 1978 
L 1159 0 
L 581 0 
L 581 3500 
L 1159 3500 
L 1159 2956 
Q 1356 3278 1631 3431 
Q 1906 3584 2284 3584 
Q 2666 3584 2933 3390 
Q 3200 3197 3328 2828 
z
" transform="scale(0.015625)"/>
      <path id="DejaVuSans-58" d="M 544 1381 
L 544 3500 
L 1119 3500 
L 1119 1403 
Q 1119 906 1312 657 
Q 1506 409 1894 409 
Q 2359 409 2629 706 
Q 2900 1003 2900 1516 
L 2900 3500 
L 3475 3500 
L 3475 0 
L 2900 0 
L 2900 538 
Q 2691 219 2414 64 
Q 2138 -91 1772 -91 
Q 1169 -91 856 284 
Q 544 659 544 1381 
z
M 1991 3584 
L 1991 3584 
z
" transform="scale(0.015625)"/>
      <path id="DejaVuSans-56" d="M 2834 3397 
L 2834 2853 
Q 2591 2978 2328 3040 
Q 2066 3103 1784 3103 
Q 1356 3103 1142 2972 
Q 928 2841 928 2578 
Q 928 2378 1081 2264 
Q 1234 2150 1697 2047 
L 1894 2003 
Q 2506 1872 2764 1633 
Q 3022 1394 3022 966 
Q 3022 478 2636 193 
Q 2250 -91 1575 -91 
Q 1294 -91 989 -36 
Q 684 19 347 128 
L 347 722 
Q 666 556 975 473 
Q 1284 391 1588 391 
Q 1994 391 2212 530 
Q 2431 669 2431 922 
Q 2431 1156 2273 1281 
Q 2116 1406 1581 1522 
L 1381 1569 
Q 847 1681 609 1914 
Q 372 2147 372 2553 
Q 372 3047 722 3315 
Q 1072 3584 1716 3584 
Q 2034 3584 2315 3537 
Q 2597 3491 2834 3397 
z
" transform="scale(0.015625)"/>
      <path id="DejaVuSans-57" d="M 1172 4494 
L 1172 3500 
L 2356 3500 
L 2356 3053 
L 1172 3053 
L 1172 1153 
Q 1172 725 1289 603 
Q 1406 481 1766 481 
L 2356 481 
L 2356 0 
L 1766 0 
Q 1100 0 847 248 
Q 594 497 594 1153 
L 594 3053 
L 172 3053 
L 172 3500 
L 594 3500 
L 594 4494 
L 1172 4494 
z
" transform="scale(0.015625)"/>
      <path id="DejaVuSans-10" d="M 313 2009 
L 1997 2009 
L 1997 1497 
L 313 1497 
L 313 2009 
z
" transform="scale(0.015625)"/>
      <path id="DejaVuSans-4f" d="M 603 4863 
L 1178 4863 
L 1178 0 
L 603 0 
L 603 4863 
z
" transform="scale(0.015625)"/>
      <path id="DejaVuSans-4c" d="M 603 3500 
L 1178 3500 
L 1178 0 
L 603 0 
L 603 3500 
z
M 603 4863 
L 1178 4863 
L 1178 4134 
L 603 4134 
L 603 4863 
z
" transform="scale(0.015625)"/>
      <path id="DejaVuSans-51" d="M 3513 2113 
L 3513 0 
L 2938 0 
L 2938 2094 
Q 2938 2591 2744 2837 
Q 2550 3084 2163 3084 
Q 1697 3084 1428 2787 
Q 1159 2491 1159 1978 
L 1159 0 
L 581 0 
L 581 3500 
L 1159 3500 
L 1159 2956 
Q 1366 3272 1645 3428 
Q 1925 3584 2291 3584 
Q 2894 3584 3203 3211 
Q 3513 2838 3513 2113 
z
" transform="scale(0.015625)"/>
      <path id="DejaVuSans-4e" d="M 581 4863 
L 1159 4863 
L 1159 1991 
L 2875 3500 
L 3609 3500 
L 1753 1863 
L 3688 0 
L 2938 0 
L 1159 1709 
L 1159 0 
L 581 0 
L 581 4863 
z
" transform="scale(0.015625)"/>
     </defs>
     <use xlink:href="#DejaVuSans-50"/>
     <use xlink:href="#DejaVuSans-58" transform="translate(97.40625 0)"/>
     <use xlink:href="#DejaVuSans-56" transform="translate(160.78125 0)"/>
     <use xlink:href="#DejaVuSans-57" transform="translate(212.875 0)"/>
     <use xlink:href="#DejaVuSans-10" transform="translate(252.078125 0)"/>
     <use xlink:href="#DejaVuSans-4f" transform="translate(288.15625 0)"/>
     <use xlink:href="#DejaVuSans-4c" transform="translate(315.9375 0)"/>
     <use xlink:href="#DejaVuSans-51" transform="translate(343.71875 0)"/>
     <use xlink:href="#DejaVuSans-4e" transform="translate(407.09375 0)"/>
    </g>
    <!-- (same real feeder) -->
    <g style="fill: #059669" transform="translate(105.96922 67.621639) scale(0.085 -0.085)">
     <defs>
      <path id="DejaVuSans-b" d="M 1984 4856 
Q 1566 4138 1362 3434 
Q 1159 2731 1159 2009 
Q 1159 1288 1364 580 
Q 1569 -128 1984 -844 
L 1484 -844 
Q 1016 -109 783 600 
Q 550 1309 550 2009 
Q 550 2706 781 3412 
Q 1013 4119 1484 4856 
L 1984 4856 
z
" transform="scale(0.015625)"/>
      <path id="DejaVuSans-44" d="M 2194 1759 
Q 1497 1759 1228 1600 
Q 959 1441 959 1056 
Q 959 750 1161 570 
Q 1363 391 1709 391 
Q 2188 391 2477 730 
Q 2766 1069 2766 1631 
L 2766 1759 
L 2194 1759 
z
M 3341 1997 
L 3341 0 
L 2766 0 
L 2766 531 
Q 2569 213 2275 61 
Q 1981 -91 1556 -91 
Q 1019 -91 701 211 
Q 384 513 384 1019 
Q 384 1609 779 1909 
Q 1175 2209 1959 2209 
L 2766 2209 
L 2766 2266 
Q 2766 2663 2505 2880 
Q 2244 3097 1772 3097 
Q 1472 3097 1187 3025 
Q 903 2953 641 2809 
L 641 3341 
Q 956 3463 1253 3523 
Q 1550 3584 1831 3584 
Q 2591 3584 2966 3190 
Q 3341 2797 3341 1997 
z
" transform="scale(0.015625)"/>
      <path id="DejaVuSans-48" d="M 3597 1894 
L 3597 1613 
L 953 1613 
Q 991 1019 1311 708 
Q 1631 397 2203 397 
Q 2534 397 2845 478 
Q 3156 559 3463 722 
L 3463 178 
Q 3153 47 2828 -22 
Q 2503 -91 2169 -91 
Q 1331 -91 842 396 
Q 353 884 353 1716 
Q 353 2575 817 3079 
Q 1281 3584 2069 3584 
Q 2775 3584 3186 3129 
Q 3597 2675 3597 1894 
z
M 3022 2063 
Q 3016 2534 2758 2815 
Q 2500 3097 2075 3097 
Q 1594 3097 1305 2825 
Q 1016 2553 972 2059 
L 3022 2063 
z
" transform="scale(0.015625)"/>
      <path id="DejaVuSans-3" transform="scale(0.015625)"/>
      <path id="DejaVuSans-55" d="M 2631 2963 
Q 2534 3019 2420 3045 
Q 2306 3072 2169 3072 
Q 1681 3072 1420 2755 
Q 1159 2438 1159 1844 
L 1159 0 
L 581 0 
L 581 3500 
L 1159 3500 
L 1159 2956 
Q 1341 3275 1631 3429 
Q 1922 3584 2338 3584 
Q 2397 3584 2469 3576 
Q 2541 3569 2628 3553 
L 2631 2963 
z
" transform="scale(0.015625)"/>
      <path id="DejaVuSans-49" d="M 2375 4863 
L 2375 4384 
L 1825 4384 
Q 1516 4384 1395 4259 
Q 1275 4134 1275 3809 
L 1275 3500 
L 2222 3500 
L 2222 3053 
L 1275 3053 
L 1275 0 
L 697 0 
L 697 3053 
L 147 3053 
L 147 3500 
L 697 3500 
L 697 3744 
Q 697 4328 969 4595 
Q 1241 4863 1831 4863 
L 2375 4863 
z
" transform="scale(0.015625)"/>
      <path id="DejaVuSans-47" d="M 2906 2969 
L 2906 4863 
L 3481 4863 
L 3481 0 
L 2906 0 
L 2906 525 
Q 2725 213 2448 61 
Q 2172 -91 1784 -91 
Q 1150 -91 751 415 
Q 353 922 353 1747 
Q 353 2572 751 3078 
Q 1150 3584 1784 3584 
Q 2172 3584 2448 3432 
Q 2725 3281 2906 2969 
z
M 947 1747 
Q 947 1113 1208 752 
Q 1469 391 1925 391 
Q 2381 391 2643 752 
Q 2906 1113 2906 1747 
Q 2906 2381 2643 2742 
Q 2381 3103 1925 3103 
Q 1469 3103 1208 2742 
Q 947 2381 947 1747 
z
" transform="scale(0.015625)"/>
      <path id="DejaVuSans-c" d="M 513 4856 
L 1013 4856 
Q 1481 4119 1714 3412 
Q 1947 2706 1947 2009 
Q 1947 1309 1714 600 
Q 1481 -109 1013 -844 
L 513 -844 
Q 928 -128 1133 580 
Q 1338 1288 1338 2009 
Q 1338 2731 1133 3434 
Q 928 4138 513 4856 
z
" transform="scale(0.015625)"/>
     </defs>
     <use xlink:href="#DejaVuSans-b"/>
     <use xlink:href="#DejaVuSans-56" transform="translate(39.015625 0)"/>
     <use xlink:href="#DejaVuSans-44" transform="translate(91.109375 0)"/>
     <use xlink:href="#DejaVuSans-50" transform="translate(152.390625 0)"/>
     <use xlink:href="#DejaVuSans-48" transform="translate(249.796875 0)"/>
     <use xlink:href="#DejaVuSans-3" transform="translate(311.328125 0)"/>
     <use xlink:href="#DejaVuSans-55" transform="translate(343.109375 0)"/>
     <use xlink:href="#DejaVuSans-48" transform="translate(382.015625 0)"/>
     <use xlink:href="#DejaVuSans-44" transform="translate(443.546875 0)"/>
     <use xlink:href="#DejaVuSans-4f" transform="translate(504.828125 0)"/>
     <use xlink:href="#DejaVuSans-3" transform="translate(532.609375 0)"/>
     <use xlink:href="#DejaVuSans-49" transform="translate(564.390625 0)"/>
     <use xlink:href="#DejaVuSans-48" transform="translate(599.59375 0)"/>
     <use xlink:href="#DejaVuSans-48" transform="translate(661.125 0)"/>
     <use xlink:href="#DejaVuSans-47" transform="translate(722.65625 0)"/>
     <use xlink:href="#DejaVuSans-48" transform="translate(786.140625 0)"/>
     <use xlink:href="#DejaVuSans-55" transform="translate(847.671875 0)"/>
     <use xlink:href="#DejaVuSans-c" transform="translate(888.78125 0)"/>
    </g>
   </g>
   <g id="patch_3">
    <path d="M 227.355675 283.249673 
Q 219.469245 249.399036 211.582815 215.5484 
" style="fill: none; stroke: #dc2626; stroke-width: 0.9; stroke-linecap: round"/>
   </g>
   <g id="text_2">
    <!-- cannot-link -->
    <g style="fill: #dc2626" transform="translate(207.007332 294.502441) scale(0.085 -0.085)">
     <defs>
      <path id="DejaVuSans-46" d="M 3122 3366 
L 3122 2828 
Q 2878 2963 2633 3030 
Q 2388 3097 2138 3097 
Q 1578 3097 1268 2742 
Q 959 2388 959 1747 
Q 959 1106 1268 751 
Q 1578 397 2138 397 
Q 2388 397 2633 464 
Q 2878 531 3122 666 
L 3122 134 
Q 2881 22 2623 -34 
Q 2366 -91 2075 -91 
Q 1284 -91 818 406 
Q 353 903 353 1747 
Q 353 2603 823 3093 
Q 1294 3584 2113 3584 
Q 2378 3584 2631 3529 
Q 2884 3475 3122 3366 
z
" transform="scale(0.015625)"/>
      <path id="DejaVuSans-52" d="M 1959 3097 
Q 1497 3097 1228 2736 
Q 959 2375 959 1747 
Q 959 1119 1226 758 
Q 1494 397 1959 397 
Q 2419 397 2687 759 
Q 2956 1122 2956 1747 
Q 2956 2369 2687 2733 
Q 2419 3097 1959 3097 
z
M 1959 3584 
Q 2709 3584 3137 3096 
Q 3566 2609 3566 1747 
Q 3566 888 3137 398 
Q 2709 -91 1959 -91 
Q 1206 -91 779 398 
Q 353 888 353 1747 
Q 353 2609 779 3096 
Q 1206 3584 1959 3584 
z
" transform="scale(0.015625)"/>
     </defs>
     <use xlink:href="#DejaVuSans-46"/>
     <use xlink:href="#DejaVuSans-44" transform="translate(54.984375 0)"/>
     <use xlink:href="#DejaVuSans-51" transform="translate(116.265625 0)"/>
     <use xlink:href="#DejaVuSans-51" transform="translate(179.640625 0)"/>
     <use xlink:href="#DejaVuSans-52" transform="translate(243.015625 0)"/>
     <use xlink:href="#DejaVuSans-57" transform="translate(304.203125 0)"/>
     <use xlink:href="#DejaVuSans-10" transform="translate(343.40625 0)"/>
     <use xlink:href="#DejaVuSans-4f" transform="translate(379.484375 0)"/>
     <use xlink:href="#DejaVuSans-4c" transform="translate(407.265625 0)"/>
     <use xlink:href="#DejaVuSans-51" transform="translate(435.046875 0)"/>
     <use xlink:href="#DejaVuSans-4e" transform="translate(498.421875 0)"/>
    </g>
    <!-- (different real feeders) -->
    <g style="fill: #dc2626" transform="translate(182.529324 304.704765) scale(0.085 -0.085)">
     <defs>
      <path id="DejaVuSans-13ae" d="M 4531 4863 
L 4531 4384 
L 3981 4384 
Q 3672 4384 3551 4259 
Q 3431 4134 3431 3809 
L 3431 3500 
L 4378 3500 
L 4378 3053 
L 3431 3053 
L 3431 0 
L 2853 0 
L 2853 3053 
L 1275 3053 
L 1275 0 
L 697 0 
L 697 3053 
L 147 3053 
L 147 3500 
L 697 3500 
L 697 3744 
Q 697 4328 969 4595 
Q 1241 4863 1831 4863 
L 2375 4863 
L 2375 4384 
L 1825 4384 
Q 1516 4384 1394 4259 
Q 1275 4134 1275 3809 
L 1275 3500 
L 2853 3500 
L 2853 3744 
Q 2853 4328 3125 4595 
Q 3397 4863 3988 4863 
L 4531 4863 
z
" transform="scale(0.015625)"/>
     </defs>
     <use xlink:href="#DejaVuSans-b"/>
     <use xlink:href="#DejaVuSans-47" transform="translate(39.015625 0)"/>
     <use xlink:href="#DejaVuSans-4c" transform="translate(102.5 0)"/>
     <use xlink:href="#DejaVuSans-13ae" transform="translate(130.28125 0)"/>
     <use xlink:href="#DejaVuSans-48" transform="translate(199.171875 0)"/>
     <use xlink:href="#DejaVuSans-55" transform="translate(260.703125 0)"/>
     <use xlink:href="#DejaVuSans-48" transform="translate(299.609375 0)"/>
     <use xlink:href="#DejaVuSans-51" transform="translate(361.140625 0)"/>
     <use xlink:href="#DejaVuSans-57" transform="translate(424.515625 0)"/>
     <use xlink:href="#DejaVuSans-3" transform="translate(463.71875 0)"/>
     <use xlink:href="#DejaVuSans-55" transform="translate(495.5 0)"/>
     <use xlink:href="#DejaVuSans-48" transform="translate(534.40625 0)"/>
     <use xlink:href="#DejaVuSans-44" transform="translate(595.9375 0)"/>
     <use xlink:href="#DejaVuSans-4f" transform="translate(657.21875 0)"/>
     <use xlink:href="#DejaVuSans-3" transform="translate(685 0)"/>
     <use xlink:href="#DejaVuSans-49" transform="translate(716.78125 0)"/>
     <use xlink:href="#DejaVuSans-48" transform="translate(751.984375 0)"/>
     <use xlink:href="#DejaVuSans-48" transform="translate(813.515625 0)"/>
     <use xlink:href="#DejaVuSans-47" transform="translate(875.046875 0)"/>
     <use xlink:href="#DejaVuSans-48" transform="translate(938.53125 0)"/>
     <use xlink:href="#DejaVuSans-55" transform="translate(1000.0625 0)"/>
     <use xlink:href="#DejaVuSans-56" transform="translate(1041.171875 0)"/>
     <use xlink:href="#DejaVuSans-c" transform="translate(1093.265625 0)"/>
    </g>
   </g>
   <g id="line2d_1">
    <path d="M 226.490781 151.226843 
L 90.341163 179.247203 
" clip-path="url(#p2b9aa65a14)" style="fill: none; stroke: #059669; stroke-width: 2.2; stroke-linecap: square"/>
   </g>
   <g id="line2d_2">
    <path d="M 194.486088 219.592467 
L 227.770313 207.601678 
" clip-path="url(#p2b9aa65a14)" style="fill: none; stroke-dasharray: 7.4,3.2; stroke-dashoffset: 0; stroke: #dc2626; stroke-width: 2"/>
   </g>
   <g id="legend_1">
    <g id="PathCollection_3">
     <path d="M 352.12726 25.592898 
C 352.900453 25.592898 353.642082 25.285705 354.188812 24.738975 
C 354.735543 24.192244 355.042736 23.450615 355.042736 22.677422 
C 355.042736 21.904229 354.735543 21.162599 354.188812 20.615869 
C 353.642082 20.069139 352.900453 19.761946 352.12726 19.761946 
C 351.354066 19.761946 350.612437 20.069139 350.065707 20.615869 
C 349.518977 21.162599 349.211784 21.904229 349.211784 22.677422 
C 349.211784 23.450615 349.518977 24.192244 350.065707 24.738975 
C 350.612437 25.285705 351.354066 25.592898 352.12726 25.592898 
z
" style="fill: #1e293b; fill-opacity: 0.8"/>
    </g>
    <g id="text_3">
     <!-- Feeder A -->
     <g transform="translate(367.42726 24.908672) scale(0.085 -0.085)">
      <defs>
       <path id="DejaVuSans-29" d="M 628 4666 
L 3309 4666 
L 3309 4134 
L 1259 4134 
L 1259 2759 
L 3109 2759 
L 3109 2228 
L 1259 2228 
L 1259 0 
L 628 0 
L 628 4666 
z
" transform="scale(0.015625)"/>
       <path id="DejaVuSans-24" d="M 2188 4044 
L 1331 1722 
L 3047 1722 
L 2188 4044 
z
M 1831 4666 
L 2547 4666 
L 4325 0 
L 3669 0 
L 3244 1197 
L 1141 1197 
L 716 0 
L 50 0 
L 1831 4666 
z
" transform="scale(0.015625)"/>
      </defs>
      <use xlink:href="#DejaVuSans-29"/>
      <use xlink:href="#DejaVuSans-48" transform="translate(52.046875 0)"/>
      <use xlink:href="#DejaVuSans-48" transform="translate(113.578125 0)"/>
      <use xlink:href="#DejaVuSans-47" transform="translate(175.109375 0)"/>
      <use xlink:href="#DejaVuSans-48" transform="translate(238.59375 0)"/>
      <use xlink:href="#DejaVuSans-55" transform="translate(300.125 0)"/>
      <use xlink:href="#DejaVuSans-3" transform="translate(341.234375 0)"/>
      <use xlink:href="#DejaVuSans-24" transform="translate(373.015625 0)"/>
     </g>
    </g>
    <g id="PathCollection_4">
     <path d="M 352.12726 38.343562 
C 352.900453 38.343562 353.642082 38.036369 354.188812 37.489639 
C 354.735543 36.942909 355.042736 36.201279 355.042736 35.428086 
C 355.042736 34.654893 354.735543 33.913263 354.188812 33.366533 
C 353.642082 32.819803 352.900453 32.51261 352.12726 32.51261 
C 351.354066 32.51261 350.612437 32.819803 350.065707 33.366533 
C 349.518977 33.913263 349.211784 34.654893 349.211784 35.428086 
C 349.211784 36.201279 349.518977 36.942909 350.065707 37.489639 
C 350.612437 38.036369 351.354066 38.343562 352.12726 38.343562 
z
" style="fill: #0369a1; fill-opacity: 0.8"/>
    </g>
    <g id="text_4">
     <!-- Feeder B -->
     <g transform="translate(367.42726 37.659336) scale(0.085 -0.085)">
      <defs>
       <path id="DejaVuSans-25" d="M 1259 2228 
L 1259 519 
L 2272 519 
Q 2781 519 3026 730 
Q 3272 941 3272 1375 
Q 3272 1813 3026 2020 
Q 2781 2228 2272 2228 
L 1259 2228 
z
M 1259 4147 
L 1259 2741 
L 2194 2741 
Q 2656 2741 2882 2914 
Q 3109 3088 3109 3444 
Q 3109 3797 2882 3972 
Q 2656 4147 2194 4147 
L 1259 4147 
z
M 628 4666 
L 2241 4666 
Q 2963 4666 3353 4366 
Q 3744 4066 3744 3513 
Q 3744 3084 3544 2831 
Q 3344 2578 2956 2516 
Q 3422 2416 3680 2098 
Q 3938 1781 3938 1306 
Q 3938 681 3513 340 
Q 3088 0 2303 0 
L 628 0 
L 628 4666 
z
" transform="scale(0.015625)"/>
      </defs>
      <use xlink:href="#DejaVuSans-29"/>
      <use xlink:href="#DejaVuSans-48" transform="translate(52.046875 0)"/>
      <use xlink:href="#DejaVuSans-48" transform="translate(113.578125 0)"/>
      <use xlink:href="#DejaVuSans-47" transform="translate(175.109375 0)"/>
      <use xlink:href="#DejaVuSans-48" transform="translate(238.59375 0)"/>
      <use xlink:href="#DejaVuSans-55" transform="translate(300.125 0)"/>
      <use xlink:href="#DejaVuSans-3" transform="translate(341.234375 0)"/>
      <use xlink:href="#DejaVuSans-25" transform="translate(373.015625 0)"/>
     </g>
    </g>
   </g>
  </g>
 </g>
 <defs>
  <clipPath id="p2b9aa65a14">
   <rect x="48.184615" y="10.8" width="364.430769" height="338.4"/>
  </clipPath>
 </defs>
</svg>
