<?xml version="1.0" encoding="utf-8" standalone="no"?>
<!DOCTYPE svg PUBLIC "-//W3C//DTD SVG 1.1//EN"
  "http://www.w3.org/Graphics/SVG/1.1/DTD/svg11.dtd">
<svg xmlns:xlink="http://www.w3.org/1999/xlink" width="550.166341pt" height="323.280937pt" viewBox="0 0 550.166341 323.280937" xmlns="http://www.w3.org/2000/svg" version="1.1">
 <metadata>
  <rdf:RDF xmlns:dc="http://purl.org/dc/elements/1.1/" xmlns:cc="http://creativecommons.org/ns#" xmlns:rdf="http://www.w3.org/1999/02/22-rdf-syntax-ns#">
   <cc:Work>
    <dc:type rdf:resource="http://purl.org/dc/dcmitype/StillImage"/>
    <dc:date>2026-07-18T19:31:52.718112</dc:date>
    <dc:format>image/svg+xml</dc:format>
    <dc:creator>
     <cc:Agent>
      <dc:title>Matplotlib v3.11.0, https://matplotlib.org/</dc:title>
     </cc:Agent>
    </dc:creator>
   </cc:Work>
  </rdf:RDF>
 </metadata>
 <defs>
  <style type="text/css">*{stroke-linejoin: round; stroke-linecap: butt}</style>
 </defs>
 <g id="figure_1">
  <g id="patch_1">
   <path d="M 0 323.280937 
L 550.166341 323.280937 
L 550.166341 0 
L 0 0 
z
" style="fill: #ffffff"/>
  </g>
  <g id="axes_1">
   <g id="patch_2">
    <path d="M 75.409935 243.287925 
Q 75.409935 169.537109 75.409935 98.245968 
" clip-path="url(#pa25085ebc2)" style="fill: none; stroke: #ea580c; stroke-width: 2.2; stroke-linecap: round"/>
    <path d="M 72.209935 104.645968 
L 75.409935 98.245968 
L 78.609935 104.645968 
z
" clip-path="url(#pa25085ebc2)" style="fill: #ea580c; stroke: #ea580c; stroke-width: 2.2; stroke-linecap: round"/>
   </g>
   <g id="patch_3">
    <path d="M 171.190216 214.553841 
Q 171.190216 228.920883 171.190216 240.82825 
" clip-path="url(#pa25085ebc2)" style="fill: none; stroke: #0369a1; stroke-width: 2.2; stroke-linecap: round"/>
    <path d="M 174.390216 234.42825 
L 171.190216 240.82825 
L 167.990216 234.42825 
z
" clip-path="url(#pa25085ebc2)" style="fill: #0369a1; stroke: #0369a1; stroke-width: 2.2; stroke-linecap: round"/>
   </g>
   <g id="patch_4">
    <path d="M 123.300075 243.287925 
Q 123.300075 183.904151 123.300075 128.098086 
" clip-path="url(#pa25085ebc2)" style="fill: none; stroke: #dc2626; stroke-width: 3.2; stroke-linecap: round"/>
    <path d="M 119.300075 136.098086 
L 123.300075 128.098086 
L 127.300075 136.098086 
z
" clip-path="url(#pa25085ebc2)" style="fill: #dc2626; stroke: #dc2626; stroke-width: 3.2; stroke-linecap: round"/>
   </g>
   <g id="patch_5">
    <path d="M 123.300075 308.418515 
C 131.428468 308.418515 139.225037 305.18907 144.972679 299.441429 
C 150.72032 293.693787 153.949765 285.897218 153.949765 277.768825 
C 153.949765 269.640433 150.72032 261.843864 144.972679 256.096222 
C 139.225037 250.34858 131.428468 247.119136 123.300075 247.119136 
C 115.171683 247.119136 107.375114 250.34858 101.627472 256.096222 
C 95.87983 261.843864 92.650386 269.640433 92.650386 277.768825 
C 92.650386 285.897218 95.87983 293.693787 101.627472 299.441429 
C 107.375114 305.18907 115.171683 308.418515 123.300075 308.418515 
z
" clip-path="url(#pa25085ebc2)" style="fill: #1e293b; stroke: #ffffff; stroke-width: 1.6; stroke-linejoin: miter"/>
   </g>
   <g id="text_1">
    <!-- PV export -->
    <g style="fill: #ea580c" transform="translate(7.2 105.364321) scale(0.078 -0.078)">
     <defs>
      <path id="DejaVuSans-Bold-33" d="M 588 4666 
L 2584 4666 
Q 3475 4666 3951 4270 
Q 4428 3875 4428 3144 
Q 4428 2409 3951 2014 
Q 3475 1619 2584 1619 
L 1791 1619 
L 1791 0 
L 588 0 
L 588 4666 
z
M 1791 3794 
L 1791 2491 
L 2456 2491 
Q 2806 2491 2997 2661 
Q 3188 2831 3188 3144 
Q 3188 3456 2997 3625 
Q 2806 3794 2456 3794 
L 1791 3794 
z
" transform="scale(0.015625)"/>
      <path id="DejaVuSans-Bold-39" d="M 31 4666 
L 1241 4666 
L 2478 1222 
L 3713 4666 
L 4922 4666 
L 3194 0 
L 1759 0 
L 31 4666 
z
" transform="scale(0.015625)"/>
      <path id="DejaVuSans-Bold-3" transform="scale(0.015625)"/>
      <path id="DejaVuSans-Bold-48" d="M 4031 1759 
L 4031 1441 
L 1416 1441 
Q 1456 1047 1700 850 
Q 1944 653 2381 653 
Q 2734 653 3104 758 
Q 3475 863 3866 1075 
L 3866 213 
Q 3469 63 3072 -14 
Q 2675 -91 2278 -91 
Q 1328 -91 801 392 
Q 275 875 275 1747 
Q 275 2603 792 3093 
Q 1309 3584 2216 3584 
Q 3041 3584 3536 3087 
Q 4031 2591 4031 1759 
z
M 2881 2131 
Q 2881 2450 2695 2645 
Q 2509 2841 2209 2841 
Q 1884 2841 1681 2658 
Q 1478 2475 1428 2131 
L 2881 2131 
z
" transform="scale(0.015625)"/>
      <path id="DejaVuSans-Bold-5b" d="M 1422 1791 
L 159 3500 
L 1344 3500 
L 2059 2463 
L 2784 3500 
L 3969 3500 
L 2706 1797 
L 4031 0 
L 2847 0 
L 2059 1106 
L 1281 0 
L 97 0 
L 1422 1791 
z
" transform="scale(0.015625)"/>
      <path id="DejaVuSans-Bold-53" d="M 1656 506 
L 1656 -1331 
L 538 -1331 
L 538 3500 
L 1656 3500 
L 1656 2988 
Q 1888 3294 2169 3439 
Q 2450 3584 2816 3584 
Q 3463 3584 3878 3070 
Q 4294 2556 4294 1747 
Q 4294 938 3878 423 
Q 3463 -91 2816 -91 
Q 2450 -91 2169 54 
Q 1888 200 1656 506 
z
M 2400 2772 
Q 2041 2772 1848 2508 
Q 1656 2244 1656 1747 
Q 1656 1250 1848 986 
Q 2041 722 2400 722 
Q 2759 722 2948 984 
Q 3138 1247 3138 1747 
Q 3138 2247 2948 2509 
Q 2759 2772 2400 2772 
z
" transform="scale(0.015625)"/>
      <path id="DejaVuSans-Bold-52" d="M 2203 2784 
Q 1831 2784 1636 2517 
Q 1441 2250 1441 1747 
Q 1441 1244 1636 976 
Q 1831 709 2203 709 
Q 2569 709 2762 976 
Q 2956 1244 2956 1747 
Q 2956 2250 2762 2517 
Q 2569 2784 2203 2784 
z
M 2203 3584 
Q 3106 3584 3614 3096 
Q 4122 2609 4122 1747 
Q 4122 884 3614 396 
Q 3106 -91 2203 -91 
Q 1297 -91 786 396 
Q 275 884 275 1747 
Q 275 2609 786 3096 
Q 1297 3584 2203 3584 
z
" transform="scale(0.015625)"/>
      <path id="DejaVuSans-Bold-55" d="M 3138 2547 
Q 2991 2616 2845 2648 
Q 2700 2681 2553 2681 
Q 2122 2681 1889 2404 
Q 1656 2128 1656 1613 
L 1656 0 
L 538 0 
L 538 3500 
L 1656 3500 
L 1656 2925 
Q 1872 3269 2151 3426 
Q 2431 3584 2822 3584 
Q 2878 3584 2943 3579 
Q 3009 3575 3134 3559 
L 3138 2547 
z
" transform="scale(0.015625)"/>
      <path id="DejaVuSans-Bold-57" d="M 1759 4494 
L 1759 3500 
L 2913 3500 
L 2913 2700 
L 1759 2700 
L 1759 1216 
Q 1759 972 1856 886 
Q 1953 800 2241 800 
L 2816 800 
L 2816 0 
L 1856 0 
Q 1194 0 917 276 
Q 641 553 641 1216 
L 641 2700 
L 84 2700 
L 84 3500 
L 641 3500 
L 641 4494 
L 1759 4494 
z
" transform="scale(0.015625)"/>
     </defs>
     <use xlink:href="#DejaVuSans-Bold-33"/>
     <use xlink:href="#DejaVuSans-Bold-39" transform="translate(73.296875 0)"/>
     <use xlink:href="#DejaVuSans-Bold-3" transform="translate(150.6875 0)"/>
     <use xlink:href="#DejaVuSans-Bold-48" transform="translate(185.5 0)"/>
     <use xlink:href="#DejaVuSans-Bold-5b" transform="translate(253.328125 0)"/>
     <use xlink:href="#DejaVuSans-Bold-53" transform="translate(317.828125 0)"/>
     <use xlink:href="#DejaVuSans-Bold-52" transform="translate(389.40625 0)"/>
     <use xlink:href="#DejaVuSans-Bold-55" transform="translate(458.109375 0)"/>
     <use xlink:href="#DejaVuSans-Bold-57" transform="translate(507.421875 0)"/>
    </g>
   </g>
   <g id="text_2">
    <!-- local -->
    <g style="fill: #0369a1" transform="translate(196.093088 196.790301) scale(0.078 -0.078)">
     <defs>
      <path id="DejaVuSans-Bold-4f" d="M 538 4863 
L 1656 4863 
L 1656 0 
L 538 0 
L 538 4863 
z
" transform="scale(0.015625)"/>
      <path id="DejaVuSans-Bold-46" d="M 3366 3391 
L 3366 2478 
Q 3138 2634 2908 2709 
Q 2678 2784 2431 2784 
Q 1963 2784 1702 2511 
Q 1441 2238 1441 1747 
Q 1441 1256 1702 982 
Q 1963 709 2431 709 
Q 2694 709 2930 787 
Q 3166 866 3366 1019 
L 3366 103 
Q 3103 6 2833 -42 
Q 2563 -91 2291 -91 
Q 1344 -91 809 395 
Q 275 881 275 1747 
Q 275 2613 809 3098 
Q 1344 3584 2291 3584 
Q 2566 3584 2833 3536 
Q 3100 3488 3366 3391 
z
" transform="scale(0.015625)"/>
      <path id="DejaVuSans-Bold-44" d="M 2106 1575 
Q 1756 1575 1579 1456 
Q 1403 1338 1403 1106 
Q 1403 894 1545 773 
Q 1688 653 1941 653 
Q 2256 653 2472 879 
Q 2688 1106 2688 1447 
L 2688 1575 
L 2106 1575 
z
M 3816 1997 
L 3816 0 
L 2688 0 
L 2688 519 
Q 2463 200 2181 54 
Q 1900 -91 1497 -91 
Q 953 -91 614 226 
Q 275 544 275 1050 
Q 275 1666 698 1953 
Q 1122 2241 2028 2241 
L 2688 2241 
L 2688 2328 
Q 2688 2594 2478 2717 
Q 2269 2841 1825 2841 
Q 1466 2841 1156 2769 
Q 847 2697 581 2553 
L 581 3406 
Q 941 3494 1303 3539 
Q 1666 3584 2028 3584 
Q 2975 3584 3395 3211 
Q 3816 2838 3816 1997 
z
" transform="scale(0.015625)"/>
     </defs>
     <use xlink:href="#DejaVuSans-Bold-4f"/>
     <use xlink:href="#DejaVuSans-Bold-52" transform="translate(34.28125 0)"/>
     <use xlink:href="#DejaVuSans-Bold-46" transform="translate(102.984375 0)"/>
     <use xlink:href="#DejaVuSans-Bold-44" transform="translate(162.265625 0)"/>
     <use xlink:href="#DejaVuSans-Bold-4f" transform="translate(229.75 0)"/>
    </g>
    <!-- demand -->
    <g style="fill: #0369a1" transform="translate(196.093088 206.152434) scale(0.078 -0.078)">
     <defs>
      <path id="DejaVuSans-Bold-47" d="M 2919 2988 
L 2919 4863 
L 4044 4863 
L 4044 0 
L 2919 0 
L 2919 506 
Q 2688 197 2409 53 
Q 2131 -91 1766 -91 
Q 1119 -91 703 423 
Q 288 938 288 1747 
Q 288 2556 703 3070 
Q 1119 3584 1766 3584 
Q 2128 3584 2408 3439 
Q 2688 3294 2919 2988 
z
M 2181 722 
Q 2541 722 2730 984 
Q 2919 1247 2919 1747 
Q 2919 2247 2730 2509 
Q 2541 2772 2181 2772 
Q 1825 2772 1636 2509 
Q 1447 2247 1447 1747 
Q 1447 1247 1636 984 
Q 1825 722 2181 722 
z
" transform="scale(0.015625)"/>
      <path id="DejaVuSans-Bold-50" d="M 3781 2919 
Q 3994 3244 4286 3414 
Q 4578 3584 4928 3584 
Q 5531 3584 5847 3212 
Q 6163 2841 6163 2131 
L 6163 0 
L 5038 0 
L 5038 1825 
Q 5041 1866 5042 1909 
Q 5044 1953 5044 2034 
Q 5044 2406 4934 2573 
Q 4825 2741 4581 2741 
Q 4263 2741 4089 2478 
Q 3916 2216 3909 1719 
L 3909 0 
L 2784 0 
L 2784 1825 
Q 2784 2406 2684 2573 
Q 2584 2741 2328 2741 
Q 2006 2741 1831 2477 
Q 1656 2213 1656 1722 
L 1656 0 
L 531 0 
L 531 3500 
L 1656 3500 
L 1656 2988 
Q 1863 3284 2130 3434 
Q 2397 3584 2719 3584 
Q 3081 3584 3359 3409 
Q 3638 3234 3781 2919 
z
" transform="scale(0.015625)"/>
      <path id="DejaVuSans-Bold-51" d="M 4056 2131 
L 4056 0 
L 2931 0 
L 2931 347 
L 2931 1631 
Q 2931 2084 2911 2256 
Q 2891 2428 2841 2509 
Q 2775 2619 2662 2680 
Q 2550 2741 2406 2741 
Q 2056 2741 1856 2470 
Q 1656 2200 1656 1722 
L 1656 0 
L 538 0 
L 538 3500 
L 1656 3500 
L 1656 2988 
Q 1909 3294 2193 3439 
Q 2478 3584 2822 3584 
Q 3428 3584 3742 3212 
Q 4056 2841 4056 2131 
z
" transform="scale(0.015625)"/>
     </defs>
     <use xlink:href="#DejaVuSans-Bold-47"/>
     <use xlink:href="#DejaVuSans-Bold-48" transform="translate(71.578125 0)"/>
     <use xlink:href="#DejaVuSans-Bold-50" transform="translate(139.40625 0)"/>
     <use xlink:href="#DejaVuSans-Bold-44" transform="translate(243.609375 0)"/>
     <use xlink:href="#DejaVuSans-Bold-51" transform="translate(311.09375 0)"/>
     <use xlink:href="#DejaVuSans-Bold-47" transform="translate(382.28125 0)"/>
    </g>
   </g>
   <g id="text_3">
    <!-- net injection -->
    <g style="fill: #dc2626" transform="translate(93.461044 56.025416) scale(0.084 -0.084)">
     <defs>
      <path id="DejaVuSans-Bold-4c" d="M 538 3500 
L 1656 3500 
L 1656 0 
L 538 0 
L 538 3500 
z
M 538 4863 
L 1656 4863 
L 1656 3950 
L 538 3950 
L 538 4863 
z
" transform="scale(0.015625)"/>
      <path id="DejaVuSans-Bold-4d" d="M 538 3500 
L 1656 3500 
L 1656 63 
Q 1656 -641 1318 -1011 
Q 981 -1381 341 -1381 
L -213 -1381 
L -213 -647 
L -19 -647 
Q 300 -647 419 -503 
Q 538 -359 538 63 
L 538 3500 
z
M 538 4863 
L 1656 4863 
L 1656 3950 
L 538 3950 
L 538 4863 
z
" transform="scale(0.015625)"/>
     </defs>
     <use xlink:href="#DejaVuSans-Bold-51"/>
     <use xlink:href="#DejaVuSans-Bold-48" transform="translate(71.1875 0)"/>
     <use xlink:href="#DejaVuSans-Bold-57" transform="translate(139.015625 0)"/>
     <use xlink:href="#DejaVuSans-Bold-3" transform="translate(186.8125 0)"/>
     <use xlink:href="#DejaVuSans-Bold-4c" transform="translate(221.625 0)"/>
     <use xlink:href="#DejaVuSans-Bold-51" transform="translate(255.90625 0)"/>
     <use xlink:href="#DejaVuSans-Bold-4d" transform="translate(327.09375 0)"/>
     <use xlink:href="#DejaVuSans-Bold-48" transform="translate(361.375 0)"/>
     <use xlink:href="#DejaVuSans-Bold-46" transform="translate(429.203125 0)"/>
     <use xlink:href="#DejaVuSans-Bold-57" transform="translate(488.484375 0)"/>
     <use xlink:href="#DejaVuSans-Bold-4c" transform="translate(536.28125 0)"/>
     <use xlink:href="#DejaVuSans-Bold-52" transform="translate(570.5625 0)"/>
     <use xlink:href="#DejaVuSans-Bold-51" transform="translate(639.265625 0)"/>
    </g>
    <!-- large, $\Delta V$ high -->
    <g style="fill: #dc2626" transform="translate(90.372075 66.109026) scale(0.084 -0.084)">
     <defs>
      <path id="DejaVuSans-Bold-4a" d="M 2919 594 
Q 2688 288 2409 144 
Q 2131 0 1766 0 
Q 1125 0 706 504 
Q 288 1009 288 1791 
Q 288 2575 706 3076 
Q 1125 3578 1766 3578 
Q 2131 3578 2409 3434 
Q 2688 3291 2919 2981 
L 2919 3500 
L 4044 3500 
L 4044 353 
Q 4044 -491 3511 -936 
Q 2978 -1381 1966 -1381 
Q 1638 -1381 1331 -1331 
Q 1025 -1281 716 -1178 
L 716 -306 
Q 1009 -475 1290 -558 
Q 1572 -641 1856 -641 
Q 2406 -641 2662 -400 
Q 2919 -159 2919 353 
L 2919 594 
z
M 2181 2772 
Q 1834 2772 1640 2515 
Q 1447 2259 1447 1791 
Q 1447 1309 1634 1061 
Q 1822 813 2181 813 
Q 2531 813 2725 1069 
Q 2919 1325 2919 1791 
Q 2919 2259 2725 2515 
Q 2531 2772 2181 2772 
z
" transform="scale(0.015625)"/>
      <path id="DejaVuSans-Bold-f" d="M 653 1209 
L 1778 1209 
L 1778 256 
L 1006 -909 
L 341 -909 
L 653 256 
L 653 1209 
z
" transform="scale(0.015625)"/>
      <path id="DejaVuSans-329" d="M 2188 4044 
L 906 525 
L 3472 525 
L 2188 4044 
z
M 50 0 
L 1831 4666 
L 2547 4666 
L 4325 0 
L 50 0 
z
" transform="scale(0.015625)"/>
      <path id="DejaVuSans-Oblique-39" d="M 1319 0 
L 500 4666 
L 1119 4666 
L 1797 653 
L 4063 4666 
L 4750 4666 
L 2053 0 
L 1319 0 
z
" transform="scale(0.015625)"/>
      <path id="DejaVuSans-Bold-4b" d="M 4056 2131 
L 4056 0 
L 2931 0 
L 2931 347 
L 2931 1625 
Q 2931 2084 2911 2256 
Q 2891 2428 2841 2509 
Q 2775 2619 2662 2680 
Q 2550 2741 2406 2741 
Q 2056 2741 1856 2470 
Q 1656 2200 1656 1722 
L 1656 0 
L 538 0 
L 538 4863 
L 1656 4863 
L 1656 2988 
Q 1909 3294 2193 3439 
Q 2478 3584 2822 3584 
Q 3428 3584 3742 3212 
Q 4056 2841 4056 2131 
z
" transform="scale(0.015625)"/>
     </defs>
     <use xlink:href="#DejaVuSans-Bold-4f" transform="translate(0 0.015625)"/>
     <use xlink:href="#DejaVuSans-Bold-44" transform="translate(34.277344 0.015625)"/>
     <use xlink:href="#DejaVuSans-Bold-55" transform="translate(101.757812 0.015625)"/>
     <use xlink:href="#DejaVuSans-Bold-4a" transform="translate(151.074219 0.015625)"/>
     <use xlink:href="#DejaVuSans-Bold-48" transform="translate(222.65625 0.015625)"/>
     <use xlink:href="#DejaVuSans-Bold-f" transform="translate(290.478516 0.015625)"/>
     <use xlink:href="#DejaVuSans-Bold-3" transform="translate(328.466797 0.015625)"/>
     <use xlink:href="#DejaVuSans-329" transform="translate(363.28125 0.015625)"/>
     <use xlink:href="#DejaVuSans-Oblique-39" transform="translate(431.689453 0.015625)"/>
     <use xlink:href="#DejaVuSans-Bold-3" transform="translate(500.097656 0.015625)"/>
     <use xlink:href="#DejaVuSans-Bold-4b" transform="translate(534.912109 0.015625)"/>
     <use xlink:href="#DejaVuSans-Bold-4c" transform="translate(606.103516 0.015625)"/>
     <use xlink:href="#DejaVuSans-Bold-4a" transform="translate(640.380859 0.015625)"/>
     <use xlink:href="#DejaVuSans-Bold-4b" transform="translate(711.962891 0.015625)"/>
    </g>
   </g>
   <g id="text_4">
    <!-- Low local demand -->
    <g style="fill: #1e293b" transform="translate(62.560388 16.318125) scale(0.12 -0.12)">
     <defs>
      <path id="DejaVuSans-Bold-2f" d="M 588 4666 
L 1791 4666 
L 1791 909 
L 3903 909 
L 3903 0 
L 588 0 
L 588 4666 
z
" transform="scale(0.015625)"/>
      <path id="DejaVuSans-Bold-5a" d="M 225 3500 
L 1313 3500 
L 1900 1088 
L 2491 3500 
L 3425 3500 
L 4013 1113 
L 4603 3500 
L 5691 3500 
L 4769 0 
L 3547 0 
L 2956 2406 
L 2369 0 
L 1147 0 
L 225 3500 
z
" transform="scale(0.015625)"/>
     </defs>
     <use xlink:href="#DejaVuSans-Bold-2f"/>
     <use xlink:href="#DejaVuSans-Bold-52" transform="translate(63.71875 0)"/>
     <use xlink:href="#DejaVuSans-Bold-5a" transform="translate(132.421875 0)"/>
     <use xlink:href="#DejaVuSans-Bold-3" transform="translate(224.8125 0)"/>
     <use xlink:href="#DejaVuSans-Bold-4f" transform="translate(259.625 0)"/>
     <use xlink:href="#DejaVuSans-Bold-52" transform="translate(293.90625 0)"/>
     <use xlink:href="#DejaVuSans-Bold-46" transform="translate(362.609375 0)"/>
     <use xlink:href="#DejaVuSans-Bold-44" transform="translate(421.890625 0)"/>
     <use xlink:href="#DejaVuSans-Bold-4f" transform="translate(489.375 0)"/>
     <use xlink:href="#DejaVuSans-Bold-3" transform="translate(523.65625 0)"/>
     <use xlink:href="#DejaVuSans-Bold-47" transform="translate(558.46875 0)"/>
     <use xlink:href="#DejaVuSans-Bold-48" transform="translate(630.046875 0)"/>
     <use xlink:href="#DejaVuSans-Bold-50" transform="translate(697.875 0)"/>
     <use xlink:href="#DejaVuSans-Bold-44" transform="translate(802.078125 0)"/>
     <use xlink:href="#DejaVuSans-Bold-51" transform="translate(869.5625 0)"/>
     <use xlink:href="#DejaVuSans-Bold-47" transform="translate(940.75 0)"/>
    </g>
   </g>
   <g id="text_5">
    <!--  -->
    <g style="fill: #ffffff" transform="translate(116.800075 284.268825) scale(0.13 -0.13)">
     <defs>
      <path id="bootstrap-icons-4c8" d="M 3477 5803 
Q 3371 5909 3200 5909 
Q 3029 5909 2923 5803 
L 256 3136 
Q 192 3093 192 3008 
Q 192 2923 256 2859 
Q 320 2795 405 2795 
Q 491 2795 533 2859 
L 3200 5525 
L 5867 2859 
Q 5909 2795 5994 2795 
Q 6080 2795 6144 2859 
Q 6208 2923 6208 3008 
Q 6208 3093 6144 3136 
L 5205 4075 
L 5205 5397 
Q 5205 5483 5141 5547 
Q 5077 5611 4992 5611 
L 4608 5611 
Q 4523 5611 4459 5547 
Q 4395 5483 4395 5397 
L 4395 4885 
L 3477 5803 
z
M 3200 5077 
L 5611 2688 
L 5611 1003 
Q 5611 747 5429 576 
Q 5248 405 4992 405 
L 1408 405 
Q 1152 405 970 576 
Q 789 747 789 1003 
L 789 2688 
L 3200 5077 
z
" transform="scale(0.015625)"/>
     </defs>
     <use xlink:href="#bootstrap-icons-4c8"/>
    </g>
   </g>
  </g>
  <g id="axes_2">
   <g id="patch_6">
    <path d="M 386.882157 243.287925 
Q 386.882157 169.537109 386.882157 98.245968 
" clip-path="url(#p631f5f2c2f)" style="fill: none; stroke: #ea580c; stroke-width: 2.2; stroke-linecap: round"/>
    <path d="M 383.682157 104.645968 
L 386.882157 98.245968 
L 390.082157 104.645968 
z
" clip-path="url(#p631f5f2c2f)" style="fill: #ea580c; stroke: #ea580c; stroke-width: 2.2; stroke-linecap: round"/>
   </g>
   <g id="patch_7">
    <path d="M 482.662437 118.77356 
Q 482.662437 181.030742 482.662437 240.82825 
" clip-path="url(#p631f5f2c2f)" style="fill: none; stroke: #0369a1; stroke-width: 2.2; stroke-linecap: round"/>
    <path d="M 485.862437 234.42825 
L 482.662437 240.82825 
L 479.462437 234.42825 
z
" clip-path="url(#p631f5f2c2f)" style="fill: #0369a1; stroke: #0369a1; stroke-width: 2.2; stroke-linecap: round"/>
   </g>
   <g id="patch_8">
    <path d="M 434.772297 243.287925 
Q 434.772297 231.794291 434.772297 223.878366 
" clip-path="url(#p631f5f2c2f)" style="fill: none; stroke: #059669; stroke-width: 3.2; stroke-linecap: round"/>
    <path d="M 430.772297 231.878366 
L 434.772297 223.878366 
L 438.772297 231.878366 
z
" clip-path="url(#p631f5f2c2f)" style="fill: #059669; stroke: #059669; stroke-width: 3.2; stroke-linecap: round"/>
   </g>
   <g id="patch_9">
    <path d="M 434.772297 308.418515 
C 442.900689 308.418515 450.697258 305.18907 456.4449 299.441429 
C 462.192542 293.693787 465.421986 285.897218 465.421986 277.768825 
C 465.421986 269.640433 462.192542 261.843864 456.4449 256.096222 
C 450.697258 250.34858 442.900689 247.119136 434.772297 247.119136 
C 426.643904 247.119136 418.847335 250.34858 413.099693 256.096222 
C 407.352052 261.843864 404.122607 269.640433 404.122607 277.768825 
C 404.122607 285.897218 407.352052 293.693787 413.099693 299.441429 
C 418.847335 305.18907 426.643904 308.418515 434.772297 308.418515 
z
" clip-path="url(#p631f5f2c2f)" style="fill: #1e293b; stroke: #ffffff; stroke-width: 1.6; stroke-linejoin: miter"/>
   </g>
   <g id="text_6">
    <!-- PV export -->
    <g style="fill: #ea580c" transform="translate(318.672221 105.364321) scale(0.078 -0.078)">
     <use xlink:href="#DejaVuSans-Bold-33"/>
     <use xlink:href="#DejaVuSans-Bold-39" transform="translate(73.296875 0)"/>
     <use xlink:href="#DejaVuSans-Bold-3" transform="translate(150.6875 0)"/>
     <use xlink:href="#DejaVuSans-Bold-48" transform="translate(185.5 0)"/>
     <use xlink:href="#DejaVuSans-Bold-5b" transform="translate(253.328125 0)"/>
     <use xlink:href="#DejaVuSans-Bold-53" transform="translate(317.828125 0)"/>
     <use xlink:href="#DejaVuSans-Bold-52" transform="translate(389.40625 0)"/>
     <use xlink:href="#DejaVuSans-Bold-55" transform="translate(458.109375 0)"/>
     <use xlink:href="#DejaVuSans-Bold-57" transform="translate(507.421875 0)"/>
    </g>
   </g>
   <g id="text_7">
    <!-- local -->
    <g style="fill: #0369a1" transform="translate(507.56531 101.010021) scale(0.078 -0.078)">
     <use xlink:href="#DejaVuSans-Bold-4f"/>
     <use xlink:href="#DejaVuSans-Bold-52" transform="translate(34.28125 0)"/>
     <use xlink:href="#DejaVuSans-Bold-46" transform="translate(102.984375 0)"/>
     <use xlink:href="#DejaVuSans-Bold-44" transform="translate(162.265625 0)"/>
     <use xlink:href="#DejaVuSans-Bold-4f" transform="translate(229.75 0)"/>
    </g>
    <!-- demand -->
    <g style="fill: #0369a1" transform="translate(507.56531 110.372154) scale(0.078 -0.078)">
     <use xlink:href="#DejaVuSans-Bold-47"/>
     <use xlink:href="#DejaVuSans-Bold-48" transform="translate(71.578125 0)"/>
     <use xlink:href="#DejaVuSans-Bold-50" transform="translate(139.40625 0)"/>
     <use xlink:href="#DejaVuSans-Bold-44" transform="translate(243.609375 0)"/>
     <use xlink:href="#DejaVuSans-Bold-51" transform="translate(311.09375 0)"/>
     <use xlink:href="#DejaVuSans-Bold-47" transform="translate(382.28125 0)"/>
    </g>
   </g>
   <g id="text_8">
    <!-- net injection -->
    <g style="fill: #059669" transform="translate(404.933265 56.025416) scale(0.084 -0.084)">
     <use xlink:href="#DejaVuSans-Bold-51"/>
     <use xlink:href="#DejaVuSans-Bold-48" transform="translate(71.1875 0)"/>
     <use xlink:href="#DejaVuSans-Bold-57" transform="translate(139.015625 0)"/>
     <use xlink:href="#DejaVuSans-Bold-3" transform="translate(186.8125 0)"/>
     <use xlink:href="#DejaVuSans-Bold-4c" transform="translate(221.625 0)"/>
     <use xlink:href="#DejaVuSans-Bold-51" transform="translate(255.90625 0)"/>
     <use xlink:href="#DejaVuSans-Bold-4d" transform="translate(327.09375 0)"/>
     <use xlink:href="#DejaVuSans-Bold-48" transform="translate(361.375 0)"/>
     <use xlink:href="#DejaVuSans-Bold-46" transform="translate(429.203125 0)"/>
     <use xlink:href="#DejaVuSans-Bold-57" transform="translate(488.484375 0)"/>
     <use xlink:href="#DejaVuSans-Bold-4c" transform="translate(536.28125 0)"/>
     <use xlink:href="#DejaVuSans-Bold-52" transform="translate(570.5625 0)"/>
     <use xlink:href="#DejaVuSans-Bold-51" transform="translate(639.265625 0)"/>
    </g>
    <!-- small, $\Delta V$ low -->
    <g style="fill: #059669" transform="translate(403.692297 66.109026) scale(0.084 -0.084)">
     <defs>
      <path id="DejaVuSans-Bold-56" d="M 3272 3391 
L 3272 2541 
Q 2913 2691 2578 2766 
Q 2244 2841 1947 2841 
Q 1628 2841 1473 2761 
Q 1319 2681 1319 2516 
Q 1319 2381 1436 2309 
Q 1553 2238 1856 2203 
L 2053 2175 
Q 2913 2066 3209 1816 
Q 3506 1566 3506 1031 
Q 3506 472 3093 190 
Q 2681 -91 1863 -91 
Q 1516 -91 1145 -36 
Q 775 19 384 128 
L 384 978 
Q 719 816 1070 734 
Q 1422 653 1784 653 
Q 2113 653 2278 743 
Q 2444 834 2444 1013 
Q 2444 1163 2330 1236 
Q 2216 1309 1875 1350 
L 1678 1375 
Q 931 1469 631 1722 
Q 331 1975 331 2491 
Q 331 3047 712 3315 
Q 1094 3584 1881 3584 
Q 2191 3584 2531 3537 
Q 2872 3491 3272 3391 
z
" transform="scale(0.015625)"/>
     </defs>
     <use xlink:href="#DejaVuSans-Bold-56" transform="translate(0 0.015625)"/>
     <use xlink:href="#DejaVuSans-Bold-50" transform="translate(59.521484 0.015625)"/>
     <use xlink:href="#DejaVuSans-Bold-44" transform="translate(163.720703 0.015625)"/>
     <use xlink:href="#DejaVuSans-Bold-4f" transform="translate(231.201172 0.015625)"/>
     <use xlink:href="#DejaVuSans-Bold-4f" transform="translate(265.478516 0.015625)"/>
     <use xlink:href="#DejaVuSans-Bold-f" transform="translate(299.755859 0.015625)"/>
     <use xlink:href="#DejaVuSans-Bold-3" transform="translate(337.744141 0.015625)"/>
     <use xlink:href="#DejaVuSans-329" transform="translate(372.558594 0.015625)"/>
     <use xlink:href="#DejaVuSans-Oblique-39" transform="translate(440.966797 0.015625)"/>
     <use xlink:href="#DejaVuSans-Bold-3" transform="translate(509.375 0.015625)"/>
     <use xlink:href="#DejaVuSans-Bold-4f" transform="translate(544.189453 0.015625)"/>
     <use xlink:href="#DejaVuSans-Bold-52" transform="translate(578.466797 0.015625)"/>
     <use xlink:href="#DejaVuSans-Bold-5a" transform="translate(647.167969 0.015625)"/>
    </g>
   </g>
   <g id="text_9">
    <!-- High local demand -->
    <g style="fill: #1e293b" transform="translate(371.877297 16.318125) scale(0.12 -0.12)">
     <defs>
      <path id="DejaVuSans-Bold-2b" d="M 588 4666 
L 1791 4666 
L 1791 2888 
L 3566 2888 
L 3566 4666 
L 4769 4666 
L 4769 0 
L 3566 0 
L 3566 1978 
L 1791 1978 
L 1791 0 
L 588 0 
L 588 4666 
z
" transform="scale(0.015625)"/>
     </defs>
     <use xlink:href="#DejaVuSans-Bold-2b"/>
     <use xlink:href="#DejaVuSans-Bold-4c" transform="translate(83.6875 0)"/>
     <use xlink:href="#DejaVuSans-Bold-4a" transform="translate(117.96875 0)"/>
     <use xlink:href="#DejaVuSans-Bold-4b" transform="translate(189.546875 0)"/>
     <use xlink:href="#DejaVuSans-Bold-3" transform="translate(260.734375 0)"/>
     <use xlink:href="#DejaVuSans-Bold-4f" transform="translate(295.546875 0)"/>
     <use xlink:href="#DejaVuSans-Bold-52" transform="translate(329.828125 0)"/>
     <use xlink:href="#DejaVuSans-Bold-46" transform="translate(398.53125 0)"/>
     <use xlink:href="#DejaVuSans-Bold-44" transform="translate(457.8125 0)"/>
     <use xlink:href="#DejaVuSans-Bold-4f" transform="translate(525.296875 0)"/>
     <use xlink:href="#DejaVuSans-Bold-3" transform="translate(559.578125 0)"/>
     <use xlink:href="#DejaVuSans-Bold-47" transform="translate(594.390625 0)"/>
     <use xlink:href="#DejaVuSans-Bold-48" transform="translate(665.96875 0)"/>
     <use xlink:href="#DejaVuSans-Bold-50" transform="translate(733.796875 0)"/>
     <use xlink:href="#DejaVuSans-Bold-44" transform="translate(838 0)"/>
     <use xlink:href="#DejaVuSans-Bold-51" transform="translate(905.484375 0)"/>
     <use xlink:href="#DejaVuSans-Bold-47" transform="translate(976.671875 0)"/>
    </g>
   </g>
   <g id="text_10">
    <!--  -->
    <g style="fill: #ffffff" transform="translate(428.272297 284.268825) scale(0.13 -0.13)">
     <use xlink:href="#bootstrap-icons-4c8"/>
    </g>
   </g>
  </g>
 </g>
 <defs>
  <clipPath id="pa25085ebc2">
   <rect x="27.519795" y="38.318125" width="191.56056" height="277.762812"/>
  </clipPath>
  <clipPath id="p631f5f2c2f">
   <rect x="338.992016" y="38.318125" width="191.56056" height="277.762812"/>
  </clipPath>
 </defs>
</svg>
