<?xml version="1.0" encoding="utf-8" standalone="no"?>
<!DOCTYPE svg PUBLIC "-//W3C//DTD SVG 1.1//EN"
  "http://www.w3.org/Graphics/SVG/1.1/DTD/svg11.dtd">
<svg xmlns:xlink="http://www.w3.org/1999/xlink" width="540pt" height="302.4pt" viewBox="0 0 540 302.4" xmlns="http://www.w3.org/2000/svg" version="1.1">
 <metadata>
  <rdf:RDF xmlns:dc="http://purl.org/dc/elements/1.1/" xmlns:cc="http://creativecommons.org/ns#" xmlns:rdf="http://www.w3.org/1999/02/22-rdf-syntax-ns#">
   <cc:Work>
    <dc:type rdf:resource="http://purl.org/dc/dcmitype/StillImage"/>
    <dc:date>2026-07-17T20:49:54.673324</dc:date>
    <dc:format>image/svg+xml</dc:format>
    <dc:creator>
     <cc:Agent>
      <dc:title>Matplotlib v3.11.0, https://matplotlib.org/</dc:title>
     </cc:Agent>
    </dc:creator>
   </cc:Work>
  </rdf:RDF>
 </metadata>
 <defs>
  <style type="text/css">*{stroke-linejoin: round; stroke-linecap: butt}</style>
 </defs>
 <g id="figure_1">
  <g id="patch_1">
   <path d="M 0 302.4 
L 540 302.4 
L 540 0 
L 0 0 
z
" style="fill: #ffffff"/>
  </g>
  <g id="axes_1">
   <g id="patch_2">
    <path d="M 59.4 191.376 
C 70.0548 191.376 80.274641 187.142803 87.808722 179.608722 
C 95.342803 172.074641 99.576 161.8548 99.576 151.2 
C 99.576 140.5452 95.342803 130.325359 87.808722 122.791278 
C 80.274641 115.257197 70.0548 111.024 59.4 111.024 
C 48.7452 111.024 38.525359 115.257197 30.991278 122.791278 
C 23.457197 130.325359 19.224 140.5452 19.224 151.2 
C 19.224 161.8548 23.457197 172.074641 30.991278 179.608722 
C 38.525359 187.142803 48.7452 191.376 59.4 191.376 
L 59.4 191.376 
z
" clip-path="url(#pfbde1fe60f)" style="fill: none; stroke: #0369a1; stroke-width: 1.8; stroke-linejoin: miter"/>
   </g>
   <g id="patch_3">
    <path d="M 104.246083 137.625496 
Q 156.075729 131.182342 184.687791 89.642982 
" clip-path="url(#pfbde1fe60f)" style="fill: none; stroke: #8b5cf6; stroke-width: 1.6; stroke-linecap: round"/>
    <path d="M 179.205255 92.666523 
L 184.687791 89.642982 
L 183.817102 95.843135 
z
" clip-path="url(#pfbde1fe60f)" style="fill: #8b5cf6; stroke: #8b5cf6; stroke-width: 1.6; stroke-linecap: round"/>
   </g>
   <g id="patch_4">
    <path d="M 104.246083 164.774504 
Q 156.075729 171.217658 184.687791 212.757018 
" clip-path="url(#pfbde1fe60f)" style="fill: none; stroke: #059669; stroke-width: 1.6; stroke-linecap: round"/>
    <path d="M 183.817102 206.556865 
L 184.687791 212.757018 
L 179.205255 209.733477 
z
" clip-path="url(#pfbde1fe60f)" style="fill: #059669; stroke: #059669; stroke-width: 1.6; stroke-linecap: round"/>
   </g>
   <g id="patch_5">
    <path d="M 194.832 110.376 
L 384.048 110.376 
Q 387.936 110.376 387.936 106.488 
L 387.936 56.592 
Q 387.936 52.704 384.048 52.704 
L 194.832 52.704 
Q 190.944 52.704 190.944 56.592 
L 190.944 106.488 
Q 190.944 110.376 194.832 110.376 
z
" clip-path="url(#pfbde1fe60f)" style="fill: #8b5cf6; stroke: #8b5cf6; stroke-width: 1.6; stroke-linejoin: miter"/>
   </g>
   <g id="patch_6">
    <path d="M 194.832 249.696 
L 384.048 249.696 
Q 387.936 249.696 387.936 245.808 
L 387.936 195.912 
Q 387.936 192.024 384.048 192.024 
L 194.832 192.024 
Q 190.944 192.024 190.944 195.912 
L 190.944 245.808 
Q 190.944 249.696 194.832 249.696 
z
" clip-path="url(#pfbde1fe60f)" style="fill: #059669; stroke: #059669; stroke-width: 1.6; stroke-linejoin: miter"/>
   </g>
   <g id="patch_7">
    <path d="M 391.881665 81.216 
Q 412.561823 81.216 431.56493 81.216 
" clip-path="url(#pfbde1fe60f)" style="fill: none; stroke: #8b5cf6; stroke-width: 1.5; stroke-linecap: round"/>
    <path d="M 426.36493 78.616 
L 431.56493 81.216 
L 426.36493 83.816 
z
" clip-path="url(#pfbde1fe60f)" style="fill: #8b5cf6; stroke: #8b5cf6; stroke-width: 1.5; stroke-linecap: round"/>
   </g>
   <g id="patch_8">
    <path d="M 391.881665 220.536 
Q 412.561823 220.536 431.56493 220.536 
" clip-path="url(#pfbde1fe60f)" style="fill: none; stroke: #059669; stroke-width: 1.5; stroke-linecap: round"/>
    <path d="M 426.36493 217.936 
L 431.56493 220.536 
L 426.36493 223.136 
z
" clip-path="url(#pfbde1fe60f)" style="fill: #059669; stroke: #059669; stroke-width: 1.5; stroke-linecap: round"/>
   </g>
   <g id="patch_9">
    <path d="M 470.88 116.856 
C 480.331838 116.856 489.397827 113.100745 496.081286 106.417286 
C 502.764745 99.733827 506.52 90.667838 506.52 81.216 
C 506.52 71.764162 502.764745 62.698173 496.081286 56.014714 
C 489.397827 49.331255 480.331838 45.576 470.88 45.576 
C 461.428162 45.576 452.362173 49.331255 445.678714 56.014714 
C 438.995255 62.698173 435.24 71.764162 435.24 81.216 
C 435.24 90.667838 438.995255 99.733827 445.678714 106.417286 
C 452.362173 113.100745 461.428162 116.856 470.88 116.856 
L 470.88 116.856 
z
" clip-path="url(#pfbde1fe60f)" style="fill: none; stroke: #8b5cf6; stroke-width: 1.8; stroke-linejoin: miter"/>
   </g>
   <g id="patch_10">
    <path d="M 470.88 256.176 
C 480.331838 256.176 489.397827 252.420745 496.081286 245.737286 
C 502.764745 239.053827 506.52 229.987838 506.52 220.536 
C 506.52 211.084162 502.764745 202.018173 496.081286 195.334714 
C 489.397827 188.651255 480.331838 184.896 470.88 184.896 
C 461.428162 184.896 452.362173 188.651255 445.678714 195.334714 
C 438.995255 202.018173 435.24 211.084162 435.24 220.536 
C 435.24 229.987838 438.995255 239.053827 445.678714 245.737286 
C 452.362173 252.420745 461.428162 256.176 470.88 256.176 
L 470.88 256.176 
z
" clip-path="url(#pfbde1fe60f)" style="fill: none; stroke: #059669; stroke-width: 1.8; stroke-linejoin: miter"/>
   </g>
   <g id="line2d_1">
    <path d="M 39.96 167.4 
L 39.96 141.48 
L 50.976 141.48 
L 50.976 128.52 
L 65.88 128.52 
L 65.88 160.92 
L 78.84 160.92 
" clip-path="url(#pfbde1fe60f)" style="fill: none; stroke: #0369a1; stroke-width: 1.8; stroke-linecap: square"/>
   </g>
   <g id="line2d_2">
    <path d="M 454.68 92.88 
L 463.104 70.2 
L 470.88 89.64 
L 478.656 70.2 
L 487.08 92.88 
" clip-path="url(#pfbde1fe60f)" style="fill: none; stroke: #8b5cf6; stroke-width: 1.6; stroke-linecap: square"/>
   </g>
   <g id="line2d_3">
    <path d="M 454.68 228.96 
L 463.104 225.72 
L 470.88 216 
L 478.656 219.24 
L 487.08 203.04 
" clip-path="url(#pfbde1fe60f)" style="fill: none; stroke: #059669; stroke-width: 1.6; stroke-linecap: square"/>
   </g>
   <g id="text_1">
    <!-- Meter Signal -->
    <g style="fill: #1e293b" transform="translate(25.298711 206.28) scale(0.095 -0.095)">
     <defs>
      <path id="DejaVuSans-Bold-30" d="M 588 4666 
L 2119 4666 
L 3181 2169 
L 4250 4666 
L 5778 4666 
L 5778 0 
L 4641 0 
L 4641 3413 
L 3566 897 
L 2803 897 
L 1728 3413 
L 1728 0 
L 588 0 
L 588 4666 
z
" transform="scale(0.015625)"/>
      <path id="DejaVuSans-Bold-48" d="M 4031 1759 
L 4031 1441 
L 1416 1441 
Q 1456 1047 1700 850 
Q 1944 653 2381 653 
Q 2734 653 3104 758 
Q 3475 863 3866 1075 
L 3866 213 
Q 3469 63 3072 -14 
Q 2675 -91 2278 -91 
Q 1328 -91 801 392 
Q 275 875 275 1747 
Q 275 2603 792 3093 
Q 1309 3584 2216 3584 
Q 3041 3584 3536 3087 
Q 4031 2591 4031 1759 
z
M 2881 2131 
Q 2881 2450 2695 2645 
Q 2509 2841 2209 2841 
Q 1884 2841 1681 2658 
Q 1478 2475 1428 2131 
L 2881 2131 
z
" transform="scale(0.015625)"/>
      <path id="DejaVuSans-Bold-57" d="M 1759 4494 
L 1759 3500 
L 2913 3500 
L 2913 2700 
L 1759 2700 
L 1759 1216 
Q 1759 972 1856 886 
Q 1953 800 2241 800 
L 2816 800 
L 2816 0 
L 1856 0 
Q 1194 0 917 276 
Q 641 553 641 1216 
L 641 2700 
L 84 2700 
L 84 3500 
L 641 3500 
L 641 4494 
L 1759 4494 
z
" transform="scale(0.015625)"/>
      <path id="DejaVuSans-Bold-55" d="M 3138 2547 
Q 2991 2616 2845 2648 
Q 2700 2681 2553 2681 
Q 2122 2681 1889 2404 
Q 1656 2128 1656 1613 
L 1656 0 
L 538 0 
L 538 3500 
L 1656 3500 
L 1656 2925 
Q 1872 3269 2151 3426 
Q 2431 3584 2822 3584 
Q 2878 3584 2943 3579 
Q 3009 3575 3134 3559 
L 3138 2547 
z
" transform="scale(0.015625)"/>
      <path id="DejaVuSans-Bold-3" transform="scale(0.015625)"/>
      <path id="DejaVuSans-Bold-36" d="M 3834 4519 
L 3834 3531 
Q 3450 3703 3084 3790 
Q 2719 3878 2394 3878 
Q 1963 3878 1756 3759 
Q 1550 3641 1550 3391 
Q 1550 3203 1689 3098 
Q 1828 2994 2194 2919 
L 2706 2816 
Q 3484 2659 3812 2340 
Q 4141 2022 4141 1434 
Q 4141 663 3683 286 
Q 3225 -91 2284 -91 
Q 1841 -91 1394 -6 
Q 947 78 500 244 
L 500 1259 
Q 947 1022 1364 901 
Q 1781 781 2169 781 
Q 2563 781 2772 912 
Q 2981 1044 2981 1288 
Q 2981 1506 2839 1625 
Q 2697 1744 2272 1838 
L 1806 1941 
Q 1106 2091 782 2419 
Q 459 2747 459 3303 
Q 459 4000 909 4375 
Q 1359 4750 2203 4750 
Q 2588 4750 2994 4692 
Q 3400 4634 3834 4519 
z
" transform="scale(0.015625)"/>
      <path id="DejaVuSans-Bold-4c" d="M 538 3500 
L 1656 3500 
L 1656 0 
L 538 0 
L 538 3500 
z
M 538 4863 
L 1656 4863 
L 1656 3950 
L 538 3950 
L 538 4863 
z
" transform="scale(0.015625)"/>
      <path id="DejaVuSans-Bold-4a" d="M 2919 594 
Q 2688 288 2409 144 
Q 2131 0 1766 0 
Q 1125 0 706 504 
Q 288 1009 288 1791 
Q 288 2575 706 3076 
Q 1125 3578 1766 3578 
Q 2131 3578 2409 3434 
Q 2688 3291 2919 2981 
L 2919 3500 
L 4044 3500 
L 4044 353 
Q 4044 -491 3511 -936 
Q 2978 -1381 1966 -1381 
Q 1638 -1381 1331 -1331 
Q 1025 -1281 716 -1178 
L 716 -306 
Q 1009 -475 1290 -558 
Q 1572 -641 1856 -641 
Q 2406 -641 2662 -400 
Q 2919 -159 2919 353 
L 2919 594 
z
M 2181 2772 
Q 1834 2772 1640 2515 
Q 1447 2259 1447 1791 
Q 1447 1309 1634 1061 
Q 1822 813 2181 813 
Q 2531 813 2725 1069 
Q 2919 1325 2919 1791 
Q 2919 2259 2725 2515 
Q 2531 2772 2181 2772 
z
" transform="scale(0.015625)"/>
      <path id="DejaVuSans-Bold-51" d="M 4056 2131 
L 4056 0 
L 2931 0 
L 2931 347 
L 2931 1631 
Q 2931 2084 2911 2256 
Q 2891 2428 2841 2509 
Q 2775 2619 2662 2680 
Q 2550 2741 2406 2741 
Q 2056 2741 1856 2470 
Q 1656 2200 1656 1722 
L 1656 0 
L 538 0 
L 538 3500 
L 1656 3500 
L 1656 2988 
Q 1909 3294 2193 3439 
Q 2478 3584 2822 3584 
Q 3428 3584 3742 3212 
Q 4056 2841 4056 2131 
z
" transform="scale(0.015625)"/>
      <path id="DejaVuSans-Bold-44" d="M 2106 1575 
Q 1756 1575 1579 1456 
Q 1403 1338 1403 1106 
Q 1403 894 1545 773 
Q 1688 653 1941 653 
Q 2256 653 2472 879 
Q 2688 1106 2688 1447 
L 2688 1575 
L 2106 1575 
z
M 3816 1997 
L 3816 0 
L 2688 0 
L 2688 519 
Q 2463 200 2181 54 
Q 1900 -91 1497 -91 
Q 953 -91 614 226 
Q 275 544 275 1050 
Q 275 1666 698 1953 
Q 1122 2241 2028 2241 
L 2688 2241 
L 2688 2328 
Q 2688 2594 2478 2717 
Q 2269 2841 1825 2841 
Q 1466 2841 1156 2769 
Q 847 2697 581 2553 
L 581 3406 
Q 941 3494 1303 3539 
Q 1666 3584 2028 3584 
Q 2975 3584 3395 3211 
Q 3816 2838 3816 1997 
z
" transform="scale(0.015625)"/>
      <path id="DejaVuSans-Bold-4f" d="M 538 4863 
L 1656 4863 
L 1656 0 
L 538 0 
L 538 4863 
z
" transform="scale(0.015625)"/>
     </defs>
     <use xlink:href="#DejaVuSans-Bold-30"/>
     <use xlink:href="#DejaVuSans-Bold-48" transform="translate(99.515625 0)"/>
     <use xlink:href="#DejaVuSans-Bold-57" transform="translate(167.34375 0)"/>
     <use xlink:href="#DejaVuSans-Bold-48" transform="translate(215.140625 0)"/>
     <use xlink:href="#DejaVuSans-Bold-55" transform="translate(282.96875 0)"/>
     <use xlink:href="#DejaVuSans-Bold-3" transform="translate(332.28125 0)"/>
     <use xlink:href="#DejaVuSans-Bold-36" transform="translate(367.09375 0)"/>
     <use xlink:href="#DejaVuSans-Bold-4c" transform="translate(439.109375 0)"/>
     <use xlink:href="#DejaVuSans-Bold-4a" transform="translate(473.390625 0)"/>
     <use xlink:href="#DejaVuSans-Bold-51" transform="translate(544.96875 0)"/>
     <use xlink:href="#DejaVuSans-Bold-44" transform="translate(616.15625 0)"/>
     <use xlink:href="#DejaVuSans-Bold-4f" transform="translate(683.640625 0)"/>
    </g>
   </g>
   <g id="text_2">
    <!-- HIGH FREQUENCY -->
    <g style="fill: #ffffff" transform="translate(247.976961 73.733785) scale(0.083 -0.083)">
     <defs>
      <path id="DejaVuSans-Bold-2b" d="M 588 4666 
L 1791 4666 
L 1791 2888 
L 3566 2888 
L 3566 4666 
L 4769 4666 
L 4769 0 
L 3566 0 
L 3566 1978 
L 1791 1978 
L 1791 0 
L 588 0 
L 588 4666 
z
" transform="scale(0.015625)"/>
      <path id="DejaVuSans-Bold-2c" d="M 588 4666 
L 1791 4666 
L 1791 0 
L 588 0 
L 588 4666 
z
" transform="scale(0.015625)"/>
      <path id="DejaVuSans-Bold-2a" d="M 4781 347 
Q 4331 128 3847 18 
Q 3363 -91 2847 -91 
Q 1681 -91 1000 561 
Q 319 1213 319 2328 
Q 319 3456 1012 4103 
Q 1706 4750 2913 4750 
Q 3378 4750 3804 4662 
Q 4231 4575 4609 4403 
L 4609 3438 
Q 4219 3659 3833 3768 
Q 3447 3878 3059 3878 
Q 2341 3878 1952 3476 
Q 1563 3075 1563 2328 
Q 1563 1588 1938 1184 
Q 2313 781 3003 781 
Q 3191 781 3352 804 
Q 3513 828 3641 878 
L 3641 1784 
L 2906 1784 
L 2906 2591 
L 4781 2591 
L 4781 347 
z
" transform="scale(0.015625)"/>
      <path id="DejaVuSans-Bold-29" d="M 588 4666 
L 3834 4666 
L 3834 3756 
L 1791 3756 
L 1791 2888 
L 3713 2888 
L 3713 1978 
L 1791 1978 
L 1791 0 
L 588 0 
L 588 4666 
z
" transform="scale(0.015625)"/>
      <path id="DejaVuSans-Bold-35" d="M 2297 2597 
Q 2675 2597 2839 2737 
Q 3003 2878 3003 3200 
Q 3003 3519 2839 3656 
Q 2675 3794 2297 3794 
L 1791 3794 
L 1791 2597 
L 2297 2597 
z
M 1791 1766 
L 1791 0 
L 588 0 
L 588 4666 
L 2425 4666 
Q 3347 4666 3776 4356 
Q 4206 4047 4206 3378 
Q 4206 2916 3982 2619 
Q 3759 2322 3309 2181 
Q 3556 2125 3751 1926 
Q 3947 1728 4147 1325 
L 4800 0 
L 3519 0 
L 2950 1159 
Q 2778 1509 2601 1637 
Q 2425 1766 2131 1766 
L 1791 1766 
z
" transform="scale(0.015625)"/>
      <path id="DejaVuSans-Bold-28" d="M 588 4666 
L 3834 4666 
L 3834 3756 
L 1791 3756 
L 1791 2888 
L 3713 2888 
L 3713 1978 
L 1791 1978 
L 1791 909 
L 3903 909 
L 3903 0 
L 588 0 
L 588 4666 
z
" transform="scale(0.015625)"/>
      <path id="DejaVuSans-Bold-34" d="M 2847 -84 
L 2753 -84 
Q 1600 -84 959 553 
Q 319 1191 319 2328 
Q 319 3463 958 4106 
Q 1597 4750 2719 4750 
Q 3853 4750 4486 4112 
Q 5119 3475 5119 2328 
Q 5119 1541 4783 972 
Q 4447 403 3816 116 
L 4756 -934 
L 3609 -934 
L 2847 -84 
z
M 2719 3878 
Q 2169 3878 1866 3472 
Q 1563 3066 1563 2328 
Q 1563 1578 1859 1179 
Q 2156 781 2719 781 
Q 3272 781 3575 1187 
Q 3878 1594 3878 2328 
Q 3878 3066 3575 3472 
Q 3272 3878 2719 3878 
z
" transform="scale(0.015625)"/>
      <path id="DejaVuSans-Bold-38" d="M 588 4666 
L 1791 4666 
L 1791 1869 
Q 1791 1291 1980 1042 
Q 2169 794 2597 794 
Q 3028 794 3217 1042 
Q 3406 1291 3406 1869 
L 3406 4666 
L 4609 4666 
L 4609 1869 
Q 4609 878 4112 393 
Q 3616 -91 2597 -91 
Q 1581 -91 1084 393 
Q 588 878 588 1869 
L 588 4666 
z
" transform="scale(0.015625)"/>
      <path id="DejaVuSans-Bold-31" d="M 588 4666 
L 1931 4666 
L 3628 1466 
L 3628 4666 
L 4769 4666 
L 4769 0 
L 3425 0 
L 1728 3200 
L 1728 0 
L 588 0 
L 588 4666 
z
" transform="scale(0.015625)"/>
      <path id="DejaVuSans-Bold-26" d="M 4288 256 
Q 3956 84 3597 -3 
Q 3238 -91 2847 -91 
Q 1681 -91 1000 561 
Q 319 1213 319 2328 
Q 319 3447 1000 4098 
Q 1681 4750 2847 4750 
Q 3238 4750 3597 4662 
Q 3956 4575 4288 4403 
L 4288 3438 
Q 3953 3666 3628 3772 
Q 3303 3878 2944 3878 
Q 2300 3878 1931 3465 
Q 1563 3053 1563 2328 
Q 1563 1606 1931 1193 
Q 2300 781 2944 781 
Q 3303 781 3628 887 
Q 3953 994 4288 1222 
L 4288 256 
z
" transform="scale(0.015625)"/>
      <path id="DejaVuSans-Bold-3c" d="M -63 4666 
L 1253 4666 
L 2316 3003 
L 3378 4666 
L 4697 4666 
L 2919 1966 
L 2919 0 
L 1716 0 
L 1716 1966 
L -63 4666 
z
" transform="scale(0.015625)"/>
     </defs>
     <use xlink:href="#DejaVuSans-Bold-2b"/>
     <use xlink:href="#DejaVuSans-Bold-2c" transform="translate(83.6875 0)"/>
     <use xlink:href="#DejaVuSans-Bold-2a" transform="translate(120.890625 0)"/>
     <use xlink:href="#DejaVuSans-Bold-2b" transform="translate(202.96875 0)"/>
     <use xlink:href="#DejaVuSans-Bold-3" transform="translate(286.65625 0)"/>
     <use xlink:href="#DejaVuSans-Bold-29" transform="translate(321.46875 0)"/>
     <use xlink:href="#DejaVuSans-Bold-35" transform="translate(389.78125 0)"/>
     <use xlink:href="#DejaVuSans-Bold-28" transform="translate(466.78125 0)"/>
     <use xlink:href="#DejaVuSans-Bold-34" transform="translate(535.09375 0)"/>
     <use xlink:href="#DejaVuSans-Bold-38" transform="translate(620.109375 0)"/>
     <use xlink:href="#DejaVuSans-Bold-28" transform="translate(701.3125 0)"/>
     <use xlink:href="#DejaVuSans-Bold-31" transform="translate(769.625 0)"/>
     <use xlink:href="#DejaVuSans-Bold-26" transform="translate(853.3125 0)"/>
     <use xlink:href="#DejaVuSans-Bold-3c" transform="translate(926.703125 0)"/>
    </g>
    <!-- kHz and up -->
    <g style="fill: #ffffff" transform="translate(263.252203 83.696055) scale(0.083 -0.083)">
     <defs>
      <path id="DejaVuSans-Bold-4e" d="M 538 4863 
L 1656 4863 
L 1656 2216 
L 2944 3500 
L 4244 3500 
L 2534 1894 
L 4378 0 
L 3022 0 
L 1656 1459 
L 1656 0 
L 538 0 
L 538 4863 
z
" transform="scale(0.015625)"/>
      <path id="DejaVuSans-Bold-5d" d="M 366 3500 
L 3419 3500 
L 3419 2719 
L 1575 800 
L 3419 800 
L 3419 0 
L 288 0 
L 288 781 
L 2131 2700 
L 366 2700 
L 366 3500 
z
" transform="scale(0.015625)"/>
      <path id="DejaVuSans-Bold-47" d="M 2919 2988 
L 2919 4863 
L 4044 4863 
L 4044 0 
L 2919 0 
L 2919 506 
Q 2688 197 2409 53 
Q 2131 -91 1766 -91 
Q 1119 -91 703 423 
Q 288 938 288 1747 
Q 288 2556 703 3070 
Q 1119 3584 1766 3584 
Q 2128 3584 2408 3439 
Q 2688 3294 2919 2988 
z
M 2181 722 
Q 2541 722 2730 984 
Q 2919 1247 2919 1747 
Q 2919 2247 2730 2509 
Q 2541 2772 2181 2772 
Q 1825 2772 1636 2509 
Q 1447 2247 1447 1747 
Q 1447 1247 1636 984 
Q 1825 722 2181 722 
z
" transform="scale(0.015625)"/>
      <path id="DejaVuSans-Bold-58" d="M 500 1363 
L 500 3500 
L 1625 3500 
L 1625 3150 
Q 1625 2866 1622 2436 
Q 1619 2006 1619 1863 
Q 1619 1441 1641 1255 
Q 1663 1069 1716 984 
Q 1784 875 1895 815 
Q 2006 756 2150 756 
Q 2500 756 2700 1025 
Q 2900 1294 2900 1772 
L 2900 3500 
L 4019 3500 
L 4019 0 
L 2900 0 
L 2900 506 
Q 2647 200 2364 54 
Q 2081 -91 1741 -91 
Q 1134 -91 817 281 
Q 500 653 500 1363 
z
" transform="scale(0.015625)"/>
      <path id="DejaVuSans-Bold-53" d="M 1656 506 
L 1656 -1331 
L 538 -1331 
L 538 3500 
L 1656 3500 
L 1656 2988 
Q 1888 3294 2169 3439 
Q 2450 3584 2816 3584 
Q 3463 3584 3878 3070 
Q 4294 2556 4294 1747 
Q 4294 938 3878 423 
Q 3463 -91 2816 -91 
Q 2450 -91 2169 54 
Q 1888 200 1656 506 
z
M 2400 2772 
Q 2041 2772 1848 2508 
Q 1656 2244 1656 1747 
Q 1656 1250 1848 986 
Q 2041 722 2400 722 
Q 2759 722 2948 984 
Q 3138 1247 3138 1747 
Q 3138 2247 2948 2509 
Q 2759 2772 2400 2772 
z
" transform="scale(0.015625)"/>
     </defs>
     <use xlink:href="#DejaVuSans-Bold-4e"/>
     <use xlink:href="#DejaVuSans-Bold-2b" transform="translate(66.5 0)"/>
     <use xlink:href="#DejaVuSans-Bold-5d" transform="translate(150.1875 0)"/>
     <use xlink:href="#DejaVuSans-Bold-3" transform="translate(208.390625 0)"/>
     <use xlink:href="#DejaVuSans-Bold-44" transform="translate(243.203125 0)"/>
     <use xlink:href="#DejaVuSans-Bold-51" transform="translate(310.6875 0)"/>
     <use xlink:href="#DejaVuSans-Bold-47" transform="translate(381.875 0)"/>
     <use xlink:href="#DejaVuSans-Bold-3" transform="translate(453.453125 0)"/>
     <use xlink:href="#DejaVuSans-Bold-58" transform="translate(488.265625 0)"/>
     <use xlink:href="#DejaVuSans-Bold-53" transform="translate(559.453125 0)"/>
    </g>
    <!-- (Chapters 2-3) -->
    <g style="fill: #ffffff" transform="translate(255.618797 93.658324) scale(0.083 -0.083)">
     <defs>
      <path id="DejaVuSans-Bold-b" d="M 2413 -844 
L 1484 -844 
Q 1006 -72 778 623 
Q 550 1319 550 2003 
Q 550 2688 779 3389 
Q 1009 4091 1484 4856 
L 2413 4856 
Q 2013 4116 1813 3408 
Q 1613 2700 1613 2009 
Q 1613 1319 1811 609 
Q 2009 -100 2413 -844 
z
" transform="scale(0.015625)"/>
      <path id="DejaVuSans-Bold-4b" d="M 4056 2131 
L 4056 0 
L 2931 0 
L 2931 347 
L 2931 1625 
Q 2931 2084 2911 2256 
Q 2891 2428 2841 2509 
Q 2775 2619 2662 2680 
Q 2550 2741 2406 2741 
Q 2056 2741 1856 2470 
Q 1656 2200 1656 1722 
L 1656 0 
L 538 0 
L 538 4863 
L 1656 4863 
L 1656 2988 
Q 1909 3294 2193 3439 
Q 2478 3584 2822 3584 
Q 3428 3584 3742 3212 
Q 4056 2841 4056 2131 
z
" transform="scale(0.015625)"/>
      <path id="DejaVuSans-Bold-56" d="M 3272 3391 
L 3272 2541 
Q 2913 2691 2578 2766 
Q 2244 2841 1947 2841 
Q 1628 2841 1473 2761 
Q 1319 2681 1319 2516 
Q 1319 2381 1436 2309 
Q 1553 2238 1856 2203 
L 2053 2175 
Q 2913 2066 3209 1816 
Q 3506 1566 3506 1031 
Q 3506 472 3093 190 
Q 2681 -91 1863 -91 
Q 1516 -91 1145 -36 
Q 775 19 384 128 
L 384 978 
Q 719 816 1070 734 
Q 1422 653 1784 653 
Q 2113 653 2278 743 
Q 2444 834 2444 1013 
Q 2444 1163 2330 1236 
Q 2216 1309 1875 1350 
L 1678 1375 
Q 931 1469 631 1722 
Q 331 1975 331 2491 
Q 331 3047 712 3315 
Q 1094 3584 1881 3584 
Q 2191 3584 2531 3537 
Q 2872 3491 3272 3391 
z
" transform="scale(0.015625)"/>
      <path id="DejaVuSans-Bold-15" d="M 1844 884 
L 3897 884 
L 3897 0 
L 506 0 
L 506 884 
L 2209 2388 
Q 2438 2594 2547 2791 
Q 2656 2988 2656 3200 
Q 2656 3528 2436 3728 
Q 2216 3928 1850 3928 
Q 1569 3928 1234 3808 
Q 900 3688 519 3450 
L 519 4475 
Q 925 4609 1322 4679 
Q 1719 4750 2100 4750 
Q 2938 4750 3402 4381 
Q 3866 4013 3866 3353 
Q 3866 2972 3669 2642 
Q 3472 2313 2841 1759 
L 1844 884 
z
" transform="scale(0.015625)"/>
      <path id="DejaVuSans-Bold-10" d="M 347 2297 
L 2309 2297 
L 2309 1388 
L 347 1388 
L 347 2297 
z
" transform="scale(0.015625)"/>
      <path id="DejaVuSans-Bold-16" d="M 2981 2516 
Q 3453 2394 3698 2092 
Q 3944 1791 3944 1325 
Q 3944 631 3412 270 
Q 2881 -91 1863 -91 
Q 1503 -91 1142 -33 
Q 781 25 428 141 
L 428 1069 
Q 766 900 1098 814 
Q 1431 728 1753 728 
Q 2231 728 2486 893 
Q 2741 1059 2741 1369 
Q 2741 1688 2480 1852 
Q 2219 2016 1709 2016 
L 1228 2016 
L 1228 2791 
L 1734 2791 
Q 2188 2791 2409 2933 
Q 2631 3075 2631 3366 
Q 2631 3634 2415 3781 
Q 2200 3928 1806 3928 
Q 1516 3928 1219 3862 
Q 922 3797 628 3669 
L 628 4550 
Q 984 4650 1334 4700 
Q 1684 4750 2022 4750 
Q 2931 4750 3382 4451 
Q 3834 4153 3834 3553 
Q 3834 3144 3618 2883 
Q 3403 2622 2981 2516 
z
" transform="scale(0.015625)"/>
      <path id="DejaVuSans-Bold-c" d="M 513 -844 
Q 913 -100 1113 609 
Q 1313 1319 1313 2009 
Q 1313 2700 1113 3408 
Q 913 4116 513 4856 
L 1441 4856 
Q 1916 4091 2145 3389 
Q 2375 2688 2375 2003 
Q 2375 1319 2147 623 
Q 1919 -72 1441 -844 
L 513 -844 
z
" transform="scale(0.015625)"/>
     </defs>
     <use xlink:href="#DejaVuSans-Bold-b"/>
     <use xlink:href="#DejaVuSans-Bold-26" transform="translate(45.703125 0)"/>
     <use xlink:href="#DejaVuSans-Bold-4b" transform="translate(119.09375 0)"/>
     <use xlink:href="#DejaVuSans-Bold-44" transform="translate(190.28125 0)"/>
     <use xlink:href="#DejaVuSans-Bold-53" transform="translate(257.765625 0)"/>
     <use xlink:href="#DejaVuSans-Bold-57" transform="translate(329.34375 0)"/>
     <use xlink:href="#DejaVuSans-Bold-48" transform="translate(377.140625 0)"/>
     <use xlink:href="#DejaVuSans-Bold-55" transform="translate(444.96875 0)"/>
     <use xlink:href="#DejaVuSans-Bold-56" transform="translate(494.28125 0)"/>
     <use xlink:href="#DejaVuSans-Bold-3" transform="translate(553.796875 0)"/>
     <use xlink:href="#DejaVuSans-Bold-15" transform="translate(588.609375 0)"/>
     <use xlink:href="#DejaVuSans-Bold-10" transform="translate(658.1875 0)"/>
     <use xlink:href="#DejaVuSans-Bold-16" transform="translate(699.6875 0)"/>
     <use xlink:href="#DejaVuSans-Bold-c" transform="translate(769.265625 0)"/>
    </g>
   </g>
   <g id="text_3">
    <!-- LOW FREQUENCY -->
    <g style="fill: #ffffff" transform="translate(249.271242 213.054109) scale(0.083 -0.083)">
     <defs>
      <path id="DejaVuSans-Bold-2f" d="M 588 4666 
L 1791 4666 
L 1791 909 
L 3903 909 
L 3903 0 
L 588 0 
L 588 4666 
z
" transform="scale(0.015625)"/>
      <path id="DejaVuSans-Bold-32" d="M 2719 3878 
Q 2169 3878 1866 3472 
Q 1563 3066 1563 2328 
Q 1563 1594 1866 1187 
Q 2169 781 2719 781 
Q 3272 781 3575 1187 
Q 3878 1594 3878 2328 
Q 3878 3066 3575 3472 
Q 3272 3878 2719 3878 
z
M 2719 4750 
Q 3844 4750 4481 4106 
Q 5119 3463 5119 2328 
Q 5119 1197 4481 553 
Q 3844 -91 2719 -91 
Q 1597 -91 958 553 
Q 319 1197 319 2328 
Q 319 3463 958 4106 
Q 1597 4750 2719 4750 
z
" transform="scale(0.015625)"/>
      <path id="DejaVuSans-Bold-3a" d="M 191 4666 
L 1344 4666 
L 2150 1275 
L 2950 4666 
L 4109 4666 
L 4909 1275 
L 5716 4666 
L 6859 4666 
L 5759 0 
L 4372 0 
L 3525 3547 
L 2688 0 
L 1300 0 
L 191 4666 
z
" transform="scale(0.015625)"/>
     </defs>
     <use xlink:href="#DejaVuSans-Bold-2f"/>
     <use xlink:href="#DejaVuSans-Bold-32" transform="translate(60.15625 0)"/>
     <use xlink:href="#DejaVuSans-Bold-3a" transform="translate(145.171875 0)"/>
     <use xlink:href="#DejaVuSans-Bold-3" transform="translate(255.46875 0)"/>
     <use xlink:href="#DejaVuSans-Bold-29" transform="translate(290.28125 0)"/>
     <use xlink:href="#DejaVuSans-Bold-35" transform="translate(358.59375 0)"/>
     <use xlink:href="#DejaVuSans-Bold-28" transform="translate(435.59375 0)"/>
     <use xlink:href="#DejaVuSans-Bold-34" transform="translate(503.90625 0)"/>
     <use xlink:href="#DejaVuSans-Bold-38" transform="translate(588.921875 0)"/>
     <use xlink:href="#DejaVuSans-Bold-28" transform="translate(670.125 0)"/>
     <use xlink:href="#DejaVuSans-Bold-31" transform="translate(738.4375 0)"/>
     <use xlink:href="#DejaVuSans-Bold-26" transform="translate(822.125 0)"/>
     <use xlink:href="#DejaVuSans-Bold-3c" transform="translate(895.515625 0)"/>
    </g>
    <!-- smart-meter rate -->
    <g style="fill: #ffffff" transform="translate(249.018352 223.01573) scale(0.083 -0.083)">
     <defs>
      <path id="DejaVuSans-Bold-50" d="M 3781 2919 
Q 3994 3244 4286 3414 
Q 4578 3584 4928 3584 
Q 5531 3584 5847 3212 
Q 6163 2841 6163 2131 
L 6163 0 
L 5038 0 
L 5038 1825 
Q 5041 1866 5042 1909 
Q 5044 1953 5044 2034 
Q 5044 2406 4934 2573 
Q 4825 2741 4581 2741 
Q 4263 2741 4089 2478 
Q 3916 2216 3909 1719 
L 3909 0 
L 2784 0 
L 2784 1825 
Q 2784 2406 2684 2573 
Q 2584 2741 2328 2741 
Q 2006 2741 1831 2477 
Q 1656 2213 1656 1722 
L 1656 0 
L 531 0 
L 531 3500 
L 1656 3500 
L 1656 2988 
Q 1863 3284 2130 3434 
Q 2397 3584 2719 3584 
Q 3081 3584 3359 3409 
Q 3638 3234 3781 2919 
z
" transform="scale(0.015625)"/>
     </defs>
     <use xlink:href="#DejaVuSans-Bold-56"/>
     <use xlink:href="#DejaVuSans-Bold-50" transform="translate(59.515625 0)"/>
     <use xlink:href="#DejaVuSans-Bold-44" transform="translate(163.71875 0)"/>
     <use xlink:href="#DejaVuSans-Bold-55" transform="translate(231.203125 0)"/>
     <use xlink:href="#DejaVuSans-Bold-57" transform="translate(280.515625 0)"/>
     <use xlink:href="#DejaVuSans-Bold-10" transform="translate(328.3125 0)"/>
     <use xlink:href="#DejaVuSans-Bold-50" transform="translate(369.8125 0)"/>
     <use xlink:href="#DejaVuSans-Bold-48" transform="translate(474.015625 0)"/>
     <use xlink:href="#DejaVuSans-Bold-57" transform="translate(541.84375 0)"/>
     <use xlink:href="#DejaVuSans-Bold-48" transform="translate(589.640625 0)"/>
     <use xlink:href="#DejaVuSans-Bold-55" transform="translate(657.46875 0)"/>
     <use xlink:href="#DejaVuSans-Bold-3" transform="translate(706.78125 0)"/>
     <use xlink:href="#DejaVuSans-Bold-55" transform="translate(741.59375 0)"/>
     <use xlink:href="#DejaVuSans-Bold-44" transform="translate(790.90625 0)"/>
     <use xlink:href="#DejaVuSans-Bold-57" transform="translate(858.390625 0)"/>
     <use xlink:href="#DejaVuSans-Bold-48" transform="translate(906.1875 0)"/>
    </g>
    <!-- (Chapter 4) -->
    <g style="fill: #ffffff" transform="translate(262.698438 232.978) scale(0.083 -0.083)">
     <defs>
      <path id="DejaVuSans-Bold-17" d="M 2356 3675 
L 1038 1722 
L 2356 1722 
L 2356 3675 
z
M 2156 4666 
L 3494 4666 
L 3494 1722 
L 4159 1722 
L 4159 850 
L 3494 850 
L 3494 0 
L 2356 0 
L 2356 850 
L 288 850 
L 288 1881 
L 2156 4666 
z
" transform="scale(0.015625)"/>
     </defs>
     <use xlink:href="#DejaVuSans-Bold-b"/>
     <use xlink:href="#DejaVuSans-Bold-26" transform="translate(45.703125 0)"/>
     <use xlink:href="#DejaVuSans-Bold-4b" transform="translate(119.09375 0)"/>
     <use xlink:href="#DejaVuSans-Bold-44" transform="translate(190.28125 0)"/>
     <use xlink:href="#DejaVuSans-Bold-53" transform="translate(257.765625 0)"/>
     <use xlink:href="#DejaVuSans-Bold-57" transform="translate(329.34375 0)"/>
     <use xlink:href="#DejaVuSans-Bold-48" transform="translate(377.140625 0)"/>
     <use xlink:href="#DejaVuSans-Bold-55" transform="translate(444.96875 0)"/>
     <use xlink:href="#DejaVuSans-Bold-3" transform="translate(494.28125 0)"/>
     <use xlink:href="#DejaVuSans-Bold-17" transform="translate(529.09375 0)"/>
     <use xlink:href="#DejaVuSans-Bold-c" transform="translate(598.671875 0)"/>
    </g>
   </g>
   <g id="text_4">
    <!-- Load -->
    <g style="fill: #1e293b" transform="translate(458.663203 136.259473) scale(0.09 -0.09)">
     <defs>
      <path id="DejaVuSans-Bold-52" d="M 2203 2784 
Q 1831 2784 1636 2517 
Q 1441 2250 1441 1747 
Q 1441 1244 1636 976 
Q 1831 709 2203 709 
Q 2569 709 2762 976 
Q 2956 1244 2956 1747 
Q 2956 2250 2762 2517 
Q 2569 2784 2203 2784 
z
M 2203 3584 
Q 3106 3584 3614 3096 
Q 4122 2609 4122 1747 
Q 4122 884 3614 396 
Q 3106 -91 2203 -91 
Q 1297 -91 786 396 
Q 275 884 275 1747 
Q 275 2609 786 3096 
Q 1297 3584 2203 3584 
z
" transform="scale(0.015625)"/>
     </defs>
     <use xlink:href="#DejaVuSans-Bold-2f"/>
     <use xlink:href="#DejaVuSans-Bold-52" transform="translate(63.71875 0)"/>
     <use xlink:href="#DejaVuSans-Bold-44" transform="translate(132.421875 0)"/>
     <use xlink:href="#DejaVuSans-Bold-47" transform="translate(199.90625 0)"/>
    </g>
    <!-- Identification -->
    <g style="fill: #1e293b" transform="translate(437.006953 147.061934) scale(0.09 -0.09)">
     <defs>
      <path id="DejaVuSans-Bold-13ab" d="M 3078 4863 
L 4206 4863 
L 4206 3950 
L 3078 3950 
L 3078 4863 
z
M 2847 4863 
L 2847 4128 
L 2228 4128 
Q 1994 4128 1903 4042 
Q 1813 3956 1813 3744 
L 1813 3500 
L 4206 3500 
L 4206 0 
L 3078 0 
L 3078 2700 
L 1813 2700 
L 1813 0 
L 684 0 
L 684 2700 
L 134 2700 
L 134 3500 
L 684 3500 
L 684 3744 
Q 684 4316 1003 4589 
Q 1322 4863 1991 4863 
L 2847 4863 
z
" transform="scale(0.015625)"/>
      <path id="DejaVuSans-Bold-46" d="M 3366 3391 
L 3366 2478 
Q 3138 2634 2908 2709 
Q 2678 2784 2431 2784 
Q 1963 2784 1702 2511 
Q 1441 2238 1441 1747 
Q 1441 1256 1702 982 
Q 1963 709 2431 709 
Q 2694 709 2930 787 
Q 3166 866 3366 1019 
L 3366 103 
Q 3103 6 2833 -42 
Q 2563 -91 2291 -91 
Q 1344 -91 809 395 
Q 275 881 275 1747 
Q 275 2613 809 3098 
Q 1344 3584 2291 3584 
Q 2566 3584 2833 3536 
Q 3100 3488 3366 3391 
z
" transform="scale(0.015625)"/>
     </defs>
     <use xlink:href="#DejaVuSans-Bold-2c"/>
     <use xlink:href="#DejaVuSans-Bold-47" transform="translate(37.203125 0)"/>
     <use xlink:href="#DejaVuSans-Bold-48" transform="translate(108.78125 0)"/>
     <use xlink:href="#DejaVuSans-Bold-51" transform="translate(176.609375 0)"/>
     <use xlink:href="#DejaVuSans-Bold-57" transform="translate(247.796875 0)"/>
     <use xlink:href="#DejaVuSans-Bold-4c" transform="translate(295.59375 0)"/>
     <use xlink:href="#DejaVuSans-Bold-13ab" transform="translate(329.875 0)"/>
     <use xlink:href="#DejaVuSans-Bold-46" transform="translate(404 0)"/>
     <use xlink:href="#DejaVuSans-Bold-44" transform="translate(463.28125 0)"/>
     <use xlink:href="#DejaVuSans-Bold-57" transform="translate(530.765625 0)"/>
     <use xlink:href="#DejaVuSans-Bold-4c" transform="translate(578.5625 0)"/>
     <use xlink:href="#DejaVuSans-Bold-52" transform="translate(612.84375 0)"/>
     <use xlink:href="#DejaVuSans-Bold-51" transform="translate(681.546875 0)"/>
    </g>
   </g>
   <g id="text_5">
    <!-- Energy -->
    <g style="fill: #1e293b" transform="translate(453.176719 272.33877) scale(0.09 -0.09)">
     <defs>
      <path id="DejaVuSans-Bold-5c" d="M 78 3500 
L 1197 3500 
L 2138 1125 
L 2938 3500 
L 4056 3500 
L 2584 -331 
Q 2363 -916 2067 -1148 
Q 1772 -1381 1288 -1381 
L 641 -1381 
L 641 -647 
L 991 -647 
Q 1275 -647 1404 -556 
Q 1534 -466 1606 -231 
L 1638 -134 
L 78 3500 
z
" transform="scale(0.015625)"/>
     </defs>
     <use xlink:href="#DejaVuSans-Bold-28"/>
     <use xlink:href="#DejaVuSans-Bold-51" transform="translate(68.3125 0)"/>
     <use xlink:href="#DejaVuSans-Bold-48" transform="translate(139.5 0)"/>
     <use xlink:href="#DejaVuSans-Bold-55" transform="translate(207.328125 0)"/>
     <use xlink:href="#DejaVuSans-Bold-4a" transform="translate(256.640625 0)"/>
     <use xlink:href="#DejaVuSans-Bold-5c" transform="translate(328.21875 0)"/>
    </g>
    <!-- Estimation -->
    <g style="fill: #1e293b" transform="translate(443.719688 283.14123) scale(0.09 -0.09)">
     <use xlink:href="#DejaVuSans-Bold-28"/>
     <use xlink:href="#DejaVuSans-Bold-56" transform="translate(68.3125 0)"/>
     <use xlink:href="#DejaVuSans-Bold-57" transform="translate(127.828125 0)"/>
     <use xlink:href="#DejaVuSans-Bold-4c" transform="translate(175.625 0)"/>
     <use xlink:href="#DejaVuSans-Bold-50" transform="translate(209.90625 0)"/>
     <use xlink:href="#DejaVuSans-Bold-44" transform="translate(314.109375 0)"/>
     <use xlink:href="#DejaVuSans-Bold-57" transform="translate(381.59375 0)"/>
     <use xlink:href="#DejaVuSans-Bold-4c" transform="translate(429.390625 0)"/>
     <use xlink:href="#DejaVuSans-Bold-52" transform="translate(463.671875 0)"/>
     <use xlink:href="#DejaVuSans-Bold-51" transform="translate(532.375 0)"/>
    </g>
   </g>
  </g>
 </g>
 <defs>
  <clipPath id="pfbde1fe60f">
   <rect x="10.8" y="15.12" width="518.4" height="272.16"/>
  </clipPath>
 </defs>
</svg>
