<?xml version="1.0" encoding="utf-8" standalone="no"?>
<!DOCTYPE svg PUBLIC "-//W3C//DTD SVG 1.1//EN"
  "http://www.w3.org/Graphics/SVG/1.1/DTD/svg11.dtd">
<svg xmlns:xlink="http://www.w3.org/1999/xlink" width="547.2pt" height="403.2pt" viewBox="0 0 547.2 403.2" xmlns="http://www.w3.org/2000/svg" version="1.1">
 <metadata>
  <rdf:RDF xmlns:dc="http://purl.org/dc/elements/1.1/" xmlns:cc="http://creativecommons.org/ns#" xmlns:rdf="http://www.w3.org/1999/02/22-rdf-syntax-ns#">
   <cc:Work>
    <dc:type rdf:resource="http://purl.org/dc/dcmitype/StillImage"/>
    <dc:date>2026-07-17T20:49:55.031257</dc:date>
    <dc:format>image/svg+xml</dc:format>
    <dc:creator>
     <cc:Agent>
      <dc:title>Matplotlib v3.11.0, https://matplotlib.org/</dc:title>
     </cc:Agent>
    </dc:creator>
   </cc:Work>
  </rdf:RDF>
 </metadata>
 <defs>
  <style type="text/css">*{stroke-linejoin: round; stroke-linecap: butt}</style>
 </defs>
 <g id="figure_1">
  <g id="patch_1">
   <path d="M 0 403.2 
L 547.2 403.2 
L 547.2 0 
L 0 0 
z
" style="fill: #ffffff"/>
  </g>
  <g id="axes_1">
   <g id="patch_2">
    <path d="M 30.656 142.574348 
L 107.744 142.574348 
Q 111.248 142.574348 111.248 138.697795 
L 111.248 85.718236 
Q 111.248 81.841683 107.744 81.841683 
L 30.656 81.841683 
Q 27.152 81.841683 27.152 85.718236 
L 27.152 138.697795 
Q 27.152 142.574348 30.656 142.574348 
L 30.656 142.574348 
z
" clip-path="url(#p2d76f5d966)" style="fill: none; opacity: 0.9; stroke: #1e293b; stroke-width: 1.6; stroke-linejoin: miter"/>
   </g>
   <g id="patch_3">
    <path d="M 112.079658 112.208016 
Q 124.678742 112.208016 135.600775 112.208016 
" clip-path="url(#p2d76f5d966)" style="fill: none; stroke: #6b7280; stroke-width: 1.5; stroke-linecap: round"/>
    <path d="M 130.400775 109.608016 
L 135.600775 112.208016 
L 130.400775 114.808016 
z
" clip-path="url(#p2d76f5d966)" style="fill: #6b7280; stroke: #6b7280; stroke-width: 1.5; stroke-linecap: round"/>
   </g>
   <g id="patch_4">
    <path d="M 171.4 147.743086 
C 179.918324 147.743086 188.088905 143.998887 194.11227 137.335105 
C 200.135634 130.671323 203.52 121.632026 203.52 112.208016 
C 203.52 102.784005 200.135634 93.744708 194.11227 87.080926 
C 188.088905 80.417144 179.918324 76.672945 171.4 76.672945 
C 162.881676 76.672945 154.711095 80.417144 148.68773 87.080926 
C 142.664366 93.744708 139.28 102.784005 139.28 112.208016 
C 139.28 121.632026 142.664366 130.671323 148.68773 137.335105 
C 154.711095 143.998887 162.881676 147.743086 171.4 147.743086 
L 171.4 147.743086 
z
" clip-path="url(#p2d76f5d966)" style="fill: none; stroke: #0369a1; stroke-width: 1.8; stroke-linejoin: miter"/>
   </g>
   <g id="patch_5">
    <path d="M 205.519658 112.208016 
Q 218.118742 112.208016 229.040775 112.208016 
" clip-path="url(#p2d76f5d966)" style="fill: none; stroke: #6b7280; stroke-width: 1.5; stroke-linecap: round"/>
    <path d="M 223.840775 109.608016 
L 229.040775 112.208016 
L 223.840775 114.808016 
z
" clip-path="url(#p2d76f5d966)" style="fill: #6b7280; stroke: #6b7280; stroke-width: 1.5; stroke-linecap: round"/>
   </g>
   <g id="patch_6">
    <path d="M 251.992 136.113427 
L 330.248 136.113427 
Q 347.768 136.113427 347.768 116.730661 
L 347.768 107.68537 
Q 347.768 88.302605 330.248 88.302605 
L 251.992 88.302605 
Q 234.472 88.302605 234.472 107.68537 
L 234.472 116.730661 
Q 234.472 136.113427 251.992 136.113427 
L 251.992 136.113427 
z
" clip-path="url(#p2d76f5d966)" style="fill: none; stroke: #1e293b; stroke-width: 1.6; stroke-linejoin: miter"/>
   </g>
   <g id="patch_7">
    <path d="M 348.598945 112.208016 
Q 369.95909 112.208016 389.642184 112.208016 
" clip-path="url(#p2d76f5d966)" style="fill: none; stroke: #6b7280; stroke-width: 1.5; stroke-linecap: round"/>
    <path d="M 384.442184 109.608016 
L 389.642184 112.208016 
L 384.442184 114.808016 
z
" clip-path="url(#p2d76f5d966)" style="fill: #6b7280; stroke: #6b7280; stroke-width: 1.5; stroke-linecap: round"/>
   </g>
   <g id="patch_8">
    <path d="M 412.592 136.113427 
L 496.688 136.113427 
Q 514.208 136.113427 514.208 116.730661 
L 514.208 107.68537 
Q 514.208 88.302605 496.688 88.302605 
L 412.592 88.302605 
Q 395.072 88.302605 395.072 107.68537 
L 395.072 116.730661 
Q 395.072 136.113427 412.592 136.113427 
L 412.592 136.113427 
z
" clip-path="url(#p2d76f5d966)" style="fill: none; stroke: #1e293b; stroke-width: 1.6; stroke-linejoin: miter"/>
   </g>
   <g id="line2d_1">
    <path d="M 375.8 163.895391 
L 375.8 58.90541 
" clip-path="url(#p2d76f5d966)" style="fill: none; stroke-dasharray: 5.18,2.24; stroke-dashoffset: 0; stroke: #6b7280; stroke-width: 1.4"/>
   </g>
   <g id="text_1">
    <!-- the usual approach: one logit, a cutoff bolted on after training -->
    <g style="fill: #6b7280" transform="translate(131.706836 57.29018) scale(0.095 -0.095)">
     <defs>
      <path id="DejaVuSans-Oblique-57" d="M 2706 3500 
L 2619 3053 
L 1472 3053 
L 1100 1153 
Q 1081 1047 1072 975 
Q 1063 903 1063 863 
Q 1063 663 1183 572 
Q 1303 481 1569 481 
L 2150 481 
L 2053 0 
L 1503 0 
Q 991 0 739 200 
Q 488 400 488 806 
Q 488 878 497 964 
Q 506 1050 525 1153 
L 897 3053 
L 409 3053 
L 500 3500 
L 978 3500 
L 1172 4494 
L 1747 4494 
L 1556 3500 
L 2706 3500 
z
" transform="scale(0.015625)"/>
      <path id="DejaVuSans-Oblique-4b" d="M 3566 2113 
L 3156 0 
L 2578 0 
L 2988 2091 
Q 3016 2238 3031 2350 
Q 3047 2463 3047 2528 
Q 3047 2791 2881 2937 
Q 2716 3084 2419 3084 
Q 1956 3084 1617 2771 
Q 1278 2459 1178 1941 
L 800 0 
L 225 0 
L 1172 4863 
L 1747 4863 
L 1375 2950 
Q 1594 3244 1934 3414 
Q 2275 3584 2650 3584 
Q 3113 3584 3367 3334 
Q 3622 3084 3622 2631 
Q 3622 2519 3608 2391 
Q 3594 2263 3566 2113 
z
" transform="scale(0.015625)"/>
      <path id="DejaVuSans-Oblique-48" d="M 3078 2063 
Q 3088 2113 3092 2166 
Q 3097 2219 3097 2272 
Q 3097 2653 2873 2875 
Q 2650 3097 2266 3097 
Q 1838 3097 1509 2826 
Q 1181 2556 1013 2059 
L 3078 2063 
z
M 3578 1613 
L 903 1613 
Q 884 1494 878 1425 
Q 872 1356 872 1306 
Q 872 872 1139 634 
Q 1406 397 1894 397 
Q 2269 397 2603 481 
Q 2938 566 3225 728 
L 3116 159 
Q 2806 34 2476 -28 
Q 2147 -91 1806 -91 
Q 1078 -91 686 257 
Q 294 606 294 1247 
Q 294 1794 489 2264 
Q 684 2734 1063 3103 
Q 1306 3334 1642 3459 
Q 1978 3584 2356 3584 
Q 2950 3584 3301 3228 
Q 3653 2872 3653 2272 
Q 3653 2128 3634 1964 
Q 3616 1800 3578 1613 
z
" transform="scale(0.015625)"/>
      <path id="DejaVuSans-Oblique-3" transform="scale(0.015625)"/>
      <path id="DejaVuSans-Oblique-58" d="M 428 1388 
L 838 3500 
L 1416 3500 
L 1006 1409 
Q 975 1256 961 1147 
Q 947 1038 947 966 
Q 947 700 1109 554 
Q 1272 409 1569 409 
Q 2031 409 2368 721 
Q 2706 1034 2809 1563 
L 3194 3500 
L 3769 3500 
L 3091 0 
L 2516 0 
L 2631 550 
Q 2388 244 2052 76 
Q 1716 -91 1338 -91 
Q 878 -91 622 161 
Q 366 413 366 863 
Q 366 956 381 1097 
Q 397 1238 428 1388 
z
" transform="scale(0.015625)"/>
      <path id="DejaVuSans-Oblique-56" d="M 3200 3397 
L 3091 2853 
Q 2863 2978 2609 3040 
Q 2356 3103 2088 3103 
Q 1634 3103 1373 2948 
Q 1113 2794 1113 2528 
Q 1113 2219 1719 2053 
Q 1766 2041 1788 2034 
L 1972 1978 
Q 2547 1819 2739 1644 
Q 2931 1469 2931 1166 
Q 2931 609 2489 259 
Q 2047 -91 1331 -91 
Q 1053 -91 747 -37 
Q 441 16 72 128 
L 184 722 
Q 500 559 806 475 
Q 1113 391 1394 391 
Q 1816 391 2080 572 
Q 2344 753 2344 1031 
Q 2344 1331 1650 1516 
L 1591 1531 
L 1394 1581 
Q 956 1697 753 1886 
Q 550 2075 550 2369 
Q 550 2928 970 3256 
Q 1391 3584 2113 3584 
Q 2397 3584 2667 3537 
Q 2938 3491 3200 3397 
z
" transform="scale(0.015625)"/>
      <path id="DejaVuSans-Oblique-44" d="M 3438 1997 
L 3047 0 
L 2472 0 
L 2578 531 
Q 2325 219 2001 64 
Q 1678 -91 1281 -91 
Q 834 -91 548 182 
Q 263 456 263 884 
Q 263 1497 752 1853 
Q 1241 2209 2100 2209 
L 2900 2209 
L 2931 2363 
Q 2938 2388 2941 2417 
Q 2944 2447 2944 2509 
Q 2944 2788 2717 2942 
Q 2491 3097 2081 3097 
Q 1800 3097 1504 3025 
Q 1209 2953 897 2809 
L 997 3341 
Q 1322 3463 1633 3523 
Q 1944 3584 2234 3584 
Q 2853 3584 3176 3315 
Q 3500 3047 3500 2534 
Q 3500 2431 3484 2292 
Q 3469 2153 3438 1997 
z
M 2816 1759 
L 2241 1759 
Q 1534 1759 1195 1570 
Q 856 1381 856 984 
Q 856 709 1029 553 
Q 1203 397 1509 397 
Q 1978 397 2328 733 
Q 2678 1069 2791 1631 
L 2816 1759 
z
" transform="scale(0.015625)"/>
      <path id="DejaVuSans-Oblique-4f" d="M 1172 4863 
L 1747 4863 
L 800 0 
L 225 0 
L 1172 4863 
z
" transform="scale(0.015625)"/>
      <path id="DejaVuSans-Oblique-53" d="M 3175 2156 
Q 3175 2616 2975 2859 
Q 2775 3103 2400 3103 
Q 2144 3103 1911 2972 
Q 1678 2841 1497 2591 
Q 1319 2344 1212 1994 
Q 1106 1644 1106 1300 
Q 1106 863 1306 627 
Q 1506 391 1875 391 
Q 2147 391 2380 519 
Q 2613 647 2778 891 
Q 2956 1147 3065 1494 
Q 3175 1841 3175 2156 
z
M 1394 2969 
Q 1625 3272 1939 3428 
Q 2253 3584 2638 3584 
Q 3175 3584 3472 3232 
Q 3769 2881 3769 2247 
Q 3769 1728 3584 1258 
Q 3400 788 3053 416 
Q 2822 169 2531 39 
Q 2241 -91 1919 -91 
Q 1547 -91 1294 64 
Q 1041 219 916 525 
L 556 -1331 
L -19 -1331 
L 922 3500 
L 1497 3500 
L 1394 2969 
z
" transform="scale(0.015625)"/>
      <path id="DejaVuSans-Oblique-55" d="M 2853 2969 
Q 2766 3016 2653 3041 
Q 2541 3066 2413 3066 
Q 1953 3066 1609 2717 
Q 1266 2369 1153 1784 
L 800 0 
L 225 0 
L 909 3500 
L 1484 3500 
L 1375 2956 
Q 1603 3259 1920 3421 
Q 2238 3584 2597 3584 
Q 2691 3584 2781 3573 
Q 2872 3563 2963 3538 
L 2853 2969 
z
" transform="scale(0.015625)"/>
      <path id="DejaVuSans-Oblique-52" d="M 1625 -91 
Q 1009 -91 651 289 
Q 294 669 294 1325 
Q 294 1706 417 2101 
Q 541 2497 738 2766 
Q 1047 3184 1428 3384 
Q 1809 3584 2291 3584 
Q 2888 3584 3255 3212 
Q 3622 2841 3622 2241 
Q 3622 1825 3500 1412 
Q 3378 1000 3181 728 
Q 2875 309 2494 109 
Q 2113 -91 1625 -91 
z
M 891 1344 
Q 891 869 1089 633 
Q 1288 397 1691 397 
Q 2269 397 2648 901 
Q 3028 1406 3028 2181 
Q 3028 2634 2825 2865 
Q 2622 3097 2228 3097 
Q 1903 3097 1650 2945 
Q 1397 2794 1197 2484 
Q 1050 2253 970 1956 
Q 891 1659 891 1344 
z
" transform="scale(0.015625)"/>
      <path id="DejaVuSans-Oblique-46" d="M 3431 3366 
L 3316 2797 
Q 3109 2947 2876 3022 
Q 2644 3097 2394 3097 
Q 2119 3097 1870 3000 
Q 1622 2903 1453 2725 
Q 1184 2453 1037 2087 
Q 891 1722 891 1331 
Q 891 859 1127 628 
Q 1363 397 1844 397 
Q 2081 397 2348 469 
Q 2616 541 2906 684 
L 2797 116 
Q 2547 13 2283 -39 
Q 2019 -91 1741 -91 
Q 1044 -91 669 257 
Q 294 606 294 1253 
Q 294 1797 489 2255 
Q 684 2713 1069 3078 
Q 1331 3328 1684 3456 
Q 2038 3584 2456 3584 
Q 2700 3584 2940 3529 
Q 3181 3475 3431 3366 
z
" transform="scale(0.015625)"/>
      <path id="DejaVuSans-Oblique-1d" d="M 978 3309 
L 1638 3309 
L 1484 2516 
L 825 2516 
L 978 3309 
z
M 488 794 
L 1147 794 
L 991 0 
L 331 0 
L 488 794 
z
" transform="scale(0.015625)"/>
      <path id="DejaVuSans-Oblique-51" d="M 3566 2113 
L 3156 0 
L 2578 0 
L 2988 2091 
Q 3016 2238 3031 2350 
Q 3047 2463 3047 2528 
Q 3047 2791 2881 2937 
Q 2716 3084 2419 3084 
Q 1956 3084 1622 2776 
Q 1288 2469 1184 1941 
L 800 0 
L 225 0 
L 903 3500 
L 1478 3500 
L 1363 2950 
Q 1603 3253 1940 3418 
Q 2278 3584 2650 3584 
Q 3113 3584 3367 3334 
Q 3622 3084 3622 2631 
Q 3622 2519 3608 2391 
Q 3594 2263 3566 2113 
z
" transform="scale(0.015625)"/>
      <path id="DejaVuSans-Oblique-4a" d="M 3816 3500 
L 3219 434 
Q 3047 -456 2561 -893 
Q 2075 -1331 1253 -1331 
Q 950 -1331 690 -1286 
Q 431 -1241 206 -1147 
L 313 -588 
Q 525 -725 762 -790 
Q 1000 -856 1269 -856 
Q 1816 -856 2167 -557 
Q 2519 -259 2631 300 
L 2681 563 
Q 2441 288 2122 144 
Q 1803 0 1434 0 
Q 903 0 598 351 
Q 294 703 294 1319 
Q 294 1803 478 2267 
Q 663 2731 997 3091 
Q 1219 3328 1514 3456 
Q 1809 3584 2131 3584 
Q 2484 3584 2746 3420 
Q 3009 3256 3138 2956 
L 3238 3500 
L 3816 3500 
z
M 2950 2216 
Q 2950 2641 2750 2872 
Q 2550 3103 2181 3103 
Q 1953 3103 1747 3012 
Q 1541 2922 1394 2759 
Q 1156 2491 1023 2127 
Q 891 1763 891 1375 
Q 891 944 1092 712 
Q 1294 481 1672 481 
Q 2219 481 2584 976 
Q 2950 1472 2950 2216 
z
" transform="scale(0.015625)"/>
      <path id="DejaVuSans-Oblique-4c" d="M 1172 4863 
L 1747 4863 
L 1606 4134 
L 1031 4134 
L 1172 4863 
z
M 909 3500 
L 1484 3500 
L 800 0 
L 225 0 
L 909 3500 
z
" transform="scale(0.015625)"/>
      <path id="DejaVuSans-Oblique-f" d="M 575 794 
L 1234 794 
L 1131 256 
L 422 -744 
L 19 -744 
L 469 256 
L 575 794 
z
" transform="scale(0.015625)"/>
      <path id="DejaVuSans-Oblique-127b" d="M 5213 4863 
L 5119 4384 
L 4569 4384 
Q 4259 4384 4115 4259 
Q 3972 4134 3909 3809 
L 3847 3500 
L 4794 3500 
L 4709 3053 
L 3763 3053 
L 3169 0 
L 2591 0 
L 3184 3053 
L 1606 3053 
L 1013 0 
L 434 0 
L 1028 3053 
L 478 3053 
L 563 3500 
L 1113 3500 
L 1163 3744 
Q 1275 4328 1600 4594 
Q 1922 4863 2513 4863 
L 3056 4863 
L 2963 4384 
L 2413 4384 
Q 2103 4384 1959 4259 
Q 1816 4134 1753 3809 
L 1691 3500 
L 3269 3500 
L 3319 3744 
Q 3431 4328 3756 4594 
Q 4078 4863 4669 4863 
L 5213 4863 
z
" transform="scale(0.015625)"/>
      <path id="DejaVuSans-Oblique-45" d="M 3169 2138 
Q 3169 2591 2961 2847 
Q 2753 3103 2388 3103 
Q 2122 3103 1889 2973 
Q 1656 2844 1484 2597 
Q 1303 2338 1198 1995 
Q 1094 1653 1094 1313 
Q 1094 881 1298 636 
Q 1503 391 1863 391 
Q 2134 391 2365 517 
Q 2597 644 2772 891 
Q 2950 1147 3059 1487 
Q 3169 1828 3169 2138 
z
M 1381 2969 
Q 1594 3256 1914 3420 
Q 2234 3584 2584 3584 
Q 3122 3584 3439 3221 
Q 3756 2859 3756 2241 
Q 3756 1734 3570 1259 
Q 3384 784 3041 416 
Q 2816 172 2522 40 
Q 2228 -91 1906 -91 
Q 1566 -91 1316 65 
Q 1066 222 909 531 
L 806 0 
L 231 0 
L 1178 4863 
L 1753 4863 
L 1381 2969 
z
" transform="scale(0.015625)"/>
      <path id="DejaVuSans-Oblique-47" d="M 2675 525 
Q 2444 222 2128 65 
Q 1813 -91 1428 -91 
Q 903 -91 598 267 
Q 294 625 294 1247 
Q 294 1766 478 2236 
Q 663 2706 1013 3078 
Q 1244 3325 1534 3454 
Q 1825 3584 2144 3584 
Q 2481 3584 2739 3421 
Q 2997 3259 3138 2956 
L 3513 4863 
L 4091 4863 
L 3144 0 
L 2566 0 
L 2675 525 
z
M 891 1350 
Q 891 897 1095 644 
Q 1300 391 1663 391 
Q 1931 391 2161 520 
Q 2391 650 2566 903 
Q 2750 1166 2856 1509 
Q 2963 1853 2963 2188 
Q 2963 2622 2758 2865 
Q 2553 3109 2194 3109 
Q 1922 3109 1687 2981 
Q 1453 2853 1288 2613 
Q 1106 2353 998 2009 
Q 891 1666 891 1350 
z
" transform="scale(0.015625)"/>
      <path id="DejaVuSans-Oblique-49" d="M 3059 4863 
L 2969 4384 
L 2419 4384 
Q 2106 4384 1964 4261 
Q 1822 4138 1753 3809 
L 1691 3500 
L 2638 3500 
L 2553 3053 
L 1606 3053 
L 1013 0 
L 434 0 
L 1031 3053 
L 481 3053 
L 563 3500 
L 1113 3500 
L 1159 3744 
Q 1278 4363 1576 4613 
Q 1875 4863 2516 4863 
L 3059 4863 
z
" transform="scale(0.015625)"/>
     </defs>
     <use xlink:href="#DejaVuSans-Oblique-57"/>
     <use xlink:href="#DejaVuSans-Oblique-4b" transform="translate(39.203125 0)"/>
     <use xlink:href="#DejaVuSans-Oblique-48" transform="translate(102.578125 0)"/>
     <use xlink:href="#DejaVuSans-Oblique-3" transform="translate(164.109375 0)"/>
     <use xlink:href="#DejaVuSans-Oblique-58" transform="translate(195.890625 0)"/>
     <use xlink:href="#DejaVuSans-Oblique-56" transform="translate(259.265625 0)"/>
     <use xlink:href="#DejaVuSans-Oblique-58" transform="translate(311.359375 0)"/>
     <use xlink:href="#DejaVuSans-Oblique-44" transform="translate(374.734375 0)"/>
     <use xlink:href="#DejaVuSans-Oblique-4f" transform="translate(436.015625 0)"/>
     <use xlink:href="#DejaVuSans-Oblique-3" transform="translate(463.796875 0)"/>
     <use xlink:href="#DejaVuSans-Oblique-44" transform="translate(495.578125 0)"/>
     <use xlink:href="#DejaVuSans-Oblique-53" transform="translate(556.859375 0)"/>
     <use xlink:href="#DejaVuSans-Oblique-53" transform="translate(620.34375 0)"/>
     <use xlink:href="#DejaVuSans-Oblique-55" transform="translate(683.828125 0)"/>
     <use xlink:href="#DejaVuSans-Oblique-52" transform="translate(724.9375 0)"/>
     <use xlink:href="#DejaVuSans-Oblique-44" transform="translate(786.125 0)"/>
     <use xlink:href="#DejaVuSans-Oblique-46" transform="translate(847.40625 0)"/>
     <use xlink:href="#DejaVuSans-Oblique-4b" transform="translate(902.390625 0)"/>
     <use xlink:href="#DejaVuSans-Oblique-1d" transform="translate(965.765625 0)"/>
     <use xlink:href="#DejaVuSans-Oblique-3" transform="translate(999.453125 0)"/>
     <use xlink:href="#DejaVuSans-Oblique-52" transform="translate(1031.234375 0)"/>
     <use xlink:href="#DejaVuSans-Oblique-51" transform="translate(1092.421875 0)"/>
     <use xlink:href="#DejaVuSans-Oblique-48" transform="translate(1155.796875 0)"/>
     <use xlink:href="#DejaVuSans-Oblique-3" transform="translate(1217.328125 0)"/>
     <use xlink:href="#DejaVuSans-Oblique-4f" transform="translate(1249.109375 0)"/>
     <use xlink:href="#DejaVuSans-Oblique-52" transform="translate(1276.890625 0)"/>
     <use xlink:href="#DejaVuSans-Oblique-4a" transform="translate(1338.078125 0)"/>
     <use xlink:href="#DejaVuSans-Oblique-4c" transform="translate(1401.5625 0)"/>
     <use xlink:href="#DejaVuSans-Oblique-57" transform="translate(1429.34375 0)"/>
     <use xlink:href="#DejaVuSans-Oblique-f" transform="translate(1468.546875 0)"/>
     <use xlink:href="#DejaVuSans-Oblique-3" transform="translate(1500.328125 0)"/>
     <use xlink:href="#DejaVuSans-Oblique-44" transform="translate(1532.109375 0)"/>
     <use xlink:href="#DejaVuSans-Oblique-3" transform="translate(1593.390625 0)"/>
     <use xlink:href="#DejaVuSans-Oblique-46" transform="translate(1625.171875 0)"/>
     <use xlink:href="#DejaVuSans-Oblique-58" transform="translate(1680.15625 0)"/>
     <use xlink:href="#DejaVuSans-Oblique-57" transform="translate(1743.53125 0)"/>
     <use xlink:href="#DejaVuSans-Oblique-52" transform="translate(1782.734375 0)"/>
     <use xlink:href="#DejaVuSans-Oblique-127b" transform="translate(1843.921875 0)"/>
     <use xlink:href="#DejaVuSans-Oblique-3" transform="translate(1916.09375 0)"/>
     <use xlink:href="#DejaVuSans-Oblique-45" transform="translate(1947.875 0)"/>
     <use xlink:href="#DejaVuSans-Oblique-52" transform="translate(2011.359375 0)"/>
     <use xlink:href="#DejaVuSans-Oblique-4f" transform="translate(2072.546875 0)"/>
     <use xlink:href="#DejaVuSans-Oblique-57" transform="translate(2100.328125 0)"/>
     <use xlink:href="#DejaVuSans-Oblique-48" transform="translate(2139.53125 0)"/>
     <use xlink:href="#DejaVuSans-Oblique-47" transform="translate(2201.0625 0)"/>
     <use xlink:href="#DejaVuSans-Oblique-3" transform="translate(2264.546875 0)"/>
     <use xlink:href="#DejaVuSans-Oblique-52" transform="translate(2296.328125 0)"/>
     <use xlink:href="#DejaVuSans-Oblique-51" transform="translate(2357.515625 0)"/>
     <use xlink:href="#DejaVuSans-Oblique-3" transform="translate(2420.890625 0)"/>
     <use xlink:href="#DejaVuSans-Oblique-44" transform="translate(2452.671875 0)"/>
     <use xlink:href="#DejaVuSans-Oblique-49" transform="translate(2513.953125 0)"/>
     <use xlink:href="#DejaVuSans-Oblique-57" transform="translate(2549.15625 0)"/>
     <use xlink:href="#DejaVuSans-Oblique-48" transform="translate(2588.359375 0)"/>
     <use xlink:href="#DejaVuSans-Oblique-55" transform="translate(2649.890625 0)"/>
     <use xlink:href="#DejaVuSans-Oblique-3" transform="translate(2691 0)"/>
     <use xlink:href="#DejaVuSans-Oblique-57" transform="translate(2722.78125 0)"/>
     <use xlink:href="#DejaVuSans-Oblique-55" transform="translate(2761.984375 0)"/>
     <use xlink:href="#DejaVuSans-Oblique-44" transform="translate(2803.09375 0)"/>
     <use xlink:href="#DejaVuSans-Oblique-4c" transform="translate(2864.375 0)"/>
     <use xlink:href="#DejaVuSans-Oblique-51" transform="translate(2892.15625 0)"/>
     <use xlink:href="#DejaVuSans-Oblique-4c" transform="translate(2955.53125 0)"/>
     <use xlink:href="#DejaVuSans-Oblique-51" transform="translate(2983.3125 0)"/>
     <use xlink:href="#DejaVuSans-Oblique-4a" transform="translate(3046.6875 0)"/>
    </g>
   </g>
   <g id="text_2">
    <!-- logit -->
    <g style="fill: #1e293b" transform="translate(58.549414 114.364395) scale(0.083 -0.083)">
     <defs>
      <path id="DejaVuSans-Bold-4f" d="M 538 4863 
L 1656 4863 
L 1656 0 
L 538 0 
L 538 4863 
z
" transform="scale(0.015625)"/>
      <path id="DejaVuSans-Bold-52" d="M 2203 2784 
Q 1831 2784 1636 2517 
Q 1441 2250 1441 1747 
Q 1441 1244 1636 976 
Q 1831 709 2203 709 
Q 2569 709 2762 976 
Q 2956 1244 2956 1747 
Q 2956 2250 2762 2517 
Q 2569 2784 2203 2784 
z
M 2203 3584 
Q 3106 3584 3614 3096 
Q 4122 2609 4122 1747 
Q 4122 884 3614 396 
Q 3106 -91 2203 -91 
Q 1297 -91 786 396 
Q 275 884 275 1747 
Q 275 2609 786 3096 
Q 1297 3584 2203 3584 
z
" transform="scale(0.015625)"/>
      <path id="DejaVuSans-Bold-4a" d="M 2919 594 
Q 2688 288 2409 144 
Q 2131 0 1766 0 
Q 1125 0 706 504 
Q 288 1009 288 1791 
Q 288 2575 706 3076 
Q 1125 3578 1766 3578 
Q 2131 3578 2409 3434 
Q 2688 3291 2919 2981 
L 2919 3500 
L 4044 3500 
L 4044 353 
Q 4044 -491 3511 -936 
Q 2978 -1381 1966 -1381 
Q 1638 -1381 1331 -1331 
Q 1025 -1281 716 -1178 
L 716 -306 
Q 1009 -475 1290 -558 
Q 1572 -641 1856 -641 
Q 2406 -641 2662 -400 
Q 2919 -159 2919 353 
L 2919 594 
z
M 2181 2772 
Q 1834 2772 1640 2515 
Q 1447 2259 1447 1791 
Q 1447 1309 1634 1061 
Q 1822 813 2181 813 
Q 2531 813 2725 1069 
Q 2919 1325 2919 1791 
Q 2919 2259 2725 2515 
Q 2531 2772 2181 2772 
z
" transform="scale(0.015625)"/>
      <path id="DejaVuSans-Bold-4c" d="M 538 3500 
L 1656 3500 
L 1656 0 
L 538 0 
L 538 3500 
z
M 538 4863 
L 1656 4863 
L 1656 3950 
L 538 3950 
L 538 4863 
z
" transform="scale(0.015625)"/>
      <path id="DejaVuSans-Bold-57" d="M 1759 4494 
L 1759 3500 
L 2913 3500 
L 2913 2700 
L 1759 2700 
L 1759 1216 
Q 1759 972 1856 886 
Q 1953 800 2241 800 
L 2816 800 
L 2816 0 
L 1856 0 
Q 1194 0 917 276 
Q 641 553 641 1216 
L 641 2700 
L 84 2700 
L 84 3500 
L 641 3500 
L 641 4494 
L 1759 4494 
z
" transform="scale(0.015625)"/>
     </defs>
     <use xlink:href="#DejaVuSans-Bold-4f"/>
     <use xlink:href="#DejaVuSans-Bold-52" transform="translate(34.28125 0)"/>
     <use xlink:href="#DejaVuSans-Bold-4a" transform="translate(102.984375 0)"/>
     <use xlink:href="#DejaVuSans-Bold-4c" transform="translate(174.5625 0)"/>
     <use xlink:href="#DejaVuSans-Bold-57" transform="translate(208.84375 0)"/>
    </g>
   </g>
   <g id="text_3">
    <!-- $\sigma$ -->
    <g style="fill: #0369a1" transform="translate(165.96 116.624031) scale(0.17 -0.17)">
     <defs>
      <path id="DejaVuSans-Oblique-357" d="M 2219 3044 
Q 1744 3044 1422 2700 
Q 1081 2341 969 1747 
Q 844 1119 1044 756 
Q 1241 397 1706 397 
Q 2166 397 2503 759 
Q 2844 1122 2966 1747 
Q 3075 2319 2881 2700 
Q 2700 3044 2219 3044 
z
M 2309 3503 
L 4219 3500 
L 4106 2925 
L 3463 2925 
Q 3706 2438 3575 1747 
Q 3406 888 2884 400 
Q 2359 -91 1609 -91 
Q 856 -91 525 400 
Q 194 888 363 1747 
Q 528 2609 1050 3097 
Q 1484 3503 2309 3503 
z
" transform="scale(0.015625)"/>
     </defs>
     <use xlink:href="#DejaVuSans-Oblique-357" transform="translate(0 0.265625)"/>
    </g>
   </g>
   <g id="text_4">
    <!-- P(on) = 0.62 -->
    <g style="fill: #1e293b" transform="translate(264.221484 114.416023) scale(0.085 -0.085)">
     <defs>
      <path id="DejaVuSans-33" d="M 1259 4147 
L 1259 2394 
L 2053 2394 
Q 2494 2394 2734 2622 
Q 2975 2850 2975 3272 
Q 2975 3691 2734 3919 
Q 2494 4147 2053 4147 
L 1259 4147 
z
M 628 4666 
L 2053 4666 
Q 2838 4666 3239 4311 
Q 3641 3956 3641 3272 
Q 3641 2581 3239 2228 
Q 2838 1875 2053 1875 
L 1259 1875 
L 1259 0 
L 628 0 
L 628 4666 
z
" transform="scale(0.015625)"/>
      <path id="DejaVuSans-b" d="M 1984 4856 
Q 1566 4138 1362 3434 
Q 1159 2731 1159 2009 
Q 1159 1288 1364 580 
Q 1569 -128 1984 -844 
L 1484 -844 
Q 1016 -109 783 600 
Q 550 1309 550 2009 
Q 550 2706 781 3412 
Q 1013 4119 1484 4856 
L 1984 4856 
z
" transform="scale(0.015625)"/>
      <path id="DejaVuSans-52" d="M 1959 3097 
Q 1497 3097 1228 2736 
Q 959 2375 959 1747 
Q 959 1119 1226 758 
Q 1494 397 1959 397 
Q 2419 397 2687 759 
Q 2956 1122 2956 1747 
Q 2956 2369 2687 2733 
Q 2419 3097 1959 3097 
z
M 1959 3584 
Q 2709 3584 3137 3096 
Q 3566 2609 3566 1747 
Q 3566 888 3137 398 
Q 2709 -91 1959 -91 
Q 1206 -91 779 398 
Q 353 888 353 1747 
Q 353 2609 779 3096 
Q 1206 3584 1959 3584 
z
" transform="scale(0.015625)"/>
      <path id="DejaVuSans-51" d="M 3513 2113 
L 3513 0 
L 2938 0 
L 2938 2094 
Q 2938 2591 2744 2837 
Q 2550 3084 2163 3084 
Q 1697 3084 1428 2787 
Q 1159 2491 1159 1978 
L 1159 0 
L 581 0 
L 581 3500 
L 1159 3500 
L 1159 2956 
Q 1366 3272 1645 3428 
Q 1925 3584 2291 3584 
Q 2894 3584 3203 3211 
Q 3513 2838 3513 2113 
z
" transform="scale(0.015625)"/>
      <path id="DejaVuSans-c" d="M 513 4856 
L 1013 4856 
Q 1481 4119 1714 3412 
Q 1947 2706 1947 2009 
Q 1947 1309 1714 600 
Q 1481 -109 1013 -844 
L 513 -844 
Q 928 -128 1133 580 
Q 1338 1288 1338 2009 
Q 1338 2731 1133 3434 
Q 928 4138 513 4856 
z
" transform="scale(0.015625)"/>
      <path id="DejaVuSans-3" transform="scale(0.015625)"/>
      <path id="DejaVuSans-20" d="M 678 2906 
L 4684 2906 
L 4684 2381 
L 678 2381 
L 678 2906 
z
M 678 1631 
L 4684 1631 
L 4684 1100 
L 678 1100 
L 678 1631 
z
" transform="scale(0.015625)"/>
      <path id="DejaVuSans-13" d="M 2034 4250 
Q 1547 4250 1301 3770 
Q 1056 3291 1056 2328 
Q 1056 1369 1301 889 
Q 1547 409 2034 409 
Q 2525 409 2770 889 
Q 3016 1369 3016 2328 
Q 3016 3291 2770 3770 
Q 2525 4250 2034 4250 
z
M 2034 4750 
Q 2819 4750 3233 4129 
Q 3647 3509 3647 2328 
Q 3647 1150 3233 529 
Q 2819 -91 2034 -91 
Q 1250 -91 836 529 
Q 422 1150 422 2328 
Q 422 3509 836 4129 
Q 1250 4750 2034 4750 
z
" transform="scale(0.015625)"/>
      <path id="DejaVuSans-11" d="M 684 794 
L 1344 794 
L 1344 0 
L 684 0 
L 684 794 
z
" transform="scale(0.015625)"/>
      <path id="DejaVuSans-19" d="M 2113 2584 
Q 1688 2584 1439 2293 
Q 1191 2003 1191 1497 
Q 1191 994 1439 701 
Q 1688 409 2113 409 
Q 2538 409 2786 701 
Q 3034 994 3034 1497 
Q 3034 2003 2786 2293 
Q 2538 2584 2113 2584 
z
M 3366 4563 
L 3366 3988 
Q 3128 4100 2886 4159 
Q 2644 4219 2406 4219 
Q 1781 4219 1451 3797 
Q 1122 3375 1075 2522 
Q 1259 2794 1537 2939 
Q 1816 3084 2150 3084 
Q 2853 3084 3261 2657 
Q 3669 2231 3669 1497 
Q 3669 778 3244 343 
Q 2819 -91 2113 -91 
Q 1303 -91 875 529 
Q 447 1150 447 2328 
Q 447 3434 972 4092 
Q 1497 4750 2381 4750 
Q 2619 4750 2861 4703 
Q 3103 4656 3366 4563 
z
" transform="scale(0.015625)"/>
      <path id="DejaVuSans-15" d="M 1228 531 
L 3431 531 
L 3431 0 
L 469 0 
L 469 531 
Q 828 903 1448 1529 
Q 2069 2156 2228 2338 
Q 2531 2678 2651 2914 
Q 2772 3150 2772 3378 
Q 2772 3750 2511 3984 
Q 2250 4219 1831 4219 
Q 1534 4219 1204 4116 
Q 875 4013 500 3803 
L 500 4441 
Q 881 4594 1212 4672 
Q 1544 4750 1819 4750 
Q 2544 4750 2975 4387 
Q 3406 4025 3406 3419 
Q 3406 3131 3298 2873 
Q 3191 2616 2906 2266 
Q 2828 2175 2409 1742 
Q 1991 1309 1228 531 
z
" transform="scale(0.015625)"/>
     </defs>
     <use xlink:href="#DejaVuSans-33"/>
     <use xlink:href="#DejaVuSans-b" transform="translate(60.296875 0)"/>
     <use xlink:href="#DejaVuSans-52" transform="translate(99.3125 0)"/>
     <use xlink:href="#DejaVuSans-51" transform="translate(160.5 0)"/>
     <use xlink:href="#DejaVuSans-c" transform="translate(223.875 0)"/>
     <use xlink:href="#DejaVuSans-3" transform="translate(262.890625 0)"/>
     <use xlink:href="#DejaVuSans-20" transform="translate(294.671875 0)"/>
     <use xlink:href="#DejaVuSans-3" transform="translate(378.46875 0)"/>
     <use xlink:href="#DejaVuSans-13" transform="translate(410.25 0)"/>
     <use xlink:href="#DejaVuSans-11" transform="translate(473.875 0)"/>
     <use xlink:href="#DejaVuSans-19" transform="translate(505.65625 0)"/>
     <use xlink:href="#DejaVuSans-15" transform="translate(569.28125 0)"/>
    </g>
   </g>
   <g id="text_5">
    <!-- 0.5 cutoff, fixed -->
    <g style="fill: #6b7280" transform="translate(342.051016 192.969539) scale(0.085 -0.085)">
     <defs>
      <path id="DejaVuSans-Oblique-13" d="M 2444 4750 
Q 3078 4750 3414 4328 
Q 3750 3906 3750 3116 
Q 3750 2516 3592 1923 
Q 3434 1331 3150 863 
Q 2859 394 2467 151 
Q 2075 -91 1600 -91 
Q 988 -91 653 334 
Q 319 759 319 1544 
Q 319 2138 480 2733 
Q 641 3328 928 3794 
Q 1216 4263 1602 4506 
Q 1988 4750 2444 4750 
z
M 2406 4250 
Q 2169 4250 1955 4123 
Q 1741 3997 1569 3750 
Q 1281 3338 1111 2720 
Q 941 2103 941 1453 
Q 941 938 1123 673 
Q 1306 409 1663 409 
Q 1913 409 2125 536 
Q 2338 663 2509 909 
Q 2794 1319 2961 1936 
Q 3128 2553 3128 3206 
Q 3128 3722 2945 3986 
Q 2763 4250 2406 4250 
z
" transform="scale(0.015625)"/>
      <path id="DejaVuSans-Oblique-11" d="M 525 794 
L 1184 794 
L 1031 0 
L 372 0 
L 525 794 
z
" transform="scale(0.015625)"/>
      <path id="DejaVuSans-Oblique-18" d="M 3719 4666 
L 3622 4141 
L 1691 4141 
L 1466 2988 
Q 1609 3034 1757 3056 
Q 1906 3078 2059 3078 
Q 2706 3078 3081 2731 
Q 3456 2384 3456 1791 
Q 3456 1375 3264 994 
Q 3072 613 2719 325 
Q 2469 125 2108 17 
Q 1747 -91 1319 -91 
Q 1038 -91 744 -41 
Q 450 9 128 109 
L 244 697 
Q 531 556 820 486 
Q 1109 416 1403 416 
Q 2013 416 2411 781 
Q 2809 1147 2809 1697 
Q 2809 2103 2548 2328 
Q 2288 2553 1819 2553 
Q 1572 2553 1305 2495 
Q 1038 2438 756 2322 
L 1209 4666 
L 3719 4666 
z
" transform="scale(0.015625)"/>
      <path id="DejaVuSans-Oblique-127c" d="M 3525 4863 
L 4103 4863 
L 3963 4134 
L 3384 4134 
L 3525 4863 
z
M 3059 4863 
L 2969 4384 
L 2419 4384 
Q 2106 4384 1964 4261 
Q 1822 4138 1753 3809 
L 1691 3500 
L 3841 3500 
L 3156 0 
L 2578 0 
L 3188 3056 
L 1606 3056 
L 1013 0 
L 434 0 
L 1031 3053 
L 481 3053 
L 563 3500 
L 1113 3500 
L 1159 3744 
Q 1278 4363 1575 4613 
Q 1875 4863 2516 4863 
L 3059 4863 
z
" transform="scale(0.015625)"/>
      <path id="DejaVuSans-Oblique-5b" d="M 3841 3500 
L 2234 1784 
L 3219 0 
L 2559 0 
L 1819 1388 
L 531 0 
L -166 0 
L 1556 1844 
L 641 3500 
L 1300 3500 
L 1972 2234 
L 3144 3500 
L 3841 3500 
z
" transform="scale(0.015625)"/>
     </defs>
     <use xlink:href="#DejaVuSans-Oblique-13"/>
     <use xlink:href="#DejaVuSans-Oblique-11" transform="translate(63.625 0)"/>
     <use xlink:href="#DejaVuSans-Oblique-18" transform="translate(95.40625 0)"/>
     <use xlink:href="#DejaVuSans-Oblique-3" transform="translate(159.03125 0)"/>
     <use xlink:href="#DejaVuSans-Oblique-46" transform="translate(190.8125 0)"/>
     <use xlink:href="#DejaVuSans-Oblique-58" transform="translate(245.796875 0)"/>
     <use xlink:href="#DejaVuSans-Oblique-57" transform="translate(309.171875 0)"/>
     <use xlink:href="#DejaVuSans-Oblique-52" transform="translate(348.375 0)"/>
     <use xlink:href="#DejaVuSans-Oblique-127b" transform="translate(409.5625 0)"/>
     <use xlink:href="#DejaVuSans-Oblique-f" transform="translate(481.734375 0)"/>
     <use xlink:href="#DejaVuSans-Oblique-3" transform="translate(513.515625 0)"/>
     <use xlink:href="#DejaVuSans-Oblique-127c" transform="translate(545.296875 0)"/>
     <use xlink:href="#DejaVuSans-Oblique-5b" transform="translate(609.890625 0)"/>
     <use xlink:href="#DejaVuSans-Oblique-48" transform="translate(669.078125 0)"/>
     <use xlink:href="#DejaVuSans-Oblique-47" transform="translate(730.609375 0)"/>
    </g>
   </g>
   <g id="text_6">
    <!-- Decision: ON -->
    <g style="fill: #1e293b" transform="translate(427.238789 114.416355) scale(0.085 -0.085)">
     <defs>
      <path id="DejaVuSans-27" d="M 1259 4147 
L 1259 519 
L 2022 519 
Q 2988 519 3436 956 
Q 3884 1394 3884 2338 
Q 3884 3275 3436 3711 
Q 2988 4147 2022 4147 
L 1259 4147 
z
M 628 4666 
L 1925 4666 
Q 3281 4666 3915 4102 
Q 4550 3538 4550 2338 
Q 4550 1131 3912 565 
Q 3275 0 1925 0 
L 628 0 
L 628 4666 
z
" transform="scale(0.015625)"/>
      <path id="DejaVuSans-48" d="M 3597 1894 
L 3597 1613 
L 953 1613 
Q 991 1019 1311 708 
Q 1631 397 2203 397 
Q 2534 397 2845 478 
Q 3156 559 3463 722 
L 3463 178 
Q 3153 47 2828 -22 
Q 2503 -91 2169 -91 
Q 1331 -91 842 396 
Q 353 884 353 1716 
Q 353 2575 817 3079 
Q 1281 3584 2069 3584 
Q 2775 3584 3186 3129 
Q 3597 2675 3597 1894 
z
M 3022 2063 
Q 3016 2534 2758 2815 
Q 2500 3097 2075 3097 
Q 1594 3097 1305 2825 
Q 1016 2553 972 2059 
L 3022 2063 
z
" transform="scale(0.015625)"/>
      <path id="DejaVuSans-46" d="M 3122 3366 
L 3122 2828 
Q 2878 2963 2633 3030 
Q 2388 3097 2138 3097 
Q 1578 3097 1268 2742 
Q 959 2388 959 1747 
Q 959 1106 1268 751 
Q 1578 397 2138 397 
Q 2388 397 2633 464 
Q 2878 531 3122 666 
L 3122 134 
Q 2881 22 2623 -34 
Q 2366 -91 2075 -91 
Q 1284 -91 818 406 
Q 353 903 353 1747 
Q 353 2603 823 3093 
Q 1294 3584 2113 3584 
Q 2378 3584 2631 3529 
Q 2884 3475 3122 3366 
z
" transform="scale(0.015625)"/>
      <path id="DejaVuSans-4c" d="M 603 3500 
L 1178 3500 
L 1178 0 
L 603 0 
L 603 3500 
z
M 603 4863 
L 1178 4863 
L 1178 4134 
L 603 4134 
L 603 4863 
z
" transform="scale(0.015625)"/>
      <path id="DejaVuSans-56" d="M 2834 3397 
L 2834 2853 
Q 2591 2978 2328 3040 
Q 2066 3103 1784 3103 
Q 1356 3103 1142 2972 
Q 928 2841 928 2578 
Q 928 2378 1081 2264 
Q 1234 2150 1697 2047 
L 1894 2003 
Q 2506 1872 2764 1633 
Q 3022 1394 3022 966 
Q 3022 478 2636 193 
Q 2250 -91 1575 -91 
Q 1294 -91 989 -36 
Q 684 19 347 128 
L 347 722 
Q 666 556 975 473 
Q 1284 391 1588 391 
Q 1994 391 2212 530 
Q 2431 669 2431 922 
Q 2431 1156 2273 1281 
Q 2116 1406 1581 1522 
L 1381 1569 
Q 847 1681 609 1914 
Q 372 2147 372 2553 
Q 372 3047 722 3315 
Q 1072 3584 1716 3584 
Q 2034 3584 2315 3537 
Q 2597 3491 2834 3397 
z
" transform="scale(0.015625)"/>
      <path id="DejaVuSans-1d" d="M 750 794 
L 1409 794 
L 1409 0 
L 750 0 
L 750 794 
z
M 750 3309 
L 1409 3309 
L 1409 2516 
L 750 2516 
L 750 3309 
z
" transform="scale(0.015625)"/>
      <path id="DejaVuSans-32" d="M 2522 4238 
Q 1834 4238 1429 3725 
Q 1025 3213 1025 2328 
Q 1025 1447 1429 934 
Q 1834 422 2522 422 
Q 3209 422 3611 934 
Q 4013 1447 4013 2328 
Q 4013 3213 3611 3725 
Q 3209 4238 2522 4238 
z
M 2522 4750 
Q 3503 4750 4090 4092 
Q 4678 3434 4678 2328 
Q 4678 1225 4090 567 
Q 3503 -91 2522 -91 
Q 1538 -91 948 565 
Q 359 1222 359 2328 
Q 359 3434 948 4092 
Q 1538 4750 2522 4750 
z
" transform="scale(0.015625)"/>
      <path id="DejaVuSans-31" d="M 628 4666 
L 1478 4666 
L 3547 763 
L 3547 4666 
L 4159 4666 
L 4159 0 
L 3309 0 
L 1241 3903 
L 1241 0 
L 628 0 
L 628 4666 
z
" transform="scale(0.015625)"/>
     </defs>
     <use xlink:href="#DejaVuSans-27"/>
     <use xlink:href="#DejaVuSans-48" transform="translate(77 0)"/>
     <use xlink:href="#DejaVuSans-46" transform="translate(138.53125 0)"/>
     <use xlink:href="#DejaVuSans-4c" transform="translate(193.515625 0)"/>
     <use xlink:href="#DejaVuSans-56" transform="translate(221.296875 0)"/>
     <use xlink:href="#DejaVuSans-4c" transform="translate(273.390625 0)"/>
     <use xlink:href="#DejaVuSans-52" transform="translate(301.171875 0)"/>
     <use xlink:href="#DejaVuSans-51" transform="translate(362.359375 0)"/>
     <use xlink:href="#DejaVuSans-1d" transform="translate(425.734375 0)"/>
     <use xlink:href="#DejaVuSans-3" transform="translate(459.421875 0)"/>
     <use xlink:href="#DejaVuSans-32" transform="translate(491.203125 0)"/>
     <use xlink:href="#DejaVuSans-31" transform="translate(569.921875 0)"/>
    </g>
   </g>
   <g id="text_7">
    <!-- SIGMOID + THRESHOLD -->
    <g style="fill: #1e293b" transform="translate(186.880859 20.676953) scale(0.13 -0.13)">
     <defs>
      <path id="DejaVuSans-Bold-36" d="M 3834 4519 
L 3834 3531 
Q 3450 3703 3084 3790 
Q 2719 3878 2394 3878 
Q 1963 3878 1756 3759 
Q 1550 3641 1550 3391 
Q 1550 3203 1689 3098 
Q 1828 2994 2194 2919 
L 2706 2816 
Q 3484 2659 3812 2340 
Q 4141 2022 4141 1434 
Q 4141 663 3683 286 
Q 3225 -91 2284 -91 
Q 1841 -91 1394 -6 
Q 947 78 500 244 
L 500 1259 
Q 947 1022 1364 901 
Q 1781 781 2169 781 
Q 2563 781 2772 912 
Q 2981 1044 2981 1288 
Q 2981 1506 2839 1625 
Q 2697 1744 2272 1838 
L 1806 1941 
Q 1106 2091 782 2419 
Q 459 2747 459 3303 
Q 459 4000 909 4375 
Q 1359 4750 2203 4750 
Q 2588 4750 2994 4692 
Q 3400 4634 3834 4519 
z
" transform="scale(0.015625)"/>
      <path id="DejaVuSans-Bold-2c" d="M 588 4666 
L 1791 4666 
L 1791 0 
L 588 0 
L 588 4666 
z
" transform="scale(0.015625)"/>
      <path id="DejaVuSans-Bold-2a" d="M 4781 347 
Q 4331 128 3847 18 
Q 3363 -91 2847 -91 
Q 1681 -91 1000 561 
Q 319 1213 319 2328 
Q 319 3456 1012 4103 
Q 1706 4750 2913 4750 
Q 3378 4750 3804 4662 
Q 4231 4575 4609 4403 
L 4609 3438 
Q 4219 3659 3833 3768 
Q 3447 3878 3059 3878 
Q 2341 3878 1952 3476 
Q 1563 3075 1563 2328 
Q 1563 1588 1938 1184 
Q 2313 781 3003 781 
Q 3191 781 3352 804 
Q 3513 828 3641 878 
L 3641 1784 
L 2906 1784 
L 2906 2591 
L 4781 2591 
L 4781 347 
z
" transform="scale(0.015625)"/>
      <path id="DejaVuSans-Bold-30" d="M 588 4666 
L 2119 4666 
L 3181 2169 
L 4250 4666 
L 5778 4666 
L 5778 0 
L 4641 0 
L 4641 3413 
L 3566 897 
L 2803 897 
L 1728 3413 
L 1728 0 
L 588 0 
L 588 4666 
z
" transform="scale(0.015625)"/>
      <path id="DejaVuSans-Bold-32" d="M 2719 3878 
Q 2169 3878 1866 3472 
Q 1563 3066 1563 2328 
Q 1563 1594 1866 1187 
Q 2169 781 2719 781 
Q 3272 781 3575 1187 
Q 3878 1594 3878 2328 
Q 3878 3066 3575 3472 
Q 3272 3878 2719 3878 
z
M 2719 4750 
Q 3844 4750 4481 4106 
Q 5119 3463 5119 2328 
Q 5119 1197 4481 553 
Q 3844 -91 2719 -91 
Q 1597 -91 958 553 
Q 319 1197 319 2328 
Q 319 3463 958 4106 
Q 1597 4750 2719 4750 
z
" transform="scale(0.015625)"/>
      <path id="DejaVuSans-Bold-27" d="M 1791 3756 
L 1791 909 
L 2222 909 
Q 2959 909 3348 1275 
Q 3738 1641 3738 2338 
Q 3738 3031 3350 3393 
Q 2963 3756 2222 3756 
L 1791 3756 
z
M 588 4666 
L 1856 4666 
Q 2919 4666 3439 4514 
Q 3959 4363 4331 4000 
Q 4659 3684 4818 3271 
Q 4978 2859 4978 2338 
Q 4978 1809 4818 1395 
Q 4659 981 4331 666 
Q 3956 303 3431 151 
Q 2906 0 1856 0 
L 588 0 
L 588 4666 
z
" transform="scale(0.015625)"/>
      <path id="DejaVuSans-Bold-3" transform="scale(0.015625)"/>
      <path id="DejaVuSans-Bold-e" d="M 3053 4013 
L 3053 2375 
L 4684 2375 
L 4684 1638 
L 3053 1638 
L 3053 0 
L 2309 0 
L 2309 1638 
L 678 1638 
L 678 2375 
L 2309 2375 
L 2309 4013 
L 3053 4013 
z
" transform="scale(0.015625)"/>
      <path id="DejaVuSans-Bold-37" d="M 31 4666 
L 4331 4666 
L 4331 3756 
L 2784 3756 
L 2784 0 
L 1581 0 
L 1581 3756 
L 31 3756 
L 31 4666 
z
" transform="scale(0.015625)"/>
      <path id="DejaVuSans-Bold-2b" d="M 588 4666 
L 1791 4666 
L 1791 2888 
L 3566 2888 
L 3566 4666 
L 4769 4666 
L 4769 0 
L 3566 0 
L 3566 1978 
L 1791 1978 
L 1791 0 
L 588 0 
L 588 4666 
z
" transform="scale(0.015625)"/>
      <path id="DejaVuSans-Bold-35" d="M 2297 2597 
Q 2675 2597 2839 2737 
Q 3003 2878 3003 3200 
Q 3003 3519 2839 3656 
Q 2675 3794 2297 3794 
L 1791 3794 
L 1791 2597 
L 2297 2597 
z
M 1791 1766 
L 1791 0 
L 588 0 
L 588 4666 
L 2425 4666 
Q 3347 4666 3776 4356 
Q 4206 4047 4206 3378 
Q 4206 2916 3982 2619 
Q 3759 2322 3309 2181 
Q 3556 2125 3751 1926 
Q 3947 1728 4147 1325 
L 4800 0 
L 3519 0 
L 2950 1159 
Q 2778 1509 2601 1637 
Q 2425 1766 2131 1766 
L 1791 1766 
z
" transform="scale(0.015625)"/>
      <path id="DejaVuSans-Bold-28" d="M 588 4666 
L 3834 4666 
L 3834 3756 
L 1791 3756 
L 1791 2888 
L 3713 2888 
L 3713 1978 
L 1791 1978 
L 1791 909 
L 3903 909 
L 3903 0 
L 588 0 
L 588 4666 
z
" transform="scale(0.015625)"/>
      <path id="DejaVuSans-Bold-2f" d="M 588 4666 
L 1791 4666 
L 1791 909 
L 3903 909 
L 3903 0 
L 588 0 
L 588 4666 
z
" transform="scale(0.015625)"/>
     </defs>
     <use xlink:href="#DejaVuSans-Bold-36"/>
     <use xlink:href="#DejaVuSans-Bold-2c" transform="translate(72.015625 0)"/>
     <use xlink:href="#DejaVuSans-Bold-2a" transform="translate(109.21875 0)"/>
     <use xlink:href="#DejaVuSans-Bold-30" transform="translate(191.296875 0)"/>
     <use xlink:href="#DejaVuSans-Bold-32" transform="translate(290.8125 0)"/>
     <use xlink:href="#DejaVuSans-Bold-2c" transform="translate(375.828125 0)"/>
     <use xlink:href="#DejaVuSans-Bold-27" transform="translate(413.03125 0)"/>
     <use xlink:href="#DejaVuSans-Bold-3" transform="translate(496.046875 0)"/>
     <use xlink:href="#DejaVuSans-Bold-e" transform="translate(530.859375 0)"/>
     <use xlink:href="#DejaVuSans-Bold-3" transform="translate(614.65625 0)"/>
     <use xlink:href="#DejaVuSans-Bold-37" transform="translate(649.46875 0)"/>
     <use xlink:href="#DejaVuSans-Bold-2b" transform="translate(717.6875 0)"/>
     <use xlink:href="#DejaVuSans-Bold-35" transform="translate(801.375 0)"/>
     <use xlink:href="#DejaVuSans-Bold-28" transform="translate(878.375 0)"/>
     <use xlink:href="#DejaVuSans-Bold-36" transform="translate(946.6875 0)"/>
     <use xlink:href="#DejaVuSans-Bold-2b" transform="translate(1018.703125 0)"/>
     <use xlink:href="#DejaVuSans-Bold-32" transform="translate(1102.390625 0)"/>
     <use xlink:href="#DejaVuSans-Bold-2f" transform="translate(1187.40625 0)"/>
     <use xlink:href="#DejaVuSans-Bold-27" transform="translate(1251.125 0)"/>
    </g>
   </g>
  </g>
  <g id="axes_2">
   <g id="patch_9">
    <path d="M 36.543673 305.485218 
L 86.958367 305.485218 
Q 103.048163 305.485218 103.048163 282.410497 
L 103.048163 283.179654 
Q 103.048163 260.104933 86.958367 260.104933 
L 36.543673 260.104933 
Q 20.453878 260.104933 20.453878 283.179654 
L 20.453878 282.410497 
Q 20.453878 305.485218 36.543673 305.485218 
L 36.543673 305.485218 
z
" clip-path="url(#p88be7621fe)" style="fill: none; stroke: #8b5cf6; stroke-width: 1.6; stroke-linejoin: miter"/>
   </g>
   <g id="patch_10">
    <path d="M 36.543673 367.017807 
L 86.958367 367.017807 
Q 103.048163 367.017807 103.048163 343.943086 
L 103.048163 344.712243 
Q 103.048163 321.637522 86.958367 321.637522 
L 36.543673 321.637522 
Q 20.453878 321.637522 20.453878 344.712243 
L 20.453878 343.943086 
Q 20.453878 367.017807 36.543673 367.017807 
L 36.543673 367.017807 
z
" clip-path="url(#p88be7621fe)" style="fill: none; stroke: #8b5cf6; stroke-width: 1.6; stroke-linejoin: miter"/>
   </g>
   <g id="patch_11">
    <path d="M 107.600281 284.491973 
Q 118.499327 289.295127 124.484522 297.457084 
" clip-path="url(#p88be7621fe)" style="fill: none; stroke: #8b5cf6; stroke-width: 1.6; stroke-linecap: round"/>
    <path d="M 123.430937 291.285378 
L 124.484522 297.457084 
L 118.915006 294.596928 
z
" clip-path="url(#p88be7621fe)" style="fill: #8b5cf6; stroke: #8b5cf6; stroke-width: 1.6; stroke-linecap: round"/>
   </g>
   <g id="patch_12">
    <path d="M 107.636801 341.955591 
Q 118.37578 337.424965 124.363952 329.583361 
" clip-path="url(#p88be7621fe)" style="fill: none; stroke: #8b5cf6; stroke-width: 1.6; stroke-linecap: round"/>
    <path d="M 118.739877 332.334686 
L 124.363952 329.583361 
L 123.190566 335.733416 
z
" clip-path="url(#p88be7621fe)" style="fill: #8b5cf6; stroke: #8b5cf6; stroke-width: 1.6; stroke-linecap: round"/>
   </g>
   <g id="patch_13">
    <path d="M 133.618776 351.63466 
L 215.140408 351.63466 
Q 218.358367 351.63466 218.358367 347.019715 
L 218.358367 283.948811 
Q 218.358367 279.333867 215.140408 279.333867 
L 133.618776 279.333867 
Q 130.400816 279.333867 130.400816 283.948811 
L 130.400816 347.019715 
Q 130.400816 351.63466 133.618776 351.63466 
z
" clip-path="url(#p88be7621fe)" style="fill: #8b5cf6; stroke: #8b5cf6; stroke-width: 1.6; stroke-linejoin: miter"/>
   </g>
   <g id="patch_14">
    <path d="M 219.285809 315.484263 
Q 230.692733 315.484263 240.422606 315.484263 
" clip-path="url(#p88be7621fe)" style="fill: none; stroke: #8b5cf6; stroke-width: 1.5; stroke-linecap: round"/>
    <path d="M 235.222606 312.884263 
L 240.422606 315.484263 
L 235.222606 318.084263 
z
" clip-path="url(#p88be7621fe)" style="fill: #8b5cf6; stroke: #8b5cf6; stroke-width: 1.5; stroke-linecap: round"/>
   </g>
   <g id="patch_15">
    <path d="M 261.800816 343.943086 
L 368.529796 343.943086 
Q 384.619592 343.943086 384.619592 320.868365 
L 384.619592 310.100162 
Q 384.619592 287.025441 368.529796 287.025441 
L 261.800816 287.025441 
Q 245.71102 287.025441 245.71102 310.100162 
L 245.71102 320.868365 
Q 245.71102 343.943086 261.800816 343.943086 
L 261.800816 343.943086 
z
" clip-path="url(#p88be7621fe)" style="fill: none; stroke: #8b5cf6; stroke-width: 1.6; stroke-linejoin: miter"/>
   </g>
   <g id="patch_16">
    <path d="M 385.547033 315.484263 
Q 396.953957 315.484263 406.68383 315.484263 
" clip-path="url(#p88be7621fe)" style="fill: none; stroke: #8b5cf6; stroke-width: 1.5; stroke-linecap: round"/>
    <path d="M 401.48383 312.884263 
L 406.68383 315.484263 
L 401.48383 318.084263 
z
" clip-path="url(#p88be7621fe)" style="fill: #8b5cf6; stroke: #8b5cf6; stroke-width: 1.5; stroke-linecap: round"/>
   </g>
   <g id="patch_17">
    <path d="M 428.062041 343.943086 
L 505.293061 343.943086 
Q 521.382857 343.943086 521.382857 320.868365 
L 521.382857 310.100162 
Q 521.382857 287.025441 505.293061 287.025441 
L 428.062041 287.025441 
Q 411.972245 287.025441 411.972245 310.100162 
L 411.972245 320.868365 
Q 411.972245 343.943086 428.062041 343.943086 
L 428.062041 343.943086 
z
" clip-path="url(#p88be7621fe)" style="fill: none; stroke: #8b5cf6; stroke-width: 1.6; stroke-linejoin: miter"/>
   </g>
   <g id="text_8">
    <!-- this chapter's approach: the cutoff is learned, not bolted on -->
    <g style="fill: #8b5cf6" transform="translate(115.547548 257.797461) scale(0.095 -0.095)">
     <defs>
      <path id="DejaVuSans-Oblique-a" d="M 1147 4666 
L 1147 2931 
L 616 2931 
L 616 4666 
L 1147 4666 
z
" transform="scale(0.015625)"/>
     </defs>
     <use xlink:href="#DejaVuSans-Oblique-57"/>
     <use xlink:href="#DejaVuSans-Oblique-4b" transform="translate(39.203125 0)"/>
     <use xlink:href="#DejaVuSans-Oblique-4c" transform="translate(102.578125 0)"/>
     <use xlink:href="#DejaVuSans-Oblique-56" transform="translate(130.359375 0)"/>
     <use xlink:href="#DejaVuSans-Oblique-3" transform="translate(182.453125 0)"/>
     <use xlink:href="#DejaVuSans-Oblique-46" transform="translate(214.234375 0)"/>
     <use xlink:href="#DejaVuSans-Oblique-4b" transform="translate(269.21875 0)"/>
     <use xlink:href="#DejaVuSans-Oblique-44" transform="translate(332.59375 0)"/>
     <use xlink:href="#DejaVuSans-Oblique-53" transform="translate(393.875 0)"/>
     <use xlink:href="#DejaVuSans-Oblique-57" transform="translate(457.359375 0)"/>
     <use xlink:href="#DejaVuSans-Oblique-48" transform="translate(496.5625 0)"/>
     <use xlink:href="#DejaVuSans-Oblique-55" transform="translate(558.09375 0)"/>
     <use xlink:href="#DejaVuSans-Oblique-a" transform="translate(599.203125 0)"/>
     <use xlink:href="#DejaVuSans-Oblique-56" transform="translate(626.6875 0)"/>
     <use xlink:href="#DejaVuSans-Oblique-3" transform="translate(678.78125 0)"/>
     <use xlink:href="#DejaVuSans-Oblique-44" transform="translate(710.5625 0)"/>
     <use xlink:href="#DejaVuSans-Oblique-53" transform="translate(771.84375 0)"/>
     <use xlink:href="#DejaVuSans-Oblique-53" transform="translate(835.328125 0)"/>
     <use xlink:href="#DejaVuSans-Oblique-55" transform="translate(898.8125 0)"/>
     <use xlink:href="#DejaVuSans-Oblique-52" transform="translate(939.921875 0)"/>
     <use xlink:href="#DejaVuSans-Oblique-44" transform="translate(1001.109375 0)"/>
     <use xlink:href="#DejaVuSans-Oblique-46" transform="translate(1062.390625 0)"/>
     <use xlink:href="#DejaVuSans-Oblique-4b" transform="translate(1117.375 0)"/>
     <use xlink:href="#DejaVuSans-Oblique-1d" transform="translate(1180.75 0)"/>
     <use xlink:href="#DejaVuSans-Oblique-3" transform="translate(1214.4375 0)"/>
     <use xlink:href="#DejaVuSans-Oblique-57" transform="translate(1246.21875 0)"/>
     <use xlink:href="#DejaVuSans-Oblique-4b" transform="translate(1285.421875 0)"/>
     <use xlink:href="#DejaVuSans-Oblique-48" transform="translate(1348.796875 0)"/>
     <use xlink:href="#DejaVuSans-Oblique-3" transform="translate(1410.328125 0)"/>
     <use xlink:href="#DejaVuSans-Oblique-46" transform="translate(1442.109375 0)"/>
     <use xlink:href="#DejaVuSans-Oblique-58" transform="translate(1497.09375 0)"/>
     <use xlink:href="#DejaVuSans-Oblique-57" transform="translate(1560.46875 0)"/>
     <use xlink:href="#DejaVuSans-Oblique-52" transform="translate(1599.671875 0)"/>
     <use xlink:href="#DejaVuSans-Oblique-127b" transform="translate(1660.859375 0)"/>
     <use xlink:href="#DejaVuSans-Oblique-3" transform="translate(1733.03125 0)"/>
     <use xlink:href="#DejaVuSans-Oblique-4c" transform="translate(1764.8125 0)"/>
     <use xlink:href="#DejaVuSans-Oblique-56" transform="translate(1792.59375 0)"/>
     <use xlink:href="#DejaVuSans-Oblique-3" transform="translate(1844.6875 0)"/>
     <use xlink:href="#DejaVuSans-Oblique-4f" transform="translate(1876.46875 0)"/>
     <use xlink:href="#DejaVuSans-Oblique-48" transform="translate(1904.25 0)"/>
     <use xlink:href="#DejaVuSans-Oblique-44" transform="translate(1965.78125 0)"/>
     <use xlink:href="#DejaVuSans-Oblique-55" transform="translate(2027.0625 0)"/>
     <use xlink:href="#DejaVuSans-Oblique-51" transform="translate(2068.171875 0)"/>
     <use xlink:href="#DejaVuSans-Oblique-48" transform="translate(2131.546875 0)"/>
     <use xlink:href="#DejaVuSans-Oblique-47" transform="translate(2193.078125 0)"/>
     <use xlink:href="#DejaVuSans-Oblique-f" transform="translate(2256.5625 0)"/>
     <use xlink:href="#DejaVuSans-Oblique-3" transform="translate(2288.34375 0)"/>
     <use xlink:href="#DejaVuSans-Oblique-51" transform="translate(2320.125 0)"/>
     <use xlink:href="#DejaVuSans-Oblique-52" transform="translate(2383.5 0)"/>
     <use xlink:href="#DejaVuSans-Oblique-57" transform="translate(2444.6875 0)"/>
     <use xlink:href="#DejaVuSans-Oblique-3" transform="translate(2483.890625 0)"/>
     <use xlink:href="#DejaVuSans-Oblique-45" transform="translate(2515.671875 0)"/>
     <use xlink:href="#DejaVuSans-Oblique-52" transform="translate(2579.15625 0)"/>
     <use xlink:href="#DejaVuSans-Oblique-4f" transform="translate(2640.34375 0)"/>
     <use xlink:href="#DejaVuSans-Oblique-57" transform="translate(2668.125 0)"/>
     <use xlink:href="#DejaVuSans-Oblique-48" transform="translate(2707.328125 0)"/>
     <use xlink:href="#DejaVuSans-Oblique-47" transform="translate(2768.859375 0)"/>
     <use xlink:href="#DejaVuSans-Oblique-3" transform="translate(2832.34375 0)"/>
     <use xlink:href="#DejaVuSans-Oblique-52" transform="translate(2864.125 0)"/>
     <use xlink:href="#DejaVuSans-Oblique-51" transform="translate(2925.3125 0)"/>
    </g>
   </g>
   <g id="text_9">
    <!-- off logit -->
    <g style="fill: #1e293b" transform="translate(45.545903 285.003415) scale(0.085 -0.085)">
     <defs>
      <path id="DejaVuSans-13ae" d="M 4531 4863 
L 4531 4384 
L 3981 4384 
Q 3672 4384 3551 4259 
Q 3431 4134 3431 3809 
L 3431 3500 
L 4378 3500 
L 4378 3053 
L 3431 3053 
L 3431 0 
L 2853 0 
L 2853 3053 
L 1275 3053 
L 1275 0 
L 697 0 
L 697 3053 
L 147 3053 
L 147 3500 
L 697 3500 
L 697 3744 
Q 697 4328 969 4595 
Q 1241 4863 1831 4863 
L 2375 4863 
L 2375 4384 
L 1825 4384 
Q 1516 4384 1394 4259 
Q 1275 4134 1275 3809 
L 1275 3500 
L 2853 3500 
L 2853 3744 
Q 2853 4328 3125 4595 
Q 3397 4863 3988 4863 
L 4531 4863 
z
" transform="scale(0.015625)"/>
      <path id="DejaVuSans-4f" d="M 603 4863 
L 1178 4863 
L 1178 0 
L 603 0 
L 603 4863 
z
" transform="scale(0.015625)"/>
      <path id="DejaVuSans-4a" d="M 2906 1791 
Q 2906 2416 2648 2759 
Q 2391 3103 1925 3103 
Q 1463 3103 1205 2759 
Q 947 2416 947 1791 
Q 947 1169 1205 825 
Q 1463 481 1925 481 
Q 2391 481 2648 825 
Q 2906 1169 2906 1791 
z
M 3481 434 
Q 3481 -459 3084 -895 
Q 2688 -1331 1869 -1331 
Q 1566 -1331 1297 -1286 
Q 1028 -1241 775 -1147 
L 775 -588 
Q 1028 -725 1275 -790 
Q 1522 -856 1778 -856 
Q 2344 -856 2625 -561 
Q 2906 -266 2906 331 
L 2906 616 
Q 2728 306 2450 153 
Q 2172 0 1784 0 
Q 1141 0 747 490 
Q 353 981 353 1791 
Q 353 2603 747 3093 
Q 1141 3584 1784 3584 
Q 2172 3584 2450 3431 
Q 2728 3278 2906 2969 
L 2906 3500 
L 3481 3500 
L 3481 434 
z
" transform="scale(0.015625)"/>
      <path id="DejaVuSans-57" d="M 1172 4494 
L 1172 3500 
L 2356 3500 
L 2356 3053 
L 1172 3053 
L 1172 1153 
Q 1172 725 1289 603 
Q 1406 481 1766 481 
L 2356 481 
L 2356 0 
L 1766 0 
Q 1100 0 847 248 
Q 594 497 594 1153 
L 594 3053 
L 172 3053 
L 172 3500 
L 594 3500 
L 594 4494 
L 1172 4494 
z
" transform="scale(0.015625)"/>
     </defs>
     <use xlink:href="#DejaVuSans-52"/>
     <use xlink:href="#DejaVuSans-13ae" transform="translate(61.1875 0)"/>
     <use xlink:href="#DejaVuSans-3" transform="translate(130.078125 0)"/>
     <use xlink:href="#DejaVuSans-4f" transform="translate(161.859375 0)"/>
     <use xlink:href="#DejaVuSans-52" transform="translate(189.640625 0)"/>
     <use xlink:href="#DejaVuSans-4a" transform="translate(250.828125 0)"/>
     <use xlink:href="#DejaVuSans-4c" transform="translate(314.3125 0)"/>
     <use xlink:href="#DejaVuSans-57" transform="translate(342.09375 0)"/>
    </g>
   </g>
   <g id="text_10">
    <!-- on logit -->
    <g style="fill: #1e293b" transform="translate(45.780317 346.536004) scale(0.085 -0.085)">
     <use xlink:href="#DejaVuSans-52"/>
     <use xlink:href="#DejaVuSans-51" transform="translate(61.1875 0)"/>
     <use xlink:href="#DejaVuSans-3" transform="translate(124.5625 0)"/>
     <use xlink:href="#DejaVuSans-4f" transform="translate(156.34375 0)"/>
     <use xlink:href="#DejaVuSans-52" transform="translate(184.125 0)"/>
     <use xlink:href="#DejaVuSans-4a" transform="translate(245.3125 0)"/>
     <use xlink:href="#DejaVuSans-4c" transform="translate(308.796875 0)"/>
     <use xlink:href="#DejaVuSans-57" transform="translate(336.578125 0)"/>
    </g>
   </g>
   <g id="text_11">
    <!-- softmax -->
    <g style="fill: #ffffff" transform="translate(155.467912 312.659832) scale(0.083 -0.083)">
     <defs>
      <path id="DejaVuSans-Bold-56" d="M 3272 3391 
L 3272 2541 
Q 2913 2691 2578 2766 
Q 2244 2841 1947 2841 
Q 1628 2841 1473 2761 
Q 1319 2681 1319 2516 
Q 1319 2381 1436 2309 
Q 1553 2238 1856 2203 
L 2053 2175 
Q 2913 2066 3209 1816 
Q 3506 1566 3506 1031 
Q 3506 472 3093 190 
Q 2681 -91 1863 -91 
Q 1516 -91 1145 -36 
Q 775 19 384 128 
L 384 978 
Q 719 816 1070 734 
Q 1422 653 1784 653 
Q 2113 653 2278 743 
Q 2444 834 2444 1013 
Q 2444 1163 2330 1236 
Q 2216 1309 1875 1350 
L 1678 1375 
Q 931 1469 631 1722 
Q 331 1975 331 2491 
Q 331 3047 712 3315 
Q 1094 3584 1881 3584 
Q 2191 3584 2531 3537 
Q 2872 3491 3272 3391 
z
" transform="scale(0.015625)"/>
      <path id="DejaVuSans-Bold-49" d="M 2841 4863 
L 2841 4128 
L 2222 4128 
Q 1984 4128 1890 4042 
Q 1797 3956 1797 3744 
L 1797 3500 
L 2753 3500 
L 2753 2700 
L 1797 2700 
L 1797 0 
L 678 0 
L 678 2700 
L 122 2700 
L 122 3500 
L 678 3500 
L 678 3744 
Q 678 4316 997 4589 
Q 1316 4863 1984 4863 
L 2841 4863 
z
" transform="scale(0.015625)"/>
      <path id="DejaVuSans-Bold-50" d="M 3781 2919 
Q 3994 3244 4286 3414 
Q 4578 3584 4928 3584 
Q 5531 3584 5847 3212 
Q 6163 2841 6163 2131 
L 6163 0 
L 5038 0 
L 5038 1825 
Q 5041 1866 5042 1909 
Q 5044 1953 5044 2034 
Q 5044 2406 4934 2573 
Q 4825 2741 4581 2741 
Q 4263 2741 4089 2478 
Q 3916 2216 3909 1719 
L 3909 0 
L 2784 0 
L 2784 1825 
Q 2784 2406 2684 2573 
Q 2584 2741 2328 2741 
Q 2006 2741 1831 2477 
Q 1656 2213 1656 1722 
L 1656 0 
L 531 0 
L 531 3500 
L 1656 3500 
L 1656 2988 
Q 1863 3284 2130 3434 
Q 2397 3584 2719 3584 
Q 3081 3584 3359 3409 
Q 3638 3234 3781 2919 
z
" transform="scale(0.015625)"/>
      <path id="DejaVuSans-Bold-44" d="M 2106 1575 
Q 1756 1575 1579 1456 
Q 1403 1338 1403 1106 
Q 1403 894 1545 773 
Q 1688 653 1941 653 
Q 2256 653 2472 879 
Q 2688 1106 2688 1447 
L 2688 1575 
L 2106 1575 
z
M 3816 1997 
L 3816 0 
L 2688 0 
L 2688 519 
Q 2463 200 2181 54 
Q 1900 -91 1497 -91 
Q 953 -91 614 226 
Q 275 544 275 1050 
Q 275 1666 698 1953 
Q 1122 2241 2028 2241 
L 2688 2241 
L 2688 2328 
Q 2688 2594 2478 2717 
Q 2269 2841 1825 2841 
Q 1466 2841 1156 2769 
Q 847 2697 581 2553 
L 581 3406 
Q 941 3494 1303 3539 
Q 1666 3584 2028 3584 
Q 2975 3584 3395 3211 
Q 3816 2838 3816 1997 
z
" transform="scale(0.015625)"/>
      <path id="DejaVuSans-Bold-5b" d="M 1422 1791 
L 159 3500 
L 1344 3500 
L 2059 2463 
L 2784 3500 
L 3969 3500 
L 2706 1797 
L 4031 0 
L 2847 0 
L 2059 1106 
L 1281 0 
L 97 0 
L 1422 1791 
z
" transform="scale(0.015625)"/>
     </defs>
     <use xlink:href="#DejaVuSans-Bold-56"/>
     <use xlink:href="#DejaVuSans-Bold-52" transform="translate(59.515625 0)"/>
     <use xlink:href="#DejaVuSans-Bold-49" transform="translate(128.21875 0)"/>
     <use xlink:href="#DejaVuSans-Bold-57" transform="translate(171.71875 0)"/>
     <use xlink:href="#DejaVuSans-Bold-50" transform="translate(219.515625 0)"/>
     <use xlink:href="#DejaVuSans-Bold-44" transform="translate(323.71875 0)"/>
     <use xlink:href="#DejaVuSans-Bold-5b" transform="translate(391.203125 0)"/>
    </g>
    <!-- (2-way) -->
    <g style="fill: #ffffff" transform="translate(156.764139 322.621453) scale(0.083 -0.083)">
     <defs>
      <path id="DejaVuSans-Bold-b" d="M 2413 -844 
L 1484 -844 
Q 1006 -72 778 623 
Q 550 1319 550 2003 
Q 550 2688 779 3389 
Q 1009 4091 1484 4856 
L 2413 4856 
Q 2013 4116 1813 3408 
Q 1613 2700 1613 2009 
Q 1613 1319 1811 609 
Q 2009 -100 2413 -844 
z
" transform="scale(0.015625)"/>
      <path id="DejaVuSans-Bold-15" d="M 1844 884 
L 3897 884 
L 3897 0 
L 506 0 
L 506 884 
L 2209 2388 
Q 2438 2594 2547 2791 
Q 2656 2988 2656 3200 
Q 2656 3528 2436 3728 
Q 2216 3928 1850 3928 
Q 1569 3928 1234 3808 
Q 900 3688 519 3450 
L 519 4475 
Q 925 4609 1322 4679 
Q 1719 4750 2100 4750 
Q 2938 4750 3402 4381 
Q 3866 4013 3866 3353 
Q 3866 2972 3669 2642 
Q 3472 2313 2841 1759 
L 1844 884 
z
" transform="scale(0.015625)"/>
      <path id="DejaVuSans-Bold-10" d="M 347 2297 
L 2309 2297 
L 2309 1388 
L 347 1388 
L 347 2297 
z
" transform="scale(0.015625)"/>
      <path id="DejaVuSans-Bold-5a" d="M 225 3500 
L 1313 3500 
L 1900 1088 
L 2491 3500 
L 3425 3500 
L 4013 1113 
L 4603 3500 
L 5691 3500 
L 4769 0 
L 3547 0 
L 2956 2406 
L 2369 0 
L 1147 0 
L 225 3500 
z
" transform="scale(0.015625)"/>
      <path id="DejaVuSans-Bold-5c" d="M 78 3500 
L 1197 3500 
L 2138 1125 
L 2938 3500 
L 4056 3500 
L 2584 -331 
Q 2363 -916 2067 -1148 
Q 1772 -1381 1288 -1381 
L 641 -1381 
L 641 -647 
L 991 -647 
Q 1275 -647 1404 -556 
Q 1534 -466 1606 -231 
L 1638 -134 
L 78 3500 
z
" transform="scale(0.015625)"/>
      <path id="DejaVuSans-Bold-c" d="M 513 -844 
Q 913 -100 1113 609 
Q 1313 1319 1313 2009 
Q 1313 2700 1113 3408 
Q 913 4116 513 4856 
L 1441 4856 
Q 1916 4091 2145 3389 
Q 2375 2688 2375 2003 
Q 2375 1319 2147 623 
Q 1919 -72 1441 -844 
L 513 -844 
z
" transform="scale(0.015625)"/>
     </defs>
     <use xlink:href="#DejaVuSans-Bold-b"/>
     <use xlink:href="#DejaVuSans-Bold-15" transform="translate(45.703125 0)"/>
     <use xlink:href="#DejaVuSans-Bold-10" transform="translate(115.28125 0)"/>
     <use xlink:href="#DejaVuSans-Bold-5a" transform="translate(156.78125 0)"/>
     <use xlink:href="#DejaVuSans-Bold-44" transform="translate(249.171875 0)"/>
     <use xlink:href="#DejaVuSans-Bold-5c" transform="translate(313.578125 0)"/>
     <use xlink:href="#DejaVuSans-Bold-c" transform="translate(378.765625 0)"/>
    </g>
   </g>
   <g id="text_12">
    <!-- P(off)=0.35, P(on)=0.65 -->
    <g style="fill: #1e293b" transform="translate(263.835267 317.692603) scale(0.085 -0.085)">
     <defs>
      <path id="DejaVuSans-16" d="M 2597 2516 
Q 3050 2419 3304 2112 
Q 3559 1806 3559 1356 
Q 3559 666 3084 287 
Q 2609 -91 1734 -91 
Q 1441 -91 1130 -33 
Q 819 25 488 141 
L 488 750 
Q 750 597 1062 519 
Q 1375 441 1716 441 
Q 2309 441 2620 675 
Q 2931 909 2931 1356 
Q 2931 1769 2642 2001 
Q 2353 2234 1838 2234 
L 1294 2234 
L 1294 2753 
L 1863 2753 
Q 2328 2753 2575 2939 
Q 2822 3125 2822 3475 
Q 2822 3834 2567 4026 
Q 2313 4219 1838 4219 
Q 1578 4219 1281 4162 
Q 984 4106 628 3988 
L 628 4550 
Q 988 4650 1302 4700 
Q 1616 4750 1894 4750 
Q 2613 4750 3031 4423 
Q 3450 4097 3450 3541 
Q 3450 3153 3228 2886 
Q 3006 2619 2597 2516 
z
" transform="scale(0.015625)"/>
      <path id="DejaVuSans-18" d="M 691 4666 
L 3169 4666 
L 3169 4134 
L 1269 4134 
L 1269 2991 
Q 1406 3038 1543 3061 
Q 1681 3084 1819 3084 
Q 2600 3084 3056 2656 
Q 3513 2228 3513 1497 
Q 3513 744 3044 326 
Q 2575 -91 1722 -91 
Q 1428 -91 1123 -41 
Q 819 9 494 109 
L 494 744 
Q 775 591 1075 516 
Q 1375 441 1709 441 
Q 2250 441 2565 725 
Q 2881 1009 2881 1497 
Q 2881 1984 2565 2268 
Q 2250 2553 1709 2553 
Q 1456 2553 1204 2497 
Q 953 2441 691 2322 
L 691 4666 
z
" transform="scale(0.015625)"/>
      <path id="DejaVuSans-f" d="M 750 794 
L 1409 794 
L 1409 256 
L 897 -744 
L 494 -744 
L 750 256 
L 750 794 
z
" transform="scale(0.015625)"/>
     </defs>
     <use xlink:href="#DejaVuSans-33"/>
     <use xlink:href="#DejaVuSans-b" transform="translate(60.296875 0)"/>
     <use xlink:href="#DejaVuSans-52" transform="translate(99.3125 0)"/>
     <use xlink:href="#DejaVuSans-13ae" transform="translate(160.5 0)"/>
     <use xlink:href="#DejaVuSans-c" transform="translate(229.390625 0)"/>
     <use xlink:href="#DejaVuSans-20" transform="translate(268.40625 0)"/>
     <use xlink:href="#DejaVuSans-13" transform="translate(352.203125 0)"/>
     <use xlink:href="#DejaVuSans-11" transform="translate(415.828125 0)"/>
     <use xlink:href="#DejaVuSans-16" transform="translate(447.609375 0)"/>
     <use xlink:href="#DejaVuSans-18" transform="translate(511.234375 0)"/>
     <use xlink:href="#DejaVuSans-f" transform="translate(574.859375 0)"/>
     <use xlink:href="#DejaVuSans-3" transform="translate(606.640625 0)"/>
     <use xlink:href="#DejaVuSans-33" transform="translate(638.421875 0)"/>
     <use xlink:href="#DejaVuSans-b" transform="translate(698.71875 0)"/>
     <use xlink:href="#DejaVuSans-52" transform="translate(737.734375 0)"/>
     <use xlink:href="#DejaVuSans-51" transform="translate(798.921875 0)"/>
     <use xlink:href="#DejaVuSans-c" transform="translate(862.296875 0)"/>
     <use xlink:href="#DejaVuSans-20" transform="translate(901.3125 0)"/>
     <use xlink:href="#DejaVuSans-13" transform="translate(985.109375 0)"/>
     <use xlink:href="#DejaVuSans-11" transform="translate(1048.734375 0)"/>
     <use xlink:href="#DejaVuSans-19" transform="translate(1080.515625 0)"/>
     <use xlink:href="#DejaVuSans-18" transform="translate(1144.140625 0)"/>
    </g>
   </g>
   <g id="text_13">
    <!-- Decision: ON -->
    <g style="fill: #1e293b" transform="translate(439.27634 317.692603) scale(0.085 -0.085)">
     <use xlink:href="#DejaVuSans-27"/>
     <use xlink:href="#DejaVuSans-48" transform="translate(77 0)"/>
     <use xlink:href="#DejaVuSans-46" transform="translate(138.53125 0)"/>
     <use xlink:href="#DejaVuSans-4c" transform="translate(193.515625 0)"/>
     <use xlink:href="#DejaVuSans-56" transform="translate(221.296875 0)"/>
     <use xlink:href="#DejaVuSans-4c" transform="translate(273.390625 0)"/>
     <use xlink:href="#DejaVuSans-52" transform="translate(301.171875 0)"/>
     <use xlink:href="#DejaVuSans-51" transform="translate(362.359375 0)"/>
     <use xlink:href="#DejaVuSans-1d" transform="translate(425.734375 0)"/>
     <use xlink:href="#DejaVuSans-3" transform="translate(459.421875 0)"/>
     <use xlink:href="#DejaVuSans-32" transform="translate(491.203125 0)"/>
     <use xlink:href="#DejaVuSans-31" transform="translate(569.921875 0)"/>
    </g>
   </g>
   <g id="text_14">
    <!-- TWO-LOGIT SOFTMAX -->
    <g style="fill: #8b5cf6" transform="translate(194.174063 216.876953) scale(0.13 -0.13)">
     <defs>
      <path id="DejaVuSans-Bold-3a" d="M 191 4666 
L 1344 4666 
L 2150 1275 
L 2950 4666 
L 4109 4666 
L 4909 1275 
L 5716 4666 
L 6859 4666 
L 5759 0 
L 4372 0 
L 3525 3547 
L 2688 0 
L 1300 0 
L 191 4666 
z
" transform="scale(0.015625)"/>
      <path id="DejaVuSans-Bold-29" d="M 588 4666 
L 3834 4666 
L 3834 3756 
L 1791 3756 
L 1791 2888 
L 3713 2888 
L 3713 1978 
L 1791 1978 
L 1791 0 
L 588 0 
L 588 4666 
z
" transform="scale(0.015625)"/>
      <path id="DejaVuSans-Bold-24" d="M 3419 850 
L 1538 850 
L 1241 0 
L 31 0 
L 1759 4666 
L 3194 4666 
L 4922 0 
L 3713 0 
L 3419 850 
z
M 1838 1716 
L 3116 1716 
L 2478 3572 
L 1838 1716 
z
" transform="scale(0.015625)"/>
      <path id="DejaVuSans-Bold-3b" d="M 3188 2381 
L 4806 0 
L 3553 0 
L 2463 1594 
L 1381 0 
L 122 0 
L 1741 2381 
L 184 4666 
L 1441 4666 
L 2463 3163 
L 3481 4666 
L 4744 4666 
L 3188 2381 
z
" transform="scale(0.015625)"/>
     </defs>
     <use xlink:href="#DejaVuSans-Bold-37"/>
     <use xlink:href="#DejaVuSans-Bold-3a" transform="translate(68.21875 0)"/>
     <use xlink:href="#DejaVuSans-Bold-32" transform="translate(178.515625 0)"/>
     <use xlink:href="#DejaVuSans-Bold-10" transform="translate(265.390625 0)"/>
     <use xlink:href="#DejaVuSans-Bold-2f" transform="translate(306.890625 0)"/>
     <use xlink:href="#DejaVuSans-Bold-32" transform="translate(367.046875 0)"/>
     <use xlink:href="#DejaVuSans-Bold-2a" transform="translate(452.0625 0)"/>
     <use xlink:href="#DejaVuSans-Bold-2c" transform="translate(534.140625 0)"/>
     <use xlink:href="#DejaVuSans-Bold-37" transform="translate(571.34375 0)"/>
     <use xlink:href="#DejaVuSans-Bold-3" transform="translate(639.5625 0)"/>
     <use xlink:href="#DejaVuSans-Bold-36" transform="translate(674.375 0)"/>
     <use xlink:href="#DejaVuSans-Bold-32" transform="translate(746.390625 0)"/>
     <use xlink:href="#DejaVuSans-Bold-29" transform="translate(831.40625 0)"/>
     <use xlink:href="#DejaVuSans-Bold-37" transform="translate(899.71875 0)"/>
     <use xlink:href="#DejaVuSans-Bold-30" transform="translate(967.9375 0)"/>
     <use xlink:href="#DejaVuSans-Bold-24" transform="translate(1067.453125 0)"/>
     <use xlink:href="#DejaVuSans-Bold-3b" transform="translate(1144.84375 0)"/>
    </g>
   </g>
  </g>
 </g>
 <defs>
  <clipPath id="p2d76f5d966">
   <rect x="10.8" y="34.676953" width="525.6" height="161.523047"/>
  </clipPath>
  <clipPath id="p88be7621fe">
   <rect x="10.8" y="230.876953" width="525.6" height="161.523047"/>
  </clipPath>
 </defs>
</svg>
