<?xml version="1.0" encoding="utf-8" standalone="no"?>
<!DOCTYPE svg PUBLIC "-//W3C//DTD SVG 1.1//EN"
  "http://www.w3.org/Graphics/SVG/1.1/DTD/svg11.dtd">
<svg xmlns:xlink="http://www.w3.org/1999/xlink" width="547.2pt" height="518.4pt" viewBox="0 0 547.2 518.4" xmlns="http://www.w3.org/2000/svg" version="1.1">
 <metadata>
  <rdf:RDF xmlns:dc="http://purl.org/dc/elements/1.1/" xmlns:cc="http://creativecommons.org/ns#" xmlns:rdf="http://www.w3.org/1999/02/22-rdf-syntax-ns#">
   <cc:Work>
    <dc:type rdf:resource="http://purl.org/dc/dcmitype/StillImage"/>
    <dc:date>2026-07-17T20:49:54.786775</dc:date>
    <dc:format>image/svg+xml</dc:format>
    <dc:creator>
     <cc:Agent>
      <dc:title>Matplotlib v3.11.0, https://matplotlib.org/</dc:title>
     </cc:Agent>
    </dc:creator>
   </cc:Work>
  </rdf:RDF>
 </metadata>
 <defs>
  <style type="text/css">*{stroke-linejoin: round; stroke-linecap: butt}</style>
 </defs>
 <g id="figure_1">
  <g id="patch_1">
   <path d="M 0 518.4 
L 547.2 518.4 
L 547.2 0 
L 0 0 
z
" style="fill: #ffffff"/>
  </g>
  <g id="axes_1">
   <g id="patch_2">
    <path d="M 24.219574 175.832962 
L 114.801702 175.832962 
Q 118.156596 175.832962 118.156596 172.775432 
L 118.156596 130.989176 
Q 118.156596 127.931645 114.801702 127.931645 
L 24.219574 127.931645 
Q 20.864681 127.931645 20.864681 130.989176 
L 20.864681 172.775432 
Q 20.864681 175.832962 24.219574 175.832962 
z
" clip-path="url(#p11839a49cc)" style="fill: #0369a1; stroke: #0369a1; stroke-width: 1.6; stroke-linejoin: miter"/>
   </g>
   <g id="patch_3">
    <path d="M 125.063249 148.943586 
Q 155.53141 130.867233 169.780603 100.396836 
" clip-path="url(#p11839a49cc)" style="fill: none; stroke: #6b7280; stroke-width: 1.6; stroke-linecap: round"/>
    <path d="M 164.872023 104.28346 
L 169.780603 100.396836 
L 169.944754 106.655674 
z
" clip-path="url(#p11839a49cc)" style="fill: #6b7280; stroke: #6b7280; stroke-width: 1.6; stroke-linecap: round"/>
   </g>
   <g id="patch_4">
    <path d="M 177.985532 112.134402 
L 285.342128 112.134402 
Q 288.697021 112.134402 288.697021 109.076871 
L 288.697021 77.482386 
Q 288.697021 74.424855 285.342128 74.424855 
L 177.985532 74.424855 
Q 174.630638 74.424855 174.630638 77.482386 
L 174.630638 109.076871 
Q 174.630638 112.134402 177.985532 112.134402 
L 177.985532 112.134402 
z
" clip-path="url(#p11839a49cc)" style="fill: none; opacity: 0.9; stroke: #6b7280; stroke-width: 1.6; stroke-linejoin: miter"/>
   </g>
   <g id="patch_5">
    <path d="M 292.377767 93.279628 
Q 304.355264 93.279628 314.65571 93.279628 
" clip-path="url(#p11839a49cc)" style="fill: none; stroke: #6b7280; stroke-width: 1.5; stroke-linecap: round"/>
    <path d="M 309.45571 90.679628 
L 314.65571 93.279628 
L 309.45571 95.879628 
z
" clip-path="url(#p11839a49cc)" style="fill: #6b7280; stroke: #6b7280; stroke-width: 1.5; stroke-linecap: round"/>
   </g>
   <g id="patch_6">
    <path d="M 336.78383 112.134402 
L 400.526809 112.134402 
Q 417.301277 112.134402 417.301277 96.846748 
L 417.301277 89.712509 
Q 417.301277 74.424855 400.526809 74.424855 
L 336.78383 74.424855 
Q 320.009362 74.424855 320.009362 89.712509 
L 320.009362 96.846748 
Q 320.009362 112.134402 336.78383 112.134402 
L 336.78383 112.134402 
z
" clip-path="url(#p11839a49cc)" style="fill: none; stroke: #6b7280; stroke-width: 1.6; stroke-linejoin: miter"/>
   </g>
   <g id="patch_7">
    <path d="M 125.828751 152.169849 
Q 146.395359 153.156359 165.175168 154.057161 
" clip-path="url(#p11839a49cc)" style="fill: none; stroke: #6b7280; stroke-width: 1.6; stroke-linecap: round"/>
    <path d="M 159.715751 150.992073 
L 165.175168 154.057161 
L 159.447447 156.585641 
z
" clip-path="url(#p11839a49cc)" style="fill: #6b7280; stroke: #6b7280; stroke-width: 1.6; stroke-linecap: round"/>
   </g>
   <g id="patch_8">
    <path d="M 177.985532 173.28502 
L 285.342128 173.28502 
Q 288.697021 173.28502 288.697021 170.227489 
L 288.697021 138.633003 
Q 288.697021 135.575472 285.342128 135.575472 
L 177.985532 135.575472 
Q 174.630638 135.575472 174.630638 138.633003 
L 174.630638 170.227489 
Q 174.630638 173.28502 177.985532 173.28502 
L 177.985532 173.28502 
z
" clip-path="url(#p11839a49cc)" style="fill: none; opacity: 0.9; stroke: #6b7280; stroke-width: 1.6; stroke-linejoin: miter"/>
   </g>
   <g id="patch_9">
    <path d="M 292.377767 154.430246 
Q 304.355264 154.430246 314.65571 154.430246 
" clip-path="url(#p11839a49cc)" style="fill: none; stroke: #6b7280; stroke-width: 1.5; stroke-linecap: round"/>
    <path d="M 309.45571 151.830246 
L 314.65571 154.430246 
L 309.45571 157.030246 
z
" clip-path="url(#p11839a49cc)" style="fill: #6b7280; stroke: #6b7280; stroke-width: 1.5; stroke-linecap: round"/>
   </g>
   <g id="patch_10">
    <path d="M 336.78383 173.28502 
L 400.526809 173.28502 
Q 417.301277 173.28502 417.301277 157.997366 
L 417.301277 150.863127 
Q 417.301277 135.575472 400.526809 135.575472 
L 336.78383 135.575472 
Q 320.009362 135.575472 320.009362 150.863127 
L 320.009362 157.997366 
Q 320.009362 173.28502 336.78383 173.28502 
L 336.78383 173.28502 
z
" clip-path="url(#p11839a49cc)" style="fill: none; stroke: #6b7280; stroke-width: 1.6; stroke-linejoin: miter"/>
   </g>
   <g id="patch_11">
    <path d="M 124.941233 155.028912 
Q 156.393078 175.390476 170.08721 208.336044 
" clip-path="url(#p11839a49cc)" style="fill: none; stroke: #6b7280; stroke-width: 1.6; stroke-linecap: round"/>
    <path d="M 170.523342 202.090262 
L 170.08721 208.336044 
L 165.352264 204.239669 
z
" clip-path="url(#p11839a49cc)" style="fill: #6b7280; stroke: #6b7280; stroke-width: 1.6; stroke-linecap: round"/>
   </g>
   <g id="patch_12">
    <path d="M 177.985532 234.435638 
L 285.342128 234.435638 
Q 288.697021 234.435638 288.697021 231.378107 
L 288.697021 199.783621 
Q 288.697021 196.72609 285.342128 196.72609 
L 177.985532 196.72609 
Q 174.630638 196.72609 174.630638 199.783621 
L 174.630638 231.378107 
Q 174.630638 234.435638 177.985532 234.435638 
L 177.985532 234.435638 
z
" clip-path="url(#p11839a49cc)" style="fill: none; opacity: 0.9; stroke: #6b7280; stroke-width: 1.6; stroke-linejoin: miter"/>
   </g>
   <g id="patch_13">
    <path d="M 292.377767 215.580864 
Q 304.355264 215.580864 314.65571 215.580864 
" clip-path="url(#p11839a49cc)" style="fill: none; stroke: #6b7280; stroke-width: 1.5; stroke-linecap: round"/>
    <path d="M 309.45571 212.980864 
L 314.65571 215.580864 
L 309.45571 218.180864 
z
" clip-path="url(#p11839a49cc)" style="fill: #6b7280; stroke: #6b7280; stroke-width: 1.5; stroke-linecap: round"/>
   </g>
   <g id="patch_14">
    <path d="M 336.78383 234.435638 
L 400.526809 234.435638 
Q 417.301277 234.435638 417.301277 219.147983 
L 417.301277 212.013745 
Q 417.301277 196.72609 400.526809 196.72609 
L 336.78383 196.72609 
Q 320.009362 196.72609 320.009362 212.013745 
L 320.009362 219.147983 
Q 320.009362 234.435638 336.78383 234.435638 
L 336.78383 234.435638 
z
" clip-path="url(#p11839a49cc)" style="fill: none; stroke: #6b7280; stroke-width: 1.6; stroke-linejoin: miter"/>
   </g>
   <g id="text_1">
    <!-- a separate model, and a separate pass, per appliance -->
    <g style="fill: #6b7280" transform="translate(117.250053 52.51255) scale(0.095 -0.095)">
     <defs>
      <path id="DejaVuSans-Oblique-44" d="M 3438 1997 
L 3047 0 
L 2472 0 
L 2578 531 
Q 2325 219 2001 64 
Q 1678 -91 1281 -91 
Q 834 -91 548 182 
Q 263 456 263 884 
Q 263 1497 752 1853 
Q 1241 2209 2100 2209 
L 2900 2209 
L 2931 2363 
Q 2938 2388 2941 2417 
Q 2944 2447 2944 2509 
Q 2944 2788 2717 2942 
Q 2491 3097 2081 3097 
Q 1800 3097 1504 3025 
Q 1209 2953 897 2809 
L 997 3341 
Q 1322 3463 1633 3523 
Q 1944 3584 2234 3584 
Q 2853 3584 3176 3315 
Q 3500 3047 3500 2534 
Q 3500 2431 3484 2292 
Q 3469 2153 3438 1997 
z
M 2816 1759 
L 2241 1759 
Q 1534 1759 1195 1570 
Q 856 1381 856 984 
Q 856 709 1029 553 
Q 1203 397 1509 397 
Q 1978 397 2328 733 
Q 2678 1069 2791 1631 
L 2816 1759 
z
" transform="scale(0.015625)"/>
      <path id="DejaVuSans-Oblique-3" transform="scale(0.015625)"/>
      <path id="DejaVuSans-Oblique-56" d="M 3200 3397 
L 3091 2853 
Q 2863 2978 2609 3040 
Q 2356 3103 2088 3103 
Q 1634 3103 1373 2948 
Q 1113 2794 1113 2528 
Q 1113 2219 1719 2053 
Q 1766 2041 1788 2034 
L 1972 1978 
Q 2547 1819 2739 1644 
Q 2931 1469 2931 1166 
Q 2931 609 2489 259 
Q 2047 -91 1331 -91 
Q 1053 -91 747 -37 
Q 441 16 72 128 
L 184 722 
Q 500 559 806 475 
Q 1113 391 1394 391 
Q 1816 391 2080 572 
Q 2344 753 2344 1031 
Q 2344 1331 1650 1516 
L 1591 1531 
L 1394 1581 
Q 956 1697 753 1886 
Q 550 2075 550 2369 
Q 550 2928 970 3256 
Q 1391 3584 2113 3584 
Q 2397 3584 2667 3537 
Q 2938 3491 3200 3397 
z
" transform="scale(0.015625)"/>
      <path id="DejaVuSans-Oblique-48" d="M 3078 2063 
Q 3088 2113 3092 2166 
Q 3097 2219 3097 2272 
Q 3097 2653 2873 2875 
Q 2650 3097 2266 3097 
Q 1838 3097 1509 2826 
Q 1181 2556 1013 2059 
L 3078 2063 
z
M 3578 1613 
L 903 1613 
Q 884 1494 878 1425 
Q 872 1356 872 1306 
Q 872 872 1139 634 
Q 1406 397 1894 397 
Q 2269 397 2603 481 
Q 2938 566 3225 728 
L 3116 159 
Q 2806 34 2476 -28 
Q 2147 -91 1806 -91 
Q 1078 -91 686 257 
Q 294 606 294 1247 
Q 294 1794 489 2264 
Q 684 2734 1063 3103 
Q 1306 3334 1642 3459 
Q 1978 3584 2356 3584 
Q 2950 3584 3301 3228 
Q 3653 2872 3653 2272 
Q 3653 2128 3634 1964 
Q 3616 1800 3578 1613 
z
" transform="scale(0.015625)"/>
      <path id="DejaVuSans-Oblique-53" d="M 3175 2156 
Q 3175 2616 2975 2859 
Q 2775 3103 2400 3103 
Q 2144 3103 1911 2972 
Q 1678 2841 1497 2591 
Q 1319 2344 1212 1994 
Q 1106 1644 1106 1300 
Q 1106 863 1306 627 
Q 1506 391 1875 391 
Q 2147 391 2380 519 
Q 2613 647 2778 891 
Q 2956 1147 3065 1494 
Q 3175 1841 3175 2156 
z
M 1394 2969 
Q 1625 3272 1939 3428 
Q 2253 3584 2638 3584 
Q 3175 3584 3472 3232 
Q 3769 2881 3769 2247 
Q 3769 1728 3584 1258 
Q 3400 788 3053 416 
Q 2822 169 2531 39 
Q 2241 -91 1919 -91 
Q 1547 -91 1294 64 
Q 1041 219 916 525 
L 556 -1331 
L -19 -1331 
L 922 3500 
L 1497 3500 
L 1394 2969 
z
" transform="scale(0.015625)"/>
      <path id="DejaVuSans-Oblique-55" d="M 2853 2969 
Q 2766 3016 2653 3041 
Q 2541 3066 2413 3066 
Q 1953 3066 1609 2717 
Q 1266 2369 1153 1784 
L 800 0 
L 225 0 
L 909 3500 
L 1484 3500 
L 1375 2956 
Q 1603 3259 1920 3421 
Q 2238 3584 2597 3584 
Q 2691 3584 2781 3573 
Q 2872 3563 2963 3538 
L 2853 2969 
z
" transform="scale(0.015625)"/>
      <path id="DejaVuSans-Oblique-57" d="M 2706 3500 
L 2619 3053 
L 1472 3053 
L 1100 1153 
Q 1081 1047 1072 975 
Q 1063 903 1063 863 
Q 1063 663 1183 572 
Q 1303 481 1569 481 
L 2150 481 
L 2053 0 
L 1503 0 
Q 991 0 739 200 
Q 488 400 488 806 
Q 488 878 497 964 
Q 506 1050 525 1153 
L 897 3053 
L 409 3053 
L 500 3500 
L 978 3500 
L 1172 4494 
L 1747 4494 
L 1556 3500 
L 2706 3500 
z
" transform="scale(0.015625)"/>
      <path id="DejaVuSans-Oblique-50" d="M 5747 2113 
L 5338 0 
L 4763 0 
L 5166 2094 
Q 5191 2228 5203 2325 
Q 5216 2422 5216 2491 
Q 5216 2772 5059 2928 
Q 4903 3084 4622 3084 
Q 4203 3084 3875 2770 
Q 3547 2456 3450 1953 
L 3066 0 
L 2491 0 
L 2900 2094 
Q 2925 2209 2937 2307 
Q 2950 2406 2950 2484 
Q 2950 2769 2794 2926 
Q 2638 3084 2363 3084 
Q 1938 3084 1609 2770 
Q 1281 2456 1184 1953 
L 800 0 
L 225 0 
L 909 3500 
L 1484 3500 
L 1375 2956 
Q 1609 3263 1923 3423 
Q 2238 3584 2597 3584 
Q 2978 3584 3223 3384 
Q 3469 3184 3519 2828 
Q 3781 3197 4126 3390 
Q 4472 3584 4856 3584 
Q 5306 3584 5551 3325 
Q 5797 3066 5797 2591 
Q 5797 2488 5784 2364 
Q 5772 2241 5747 2113 
z
" transform="scale(0.015625)"/>
      <path id="DejaVuSans-Oblique-52" d="M 1625 -91 
Q 1009 -91 651 289 
Q 294 669 294 1325 
Q 294 1706 417 2101 
Q 541 2497 738 2766 
Q 1047 3184 1428 3384 
Q 1809 3584 2291 3584 
Q 2888 3584 3255 3212 
Q 3622 2841 3622 2241 
Q 3622 1825 3500 1412 
Q 3378 1000 3181 728 
Q 2875 309 2494 109 
Q 2113 -91 1625 -91 
z
M 891 1344 
Q 891 869 1089 633 
Q 1288 397 1691 397 
Q 2269 397 2648 901 
Q 3028 1406 3028 2181 
Q 3028 2634 2825 2865 
Q 2622 3097 2228 3097 
Q 1903 3097 1650 2945 
Q 1397 2794 1197 2484 
Q 1050 2253 970 1956 
Q 891 1659 891 1344 
z
" transform="scale(0.015625)"/>
      <path id="DejaVuSans-Oblique-47" d="M 2675 525 
Q 2444 222 2128 65 
Q 1813 -91 1428 -91 
Q 903 -91 598 267 
Q 294 625 294 1247 
Q 294 1766 478 2236 
Q 663 2706 1013 3078 
Q 1244 3325 1534 3454 
Q 1825 3584 2144 3584 
Q 2481 3584 2739 3421 
Q 2997 3259 3138 2956 
L 3513 4863 
L 4091 4863 
L 3144 0 
L 2566 0 
L 2675 525 
z
M 891 1350 
Q 891 897 1095 644 
Q 1300 391 1663 391 
Q 1931 391 2161 520 
Q 2391 650 2566 903 
Q 2750 1166 2856 1509 
Q 2963 1853 2963 2188 
Q 2963 2622 2758 2865 
Q 2553 3109 2194 3109 
Q 1922 3109 1687 2981 
Q 1453 2853 1288 2613 
Q 1106 2353 998 2009 
Q 891 1666 891 1350 
z
" transform="scale(0.015625)"/>
      <path id="DejaVuSans-Oblique-4f" d="M 1172 4863 
L 1747 4863 
L 800 0 
L 225 0 
L 1172 4863 
z
" transform="scale(0.015625)"/>
      <path id="DejaVuSans-Oblique-f" d="M 575 794 
L 1234 794 
L 1131 256 
L 422 -744 
L 19 -744 
L 469 256 
L 575 794 
z
" transform="scale(0.015625)"/>
      <path id="DejaVuSans-Oblique-51" d="M 3566 2113 
L 3156 0 
L 2578 0 
L 2988 2091 
Q 3016 2238 3031 2350 
Q 3047 2463 3047 2528 
Q 3047 2791 2881 2937 
Q 2716 3084 2419 3084 
Q 1956 3084 1622 2776 
Q 1288 2469 1184 1941 
L 800 0 
L 225 0 
L 903 3500 
L 1478 3500 
L 1363 2950 
Q 1603 3253 1940 3418 
Q 2278 3584 2650 3584 
Q 3113 3584 3367 3334 
Q 3622 3084 3622 2631 
Q 3622 2519 3608 2391 
Q 3594 2263 3566 2113 
z
" transform="scale(0.015625)"/>
      <path id="DejaVuSans-Oblique-4c" d="M 1172 4863 
L 1747 4863 
L 1606 4134 
L 1031 4134 
L 1172 4863 
z
M 909 3500 
L 1484 3500 
L 800 0 
L 225 0 
L 909 3500 
z
" transform="scale(0.015625)"/>
      <path id="DejaVuSans-Oblique-46" d="M 3431 3366 
L 3316 2797 
Q 3109 2947 2876 3022 
Q 2644 3097 2394 3097 
Q 2119 3097 1870 3000 
Q 1622 2903 1453 2725 
Q 1184 2453 1037 2087 
Q 891 1722 891 1331 
Q 891 859 1127 628 
Q 1363 397 1844 397 
Q 2081 397 2348 469 
Q 2616 541 2906 684 
L 2797 116 
Q 2547 13 2283 -39 
Q 2019 -91 1741 -91 
Q 1044 -91 669 257 
Q 294 606 294 1253 
Q 294 1797 489 2255 
Q 684 2713 1069 3078 
Q 1331 3328 1684 3456 
Q 2038 3584 2456 3584 
Q 2700 3584 2940 3529 
Q 3181 3475 3431 3366 
z
" transform="scale(0.015625)"/>
     </defs>
     <use xlink:href="#DejaVuSans-Oblique-44"/>
     <use xlink:href="#DejaVuSans-Oblique-3" transform="translate(61.28125 0)"/>
     <use xlink:href="#DejaVuSans-Oblique-56" transform="translate(93.0625 0)"/>
     <use xlink:href="#DejaVuSans-Oblique-48" transform="translate(145.15625 0)"/>
     <use xlink:href="#DejaVuSans-Oblique-53" transform="translate(206.6875 0)"/>
     <use xlink:href="#DejaVuSans-Oblique-44" transform="translate(270.171875 0)"/>
     <use xlink:href="#DejaVuSans-Oblique-55" transform="translate(331.453125 0)"/>
     <use xlink:href="#DejaVuSans-Oblique-44" transform="translate(372.5625 0)"/>
     <use xlink:href="#DejaVuSans-Oblique-57" transform="translate(433.84375 0)"/>
     <use xlink:href="#DejaVuSans-Oblique-48" transform="translate(473.046875 0)"/>
     <use xlink:href="#DejaVuSans-Oblique-3" transform="translate(534.578125 0)"/>
     <use xlink:href="#DejaVuSans-Oblique-50" transform="translate(566.359375 0)"/>
     <use xlink:href="#DejaVuSans-Oblique-52" transform="translate(663.765625 0)"/>
     <use xlink:href="#DejaVuSans-Oblique-47" transform="translate(724.953125 0)"/>
     <use xlink:href="#DejaVuSans-Oblique-48" transform="translate(788.4375 0)"/>
     <use xlink:href="#DejaVuSans-Oblique-4f" transform="translate(849.96875 0)"/>
     <use xlink:href="#DejaVuSans-Oblique-f" transform="translate(877.75 0)"/>
     <use xlink:href="#DejaVuSans-Oblique-3" transform="translate(909.53125 0)"/>
     <use xlink:href="#DejaVuSans-Oblique-44" transform="translate(941.3125 0)"/>
     <use xlink:href="#DejaVuSans-Oblique-51" transform="translate(1002.59375 0)"/>
     <use xlink:href="#DejaVuSans-Oblique-47" transform="translate(1065.96875 0)"/>
     <use xlink:href="#DejaVuSans-Oblique-3" transform="translate(1129.453125 0)"/>
     <use xlink:href="#DejaVuSans-Oblique-44" transform="translate(1161.234375 0)"/>
     <use xlink:href="#DejaVuSans-Oblique-3" transform="translate(1222.515625 0)"/>
     <use xlink:href="#DejaVuSans-Oblique-56" transform="translate(1254.296875 0)"/>
     <use xlink:href="#DejaVuSans-Oblique-48" transform="translate(1306.390625 0)"/>
     <use xlink:href="#DejaVuSans-Oblique-53" transform="translate(1367.921875 0)"/>
     <use xlink:href="#DejaVuSans-Oblique-44" transform="translate(1431.40625 0)"/>
     <use xlink:href="#DejaVuSans-Oblique-55" transform="translate(1492.6875 0)"/>
     <use xlink:href="#DejaVuSans-Oblique-44" transform="translate(1533.796875 0)"/>
     <use xlink:href="#DejaVuSans-Oblique-57" transform="translate(1595.078125 0)"/>
     <use xlink:href="#DejaVuSans-Oblique-48" transform="translate(1634.28125 0)"/>
     <use xlink:href="#DejaVuSans-Oblique-3" transform="translate(1695.8125 0)"/>
     <use xlink:href="#DejaVuSans-Oblique-53" transform="translate(1727.59375 0)"/>
     <use xlink:href="#DejaVuSans-Oblique-44" transform="translate(1791.078125 0)"/>
     <use xlink:href="#DejaVuSans-Oblique-56" transform="translate(1852.359375 0)"/>
     <use xlink:href="#DejaVuSans-Oblique-56" transform="translate(1904.453125 0)"/>
     <use xlink:href="#DejaVuSans-Oblique-f" transform="translate(1956.546875 0)"/>
     <use xlink:href="#DejaVuSans-Oblique-3" transform="translate(1988.328125 0)"/>
     <use xlink:href="#DejaVuSans-Oblique-53" transform="translate(2020.109375 0)"/>
     <use xlink:href="#DejaVuSans-Oblique-48" transform="translate(2083.59375 0)"/>
     <use xlink:href="#DejaVuSans-Oblique-55" transform="translate(2145.125 0)"/>
     <use xlink:href="#DejaVuSans-Oblique-3" transform="translate(2186.234375 0)"/>
     <use xlink:href="#DejaVuSans-Oblique-44" transform="translate(2218.015625 0)"/>
     <use xlink:href="#DejaVuSans-Oblique-53" transform="translate(2279.296875 0)"/>
     <use xlink:href="#DejaVuSans-Oblique-53" transform="translate(2342.78125 0)"/>
     <use xlink:href="#DejaVuSans-Oblique-4f" transform="translate(2406.265625 0)"/>
     <use xlink:href="#DejaVuSans-Oblique-4c" transform="translate(2434.046875 0)"/>
     <use xlink:href="#DejaVuSans-Oblique-44" transform="translate(2461.828125 0)"/>
     <use xlink:href="#DejaVuSans-Oblique-51" transform="translate(2523.109375 0)"/>
     <use xlink:href="#DejaVuSans-Oblique-46" transform="translate(2586.484375 0)"/>
     <use xlink:href="#DejaVuSans-Oblique-48" transform="translate(2641.46875 0)"/>
    </g>
   </g>
   <g id="text_2">
    <!-- Aggregate -->
    <g style="fill: #ffffff" transform="translate(44.927076 149.057224) scale(0.083 -0.083)">
     <defs>
      <path id="DejaVuSans-Bold-24" d="M 3419 850 
L 1538 850 
L 1241 0 
L 31 0 
L 1759 4666 
L 3194 4666 
L 4922 0 
L 3713 0 
L 3419 850 
z
M 1838 1716 
L 3116 1716 
L 2478 3572 
L 1838 1716 
z
" transform="scale(0.015625)"/>
      <path id="DejaVuSans-Bold-4a" d="M 2919 594 
Q 2688 288 2409 144 
Q 2131 0 1766 0 
Q 1125 0 706 504 
Q 288 1009 288 1791 
Q 288 2575 706 3076 
Q 1125 3578 1766 3578 
Q 2131 3578 2409 3434 
Q 2688 3291 2919 2981 
L 2919 3500 
L 4044 3500 
L 4044 353 
Q 4044 -491 3511 -936 
Q 2978 -1381 1966 -1381 
Q 1638 -1381 1331 -1331 
Q 1025 -1281 716 -1178 
L 716 -306 
Q 1009 -475 1290 -558 
Q 1572 -641 1856 -641 
Q 2406 -641 2662 -400 
Q 2919 -159 2919 353 
L 2919 594 
z
M 2181 2772 
Q 1834 2772 1640 2515 
Q 1447 2259 1447 1791 
Q 1447 1309 1634 1061 
Q 1822 813 2181 813 
Q 2531 813 2725 1069 
Q 2919 1325 2919 1791 
Q 2919 2259 2725 2515 
Q 2531 2772 2181 2772 
z
" transform="scale(0.015625)"/>
      <path id="DejaVuSans-Bold-55" d="M 3138 2547 
Q 2991 2616 2845 2648 
Q 2700 2681 2553 2681 
Q 2122 2681 1889 2404 
Q 1656 2128 1656 1613 
L 1656 0 
L 538 0 
L 538 3500 
L 1656 3500 
L 1656 2925 
Q 1872 3269 2151 3426 
Q 2431 3584 2822 3584 
Q 2878 3584 2943 3579 
Q 3009 3575 3134 3559 
L 3138 2547 
z
" transform="scale(0.015625)"/>
      <path id="DejaVuSans-Bold-48" d="M 4031 1759 
L 4031 1441 
L 1416 1441 
Q 1456 1047 1700 850 
Q 1944 653 2381 653 
Q 2734 653 3104 758 
Q 3475 863 3866 1075 
L 3866 213 
Q 3469 63 3072 -14 
Q 2675 -91 2278 -91 
Q 1328 -91 801 392 
Q 275 875 275 1747 
Q 275 2603 792 3093 
Q 1309 3584 2216 3584 
Q 3041 3584 3536 3087 
Q 4031 2591 4031 1759 
z
M 2881 2131 
Q 2881 2450 2695 2645 
Q 2509 2841 2209 2841 
Q 1884 2841 1681 2658 
Q 1478 2475 1428 2131 
L 2881 2131 
z
" transform="scale(0.015625)"/>
      <path id="DejaVuSans-Bold-44" d="M 2106 1575 
Q 1756 1575 1579 1456 
Q 1403 1338 1403 1106 
Q 1403 894 1545 773 
Q 1688 653 1941 653 
Q 2256 653 2472 879 
Q 2688 1106 2688 1447 
L 2688 1575 
L 2106 1575 
z
M 3816 1997 
L 3816 0 
L 2688 0 
L 2688 519 
Q 2463 200 2181 54 
Q 1900 -91 1497 -91 
Q 953 -91 614 226 
Q 275 544 275 1050 
Q 275 1666 698 1953 
Q 1122 2241 2028 2241 
L 2688 2241 
L 2688 2328 
Q 2688 2594 2478 2717 
Q 2269 2841 1825 2841 
Q 1466 2841 1156 2769 
Q 847 2697 581 2553 
L 581 3406 
Q 941 3494 1303 3539 
Q 1666 3584 2028 3584 
Q 2975 3584 3395 3211 
Q 3816 2838 3816 1997 
z
" transform="scale(0.015625)"/>
      <path id="DejaVuSans-Bold-57" d="M 1759 4494 
L 1759 3500 
L 2913 3500 
L 2913 2700 
L 1759 2700 
L 1759 1216 
Q 1759 972 1856 886 
Q 1953 800 2241 800 
L 2816 800 
L 2816 0 
L 1856 0 
Q 1194 0 917 276 
Q 641 553 641 1216 
L 641 2700 
L 84 2700 
L 84 3500 
L 641 3500 
L 641 4494 
L 1759 4494 
z
" transform="scale(0.015625)"/>
     </defs>
     <use xlink:href="#DejaVuSans-Bold-24"/>
     <use xlink:href="#DejaVuSans-Bold-4a" transform="translate(77.390625 0)"/>
     <use xlink:href="#DejaVuSans-Bold-4a" transform="translate(148.96875 0)"/>
     <use xlink:href="#DejaVuSans-Bold-55" transform="translate(220.546875 0)"/>
     <use xlink:href="#DejaVuSans-Bold-48" transform="translate(269.859375 0)"/>
     <use xlink:href="#DejaVuSans-Bold-4a" transform="translate(337.6875 0)"/>
     <use xlink:href="#DejaVuSans-Bold-44" transform="translate(409.265625 0)"/>
     <use xlink:href="#DejaVuSans-Bold-57" transform="translate(476.75 0)"/>
     <use xlink:href="#DejaVuSans-Bold-48" transform="translate(524.546875 0)"/>
    </g>
    <!-- signal -->
    <g style="fill: #ffffff" transform="translate(55.470021 159.019493) scale(0.083 -0.083)">
     <defs>
      <path id="DejaVuSans-Bold-56" d="M 3272 3391 
L 3272 2541 
Q 2913 2691 2578 2766 
Q 2244 2841 1947 2841 
Q 1628 2841 1473 2761 
Q 1319 2681 1319 2516 
Q 1319 2381 1436 2309 
Q 1553 2238 1856 2203 
L 2053 2175 
Q 2913 2066 3209 1816 
Q 3506 1566 3506 1031 
Q 3506 472 3093 190 
Q 2681 -91 1863 -91 
Q 1516 -91 1145 -36 
Q 775 19 384 128 
L 384 978 
Q 719 816 1070 734 
Q 1422 653 1784 653 
Q 2113 653 2278 743 
Q 2444 834 2444 1013 
Q 2444 1163 2330 1236 
Q 2216 1309 1875 1350 
L 1678 1375 
Q 931 1469 631 1722 
Q 331 1975 331 2491 
Q 331 3047 712 3315 
Q 1094 3584 1881 3584 
Q 2191 3584 2531 3537 
Q 2872 3491 3272 3391 
z
" transform="scale(0.015625)"/>
      <path id="DejaVuSans-Bold-4c" d="M 538 3500 
L 1656 3500 
L 1656 0 
L 538 0 
L 538 3500 
z
M 538 4863 
L 1656 4863 
L 1656 3950 
L 538 3950 
L 538 4863 
z
" transform="scale(0.015625)"/>
      <path id="DejaVuSans-Bold-51" d="M 4056 2131 
L 4056 0 
L 2931 0 
L 2931 347 
L 2931 1631 
Q 2931 2084 2911 2256 
Q 2891 2428 2841 2509 
Q 2775 2619 2662 2680 
Q 2550 2741 2406 2741 
Q 2056 2741 1856 2470 
Q 1656 2200 1656 1722 
L 1656 0 
L 538 0 
L 538 3500 
L 1656 3500 
L 1656 2988 
Q 1909 3294 2193 3439 
Q 2478 3584 2822 3584 
Q 3428 3584 3742 3212 
Q 4056 2841 4056 2131 
z
" transform="scale(0.015625)"/>
      <path id="DejaVuSans-Bold-4f" d="M 538 4863 
L 1656 4863 
L 1656 0 
L 538 0 
L 538 4863 
z
" transform="scale(0.015625)"/>
     </defs>
     <use xlink:href="#DejaVuSans-Bold-56"/>
     <use xlink:href="#DejaVuSans-Bold-4c" transform="translate(59.515625 0)"/>
     <use xlink:href="#DejaVuSans-Bold-4a" transform="translate(93.796875 0)"/>
     <use xlink:href="#DejaVuSans-Bold-51" transform="translate(165.375 0)"/>
     <use xlink:href="#DejaVuSans-Bold-44" transform="translate(236.5625 0)"/>
     <use xlink:href="#DejaVuSans-Bold-4f" transform="translate(304.046875 0)"/>
    </g>
   </g>
   <g id="text_3">
    <!-- Fridge model -->
    <g style="fill: #6b7280" transform="translate(201.04072 95.436007) scale(0.083 -0.083)">
     <defs>
      <path id="DejaVuSans-Bold-29" d="M 588 4666 
L 3834 4666 
L 3834 3756 
L 1791 3756 
L 1791 2888 
L 3713 2888 
L 3713 1978 
L 1791 1978 
L 1791 0 
L 588 0 
L 588 4666 
z
" transform="scale(0.015625)"/>
      <path id="DejaVuSans-Bold-47" d="M 2919 2988 
L 2919 4863 
L 4044 4863 
L 4044 0 
L 2919 0 
L 2919 506 
Q 2688 197 2409 53 
Q 2131 -91 1766 -91 
Q 1119 -91 703 423 
Q 288 938 288 1747 
Q 288 2556 703 3070 
Q 1119 3584 1766 3584 
Q 2128 3584 2408 3439 
Q 2688 3294 2919 2988 
z
M 2181 722 
Q 2541 722 2730 984 
Q 2919 1247 2919 1747 
Q 2919 2247 2730 2509 
Q 2541 2772 2181 2772 
Q 1825 2772 1636 2509 
Q 1447 2247 1447 1747 
Q 1447 1247 1636 984 
Q 1825 722 2181 722 
z
" transform="scale(0.015625)"/>
      <path id="DejaVuSans-Bold-3" transform="scale(0.015625)"/>
      <path id="DejaVuSans-Bold-50" d="M 3781 2919 
Q 3994 3244 4286 3414 
Q 4578 3584 4928 3584 
Q 5531 3584 5847 3212 
Q 6163 2841 6163 2131 
L 6163 0 
L 5038 0 
L 5038 1825 
Q 5041 1866 5042 1909 
Q 5044 1953 5044 2034 
Q 5044 2406 4934 2573 
Q 4825 2741 4581 2741 
Q 4263 2741 4089 2478 
Q 3916 2216 3909 1719 
L 3909 0 
L 2784 0 
L 2784 1825 
Q 2784 2406 2684 2573 
Q 2584 2741 2328 2741 
Q 2006 2741 1831 2477 
Q 1656 2213 1656 1722 
L 1656 0 
L 531 0 
L 531 3500 
L 1656 3500 
L 1656 2988 
Q 1863 3284 2130 3434 
Q 2397 3584 2719 3584 
Q 3081 3584 3359 3409 
Q 3638 3234 3781 2919 
z
" transform="scale(0.015625)"/>
      <path id="DejaVuSans-Bold-52" d="M 2203 2784 
Q 1831 2784 1636 2517 
Q 1441 2250 1441 1747 
Q 1441 1244 1636 976 
Q 1831 709 2203 709 
Q 2569 709 2762 976 
Q 2956 1244 2956 1747 
Q 2956 2250 2762 2517 
Q 2569 2784 2203 2784 
z
M 2203 3584 
Q 3106 3584 3614 3096 
Q 4122 2609 4122 1747 
Q 4122 884 3614 396 
Q 3106 -91 2203 -91 
Q 1297 -91 786 396 
Q 275 884 275 1747 
Q 275 2609 786 3096 
Q 1297 3584 2203 3584 
z
" transform="scale(0.015625)"/>
     </defs>
     <use xlink:href="#DejaVuSans-Bold-29"/>
     <use xlink:href="#DejaVuSans-Bold-55" transform="translate(61.921875 0)"/>
     <use xlink:href="#DejaVuSans-Bold-4c" transform="translate(111.234375 0)"/>
     <use xlink:href="#DejaVuSans-Bold-47" transform="translate(145.515625 0)"/>
     <use xlink:href="#DejaVuSans-Bold-4a" transform="translate(217.09375 0)"/>
     <use xlink:href="#DejaVuSans-Bold-48" transform="translate(288.671875 0)"/>
     <use xlink:href="#DejaVuSans-Bold-3" transform="translate(356.5 0)"/>
     <use xlink:href="#DejaVuSans-Bold-50" transform="translate(391.3125 0)"/>
     <use xlink:href="#DejaVuSans-Bold-52" transform="translate(495.515625 0)"/>
     <use xlink:href="#DejaVuSans-Bold-47" transform="translate(564.21875 0)"/>
     <use xlink:href="#DejaVuSans-Bold-48" transform="translate(635.796875 0)"/>
     <use xlink:href="#DejaVuSans-Bold-4f" transform="translate(703.625 0)"/>
    </g>
   </g>
   <g id="text_4">
    <!-- Fridge: ON -->
    <g style="fill: #1e293b" transform="translate(346.273757 95.487968) scale(0.085 -0.085)">
     <defs>
      <path id="DejaVuSans-29" d="M 628 4666 
L 3309 4666 
L 3309 4134 
L 1259 4134 
L 1259 2759 
L 3109 2759 
L 3109 2228 
L 1259 2228 
L 1259 0 
L 628 0 
L 628 4666 
z
" transform="scale(0.015625)"/>
      <path id="DejaVuSans-55" d="M 2631 2963 
Q 2534 3019 2420 3045 
Q 2306 3072 2169 3072 
Q 1681 3072 1420 2755 
Q 1159 2438 1159 1844 
L 1159 0 
L 581 0 
L 581 3500 
L 1159 3500 
L 1159 2956 
Q 1341 3275 1631 3429 
Q 1922 3584 2338 3584 
Q 2397 3584 2469 3576 
Q 2541 3569 2628 3553 
L 2631 2963 
z
" transform="scale(0.015625)"/>
      <path id="DejaVuSans-4c" d="M 603 3500 
L 1178 3500 
L 1178 0 
L 603 0 
L 603 3500 
z
M 603 4863 
L 1178 4863 
L 1178 4134 
L 603 4134 
L 603 4863 
z
" transform="scale(0.015625)"/>
      <path id="DejaVuSans-47" d="M 2906 2969 
L 2906 4863 
L 3481 4863 
L 3481 0 
L 2906 0 
L 2906 525 
Q 2725 213 2448 61 
Q 2172 -91 1784 -91 
Q 1150 -91 751 415 
Q 353 922 353 1747 
Q 353 2572 751 3078 
Q 1150 3584 1784 3584 
Q 2172 3584 2448 3432 
Q 2725 3281 2906 2969 
z
M 947 1747 
Q 947 1113 1208 752 
Q 1469 391 1925 391 
Q 2381 391 2643 752 
Q 2906 1113 2906 1747 
Q 2906 2381 2643 2742 
Q 2381 3103 1925 3103 
Q 1469 3103 1208 2742 
Q 947 2381 947 1747 
z
" transform="scale(0.015625)"/>
      <path id="DejaVuSans-4a" d="M 2906 1791 
Q 2906 2416 2648 2759 
Q 2391 3103 1925 3103 
Q 1463 3103 1205 2759 
Q 947 2416 947 1791 
Q 947 1169 1205 825 
Q 1463 481 1925 481 
Q 2391 481 2648 825 
Q 2906 1169 2906 1791 
z
M 3481 434 
Q 3481 -459 3084 -895 
Q 2688 -1331 1869 -1331 
Q 1566 -1331 1297 -1286 
Q 1028 -1241 775 -1147 
L 775 -588 
Q 1028 -725 1275 -790 
Q 1522 -856 1778 -856 
Q 2344 -856 2625 -561 
Q 2906 -266 2906 331 
L 2906 616 
Q 2728 306 2450 153 
Q 2172 0 1784 0 
Q 1141 0 747 490 
Q 353 981 353 1791 
Q 353 2603 747 3093 
Q 1141 3584 1784 3584 
Q 2172 3584 2450 3431 
Q 2728 3278 2906 2969 
L 2906 3500 
L 3481 3500 
L 3481 434 
z
" transform="scale(0.015625)"/>
      <path id="DejaVuSans-48" d="M 3597 1894 
L 3597 1613 
L 953 1613 
Q 991 1019 1311 708 
Q 1631 397 2203 397 
Q 2534 397 2845 478 
Q 3156 559 3463 722 
L 3463 178 
Q 3153 47 2828 -22 
Q 2503 -91 2169 -91 
Q 1331 -91 842 396 
Q 353 884 353 1716 
Q 353 2575 817 3079 
Q 1281 3584 2069 3584 
Q 2775 3584 3186 3129 
Q 3597 2675 3597 1894 
z
M 3022 2063 
Q 3016 2534 2758 2815 
Q 2500 3097 2075 3097 
Q 1594 3097 1305 2825 
Q 1016 2553 972 2059 
L 3022 2063 
z
" transform="scale(0.015625)"/>
      <path id="DejaVuSans-1d" d="M 750 794 
L 1409 794 
L 1409 0 
L 750 0 
L 750 794 
z
M 750 3309 
L 1409 3309 
L 1409 2516 
L 750 2516 
L 750 3309 
z
" transform="scale(0.015625)"/>
      <path id="DejaVuSans-3" transform="scale(0.015625)"/>
      <path id="DejaVuSans-32" d="M 2522 4238 
Q 1834 4238 1429 3725 
Q 1025 3213 1025 2328 
Q 1025 1447 1429 934 
Q 1834 422 2522 422 
Q 3209 422 3611 934 
Q 4013 1447 4013 2328 
Q 4013 3213 3611 3725 
Q 3209 4238 2522 4238 
z
M 2522 4750 
Q 3503 4750 4090 4092 
Q 4678 3434 4678 2328 
Q 4678 1225 4090 567 
Q 3503 -91 2522 -91 
Q 1538 -91 948 565 
Q 359 1222 359 2328 
Q 359 3434 948 4092 
Q 1538 4750 2522 4750 
z
" transform="scale(0.015625)"/>
      <path id="DejaVuSans-31" d="M 628 4666 
L 1478 4666 
L 3547 763 
L 3547 4666 
L 4159 4666 
L 4159 0 
L 3309 0 
L 1241 3903 
L 1241 0 
L 628 0 
L 628 4666 
z
" transform="scale(0.015625)"/>
     </defs>
     <use xlink:href="#DejaVuSans-29"/>
     <use xlink:href="#DejaVuSans-55" transform="translate(50.234375 0)"/>
     <use xlink:href="#DejaVuSans-4c" transform="translate(91.34375 0)"/>
     <use xlink:href="#DejaVuSans-47" transform="translate(119.125 0)"/>
     <use xlink:href="#DejaVuSans-4a" transform="translate(182.609375 0)"/>
     <use xlink:href="#DejaVuSans-48" transform="translate(246.09375 0)"/>
     <use xlink:href="#DejaVuSans-1d" transform="translate(307.625 0)"/>
     <use xlink:href="#DejaVuSans-3" transform="translate(341.3125 0)"/>
     <use xlink:href="#DejaVuSans-32" transform="translate(373.09375 0)"/>
     <use xlink:href="#DejaVuSans-31" transform="translate(451.8125 0)"/>
    </g>
   </g>
   <g id="text_5">
    <!-- Kettle model -->
    <g style="fill: #6b7280" transform="translate(201.672947 156.586625) scale(0.083 -0.083)">
     <defs>
      <path id="DejaVuSans-Bold-2e" d="M 588 4666 
L 1791 4666 
L 1791 2963 
L 3525 4666 
L 4922 4666 
L 2675 2456 
L 5153 0 
L 3647 0 
L 1791 1838 
L 1791 0 
L 588 0 
L 588 4666 
z
" transform="scale(0.015625)"/>
     </defs>
     <use xlink:href="#DejaVuSans-Bold-2e"/>
     <use xlink:href="#DejaVuSans-Bold-48" transform="translate(75.734375 0)"/>
     <use xlink:href="#DejaVuSans-Bold-57" transform="translate(143.5625 0)"/>
     <use xlink:href="#DejaVuSans-Bold-57" transform="translate(191.359375 0)"/>
     <use xlink:href="#DejaVuSans-Bold-4f" transform="translate(239.15625 0)"/>
     <use xlink:href="#DejaVuSans-Bold-48" transform="translate(273.4375 0)"/>
     <use xlink:href="#DejaVuSans-Bold-3" transform="translate(341.265625 0)"/>
     <use xlink:href="#DejaVuSans-Bold-50" transform="translate(376.078125 0)"/>
     <use xlink:href="#DejaVuSans-Bold-52" transform="translate(480.28125 0)"/>
     <use xlink:href="#DejaVuSans-Bold-47" transform="translate(548.984375 0)"/>
     <use xlink:href="#DejaVuSans-Bold-48" transform="translate(620.5625 0)"/>
     <use xlink:href="#DejaVuSans-Bold-4f" transform="translate(688.390625 0)"/>
    </g>
   </g>
   <g id="text_6">
    <!-- Kettle: OFF -->
    <g style="fill: #1e293b" transform="translate(345.320163 156.638586) scale(0.085 -0.085)">
     <defs>
      <path id="DejaVuSans-2e" d="M 628 4666 
L 1259 4666 
L 1259 2694 
L 3353 4666 
L 4166 4666 
L 1850 2491 
L 4331 0 
L 3500 0 
L 1259 2247 
L 1259 0 
L 628 0 
L 628 4666 
z
" transform="scale(0.015625)"/>
      <path id="DejaVuSans-57" d="M 1172 4494 
L 1172 3500 
L 2356 3500 
L 2356 3053 
L 1172 3053 
L 1172 1153 
Q 1172 725 1289 603 
Q 1406 481 1766 481 
L 2356 481 
L 2356 0 
L 1766 0 
Q 1100 0 847 248 
Q 594 497 594 1153 
L 594 3053 
L 172 3053 
L 172 3500 
L 594 3500 
L 594 4494 
L 1172 4494 
z
" transform="scale(0.015625)"/>
      <path id="DejaVuSans-4f" d="M 603 4863 
L 1178 4863 
L 1178 0 
L 603 0 
L 603 4863 
z
" transform="scale(0.015625)"/>
     </defs>
     <use xlink:href="#DejaVuSans-2e"/>
     <use xlink:href="#DejaVuSans-48" transform="translate(60.59375 0)"/>
     <use xlink:href="#DejaVuSans-57" transform="translate(122.125 0)"/>
     <use xlink:href="#DejaVuSans-57" transform="translate(161.328125 0)"/>
     <use xlink:href="#DejaVuSans-4f" transform="translate(200.53125 0)"/>
     <use xlink:href="#DejaVuSans-48" transform="translate(228.3125 0)"/>
     <use xlink:href="#DejaVuSans-1d" transform="translate(289.84375 0)"/>
     <use xlink:href="#DejaVuSans-3" transform="translate(323.53125 0)"/>
     <use xlink:href="#DejaVuSans-32" transform="translate(355.3125 0)"/>
     <use xlink:href="#DejaVuSans-29" transform="translate(434.03125 0)"/>
     <use xlink:href="#DejaVuSans-29" transform="translate(491.546875 0)"/>
    </g>
   </g>
   <g id="text_7">
    <!-- Heater model -->
    <g style="fill: #6b7280" transform="translate(199.902064 217.737243) scale(0.083 -0.083)">
     <defs>
      <path id="DejaVuSans-Bold-2b" d="M 588 4666 
L 1791 4666 
L 1791 2888 
L 3566 2888 
L 3566 4666 
L 4769 4666 
L 4769 0 
L 3566 0 
L 3566 1978 
L 1791 1978 
L 1791 0 
L 588 0 
L 588 4666 
z
" transform="scale(0.015625)"/>
     </defs>
     <use xlink:href="#DejaVuSans-Bold-2b"/>
     <use xlink:href="#DejaVuSans-Bold-48" transform="translate(83.6875 0)"/>
     <use xlink:href="#DejaVuSans-Bold-44" transform="translate(151.515625 0)"/>
     <use xlink:href="#DejaVuSans-Bold-57" transform="translate(219 0)"/>
     <use xlink:href="#DejaVuSans-Bold-48" transform="translate(266.796875 0)"/>
     <use xlink:href="#DejaVuSans-Bold-55" transform="translate(334.625 0)"/>
     <use xlink:href="#DejaVuSans-Bold-3" transform="translate(383.9375 0)"/>
     <use xlink:href="#DejaVuSans-Bold-50" transform="translate(418.75 0)"/>
     <use xlink:href="#DejaVuSans-Bold-52" transform="translate(522.953125 0)"/>
     <use xlink:href="#DejaVuSans-Bold-47" transform="translate(591.65625 0)"/>
     <use xlink:href="#DejaVuSans-Bold-48" transform="translate(663.234375 0)"/>
     <use xlink:href="#DejaVuSans-Bold-4f" transform="translate(731.0625 0)"/>
    </g>
   </g>
   <g id="text_8">
    <!-- Heater: ON -->
    <g style="fill: #1e293b" transform="translate(344.978171 217.788872) scale(0.085 -0.085)">
     <defs>
      <path id="DejaVuSans-2b" d="M 628 4666 
L 1259 4666 
L 1259 2753 
L 3553 2753 
L 3553 4666 
L 4184 4666 
L 4184 0 
L 3553 0 
L 3553 2222 
L 1259 2222 
L 1259 0 
L 628 0 
L 628 4666 
z
" transform="scale(0.015625)"/>
      <path id="DejaVuSans-44" d="M 2194 1759 
Q 1497 1759 1228 1600 
Q 959 1441 959 1056 
Q 959 750 1161 570 
Q 1363 391 1709 391 
Q 2188 391 2477 730 
Q 2766 1069 2766 1631 
L 2766 1759 
L 2194 1759 
z
M 3341 1997 
L 3341 0 
L 2766 0 
L 2766 531 
Q 2569 213 2275 61 
Q 1981 -91 1556 -91 
Q 1019 -91 701 211 
Q 384 513 384 1019 
Q 384 1609 779 1909 
Q 1175 2209 1959 2209 
L 2766 2209 
L 2766 2266 
Q 2766 2663 2505 2880 
Q 2244 3097 1772 3097 
Q 1472 3097 1187 3025 
Q 903 2953 641 2809 
L 641 3341 
Q 956 3463 1253 3523 
Q 1550 3584 1831 3584 
Q 2591 3584 2966 3190 
Q 3341 2797 3341 1997 
z
" transform="scale(0.015625)"/>
     </defs>
     <use xlink:href="#DejaVuSans-2b"/>
     <use xlink:href="#DejaVuSans-48" transform="translate(75.203125 0)"/>
     <use xlink:href="#DejaVuSans-44" transform="translate(136.734375 0)"/>
     <use xlink:href="#DejaVuSans-57" transform="translate(198.015625 0)"/>
     <use xlink:href="#DejaVuSans-48" transform="translate(237.21875 0)"/>
     <use xlink:href="#DejaVuSans-55" transform="translate(298.75 0)"/>
     <use xlink:href="#DejaVuSans-1d" transform="translate(338.109375 0)"/>
     <use xlink:href="#DejaVuSans-3" transform="translate(371.796875 0)"/>
     <use xlink:href="#DejaVuSans-32" transform="translate(403.578125 0)"/>
     <use xlink:href="#DejaVuSans-31" transform="translate(482.296875 0)"/>
    </g>
   </g>
   <g id="text_9">
    <!-- three -->
    <g style="fill: #6b7280" transform="translate(446.93617 156.628695) scale(0.085 -0.085)">
     <defs>
      <path id="DejaVuSans-Oblique-4b" d="M 3566 2113 
L 3156 0 
L 2578 0 
L 2988 2091 
Q 3016 2238 3031 2350 
Q 3047 2463 3047 2528 
Q 3047 2791 2881 2937 
Q 2716 3084 2419 3084 
Q 1956 3084 1617 2771 
Q 1278 2459 1178 1941 
L 800 0 
L 225 0 
L 1172 4863 
L 1747 4863 
L 1375 2950 
Q 1594 3244 1934 3414 
Q 2275 3584 2650 3584 
Q 3113 3584 3367 3334 
Q 3622 3084 3622 2631 
Q 3622 2519 3608 2391 
Q 3594 2263 3566 2113 
z
" transform="scale(0.015625)"/>
     </defs>
     <use xlink:href="#DejaVuSans-Oblique-57"/>
     <use xlink:href="#DejaVuSans-Oblique-4b" transform="translate(39.203125 0)"/>
     <use xlink:href="#DejaVuSans-Oblique-55" transform="translate(102.578125 0)"/>
     <use xlink:href="#DejaVuSans-Oblique-48" transform="translate(143.6875 0)"/>
     <use xlink:href="#DejaVuSans-Oblique-48" transform="translate(205.21875 0)"/>
    </g>
    <!-- separate -->
    <g style="fill: #6b7280" transform="translate(446.93617 166.830356) scale(0.085 -0.085)">
     <use xlink:href="#DejaVuSans-Oblique-56"/>
     <use xlink:href="#DejaVuSans-Oblique-48" transform="translate(52.09375 0)"/>
     <use xlink:href="#DejaVuSans-Oblique-53" transform="translate(113.625 0)"/>
     <use xlink:href="#DejaVuSans-Oblique-44" transform="translate(177.109375 0)"/>
     <use xlink:href="#DejaVuSans-Oblique-55" transform="translate(238.390625 0)"/>
     <use xlink:href="#DejaVuSans-Oblique-44" transform="translate(279.5 0)"/>
     <use xlink:href="#DejaVuSans-Oblique-57" transform="translate(340.78125 0)"/>
     <use xlink:href="#DejaVuSans-Oblique-48" transform="translate(379.984375 0)"/>
    </g>
    <!-- passes -->
    <g style="fill: #6b7280" transform="translate(446.93617 177.032016) scale(0.085 -0.085)">
     <use xlink:href="#DejaVuSans-Oblique-53"/>
     <use xlink:href="#DejaVuSans-Oblique-44" transform="translate(63.484375 0)"/>
     <use xlink:href="#DejaVuSans-Oblique-56" transform="translate(124.765625 0)"/>
     <use xlink:href="#DejaVuSans-Oblique-56" transform="translate(176.859375 0)"/>
     <use xlink:href="#DejaVuSans-Oblique-48" transform="translate(228.953125 0)"/>
     <use xlink:href="#DejaVuSans-Oblique-56" transform="translate(290.484375 0)"/>
    </g>
   </g>
   <g id="text_10">
    <!-- SINGLE-APPLIANCE -->
    <g style="fill: #1e293b" transform="translate(203.646797 20.676953) scale(0.13 -0.13)">
     <defs>
      <path id="DejaVuSans-Bold-36" d="M 3834 4519 
L 3834 3531 
Q 3450 3703 3084 3790 
Q 2719 3878 2394 3878 
Q 1963 3878 1756 3759 
Q 1550 3641 1550 3391 
Q 1550 3203 1689 3098 
Q 1828 2994 2194 2919 
L 2706 2816 
Q 3484 2659 3812 2340 
Q 4141 2022 4141 1434 
Q 4141 663 3683 286 
Q 3225 -91 2284 -91 
Q 1841 -91 1394 -6 
Q 947 78 500 244 
L 500 1259 
Q 947 1022 1364 901 
Q 1781 781 2169 781 
Q 2563 781 2772 912 
Q 2981 1044 2981 1288 
Q 2981 1506 2839 1625 
Q 2697 1744 2272 1838 
L 1806 1941 
Q 1106 2091 782 2419 
Q 459 2747 459 3303 
Q 459 4000 909 4375 
Q 1359 4750 2203 4750 
Q 2588 4750 2994 4692 
Q 3400 4634 3834 4519 
z
" transform="scale(0.015625)"/>
      <path id="DejaVuSans-Bold-2c" d="M 588 4666 
L 1791 4666 
L 1791 0 
L 588 0 
L 588 4666 
z
" transform="scale(0.015625)"/>
      <path id="DejaVuSans-Bold-31" d="M 588 4666 
L 1931 4666 
L 3628 1466 
L 3628 4666 
L 4769 4666 
L 4769 0 
L 3425 0 
L 1728 3200 
L 1728 0 
L 588 0 
L 588 4666 
z
" transform="scale(0.015625)"/>
      <path id="DejaVuSans-Bold-2a" d="M 4781 347 
Q 4331 128 3847 18 
Q 3363 -91 2847 -91 
Q 1681 -91 1000 561 
Q 319 1213 319 2328 
Q 319 3456 1012 4103 
Q 1706 4750 2913 4750 
Q 3378 4750 3804 4662 
Q 4231 4575 4609 4403 
L 4609 3438 
Q 4219 3659 3833 3768 
Q 3447 3878 3059 3878 
Q 2341 3878 1952 3476 
Q 1563 3075 1563 2328 
Q 1563 1588 1938 1184 
Q 2313 781 3003 781 
Q 3191 781 3352 804 
Q 3513 828 3641 878 
L 3641 1784 
L 2906 1784 
L 2906 2591 
L 4781 2591 
L 4781 347 
z
" transform="scale(0.015625)"/>
      <path id="DejaVuSans-Bold-2f" d="M 588 4666 
L 1791 4666 
L 1791 909 
L 3903 909 
L 3903 0 
L 588 0 
L 588 4666 
z
" transform="scale(0.015625)"/>
      <path id="DejaVuSans-Bold-28" d="M 588 4666 
L 3834 4666 
L 3834 3756 
L 1791 3756 
L 1791 2888 
L 3713 2888 
L 3713 1978 
L 1791 1978 
L 1791 909 
L 3903 909 
L 3903 0 
L 588 0 
L 588 4666 
z
" transform="scale(0.015625)"/>
      <path id="DejaVuSans-Bold-10" d="M 347 2297 
L 2309 2297 
L 2309 1388 
L 347 1388 
L 347 2297 
z
" transform="scale(0.015625)"/>
      <path id="DejaVuSans-Bold-33" d="M 588 4666 
L 2584 4666 
Q 3475 4666 3951 4270 
Q 4428 3875 4428 3144 
Q 4428 2409 3951 2014 
Q 3475 1619 2584 1619 
L 1791 1619 
L 1791 0 
L 588 0 
L 588 4666 
z
M 1791 3794 
L 1791 2491 
L 2456 2491 
Q 2806 2491 2997 2661 
Q 3188 2831 3188 3144 
Q 3188 3456 2997 3625 
Q 2806 3794 2456 3794 
L 1791 3794 
z
" transform="scale(0.015625)"/>
      <path id="DejaVuSans-Bold-26" d="M 4288 256 
Q 3956 84 3597 -3 
Q 3238 -91 2847 -91 
Q 1681 -91 1000 561 
Q 319 1213 319 2328 
Q 319 3447 1000 4098 
Q 1681 4750 2847 4750 
Q 3238 4750 3597 4662 
Q 3956 4575 4288 4403 
L 4288 3438 
Q 3953 3666 3628 3772 
Q 3303 3878 2944 3878 
Q 2300 3878 1931 3465 
Q 1563 3053 1563 2328 
Q 1563 1606 1931 1193 
Q 2300 781 2944 781 
Q 3303 781 3628 887 
Q 3953 994 4288 1222 
L 4288 256 
z
" transform="scale(0.015625)"/>
     </defs>
     <use xlink:href="#DejaVuSans-Bold-36"/>
     <use xlink:href="#DejaVuSans-Bold-2c" transform="translate(72.015625 0)"/>
     <use xlink:href="#DejaVuSans-Bold-31" transform="translate(109.21875 0)"/>
     <use xlink:href="#DejaVuSans-Bold-2a" transform="translate(192.90625 0)"/>
     <use xlink:href="#DejaVuSans-Bold-2f" transform="translate(274.984375 0)"/>
     <use xlink:href="#DejaVuSans-Bold-28" transform="translate(338.703125 0)"/>
     <use xlink:href="#DejaVuSans-Bold-10" transform="translate(407.015625 0)"/>
     <use xlink:href="#DejaVuSans-Bold-24" transform="translate(448.515625 0)"/>
     <use xlink:href="#DejaVuSans-Bold-33" transform="translate(525.90625 0)"/>
     <use xlink:href="#DejaVuSans-Bold-33" transform="translate(599.203125 0)"/>
     <use xlink:href="#DejaVuSans-Bold-2f" transform="translate(672.5 0)"/>
     <use xlink:href="#DejaVuSans-Bold-2c" transform="translate(736.21875 0)"/>
     <use xlink:href="#DejaVuSans-Bold-24" transform="translate(773.421875 0)"/>
     <use xlink:href="#DejaVuSans-Bold-31" transform="translate(850.8125 0)"/>
     <use xlink:href="#DejaVuSans-Bold-26" transform="translate(934.5 0)"/>
     <use xlink:href="#DejaVuSans-Bold-28" transform="translate(1007.890625 0)"/>
    </g>
   </g>
  </g>
  <g id="axes_2">
   <g id="patch_15">
    <path d="M 24.219574 429.632962 
L 114.801702 429.632962 
Q 118.156596 429.632962 118.156596 426.575432 
L 118.156596 384.789176 
Q 118.156596 381.731645 114.801702 381.731645 
L 24.219574 381.731645 
Q 20.864681 381.731645 20.864681 384.789176 
L 20.864681 426.575432 
Q 20.864681 429.632962 24.219574 429.632962 
z
" clip-path="url(#pf317f596af)" style="fill: #0369a1; stroke: #0369a1; stroke-width: 1.6; stroke-linejoin: miter"/>
   </g>
   <g id="patch_16">
    <path d="M 121.83444 405.682304 
Q 146.393843 405.682304 169.276194 405.682304 
" clip-path="url(#pf317f596af)" style="fill: none; stroke: #8b5cf6; stroke-width: 1.5; stroke-linecap: round"/>
    <path d="M 164.076194 403.082304 
L 169.276194 405.682304 
L 164.076194 408.282304 
z
" clip-path="url(#pf317f596af)" style="fill: #8b5cf6; stroke: #8b5cf6; stroke-width: 1.5; stroke-linecap: round"/>
   </g>
   <g id="patch_17">
    <path d="M 177.985532 429.632962 
L 302.116596 429.632962 
Q 305.471489 429.632962 305.471489 426.575432 
L 305.471489 384.789176 
Q 305.471489 381.731645 302.116596 381.731645 
L 177.985532 381.731645 
Q 174.630638 381.731645 174.630638 384.789176 
L 174.630638 426.575432 
Q 174.630638 429.632962 177.985532 429.632962 
z
" clip-path="url(#pf317f596af)" style="fill: #8b5cf6; stroke: #8b5cf6; stroke-width: 1.6; stroke-linejoin: miter"/>
   </g>
   <g id="patch_18">
    <path d="M 311.999307 402.149277 
Q 337.131705 382.829044 346.733488 354.500181 
" clip-path="url(#pf317f596af)" style="fill: none; stroke: #8b5cf6; stroke-width: 1.6; stroke-linecap: round"/>
    <path d="M 342.284054 358.905012 
L 346.733488 354.500181 
L 347.587693 360.702626 
z
" clip-path="url(#pf317f596af)" style="fill: #8b5cf6; stroke: #8b5cf6; stroke-width: 1.6; stroke-linecap: round"/>
   </g>
   <g id="patch_19">
    <path d="M 367.537021 365.934402 
L 431.28 365.934402 
Q 448.054468 365.934402 448.054468 350.646748 
L 448.054468 343.512509 
Q 448.054468 328.224855 431.28 328.224855 
L 367.537021 328.224855 
Q 350.762553 328.224855 350.762553 343.512509 
L 350.762553 350.646748 
Q 350.762553 365.934402 367.537021 365.934402 
L 367.537021 365.934402 
z
" clip-path="url(#pf317f596af)" style="fill: none; stroke: #8b5cf6; stroke-width: 1.6; stroke-linejoin: miter"/>
   </g>
   <g id="patch_20">
    <path d="M 313.135795 406.046051 
Q 328.115406 406.956177 341.309456 407.757816 
" clip-path="url(#pf317f596af)" style="fill: none; stroke: #8b5cf6; stroke-width: 1.6; stroke-linecap: round"/>
    <path d="M 335.889571 404.623353 
L 341.309456 407.757816 
L 335.549955 410.213046 
z
" clip-path="url(#pf317f596af)" style="fill: #8b5cf6; stroke: #8b5cf6; stroke-width: 1.6; stroke-linecap: round"/>
   </g>
   <g id="patch_21">
    <path d="M 367.537021 427.08502 
L 431.28 427.08502 
Q 448.054468 427.08502 448.054468 411.797366 
L 448.054468 404.663127 
Q 448.054468 389.375472 431.28 389.375472 
L 367.537021 389.375472 
Q 350.762553 389.375472 350.762553 404.663127 
L 350.762553 411.797366 
Q 350.762553 427.08502 367.537021 427.08502 
L 367.537021 427.08502 
z
" clip-path="url(#pf317f596af)" style="fill: none; stroke: #8b5cf6; stroke-width: 1.6; stroke-linejoin: miter"/>
   </g>
   <g id="patch_22">
    <path d="M 311.863272 409.394335 
Q 337.999932 431.026827 347.036563 461.869361 
" clip-path="url(#pf317f596af)" style="fill: none; stroke: #8b5cf6; stroke-width: 1.6; stroke-linecap: round"/>
    <path d="M 348.149038 455.707997 
L 347.036563 461.869361 
L 342.774957 457.282562 
z
" clip-path="url(#pf317f596af)" style="fill: #8b5cf6; stroke: #8b5cf6; stroke-width: 1.6; stroke-linecap: round"/>
   </g>
   <g id="patch_23">
    <path d="M 367.537021 488.235638 
L 431.28 488.235638 
Q 448.054468 488.235638 448.054468 472.947983 
L 448.054468 465.813745 
Q 448.054468 450.52609 431.28 450.52609 
L 367.537021 450.52609 
Q 350.762553 450.52609 350.762553 465.813745 
L 350.762553 472.947983 
Q 350.762553 488.235638 367.537021 488.235638 
L 367.537021 488.235638 
z
" clip-path="url(#pf317f596af)" style="fill: none; stroke: #8b5cf6; stroke-width: 1.6; stroke-linejoin: miter"/>
   </g>
   <g id="text_11">
    <!-- one shared model, one pass, every appliance at once -->
    <g style="fill: #8b5cf6" transform="translate(118.232709 306.31255) scale(0.095 -0.095)">
     <defs>
      <path id="DejaVuSans-Oblique-59" d="M 459 3500 
L 1069 3500 
L 1581 525 
L 3256 3500 
L 3866 3500 
L 1875 0 
L 1100 0 
L 459 3500 
z
" transform="scale(0.015625)"/>
      <path id="DejaVuSans-Oblique-5c" d="M 1588 -325 
Q 1188 -997 936 -1164 
Q 684 -1331 294 -1331 
L -159 -1331 
L -63 -850 
L 269 -850 
Q 509 -850 678 -719 
Q 847 -588 1056 -206 
L 1234 128 
L 459 3500 
L 1069 3500 
L 1650 819 
L 3256 3500 
L 3859 3500 
L 1588 -325 
z
" transform="scale(0.015625)"/>
     </defs>
     <use xlink:href="#DejaVuSans-Oblique-52"/>
     <use xlink:href="#DejaVuSans-Oblique-51" transform="translate(61.1875 0)"/>
     <use xlink:href="#DejaVuSans-Oblique-48" transform="translate(124.5625 0)"/>
     <use xlink:href="#DejaVuSans-Oblique-3" transform="translate(186.09375 0)"/>
     <use xlink:href="#DejaVuSans-Oblique-56" transform="translate(217.875 0)"/>
     <use xlink:href="#DejaVuSans-Oblique-4b" transform="translate(269.96875 0)"/>
     <use xlink:href="#DejaVuSans-Oblique-44" transform="translate(333.34375 0)"/>
     <use xlink:href="#DejaVuSans-Oblique-55" transform="translate(394.625 0)"/>
     <use xlink:href="#DejaVuSans-Oblique-48" transform="translate(435.734375 0)"/>
     <use xlink:href="#DejaVuSans-Oblique-47" transform="translate(497.265625 0)"/>
     <use xlink:href="#DejaVuSans-Oblique-3" transform="translate(560.75 0)"/>
     <use xlink:href="#DejaVuSans-Oblique-50" transform="translate(592.53125 0)"/>
     <use xlink:href="#DejaVuSans-Oblique-52" transform="translate(689.9375 0)"/>
     <use xlink:href="#DejaVuSans-Oblique-47" transform="translate(751.125 0)"/>
     <use xlink:href="#DejaVuSans-Oblique-48" transform="translate(814.609375 0)"/>
     <use xlink:href="#DejaVuSans-Oblique-4f" transform="translate(876.140625 0)"/>
     <use xlink:href="#DejaVuSans-Oblique-f" transform="translate(903.921875 0)"/>
     <use xlink:href="#DejaVuSans-Oblique-3" transform="translate(935.703125 0)"/>
     <use xlink:href="#DejaVuSans-Oblique-52" transform="translate(967.484375 0)"/>
     <use xlink:href="#DejaVuSans-Oblique-51" transform="translate(1028.671875 0)"/>
     <use xlink:href="#DejaVuSans-Oblique-48" transform="translate(1092.046875 0)"/>
     <use xlink:href="#DejaVuSans-Oblique-3" transform="translate(1153.578125 0)"/>
     <use xlink:href="#DejaVuSans-Oblique-53" transform="translate(1185.359375 0)"/>
     <use xlink:href="#DejaVuSans-Oblique-44" transform="translate(1248.84375 0)"/>
     <use xlink:href="#DejaVuSans-Oblique-56" transform="translate(1310.125 0)"/>
     <use xlink:href="#DejaVuSans-Oblique-56" transform="translate(1362.21875 0)"/>
     <use xlink:href="#DejaVuSans-Oblique-f" transform="translate(1414.3125 0)"/>
     <use xlink:href="#DejaVuSans-Oblique-3" transform="translate(1446.09375 0)"/>
     <use xlink:href="#DejaVuSans-Oblique-48" transform="translate(1477.875 0)"/>
     <use xlink:href="#DejaVuSans-Oblique-59" transform="translate(1539.40625 0)"/>
     <use xlink:href="#DejaVuSans-Oblique-48" transform="translate(1598.59375 0)"/>
     <use xlink:href="#DejaVuSans-Oblique-55" transform="translate(1660.125 0)"/>
     <use xlink:href="#DejaVuSans-Oblique-5c" transform="translate(1701.234375 0)"/>
     <use xlink:href="#DejaVuSans-Oblique-3" transform="translate(1760.421875 0)"/>
     <use xlink:href="#DejaVuSans-Oblique-44" transform="translate(1792.203125 0)"/>
     <use xlink:href="#DejaVuSans-Oblique-53" transform="translate(1853.484375 0)"/>
     <use xlink:href="#DejaVuSans-Oblique-53" transform="translate(1916.96875 0)"/>
     <use xlink:href="#DejaVuSans-Oblique-4f" transform="translate(1980.453125 0)"/>
     <use xlink:href="#DejaVuSans-Oblique-4c" transform="translate(2008.234375 0)"/>
     <use xlink:href="#DejaVuSans-Oblique-44" transform="translate(2036.015625 0)"/>
     <use xlink:href="#DejaVuSans-Oblique-51" transform="translate(2097.296875 0)"/>
     <use xlink:href="#DejaVuSans-Oblique-46" transform="translate(2160.671875 0)"/>
     <use xlink:href="#DejaVuSans-Oblique-48" transform="translate(2215.65625 0)"/>
     <use xlink:href="#DejaVuSans-Oblique-3" transform="translate(2277.1875 0)"/>
     <use xlink:href="#DejaVuSans-Oblique-44" transform="translate(2308.96875 0)"/>
     <use xlink:href="#DejaVuSans-Oblique-57" transform="translate(2370.25 0)"/>
     <use xlink:href="#DejaVuSans-Oblique-3" transform="translate(2409.453125 0)"/>
     <use xlink:href="#DejaVuSans-Oblique-52" transform="translate(2441.234375 0)"/>
     <use xlink:href="#DejaVuSans-Oblique-51" transform="translate(2502.421875 0)"/>
     <use xlink:href="#DejaVuSans-Oblique-46" transform="translate(2565.796875 0)"/>
     <use xlink:href="#DejaVuSans-Oblique-48" transform="translate(2620.78125 0)"/>
    </g>
   </g>
   <g id="text_12">
    <!-- Aggregate -->
    <g style="fill: #ffffff" transform="translate(44.927076 402.857224) scale(0.083 -0.083)">
     <use xlink:href="#DejaVuSans-Bold-24"/>
     <use xlink:href="#DejaVuSans-Bold-4a" transform="translate(77.390625 0)"/>
     <use xlink:href="#DejaVuSans-Bold-4a" transform="translate(148.96875 0)"/>
     <use xlink:href="#DejaVuSans-Bold-55" transform="translate(220.546875 0)"/>
     <use xlink:href="#DejaVuSans-Bold-48" transform="translate(269.859375 0)"/>
     <use xlink:href="#DejaVuSans-Bold-4a" transform="translate(337.6875 0)"/>
     <use xlink:href="#DejaVuSans-Bold-44" transform="translate(409.265625 0)"/>
     <use xlink:href="#DejaVuSans-Bold-57" transform="translate(476.75 0)"/>
     <use xlink:href="#DejaVuSans-Bold-48" transform="translate(524.546875 0)"/>
    </g>
    <!-- signal -->
    <g style="fill: #ffffff" transform="translate(55.470021 412.819493) scale(0.083 -0.083)">
     <use xlink:href="#DejaVuSans-Bold-56"/>
     <use xlink:href="#DejaVuSans-Bold-4c" transform="translate(59.515625 0)"/>
     <use xlink:href="#DejaVuSans-Bold-4a" transform="translate(93.796875 0)"/>
     <use xlink:href="#DejaVuSans-Bold-51" transform="translate(165.375 0)"/>
     <use xlink:href="#DejaVuSans-Bold-44" transform="translate(236.5625 0)"/>
     <use xlink:href="#DejaVuSans-Bold-4f" transform="translate(304.046875 0)"/>
    </g>
   </g>
   <g id="text_13">
    <!-- Multi-label -->
    <g style="fill: #ffffff" transform="translate(214.984415 402.857548) scale(0.083 -0.083)">
     <defs>
      <path id="DejaVuSans-Bold-30" d="M 588 4666 
L 2119 4666 
L 3181 2169 
L 4250 4666 
L 5778 4666 
L 5778 0 
L 4641 0 
L 4641 3413 
L 3566 897 
L 2803 897 
L 1728 3413 
L 1728 0 
L 588 0 
L 588 4666 
z
" transform="scale(0.015625)"/>
      <path id="DejaVuSans-Bold-58" d="M 500 1363 
L 500 3500 
L 1625 3500 
L 1625 3150 
Q 1625 2866 1622 2436 
Q 1619 2006 1619 1863 
Q 1619 1441 1641 1255 
Q 1663 1069 1716 984 
Q 1784 875 1895 815 
Q 2006 756 2150 756 
Q 2500 756 2700 1025 
Q 2900 1294 2900 1772 
L 2900 3500 
L 4019 3500 
L 4019 0 
L 2900 0 
L 2900 506 
Q 2647 200 2364 54 
Q 2081 -91 1741 -91 
Q 1134 -91 817 281 
Q 500 653 500 1363 
z
" transform="scale(0.015625)"/>
      <path id="DejaVuSans-Bold-45" d="M 2400 722 
Q 2759 722 2948 984 
Q 3138 1247 3138 1747 
Q 3138 2247 2948 2509 
Q 2759 2772 2400 2772 
Q 2041 2772 1848 2508 
Q 1656 2244 1656 1747 
Q 1656 1250 1848 986 
Q 2041 722 2400 722 
z
M 1656 2988 
Q 1888 3294 2169 3439 
Q 2450 3584 2816 3584 
Q 3463 3584 3878 3070 
Q 4294 2556 4294 1747 
Q 4294 938 3878 423 
Q 3463 -91 2816 -91 
Q 2450 -91 2169 54 
Q 1888 200 1656 506 
L 1656 0 
L 538 0 
L 538 4863 
L 1656 4863 
L 1656 2988 
z
" transform="scale(0.015625)"/>
     </defs>
     <use xlink:href="#DejaVuSans-Bold-30"/>
     <use xlink:href="#DejaVuSans-Bold-58" transform="translate(99.515625 0)"/>
     <use xlink:href="#DejaVuSans-Bold-4f" transform="translate(170.703125 0)"/>
     <use xlink:href="#DejaVuSans-Bold-57" transform="translate(204.984375 0)"/>
     <use xlink:href="#DejaVuSans-Bold-4c" transform="translate(252.78125 0)"/>
     <use xlink:href="#DejaVuSans-Bold-10" transform="translate(287.0625 0)"/>
     <use xlink:href="#DejaVuSans-Bold-4f" transform="translate(328.5625 0)"/>
     <use xlink:href="#DejaVuSans-Bold-44" transform="translate(362.84375 0)"/>
     <use xlink:href="#DejaVuSans-Bold-45" transform="translate(430.328125 0)"/>
     <use xlink:href="#DejaVuSans-Bold-48" transform="translate(501.90625 0)"/>
     <use xlink:href="#DejaVuSans-Bold-4f" transform="translate(569.734375 0)"/>
    </g>
    <!-- model -->
    <g style="fill: #ffffff" transform="translate(225.667423 412.819817) scale(0.083 -0.083)">
     <use xlink:href="#DejaVuSans-Bold-50"/>
     <use xlink:href="#DejaVuSans-Bold-52" transform="translate(104.203125 0)"/>
     <use xlink:href="#DejaVuSans-Bold-47" transform="translate(172.90625 0)"/>
     <use xlink:href="#DejaVuSans-Bold-48" transform="translate(244.484375 0)"/>
     <use xlink:href="#DejaVuSans-Bold-4f" transform="translate(312.3125 0)"/>
    </g>
   </g>
   <g id="text_14">
    <!-- Fridge: ON -->
    <g style="fill: #1e293b" transform="translate(377.026948 349.287968) scale(0.085 -0.085)">
     <use xlink:href="#DejaVuSans-29"/>
     <use xlink:href="#DejaVuSans-55" transform="translate(50.234375 0)"/>
     <use xlink:href="#DejaVuSans-4c" transform="translate(91.34375 0)"/>
     <use xlink:href="#DejaVuSans-47" transform="translate(119.125 0)"/>
     <use xlink:href="#DejaVuSans-4a" transform="translate(182.609375 0)"/>
     <use xlink:href="#DejaVuSans-48" transform="translate(246.09375 0)"/>
     <use xlink:href="#DejaVuSans-1d" transform="translate(307.625 0)"/>
     <use xlink:href="#DejaVuSans-3" transform="translate(341.3125 0)"/>
     <use xlink:href="#DejaVuSans-32" transform="translate(373.09375 0)"/>
     <use xlink:href="#DejaVuSans-31" transform="translate(451.8125 0)"/>
    </g>
   </g>
   <g id="text_15">
    <!-- Kettle: OFF -->
    <g style="fill: #1e293b" transform="translate(376.073354 410.438586) scale(0.085 -0.085)">
     <use xlink:href="#DejaVuSans-2e"/>
     <use xlink:href="#DejaVuSans-48" transform="translate(60.59375 0)"/>
     <use xlink:href="#DejaVuSans-57" transform="translate(122.125 0)"/>
     <use xlink:href="#DejaVuSans-57" transform="translate(161.328125 0)"/>
     <use xlink:href="#DejaVuSans-4f" transform="translate(200.53125 0)"/>
     <use xlink:href="#DejaVuSans-48" transform="translate(228.3125 0)"/>
     <use xlink:href="#DejaVuSans-1d" transform="translate(289.84375 0)"/>
     <use xlink:href="#DejaVuSans-3" transform="translate(323.53125 0)"/>
     <use xlink:href="#DejaVuSans-32" transform="translate(355.3125 0)"/>
     <use xlink:href="#DejaVuSans-29" transform="translate(434.03125 0)"/>
     <use xlink:href="#DejaVuSans-29" transform="translate(491.546875 0)"/>
    </g>
   </g>
   <g id="text_16">
    <!-- Heater: ON -->
    <g style="fill: #1e293b" transform="translate(375.731362 471.588872) scale(0.085 -0.085)">
     <use xlink:href="#DejaVuSans-2b"/>
     <use xlink:href="#DejaVuSans-48" transform="translate(75.203125 0)"/>
     <use xlink:href="#DejaVuSans-44" transform="translate(136.734375 0)"/>
     <use xlink:href="#DejaVuSans-57" transform="translate(198.015625 0)"/>
     <use xlink:href="#DejaVuSans-48" transform="translate(237.21875 0)"/>
     <use xlink:href="#DejaVuSans-55" transform="translate(298.75 0)"/>
     <use xlink:href="#DejaVuSans-1d" transform="translate(338.109375 0)"/>
     <use xlink:href="#DejaVuSans-3" transform="translate(371.796875 0)"/>
     <use xlink:href="#DejaVuSans-32" transform="translate(403.578125 0)"/>
     <use xlink:href="#DejaVuSans-31" transform="translate(482.296875 0)"/>
    </g>
   </g>
   <g id="text_17">
    <!-- one -->
    <g style="fill: #8b5cf6" transform="translate(463.710638 415.529194) scale(0.085 -0.085)">
     <defs>
      <path id="DejaVuSans-BoldOblique-52" d="M 2400 2784 
Q 1966 2784 1684 2390 
Q 1403 1997 1403 1388 
Q 1403 1056 1554 882 
Q 1706 709 1997 709 
Q 2431 709 2712 1104 
Q 2994 1500 2994 2113 
Q 2994 2441 2842 2612 
Q 2691 2784 2400 2784 
z
M 2491 3584 
Q 3272 3584 3719 3187 
Q 4166 2791 4166 2106 
Q 4166 1709 4025 1336 
Q 3884 963 3616 653 
Q 3297 284 2862 96 
Q 2428 -91 1894 -91 
Q 1122 -91 676 306 
Q 231 703 231 1388 
Q 231 1781 375 2157 
Q 519 2534 788 2847 
Q 1100 3209 1533 3396 
Q 1966 3584 2491 3584 
z
" transform="scale(0.015625)"/>
      <path id="DejaVuSans-BoldOblique-51" d="M 4128 2131 
L 3713 0 
L 2591 0 
L 2944 1825 
Q 2981 2003 3001 2126 
Q 3022 2250 3022 2322 
Q 3022 2522 2911 2631 
Q 2800 2741 2597 2741 
Q 2250 2741 2001 2470 
Q 1753 2200 1656 1722 
L 1319 0 
L 197 0 
L 878 3500 
L 2003 3500 
L 1900 2988 
Q 2209 3291 2521 3437 
Q 2834 3584 3175 3584 
Q 3659 3584 3921 3331 
Q 4184 3078 4184 2619 
Q 4184 2519 4170 2397 
Q 4156 2275 4128 2131 
z
" transform="scale(0.015625)"/>
      <path id="DejaVuSans-BoldOblique-48" d="M 4025 1619 
L 3988 1441 
L 1369 1441 
Q 1369 1422 1366 1386 
Q 1363 1350 1363 1331 
Q 1363 991 1567 822 
Q 1772 653 2181 653 
Q 2534 653 2926 759 
Q 3319 866 3750 1075 
L 3578 206 
Q 3169 56 2764 -17 
Q 2359 -91 1941 -91 
Q 1122 -91 676 287 
Q 231 666 231 1356 
Q 231 1756 373 2132 
Q 516 2509 788 2822 
Q 1109 3197 1557 3390 
Q 2006 3584 2553 3584 
Q 3263 3584 3680 3206 
Q 4097 2828 4097 2188 
Q 4097 2063 4080 1923 
Q 4063 1784 4025 1619 
z
M 2969 2131 
Q 2978 2172 2983 2214 
Q 2988 2256 2988 2297 
Q 2988 2547 2838 2694 
Q 2688 2841 2431 2841 
Q 2103 2841 1873 2661 
Q 1644 2481 1522 2131 
L 2969 2131 
z
" transform="scale(0.015625)"/>
     </defs>
     <use xlink:href="#DejaVuSans-BoldOblique-52"/>
     <use xlink:href="#DejaVuSans-BoldOblique-51" transform="translate(68.703125 0)"/>
     <use xlink:href="#DejaVuSans-BoldOblique-48" transform="translate(139.890625 0)"/>
    </g>
    <!-- pass -->
    <g style="fill: #8b5cf6" transform="translate(463.710638 425.730854) scale(0.085 -0.085)">
     <defs>
      <path id="DejaVuSans-BoldOblique-53" d="M 1422 506 
L 1063 -1331 
L -63 -1331 
L 878 3500 
L 2003 3500 
L 1900 2988 
Q 2156 3294 2437 3439 
Q 2719 3584 3053 3584 
Q 3644 3584 3987 3209 
Q 4331 2834 4331 2188 
Q 4331 1784 4211 1403 
Q 4091 1022 3866 709 
Q 3581 316 3223 112 
Q 2866 -91 2456 -91 
Q 2097 -91 1845 54 
Q 1594 200 1422 506 
z
M 2597 2772 
Q 2166 2772 1892 2373 
Q 1619 1975 1619 1338 
Q 1619 1050 1773 886 
Q 1928 722 2203 722 
Q 2625 722 2900 1114 
Q 3175 1506 3175 2119 
Q 3175 2438 3026 2605 
Q 2878 2772 2597 2772 
z
" transform="scale(0.015625)"/>
      <path id="DejaVuSans-BoldOblique-44" d="M 2106 1575 
Q 1688 1575 1473 1445 
Q 1259 1316 1259 1063 
Q 1259 872 1386 762 
Q 1513 653 1734 653 
Q 2078 653 2309 861 
Q 2541 1069 2619 1447 
L 2644 1575 
L 2106 1575 
z
M 3853 1997 
L 3463 0 
L 2344 0 
L 2438 519 
Q 2163 206 1856 57 
Q 1550 -91 1191 -91 
Q 694 -91 401 167 
Q 109 425 109 863 
Q 109 1531 626 1886 
Q 1144 2241 2119 2241 
L 2778 2241 
L 2791 2328 
Q 2800 2372 2801 2390 
Q 2803 2409 2803 2425 
Q 2803 2631 2608 2736 
Q 2413 2841 2028 2841 
Q 1681 2841 1356 2769 
Q 1031 2697 728 2553 
L 897 3406 
Q 1247 3494 1614 3539 
Q 1981 3584 2375 3584 
Q 3153 3584 3531 3317 
Q 3909 3050 3909 2503 
Q 3909 2397 3895 2270 
Q 3881 2144 3853 1997 
z
" transform="scale(0.015625)"/>
      <path id="DejaVuSans-BoldOblique-56" d="M 3584 3391 
L 3419 2522 
Q 3091 2678 2766 2759 
Q 2441 2841 2150 2841 
Q 1819 2841 1639 2755 
Q 1459 2669 1459 2509 
Q 1459 2416 1559 2359 
Q 1659 2303 1953 2241 
L 2156 2203 
Q 2834 2059 3106 1832 
Q 3378 1606 3378 1203 
Q 3378 594 2900 251 
Q 2422 -91 1563 -91 
Q 1203 -91 828 -34 
Q 453 22 63 134 
L 231 1013 
Q 534 834 879 743 
Q 1225 653 1588 653 
Q 1941 653 2119 737 
Q 2297 822 2297 984 
Q 2297 1097 2197 1159 
Q 2097 1222 1784 1288 
L 1581 1325 
Q 981 1450 725 1694 
Q 469 1938 469 2369 
Q 469 2953 911 3268 
Q 1353 3584 2175 3584 
Q 2534 3584 2882 3536 
Q 3231 3488 3584 3391 
z
" transform="scale(0.015625)"/>
     </defs>
     <use xlink:href="#DejaVuSans-BoldOblique-53"/>
     <use xlink:href="#DejaVuSans-BoldOblique-44" transform="translate(71.578125 0)"/>
     <use xlink:href="#DejaVuSans-BoldOblique-56" transform="translate(139.0625 0)"/>
     <use xlink:href="#DejaVuSans-BoldOblique-56" transform="translate(198.578125 0)"/>
    </g>
   </g>
   <g id="text_18">
    <!-- MULTI-APPLIANCE (MULTI-LABEL) -->
    <g style="fill: #8b5cf6" transform="translate(153.162109 274.476953) scale(0.13 -0.13)">
     <defs>
      <path id="DejaVuSans-Bold-38" d="M 588 4666 
L 1791 4666 
L 1791 1869 
Q 1791 1291 1980 1042 
Q 2169 794 2597 794 
Q 3028 794 3217 1042 
Q 3406 1291 3406 1869 
L 3406 4666 
L 4609 4666 
L 4609 1869 
Q 4609 878 4112 393 
Q 3616 -91 2597 -91 
Q 1581 -91 1084 393 
Q 588 878 588 1869 
L 588 4666 
z
" transform="scale(0.015625)"/>
      <path id="DejaVuSans-Bold-37" d="M 31 4666 
L 4331 4666 
L 4331 3756 
L 2784 3756 
L 2784 0 
L 1581 0 
L 1581 3756 
L 31 3756 
L 31 4666 
z
" transform="scale(0.015625)"/>
      <path id="DejaVuSans-Bold-b" d="M 2413 -844 
L 1484 -844 
Q 1006 -72 778 623 
Q 550 1319 550 2003 
Q 550 2688 779 3389 
Q 1009 4091 1484 4856 
L 2413 4856 
Q 2013 4116 1813 3408 
Q 1613 2700 1613 2009 
Q 1613 1319 1811 609 
Q 2009 -100 2413 -844 
z
" transform="scale(0.015625)"/>
      <path id="DejaVuSans-Bold-25" d="M 2456 2859 
Q 2741 2859 2887 2984 
Q 3034 3109 3034 3353 
Q 3034 3594 2887 3720 
Q 2741 3847 2456 3847 
L 1791 3847 
L 1791 2859 
L 2456 2859 
z
M 2497 819 
Q 2859 819 3042 972 
Q 3225 1125 3225 1434 
Q 3225 1738 3044 1889 
Q 2863 2041 2497 2041 
L 1791 2041 
L 1791 819 
L 2497 819 
z
M 3616 2497 
Q 4003 2384 4215 2081 
Q 4428 1778 4428 1338 
Q 4428 663 3972 331 
Q 3516 0 2584 0 
L 588 0 
L 588 4666 
L 2394 4666 
Q 3366 4666 3802 4372 
Q 4238 4078 4238 3431 
Q 4238 3091 4078 2852 
Q 3919 2613 3616 2497 
z
" transform="scale(0.015625)"/>
      <path id="DejaVuSans-Bold-c" d="M 513 -844 
Q 913 -100 1113 609 
Q 1313 1319 1313 2009 
Q 1313 2700 1113 3408 
Q 913 4116 513 4856 
L 1441 4856 
Q 1916 4091 2145 3389 
Q 2375 2688 2375 2003 
Q 2375 1319 2147 623 
Q 1919 -72 1441 -844 
L 513 -844 
z
" transform="scale(0.015625)"/>
     </defs>
     <use xlink:href="#DejaVuSans-Bold-30"/>
     <use xlink:href="#DejaVuSans-Bold-38" transform="translate(99.515625 0)"/>
     <use xlink:href="#DejaVuSans-Bold-2f" transform="translate(180.71875 0)"/>
     <use xlink:href="#DejaVuSans-Bold-37" transform="translate(227.890625 0)"/>
     <use xlink:href="#DejaVuSans-Bold-2c" transform="translate(296.109375 0)"/>
     <use xlink:href="#DejaVuSans-Bold-10" transform="translate(333.3125 0)"/>
     <use xlink:href="#DejaVuSans-Bold-24" transform="translate(374.8125 0)"/>
     <use xlink:href="#DejaVuSans-Bold-33" transform="translate(452.203125 0)"/>
     <use xlink:href="#DejaVuSans-Bold-33" transform="translate(525.5 0)"/>
     <use xlink:href="#DejaVuSans-Bold-2f" transform="translate(598.796875 0)"/>
     <use xlink:href="#DejaVuSans-Bold-2c" transform="translate(662.515625 0)"/>
     <use xlink:href="#DejaVuSans-Bold-24" transform="translate(699.71875 0)"/>
     <use xlink:href="#DejaVuSans-Bold-31" transform="translate(777.109375 0)"/>
     <use xlink:href="#DejaVuSans-Bold-26" transform="translate(860.796875 0)"/>
     <use xlink:href="#DejaVuSans-Bold-28" transform="translate(934.1875 0)"/>
     <use xlink:href="#DejaVuSans-Bold-3" transform="translate(1002.5 0)"/>
     <use xlink:href="#DejaVuSans-Bold-b" transform="translate(1037.3125 0)"/>
     <use xlink:href="#DejaVuSans-Bold-30" transform="translate(1083.015625 0)"/>
     <use xlink:href="#DejaVuSans-Bold-38" transform="translate(1182.53125 0)"/>
     <use xlink:href="#DejaVuSans-Bold-2f" transform="translate(1263.734375 0)"/>
     <use xlink:href="#DejaVuSans-Bold-37" transform="translate(1310.90625 0)"/>
     <use xlink:href="#DejaVuSans-Bold-2c" transform="translate(1379.125 0)"/>
     <use xlink:href="#DejaVuSans-Bold-10" transform="translate(1416.328125 0)"/>
     <use xlink:href="#DejaVuSans-Bold-2f" transform="translate(1457.828125 0)"/>
     <use xlink:href="#DejaVuSans-Bold-24" transform="translate(1521.546875 0)"/>
     <use xlink:href="#DejaVuSans-Bold-25" transform="translate(1598.9375 0)"/>
     <use xlink:href="#DejaVuSans-Bold-28" transform="translate(1675.15625 0)"/>
     <use xlink:href="#DejaVuSans-Bold-2f" transform="translate(1743.46875 0)"/>
     <use xlink:href="#DejaVuSans-Bold-c" transform="translate(1807.1875 0)"/>
    </g>
   </g>
  </g>
 </g>
 <defs>
  <clipPath id="p11839a49cc">
   <rect x="10.8" y="34.676953" width="525.6" height="219.123047"/>
  </clipPath>
  <clipPath id="pf317f596af">
   <rect x="10.8" y="288.476953" width="525.6" height="219.123047"/>
  </clipPath>
 </defs>
</svg>
