<?xml version="1.0" encoding="utf-8" standalone="no"?>
<!DOCTYPE svg PUBLIC "-//W3C//DTD SVG 1.1//EN"
  "http://www.w3.org/Graphics/SVG/1.1/DTD/svg11.dtd">
<svg xmlns:xlink="http://www.w3.org/1999/xlink" width="540pt" height="259.2pt" viewBox="0 0 540 259.2" xmlns="http://www.w3.org/2000/svg" version="1.1">
 <metadata>
  <rdf:RDF xmlns:dc="http://purl.org/dc/elements/1.1/" xmlns:cc="http://creativecommons.org/ns#" xmlns:rdf="http://www.w3.org/1999/02/22-rdf-syntax-ns#">
   <cc:Work>
    <dc:type rdf:resource="http://purl.org/dc/dcmitype/StillImage"/>
    <dc:date>2026-07-17T20:49:54.833788</dc:date>
    <dc:format>image/svg+xml</dc:format>
    <dc:creator>
     <cc:Agent>
      <dc:title>Matplotlib v3.11.0, https://matplotlib.org/</dc:title>
     </cc:Agent>
    </dc:creator>
   </cc:Work>
  </rdf:RDF>
 </metadata>
 <defs>
  <style type="text/css">*{stroke-linejoin: round; stroke-linecap: butt}</style>
 </defs>
 <g id="figure_1">
  <g id="patch_1">
   <path d="M 0 259.2 
L 540 259.2 
L 540 0 
L 0 0 
z
" style="fill: #ffffff"/>
  </g>
  <g id="axes_1">
   <g id="patch_2">
    <path d="M 10.8 248.4 
L 270 248.4 
L 270 10.8 
L 10.8 10.8 
z
" clip-path="url(#pa6bdb5c56b)" style="fill: #6b7280; opacity: 0.1; stroke: #6b7280; stroke-linejoin: miter"/>
   </g>
   <g id="patch_3">
    <path d="M 270 248.4 
L 529.2 248.4 
L 529.2 10.8 
L 270 10.8 
z
" clip-path="url(#pa6bdb5c56b)" style="fill: #8b5cf6; opacity: 0.12; stroke: #8b5cf6; stroke-linejoin: miter"/>
   </g>
   <g id="line2d_1">
    <path d="M 270 248.4 
L 270 10.8 
" clip-path="url(#pa6bdb5c56b)" style="fill: none; stroke-dasharray: 5.92,2.56; stroke-dashoffset: 0; stroke: #1e293b; stroke-width: 1.6"/>
   </g>
   <g id="line2d_2">
    <path d="M 10.8 118.8 
L 12.801544 105.953406 
L 13.802317 100.135357 
L 14.803089 95.018111 
L 15.803861 90.793807 
L 16.804633 87.621055 
L 17.805405 85.618982 
L 18.806178 84.862761 
L 19.80695 85.380785 
L 20.807722 87.153605 
L 21.808494 90.114655 
L 22.809266 94.152758 
L 23.810039 99.116293 
L 25.811583 111.046447 
L 29.814672 136.420867 
L 30.815444 141.685047 
L 31.816216 146.08996 
L 32.816988 149.470213 
L 33.817761 151.698889 
L 34.818533 152.692305 
L 35.819305 152.413164 
L 36.820077 150.871945 
L 37.820849 148.126517 
L 38.821622 144.279963 
L 39.822394 139.476709 
L 41.823938 127.750648 
L 45.827027 102.24624 
L 46.827799 96.842095 
L 47.828571 92.262406 
L 48.829344 88.679127 
L 49.830116 86.2268 
L 50.830888 84.997502 
L 51.83166 85.037391 
L 52.832432 86.344969 
L 53.833205 88.87114 
L 54.833977 92.521053 
L 55.834749 97.157665 
L 57.836293 108.664108 
L 61.839382 134.264735 
L 62.840154 139.801691 
L 63.840927 144.550093 
L 64.841699 148.331653 
L 65.842471 151.004385 
L 66.843243 152.467935 
L 67.844015 152.667351 
L 68.844788 151.595146 
L 69.84556 149.291577 
L 70.846332 145.843138 
L 71.847104 141.379307 
L 72.847876 136.067687 
L 74.849421 123.723173 
L 77.851737 104.444764 
L 78.85251 98.782331 
L 79.853282 93.871503 
L 80.854054 89.896668 
L 81.854826 87.00707 
L 82.855598 85.311205 
L 83.856371 84.872748 
L 84.857143 85.708161 
L 85.857915 87.786078 
L 86.858687 91.028477 
L 87.859459 95.313618 
L 88.860232 100.480604 
L 90.861776 112.658267 
L 93.864093 132.026729 
L 94.864865 137.807144 
L 95.865637 142.873896 
L 96.866409 147.036742 
L 97.867181 150.13938 
L 98.867954 152.065315 
L 99.868726 152.742233 
L 100.869498 152.144718 
L 101.87027 150.295205 
L 102.871042 147.263137 
L 103.871815 143.162361 
L 104.872587 138.146849 
L 106.874131 126.152162 
L 109.876448 106.71929 
L 110.87722 100.828547 
L 111.877992 95.61258 
L 112.878764 91.267233 
L 113.879537 87.955663 
L 114.880309 85.802209 
L 115.881081 84.887727 
L 116.881853 85.246552 
L 117.882625 86.865213 
L 118.883398 89.682934 
L 119.88417 93.593916 
L 120.884942 98.451314 
L 122.886486 110.247145 
L 126.889575 135.711968 
L 127.890347 141.070244 
L 128.89112 145.592337 
L 129.891892 149.108455 
L 130.892664 151.486578 
L 131.893436 152.637414 
L 132.894208 152.517752 
L 133.894981 151.132086 
L 134.895753 148.532444 
L 135.896525 144.816434 
L 136.897297 140.123582 
L 138.898842 128.542225 
L 142.901931 102.96991 
L 143.902703 97.476418 
L 144.903475 92.783566 
L 145.904247 89.067556 
L 146.905019 86.467914 
L 147.905792 85.082248 
L 148.906564 84.962586 
L 149.907336 86.113422 
L 150.908108 88.491545 
L 151.90888 92.007663 
L 152.909653 96.529756 
L 153.910425 101.888032 
L 155.911969 114.284542 
L 158.914286 133.527254 
L 159.915058 139.148686 
L 160.91583 144.006084 
L 161.916602 147.917066 
L 162.917375 150.734787 
L 163.918147 152.353448 
L 164.918919 152.712273 
L 165.919691 151.797791 
L 166.920463 149.644337 
L 167.921236 146.332767 
L 168.922008 141.98742 
L 169.92278 136.771453 
L 171.924324 124.536371 
L 174.926641 105.195082 
L 175.927413 99.453151 
L 176.928185 94.437639 
L 177.928958 90.336863 
L 178.92973 87.304795 
L 179.930502 85.455282 
L 180.931274 84.857767 
L 181.932046 85.534685 
L 182.932819 87.46062 
L 183.933591 90.563258 
L 184.934363 94.726104 
L 185.935135 99.792856 
L 187.93668 111.850312 
L 190.938996 131.264569 
L 191.939768 137.119396 
L 192.940541 142.286382 
L 193.941313 146.571523 
L 194.942085 149.813922 
L 195.942857 151.891839 
L 196.943629 152.727252 
L 197.944402 152.288795 
L 198.945174 150.59293 
L 199.945946 147.703332 
L 200.946718 143.728497 
L 201.94749 138.817669 
L 203.949035 126.953804 
L 207.952124 101.532313 
L 208.952896 96.220693 
L 209.953668 91.756862 
L 210.95444 88.308423 
L 211.955212 86.004854 
L 212.955985 84.932649 
L 213.956757 85.132065 
L 214.957529 86.595615 
L 215.958301 89.268347 
L 216.959073 93.049907 
L 217.959846 97.798309 
L 219.96139 109.452876 
L 223.964479 134.993116 
L 224.965251 140.442335 
L 225.966023 145.078947 
L 226.966795 148.72886 
L 227.967568 151.255031 
L 228.96834 152.562609 
L 229.969112 152.602498 
L 230.969884 151.3732 
L 231.970656 148.920873 
L 232.971429 145.337594 
L 233.972201 140.757905 
L 234.972973 135.35376 
L 236.974517 122.907079 
L 239.976834 103.702895 
L 240.977606 98.123291 
L 241.978378 93.320037 
L 242.979151 89.473483 
L 243.979923 86.728055 
L 244.980695 85.186836 
L 245.981467 84.907695 
L 246.982239 85.901111 
L 247.983012 88.129787 
L 248.983784 91.51004 
L 249.984556 95.914953 
L 250.985328 101.179133 
L 252.986873 113.469836 
L 255.989189 132.781105 
L 256.989961 138.483707 
L 257.990734 143.447242 
L 258.991506 147.485345 
L 259.992278 150.446395 
L 260.99305 152.219215 
L 261.993822 152.737239 
L 262.994595 151.981018 
L 263.995367 149.978945 
L 264.996139 146.806193 
L 265.996911 142.581889 
L 266.997683 137.464643 
L 268.999228 125.346192 
L 270 118.8 
L 270 118.8 
" clip-path="url(#pa6bdb5c56b)" style="fill: none; stroke: #6b7280; stroke-width: 1.8; stroke-linecap: square"/>
   </g>
   <g id="line2d_3">
    <path d="M 270 101.376747 
L 271.000772 87.882127 
L 272.001544 76.964463 
L 273.002317 69.301962 
L 274.003089 65.289497 
L 275.003861 65.013533 
L 276.004633 68.255019 
L 277.005405 74.519558 
L 278.006178 83.091615 
L 282.009266 122.737825 
L 283.010039 129.885241 
L 284.010811 134.828656 
L 285.011583 137.426569 
L 286.012355 137.792332 
L 287.013127 136.269716 
L 288.0139 133.385812 
L 290.015444 126.159759 
L 291.016216 123.158962 
L 292.016988 121.326869 
L 293.017761 121.035126 
L 294.018533 122.441131 
L 295.019305 125.468121 
L 296.020077 129.810343 
L 299.022394 145.010532 
L 300.023166 148.441941 
L 301.023938 149.915276 
L 302.02471 148.932479 
L 303.025483 145.210899 
L 304.026255 138.724465 
L 305.027027 129.720527 
L 306.027799 118.710203 
L 309.030116 81.801056 
L 310.030888 71.452376 
L 311.03166 63.668481 
L 312.032432 59.196224 
L 313.033205 58.539354 
L 314.033977 61.907479 
L 315.034749 69.19051 
L 316.035521 79.961223 
L 317.036293 93.506012 
L 321.039382 154.809636 
L 322.040154 166.398876 
L 323.040927 174.655527 
L 324.041699 179.065734 
L 325.042471 179.427378 
L 326.043243 175.861165 
L 327.044015 168.793241 
L 328.044788 158.911245 
L 330.046332 134.349885 
L 332.047876 110.057276 
L 333.048649 100.268493 
L 334.049421 92.909278 
L 335.050193 88.31258 
L 336.050965 86.53637 
L 337.051737 87.372431 
L 338.05251 90.380469 
L 339.053282 94.943755 
L 342.055598 110.700404 
L 343.056371 114.406252 
L 344.057143 116.561072 
L 345.057915 117.007297 
L 346.058687 115.822978 
L 347.059459 113.309791 
L 350.061776 103.277737 
L 351.062548 101.297504 
L 352.06332 101.015318 
L 353.064093 102.838048 
L 354.064865 106.956067 
L 355.065637 113.311346 
L 356.066409 121.590396 
L 360.069498 160.449553 
L 361.07027 167.283488 
L 362.071042 171.309931 
L 363.071815 171.967574 
L 364.072587 168.955245 
L 365.073359 162.269656 
L 366.074131 152.216662 
L 367.074903 139.394531 
L 371.077992 79.572707 
L 372.078764 67.939856 
L 373.079537 59.572058 
L 374.080309 55.077285 
L 375.081081 54.760341 
L 376.081853 58.598407 
L 377.082625 66.24522 
L 378.083398 77.063407 
L 380.084942 104.573209 
L 382.086486 132.82422 
L 383.087259 144.667095 
L 384.088031 153.91623 
L 385.088803 160.06884 
L 386.089575 162.908474 
L 387.090347 162.511752 
L 388.09112 159.227953 
L 389.091892 153.633924 
L 391.093436 138.556792 
L 393.094981 123.70383 
L 394.095753 118.096341 
L 395.096525 114.283716 
L 396.097297 112.414722 
L 397.098069 112.395458 
L 398.098842 113.908575 
L 399.099614 116.455617 
L 401.101158 122.130152 
L 402.101931 123.957737 
L 403.102703 124.372199 
L 404.103475 123.014702 
L 405.104247 119.742422 
L 406.105019 114.652439 
L 407.105792 108.080567 
L 410.108108 85.701169 
L 411.10888 79.960839 
L 412.109653 76.37877 
L 413.110425 75.560338 
L 414.111197 77.895161 
L 415.111969 83.508143 
L 416.112741 92.234447 
L 417.113514 103.621301 
L 419.115058 131.324604 
L 421.116602 158.922387 
L 422.117375 170.02225 
L 423.118147 178.078197 
L 424.118919 182.413721 
L 425.119691 182.634975 
L 426.120463 178.667663 
L 427.121236 170.766136 
L 428.122008 159.493767 
L 430.123552 130.332274 
L 432.125097 99.578243 
L 433.125869 86.360095 
L 434.126641 75.817656 
L 435.127413 68.596011 
L 436.128185 65.052288 
L 437.128958 65.234028 
L 438.12973 68.885578 
L 439.130502 75.481491 
L 440.131274 84.283402 
L 444.134363 123.740613 
L 445.135135 130.629096 
L 446.135907 135.281739 
L 447.13668 137.589374 
L 448.137452 137.695993 
L 449.138224 135.971278 
L 450.138996 132.960976 
L 452.140541 125.737967 
L 453.141313 122.856552 
L 454.142085 121.200747 
L 455.142857 121.117326 
L 456.143629 122.735002 
L 457.144402 125.947584 
L 458.145174 130.422311 
L 461.14749 145.525332 
L 462.148263 148.74517 
L 463.149035 149.934825 
L 464.149807 148.620179 
L 465.150579 144.548867 
L 466.151351 137.728606 
L 467.152124 128.440796 
L 469.153668 104.852726 
L 471.155212 80.397404 
L 472.155985 70.321836 
L 473.156757 62.915422 
L 474.157529 58.898177 
L 475.158301 58.739391 
L 476.159073 62.609546 
L 477.159846 70.358181 
L 478.160618 81.520034 
L 479.16139 95.349183 
L 483.164479 156.415967 
L 484.165251 167.626581 
L 485.166023 175.424399 
L 486.166795 179.332957 
L 487.167568 179.190473 
L 488.16834 175.157354 
L 489.169112 167.695346 
L 490.169884 157.520512 
L 492.171429 132.741737 
L 494.172973 108.718699 
L 495.173745 99.2063 
L 496.174517 92.179767 
L 497.17529 87.938111 
L 498.176062 86.505007 
L 499.176834 87.640874 
L 500.177606 90.879936 
L 501.178378 95.588179 
L 503.179923 106.479315 
L 504.180695 111.237446 
L 505.181467 114.765898 
L 506.182239 116.710954 
L 507.183012 116.944288 
L 508.183784 115.573076 
L 509.184556 112.92488 
L 512.186873 102.955622 
L 513.187645 101.159201 
L 514.188417 101.121885 
L 515.189189 103.225999 
L 516.189961 107.632126 
L 517.190734 114.250159 
L 518.191506 122.735478 
L 522.194595 161.432835 
L 523.195367 167.954045 
L 524.196139 171.585247 
L 525.196911 171.794766 
L 526.197683 168.317114 
L 527.198456 161.187601 
L 528.199228 150.750121 
L 529.2 137.636949 
L 529.2 137.636949 
" clip-path="url(#pa6bdb5c56b)" style="fill: none; stroke: #8b5cf6; stroke-width: 1.8; stroke-linecap: square"/>
   </g>
   <g id="line2d_4">
    <path d="M 21.168 214.457143 
L 518.832 214.457143 
" clip-path="url(#pa6bdb5c56b)" style="fill: none; stroke: #e5e7eb; stroke-linecap: square"/>
   </g>
   <g id="text_1">
    <!-- ONE EVENT, TWO WINDOWS -->
    <g style="fill: #1e293b" transform="translate(167.548828 23.142857) scale(0.13 -0.13)">
     <defs>
      <path id="DejaVuSans-Bold-32" d="M 2719 3878 
Q 2169 3878 1866 3472 
Q 1563 3066 1563 2328 
Q 1563 1594 1866 1187 
Q 2169 781 2719 781 
Q 3272 781 3575 1187 
Q 3878 1594 3878 2328 
Q 3878 3066 3575 3472 
Q 3272 3878 2719 3878 
z
M 2719 4750 
Q 3844 4750 4481 4106 
Q 5119 3463 5119 2328 
Q 5119 1197 4481 553 
Q 3844 -91 2719 -91 
Q 1597 -91 958 553 
Q 319 1197 319 2328 
Q 319 3463 958 4106 
Q 1597 4750 2719 4750 
z
" transform="scale(0.015625)"/>
      <path id="DejaVuSans-Bold-31" d="M 588 4666 
L 1931 4666 
L 3628 1466 
L 3628 4666 
L 4769 4666 
L 4769 0 
L 3425 0 
L 1728 3200 
L 1728 0 
L 588 0 
L 588 4666 
z
" transform="scale(0.015625)"/>
      <path id="DejaVuSans-Bold-28" d="M 588 4666 
L 3834 4666 
L 3834 3756 
L 1791 3756 
L 1791 2888 
L 3713 2888 
L 3713 1978 
L 1791 1978 
L 1791 909 
L 3903 909 
L 3903 0 
L 588 0 
L 588 4666 
z
" transform="scale(0.015625)"/>
      <path id="DejaVuSans-Bold-3" transform="scale(0.015625)"/>
      <path id="DejaVuSans-Bold-39" d="M 31 4666 
L 1241 4666 
L 2478 1222 
L 3713 4666 
L 4922 4666 
L 3194 0 
L 1759 0 
L 31 4666 
z
" transform="scale(0.015625)"/>
      <path id="DejaVuSans-Bold-37" d="M 31 4666 
L 4331 4666 
L 4331 3756 
L 2784 3756 
L 2784 0 
L 1581 0 
L 1581 3756 
L 31 3756 
L 31 4666 
z
" transform="scale(0.015625)"/>
      <path id="DejaVuSans-Bold-f" d="M 653 1209 
L 1778 1209 
L 1778 256 
L 1006 -909 
L 341 -909 
L 653 256 
L 653 1209 
z
" transform="scale(0.015625)"/>
      <path id="DejaVuSans-Bold-3a" d="M 191 4666 
L 1344 4666 
L 2150 1275 
L 2950 4666 
L 4109 4666 
L 4909 1275 
L 5716 4666 
L 6859 4666 
L 5759 0 
L 4372 0 
L 3525 3547 
L 2688 0 
L 1300 0 
L 191 4666 
z
" transform="scale(0.015625)"/>
      <path id="DejaVuSans-Bold-2c" d="M 588 4666 
L 1791 4666 
L 1791 0 
L 588 0 
L 588 4666 
z
" transform="scale(0.015625)"/>
      <path id="DejaVuSans-Bold-27" d="M 1791 3756 
L 1791 909 
L 2222 909 
Q 2959 909 3348 1275 
Q 3738 1641 3738 2338 
Q 3738 3031 3350 3393 
Q 2963 3756 2222 3756 
L 1791 3756 
z
M 588 4666 
L 1856 4666 
Q 2919 4666 3439 4514 
Q 3959 4363 4331 4000 
Q 4659 3684 4818 3271 
Q 4978 2859 4978 2338 
Q 4978 1809 4818 1395 
Q 4659 981 4331 666 
Q 3956 303 3431 151 
Q 2906 0 1856 0 
L 588 0 
L 588 4666 
z
" transform="scale(0.015625)"/>
      <path id="DejaVuSans-Bold-36" d="M 3834 4519 
L 3834 3531 
Q 3450 3703 3084 3790 
Q 2719 3878 2394 3878 
Q 1963 3878 1756 3759 
Q 1550 3641 1550 3391 
Q 1550 3203 1689 3098 
Q 1828 2994 2194 2919 
L 2706 2816 
Q 3484 2659 3812 2340 
Q 4141 2022 4141 1434 
Q 4141 663 3683 286 
Q 3225 -91 2284 -91 
Q 1841 -91 1394 -6 
Q 947 78 500 244 
L 500 1259 
Q 947 1022 1364 901 
Q 1781 781 2169 781 
Q 2563 781 2772 912 
Q 2981 1044 2981 1288 
Q 2981 1506 2839 1625 
Q 2697 1744 2272 1838 
L 1806 1941 
Q 1106 2091 782 2419 
Q 459 2747 459 3303 
Q 459 4000 909 4375 
Q 1359 4750 2203 4750 
Q 2588 4750 2994 4692 
Q 3400 4634 3834 4519 
z
" transform="scale(0.015625)"/>
     </defs>
     <use xlink:href="#DejaVuSans-Bold-32"/>
     <use xlink:href="#DejaVuSans-Bold-31" transform="translate(85.015625 0)"/>
     <use xlink:href="#DejaVuSans-Bold-28" transform="translate(168.703125 0)"/>
     <use xlink:href="#DejaVuSans-Bold-3" transform="translate(237.015625 0)"/>
     <use xlink:href="#DejaVuSans-Bold-28" transform="translate(271.828125 0)"/>
     <use xlink:href="#DejaVuSans-Bold-39" transform="translate(340.140625 0)"/>
     <use xlink:href="#DejaVuSans-Bold-28" transform="translate(417.53125 0)"/>
     <use xlink:href="#DejaVuSans-Bold-31" transform="translate(485.84375 0)"/>
     <use xlink:href="#DejaVuSans-Bold-37" transform="translate(569.53125 0)"/>
     <use xlink:href="#DejaVuSans-Bold-f" transform="translate(623.5 0)"/>
     <use xlink:href="#DejaVuSans-Bold-3" transform="translate(661.484375 0)"/>
     <use xlink:href="#DejaVuSans-Bold-37" transform="translate(696.296875 0)"/>
     <use xlink:href="#DejaVuSans-Bold-3a" transform="translate(764.515625 0)"/>
     <use xlink:href="#DejaVuSans-Bold-32" transform="translate(874.8125 0)"/>
     <use xlink:href="#DejaVuSans-Bold-3" transform="translate(959.828125 0)"/>
     <use xlink:href="#DejaVuSans-Bold-3a" transform="translate(994.640625 0)"/>
     <use xlink:href="#DejaVuSans-Bold-2c" transform="translate(1104.9375 0)"/>
     <use xlink:href="#DejaVuSans-Bold-31" transform="translate(1142.140625 0)"/>
     <use xlink:href="#DejaVuSans-Bold-27" transform="translate(1225.828125 0)"/>
     <use xlink:href="#DejaVuSans-Bold-32" transform="translate(1308.84375 0)"/>
     <use xlink:href="#DejaVuSans-Bold-3a" transform="translate(1393.859375 0)"/>
     <use xlink:href="#DejaVuSans-Bold-36" transform="translate(1504.15625 0)"/>
    </g>
   </g>
   <g id="text_2">
    <!-- state transition -->
    <g style="fill: #6b7280" transform="translate(233.829492 39.805714) scale(0.095 -0.095)">
     <defs>
      <path id="DejaVuSans-56" d="M 2834 3397 
L 2834 2853 
Q 2591 2978 2328 3040 
Q 2066 3103 1784 3103 
Q 1356 3103 1142 2972 
Q 928 2841 928 2578 
Q 928 2378 1081 2264 
Q 1234 2150 1697 2047 
L 1894 2003 
Q 2506 1872 2764 1633 
Q 3022 1394 3022 966 
Q 3022 478 2636 193 
Q 2250 -91 1575 -91 
Q 1294 -91 989 -36 
Q 684 19 347 128 
L 347 722 
Q 666 556 975 473 
Q 1284 391 1588 391 
Q 1994 391 2212 530 
Q 2431 669 2431 922 
Q 2431 1156 2273 1281 
Q 2116 1406 1581 1522 
L 1381 1569 
Q 847 1681 609 1914 
Q 372 2147 372 2553 
Q 372 3047 722 3315 
Q 1072 3584 1716 3584 
Q 2034 3584 2315 3537 
Q 2597 3491 2834 3397 
z
" transform="scale(0.015625)"/>
      <path id="DejaVuSans-57" d="M 1172 4494 
L 1172 3500 
L 2356 3500 
L 2356 3053 
L 1172 3053 
L 1172 1153 
Q 1172 725 1289 603 
Q 1406 481 1766 481 
L 2356 481 
L 2356 0 
L 1766 0 
Q 1100 0 847 248 
Q 594 497 594 1153 
L 594 3053 
L 172 3053 
L 172 3500 
L 594 3500 
L 594 4494 
L 1172 4494 
z
" transform="scale(0.015625)"/>
      <path id="DejaVuSans-44" d="M 2194 1759 
Q 1497 1759 1228 1600 
Q 959 1441 959 1056 
Q 959 750 1161 570 
Q 1363 391 1709 391 
Q 2188 391 2477 730 
Q 2766 1069 2766 1631 
L 2766 1759 
L 2194 1759 
z
M 3341 1997 
L 3341 0 
L 2766 0 
L 2766 531 
Q 2569 213 2275 61 
Q 1981 -91 1556 -91 
Q 1019 -91 701 211 
Q 384 513 384 1019 
Q 384 1609 779 1909 
Q 1175 2209 1959 2209 
L 2766 2209 
L 2766 2266 
Q 2766 2663 2505 2880 
Q 2244 3097 1772 3097 
Q 1472 3097 1187 3025 
Q 903 2953 641 2809 
L 641 3341 
Q 956 3463 1253 3523 
Q 1550 3584 1831 3584 
Q 2591 3584 2966 3190 
Q 3341 2797 3341 1997 
z
" transform="scale(0.015625)"/>
      <path id="DejaVuSans-48" d="M 3597 1894 
L 3597 1613 
L 953 1613 
Q 991 1019 1311 708 
Q 1631 397 2203 397 
Q 2534 397 2845 478 
Q 3156 559 3463 722 
L 3463 178 
Q 3153 47 2828 -22 
Q 2503 -91 2169 -91 
Q 1331 -91 842 396 
Q 353 884 353 1716 
Q 353 2575 817 3079 
Q 1281 3584 2069 3584 
Q 2775 3584 3186 3129 
Q 3597 2675 3597 1894 
z
M 3022 2063 
Q 3016 2534 2758 2815 
Q 2500 3097 2075 3097 
Q 1594 3097 1305 2825 
Q 1016 2553 972 2059 
L 3022 2063 
z
" transform="scale(0.015625)"/>
      <path id="DejaVuSans-3" transform="scale(0.015625)"/>
      <path id="DejaVuSans-55" d="M 2631 2963 
Q 2534 3019 2420 3045 
Q 2306 3072 2169 3072 
Q 1681 3072 1420 2755 
Q 1159 2438 1159 1844 
L 1159 0 
L 581 0 
L 581 3500 
L 1159 3500 
L 1159 2956 
Q 1341 3275 1631 3429 
Q 1922 3584 2338 3584 
Q 2397 3584 2469 3576 
Q 2541 3569 2628 3553 
L 2631 2963 
z
" transform="scale(0.015625)"/>
      <path id="DejaVuSans-51" d="M 3513 2113 
L 3513 0 
L 2938 0 
L 2938 2094 
Q 2938 2591 2744 2837 
Q 2550 3084 2163 3084 
Q 1697 3084 1428 2787 
Q 1159 2491 1159 1978 
L 1159 0 
L 581 0 
L 581 3500 
L 1159 3500 
L 1159 2956 
Q 1366 3272 1645 3428 
Q 1925 3584 2291 3584 
Q 2894 3584 3203 3211 
Q 3513 2838 3513 2113 
z
" transform="scale(0.015625)"/>
      <path id="DejaVuSans-4c" d="M 603 3500 
L 1178 3500 
L 1178 0 
L 603 0 
L 603 3500 
z
M 603 4863 
L 1178 4863 
L 1178 4134 
L 603 4134 
L 603 4863 
z
" transform="scale(0.015625)"/>
      <path id="DejaVuSans-52" d="M 1959 3097 
Q 1497 3097 1228 2736 
Q 959 2375 959 1747 
Q 959 1119 1226 758 
Q 1494 397 1959 397 
Q 2419 397 2687 759 
Q 2956 1122 2956 1747 
Q 2956 2369 2687 2733 
Q 2419 3097 1959 3097 
z
M 1959 3584 
Q 2709 3584 3137 3096 
Q 3566 2609 3566 1747 
Q 3566 888 3137 398 
Q 2709 -91 1959 -91 
Q 1206 -91 779 398 
Q 353 888 353 1747 
Q 353 2609 779 3096 
Q 1206 3584 1959 3584 
z
" transform="scale(0.015625)"/>
     </defs>
     <use xlink:href="#DejaVuSans-56"/>
     <use xlink:href="#DejaVuSans-57" transform="translate(52.09375 0)"/>
     <use xlink:href="#DejaVuSans-44" transform="translate(91.296875 0)"/>
     <use xlink:href="#DejaVuSans-57" transform="translate(152.578125 0)"/>
     <use xlink:href="#DejaVuSans-48" transform="translate(191.78125 0)"/>
     <use xlink:href="#DejaVuSans-3" transform="translate(253.3125 0)"/>
     <use xlink:href="#DejaVuSans-57" transform="translate(285.09375 0)"/>
     <use xlink:href="#DejaVuSans-55" transform="translate(324.296875 0)"/>
     <use xlink:href="#DejaVuSans-44" transform="translate(365.40625 0)"/>
     <use xlink:href="#DejaVuSans-51" transform="translate(426.6875 0)"/>
     <use xlink:href="#DejaVuSans-56" transform="translate(490.0625 0)"/>
     <use xlink:href="#DejaVuSans-4c" transform="translate(542.15625 0)"/>
     <use xlink:href="#DejaVuSans-57" transform="translate(569.9375 0)"/>
     <use xlink:href="#DejaVuSans-4c" transform="translate(609.140625 0)"/>
     <use xlink:href="#DejaVuSans-52" transform="translate(636.921875 0)"/>
     <use xlink:href="#DejaVuSans-51" transform="translate(698.109375 0)"/>
    </g>
   </g>
   <g id="text_3">
    <!-- Ns cycles before -->
    <g style="fill: #6b7280" transform="translate(94.052344 189.771429) scale(0.1 -0.1)">
     <defs>
      <path id="DejaVuSans-Bold-56" d="M 3272 3391 
L 3272 2541 
Q 2913 2691 2578 2766 
Q 2244 2841 1947 2841 
Q 1628 2841 1473 2761 
Q 1319 2681 1319 2516 
Q 1319 2381 1436 2309 
Q 1553 2238 1856 2203 
L 2053 2175 
Q 2913 2066 3209 1816 
Q 3506 1566 3506 1031 
Q 3506 472 3093 190 
Q 2681 -91 1863 -91 
Q 1516 -91 1145 -36 
Q 775 19 384 128 
L 384 978 
Q 719 816 1070 734 
Q 1422 653 1784 653 
Q 2113 653 2278 743 
Q 2444 834 2444 1013 
Q 2444 1163 2330 1236 
Q 2216 1309 1875 1350 
L 1678 1375 
Q 931 1469 631 1722 
Q 331 1975 331 2491 
Q 331 3047 712 3315 
Q 1094 3584 1881 3584 
Q 2191 3584 2531 3537 
Q 2872 3491 3272 3391 
z
" transform="scale(0.015625)"/>
      <path id="DejaVuSans-Bold-46" d="M 3366 3391 
L 3366 2478 
Q 3138 2634 2908 2709 
Q 2678 2784 2431 2784 
Q 1963 2784 1702 2511 
Q 1441 2238 1441 1747 
Q 1441 1256 1702 982 
Q 1963 709 2431 709 
Q 2694 709 2930 787 
Q 3166 866 3366 1019 
L 3366 103 
Q 3103 6 2833 -42 
Q 2563 -91 2291 -91 
Q 1344 -91 809 395 
Q 275 881 275 1747 
Q 275 2613 809 3098 
Q 1344 3584 2291 3584 
Q 2566 3584 2833 3536 
Q 3100 3488 3366 3391 
z
" transform="scale(0.015625)"/>
      <path id="DejaVuSans-Bold-5c" d="M 78 3500 
L 1197 3500 
L 2138 1125 
L 2938 3500 
L 4056 3500 
L 2584 -331 
Q 2363 -916 2067 -1148 
Q 1772 -1381 1288 -1381 
L 641 -1381 
L 641 -647 
L 991 -647 
Q 1275 -647 1404 -556 
Q 1534 -466 1606 -231 
L 1638 -134 
L 78 3500 
z
" transform="scale(0.015625)"/>
      <path id="DejaVuSans-Bold-4f" d="M 538 4863 
L 1656 4863 
L 1656 0 
L 538 0 
L 538 4863 
z
" transform="scale(0.015625)"/>
      <path id="DejaVuSans-Bold-48" d="M 4031 1759 
L 4031 1441 
L 1416 1441 
Q 1456 1047 1700 850 
Q 1944 653 2381 653 
Q 2734 653 3104 758 
Q 3475 863 3866 1075 
L 3866 213 
Q 3469 63 3072 -14 
Q 2675 -91 2278 -91 
Q 1328 -91 801 392 
Q 275 875 275 1747 
Q 275 2603 792 3093 
Q 1309 3584 2216 3584 
Q 3041 3584 3536 3087 
Q 4031 2591 4031 1759 
z
M 2881 2131 
Q 2881 2450 2695 2645 
Q 2509 2841 2209 2841 
Q 1884 2841 1681 2658 
Q 1478 2475 1428 2131 
L 2881 2131 
z
" transform="scale(0.015625)"/>
      <path id="DejaVuSans-Bold-45" d="M 2400 722 
Q 2759 722 2948 984 
Q 3138 1247 3138 1747 
Q 3138 2247 2948 2509 
Q 2759 2772 2400 2772 
Q 2041 2772 1848 2508 
Q 1656 2244 1656 1747 
Q 1656 1250 1848 986 
Q 2041 722 2400 722 
z
M 1656 2988 
Q 1888 3294 2169 3439 
Q 2450 3584 2816 3584 
Q 3463 3584 3878 3070 
Q 4294 2556 4294 1747 
Q 4294 938 3878 423 
Q 3463 -91 2816 -91 
Q 2450 -91 2169 54 
Q 1888 200 1656 506 
L 1656 0 
L 538 0 
L 538 4863 
L 1656 4863 
L 1656 2988 
z
" transform="scale(0.015625)"/>
      <path id="DejaVuSans-Bold-49" d="M 2841 4863 
L 2841 4128 
L 2222 4128 
Q 1984 4128 1890 4042 
Q 1797 3956 1797 3744 
L 1797 3500 
L 2753 3500 
L 2753 2700 
L 1797 2700 
L 1797 0 
L 678 0 
L 678 2700 
L 122 2700 
L 122 3500 
L 678 3500 
L 678 3744 
Q 678 4316 997 4589 
Q 1316 4863 1984 4863 
L 2841 4863 
z
" transform="scale(0.015625)"/>
      <path id="DejaVuSans-Bold-52" d="M 2203 2784 
Q 1831 2784 1636 2517 
Q 1441 2250 1441 1747 
Q 1441 1244 1636 976 
Q 1831 709 2203 709 
Q 2569 709 2762 976 
Q 2956 1244 2956 1747 
Q 2956 2250 2762 2517 
Q 2569 2784 2203 2784 
z
M 2203 3584 
Q 3106 3584 3614 3096 
Q 4122 2609 4122 1747 
Q 4122 884 3614 396 
Q 3106 -91 2203 -91 
Q 1297 -91 786 396 
Q 275 884 275 1747 
Q 275 2609 786 3096 
Q 1297 3584 2203 3584 
z
" transform="scale(0.015625)"/>
      <path id="DejaVuSans-Bold-55" d="M 3138 2547 
Q 2991 2616 2845 2648 
Q 2700 2681 2553 2681 
Q 2122 2681 1889 2404 
Q 1656 2128 1656 1613 
L 1656 0 
L 538 0 
L 538 3500 
L 1656 3500 
L 1656 2925 
Q 1872 3269 2151 3426 
Q 2431 3584 2822 3584 
Q 2878 3584 2943 3579 
Q 3009 3575 3134 3559 
L 3138 2547 
z
" transform="scale(0.015625)"/>
     </defs>
     <use xlink:href="#DejaVuSans-Bold-31"/>
     <use xlink:href="#DejaVuSans-Bold-56" transform="translate(83.6875 0)"/>
     <use xlink:href="#DejaVuSans-Bold-3" transform="translate(143.203125 0)"/>
     <use xlink:href="#DejaVuSans-Bold-46" transform="translate(178.015625 0)"/>
     <use xlink:href="#DejaVuSans-Bold-5c" transform="translate(237.296875 0)"/>
     <use xlink:href="#DejaVuSans-Bold-46" transform="translate(302.484375 0)"/>
     <use xlink:href="#DejaVuSans-Bold-4f" transform="translate(361.765625 0)"/>
     <use xlink:href="#DejaVuSans-Bold-48" transform="translate(396.046875 0)"/>
     <use xlink:href="#DejaVuSans-Bold-56" transform="translate(463.875 0)"/>
     <use xlink:href="#DejaVuSans-Bold-3" transform="translate(523.390625 0)"/>
     <use xlink:href="#DejaVuSans-Bold-45" transform="translate(558.203125 0)"/>
     <use xlink:href="#DejaVuSans-Bold-48" transform="translate(629.78125 0)"/>
     <use xlink:href="#DejaVuSans-Bold-49" transform="translate(697.609375 0)"/>
     <use xlink:href="#DejaVuSans-Bold-52" transform="translate(741.109375 0)"/>
     <use xlink:href="#DejaVuSans-Bold-55" transform="translate(809.8125 0)"/>
     <use xlink:href="#DejaVuSans-Bold-48" transform="translate(859.125 0)"/>
    </g>
   </g>
   <g id="text_4">
    <!-- Ns cycles after -->
    <g style="fill: #8b5cf6" transform="translate(357.89375 189.771429) scale(0.1 -0.1)">
     <defs>
      <path id="DejaVuSans-Bold-44" d="M 2106 1575 
Q 1756 1575 1579 1456 
Q 1403 1338 1403 1106 
Q 1403 894 1545 773 
Q 1688 653 1941 653 
Q 2256 653 2472 879 
Q 2688 1106 2688 1447 
L 2688 1575 
L 2106 1575 
z
M 3816 1997 
L 3816 0 
L 2688 0 
L 2688 519 
Q 2463 200 2181 54 
Q 1900 -91 1497 -91 
Q 953 -91 614 226 
Q 275 544 275 1050 
Q 275 1666 698 1953 
Q 1122 2241 2028 2241 
L 2688 2241 
L 2688 2328 
Q 2688 2594 2478 2717 
Q 2269 2841 1825 2841 
Q 1466 2841 1156 2769 
Q 847 2697 581 2553 
L 581 3406 
Q 941 3494 1303 3539 
Q 1666 3584 2028 3584 
Q 2975 3584 3395 3211 
Q 3816 2838 3816 1997 
z
" transform="scale(0.015625)"/>
      <path id="DejaVuSans-Bold-57" d="M 1759 4494 
L 1759 3500 
L 2913 3500 
L 2913 2700 
L 1759 2700 
L 1759 1216 
Q 1759 972 1856 886 
Q 1953 800 2241 800 
L 2816 800 
L 2816 0 
L 1856 0 
Q 1194 0 917 276 
Q 641 553 641 1216 
L 641 2700 
L 84 2700 
L 84 3500 
L 641 3500 
L 641 4494 
L 1759 4494 
z
" transform="scale(0.015625)"/>
     </defs>
     <use xlink:href="#DejaVuSans-Bold-31"/>
     <use xlink:href="#DejaVuSans-Bold-56" transform="translate(83.6875 0)"/>
     <use xlink:href="#DejaVuSans-Bold-3" transform="translate(143.203125 0)"/>
     <use xlink:href="#DejaVuSans-Bold-46" transform="translate(178.015625 0)"/>
     <use xlink:href="#DejaVuSans-Bold-5c" transform="translate(237.296875 0)"/>
     <use xlink:href="#DejaVuSans-Bold-46" transform="translate(302.484375 0)"/>
     <use xlink:href="#DejaVuSans-Bold-4f" transform="translate(361.765625 0)"/>
     <use xlink:href="#DejaVuSans-Bold-48" transform="translate(396.046875 0)"/>
     <use xlink:href="#DejaVuSans-Bold-56" transform="translate(463.875 0)"/>
     <use xlink:href="#DejaVuSans-Bold-3" transform="translate(523.390625 0)"/>
     <use xlink:href="#DejaVuSans-Bold-44" transform="translate(558.203125 0)"/>
     <use xlink:href="#DejaVuSans-Bold-49" transform="translate(625.6875 0)"/>
     <use xlink:href="#DejaVuSans-Bold-57" transform="translate(669.1875 0)"/>
     <use xlink:href="#DejaVuSans-Bold-48" transform="translate(716.984375 0)"/>
     <use xlink:href="#DejaVuSans-Bold-55" transform="translate(784.8125 0)"/>
    </g>
   </g>
   <g id="text_5">
    <!-- activation current = after − before, aligned at the voltage zero-crossing -->
    <g style="fill: #1e293b" transform="translate(98.784766 232.971429) scale(0.095 -0.095)">
     <defs>
      <path id="DejaVuSans-46" d="M 3122 3366 
L 3122 2828 
Q 2878 2963 2633 3030 
Q 2388 3097 2138 3097 
Q 1578 3097 1268 2742 
Q 959 2388 959 1747 
Q 959 1106 1268 751 
Q 1578 397 2138 397 
Q 2388 397 2633 464 
Q 2878 531 3122 666 
L 3122 134 
Q 2881 22 2623 -34 
Q 2366 -91 2075 -91 
Q 1284 -91 818 406 
Q 353 903 353 1747 
Q 353 2603 823 3093 
Q 1294 3584 2113 3584 
Q 2378 3584 2631 3529 
Q 2884 3475 3122 3366 
z
" transform="scale(0.015625)"/>
      <path id="DejaVuSans-59" d="M 191 3500 
L 800 3500 
L 1894 563 
L 2988 3500 
L 3597 3500 
L 2284 0 
L 1503 0 
L 191 3500 
z
" transform="scale(0.015625)"/>
      <path id="DejaVuSans-58" d="M 544 1381 
L 544 3500 
L 1119 3500 
L 1119 1403 
Q 1119 906 1312 657 
Q 1506 409 1894 409 
Q 2359 409 2629 706 
Q 2900 1003 2900 1516 
L 2900 3500 
L 3475 3500 
L 3475 0 
L 2900 0 
L 2900 538 
Q 2691 219 2414 64 
Q 2138 -91 1772 -91 
Q 1169 -91 856 284 
Q 544 659 544 1381 
z
M 1991 3584 
L 1991 3584 
z
" transform="scale(0.015625)"/>
      <path id="DejaVuSans-20" d="M 678 2906 
L 4684 2906 
L 4684 2381 
L 678 2381 
L 678 2906 
z
M 678 1631 
L 4684 1631 
L 4684 1100 
L 678 1100 
L 678 1631 
z
" transform="scale(0.015625)"/>
      <path id="DejaVuSans-49" d="M 2375 4863 
L 2375 4384 
L 1825 4384 
Q 1516 4384 1395 4259 
Q 1275 4134 1275 3809 
L 1275 3500 
L 2222 3500 
L 2222 3053 
L 1275 3053 
L 1275 0 
L 697 0 
L 697 3053 
L 147 3053 
L 147 3500 
L 697 3500 
L 697 3744 
Q 697 4328 969 4595 
Q 1241 4863 1831 4863 
L 2375 4863 
z
" transform="scale(0.015625)"/>
      <path id="DejaVuSans-c9c" d="M 678 2272 
L 4684 2272 
L 4684 1741 
L 678 1741 
L 678 2272 
z
" transform="scale(0.015625)"/>
      <path id="DejaVuSans-45" d="M 3116 1747 
Q 3116 2381 2855 2742 
Q 2594 3103 2138 3103 
Q 1681 3103 1420 2742 
Q 1159 2381 1159 1747 
Q 1159 1113 1420 752 
Q 1681 391 2138 391 
Q 2594 391 2855 752 
Q 3116 1113 3116 1747 
z
M 1159 2969 
Q 1341 3281 1617 3432 
Q 1894 3584 2278 3584 
Q 2916 3584 3314 3078 
Q 3713 2572 3713 1747 
Q 3713 922 3314 415 
Q 2916 -91 2278 -91 
Q 1894 -91 1617 61 
Q 1341 213 1159 525 
L 1159 0 
L 581 0 
L 581 4863 
L 1159 4863 
L 1159 2969 
z
" transform="scale(0.015625)"/>
      <path id="DejaVuSans-f" d="M 750 794 
L 1409 794 
L 1409 256 
L 897 -744 
L 494 -744 
L 750 256 
L 750 794 
z
" transform="scale(0.015625)"/>
      <path id="DejaVuSans-4f" d="M 603 4863 
L 1178 4863 
L 1178 0 
L 603 0 
L 603 4863 
z
" transform="scale(0.015625)"/>
      <path id="DejaVuSans-4a" d="M 2906 1791 
Q 2906 2416 2648 2759 
Q 2391 3103 1925 3103 
Q 1463 3103 1205 2759 
Q 947 2416 947 1791 
Q 947 1169 1205 825 
Q 1463 481 1925 481 
Q 2391 481 2648 825 
Q 2906 1169 2906 1791 
z
M 3481 434 
Q 3481 -459 3084 -895 
Q 2688 -1331 1869 -1331 
Q 1566 -1331 1297 -1286 
Q 1028 -1241 775 -1147 
L 775 -588 
Q 1028 -725 1275 -790 
Q 1522 -856 1778 -856 
Q 2344 -856 2625 -561 
Q 2906 -266 2906 331 
L 2906 616 
Q 2728 306 2450 153 
Q 2172 0 1784 0 
Q 1141 0 747 490 
Q 353 981 353 1791 
Q 353 2603 747 3093 
Q 1141 3584 1784 3584 
Q 2172 3584 2450 3431 
Q 2728 3278 2906 2969 
L 2906 3500 
L 3481 3500 
L 3481 434 
z
" transform="scale(0.015625)"/>
      <path id="DejaVuSans-47" d="M 2906 2969 
L 2906 4863 
L 3481 4863 
L 3481 0 
L 2906 0 
L 2906 525 
Q 2725 213 2448 61 
Q 2172 -91 1784 -91 
Q 1150 -91 751 415 
Q 353 922 353 1747 
Q 353 2572 751 3078 
Q 1150 3584 1784 3584 
Q 2172 3584 2448 3432 
Q 2725 3281 2906 2969 
z
M 947 1747 
Q 947 1113 1208 752 
Q 1469 391 1925 391 
Q 2381 391 2643 752 
Q 2906 1113 2906 1747 
Q 2906 2381 2643 2742 
Q 2381 3103 1925 3103 
Q 1469 3103 1208 2742 
Q 947 2381 947 1747 
z
" transform="scale(0.015625)"/>
      <path id="DejaVuSans-4b" d="M 3513 2113 
L 3513 0 
L 2938 0 
L 2938 2094 
Q 2938 2591 2744 2837 
Q 2550 3084 2163 3084 
Q 1697 3084 1428 2787 
Q 1159 2491 1159 1978 
L 1159 0 
L 581 0 
L 581 4863 
L 1159 4863 
L 1159 2956 
Q 1366 3272 1645 3428 
Q 1925 3584 2291 3584 
Q 2894 3584 3203 3211 
Q 3513 2838 3513 2113 
z
" transform="scale(0.015625)"/>
      <path id="DejaVuSans-5d" d="M 353 3500 
L 3084 3500 
L 3084 2975 
L 922 459 
L 3084 459 
L 3084 0 
L 275 0 
L 275 525 
L 2438 3041 
L 353 3041 
L 353 3500 
z
" transform="scale(0.015625)"/>
      <path id="DejaVuSans-10" d="M 313 2009 
L 1997 2009 
L 1997 1497 
L 313 1497 
L 313 2009 
z
" transform="scale(0.015625)"/>
     </defs>
     <use xlink:href="#DejaVuSans-44"/>
     <use xlink:href="#DejaVuSans-46" transform="translate(61.28125 0)"/>
     <use xlink:href="#DejaVuSans-57" transform="translate(116.265625 0)"/>
     <use xlink:href="#DejaVuSans-4c" transform="translate(155.46875 0)"/>
     <use xlink:href="#DejaVuSans-59" transform="translate(183.25 0)"/>
     <use xlink:href="#DejaVuSans-44" transform="translate(242.4375 0)"/>
     <use xlink:href="#DejaVuSans-57" transform="translate(303.71875 0)"/>
     <use xlink:href="#DejaVuSans-4c" transform="translate(342.921875 0)"/>
     <use xlink:href="#DejaVuSans-52" transform="translate(370.703125 0)"/>
     <use xlink:href="#DejaVuSans-51" transform="translate(431.890625 0)"/>
     <use xlink:href="#DejaVuSans-3" transform="translate(495.265625 0)"/>
     <use xlink:href="#DejaVuSans-46" transform="translate(527.046875 0)"/>
     <use xlink:href="#DejaVuSans-58" transform="translate(582.03125 0)"/>
     <use xlink:href="#DejaVuSans-55" transform="translate(645.40625 0)"/>
     <use xlink:href="#DejaVuSans-55" transform="translate(684.765625 0)"/>
     <use xlink:href="#DejaVuSans-48" transform="translate(723.671875 0)"/>
     <use xlink:href="#DejaVuSans-51" transform="translate(785.203125 0)"/>
     <use xlink:href="#DejaVuSans-57" transform="translate(848.578125 0)"/>
     <use xlink:href="#DejaVuSans-3" transform="translate(887.78125 0)"/>
     <use xlink:href="#DejaVuSans-20" transform="translate(919.5625 0)"/>
     <use xlink:href="#DejaVuSans-3" transform="translate(1003.359375 0)"/>
     <use xlink:href="#DejaVuSans-44" transform="translate(1035.140625 0)"/>
     <use xlink:href="#DejaVuSans-49" transform="translate(1096.421875 0)"/>
     <use xlink:href="#DejaVuSans-57" transform="translate(1129.875 0)"/>
     <use xlink:href="#DejaVuSans-48" transform="translate(1169.078125 0)"/>
     <use xlink:href="#DejaVuSans-55" transform="translate(1230.609375 0)"/>
     <use xlink:href="#DejaVuSans-3" transform="translate(1271.71875 0)"/>
     <use xlink:href="#DejaVuSans-c9c" transform="translate(1303.5 0)"/>
     <use xlink:href="#DejaVuSans-3" transform="translate(1387.296875 0)"/>
     <use xlink:href="#DejaVuSans-45" transform="translate(1419.078125 0)"/>
     <use xlink:href="#DejaVuSans-48" transform="translate(1482.5625 0)"/>
     <use xlink:href="#DejaVuSans-49" transform="translate(1544.09375 0)"/>
     <use xlink:href="#DejaVuSans-52" transform="translate(1579.296875 0)"/>
     <use xlink:href="#DejaVuSans-55" transform="translate(1640.484375 0)"/>
     <use xlink:href="#DejaVuSans-48" transform="translate(1679.390625 0)"/>
     <use xlink:href="#DejaVuSans-f" transform="translate(1740.921875 0)"/>
     <use xlink:href="#DejaVuSans-3" transform="translate(1772.703125 0)"/>
     <use xlink:href="#DejaVuSans-44" transform="translate(1804.484375 0)"/>
     <use xlink:href="#DejaVuSans-4f" transform="translate(1865.765625 0)"/>
     <use xlink:href="#DejaVuSans-4c" transform="translate(1893.546875 0)"/>
     <use xlink:href="#DejaVuSans-4a" transform="translate(1921.328125 0)"/>
     <use xlink:href="#DejaVuSans-51" transform="translate(1984.8125 0)"/>
     <use xlink:href="#DejaVuSans-48" transform="translate(2048.1875 0)"/>
     <use xlink:href="#DejaVuSans-47" transform="translate(2109.71875 0)"/>
     <use xlink:href="#DejaVuSans-3" transform="translate(2173.203125 0)"/>
     <use xlink:href="#DejaVuSans-44" transform="translate(2204.984375 0)"/>
     <use xlink:href="#DejaVuSans-57" transform="translate(2266.265625 0)"/>
     <use xlink:href="#DejaVuSans-3" transform="translate(2305.46875 0)"/>
     <use xlink:href="#DejaVuSans-57" transform="translate(2337.25 0)"/>
     <use xlink:href="#DejaVuSans-4b" transform="translate(2376.453125 0)"/>
     <use xlink:href="#DejaVuSans-48" transform="translate(2439.828125 0)"/>
     <use xlink:href="#DejaVuSans-3" transform="translate(2501.359375 0)"/>
     <use xlink:href="#DejaVuSans-59" transform="translate(2533.140625 0)"/>
     <use xlink:href="#DejaVuSans-52" transform="translate(2592.328125 0)"/>
     <use xlink:href="#DejaVuSans-4f" transform="translate(2653.515625 0)"/>
     <use xlink:href="#DejaVuSans-57" transform="translate(2681.296875 0)"/>
     <use xlink:href="#DejaVuSans-44" transform="translate(2720.5 0)"/>
     <use xlink:href="#DejaVuSans-4a" transform="translate(2781.78125 0)"/>
     <use xlink:href="#DejaVuSans-48" transform="translate(2845.265625 0)"/>
     <use xlink:href="#DejaVuSans-3" transform="translate(2906.796875 0)"/>
     <use xlink:href="#DejaVuSans-5d" transform="translate(2938.578125 0)"/>
     <use xlink:href="#DejaVuSans-48" transform="translate(2991.0625 0)"/>
     <use xlink:href="#DejaVuSans-55" transform="translate(3052.59375 0)"/>
     <use xlink:href="#DejaVuSans-52" transform="translate(3091.5 0)"/>
     <use xlink:href="#DejaVuSans-10" transform="translate(3154.546875 0)"/>
     <use xlink:href="#DejaVuSans-46" transform="translate(3190.625 0)"/>
     <use xlink:href="#DejaVuSans-55" transform="translate(3245.609375 0)"/>
     <use xlink:href="#DejaVuSans-52" transform="translate(3284.515625 0)"/>
     <use xlink:href="#DejaVuSans-56" transform="translate(3345.703125 0)"/>
     <use xlink:href="#DejaVuSans-56" transform="translate(3397.796875 0)"/>
     <use xlink:href="#DejaVuSans-4c" transform="translate(3449.890625 0)"/>
     <use xlink:href="#DejaVuSans-51" transform="translate(3477.671875 0)"/>
     <use xlink:href="#DejaVuSans-4a" transform="translate(3541.046875 0)"/>
    </g>
   </g>
  </g>
 </g>
 <defs>
  <clipPath id="pa6bdb5c56b">
   <rect x="10.8" y="10.8" width="518.4" height="237.6"/>
  </clipPath>
 </defs>
</svg>
