<?xml version="1.0" encoding="utf-8" standalone="no"?>
<!DOCTYPE svg PUBLIC "-//W3C//DTD SVG 1.1//EN"
  "http://www.w3.org/Graphics/SVG/1.1/DTD/svg11.dtd">
<svg xmlns:xlink="http://www.w3.org/1999/xlink" width="547.2pt" height="244.8pt" viewBox="0 0 547.2 244.8" xmlns="http://www.w3.org/2000/svg" version="1.1">
 <metadata>
  <rdf:RDF xmlns:dc="http://purl.org/dc/elements/1.1/" xmlns:cc="http://creativecommons.org/ns#" xmlns:rdf="http://www.w3.org/1999/02/22-rdf-syntax-ns#">
   <cc:Work>
    <dc:type rdf:resource="http://purl.org/dc/dcmitype/StillImage"/>
    <dc:date>2026-07-17T20:49:54.888334</dc:date>
    <dc:format>image/svg+xml</dc:format>
    <dc:creator>
     <cc:Agent>
      <dc:title>Matplotlib v3.11.0, https://matplotlib.org/</dc:title>
     </cc:Agent>
    </dc:creator>
   </cc:Work>
  </rdf:RDF>
 </metadata>
 <defs>
  <style type="text/css">*{stroke-linejoin: round; stroke-linecap: butt}</style>
 </defs>
 <g id="figure_1">
  <g id="patch_1">
   <path d="M 0 244.8 
L 547.2 244.8 
L 547.2 0 
L 0 0 
z
" style="fill: #ffffff"/>
  </g>
  <g id="axes_1">
   <g id="line2d_1">
    <path d="M 97.615385 96.646154 
L 140.538462 96.646154 
" clip-path="url(#p497a34b478)" style="fill: none; stroke: #cbd5e1; stroke-width: 1.4; stroke-linecap: square"/>
   </g>
   <g id="line2d_2">
    <path d="M 206.353846 96.646154 
L 249.276923 96.646154 
" clip-path="url(#p497a34b478)" style="fill: none; stroke: #cbd5e1; stroke-width: 1.4; stroke-linecap: square"/>
   </g>
   <g id="line2d_3">
    <path d="M 315.092308 96.646154 
L 358.015385 96.646154 
" clip-path="url(#p497a34b478)" style="fill: none; stroke: #cbd5e1; stroke-width: 1.4; stroke-linecap: square"/>
   </g>
   <g id="line2d_4">
    <path d="M 423.830769 96.646154 
L 455.307692 96.646154 
" clip-path="url(#p497a34b478)" style="fill: none; stroke: #cbd5e1; stroke-width: 1.4; stroke-linecap: square"/>
   </g>
   <g id="patch_2">
    <path d="M 35.233846 130.698462 
L 94.181538 130.698462 
Q 98.76 130.698462 98.76 126.12 
L 98.76 67.172308 
Q 98.76 62.593846 94.181538 62.593846 
L 35.233846 62.593846 
Q 30.655385 62.593846 30.655385 67.172308 
L 30.655385 126.12 
Q 30.655385 130.698462 35.233846 130.698462 
L 35.233846 130.698462 
z
" clip-path="url(#p497a34b478)" style="fill: none; stroke: #8b5cf6; stroke-width: 1.8; stroke-linejoin: miter"/>
   </g>
   <g id="patch_3">
    <path d="M 143.972308 130.698462 
L 202.92 130.698462 
Q 207.498462 130.698462 207.498462 126.12 
L 207.498462 67.172308 
Q 207.498462 62.593846 202.92 62.593846 
L 143.972308 62.593846 
Q 139.393846 62.593846 139.393846 67.172308 
L 139.393846 126.12 
Q 139.393846 130.698462 143.972308 130.698462 
L 143.972308 130.698462 
z
" clip-path="url(#p497a34b478)" style="fill: none; stroke: #6b7280; stroke-width: 1.8; stroke-linejoin: miter"/>
   </g>
   <g id="patch_4">
    <path d="M 148.264615 82.910769 
L 159.710769 82.910769 
L 159.710769 71.464615 
L 148.264615 71.464615 
z
" clip-path="url(#p497a34b478)" style="fill: #6b7280; opacity: 0.18426"/>
   </g>
   <g id="patch_5">
    <path d="M 160.855385 82.910769 
L 172.301538 82.910769 
L 172.301538 71.464615 
L 160.855385 71.464615 
z
" clip-path="url(#p497a34b478)" style="fill: #6b7280; opacity: 0.244724"/>
   </g>
   <g id="patch_6">
    <path d="M 173.446154 82.910769 
L 184.892308 82.910769 
L 184.892308 71.464615 
L 173.446154 71.464615 
z
" clip-path="url(#p497a34b478)" style="fill: #6b7280; opacity: 0.47051"/>
   </g>
   <g id="patch_7">
    <path d="M 186.036923 82.910769 
L 197.483077 82.910769 
L 197.483077 71.464615 
L 186.036923 71.464615 
z
" clip-path="url(#p497a34b478)" style="fill: #6b7280; opacity: 0.382865"/>
   </g>
   <g id="patch_8">
    <path d="M 148.264615 95.501538 
L 159.710769 95.501538 
L 159.710769 84.055385 
L 148.264615 84.055385 
z
" clip-path="url(#p497a34b478)" style="fill: #6b7280; opacity: 0.187651"/>
   </g>
   <g id="patch_9">
    <path d="M 160.855385 95.501538 
L 172.301538 95.501538 
L 172.301538 84.055385 
L 160.855385 84.055385 
z
" clip-path="url(#p497a34b478)" style="fill: #6b7280; opacity: 0.323251"/>
   </g>
   <g id="patch_10">
    <path d="M 173.446154 95.501538 
L 184.892308 95.501538 
L 184.892308 84.055385 
L 173.446154 84.055385 
z
" clip-path="url(#p497a34b478)" style="fill: #6b7280; opacity: 0.341621"/>
   </g>
   <g id="patch_11">
    <path d="M 186.036923 95.501538 
L 197.483077 95.501538 
L 197.483077 84.055385 
L 186.036923 84.055385 
z
" clip-path="url(#p497a34b478)" style="fill: #6b7280; opacity: 0.213896"/>
   </g>
   <g id="patch_12">
    <path d="M 148.264615 108.092308 
L 159.710769 108.092308 
L 159.710769 96.646154 
L 148.264615 96.646154 
z
" clip-path="url(#p497a34b478)" style="fill: #6b7280; opacity: 0.443831"/>
   </g>
   <g id="patch_13">
    <path d="M 160.855385 108.092308 
L 172.301538 108.092308 
L 172.301538 96.646154 
L 160.855385 96.646154 
z
" clip-path="url(#p497a34b478)" style="fill: #6b7280; opacity: 0.195469"/>
   </g>
   <g id="patch_14">
    <path d="M 173.446154 108.092308 
L 184.892308 108.092308 
L 184.892308 96.646154 
L 173.446154 96.646154 
z
" clip-path="url(#p497a34b478)" style="fill: #6b7280; opacity: 0.306491"/>
   </g>
   <g id="patch_15">
    <path d="M 186.036923 108.092308 
L 197.483077 108.092308 
L 197.483077 96.646154 
L 186.036923 96.646154 
z
" clip-path="url(#p497a34b478)" style="fill: #6b7280; opacity: 0.356696"/>
   </g>
   <g id="patch_16">
    <path d="M 148.264615 120.683077 
L 159.710769 120.683077 
L 159.710769 109.236923 
L 148.264615 109.236923 
z
" clip-path="url(#p497a34b478)" style="fill: #6b7280; opacity: 0.322251"/>
   </g>
   <g id="patch_17">
    <path d="M 160.855385 120.683077 
L 172.301538 120.683077 
L 172.301538 109.236923 
L 160.855385 109.236923 
z
" clip-path="url(#p497a34b478)" style="fill: #6b7280; opacity: 0.384719"/>
   </g>
   <g id="patch_18">
    <path d="M 173.446154 120.683077 
L 184.892308 120.683077 
L 184.892308 109.236923 
L 173.446154 109.236923 
z
" clip-path="url(#p497a34b478)" style="fill: #6b7280; opacity: 0.445135"/>
   </g>
   <g id="patch_19">
    <path d="M 186.036923 120.683077 
L 197.483077 120.683077 
L 197.483077 109.236923 
L 186.036923 109.236923 
z
" clip-path="url(#p497a34b478)" style="fill: #6b7280; opacity: 0.532507"/>
   </g>
   <g id="patch_20">
    <path d="M 252.710769 130.698462 
L 311.658462 130.698462 
Q 316.236923 130.698462 316.236923 126.12 
L 316.236923 67.172308 
Q 316.236923 62.593846 311.658462 62.593846 
L 252.710769 62.593846 
Q 248.132308 62.593846 248.132308 67.172308 
L 248.132308 126.12 
Q 248.132308 130.698462 252.710769 130.698462 
L 252.710769 130.698462 
z
" clip-path="url(#p497a34b478)" style="fill: none; stroke: #8b5cf6; stroke-width: 1.8; stroke-linejoin: miter"/>
   </g>
   <g id="patch_21">
    <path d="M 263.298462 89.206154 
L 274.744615 89.206154 
L 274.744615 77.76 
L 263.298462 77.76 
z
" clip-path="url(#p497a34b478)" style="fill: #8b5cf6; opacity: 0.420521"/>
   </g>
   <g id="patch_22">
    <path d="M 275.889231 89.206154 
L 287.335385 89.206154 
L 287.335385 77.76 
L 275.889231 77.76 
z
" clip-path="url(#p497a34b478)" style="fill: #8b5cf6; opacity: 0.639128"/>
   </g>
   <g id="patch_23">
    <path d="M 288.48 89.206154 
L 299.926154 89.206154 
L 299.926154 77.76 
L 288.48 77.76 
z
" clip-path="url(#p497a34b478)" style="fill: #8b5cf6; opacity: 0.66773"/>
   </g>
   <g id="patch_24">
    <path d="M 263.298462 101.796923 
L 274.744615 101.796923 
L 274.744615 90.350769 
L 263.298462 90.350769 
z
" clip-path="url(#p497a34b478)" style="fill: #8b5cf6; opacity: 0.425632"/>
   </g>
   <g id="patch_25">
    <path d="M 275.889231 101.796923 
L 287.335385 101.796923 
L 287.335385 90.350769 
L 275.889231 90.350769 
z
" clip-path="url(#p497a34b478)" style="fill: #8b5cf6; opacity: 0.250894"/>
   </g>
   <g id="patch_26">
    <path d="M 288.48 101.796923 
L 299.926154 101.796923 
L 299.926154 90.350769 
L 288.48 90.350769 
z
" clip-path="url(#p497a34b478)" style="fill: #8b5cf6; opacity: 0.834076"/>
   </g>
   <g id="patch_27">
    <path d="M 263.298462 114.387692 
L 274.744615 114.387692 
L 274.744615 102.941538 
L 263.298462 102.941538 
z
" clip-path="url(#p497a34b478)" style="fill: #8b5cf6; opacity: 0.429041"/>
   </g>
   <g id="patch_28">
    <path d="M 275.889231 114.387692 
L 287.335385 114.387692 
L 287.335385 102.941538 
L 275.889231 102.941538 
z
" clip-path="url(#p497a34b478)" style="fill: #8b5cf6; opacity: 0.438392"/>
   </g>
   <g id="patch_29">
    <path d="M 288.48 114.387692 
L 299.926154 114.387692 
L 299.926154 102.941538 
L 288.48 102.941538 
z
" clip-path="url(#p497a34b478)" style="fill: #8b5cf6; opacity: 0.785027"/>
   </g>
   <g id="patch_30">
    <path d="M 361.449231 130.698462 
L 420.396923 130.698462 
Q 424.975385 130.698462 424.975385 126.12 
L 424.975385 67.172308 
Q 424.975385 62.593846 420.396923 62.593846 
L 361.449231 62.593846 
Q 356.870769 62.593846 356.870769 67.172308 
L 356.870769 126.12 
Q 356.870769 130.698462 361.449231 130.698462 
L 361.449231 130.698462 
z
" clip-path="url(#p497a34b478)" style="fill: none; stroke: #6b7280; stroke-width: 1.8; stroke-linejoin: miter"/>
   </g>
   <g id="patch_31">
    <path d="M 373.753846 118.393846 
L 385.2 118.393846 
L 385.2 74.898462 
L 373.753846 74.898462 
L 373.753846 118.393846 
z
" clip-path="url(#p497a34b478)" style="fill: none; stroke: #6b7280; stroke-width: 1.4; stroke-linejoin: miter"/>
   </g>
   <g id="patch_32">
    <path d="M 392.067692 118.393846 
L 400.08 118.393846 
L 400.08 74.898462 
L 392.067692 74.898462 
L 392.067692 118.393846 
z
" clip-path="url(#p497a34b478)" style="fill: none; stroke: #6b7280; stroke-width: 1.4; stroke-linejoin: miter"/>
   </g>
   <g id="patch_33">
    <path d="M 406.947692 118.393846 
L 412.670769 118.393846 
L 412.670769 74.898462 
L 406.947692 74.898462 
L 406.947692 118.393846 
z
" clip-path="url(#p497a34b478)" style="fill: none; stroke: #6b7280; stroke-width: 1.4; stroke-linejoin: miter"/>
   </g>
   <g id="patch_34">
    <path d="M 488.215385 129.553846 
C 496.942607 129.553846 505.313559 126.086484 511.484637 119.915406 
C 517.655715 113.744328 521.123077 105.373376 521.123077 96.646154 
C 521.123077 87.918932 517.655715 79.547979 511.484637 73.376901 
C 505.313559 67.205824 496.942607 63.738462 488.215385 63.738462 
C 479.488163 63.738462 471.11721 67.205824 464.946132 73.376901 
C 458.775054 79.547979 455.307692 87.918932 455.307692 96.646154 
C 455.307692 105.373376 458.775054 113.744328 464.946132 119.915406 
C 471.11721 126.086484 479.488163 129.553846 488.215385 129.553846 
L 488.215385 129.553846 
z
" clip-path="url(#p497a34b478)" style="fill: none; stroke: #8b5cf6; stroke-width: 1.8; stroke-linejoin: miter"/>
   </g>
   <g id="line2d_5">
    <path d="M 41.815385 96.646154 
L 42.989349 90.51424 
L 44.163314 85.55017 
L 45.337278 82.27456 
L 46.511243 80.967358 
L 47.685207 81.650598 
L 48.859172 84.103593 
L 50.033136 87.906496 
L 51.207101 92.504971 
L 52.381065 97.286679 
L 53.55503 101.659504 
L 54.728994 105.121894 
L 55.902959 107.317366 
L 57.076923 108.067654 
L 58.250888 107.381961 
L 59.424852 105.442858 
L 60.598817 102.572151 
L 61.772781 99.182238 
L 62.946746 95.719861 
L 64.12071 92.609595 
L 65.294675 90.203933 
L 66.468639 88.745569 
L 67.642604 88.345592 
L 68.816568 88.979147 
L 69.990533 90.497861 
L 71.164497 92.656382 
L 72.338462 95.148826 
L 73.512426 97.650036 
L 74.686391 99.856322 
L 75.860355 101.520767 
L 77.03432 102.479221 
L 78.208284 102.664451 
L 79.382249 102.107581 
L 80.556213 100.927501 
L 81.730178 99.310381 
L 82.904142 97.482454 
L 84.078107 95.679824 
L 85.252071 94.119172 
L 86.426036 92.972847 
L 87.6 92.351051 
" clip-path="url(#p497a34b478)" style="fill: none; stroke: #8b5cf6; stroke-width: 1.4; stroke-linecap: square"/>
   </g>
   <g id="line2d_6">
    <path d="M 472.190769 97.790769 
L 484.781538 110.953846 
L 506.529231 80.621538 
" clip-path="url(#p497a34b478)" style="fill: none; stroke: #8b5cf6; stroke-width: 2.2; stroke-linecap: round"/>
   </g>
   <g id="line2d_7">
    <path d="M 23.616 191.076923 
L 523.584 191.076923 
" clip-path="url(#p497a34b478)" style="fill: none; stroke: #e5e7eb; stroke-linecap: square"/>
   </g>
   <g id="text_1">
    <!-- Activation -->
    <g style="fill: #8b5cf6" transform="translate(38.905114 158.754857) scale(0.09 -0.09)">
     <defs>
      <path id="DejaVuSans-Bold-24" d="M 3419 850 
L 1538 850 
L 1241 0 
L 31 0 
L 1759 4666 
L 3194 4666 
L 4922 0 
L 3713 0 
L 3419 850 
z
M 1838 1716 
L 3116 1716 
L 2478 3572 
L 1838 1716 
z
" transform="scale(0.015625)"/>
      <path id="DejaVuSans-Bold-46" d="M 3366 3391 
L 3366 2478 
Q 3138 2634 2908 2709 
Q 2678 2784 2431 2784 
Q 1963 2784 1702 2511 
Q 1441 2238 1441 1747 
Q 1441 1256 1702 982 
Q 1963 709 2431 709 
Q 2694 709 2930 787 
Q 3166 866 3366 1019 
L 3366 103 
Q 3103 6 2833 -42 
Q 2563 -91 2291 -91 
Q 1344 -91 809 395 
Q 275 881 275 1747 
Q 275 2613 809 3098 
Q 1344 3584 2291 3584 
Q 2566 3584 2833 3536 
Q 3100 3488 3366 3391 
z
" transform="scale(0.015625)"/>
      <path id="DejaVuSans-Bold-57" d="M 1759 4494 
L 1759 3500 
L 2913 3500 
L 2913 2700 
L 1759 2700 
L 1759 1216 
Q 1759 972 1856 886 
Q 1953 800 2241 800 
L 2816 800 
L 2816 0 
L 1856 0 
Q 1194 0 917 276 
Q 641 553 641 1216 
L 641 2700 
L 84 2700 
L 84 3500 
L 641 3500 
L 641 4494 
L 1759 4494 
z
" transform="scale(0.015625)"/>
      <path id="DejaVuSans-Bold-4c" d="M 538 3500 
L 1656 3500 
L 1656 0 
L 538 0 
L 538 3500 
z
M 538 4863 
L 1656 4863 
L 1656 3950 
L 538 3950 
L 538 4863 
z
" transform="scale(0.015625)"/>
      <path id="DejaVuSans-Bold-59" d="M 97 3500 
L 1216 3500 
L 2088 1081 
L 2956 3500 
L 4078 3500 
L 2700 0 
L 1472 0 
L 97 3500 
z
" transform="scale(0.015625)"/>
      <path id="DejaVuSans-Bold-44" d="M 2106 1575 
Q 1756 1575 1579 1456 
Q 1403 1338 1403 1106 
Q 1403 894 1545 773 
Q 1688 653 1941 653 
Q 2256 653 2472 879 
Q 2688 1106 2688 1447 
L 2688 1575 
L 2106 1575 
z
M 3816 1997 
L 3816 0 
L 2688 0 
L 2688 519 
Q 2463 200 2181 54 
Q 1900 -91 1497 -91 
Q 953 -91 614 226 
Q 275 544 275 1050 
Q 275 1666 698 1953 
Q 1122 2241 2028 2241 
L 2688 2241 
L 2688 2328 
Q 2688 2594 2478 2717 
Q 2269 2841 1825 2841 
Q 1466 2841 1156 2769 
Q 847 2697 581 2553 
L 581 3406 
Q 941 3494 1303 3539 
Q 1666 3584 2028 3584 
Q 2975 3584 3395 3211 
Q 3816 2838 3816 1997 
z
" transform="scale(0.015625)"/>
      <path id="DejaVuSans-Bold-52" d="M 2203 2784 
Q 1831 2784 1636 2517 
Q 1441 2250 1441 1747 
Q 1441 1244 1636 976 
Q 1831 709 2203 709 
Q 2569 709 2762 976 
Q 2956 1244 2956 1747 
Q 2956 2250 2762 2517 
Q 2569 2784 2203 2784 
z
M 2203 3584 
Q 3106 3584 3614 3096 
Q 4122 2609 4122 1747 
Q 4122 884 3614 396 
Q 3106 -91 2203 -91 
Q 1297 -91 786 396 
Q 275 884 275 1747 
Q 275 2609 786 3096 
Q 1297 3584 2203 3584 
z
" transform="scale(0.015625)"/>
      <path id="DejaVuSans-Bold-51" d="M 4056 2131 
L 4056 0 
L 2931 0 
L 2931 347 
L 2931 1631 
Q 2931 2084 2911 2256 
Q 2891 2428 2841 2509 
Q 2775 2619 2662 2680 
Q 2550 2741 2406 2741 
Q 2056 2741 1856 2470 
Q 1656 2200 1656 1722 
L 1656 0 
L 538 0 
L 538 3500 
L 1656 3500 
L 1656 2988 
Q 1909 3294 2193 3439 
Q 2478 3584 2822 3584 
Q 3428 3584 3742 3212 
Q 4056 2841 4056 2131 
z
" transform="scale(0.015625)"/>
     </defs>
     <use xlink:href="#DejaVuSans-Bold-24"/>
     <use xlink:href="#DejaVuSans-Bold-46" transform="translate(77.390625 0)"/>
     <use xlink:href="#DejaVuSans-Bold-57" transform="translate(136.671875 0)"/>
     <use xlink:href="#DejaVuSans-Bold-4c" transform="translate(184.46875 0)"/>
     <use xlink:href="#DejaVuSans-Bold-59" transform="translate(218.75 0)"/>
     <use xlink:href="#DejaVuSans-Bold-44" transform="translate(283.9375 0)"/>
     <use xlink:href="#DejaVuSans-Bold-57" transform="translate(351.421875 0)"/>
     <use xlink:href="#DejaVuSans-Bold-4c" transform="translate(399.21875 0)"/>
     <use xlink:href="#DejaVuSans-Bold-52" transform="translate(433.5 0)"/>
     <use xlink:href="#DejaVuSans-Bold-51" transform="translate(502.203125 0)"/>
    </g>
    <!-- window -->
    <g style="fill: #8b5cf6" transform="translate(45.333786 169.557318) scale(0.09 -0.09)">
     <defs>
      <path id="DejaVuSans-Bold-5a" d="M 225 3500 
L 1313 3500 
L 1900 1088 
L 2491 3500 
L 3425 3500 
L 4013 1113 
L 4603 3500 
L 5691 3500 
L 4769 0 
L 3547 0 
L 2956 2406 
L 2369 0 
L 1147 0 
L 225 3500 
z
" transform="scale(0.015625)"/>
      <path id="DejaVuSans-Bold-47" d="M 2919 2988 
L 2919 4863 
L 4044 4863 
L 4044 0 
L 2919 0 
L 2919 506 
Q 2688 197 2409 53 
Q 2131 -91 1766 -91 
Q 1119 -91 703 423 
Q 288 938 288 1747 
Q 288 2556 703 3070 
Q 1119 3584 1766 3584 
Q 2128 3584 2408 3439 
Q 2688 3294 2919 2988 
z
M 2181 722 
Q 2541 722 2730 984 
Q 2919 1247 2919 1747 
Q 2919 2247 2730 2509 
Q 2541 2772 2181 2772 
Q 1825 2772 1636 2509 
Q 1447 2247 1447 1747 
Q 1447 1247 1636 984 
Q 1825 722 2181 722 
z
" transform="scale(0.015625)"/>
     </defs>
     <use xlink:href="#DejaVuSans-Bold-5a"/>
     <use xlink:href="#DejaVuSans-Bold-4c" transform="translate(92.390625 0)"/>
     <use xlink:href="#DejaVuSans-Bold-51" transform="translate(126.671875 0)"/>
     <use xlink:href="#DejaVuSans-Bold-47" transform="translate(197.859375 0)"/>
     <use xlink:href="#DejaVuSans-Bold-52" transform="translate(269.4375 0)"/>
     <use xlink:href="#DejaVuSans-Bold-5a" transform="translate(338.140625 0)"/>
    </g>
   </g>
   <g id="text_2">
    <!-- Distance -->
    <g style="fill: #1e293b" transform="translate(151.378576 158.754857) scale(0.09 -0.09)">
     <defs>
      <path id="DejaVuSans-Bold-27" d="M 1791 3756 
L 1791 909 
L 2222 909 
Q 2959 909 3348 1275 
Q 3738 1641 3738 2338 
Q 3738 3031 3350 3393 
Q 2963 3756 2222 3756 
L 1791 3756 
z
M 588 4666 
L 1856 4666 
Q 2919 4666 3439 4514 
Q 3959 4363 4331 4000 
Q 4659 3684 4818 3271 
Q 4978 2859 4978 2338 
Q 4978 1809 4818 1395 
Q 4659 981 4331 666 
Q 3956 303 3431 151 
Q 2906 0 1856 0 
L 588 0 
L 588 4666 
z
" transform="scale(0.015625)"/>
      <path id="DejaVuSans-Bold-56" d="M 3272 3391 
L 3272 2541 
Q 2913 2691 2578 2766 
Q 2244 2841 1947 2841 
Q 1628 2841 1473 2761 
Q 1319 2681 1319 2516 
Q 1319 2381 1436 2309 
Q 1553 2238 1856 2203 
L 2053 2175 
Q 2913 2066 3209 1816 
Q 3506 1566 3506 1031 
Q 3506 472 3093 190 
Q 2681 -91 1863 -91 
Q 1516 -91 1145 -36 
Q 775 19 384 128 
L 384 978 
Q 719 816 1070 734 
Q 1422 653 1784 653 
Q 2113 653 2278 743 
Q 2444 834 2444 1013 
Q 2444 1163 2330 1236 
Q 2216 1309 1875 1350 
L 1678 1375 
Q 931 1469 631 1722 
Q 331 1975 331 2491 
Q 331 3047 712 3315 
Q 1094 3584 1881 3584 
Q 2191 3584 2531 3537 
Q 2872 3491 3272 3391 
z
" transform="scale(0.015625)"/>
      <path id="DejaVuSans-Bold-48" d="M 4031 1759 
L 4031 1441 
L 1416 1441 
Q 1456 1047 1700 850 
Q 1944 653 2381 653 
Q 2734 653 3104 758 
Q 3475 863 3866 1075 
L 3866 213 
Q 3469 63 3072 -14 
Q 2675 -91 2278 -91 
Q 1328 -91 801 392 
Q 275 875 275 1747 
Q 275 2603 792 3093 
Q 1309 3584 2216 3584 
Q 3041 3584 3536 3087 
Q 4031 2591 4031 1759 
z
M 2881 2131 
Q 2881 2450 2695 2645 
Q 2509 2841 2209 2841 
Q 1884 2841 1681 2658 
Q 1478 2475 1428 2131 
L 2881 2131 
z
" transform="scale(0.015625)"/>
     </defs>
     <use xlink:href="#DejaVuSans-Bold-27"/>
     <use xlink:href="#DejaVuSans-Bold-4c" transform="translate(83.015625 0)"/>
     <use xlink:href="#DejaVuSans-Bold-56" transform="translate(117.296875 0)"/>
     <use xlink:href="#DejaVuSans-Bold-57" transform="translate(176.8125 0)"/>
     <use xlink:href="#DejaVuSans-Bold-44" transform="translate(224.609375 0)"/>
     <use xlink:href="#DejaVuSans-Bold-51" transform="translate(292.09375 0)"/>
     <use xlink:href="#DejaVuSans-Bold-46" transform="translate(363.28125 0)"/>
     <use xlink:href="#DejaVuSans-Bold-48" transform="translate(422.5625 0)"/>
    </g>
    <!-- matrix D -->
    <g style="fill: #1e293b" transform="translate(151.602873 169.557318) scale(0.09 -0.09)">
     <defs>
      <path id="DejaVuSans-Bold-50" d="M 3781 2919 
Q 3994 3244 4286 3414 
Q 4578 3584 4928 3584 
Q 5531 3584 5847 3212 
Q 6163 2841 6163 2131 
L 6163 0 
L 5038 0 
L 5038 1825 
Q 5041 1866 5042 1909 
Q 5044 1953 5044 2034 
Q 5044 2406 4934 2573 
Q 4825 2741 4581 2741 
Q 4263 2741 4089 2478 
Q 3916 2216 3909 1719 
L 3909 0 
L 2784 0 
L 2784 1825 
Q 2784 2406 2684 2573 
Q 2584 2741 2328 2741 
Q 2006 2741 1831 2477 
Q 1656 2213 1656 1722 
L 1656 0 
L 531 0 
L 531 3500 
L 1656 3500 
L 1656 2988 
Q 1863 3284 2130 3434 
Q 2397 3584 2719 3584 
Q 3081 3584 3359 3409 
Q 3638 3234 3781 2919 
z
" transform="scale(0.015625)"/>
      <path id="DejaVuSans-Bold-55" d="M 3138 2547 
Q 2991 2616 2845 2648 
Q 2700 2681 2553 2681 
Q 2122 2681 1889 2404 
Q 1656 2128 1656 1613 
L 1656 0 
L 538 0 
L 538 3500 
L 1656 3500 
L 1656 2925 
Q 1872 3269 2151 3426 
Q 2431 3584 2822 3584 
Q 2878 3584 2943 3579 
Q 3009 3575 3134 3559 
L 3138 2547 
z
" transform="scale(0.015625)"/>
      <path id="DejaVuSans-Bold-5b" d="M 1422 1791 
L 159 3500 
L 1344 3500 
L 2059 2463 
L 2784 3500 
L 3969 3500 
L 2706 1797 
L 4031 0 
L 2847 0 
L 2059 1106 
L 1281 0 
L 97 0 
L 1422 1791 
z
" transform="scale(0.015625)"/>
      <path id="DejaVuSans-Bold-3" transform="scale(0.015625)"/>
     </defs>
     <use xlink:href="#DejaVuSans-Bold-50"/>
     <use xlink:href="#DejaVuSans-Bold-44" transform="translate(104.203125 0)"/>
     <use xlink:href="#DejaVuSans-Bold-57" transform="translate(171.6875 0)"/>
     <use xlink:href="#DejaVuSans-Bold-55" transform="translate(219.484375 0)"/>
     <use xlink:href="#DejaVuSans-Bold-4c" transform="translate(268.796875 0)"/>
     <use xlink:href="#DejaVuSans-Bold-5b" transform="translate(303.078125 0)"/>
     <use xlink:href="#DejaVuSans-Bold-3" transform="translate(367.578125 0)"/>
     <use xlink:href="#DejaVuSans-Bold-27" transform="translate(402.390625 0)"/>
    </g>
   </g>
   <g id="text_3">
    <!-- Weighted -->
    <g style="fill: #8b5cf6" transform="translate(257.938053 158.754857) scale(0.09 -0.09)">
     <defs>
      <path id="DejaVuSans-Bold-3a" d="M 191 4666 
L 1344 4666 
L 2150 1275 
L 2950 4666 
L 4109 4666 
L 4909 1275 
L 5716 4666 
L 6859 4666 
L 5759 0 
L 4372 0 
L 3525 3547 
L 2688 0 
L 1300 0 
L 191 4666 
z
" transform="scale(0.015625)"/>
      <path id="DejaVuSans-Bold-4a" d="M 2919 594 
Q 2688 288 2409 144 
Q 2131 0 1766 0 
Q 1125 0 706 504 
Q 288 1009 288 1791 
Q 288 2575 706 3076 
Q 1125 3578 1766 3578 
Q 2131 3578 2409 3434 
Q 2688 3291 2919 2981 
L 2919 3500 
L 4044 3500 
L 4044 353 
Q 4044 -491 3511 -936 
Q 2978 -1381 1966 -1381 
Q 1638 -1381 1331 -1331 
Q 1025 -1281 716 -1178 
L 716 -306 
Q 1009 -475 1290 -558 
Q 1572 -641 1856 -641 
Q 2406 -641 2662 -400 
Q 2919 -159 2919 353 
L 2919 594 
z
M 2181 2772 
Q 1834 2772 1640 2515 
Q 1447 2259 1447 1791 
Q 1447 1309 1634 1061 
Q 1822 813 2181 813 
Q 2531 813 2725 1069 
Q 2919 1325 2919 1791 
Q 2919 2259 2725 2515 
Q 2531 2772 2181 2772 
z
" transform="scale(0.015625)"/>
      <path id="DejaVuSans-Bold-4b" d="M 4056 2131 
L 4056 0 
L 2931 0 
L 2931 347 
L 2931 1625 
Q 2931 2084 2911 2256 
Q 2891 2428 2841 2509 
Q 2775 2619 2662 2680 
Q 2550 2741 2406 2741 
Q 2056 2741 1856 2470 
Q 1656 2200 1656 1722 
L 1656 0 
L 538 0 
L 538 4863 
L 1656 4863 
L 1656 2988 
Q 1909 3294 2193 3439 
Q 2478 3584 2822 3584 
Q 3428 3584 3742 3212 
Q 4056 2841 4056 2131 
z
" transform="scale(0.015625)"/>
     </defs>
     <use xlink:href="#DejaVuSans-Bold-3a"/>
     <use xlink:href="#DejaVuSans-Bold-48" transform="translate(106.734375 0)"/>
     <use xlink:href="#DejaVuSans-Bold-4c" transform="translate(174.5625 0)"/>
     <use xlink:href="#DejaVuSans-Bold-4a" transform="translate(208.84375 0)"/>
     <use xlink:href="#DejaVuSans-Bold-4b" transform="translate(280.421875 0)"/>
     <use xlink:href="#DejaVuSans-Bold-57" transform="translate(351.609375 0)"/>
     <use xlink:href="#DejaVuSans-Bold-48" transform="translate(399.40625 0)"/>
     <use xlink:href="#DejaVuSans-Bold-47" transform="translate(467.234375 0)"/>
    </g>
    <!-- recurrence graph -->
    <g style="fill: #8b5cf6" transform="translate(238.160553 169.557318) scale(0.09 -0.09)">
     <defs>
      <path id="DejaVuSans-Bold-58" d="M 500 1363 
L 500 3500 
L 1625 3500 
L 1625 3150 
Q 1625 2866 1622 2436 
Q 1619 2006 1619 1863 
Q 1619 1441 1641 1255 
Q 1663 1069 1716 984 
Q 1784 875 1895 815 
Q 2006 756 2150 756 
Q 2500 756 2700 1025 
Q 2900 1294 2900 1772 
L 2900 3500 
L 4019 3500 
L 4019 0 
L 2900 0 
L 2900 506 
Q 2647 200 2364 54 
Q 2081 -91 1741 -91 
Q 1134 -91 817 281 
Q 500 653 500 1363 
z
" transform="scale(0.015625)"/>
      <path id="DejaVuSans-Bold-53" d="M 1656 506 
L 1656 -1331 
L 538 -1331 
L 538 3500 
L 1656 3500 
L 1656 2988 
Q 1888 3294 2169 3439 
Q 2450 3584 2816 3584 
Q 3463 3584 3878 3070 
Q 4294 2556 4294 1747 
Q 4294 938 3878 423 
Q 3463 -91 2816 -91 
Q 2450 -91 2169 54 
Q 1888 200 1656 506 
z
M 2400 2772 
Q 2041 2772 1848 2508 
Q 1656 2244 1656 1747 
Q 1656 1250 1848 986 
Q 2041 722 2400 722 
Q 2759 722 2948 984 
Q 3138 1247 3138 1747 
Q 3138 2247 2948 2509 
Q 2759 2772 2400 2772 
z
" transform="scale(0.015625)"/>
     </defs>
     <use xlink:href="#DejaVuSans-Bold-55"/>
     <use xlink:href="#DejaVuSans-Bold-48" transform="translate(49.3125 0)"/>
     <use xlink:href="#DejaVuSans-Bold-46" transform="translate(117.140625 0)"/>
     <use xlink:href="#DejaVuSans-Bold-58" transform="translate(176.421875 0)"/>
     <use xlink:href="#DejaVuSans-Bold-55" transform="translate(247.609375 0)"/>
     <use xlink:href="#DejaVuSans-Bold-55" transform="translate(296.921875 0)"/>
     <use xlink:href="#DejaVuSans-Bold-48" transform="translate(346.234375 0)"/>
     <use xlink:href="#DejaVuSans-Bold-51" transform="translate(414.0625 0)"/>
     <use xlink:href="#DejaVuSans-Bold-46" transform="translate(485.25 0)"/>
     <use xlink:href="#DejaVuSans-Bold-48" transform="translate(544.53125 0)"/>
     <use xlink:href="#DejaVuSans-Bold-3" transform="translate(612.359375 0)"/>
     <use xlink:href="#DejaVuSans-Bold-4a" transform="translate(647.171875 0)"/>
     <use xlink:href="#DejaVuSans-Bold-55" transform="translate(718.75 0)"/>
     <use xlink:href="#DejaVuSans-Bold-44" transform="translate(768.0625 0)"/>
     <use xlink:href="#DejaVuSans-Bold-53" transform="translate(835.546875 0)"/>
     <use xlink:href="#DejaVuSans-Bold-4b" transform="translate(907.125 0)"/>
    </g>
   </g>
   <g id="text_4">
    <!-- CNN -->
    <g style="fill: #1e293b" transform="translate(380.088624 158.754154) scale(0.09 -0.09)">
     <defs>
      <path id="DejaVuSans-Bold-26" d="M 4288 256 
Q 3956 84 3597 -3 
Q 3238 -91 2847 -91 
Q 1681 -91 1000 561 
Q 319 1213 319 2328 
Q 319 3447 1000 4098 
Q 1681 4750 2847 4750 
Q 3238 4750 3597 4662 
Q 3956 4575 4288 4403 
L 4288 3438 
Q 3953 3666 3628 3772 
Q 3303 3878 2944 3878 
Q 2300 3878 1931 3465 
Q 1563 3053 1563 2328 
Q 1563 1606 1931 1193 
Q 2300 781 2944 781 
Q 3303 781 3628 887 
Q 3953 994 4288 1222 
L 4288 256 
z
" transform="scale(0.015625)"/>
      <path id="DejaVuSans-Bold-31" d="M 588 4666 
L 1931 4666 
L 3628 1466 
L 3628 4666 
L 4769 4666 
L 4769 0 
L 3425 0 
L 1728 3200 
L 1728 0 
L 588 0 
L 588 4666 
z
" transform="scale(0.015625)"/>
     </defs>
     <use xlink:href="#DejaVuSans-Bold-26"/>
     <use xlink:href="#DejaVuSans-Bold-31" transform="translate(73.390625 0)"/>
     <use xlink:href="#DejaVuSans-Bold-31" transform="translate(157.078125 0)"/>
    </g>
    <!-- classifier -->
    <g style="fill: #1e293b" transform="translate(368.169952 169.556615) scale(0.09 -0.09)">
     <defs>
      <path id="DejaVuSans-Bold-4f" d="M 538 4863 
L 1656 4863 
L 1656 0 
L 538 0 
L 538 4863 
z
" transform="scale(0.015625)"/>
      <path id="DejaVuSans-Bold-13ab" d="M 3078 4863 
L 4206 4863 
L 4206 3950 
L 3078 3950 
L 3078 4863 
z
M 2847 4863 
L 2847 4128 
L 2228 4128 
Q 1994 4128 1903 4042 
Q 1813 3956 1813 3744 
L 1813 3500 
L 4206 3500 
L 4206 0 
L 3078 0 
L 3078 2700 
L 1813 2700 
L 1813 0 
L 684 0 
L 684 2700 
L 134 2700 
L 134 3500 
L 684 3500 
L 684 3744 
Q 684 4316 1003 4589 
Q 1322 4863 1991 4863 
L 2847 4863 
z
" transform="scale(0.015625)"/>
     </defs>
     <use xlink:href="#DejaVuSans-Bold-46"/>
     <use xlink:href="#DejaVuSans-Bold-4f" transform="translate(59.28125 0)"/>
     <use xlink:href="#DejaVuSans-Bold-44" transform="translate(93.5625 0)"/>
     <use xlink:href="#DejaVuSans-Bold-56" transform="translate(161.046875 0)"/>
     <use xlink:href="#DejaVuSans-Bold-56" transform="translate(220.5625 0)"/>
     <use xlink:href="#DejaVuSans-Bold-4c" transform="translate(280.078125 0)"/>
     <use xlink:href="#DejaVuSans-Bold-13ab" transform="translate(314.359375 0)"/>
     <use xlink:href="#DejaVuSans-Bold-48" transform="translate(388.484375 0)"/>
     <use xlink:href="#DejaVuSans-Bold-55" transform="translate(456.3125 0)"/>
    </g>
   </g>
   <g id="text_5">
    <!-- Appliance -->
    <g style="fill: #1e293b" transform="translate(463.245306 157.853978) scale(0.09 -0.09)">
     <use xlink:href="#DejaVuSans-Bold-24"/>
     <use xlink:href="#DejaVuSans-Bold-53" transform="translate(77.390625 0)"/>
     <use xlink:href="#DejaVuSans-Bold-53" transform="translate(148.96875 0)"/>
     <use xlink:href="#DejaVuSans-Bold-4f" transform="translate(220.546875 0)"/>
     <use xlink:href="#DejaVuSans-Bold-4c" transform="translate(254.828125 0)"/>
     <use xlink:href="#DejaVuSans-Bold-44" transform="translate(289.109375 0)"/>
     <use xlink:href="#DejaVuSans-Bold-51" transform="translate(356.59375 0)"/>
     <use xlink:href="#DejaVuSans-Bold-46" transform="translate(427.78125 0)"/>
     <use xlink:href="#DejaVuSans-Bold-48" transform="translate(487.0625 0)"/>
    </g>
   </g>
   <g id="text_6">
    <!-- FROM ONE ACTIVATION TO ONE LABEL -->
    <g style="fill: #1e293b" transform="translate(136.640445 30.830769) scale(0.13 -0.13)">
     <defs>
      <path id="DejaVuSans-Bold-29" d="M 588 4666 
L 3834 4666 
L 3834 3756 
L 1791 3756 
L 1791 2888 
L 3713 2888 
L 3713 1978 
L 1791 1978 
L 1791 0 
L 588 0 
L 588 4666 
z
" transform="scale(0.015625)"/>
      <path id="DejaVuSans-Bold-35" d="M 2297 2597 
Q 2675 2597 2839 2737 
Q 3003 2878 3003 3200 
Q 3003 3519 2839 3656 
Q 2675 3794 2297 3794 
L 1791 3794 
L 1791 2597 
L 2297 2597 
z
M 1791 1766 
L 1791 0 
L 588 0 
L 588 4666 
L 2425 4666 
Q 3347 4666 3776 4356 
Q 4206 4047 4206 3378 
Q 4206 2916 3982 2619 
Q 3759 2322 3309 2181 
Q 3556 2125 3751 1926 
Q 3947 1728 4147 1325 
L 4800 0 
L 3519 0 
L 2950 1159 
Q 2778 1509 2601 1637 
Q 2425 1766 2131 1766 
L 1791 1766 
z
" transform="scale(0.015625)"/>
      <path id="DejaVuSans-Bold-32" d="M 2719 3878 
Q 2169 3878 1866 3472 
Q 1563 3066 1563 2328 
Q 1563 1594 1866 1187 
Q 2169 781 2719 781 
Q 3272 781 3575 1187 
Q 3878 1594 3878 2328 
Q 3878 3066 3575 3472 
Q 3272 3878 2719 3878 
z
M 2719 4750 
Q 3844 4750 4481 4106 
Q 5119 3463 5119 2328 
Q 5119 1197 4481 553 
Q 3844 -91 2719 -91 
Q 1597 -91 958 553 
Q 319 1197 319 2328 
Q 319 3463 958 4106 
Q 1597 4750 2719 4750 
z
" transform="scale(0.015625)"/>
      <path id="DejaVuSans-Bold-30" d="M 588 4666 
L 2119 4666 
L 3181 2169 
L 4250 4666 
L 5778 4666 
L 5778 0 
L 4641 0 
L 4641 3413 
L 3566 897 
L 2803 897 
L 1728 3413 
L 1728 0 
L 588 0 
L 588 4666 
z
" transform="scale(0.015625)"/>
      <path id="DejaVuSans-Bold-28" d="M 588 4666 
L 3834 4666 
L 3834 3756 
L 1791 3756 
L 1791 2888 
L 3713 2888 
L 3713 1978 
L 1791 1978 
L 1791 909 
L 3903 909 
L 3903 0 
L 588 0 
L 588 4666 
z
" transform="scale(0.015625)"/>
      <path id="DejaVuSans-Bold-37" d="M 31 4666 
L 4331 4666 
L 4331 3756 
L 2784 3756 
L 2784 0 
L 1581 0 
L 1581 3756 
L 31 3756 
L 31 4666 
z
" transform="scale(0.015625)"/>
      <path id="DejaVuSans-Bold-2c" d="M 588 4666 
L 1791 4666 
L 1791 0 
L 588 0 
L 588 4666 
z
" transform="scale(0.015625)"/>
      <path id="DejaVuSans-Bold-39" d="M 31 4666 
L 1241 4666 
L 2478 1222 
L 3713 4666 
L 4922 4666 
L 3194 0 
L 1759 0 
L 31 4666 
z
" transform="scale(0.015625)"/>
      <path id="DejaVuSans-Bold-2f" d="M 588 4666 
L 1791 4666 
L 1791 909 
L 3903 909 
L 3903 0 
L 588 0 
L 588 4666 
z
" transform="scale(0.015625)"/>
      <path id="DejaVuSans-Bold-25" d="M 2456 2859 
Q 2741 2859 2887 2984 
Q 3034 3109 3034 3353 
Q 3034 3594 2887 3720 
Q 2741 3847 2456 3847 
L 1791 3847 
L 1791 2859 
L 2456 2859 
z
M 2497 819 
Q 2859 819 3042 972 
Q 3225 1125 3225 1434 
Q 3225 1738 3044 1889 
Q 2863 2041 2497 2041 
L 1791 2041 
L 1791 819 
L 2497 819 
z
M 3616 2497 
Q 4003 2384 4215 2081 
Q 4428 1778 4428 1338 
Q 4428 663 3972 331 
Q 3516 0 2584 0 
L 588 0 
L 588 4666 
L 2394 4666 
Q 3366 4666 3802 4372 
Q 4238 4078 4238 3431 
Q 4238 3091 4078 2852 
Q 3919 2613 3616 2497 
z
" transform="scale(0.015625)"/>
     </defs>
     <use xlink:href="#DejaVuSans-Bold-29"/>
     <use xlink:href="#DejaVuSans-Bold-35" transform="translate(68.3125 0)"/>
     <use xlink:href="#DejaVuSans-Bold-32" transform="translate(145.3125 0)"/>
     <use xlink:href="#DejaVuSans-Bold-30" transform="translate(230.328125 0)"/>
     <use xlink:href="#DejaVuSans-Bold-3" transform="translate(329.84375 0)"/>
     <use xlink:href="#DejaVuSans-Bold-32" transform="translate(364.65625 0)"/>
     <use xlink:href="#DejaVuSans-Bold-31" transform="translate(449.671875 0)"/>
     <use xlink:href="#DejaVuSans-Bold-28" transform="translate(533.359375 0)"/>
     <use xlink:href="#DejaVuSans-Bold-3" transform="translate(601.671875 0)"/>
     <use xlink:href="#DejaVuSans-Bold-24" transform="translate(636.484375 0)"/>
     <use xlink:href="#DejaVuSans-Bold-26" transform="translate(713.875 0)"/>
     <use xlink:href="#DejaVuSans-Bold-37" transform="translate(787.265625 0)"/>
     <use xlink:href="#DejaVuSans-Bold-2c" transform="translate(855.484375 0)"/>
     <use xlink:href="#DejaVuSans-Bold-39" transform="translate(892.6875 0)"/>
     <use xlink:href="#DejaVuSans-Bold-24" transform="translate(963.296875 0)"/>
     <use xlink:href="#DejaVuSans-Bold-37" transform="translate(1032.921875 0)"/>
     <use xlink:href="#DejaVuSans-Bold-2c" transform="translate(1101.140625 0)"/>
     <use xlink:href="#DejaVuSans-Bold-32" transform="translate(1138.34375 0)"/>
     <use xlink:href="#DejaVuSans-Bold-31" transform="translate(1223.359375 0)"/>
     <use xlink:href="#DejaVuSans-Bold-3" transform="translate(1307.046875 0)"/>
     <use xlink:href="#DejaVuSans-Bold-37" transform="translate(1341.859375 0)"/>
     <use xlink:href="#DejaVuSans-Bold-32" transform="translate(1410.078125 0)"/>
     <use xlink:href="#DejaVuSans-Bold-3" transform="translate(1495.09375 0)"/>
     <use xlink:href="#DejaVuSans-Bold-32" transform="translate(1529.90625 0)"/>
     <use xlink:href="#DejaVuSans-Bold-31" transform="translate(1614.921875 0)"/>
     <use xlink:href="#DejaVuSans-Bold-28" transform="translate(1698.609375 0)"/>
     <use xlink:href="#DejaVuSans-Bold-3" transform="translate(1766.921875 0)"/>
     <use xlink:href="#DejaVuSans-Bold-2f" transform="translate(1801.734375 0)"/>
     <use xlink:href="#DejaVuSans-Bold-24" transform="translate(1865.453125 0)"/>
     <use xlink:href="#DejaVuSans-Bold-25" transform="translate(1942.84375 0)"/>
     <use xlink:href="#DejaVuSans-Bold-28" transform="translate(2019.0625 0)"/>
     <use xlink:href="#DejaVuSans-Bold-2f" transform="translate(2087.375 0)"/>
    </g>
   </g>
   <g id="text_7">
    <!-- the same three-layer CNN classifies WRG, V-I, and AWRG images alike -->
    <g style="fill: #1e293b" transform="translate(109.804078 211.107692) scale(0.095 -0.095)">
     <defs>
      <path id="DejaVuSans-57" d="M 1172 4494 
L 1172 3500 
L 2356 3500 
L 2356 3053 
L 1172 3053 
L 1172 1153 
Q 1172 725 1289 603 
Q 1406 481 1766 481 
L 2356 481 
L 2356 0 
L 1766 0 
Q 1100 0 847 248 
Q 594 497 594 1153 
L 594 3053 
L 172 3053 
L 172 3500 
L 594 3500 
L 594 4494 
L 1172 4494 
z
" transform="scale(0.015625)"/>
      <path id="DejaVuSans-4b" d="M 3513 2113 
L 3513 0 
L 2938 0 
L 2938 2094 
Q 2938 2591 2744 2837 
Q 2550 3084 2163 3084 
Q 1697 3084 1428 2787 
Q 1159 2491 1159 1978 
L 1159 0 
L 581 0 
L 581 4863 
L 1159 4863 
L 1159 2956 
Q 1366 3272 1645 3428 
Q 1925 3584 2291 3584 
Q 2894 3584 3203 3211 
Q 3513 2838 3513 2113 
z
" transform="scale(0.015625)"/>
      <path id="DejaVuSans-48" d="M 3597 1894 
L 3597 1613 
L 953 1613 
Q 991 1019 1311 708 
Q 1631 397 2203 397 
Q 2534 397 2845 478 
Q 3156 559 3463 722 
L 3463 178 
Q 3153 47 2828 -22 
Q 2503 -91 2169 -91 
Q 1331 -91 842 396 
Q 353 884 353 1716 
Q 353 2575 817 3079 
Q 1281 3584 2069 3584 
Q 2775 3584 3186 3129 
Q 3597 2675 3597 1894 
z
M 3022 2063 
Q 3016 2534 2758 2815 
Q 2500 3097 2075 3097 
Q 1594 3097 1305 2825 
Q 1016 2553 972 2059 
L 3022 2063 
z
" transform="scale(0.015625)"/>
      <path id="DejaVuSans-3" transform="scale(0.015625)"/>
      <path id="DejaVuSans-56" d="M 2834 3397 
L 2834 2853 
Q 2591 2978 2328 3040 
Q 2066 3103 1784 3103 
Q 1356 3103 1142 2972 
Q 928 2841 928 2578 
Q 928 2378 1081 2264 
Q 1234 2150 1697 2047 
L 1894 2003 
Q 2506 1872 2764 1633 
Q 3022 1394 3022 966 
Q 3022 478 2636 193 
Q 2250 -91 1575 -91 
Q 1294 -91 989 -36 
Q 684 19 347 128 
L 347 722 
Q 666 556 975 473 
Q 1284 391 1588 391 
Q 1994 391 2212 530 
Q 2431 669 2431 922 
Q 2431 1156 2273 1281 
Q 2116 1406 1581 1522 
L 1381 1569 
Q 847 1681 609 1914 
Q 372 2147 372 2553 
Q 372 3047 722 3315 
Q 1072 3584 1716 3584 
Q 2034 3584 2315 3537 
Q 2597 3491 2834 3397 
z
" transform="scale(0.015625)"/>
      <path id="DejaVuSans-44" d="M 2194 1759 
Q 1497 1759 1228 1600 
Q 959 1441 959 1056 
Q 959 750 1161 570 
Q 1363 391 1709 391 
Q 2188 391 2477 730 
Q 2766 1069 2766 1631 
L 2766 1759 
L 2194 1759 
z
M 3341 1997 
L 3341 0 
L 2766 0 
L 2766 531 
Q 2569 213 2275 61 
Q 1981 -91 1556 -91 
Q 1019 -91 701 211 
Q 384 513 384 1019 
Q 384 1609 779 1909 
Q 1175 2209 1959 2209 
L 2766 2209 
L 2766 2266 
Q 2766 2663 2505 2880 
Q 2244 3097 1772 3097 
Q 1472 3097 1187 3025 
Q 903 2953 641 2809 
L 641 3341 
Q 956 3463 1253 3523 
Q 1550 3584 1831 3584 
Q 2591 3584 2966 3190 
Q 3341 2797 3341 1997 
z
" transform="scale(0.015625)"/>
      <path id="DejaVuSans-50" d="M 3328 2828 
Q 3544 3216 3844 3400 
Q 4144 3584 4550 3584 
Q 5097 3584 5394 3201 
Q 5691 2819 5691 2113 
L 5691 0 
L 5113 0 
L 5113 2094 
Q 5113 2597 4934 2840 
Q 4756 3084 4391 3084 
Q 3944 3084 3684 2787 
Q 3425 2491 3425 1978 
L 3425 0 
L 2847 0 
L 2847 2094 
Q 2847 2600 2669 2842 
Q 2491 3084 2119 3084 
Q 1678 3084 1418 2786 
Q 1159 2488 1159 1978 
L 1159 0 
L 581 0 
L 581 3500 
L 1159 3500 
L 1159 2956 
Q 1356 3278 1631 3431 
Q 1906 3584 2284 3584 
Q 2666 3584 2933 3390 
Q 3200 3197 3328 2828 
z
" transform="scale(0.015625)"/>
      <path id="DejaVuSans-55" d="M 2631 2963 
Q 2534 3019 2420 3045 
Q 2306 3072 2169 3072 
Q 1681 3072 1420 2755 
Q 1159 2438 1159 1844 
L 1159 0 
L 581 0 
L 581 3500 
L 1159 3500 
L 1159 2956 
Q 1341 3275 1631 3429 
Q 1922 3584 2338 3584 
Q 2397 3584 2469 3576 
Q 2541 3569 2628 3553 
L 2631 2963 
z
" transform="scale(0.015625)"/>
      <path id="DejaVuSans-10" d="M 313 2009 
L 1997 2009 
L 1997 1497 
L 313 1497 
L 313 2009 
z
" transform="scale(0.015625)"/>
      <path id="DejaVuSans-4f" d="M 603 4863 
L 1178 4863 
L 1178 0 
L 603 0 
L 603 4863 
z
" transform="scale(0.015625)"/>
      <path id="DejaVuSans-5c" d="M 2059 -325 
Q 1816 -950 1584 -1140 
Q 1353 -1331 966 -1331 
L 506 -1331 
L 506 -850 
L 844 -850 
Q 1081 -850 1212 -737 
Q 1344 -625 1503 -206 
L 1606 56 
L 191 3500 
L 800 3500 
L 1894 763 
L 2988 3500 
L 3597 3500 
L 2059 -325 
z
" transform="scale(0.015625)"/>
      <path id="DejaVuSans-26" d="M 4122 4306 
L 4122 3641 
Q 3803 3938 3442 4084 
Q 3081 4231 2675 4231 
Q 1875 4231 1450 3742 
Q 1025 3253 1025 2328 
Q 1025 1406 1450 917 
Q 1875 428 2675 428 
Q 3081 428 3442 575 
Q 3803 722 4122 1019 
L 4122 359 
Q 3791 134 3420 21 
Q 3050 -91 2638 -91 
Q 1578 -91 968 557 
Q 359 1206 359 2328 
Q 359 3453 968 4101 
Q 1578 4750 2638 4750 
Q 3056 4750 3426 4639 
Q 3797 4528 4122 4306 
z
" transform="scale(0.015625)"/>
      <path id="DejaVuSans-31" d="M 628 4666 
L 1478 4666 
L 3547 763 
L 3547 4666 
L 4159 4666 
L 4159 0 
L 3309 0 
L 1241 3903 
L 1241 0 
L 628 0 
L 628 4666 
z
" transform="scale(0.015625)"/>
      <path id="DejaVuSans-46" d="M 3122 3366 
L 3122 2828 
Q 2878 2963 2633 3030 
Q 2388 3097 2138 3097 
Q 1578 3097 1268 2742 
Q 959 2388 959 1747 
Q 959 1106 1268 751 
Q 1578 397 2138 397 
Q 2388 397 2633 464 
Q 2878 531 3122 666 
L 3122 134 
Q 2881 22 2623 -34 
Q 2366 -91 2075 -91 
Q 1284 -91 818 406 
Q 353 903 353 1747 
Q 353 2603 823 3093 
Q 1294 3584 2113 3584 
Q 2378 3584 2631 3529 
Q 2884 3475 3122 3366 
z
" transform="scale(0.015625)"/>
      <path id="DejaVuSans-4c" d="M 603 3500 
L 1178 3500 
L 1178 0 
L 603 0 
L 603 3500 
z
M 603 4863 
L 1178 4863 
L 1178 4134 
L 603 4134 
L 603 4863 
z
" transform="scale(0.015625)"/>
      <path id="DejaVuSans-13af" d="M 3431 3500 
L 3431 0 
L 2853 0 
L 2853 3053 
L 1275 3053 
L 1275 0 
L 697 0 
L 697 3053 
L 147 3053 
L 147 3500 
L 697 3500 
L 697 3744 
Q 697 4316 967 4589 
Q 1238 4863 1797 4863 
L 2375 4863 
L 2375 4384 
L 1825 4384 
Q 1516 4384 1395 4259 
Q 1275 4134 1275 3809 
L 1275 3500 
L 3431 3500 
z
M 2853 4856 
L 3431 4856 
L 3431 4128 
L 2853 4128 
L 2853 4856 
z
" transform="scale(0.015625)"/>
      <path id="DejaVuSans-3a" d="M 213 4666 
L 850 4666 
L 1831 722 
L 2809 4666 
L 3519 4666 
L 4500 722 
L 5478 4666 
L 6119 4666 
L 4947 0 
L 4153 0 
L 3169 4050 
L 2175 0 
L 1381 0 
L 213 4666 
z
" transform="scale(0.015625)"/>
      <path id="DejaVuSans-35" d="M 2841 2188 
Q 3044 2119 3236 1894 
Q 3428 1669 3622 1275 
L 4263 0 
L 3584 0 
L 2988 1197 
Q 2756 1666 2539 1819 
Q 2322 1972 1947 1972 
L 1259 1972 
L 1259 0 
L 628 0 
L 628 4666 
L 2053 4666 
Q 2853 4666 3247 4331 
Q 3641 3997 3641 3322 
Q 3641 2881 3436 2590 
Q 3231 2300 2841 2188 
z
M 1259 4147 
L 1259 2491 
L 2053 2491 
Q 2509 2491 2742 2702 
Q 2975 2913 2975 3322 
Q 2975 3731 2742 3939 
Q 2509 4147 2053 4147 
L 1259 4147 
z
" transform="scale(0.015625)"/>
      <path id="DejaVuSans-2a" d="M 3809 666 
L 3809 1919 
L 2778 1919 
L 2778 2438 
L 4434 2438 
L 4434 434 
Q 4069 175 3628 42 
Q 3188 -91 2688 -91 
Q 1594 -91 976 548 
Q 359 1188 359 2328 
Q 359 3472 976 4111 
Q 1594 4750 2688 4750 
Q 3144 4750 3555 4637 
Q 3966 4525 4313 4306 
L 4313 3634 
Q 3963 3931 3569 4081 
Q 3175 4231 2741 4231 
Q 1884 4231 1454 3753 
Q 1025 3275 1025 2328 
Q 1025 1384 1454 906 
Q 1884 428 2741 428 
Q 3075 428 3337 486 
Q 3600 544 3809 666 
z
" transform="scale(0.015625)"/>
      <path id="DejaVuSans-f" d="M 750 794 
L 1409 794 
L 1409 256 
L 897 -744 
L 494 -744 
L 750 256 
L 750 794 
z
" transform="scale(0.015625)"/>
      <path id="DejaVuSans-39" d="M 1831 0 
L 50 4666 
L 709 4666 
L 2188 738 
L 3669 4666 
L 4325 4666 
L 2547 0 
L 1831 0 
z
" transform="scale(0.015625)"/>
      <path id="DejaVuSans-2c" d="M 628 4666 
L 1259 4666 
L 1259 0 
L 628 0 
L 628 4666 
z
" transform="scale(0.015625)"/>
      <path id="DejaVuSans-51" d="M 3513 2113 
L 3513 0 
L 2938 0 
L 2938 2094 
Q 2938 2591 2744 2837 
Q 2550 3084 2163 3084 
Q 1697 3084 1428 2787 
Q 1159 2491 1159 1978 
L 1159 0 
L 581 0 
L 581 3500 
L 1159 3500 
L 1159 2956 
Q 1366 3272 1645 3428 
Q 1925 3584 2291 3584 
Q 2894 3584 3203 3211 
Q 3513 2838 3513 2113 
z
" transform="scale(0.015625)"/>
      <path id="DejaVuSans-47" d="M 2906 2969 
L 2906 4863 
L 3481 4863 
L 3481 0 
L 2906 0 
L 2906 525 
Q 2725 213 2448 61 
Q 2172 -91 1784 -91 
Q 1150 -91 751 415 
Q 353 922 353 1747 
Q 353 2572 751 3078 
Q 1150 3584 1784 3584 
Q 2172 3584 2448 3432 
Q 2725 3281 2906 2969 
z
M 947 1747 
Q 947 1113 1208 752 
Q 1469 391 1925 391 
Q 2381 391 2643 752 
Q 2906 1113 2906 1747 
Q 2906 2381 2643 2742 
Q 2381 3103 1925 3103 
Q 1469 3103 1208 2742 
Q 947 2381 947 1747 
z
" transform="scale(0.015625)"/>
      <path id="DejaVuSans-24" d="M 2188 4044 
L 1331 1722 
L 3047 1722 
L 2188 4044 
z
M 1831 4666 
L 2547 4666 
L 4325 0 
L 3669 0 
L 3244 1197 
L 1141 1197 
L 716 0 
L 50 0 
L 1831 4666 
z
" transform="scale(0.015625)"/>
      <path id="DejaVuSans-4a" d="M 2906 1791 
Q 2906 2416 2648 2759 
Q 2391 3103 1925 3103 
Q 1463 3103 1205 2759 
Q 947 2416 947 1791 
Q 947 1169 1205 825 
Q 1463 481 1925 481 
Q 2391 481 2648 825 
Q 2906 1169 2906 1791 
z
M 3481 434 
Q 3481 -459 3084 -895 
Q 2688 -1331 1869 -1331 
Q 1566 -1331 1297 -1286 
Q 1028 -1241 775 -1147 
L 775 -588 
Q 1028 -725 1275 -790 
Q 1522 -856 1778 -856 
Q 2344 -856 2625 -561 
Q 2906 -266 2906 331 
L 2906 616 
Q 2728 306 2450 153 
Q 2172 0 1784 0 
Q 1141 0 747 490 
Q 353 981 353 1791 
Q 353 2603 747 3093 
Q 1141 3584 1784 3584 
Q 2172 3584 2450 3431 
Q 2728 3278 2906 2969 
L 2906 3500 
L 3481 3500 
L 3481 434 
z
" transform="scale(0.015625)"/>
      <path id="DejaVuSans-4e" d="M 581 4863 
L 1159 4863 
L 1159 1991 
L 2875 3500 
L 3609 3500 
L 1753 1863 
L 3688 0 
L 2938 0 
L 1159 1709 
L 1159 0 
L 581 0 
L 581 4863 
z
" transform="scale(0.015625)"/>
     </defs>
     <use xlink:href="#DejaVuSans-57"/>
     <use xlink:href="#DejaVuSans-4b" transform="translate(39.203125 0)"/>
     <use xlink:href="#DejaVuSans-48" transform="translate(102.578125 0)"/>
     <use xlink:href="#DejaVuSans-3" transform="translate(164.109375 0)"/>
     <use xlink:href="#DejaVuSans-56" transform="translate(195.890625 0)"/>
     <use xlink:href="#DejaVuSans-44" transform="translate(247.984375 0)"/>
     <use xlink:href="#DejaVuSans-50" transform="translate(309.265625 0)"/>
     <use xlink:href="#DejaVuSans-48" transform="translate(406.671875 0)"/>
     <use xlink:href="#DejaVuSans-3" transform="translate(468.203125 0)"/>
     <use xlink:href="#DejaVuSans-57" transform="translate(499.984375 0)"/>
     <use xlink:href="#DejaVuSans-4b" transform="translate(539.1875 0)"/>
     <use xlink:href="#DejaVuSans-55" transform="translate(602.5625 0)"/>
     <use xlink:href="#DejaVuSans-48" transform="translate(641.46875 0)"/>
     <use xlink:href="#DejaVuSans-48" transform="translate(703 0)"/>
     <use xlink:href="#DejaVuSans-10" transform="translate(764.53125 0)"/>
     <use xlink:href="#DejaVuSans-4f" transform="translate(800.609375 0)"/>
     <use xlink:href="#DejaVuSans-44" transform="translate(828.390625 0)"/>
     <use xlink:href="#DejaVuSans-5c" transform="translate(889.671875 0)"/>
     <use xlink:href="#DejaVuSans-48" transform="translate(948.859375 0)"/>
     <use xlink:href="#DejaVuSans-55" transform="translate(1010.390625 0)"/>
     <use xlink:href="#DejaVuSans-3" transform="translate(1051.5 0)"/>
     <use xlink:href="#DejaVuSans-26" transform="translate(1083.28125 0)"/>
     <use xlink:href="#DejaVuSans-31" transform="translate(1153.109375 0)"/>
     <use xlink:href="#DejaVuSans-31" transform="translate(1227.921875 0)"/>
     <use xlink:href="#DejaVuSans-3" transform="translate(1302.734375 0)"/>
     <use xlink:href="#DejaVuSans-46" transform="translate(1334.515625 0)"/>
     <use xlink:href="#DejaVuSans-4f" transform="translate(1389.5 0)"/>
     <use xlink:href="#DejaVuSans-44" transform="translate(1417.28125 0)"/>
     <use xlink:href="#DejaVuSans-56" transform="translate(1478.5625 0)"/>
     <use xlink:href="#DejaVuSans-56" transform="translate(1530.65625 0)"/>
     <use xlink:href="#DejaVuSans-4c" transform="translate(1582.75 0)"/>
     <use xlink:href="#DejaVuSans-13af" transform="translate(1610.53125 0)"/>
     <use xlink:href="#DejaVuSans-48" transform="translate(1673.515625 0)"/>
     <use xlink:href="#DejaVuSans-56" transform="translate(1735.046875 0)"/>
     <use xlink:href="#DejaVuSans-3" transform="translate(1787.140625 0)"/>
     <use xlink:href="#DejaVuSans-3a" transform="translate(1818.921875 0)"/>
     <use xlink:href="#DejaVuSans-35" transform="translate(1917.796875 0)"/>
     <use xlink:href="#DejaVuSans-2a" transform="translate(1987.28125 0)"/>
     <use xlink:href="#DejaVuSans-f" transform="translate(2064.765625 0)"/>
     <use xlink:href="#DejaVuSans-3" transform="translate(2096.546875 0)"/>
     <use xlink:href="#DejaVuSans-39" transform="translate(2128.328125 0)"/>
     <use xlink:href="#DejaVuSans-10" transform="translate(2190.875 0)"/>
     <use xlink:href="#DejaVuSans-2c" transform="translate(2226.953125 0)"/>
     <use xlink:href="#DejaVuSans-f" transform="translate(2256.453125 0)"/>
     <use xlink:href="#DejaVuSans-3" transform="translate(2288.234375 0)"/>
     <use xlink:href="#DejaVuSans-44" transform="translate(2320.015625 0)"/>
     <use xlink:href="#DejaVuSans-51" transform="translate(2381.296875 0)"/>
     <use xlink:href="#DejaVuSans-47" transform="translate(2444.671875 0)"/>
     <use xlink:href="#DejaVuSans-3" transform="translate(2508.15625 0)"/>
     <use xlink:href="#DejaVuSans-24" transform="translate(2539.9375 0)"/>
     <use xlink:href="#DejaVuSans-3a" transform="translate(2602.875 0)"/>
     <use xlink:href="#DejaVuSans-35" transform="translate(2701.75 0)"/>
     <use xlink:href="#DejaVuSans-2a" transform="translate(2771.234375 0)"/>
     <use xlink:href="#DejaVuSans-3" transform="translate(2848.71875 0)"/>
     <use xlink:href="#DejaVuSans-4c" transform="translate(2880.5 0)"/>
     <use xlink:href="#DejaVuSans-50" transform="translate(2908.28125 0)"/>
     <use xlink:href="#DejaVuSans-44" transform="translate(3005.6875 0)"/>
     <use xlink:href="#DejaVuSans-4a" transform="translate(3066.96875 0)"/>
     <use xlink:href="#DejaVuSans-48" transform="translate(3130.453125 0)"/>
     <use xlink:href="#DejaVuSans-56" transform="translate(3191.984375 0)"/>
     <use xlink:href="#DejaVuSans-3" transform="translate(3244.078125 0)"/>
     <use xlink:href="#DejaVuSans-44" transform="translate(3275.859375 0)"/>
     <use xlink:href="#DejaVuSans-4f" transform="translate(3337.140625 0)"/>
     <use xlink:href="#DejaVuSans-4c" transform="translate(3364.921875 0)"/>
     <use xlink:href="#DejaVuSans-4e" transform="translate(3392.703125 0)"/>
     <use xlink:href="#DejaVuSans-48" transform="translate(3447.046875 0)"/>
    </g>
   </g>
  </g>
 </g>
 <defs>
  <clipPath id="p497a34b478">
   <rect x="13.2" y="10.8" width="520.8" height="223.2"/>
  </clipPath>
 </defs>
</svg>
