<svg viewBox="0 0 540 260" fill="none" xmlns="http://www.w3.org/2000/svg">
  <rect x="1" y="1" width="538" height="258" rx="12" fill="#F8FAFC" stroke="#E2E8F0" stroke-width="1.5"/>

  <!-- Zone shading -->
  <rect x="40" y="60" width="182" height="180" fill="#7C3AED" fill-opacity="0.06"/>
  <rect x="222" y="60" width="278" height="180" fill="#0369A1" fill-opacity="0.05"/>

  <!-- Baseline -->
  <line x1="40" y1="150" x2="500" y2="150" stroke="#CBD5E1" stroke-width="1" stroke-dasharray="2 3"/>

  <!-- Divider between transient and steady state -->
  <line x1="222" y1="60" x2="222" y2="228" stroke="#94A3B8" stroke-width="1.5" stroke-dasharray="4 3"/>
  <text x="222" y="246" text-anchor="middle" font-family="'Libre Franklin', system-ui, sans-serif" font-size="9" fill="#64748B">switch-on settles</text>

  <!-- Waveform: sharp decaying oscillation into a steady, smooth cycle -->
  <polyline
    points="40.0,150.0 42.0,110.2 44.0,95.3 46.0,112.4 48.0,150.0 50.0,185.5 52.0,198.8 54.0,183.5 56.0,150.0 58.0,118.3 60.0,106.4 62.0,120.0 64.0,150.0 66.0,178.4 68.0,189.2 70.0,177.0 72.0,150.0 74.0,124.4 76.0,114.7 78.0,125.7 80.0,150.0 82.0,173.2 84.0,182.0 86.0,172.1 88.0,150.0 90.0,129.0 92.0,121.0 94.0,129.9 96.0,150.0 98.0,169.2 100.0,176.5 102.0,168.3 104.0,150.0 106.0,132.4 108.0,125.7 110.0,133.2 112.0,150.0 114.0,166.2 116.0,172.4 118.0,165.6 120.0,150.0 122.0,135.0 124.0,129.2 126.0,135.6 128.0,150.0 130.0,163.9 132.0,169.4 134.0,163.5 136.0,150.0 138.0,137.0 140.0,131.9 142.0,137.4 144.0,150.0 146.0,162.2 148.0,167.0 150.0,161.9 152.0,150.0 154.0,138.5 156.0,133.9 158.0,138.8 160.0,150.0 162.0,161.0 164.0,165.3 166.0,160.7 168.0,150.0 170.0,139.6 172.0,135.4 174.0,139.8 176.0,150.0 178.0,160.0 180.0,164.0 182.0,159.8 184.0,150.0 186.0,140.4 188.0,136.5 190.0,140.6 192.0,150.0 194.0,159.3 196.0,163.0 198.0,159.1 200.0,150.0 202.0,141.0 204.0,137.4 206.0,141.2 208.0,150.0 210.0,158.7 212.0,162.3 214.0,158.6 216.0,150.0 218.0,141.5 220.0,138.0 222.0,142.9 224.0,145.1 226.0,147.6 228.0,150.3 230.0,153.0 232.0,155.5 234.0,157.5 236.0,159.0 238.0,159.9 240.0,159.9 242.0,159.3 244.0,158.0 246.0,156.0 248.0,153.7 250.0,151.0 252.0,148.3 254.0,145.7 256.0,143.4 258.0,141.6 260.0,140.5 262.0,140.0 264.0,140.3 266.0,141.3 268.0,142.9 270.0,145.1 272.0,147.6 274.0,150.3 276.0,153.0 278.0,155.5 280.0,157.5 282.0,159.0 284.0,159.9 286.0,159.9 288.0,159.3 290.0,158.0 292.0,156.0 294.0,153.7 296.0,151.0 298.0,148.3 300.0,145.7 302.0,143.4 304.0,141.6 306.0,140.5 308.0,140.0 310.0,140.3 312.0,141.3 314.0,142.9 316.0,145.1 318.0,147.6 320.0,150.3 322.0,153.0 324.0,155.5 326.0,157.5 328.0,159.0 330.0,159.9 332.0,159.9 334.0,159.3 336.0,158.0 338.0,156.0 340.0,153.7 342.0,151.0 344.0,148.3 346.0,145.7 348.0,143.4 350.0,141.6 352.0,140.5 354.0,140.0 356.0,140.3 358.0,141.3 360.0,142.9 362.0,145.1 364.0,147.6 366.0,150.3 368.0,153.0 370.0,155.5 372.0,157.5 374.0,159.0 376.0,159.9 378.0,159.9 380.0,159.3 382.0,158.0 384.0,156.0 386.0,153.7 388.0,151.0 390.0,148.3 392.0,145.7 394.0,143.4 396.0,141.6 398.0,140.5 400.0,140.0 402.0,140.3 404.0,141.3 406.0,142.9 408.0,145.1 410.0,147.6 412.0,150.3 414.0,153.0 416.0,155.5 418.0,157.5 420.0,159.0 422.0,159.9 424.0,159.9 426.0,159.3 428.0,158.0 430.0,156.0 432.0,153.7 434.0,151.0 436.0,148.3 438.0,145.7 440.0,143.4 442.0,141.6 444.0,140.5 446.0,140.0 448.0,140.3 450.0,141.3 452.0,142.9 454.0,145.1 456.0,147.6 458.0,150.3 460.0,153.0 462.0,155.5 464.0,157.5 466.0,159.0 468.0,159.9 470.0,159.9 472.0,159.3 474.0,158.0 476.0,156.0 478.0,153.7 480.0,151.0 482.0,148.3 484.0,145.7 486.0,143.4 488.0,141.6 490.0,140.5 492.0,140.0 494.0,140.3 496.0,141.3 498.0,142.9 500.0,145.1"
    fill="none" stroke="#334155" stroke-width="1.8" stroke-linejoin="round"/>

  <!-- Transient label -->
  <text x="131" y="80" text-anchor="middle" font-family="'Jost', system-ui, sans-serif" font-size="12" font-weight="700" fill="#5B21B6">TRANSIENT</text>
  <text x="131" y="95" text-anchor="middle" font-family="'Libre Franklin', system-ui, sans-serif" font-size="9" fill="#7C3AED">shape, duration, harmonics</text>

  <!-- Steady-state label -->
  <text x="361" y="80" text-anchor="middle" font-family="'Jost', system-ui, sans-serif" font-size="12" font-weight="700" fill="#0C4A6E">STEADY STATE</text>
  <text x="361" y="95" text-anchor="middle" font-family="'Libre Franklin', system-ui, sans-serif" font-size="9" fill="#0369A1">active power, reactive power, current</text>
</svg>
