<svg viewBox="0 0 520 278.57" fill="none" xmlns="http://www.w3.org/2000/svg">
  <rect x="1" y="1" width="518" height="276.57" rx="12" fill="#F8FAFC" stroke="#E2E8F0" stroke-width="1.5"/>

  <g transform="scale(0.928571)">
  <!-- Row A: single-appliance -->
  <text x="280" y="28" text-anchor="middle" font-family="'Jost', system-ui, sans-serif" font-size="12" font-weight="700" fill="#334155">SINGLE-APPLIANCE</text>
  <text x="280" y="41" text-anchor="middle" font-family="'Libre Franklin', system-ui, sans-serif" font-size="9" font-style="italic" fill="#64748B">a separate model, and a separate pass, per appliance</text>

  <rect x="20" y="78" width="92" height="40" rx="6" fill="#38BDF8" fill-opacity="0.12" stroke="#0369A1" stroke-width="1.5"/>
  <text x="66" y="94" text-anchor="middle" font-family="'Libre Franklin', system-ui, sans-serif" font-size="9" fill="#0C4A6E">Aggregate</text>
  <text x="66" y="106" text-anchor="middle" font-family="'Libre Franklin', system-ui, sans-serif" font-size="9" fill="#0C4A6E">signal</text>

  <path d="M 112 98 C 150 98 150 66 190 66" stroke="#94A3B8" stroke-width="1.5" fill="none"/>
  <path d="M 112 98 C 150 98 150 100 190 100" stroke="#94A3B8" stroke-width="1.5" fill="none"/>
  <path d="M 112 98 C 150 98 150 134 190 134" stroke="#94A3B8" stroke-width="1.5" fill="none"/>

  <rect x="190" y="52" width="110" height="28" rx="6" fill="#94A3B8" fill-opacity="0.15" stroke="#64748B" stroke-width="1.5"/>
  <text x="245" y="70" text-anchor="middle" font-family="'Libre Franklin', system-ui, sans-serif" font-size="9.5" font-weight="600" fill="#334155">Fridge model</text>

  <rect x="190" y="86" width="110" height="28" rx="6" fill="#94A3B8" fill-opacity="0.15" stroke="#64748B" stroke-width="1.5"/>
  <text x="245" y="104" text-anchor="middle" font-family="'Libre Franklin', system-ui, sans-serif" font-size="9.5" font-weight="600" fill="#334155">Kettle model</text>

  <rect x="190" y="120" width="110" height="28" rx="6" fill="#94A3B8" fill-opacity="0.15" stroke="#64748B" stroke-width="1.5"/>
  <text x="245" y="138" text-anchor="middle" font-family="'Libre Franklin', system-ui, sans-serif" font-size="9.5" font-weight="600" fill="#334155">Heater model</text>

  <line x1="300" y1="66" x2="350" y2="66" stroke="#94A3B8" stroke-width="1.5"/>
  <line x1="300" y1="100" x2="350" y2="100" stroke="#94A3B8" stroke-width="1.5"/>
  <line x1="300" y1="134" x2="350" y2="134" stroke="#94A3B8" stroke-width="1.5"/>

  <rect x="350" y="53" width="94" height="26" rx="13" fill="#FFFFFF" stroke="#94A3B8" stroke-width="1.5"/>
  <text x="397" y="70" text-anchor="middle" font-family="'Libre Franklin', system-ui, sans-serif" font-size="9" fill="#334155">Fridge: ON</text>

  <rect x="350" y="87" width="94" height="26" rx="13" fill="#FFFFFF" stroke="#94A3B8" stroke-width="1.5"/>
  <text x="397" y="104" text-anchor="middle" font-family="'Libre Franklin', system-ui, sans-serif" font-size="9" fill="#334155">Kettle: OFF</text>

  <rect x="350" y="121" width="94" height="26" rx="13" fill="#FFFFFF" stroke="#94A3B8" stroke-width="1.5"/>
  <text x="397" y="138" text-anchor="middle" font-family="'Libre Franklin', system-ui, sans-serif" font-size="9" fill="#334155">Heater: ON</text>

  <text x="470" y="102" text-anchor="middle" font-family="'Libre Franklin', system-ui, sans-serif" font-size="8.5" font-style="italic" fill="#64748B">three</text>
  <text x="470" y="113" text-anchor="middle" font-family="'Libre Franklin', system-ui, sans-serif" font-size="8.5" font-style="italic" fill="#64748B">separate</text>
  <text x="470" y="124" text-anchor="middle" font-family="'Libre Franklin', system-ui, sans-serif" font-size="8.5" font-style="italic" fill="#64748B">passes</text>

  <!-- Divider -->
  <line x1="20" y1="163" x2="540" y2="163" stroke="#CBD5E1" stroke-width="1" stroke-dasharray="4 3"/>

  <!-- Row B: multi-appliance / multi-label -->
  <text x="280" y="188" text-anchor="middle" font-family="'Jost', system-ui, sans-serif" font-size="12" font-weight="700" fill="#5B21B6">MULTI-APPLIANCE (MULTI-LABEL)</text>
  <text x="280" y="201" text-anchor="middle" font-family="'Libre Franklin', system-ui, sans-serif" font-size="9" font-style="italic" fill="#7C3AED">one shared model, one pass, every appliance at once</text>

  <rect x="20" y="222" width="92" height="40" rx="6" fill="#38BDF8" fill-opacity="0.12" stroke="#0369A1" stroke-width="1.5"/>
  <text x="66" y="238" text-anchor="middle" font-family="'Libre Franklin', system-ui, sans-serif" font-size="9" fill="#0C4A6E">Aggregate</text>
  <text x="66" y="250" text-anchor="middle" font-family="'Libre Franklin', system-ui, sans-serif" font-size="9" fill="#0C4A6E">signal</text>

  <line x1="112" y1="242" x2="190" y2="242" stroke="#7C3AED" stroke-width="1.5"/>

  <rect x="190" y="205" width="110" height="74" rx="8" fill="#7C3AED" fill-opacity="0.12" stroke="#5B21B6" stroke-width="1.5"/>
  <text x="245" y="238" text-anchor="middle" font-family="'Libre Franklin', system-ui, sans-serif" font-size="9.5" font-weight="600" fill="#5B21B6">Multi-label</text>
  <text x="245" y="251" text-anchor="middle" font-family="'Libre Franklin', system-ui, sans-serif" font-size="9.5" font-weight="600" fill="#5B21B6">model</text>

  <path d="M 300 242 C 325 242 325 219 350 219" stroke="#7C3AED" stroke-width="1.5" fill="none"/>
  <path d="M 300 242 C 325 242 325 244 350 244" stroke="#7C3AED" stroke-width="1.5" fill="none"/>
  <path d="M 300 242 C 325 242 325 269 350 269" stroke="#7C3AED" stroke-width="1.5" fill="none"/>

  <rect x="350" y="206" width="94" height="26" rx="13" fill="#FFFFFF" stroke="#7C3AED" stroke-width="1.5"/>
  <text x="397" y="223" text-anchor="middle" font-family="'Libre Franklin', system-ui, sans-serif" font-size="9" fill="#334155">Fridge: ON</text>

  <rect x="350" y="231" width="94" height="26" rx="13" fill="#FFFFFF" stroke="#7C3AED" stroke-width="1.5"/>
  <text x="397" y="248" text-anchor="middle" font-family="'Libre Franklin', system-ui, sans-serif" font-size="9" fill="#334155">Kettle: OFF</text>

  <rect x="350" y="256" width="94" height="26" rx="13" fill="#FFFFFF" stroke="#7C3AED" stroke-width="1.5"/>
  <text x="397" y="273" text-anchor="middle" font-family="'Libre Franklin', system-ui, sans-serif" font-size="9" fill="#334155">Heater: ON</text>

  <text x="470" y="240" text-anchor="middle" font-family="'Libre Franklin', system-ui, sans-serif" font-size="8.5" font-style="italic" fill="#7C3AED">one</text>
  <text x="470" y="251" text-anchor="middle" font-family="'Libre Franklin', system-ui, sans-serif" font-size="8.5" font-style="italic" fill="#7C3AED">pass</text>
  </g>
</svg>
