<?xml version="1.0" encoding="utf-8" standalone="no"?>
<!DOCTYPE svg PUBLIC "-//W3C//DTD SVG 1.1//EN"
  "http://www.w3.org/Graphics/SVG/1.1/DTD/svg11.dtd">
<svg xmlns:xlink="http://www.w3.org/1999/xlink" width="540pt" height="259.2pt" viewBox="0 0 540 259.2" xmlns="http://www.w3.org/2000/svg" version="1.1">
 <metadata>
  <rdf:RDF xmlns:dc="http://purl.org/dc/elements/1.1/" xmlns:cc="http://creativecommons.org/ns#" xmlns:rdf="http://www.w3.org/1999/02/22-rdf-syntax-ns#">
   <cc:Work>
    <dc:type rdf:resource="http://purl.org/dc/dcmitype/StillImage"/>
    <dc:date>2026-07-17T20:49:54.715981</dc:date>
    <dc:format>image/svg+xml</dc:format>
    <dc:creator>
     <cc:Agent>
      <dc:title>Matplotlib v3.11.0, https://matplotlib.org/</dc:title>
     </cc:Agent>
    </dc:creator>
   </cc:Work>
  </rdf:RDF>
 </metadata>
 <defs>
  <style type="text/css">*{stroke-linejoin: round; stroke-linecap: butt}</style>
 </defs>
 <g id="figure_1">
  <g id="patch_1">
   <path d="M 0 259.2 
L 540 259.2 
L 540 0 
L 0 0 
z
" style="fill: #ffffff"/>
  </g>
  <g id="axes_1">
   <g id="patch_2">
    <path d="M 10.8 248.4 
L 226.8 248.4 
L 226.8 10.8 
L 10.8 10.8 
z
" clip-path="url(#p368a8fc4d7)" style="fill: #8b5cf6; opacity: 0.12; stroke: #8b5cf6; stroke-linejoin: miter"/>
   </g>
   <g id="patch_3">
    <path d="M 226.8 248.4 
L 529.2 248.4 
L 529.2 10.8 
L 226.8 10.8 
z
" clip-path="url(#p368a8fc4d7)" style="fill: #0369a1; opacity: 0.1; stroke: #0369a1; stroke-linejoin: miter"/>
   </g>
   <g id="line2d_1">
    <path d="M 226.8 248.4 
L 226.8 10.8 
" clip-path="url(#p368a8fc4d7)" style="fill: none; stroke-dasharray: 4.81,2.08; stroke-dashoffset: 0; stroke: #6b7280; stroke-width: 1.3"/>
   </g>
   <g id="line2d_2">
    <path d="M 10.8 121.114286 
L 12.244816 90.440475 
L 13.689632 65.310566 
L 14.41204 55.891775 
L 15.134448 48.981053 
L 15.856856 44.769898 
L 16.579264 43.350196 
L 17.301672 44.713084 
L 18.02408 48.751395 
L 18.746488 55.26553 
L 19.468896 63.972486 
L 20.913712 86.488793 
L 24.525753 151.344923 
L 25.248161 162.076714 
L 25.970569 171.131335 
L 26.692977 178.22381 
L 27.415385 183.144646 
L 28.137793 185.765656 
L 28.860201 186.042771 
L 29.582609 184.01582 
L 30.305017 179.805341 
L 31.027425 173.60661 
L 31.749833 165.681141 
L 33.194649 145.961555 
L 36.806689 92.164445 
L 37.529097 83.694456 
L 38.251505 76.728344 
L 38.973913 71.480833 
L 39.696321 68.101266 
L 40.418729 66.66971 
L 41.141137 67.195581 
L 41.863545 69.618814 
L 42.585953 73.813454 
L 43.308361 79.593516 
L 44.753177 94.914601 
L 49.087625 148.242416 
L 49.810033 154.867951 
L 50.532441 160.158436 
L 51.254849 163.954883 
L 51.977258 166.154554 
L 52.699666 166.713403 
L 53.422074 165.646398 
L 54.144482 163.025739 
L 54.86689 158.977087 
L 55.589298 153.673988 
L 57.034114 140.193826 
L 60.646154 102.270292 
L 61.368562 96.125164 
L 62.09097 90.994684 
L 62.813378 87.038962 
L 63.535786 84.373136 
L 64.258194 83.064248 
L 64.980602 83.129891 
L 65.70301 84.538634 
L 66.425418 87.21217 
L 67.147826 91.029081 
L 67.870234 95.830051 
L 69.31505 107.597035 
L 72.204682 133.397857 
L 73.649498 143.812715 
L 74.371906 147.739074 
L 75.094314 150.639877 
L 75.816722 152.434165 
L 76.53913 153.081863 
L 77.261538 152.584325 
L 77.983946 150.983415 
L 78.706355 148.359165 
L 79.428763 144.826134 
L 80.873579 135.634933 
L 85.208027 104.502368 
L 85.930435 100.738251 
L 86.652843 97.775074 
L 87.375251 95.70076 
L 88.097659 94.569907 
L 88.820067 94.402563 
L 89.542475 95.184246 
L 90.264883 96.867191 
L 90.987291 99.372742 
L 91.709699 102.594793 
L 93.154515 110.653459 
L 96.766555 132.806497 
L 97.488963 136.319871 
L 98.211371 139.220626 
L 98.933779 141.419063 
L 99.656187 142.852238 
L 100.378595 143.48563 
L 101.101003 143.313755 
L 101.823411 142.359752 
L 102.545819 140.673951 
L 103.268227 138.33152 
L 104.713043 132.081803 
L 109.047492 110.127349 
L 109.7699 107.375373 
L 110.492308 105.167976 
L 111.214716 103.57176 
L 111.937124 102.630278 
L 112.659532 102.362992 
L 113.38194 102.765084 
L 114.104348 103.808146 
L 114.826756 105.441684 
L 115.549164 107.595373 
L 116.99398 113.100741 
L 120.60602 128.710283 
L 121.328428 131.257522 
L 122.050836 133.391789 
L 122.773244 135.046285 
L 123.495652 136.172609 
L 124.21806 136.742079 
L 124.940468 136.74633 
L 125.662876 136.197182 
L 126.385284 135.125792 
L 127.107692 133.581141 
L 127.8301 131.627928 
L 129.274916 126.817022 
L 132.164548 116.199434 
L 133.609365 111.883804 
L 134.331773 110.247508 
L 135.054181 109.030504 
L 135.776589 108.266988 
L 136.498997 107.974382 
L 137.221405 108.153071 
L 137.943813 108.786748 
L 138.666221 109.843349 
L 139.388629 111.276519 
L 140.833445 115.027744 
L 145.167893 127.848949 
L 145.890301 129.413396 
L 146.612709 130.650958 
L 147.335117 131.524754 
L 148.057525 132.011558 
L 148.779933 132.102335 
L 149.502341 131.802258 
L 150.224749 131.130226 
L 150.947157 130.117904 
L 151.669565 128.808329 
L 153.114381 125.515559 
L 156.726421 116.394206 
L 158.171237 113.729517 
L 158.893645 112.808887 
L 159.616054 112.201731 
L 160.338462 111.9229 
L 161.06087 111.97531 
L 161.783278 112.350093 
L 162.505686 113.027154 
L 163.228094 113.976128 
L 164.67291 116.525022 
L 169.007358 125.562419 
L 169.729766 126.705245 
L 170.452174 127.625974 
L 171.174582 128.296717 
L 171.89699 128.699028 
L 172.619398 128.82435 
L 173.341806 128.674115 
L 174.064214 128.259474 
L 174.786622 127.600705 
L 175.50903 126.726294 
L 176.953846 124.478241 
L 180.565886 118.053976 
L 182.010702 116.110645 
L 182.73311 115.418909 
L 183.455518 114.943414 
L 184.177926 114.696412 
L 184.900334 114.681807 
L 185.622742 114.895194 
L 186.345151 115.324192 
L 187.067559 115.949051 
L 188.512375 117.675841 
L 190.679599 120.928132 
L 192.124415 123.079021 
L 193.569231 124.867008 
L 194.291639 125.54874 
L 195.014047 126.059073 
L 195.736455 126.383574 
L 196.458863 126.514691 
L 197.181271 126.451881 
L 197.903679 126.201472 
L 198.626087 125.7763 
L 200.070903 124.481797 
L 201.515719 122.774025 
L 204.405351 119.147712 
L 205.850167 117.734791 
L 206.572575 117.2181 
L 207.294983 116.85026 
L 208.017391 116.641138 
L 208.739799 116.594776 
L 209.462207 116.709368 
L 210.184615 116.977448 
L 211.629431 117.918406 
L 213.074247 119.263621 
L 216.686288 123.018855 
L 218.131104 124.125647 
L 218.853512 124.511012 
L 219.57592 124.767986 
L 220.298328 124.890193 
L 221.020736 124.87616 
L 221.743144 124.729269 
L 223.18796 124.073217 
L 224.632776 123.033865 
L 226.8 121.114286 
L 226.8 121.114286 
" clip-path="url(#p368a8fc4d7)" style="fill: none; stroke: #1e293b; stroke-width: 1.8; stroke-linecap: square"/>
   </g>
   <g id="line2d_3">
    <path d="M 226.8 121.114286 
L 229.834114 115.833242 
L 231.856856 112.636689 
L 233.879599 109.907571 
L 234.89097 108.766569 
L 235.902341 107.796364 
L 236.913712 107.010375 
L 237.925084 106.419475 
L 238.936455 106.031836 
L 239.947826 105.852822 
L 240.959197 105.884908 
L 241.970569 106.12765 
L 242.98194 106.57769 
L 243.993311 107.228804 
L 245.004682 108.071985 
L 246.016054 109.095571 
L 248.038796 111.62502 
L 250.061538 114.677685 
L 253.095652 119.863889 
L 257.141137 126.903855 
L 259.16388 130.040272 
L 261.186622 132.684531 
L 262.197993 133.775248 
L 263.209365 134.690835 
L 264.220736 135.418629 
L 265.232107 135.948561 
L 266.243478 136.273302 
L 267.254849 136.388361 
L 268.266221 136.292144 
L 269.277592 135.985985 
L 270.288963 135.474116 
L 271.300334 134.763619 
L 272.311706 133.864322 
L 274.334448 131.551521 
L 276.357191 128.663236 
L 278.379933 125.35872 
L 285.459532 113.232931 
L 287.482274 110.39918 
L 289.505017 108.156234 
L 290.516388 107.296433 
L 291.527759 106.627764 
L 292.53913 106.159476 
L 293.550502 105.898046 
L 294.561873 105.84709 
L 295.573244 106.007314 
L 296.584615 106.376501 
L 297.595987 106.949544 
L 298.607358 107.718517 
L 299.618729 108.672784 
L 301.641472 111.082018 
L 303.664214 114.044408 
L 306.698328 119.161703 
L 311.755184 127.898103 
L 313.777926 130.902323 
L 315.800669 133.366854 
L 316.81204 134.352891 
L 317.823411 135.155809 
L 318.834783 135.764501 
L 319.846154 136.170548 
L 320.857525 136.368333 
L 321.868896 136.35512 
L 322.880268 136.131093 
L 323.891639 135.69935 
L 324.90301 135.065863 
L 325.914381 134.239395 
L 326.925753 133.231377 
L 328.948495 130.728784 
L 330.971237 127.69607 
L 334.005351 122.524559 
L 338.050836 115.473545 
L 340.073579 112.319022 
L 342.096321 109.649449 
L 343.107692 108.543795 
L 344.119064 107.612019 
L 345.130435 106.86701 
L 346.141806 106.319072 
L 347.153177 105.975785 
L 348.164548 105.841897 
L 349.17592 105.91926 
L 350.187291 106.206805 
L 351.198662 106.700553 
L 352.210033 107.393675 
L 353.221405 108.276584 
L 354.232776 109.337067 
L 356.255518 111.929826 
L 358.278261 115.028994 
L 361.312375 120.248121 
L 365.35786 127.258404 
L 367.380602 130.349958 
L 369.403344 132.932278 
L 370.414716 133.986658 
L 371.426087 134.862984 
L 372.437458 135.549134 
L 373.448829 136.035619 
L 374.460201 136.315708 
L 375.471572 136.385528 
L 376.482943 136.244112 
L 377.494314 135.893417 
L 378.505686 135.338294 
L 379.517057 134.586421 
L 380.528428 133.648199 
L 382.551171 131.267014 
L 384.573913 128.326031 
L 387.608027 123.225928 
L 392.664883 114.47463 
L 394.687625 111.449991 
L 396.710368 108.958218 
L 397.721739 107.956458 
L 398.73311 107.1367 
L 399.744482 106.510284 
L 400.755853 106.085874 
L 401.767224 105.86934 
L 402.778595 105.863677 
L 403.789967 106.068964 
L 404.801338 106.482362 
L 405.812709 107.098152 
L 406.82408 107.907816 
L 407.835452 108.900156 
L 409.858194 111.375617 
L 411.880936 114.388044 
L 414.91505 119.544292 
L 418.960535 126.605576 
L 420.983278 129.777856 
L 423.00602 132.472448 
L 424.017391 133.592917 
L 425.028763 134.540779 
L 426.040134 135.302922 
L 427.051505 135.868805 
L 428.062876 136.2306 
L 429.074247 136.383302 
L 430.085619 136.3248 
L 431.09699 136.055903 
L 432.108361 135.58033 
L 433.119732 134.904659 
L 434.131104 134.038237 
L 435.142475 132.993047 
L 437.165217 130.426469 
L 439.18796 127.34644 
L 442.222074 122.140628 
L 446.267559 115.117434 
L 448.290301 112.006947 
L 450.313043 109.398617 
L 451.324415 108.329014 
L 452.335786 107.43626 
L 453.347157 106.732704 
L 454.358528 106.228077 
L 455.3699 105.929359 
L 456.381271 105.840683 
L 457.392642 105.963275 
L 458.404013 106.295439 
L 459.415385 106.83258 
L 460.426756 107.56727 
L 461.438127 108.489345 
L 463.46087 110.842218 
L 465.483612 113.761469 
L 467.506355 117.086135 
L 474.585953 129.187242 
L 476.608696 131.988347 
L 478.631438 134.189883 
L 479.642809 135.02639 
L 480.654181 135.670462 
L 481.665552 136.113189 
L 482.676923 136.348448 
L 483.688294 136.372985 
L 484.699666 136.18646 
L 485.711037 135.791453 
L 486.722408 135.193428 
L 487.733779 134.400657 
L 488.745151 133.424106 
L 490.767893 130.976051 
L 492.790635 127.984241 
L 495.824749 122.843827 
L 499.870234 115.773053 
L 501.892977 112.583365 
L 503.915719 109.864051 
L 504.92709 108.728891 
L 505.938462 107.765048 
L 506.949833 106.985855 
L 507.961204 106.40209 
L 508.972575 106.021827 
L 509.983946 105.850327 
L 510.995318 105.889961 
L 512.006689 106.140182 
L 513.01806 106.597527 
L 514.029431 107.255672 
L 515.040803 108.105513 
L 516.052174 109.135293 
L 518.074916 111.675407 
L 520.097659 114.735958 
L 523.131773 119.927879 
L 527.177258 126.963208 
L 529.2 130.092286 
L 529.2 130.092286 
" clip-path="url(#p368a8fc4d7)" style="fill: none; stroke: #1e293b; stroke-width: 1.8; stroke-linecap: square"/>
   </g>
   <g id="text_1">
    <!-- TRANSIENT -->
    <g style="fill: #8b5cf6" transform="translate(80.655938 23.528571) scale(0.12 -0.12)">
     <defs>
      <path id="DejaVuSans-Bold-37" d="M 31 4666 
L 4331 4666 
L 4331 3756 
L 2784 3756 
L 2784 0 
L 1581 0 
L 1581 3756 
L 31 3756 
L 31 4666 
z
" transform="scale(0.015625)"/>
      <path id="DejaVuSans-Bold-35" d="M 2297 2597 
Q 2675 2597 2839 2737 
Q 3003 2878 3003 3200 
Q 3003 3519 2839 3656 
Q 2675 3794 2297 3794 
L 1791 3794 
L 1791 2597 
L 2297 2597 
z
M 1791 1766 
L 1791 0 
L 588 0 
L 588 4666 
L 2425 4666 
Q 3347 4666 3776 4356 
Q 4206 4047 4206 3378 
Q 4206 2916 3982 2619 
Q 3759 2322 3309 2181 
Q 3556 2125 3751 1926 
Q 3947 1728 4147 1325 
L 4800 0 
L 3519 0 
L 2950 1159 
Q 2778 1509 2601 1637 
Q 2425 1766 2131 1766 
L 1791 1766 
z
" transform="scale(0.015625)"/>
      <path id="DejaVuSans-Bold-24" d="M 3419 850 
L 1538 850 
L 1241 0 
L 31 0 
L 1759 4666 
L 3194 4666 
L 4922 0 
L 3713 0 
L 3419 850 
z
M 1838 1716 
L 3116 1716 
L 2478 3572 
L 1838 1716 
z
" transform="scale(0.015625)"/>
      <path id="DejaVuSans-Bold-31" d="M 588 4666 
L 1931 4666 
L 3628 1466 
L 3628 4666 
L 4769 4666 
L 4769 0 
L 3425 0 
L 1728 3200 
L 1728 0 
L 588 0 
L 588 4666 
z
" transform="scale(0.015625)"/>
      <path id="DejaVuSans-Bold-36" d="M 3834 4519 
L 3834 3531 
Q 3450 3703 3084 3790 
Q 2719 3878 2394 3878 
Q 1963 3878 1756 3759 
Q 1550 3641 1550 3391 
Q 1550 3203 1689 3098 
Q 1828 2994 2194 2919 
L 2706 2816 
Q 3484 2659 3812 2340 
Q 4141 2022 4141 1434 
Q 4141 663 3683 286 
Q 3225 -91 2284 -91 
Q 1841 -91 1394 -6 
Q 947 78 500 244 
L 500 1259 
Q 947 1022 1364 901 
Q 1781 781 2169 781 
Q 2563 781 2772 912 
Q 2981 1044 2981 1288 
Q 2981 1506 2839 1625 
Q 2697 1744 2272 1838 
L 1806 1941 
Q 1106 2091 782 2419 
Q 459 2747 459 3303 
Q 459 4000 909 4375 
Q 1359 4750 2203 4750 
Q 2588 4750 2994 4692 
Q 3400 4634 3834 4519 
z
" transform="scale(0.015625)"/>
      <path id="DejaVuSans-Bold-2c" d="M 588 4666 
L 1791 4666 
L 1791 0 
L 588 0 
L 588 4666 
z
" transform="scale(0.015625)"/>
      <path id="DejaVuSans-Bold-28" d="M 588 4666 
L 3834 4666 
L 3834 3756 
L 1791 3756 
L 1791 2888 
L 3713 2888 
L 3713 1978 
L 1791 1978 
L 1791 909 
L 3903 909 
L 3903 0 
L 588 0 
L 588 4666 
z
" transform="scale(0.015625)"/>
     </defs>
     <use xlink:href="#DejaVuSans-Bold-37"/>
     <use xlink:href="#DejaVuSans-Bold-35" transform="translate(68.21875 0)"/>
     <use xlink:href="#DejaVuSans-Bold-24" transform="translate(145.21875 0)"/>
     <use xlink:href="#DejaVuSans-Bold-31" transform="translate(222.609375 0)"/>
     <use xlink:href="#DejaVuSans-Bold-36" transform="translate(306.296875 0)"/>
     <use xlink:href="#DejaVuSans-Bold-2c" transform="translate(378.3125 0)"/>
     <use xlink:href="#DejaVuSans-Bold-28" transform="translate(415.515625 0)"/>
     <use xlink:href="#DejaVuSans-Bold-31" transform="translate(483.828125 0)"/>
     <use xlink:href="#DejaVuSans-Bold-37" transform="translate(567.515625 0)"/>
    </g>
   </g>
   <g id="text_2">
    <!-- shape, duration, harmonics -->
    <g style="fill: #8b5cf6" transform="translate(53.699766 36.257143) scale(0.095 -0.095)">
     <defs>
      <path id="DejaVuSans-56" d="M 2834 3397 
L 2834 2853 
Q 2591 2978 2328 3040 
Q 2066 3103 1784 3103 
Q 1356 3103 1142 2972 
Q 928 2841 928 2578 
Q 928 2378 1081 2264 
Q 1234 2150 1697 2047 
L 1894 2003 
Q 2506 1872 2764 1633 
Q 3022 1394 3022 966 
Q 3022 478 2636 193 
Q 2250 -91 1575 -91 
Q 1294 -91 989 -36 
Q 684 19 347 128 
L 347 722 
Q 666 556 975 473 
Q 1284 391 1588 391 
Q 1994 391 2212 530 
Q 2431 669 2431 922 
Q 2431 1156 2273 1281 
Q 2116 1406 1581 1522 
L 1381 1569 
Q 847 1681 609 1914 
Q 372 2147 372 2553 
Q 372 3047 722 3315 
Q 1072 3584 1716 3584 
Q 2034 3584 2315 3537 
Q 2597 3491 2834 3397 
z
" transform="scale(0.015625)"/>
      <path id="DejaVuSans-4b" d="M 3513 2113 
L 3513 0 
L 2938 0 
L 2938 2094 
Q 2938 2591 2744 2837 
Q 2550 3084 2163 3084 
Q 1697 3084 1428 2787 
Q 1159 2491 1159 1978 
L 1159 0 
L 581 0 
L 581 4863 
L 1159 4863 
L 1159 2956 
Q 1366 3272 1645 3428 
Q 1925 3584 2291 3584 
Q 2894 3584 3203 3211 
Q 3513 2838 3513 2113 
z
" transform="scale(0.015625)"/>
      <path id="DejaVuSans-44" d="M 2194 1759 
Q 1497 1759 1228 1600 
Q 959 1441 959 1056 
Q 959 750 1161 570 
Q 1363 391 1709 391 
Q 2188 391 2477 730 
Q 2766 1069 2766 1631 
L 2766 1759 
L 2194 1759 
z
M 3341 1997 
L 3341 0 
L 2766 0 
L 2766 531 
Q 2569 213 2275 61 
Q 1981 -91 1556 -91 
Q 1019 -91 701 211 
Q 384 513 384 1019 
Q 384 1609 779 1909 
Q 1175 2209 1959 2209 
L 2766 2209 
L 2766 2266 
Q 2766 2663 2505 2880 
Q 2244 3097 1772 3097 
Q 1472 3097 1187 3025 
Q 903 2953 641 2809 
L 641 3341 
Q 956 3463 1253 3523 
Q 1550 3584 1831 3584 
Q 2591 3584 2966 3190 
Q 3341 2797 3341 1997 
z
" transform="scale(0.015625)"/>
      <path id="DejaVuSans-53" d="M 1159 525 
L 1159 -1331 
L 581 -1331 
L 581 3500 
L 1159 3500 
L 1159 2969 
Q 1341 3281 1617 3432 
Q 1894 3584 2278 3584 
Q 2916 3584 3314 3078 
Q 3713 2572 3713 1747 
Q 3713 922 3314 415 
Q 2916 -91 2278 -91 
Q 1894 -91 1617 61 
Q 1341 213 1159 525 
z
M 3116 1747 
Q 3116 2381 2855 2742 
Q 2594 3103 2138 3103 
Q 1681 3103 1420 2742 
Q 1159 2381 1159 1747 
Q 1159 1113 1420 752 
Q 1681 391 2138 391 
Q 2594 391 2855 752 
Q 3116 1113 3116 1747 
z
" transform="scale(0.015625)"/>
      <path id="DejaVuSans-48" d="M 3597 1894 
L 3597 1613 
L 953 1613 
Q 991 1019 1311 708 
Q 1631 397 2203 397 
Q 2534 397 2845 478 
Q 3156 559 3463 722 
L 3463 178 
Q 3153 47 2828 -22 
Q 2503 -91 2169 -91 
Q 1331 -91 842 396 
Q 353 884 353 1716 
Q 353 2575 817 3079 
Q 1281 3584 2069 3584 
Q 2775 3584 3186 3129 
Q 3597 2675 3597 1894 
z
M 3022 2063 
Q 3016 2534 2758 2815 
Q 2500 3097 2075 3097 
Q 1594 3097 1305 2825 
Q 1016 2553 972 2059 
L 3022 2063 
z
" transform="scale(0.015625)"/>
      <path id="DejaVuSans-f" d="M 750 794 
L 1409 794 
L 1409 256 
L 897 -744 
L 494 -744 
L 750 256 
L 750 794 
z
" transform="scale(0.015625)"/>
      <path id="DejaVuSans-3" transform="scale(0.015625)"/>
      <path id="DejaVuSans-47" d="M 2906 2969 
L 2906 4863 
L 3481 4863 
L 3481 0 
L 2906 0 
L 2906 525 
Q 2725 213 2448 61 
Q 2172 -91 1784 -91 
Q 1150 -91 751 415 
Q 353 922 353 1747 
Q 353 2572 751 3078 
Q 1150 3584 1784 3584 
Q 2172 3584 2448 3432 
Q 2725 3281 2906 2969 
z
M 947 1747 
Q 947 1113 1208 752 
Q 1469 391 1925 391 
Q 2381 391 2643 752 
Q 2906 1113 2906 1747 
Q 2906 2381 2643 2742 
Q 2381 3103 1925 3103 
Q 1469 3103 1208 2742 
Q 947 2381 947 1747 
z
" transform="scale(0.015625)"/>
      <path id="DejaVuSans-58" d="M 544 1381 
L 544 3500 
L 1119 3500 
L 1119 1403 
Q 1119 906 1312 657 
Q 1506 409 1894 409 
Q 2359 409 2629 706 
Q 2900 1003 2900 1516 
L 2900 3500 
L 3475 3500 
L 3475 0 
L 2900 0 
L 2900 538 
Q 2691 219 2414 64 
Q 2138 -91 1772 -91 
Q 1169 -91 856 284 
Q 544 659 544 1381 
z
M 1991 3584 
L 1991 3584 
z
" transform="scale(0.015625)"/>
      <path id="DejaVuSans-55" d="M 2631 2963 
Q 2534 3019 2420 3045 
Q 2306 3072 2169 3072 
Q 1681 3072 1420 2755 
Q 1159 2438 1159 1844 
L 1159 0 
L 581 0 
L 581 3500 
L 1159 3500 
L 1159 2956 
Q 1341 3275 1631 3429 
Q 1922 3584 2338 3584 
Q 2397 3584 2469 3576 
Q 2541 3569 2628 3553 
L 2631 2963 
z
" transform="scale(0.015625)"/>
      <path id="DejaVuSans-57" d="M 1172 4494 
L 1172 3500 
L 2356 3500 
L 2356 3053 
L 1172 3053 
L 1172 1153 
Q 1172 725 1289 603 
Q 1406 481 1766 481 
L 2356 481 
L 2356 0 
L 1766 0 
Q 1100 0 847 248 
Q 594 497 594 1153 
L 594 3053 
L 172 3053 
L 172 3500 
L 594 3500 
L 594 4494 
L 1172 4494 
z
" transform="scale(0.015625)"/>
      <path id="DejaVuSans-4c" d="M 603 3500 
L 1178 3500 
L 1178 0 
L 603 0 
L 603 3500 
z
M 603 4863 
L 1178 4863 
L 1178 4134 
L 603 4134 
L 603 4863 
z
" transform="scale(0.015625)"/>
      <path id="DejaVuSans-52" d="M 1959 3097 
Q 1497 3097 1228 2736 
Q 959 2375 959 1747 
Q 959 1119 1226 758 
Q 1494 397 1959 397 
Q 2419 397 2687 759 
Q 2956 1122 2956 1747 
Q 2956 2369 2687 2733 
Q 2419 3097 1959 3097 
z
M 1959 3584 
Q 2709 3584 3137 3096 
Q 3566 2609 3566 1747 
Q 3566 888 3137 398 
Q 2709 -91 1959 -91 
Q 1206 -91 779 398 
Q 353 888 353 1747 
Q 353 2609 779 3096 
Q 1206 3584 1959 3584 
z
" transform="scale(0.015625)"/>
      <path id="DejaVuSans-51" d="M 3513 2113 
L 3513 0 
L 2938 0 
L 2938 2094 
Q 2938 2591 2744 2837 
Q 2550 3084 2163 3084 
Q 1697 3084 1428 2787 
Q 1159 2491 1159 1978 
L 1159 0 
L 581 0 
L 581 3500 
L 1159 3500 
L 1159 2956 
Q 1366 3272 1645 3428 
Q 1925 3584 2291 3584 
Q 2894 3584 3203 3211 
Q 3513 2838 3513 2113 
z
" transform="scale(0.015625)"/>
      <path id="DejaVuSans-50" d="M 3328 2828 
Q 3544 3216 3844 3400 
Q 4144 3584 4550 3584 
Q 5097 3584 5394 3201 
Q 5691 2819 5691 2113 
L 5691 0 
L 5113 0 
L 5113 2094 
Q 5113 2597 4934 2840 
Q 4756 3084 4391 3084 
Q 3944 3084 3684 2787 
Q 3425 2491 3425 1978 
L 3425 0 
L 2847 0 
L 2847 2094 
Q 2847 2600 2669 2842 
Q 2491 3084 2119 3084 
Q 1678 3084 1418 2786 
Q 1159 2488 1159 1978 
L 1159 0 
L 581 0 
L 581 3500 
L 1159 3500 
L 1159 2956 
Q 1356 3278 1631 3431 
Q 1906 3584 2284 3584 
Q 2666 3584 2933 3390 
Q 3200 3197 3328 2828 
z
" transform="scale(0.015625)"/>
      <path id="DejaVuSans-46" d="M 3122 3366 
L 3122 2828 
Q 2878 2963 2633 3030 
Q 2388 3097 2138 3097 
Q 1578 3097 1268 2742 
Q 959 2388 959 1747 
Q 959 1106 1268 751 
Q 1578 397 2138 397 
Q 2388 397 2633 464 
Q 2878 531 3122 666 
L 3122 134 
Q 2881 22 2623 -34 
Q 2366 -91 2075 -91 
Q 1284 -91 818 406 
Q 353 903 353 1747 
Q 353 2603 823 3093 
Q 1294 3584 2113 3584 
Q 2378 3584 2631 3529 
Q 2884 3475 3122 3366 
z
" transform="scale(0.015625)"/>
     </defs>
     <use xlink:href="#DejaVuSans-56"/>
     <use xlink:href="#DejaVuSans-4b" transform="translate(52.09375 0)"/>
     <use xlink:href="#DejaVuSans-44" transform="translate(115.46875 0)"/>
     <use xlink:href="#DejaVuSans-53" transform="translate(176.75 0)"/>
     <use xlink:href="#DejaVuSans-48" transform="translate(240.234375 0)"/>
     <use xlink:href="#DejaVuSans-f" transform="translate(301.765625 0)"/>
     <use xlink:href="#DejaVuSans-3" transform="translate(333.546875 0)"/>
     <use xlink:href="#DejaVuSans-47" transform="translate(365.328125 0)"/>
     <use xlink:href="#DejaVuSans-58" transform="translate(428.8125 0)"/>
     <use xlink:href="#DejaVuSans-55" transform="translate(492.1875 0)"/>
     <use xlink:href="#DejaVuSans-44" transform="translate(533.296875 0)"/>
     <use xlink:href="#DejaVuSans-57" transform="translate(594.578125 0)"/>
     <use xlink:href="#DejaVuSans-4c" transform="translate(633.78125 0)"/>
     <use xlink:href="#DejaVuSans-52" transform="translate(661.5625 0)"/>
     <use xlink:href="#DejaVuSans-51" transform="translate(722.75 0)"/>
     <use xlink:href="#DejaVuSans-f" transform="translate(786.125 0)"/>
     <use xlink:href="#DejaVuSans-3" transform="translate(817.90625 0)"/>
     <use xlink:href="#DejaVuSans-4b" transform="translate(849.6875 0)"/>
     <use xlink:href="#DejaVuSans-44" transform="translate(913.0625 0)"/>
     <use xlink:href="#DejaVuSans-55" transform="translate(974.34375 0)"/>
     <use xlink:href="#DejaVuSans-50" transform="translate(1013.703125 0)"/>
     <use xlink:href="#DejaVuSans-52" transform="translate(1111.109375 0)"/>
     <use xlink:href="#DejaVuSans-51" transform="translate(1172.296875 0)"/>
     <use xlink:href="#DejaVuSans-4c" transform="translate(1235.671875 0)"/>
     <use xlink:href="#DejaVuSans-46" transform="translate(1263.453125 0)"/>
     <use xlink:href="#DejaVuSans-56" transform="translate(1318.4375 0)"/>
    </g>
   </g>
   <g id="text_3">
    <!-- STEADY STATE -->
    <g style="fill: #0369a1" transform="translate(329.549063 23.528571) scale(0.12 -0.12)">
     <defs>
      <path id="DejaVuSans-Bold-27" d="M 1791 3756 
L 1791 909 
L 2222 909 
Q 2959 909 3348 1275 
Q 3738 1641 3738 2338 
Q 3738 3031 3350 3393 
Q 2963 3756 2222 3756 
L 1791 3756 
z
M 588 4666 
L 1856 4666 
Q 2919 4666 3439 4514 
Q 3959 4363 4331 4000 
Q 4659 3684 4818 3271 
Q 4978 2859 4978 2338 
Q 4978 1809 4818 1395 
Q 4659 981 4331 666 
Q 3956 303 3431 151 
Q 2906 0 1856 0 
L 588 0 
L 588 4666 
z
" transform="scale(0.015625)"/>
      <path id="DejaVuSans-Bold-3c" d="M -63 4666 
L 1253 4666 
L 2316 3003 
L 3378 4666 
L 4697 4666 
L 2919 1966 
L 2919 0 
L 1716 0 
L 1716 1966 
L -63 4666 
z
" transform="scale(0.015625)"/>
      <path id="DejaVuSans-Bold-3" transform="scale(0.015625)"/>
     </defs>
     <use xlink:href="#DejaVuSans-Bold-36"/>
     <use xlink:href="#DejaVuSans-Bold-37" transform="translate(72.015625 0)"/>
     <use xlink:href="#DejaVuSans-Bold-28" transform="translate(140.234375 0)"/>
     <use xlink:href="#DejaVuSans-Bold-24" transform="translate(208.546875 0)"/>
     <use xlink:href="#DejaVuSans-Bold-27" transform="translate(285.9375 0)"/>
     <use xlink:href="#DejaVuSans-Bold-3c" transform="translate(361.671875 0)"/>
     <use xlink:href="#DejaVuSans-Bold-3" transform="translate(434.078125 0)"/>
     <use xlink:href="#DejaVuSans-Bold-36" transform="translate(468.890625 0)"/>
     <use xlink:href="#DejaVuSans-Bold-37" transform="translate(540.90625 0)"/>
     <use xlink:href="#DejaVuSans-Bold-24" transform="translate(601.359375 0)"/>
     <use xlink:href="#DejaVuSans-Bold-37" transform="translate(670.984375 0)"/>
     <use xlink:href="#DejaVuSans-Bold-28" transform="translate(739.203125 0)"/>
    </g>
   </g>
   <g id="text_4">
    <!-- active power, reactive power, current -->
    <g style="fill: #0369a1" transform="translate(288.795742 36.257143) scale(0.095 -0.095)">
     <defs>
      <path id="DejaVuSans-59" d="M 191 3500 
L 800 3500 
L 1894 563 
L 2988 3500 
L 3597 3500 
L 2284 0 
L 1503 0 
L 191 3500 
z
" transform="scale(0.015625)"/>
      <path id="DejaVuSans-5a" d="M 269 3500 
L 844 3500 
L 1563 769 
L 2278 3500 
L 2956 3500 
L 3675 769 
L 4391 3500 
L 4966 3500 
L 4050 0 
L 3372 0 
L 2619 2869 
L 1863 0 
L 1184 0 
L 269 3500 
z
" transform="scale(0.015625)"/>
     </defs>
     <use xlink:href="#DejaVuSans-44"/>
     <use xlink:href="#DejaVuSans-46" transform="translate(61.28125 0)"/>
     <use xlink:href="#DejaVuSans-57" transform="translate(116.265625 0)"/>
     <use xlink:href="#DejaVuSans-4c" transform="translate(155.46875 0)"/>
     <use xlink:href="#DejaVuSans-59" transform="translate(183.25 0)"/>
     <use xlink:href="#DejaVuSans-48" transform="translate(242.4375 0)"/>
     <use xlink:href="#DejaVuSans-3" transform="translate(303.96875 0)"/>
     <use xlink:href="#DejaVuSans-53" transform="translate(335.75 0)"/>
     <use xlink:href="#DejaVuSans-52" transform="translate(399.234375 0)"/>
     <use xlink:href="#DejaVuSans-5a" transform="translate(460.421875 0)"/>
     <use xlink:href="#DejaVuSans-48" transform="translate(542.203125 0)"/>
     <use xlink:href="#DejaVuSans-55" transform="translate(603.734375 0)"/>
     <use xlink:href="#DejaVuSans-f" transform="translate(644.84375 0)"/>
     <use xlink:href="#DejaVuSans-3" transform="translate(676.625 0)"/>
     <use xlink:href="#DejaVuSans-55" transform="translate(708.40625 0)"/>
     <use xlink:href="#DejaVuSans-48" transform="translate(747.3125 0)"/>
     <use xlink:href="#DejaVuSans-44" transform="translate(808.84375 0)"/>
     <use xlink:href="#DejaVuSans-46" transform="translate(870.125 0)"/>
     <use xlink:href="#DejaVuSans-57" transform="translate(925.109375 0)"/>
     <use xlink:href="#DejaVuSans-4c" transform="translate(964.3125 0)"/>
     <use xlink:href="#DejaVuSans-59" transform="translate(992.09375 0)"/>
     <use xlink:href="#DejaVuSans-48" transform="translate(1051.28125 0)"/>
     <use xlink:href="#DejaVuSans-3" transform="translate(1112.8125 0)"/>
     <use xlink:href="#DejaVuSans-53" transform="translate(1144.59375 0)"/>
     <use xlink:href="#DejaVuSans-52" transform="translate(1208.078125 0)"/>
     <use xlink:href="#DejaVuSans-5a" transform="translate(1269.265625 0)"/>
     <use xlink:href="#DejaVuSans-48" transform="translate(1351.046875 0)"/>
     <use xlink:href="#DejaVuSans-55" transform="translate(1412.578125 0)"/>
     <use xlink:href="#DejaVuSans-f" transform="translate(1453.6875 0)"/>
     <use xlink:href="#DejaVuSans-3" transform="translate(1485.46875 0)"/>
     <use xlink:href="#DejaVuSans-46" transform="translate(1517.25 0)"/>
     <use xlink:href="#DejaVuSans-58" transform="translate(1572.234375 0)"/>
     <use xlink:href="#DejaVuSans-55" transform="translate(1635.609375 0)"/>
     <use xlink:href="#DejaVuSans-55" transform="translate(1674.96875 0)"/>
     <use xlink:href="#DejaVuSans-48" transform="translate(1713.875 0)"/>
     <use xlink:href="#DejaVuSans-51" transform="translate(1775.40625 0)"/>
     <use xlink:href="#DejaVuSans-57" transform="translate(1838.78125 0)"/>
    </g>
   </g>
   <g id="text_5">
    <!-- switch-on settles -->
    <g style="fill: #6b7280" transform="translate(229.858789 235.671429) scale(0.095 -0.095)">
     <defs>
      <path id="DejaVuSans-Oblique-56" d="M 3200 3397 
L 3091 2853 
Q 2863 2978 2609 3040 
Q 2356 3103 2088 3103 
Q 1634 3103 1373 2948 
Q 1113 2794 1113 2528 
Q 1113 2219 1719 2053 
Q 1766 2041 1788 2034 
L 1972 1978 
Q 2547 1819 2739 1644 
Q 2931 1469 2931 1166 
Q 2931 609 2489 259 
Q 2047 -91 1331 -91 
Q 1053 -91 747 -37 
Q 441 16 72 128 
L 184 722 
Q 500 559 806 475 
Q 1113 391 1394 391 
Q 1816 391 2080 572 
Q 2344 753 2344 1031 
Q 2344 1331 1650 1516 
L 1591 1531 
L 1394 1581 
Q 956 1697 753 1886 
Q 550 2075 550 2369 
Q 550 2928 970 3256 
Q 1391 3584 2113 3584 
Q 2397 3584 2667 3537 
Q 2938 3491 3200 3397 
z
" transform="scale(0.015625)"/>
      <path id="DejaVuSans-Oblique-5a" d="M 544 3500 
L 1113 3500 
L 1259 684 
L 2566 3500 
L 3231 3500 
L 3425 684 
L 4666 3500 
L 5241 3500 
L 3641 0 
L 2969 0 
L 2797 2900 
L 1459 0 
L 781 0 
L 544 3500 
z
" transform="scale(0.015625)"/>
      <path id="DejaVuSans-Oblique-4c" d="M 1172 4863 
L 1747 4863 
L 1606 4134 
L 1031 4134 
L 1172 4863 
z
M 909 3500 
L 1484 3500 
L 800 0 
L 225 0 
L 909 3500 
z
" transform="scale(0.015625)"/>
      <path id="DejaVuSans-Oblique-57" d="M 2706 3500 
L 2619 3053 
L 1472 3053 
L 1100 1153 
Q 1081 1047 1072 975 
Q 1063 903 1063 863 
Q 1063 663 1183 572 
Q 1303 481 1569 481 
L 2150 481 
L 2053 0 
L 1503 0 
Q 991 0 739 200 
Q 488 400 488 806 
Q 488 878 497 964 
Q 506 1050 525 1153 
L 897 3053 
L 409 3053 
L 500 3500 
L 978 3500 
L 1172 4494 
L 1747 4494 
L 1556 3500 
L 2706 3500 
z
" transform="scale(0.015625)"/>
      <path id="DejaVuSans-Oblique-46" d="M 3431 3366 
L 3316 2797 
Q 3109 2947 2876 3022 
Q 2644 3097 2394 3097 
Q 2119 3097 1870 3000 
Q 1622 2903 1453 2725 
Q 1184 2453 1037 2087 
Q 891 1722 891 1331 
Q 891 859 1127 628 
Q 1363 397 1844 397 
Q 2081 397 2348 469 
Q 2616 541 2906 684 
L 2797 116 
Q 2547 13 2283 -39 
Q 2019 -91 1741 -91 
Q 1044 -91 669 257 
Q 294 606 294 1253 
Q 294 1797 489 2255 
Q 684 2713 1069 3078 
Q 1331 3328 1684 3456 
Q 2038 3584 2456 3584 
Q 2700 3584 2940 3529 
Q 3181 3475 3431 3366 
z
" transform="scale(0.015625)"/>
      <path id="DejaVuSans-Oblique-4b" d="M 3566 2113 
L 3156 0 
L 2578 0 
L 2988 2091 
Q 3016 2238 3031 2350 
Q 3047 2463 3047 2528 
Q 3047 2791 2881 2937 
Q 2716 3084 2419 3084 
Q 1956 3084 1617 2771 
Q 1278 2459 1178 1941 
L 800 0 
L 225 0 
L 1172 4863 
L 1747 4863 
L 1375 2950 
Q 1594 3244 1934 3414 
Q 2275 3584 2650 3584 
Q 3113 3584 3367 3334 
Q 3622 3084 3622 2631 
Q 3622 2519 3608 2391 
Q 3594 2263 3566 2113 
z
" transform="scale(0.015625)"/>
      <path id="DejaVuSans-Oblique-10" d="M 391 2009 
L 2075 2009 
L 1978 1497 
L 288 1497 
L 391 2009 
z
" transform="scale(0.015625)"/>
      <path id="DejaVuSans-Oblique-52" d="M 1625 -91 
Q 1009 -91 651 289 
Q 294 669 294 1325 
Q 294 1706 417 2101 
Q 541 2497 738 2766 
Q 1047 3184 1428 3384 
Q 1809 3584 2291 3584 
Q 2888 3584 3255 3212 
Q 3622 2841 3622 2241 
Q 3622 1825 3500 1412 
Q 3378 1000 3181 728 
Q 2875 309 2494 109 
Q 2113 -91 1625 -91 
z
M 891 1344 
Q 891 869 1089 633 
Q 1288 397 1691 397 
Q 2269 397 2648 901 
Q 3028 1406 3028 2181 
Q 3028 2634 2825 2865 
Q 2622 3097 2228 3097 
Q 1903 3097 1650 2945 
Q 1397 2794 1197 2484 
Q 1050 2253 970 1956 
Q 891 1659 891 1344 
z
" transform="scale(0.015625)"/>
      <path id="DejaVuSans-Oblique-51" d="M 3566 2113 
L 3156 0 
L 2578 0 
L 2988 2091 
Q 3016 2238 3031 2350 
Q 3047 2463 3047 2528 
Q 3047 2791 2881 2937 
Q 2716 3084 2419 3084 
Q 1956 3084 1622 2776 
Q 1288 2469 1184 1941 
L 800 0 
L 225 0 
L 903 3500 
L 1478 3500 
L 1363 2950 
Q 1603 3253 1940 3418 
Q 2278 3584 2650 3584 
Q 3113 3584 3367 3334 
Q 3622 3084 3622 2631 
Q 3622 2519 3608 2391 
Q 3594 2263 3566 2113 
z
" transform="scale(0.015625)"/>
      <path id="DejaVuSans-Oblique-3" transform="scale(0.015625)"/>
      <path id="DejaVuSans-Oblique-48" d="M 3078 2063 
Q 3088 2113 3092 2166 
Q 3097 2219 3097 2272 
Q 3097 2653 2873 2875 
Q 2650 3097 2266 3097 
Q 1838 3097 1509 2826 
Q 1181 2556 1013 2059 
L 3078 2063 
z
M 3578 1613 
L 903 1613 
Q 884 1494 878 1425 
Q 872 1356 872 1306 
Q 872 872 1139 634 
Q 1406 397 1894 397 
Q 2269 397 2603 481 
Q 2938 566 3225 728 
L 3116 159 
Q 2806 34 2476 -28 
Q 2147 -91 1806 -91 
Q 1078 -91 686 257 
Q 294 606 294 1247 
Q 294 1794 489 2264 
Q 684 2734 1063 3103 
Q 1306 3334 1642 3459 
Q 1978 3584 2356 3584 
Q 2950 3584 3301 3228 
Q 3653 2872 3653 2272 
Q 3653 2128 3634 1964 
Q 3616 1800 3578 1613 
z
" transform="scale(0.015625)"/>
      <path id="DejaVuSans-Oblique-4f" d="M 1172 4863 
L 1747 4863 
L 800 0 
L 225 0 
L 1172 4863 
z
" transform="scale(0.015625)"/>
     </defs>
     <use xlink:href="#DejaVuSans-Oblique-56"/>
     <use xlink:href="#DejaVuSans-Oblique-5a" transform="translate(52.09375 0)"/>
     <use xlink:href="#DejaVuSans-Oblique-4c" transform="translate(133.875 0)"/>
     <use xlink:href="#DejaVuSans-Oblique-57" transform="translate(161.65625 0)"/>
     <use xlink:href="#DejaVuSans-Oblique-46" transform="translate(200.859375 0)"/>
     <use xlink:href="#DejaVuSans-Oblique-4b" transform="translate(255.84375 0)"/>
     <use xlink:href="#DejaVuSans-Oblique-10" transform="translate(319.21875 0)"/>
     <use xlink:href="#DejaVuSans-Oblique-52" transform="translate(355.296875 0)"/>
     <use xlink:href="#DejaVuSans-Oblique-51" transform="translate(416.484375 0)"/>
     <use xlink:href="#DejaVuSans-Oblique-3" transform="translate(479.859375 0)"/>
     <use xlink:href="#DejaVuSans-Oblique-56" transform="translate(511.640625 0)"/>
     <use xlink:href="#DejaVuSans-Oblique-48" transform="translate(563.734375 0)"/>
     <use xlink:href="#DejaVuSans-Oblique-57" transform="translate(625.265625 0)"/>
     <use xlink:href="#DejaVuSans-Oblique-57" transform="translate(664.46875 0)"/>
     <use xlink:href="#DejaVuSans-Oblique-4f" transform="translate(703.671875 0)"/>
     <use xlink:href="#DejaVuSans-Oblique-48" transform="translate(731.453125 0)"/>
     <use xlink:href="#DejaVuSans-Oblique-56" transform="translate(792.984375 0)"/>
    </g>
   </g>
  </g>
 </g>
 <defs>
  <clipPath id="p368a8fc4d7">
   <rect x="10.8" y="10.8" width="518.4" height="237.6"/>
  </clipPath>
 </defs>
</svg>
