<?xml version="1.0" encoding="utf-8" standalone="no"?>
<!DOCTYPE svg PUBLIC "-//W3C//DTD SVG 1.1//EN"
  "http://www.w3.org/Graphics/SVG/1.1/DTD/svg11.dtd">
<svg xmlns:xlink="http://www.w3.org/1999/xlink" width="763.2pt" height="273.6pt" viewBox="0 0 763.2 273.6" xmlns="http://www.w3.org/2000/svg" version="1.1">
 <metadata>
  <rdf:RDF xmlns:dc="http://purl.org/dc/elements/1.1/" xmlns:cc="http://creativecommons.org/ns#" xmlns:rdf="http://www.w3.org/1999/02/22-rdf-syntax-ns#">
   <cc:Work>
    <dc:type rdf:resource="http://purl.org/dc/dcmitype/StillImage"/>
    <dc:date>2026-07-12T19:18:31.811352</dc:date>
    <dc:format>image/svg+xml</dc:format>
    <dc:creator>
     <cc:Agent>
      <dc:title>Matplotlib v3.11.0, https://matplotlib.org/</dc:title>
     </cc:Agent>
    </dc:creator>
   </cc:Work>
  </rdf:RDF>
 </metadata>
 <defs>
  <style type="text/css">*{stroke-linejoin: round; stroke-linecap: butt}</style>
 </defs>
 <g id="figure_1">
  <g id="patch_1">
   <path d="M 0 273.6 
L 763.2 273.6 
L 763.2 0 
L 0 0 
z
" style="fill: #ffffff"/>
  </g>
  <g id="axes_1">
   <g id="patch_2">
    <path d="M 84.373427 130.720514 
C 88.187761 130.720514 91.846384 129.205063 94.543526 126.507921 
C 97.240668 123.810779 98.756119 120.152156 98.756119 116.337822 
C 98.756119 112.523487 97.240668 108.864864 94.543526 106.167722 
C 91.846384 103.470581 88.187761 101.955129 84.373427 101.955129 
C 80.559092 101.955129 76.900469 103.470581 74.203327 106.167722 
C 71.506185 108.864864 69.990734 112.523487 69.990734 116.337822 
C 69.990734 120.152156 71.506185 123.810779 74.203327 126.507921 
C 76.900469 129.205063 80.559092 130.720514 84.373427 130.720514 
z
" clip-path="url(#p579dc5e2b3)" style="fill: #059669; stroke: #ffffff; stroke-width: 1.2; stroke-linejoin: miter"/>
   </g>
   <g id="patch_3">
    <path d="M 143.211713 130.720514 
C 147.026048 130.720514 150.684671 129.205063 153.381813 126.507921 
C 156.078954 123.810779 157.594406 120.152156 157.594406 116.337822 
C 157.594406 112.523487 156.078954 108.864864 153.381813 106.167722 
C 150.684671 103.470581 147.026048 101.955129 143.211713 101.955129 
C 139.397379 101.955129 135.738756 103.470581 133.041614 106.167722 
C 130.344472 108.864864 128.829021 112.523487 128.829021 116.337822 
C 128.829021 120.152156 130.344472 123.810779 133.041614 126.507921 
C 135.738756 129.205063 139.397379 130.720514 143.211713 130.720514 
z
" clip-path="url(#p579dc5e2b3)" style="fill: #059669; stroke: #ffffff; stroke-width: 1.2; stroke-linejoin: miter"/>
   </g>
   <g id="patch_4">
    <path d="M 202.05 130.720514 
C 205.864335 130.720514 209.522957 129.205063 212.220099 126.507921 
C 214.917241 123.810779 216.432692 120.152156 216.432692 116.337822 
C 216.432692 112.523487 214.917241 108.864864 212.220099 106.167722 
C 209.522957 103.470581 205.864335 101.955129 202.05 101.955129 
C 198.235665 101.955129 194.577043 103.470581 191.879901 106.167722 
C 189.182759 108.864864 187.667308 112.523487 187.667308 116.337822 
C 187.667308 120.152156 189.182759 123.810779 191.879901 126.507921 
C 194.577043 129.205063 198.235665 130.720514 202.05 130.720514 
z
" clip-path="url(#p579dc5e2b3)" style="fill: #059669; stroke: #ffffff; stroke-width: 1.2; stroke-linejoin: miter"/>
   </g>
   <g id="patch_5">
    <path d="M 260.888287 130.720514 
C 264.702621 130.720514 268.361244 129.205063 271.058386 126.507921 
C 273.755528 123.810779 275.270979 120.152156 275.270979 116.337822 
C 275.270979 112.523487 273.755528 108.864864 271.058386 106.167722 
C 268.361244 103.470581 264.702621 101.955129 260.888287 101.955129 
C 257.073952 101.955129 253.415329 103.470581 250.718187 106.167722 
C 248.021046 108.864864 246.505594 112.523487 246.505594 116.337822 
C 246.505594 120.152156 248.021046 123.810779 250.718187 126.507921 
C 253.415329 129.205063 257.073952 130.720514 260.888287 130.720514 
z
" clip-path="url(#p579dc5e2b3)" style="fill: #059669; stroke: #ffffff; stroke-width: 1.2; stroke-linejoin: miter"/>
   </g>
   <g id="patch_6">
    <path d="M 319.726573 130.720514 
C 323.540908 130.720514 327.199531 129.205063 329.896673 126.507921 
C 332.593815 123.810779 334.109266 120.152156 334.109266 116.337822 
C 334.109266 112.523487 332.593815 108.864864 329.896673 106.167722 
C 327.199531 103.470581 323.540908 101.955129 319.726573 101.955129 
C 315.912239 101.955129 312.253616 103.470581 309.556474 106.167722 
C 306.859332 108.864864 305.343881 112.523487 305.343881 116.337822 
C 305.343881 120.152156 306.859332 123.810779 309.556474 126.507921 
C 312.253616 129.205063 315.912239 130.720514 319.726573 130.720514 
z
" clip-path="url(#p579dc5e2b3)" style="fill: #059669; stroke: #ffffff; stroke-width: 1.2; stroke-linejoin: miter"/>
   </g>
   <g id="text_1">
    <!-- own history -->
    <g style="fill: #6b7280" transform="translate(64.001239 143.795689) scale(0.07 -0.07)">
     <defs>
      <path id="DejaVuSans-Oblique-52" d="M 1625 -91 
Q 1009 -91 651 289 
Q 294 669 294 1325 
Q 294 1706 417 2101 
Q 541 2497 738 2766 
Q 1047 3184 1428 3384 
Q 1809 3584 2291 3584 
Q 2888 3584 3255 3212 
Q 3622 2841 3622 2241 
Q 3622 1825 3500 1412 
Q 3378 1000 3181 728 
Q 2875 309 2494 109 
Q 2113 -91 1625 -91 
z
M 891 1344 
Q 891 869 1089 633 
Q 1288 397 1691 397 
Q 2269 397 2648 901 
Q 3028 1406 3028 2181 
Q 3028 2634 2825 2865 
Q 2622 3097 2228 3097 
Q 1903 3097 1650 2945 
Q 1397 2794 1197 2484 
Q 1050 2253 970 1956 
Q 891 1659 891 1344 
z
" transform="scale(0.015625)"/>
      <path id="DejaVuSans-Oblique-5a" d="M 544 3500 
L 1113 3500 
L 1259 684 
L 2566 3500 
L 3231 3500 
L 3425 684 
L 4666 3500 
L 5241 3500 
L 3641 0 
L 2969 0 
L 2797 2900 
L 1459 0 
L 781 0 
L 544 3500 
z
" transform="scale(0.015625)"/>
      <path id="DejaVuSans-Oblique-51" d="M 3566 2113 
L 3156 0 
L 2578 0 
L 2988 2091 
Q 3016 2238 3031 2350 
Q 3047 2463 3047 2528 
Q 3047 2791 2881 2937 
Q 2716 3084 2419 3084 
Q 1956 3084 1622 2776 
Q 1288 2469 1184 1941 
L 800 0 
L 225 0 
L 903 3500 
L 1478 3500 
L 1363 2950 
Q 1603 3253 1940 3418 
Q 2278 3584 2650 3584 
Q 3113 3584 3367 3334 
Q 3622 3084 3622 2631 
Q 3622 2519 3608 2391 
Q 3594 2263 3566 2113 
z
" transform="scale(0.015625)"/>
      <path id="DejaVuSans-Oblique-3" transform="scale(0.015625)"/>
      <path id="DejaVuSans-Oblique-4b" d="M 3566 2113 
L 3156 0 
L 2578 0 
L 2988 2091 
Q 3016 2238 3031 2350 
Q 3047 2463 3047 2528 
Q 3047 2791 2881 2937 
Q 2716 3084 2419 3084 
Q 1956 3084 1617 2771 
Q 1278 2459 1178 1941 
L 800 0 
L 225 0 
L 1172 4863 
L 1747 4863 
L 1375 2950 
Q 1594 3244 1934 3414 
Q 2275 3584 2650 3584 
Q 3113 3584 3367 3334 
Q 3622 3084 3622 2631 
Q 3622 2519 3608 2391 
Q 3594 2263 3566 2113 
z
" transform="scale(0.015625)"/>
      <path id="DejaVuSans-Oblique-4c" d="M 1172 4863 
L 1747 4863 
L 1606 4134 
L 1031 4134 
L 1172 4863 
z
M 909 3500 
L 1484 3500 
L 800 0 
L 225 0 
L 909 3500 
z
" transform="scale(0.015625)"/>
      <path id="DejaVuSans-Oblique-56" d="M 3200 3397 
L 3091 2853 
Q 2863 2978 2609 3040 
Q 2356 3103 2088 3103 
Q 1634 3103 1373 2948 
Q 1113 2794 1113 2528 
Q 1113 2219 1719 2053 
Q 1766 2041 1788 2034 
L 1972 1978 
Q 2547 1819 2739 1644 
Q 2931 1469 2931 1166 
Q 2931 609 2489 259 
Q 2047 -91 1331 -91 
Q 1053 -91 747 -37 
Q 441 16 72 128 
L 184 722 
Q 500 559 806 475 
Q 1113 391 1394 391 
Q 1816 391 2080 572 
Q 2344 753 2344 1031 
Q 2344 1331 1650 1516 
L 1591 1531 
L 1394 1581 
Q 956 1697 753 1886 
Q 550 2075 550 2369 
Q 550 2928 970 3256 
Q 1391 3584 2113 3584 
Q 2397 3584 2667 3537 
Q 2938 3491 3200 3397 
z
" transform="scale(0.015625)"/>
      <path id="DejaVuSans-Oblique-57" d="M 2706 3500 
L 2619 3053 
L 1472 3053 
L 1100 1153 
Q 1081 1047 1072 975 
Q 1063 903 1063 863 
Q 1063 663 1183 572 
Q 1303 481 1569 481 
L 2150 481 
L 2053 0 
L 1503 0 
Q 991 0 739 200 
Q 488 400 488 806 
Q 488 878 497 964 
Q 506 1050 525 1153 
L 897 3053 
L 409 3053 
L 500 3500 
L 978 3500 
L 1172 4494 
L 1747 4494 
L 1556 3500 
L 2706 3500 
z
" transform="scale(0.015625)"/>
      <path id="DejaVuSans-Oblique-55" d="M 2853 2969 
Q 2766 3016 2653 3041 
Q 2541 3066 2413 3066 
Q 1953 3066 1609 2717 
Q 1266 2369 1153 1784 
L 800 0 
L 225 0 
L 909 3500 
L 1484 3500 
L 1375 2956 
Q 1603 3259 1920 3421 
Q 2238 3584 2597 3584 
Q 2691 3584 2781 3573 
Q 2872 3563 2963 3538 
L 2853 2969 
z
" transform="scale(0.015625)"/>
      <path id="DejaVuSans-Oblique-5c" d="M 1588 -325 
Q 1188 -997 936 -1164 
Q 684 -1331 294 -1331 
L -159 -1331 
L -63 -850 
L 269 -850 
Q 509 -850 678 -719 
Q 847 -588 1056 -206 
L 1234 128 
L 459 3500 
L 1069 3500 
L 1650 819 
L 3256 3500 
L 3859 3500 
L 1588 -325 
z
" transform="scale(0.015625)"/>
     </defs>
     <use xlink:href="#DejaVuSans-Oblique-52"/>
     <use xlink:href="#DejaVuSans-Oblique-5a" transform="translate(61.1875 0)"/>
     <use xlink:href="#DejaVuSans-Oblique-51" transform="translate(142.96875 0)"/>
     <use xlink:href="#DejaVuSans-Oblique-3" transform="translate(206.34375 0)"/>
     <use xlink:href="#DejaVuSans-Oblique-4b" transform="translate(238.125 0)"/>
     <use xlink:href="#DejaVuSans-Oblique-4c" transform="translate(301.5 0)"/>
     <use xlink:href="#DejaVuSans-Oblique-56" transform="translate(329.28125 0)"/>
     <use xlink:href="#DejaVuSans-Oblique-57" transform="translate(381.375 0)"/>
     <use xlink:href="#DejaVuSans-Oblique-52" transform="translate(420.578125 0)"/>
     <use xlink:href="#DejaVuSans-Oblique-55" transform="translate(481.765625 0)"/>
     <use xlink:href="#DejaVuSans-Oblique-5c" transform="translate(522.875 0)"/>
    </g>
   </g>
   <g id="text_2">
    <!-- ✓ -->
    <g style="fill: #059669" transform="translate(78.92663 90.187472) scale(0.13 -0.13)">
     <defs>
      <path id="DejaVuSans-Bold-fa3" d="M 1416 2044 
Q 1538 2044 1600 1844 
Q 1725 1469 1778 1469 
Q 1819 1469 1863 1531 
Q 2741 2938 3488 3806 
Q 3681 4031 4103 4031 
Q 4203 4031 4237 4012 
Q 4272 3994 4272 3966 
Q 4272 3922 4169 3794 
Q 2963 2344 1931 731 
Q 1859 619 1638 619 
Q 1413 619 1372 638 
Q 1266 684 1122 1116 
Q 959 1594 959 1716 
Q 959 1847 1178 1969 
Q 1313 2044 1416 2044 
z
" transform="scale(0.015625)"/>
     </defs>
     <use xlink:href="#DejaVuSans-Bold-fa3"/>
    </g>
   </g>
   <g id="text_3">
    <!-- own history -->
    <g style="fill: #6b7280" transform="translate(122.839526 143.795689) scale(0.07 -0.07)">
     <use xlink:href="#DejaVuSans-Oblique-52"/>
     <use xlink:href="#DejaVuSans-Oblique-5a" transform="translate(61.1875 0)"/>
     <use xlink:href="#DejaVuSans-Oblique-51" transform="translate(142.96875 0)"/>
     <use xlink:href="#DejaVuSans-Oblique-3" transform="translate(206.34375 0)"/>
     <use xlink:href="#DejaVuSans-Oblique-4b" transform="translate(238.125 0)"/>
     <use xlink:href="#DejaVuSans-Oblique-4c" transform="translate(301.5 0)"/>
     <use xlink:href="#DejaVuSans-Oblique-56" transform="translate(329.28125 0)"/>
     <use xlink:href="#DejaVuSans-Oblique-57" transform="translate(381.375 0)"/>
     <use xlink:href="#DejaVuSans-Oblique-52" transform="translate(420.578125 0)"/>
     <use xlink:href="#DejaVuSans-Oblique-55" transform="translate(481.765625 0)"/>
     <use xlink:href="#DejaVuSans-Oblique-5c" transform="translate(522.875 0)"/>
    </g>
   </g>
   <g id="text_4">
    <!-- ✓ -->
    <g style="fill: #059669" transform="translate(137.764916 90.187472) scale(0.13 -0.13)">
     <use xlink:href="#DejaVuSans-Bold-fa3"/>
    </g>
   </g>
   <g id="text_5">
    <!-- own history -->
    <g style="fill: #6b7280" transform="translate(181.677812 143.795689) scale(0.07 -0.07)">
     <use xlink:href="#DejaVuSans-Oblique-52"/>
     <use xlink:href="#DejaVuSans-Oblique-5a" transform="translate(61.1875 0)"/>
     <use xlink:href="#DejaVuSans-Oblique-51" transform="translate(142.96875 0)"/>
     <use xlink:href="#DejaVuSans-Oblique-3" transform="translate(206.34375 0)"/>
     <use xlink:href="#DejaVuSans-Oblique-4b" transform="translate(238.125 0)"/>
     <use xlink:href="#DejaVuSans-Oblique-4c" transform="translate(301.5 0)"/>
     <use xlink:href="#DejaVuSans-Oblique-56" transform="translate(329.28125 0)"/>
     <use xlink:href="#DejaVuSans-Oblique-57" transform="translate(381.375 0)"/>
     <use xlink:href="#DejaVuSans-Oblique-52" transform="translate(420.578125 0)"/>
     <use xlink:href="#DejaVuSans-Oblique-55" transform="translate(481.765625 0)"/>
     <use xlink:href="#DejaVuSans-Oblique-5c" transform="translate(522.875 0)"/>
    </g>
   </g>
   <g id="text_6">
    <!-- ✓ -->
    <g style="fill: #059669" transform="translate(196.603203 90.187472) scale(0.13 -0.13)">
     <use xlink:href="#DejaVuSans-Bold-fa3"/>
    </g>
   </g>
   <g id="text_7">
    <!-- own history -->
    <g style="fill: #6b7280" transform="translate(240.516099 143.795689) scale(0.07 -0.07)">
     <use xlink:href="#DejaVuSans-Oblique-52"/>
     <use xlink:href="#DejaVuSans-Oblique-5a" transform="translate(61.1875 0)"/>
     <use xlink:href="#DejaVuSans-Oblique-51" transform="translate(142.96875 0)"/>
     <use xlink:href="#DejaVuSans-Oblique-3" transform="translate(206.34375 0)"/>
     <use xlink:href="#DejaVuSans-Oblique-4b" transform="translate(238.125 0)"/>
     <use xlink:href="#DejaVuSans-Oblique-4c" transform="translate(301.5 0)"/>
     <use xlink:href="#DejaVuSans-Oblique-56" transform="translate(329.28125 0)"/>
     <use xlink:href="#DejaVuSans-Oblique-57" transform="translate(381.375 0)"/>
     <use xlink:href="#DejaVuSans-Oblique-52" transform="translate(420.578125 0)"/>
     <use xlink:href="#DejaVuSans-Oblique-55" transform="translate(481.765625 0)"/>
     <use xlink:href="#DejaVuSans-Oblique-5c" transform="translate(522.875 0)"/>
    </g>
   </g>
   <g id="text_8">
    <!-- ✓ -->
    <g style="fill: #059669" transform="translate(255.44149 90.187472) scale(0.13 -0.13)">
     <use xlink:href="#DejaVuSans-Bold-fa3"/>
    </g>
   </g>
   <g id="text_9">
    <!-- own history -->
    <g style="fill: #6b7280" transform="translate(299.354386 143.795689) scale(0.07 -0.07)">
     <use xlink:href="#DejaVuSans-Oblique-52"/>
     <use xlink:href="#DejaVuSans-Oblique-5a" transform="translate(61.1875 0)"/>
     <use xlink:href="#DejaVuSans-Oblique-51" transform="translate(142.96875 0)"/>
     <use xlink:href="#DejaVuSans-Oblique-3" transform="translate(206.34375 0)"/>
     <use xlink:href="#DejaVuSans-Oblique-4b" transform="translate(238.125 0)"/>
     <use xlink:href="#DejaVuSans-Oblique-4c" transform="translate(301.5 0)"/>
     <use xlink:href="#DejaVuSans-Oblique-56" transform="translate(329.28125 0)"/>
     <use xlink:href="#DejaVuSans-Oblique-57" transform="translate(381.375 0)"/>
     <use xlink:href="#DejaVuSans-Oblique-52" transform="translate(420.578125 0)"/>
     <use xlink:href="#DejaVuSans-Oblique-55" transform="translate(481.765625 0)"/>
     <use xlink:href="#DejaVuSans-Oblique-5c" transform="translate(522.875 0)"/>
    </g>
   </g>
   <g id="text_10">
    <!-- ✓ -->
    <g style="fill: #059669" transform="translate(314.279777 90.187472) scale(0.13 -0.13)">
     <use xlink:href="#DejaVuSans-Bold-fa3"/>
    </g>
   </g>
   <g id="text_11">
    <!-- A regionally sunny day already sits inside each customer's own real history -->
    <g style="fill: #6b7280" transform="translate(47.301266 198.057664) scale(0.082 -0.082)">
     <defs>
      <path id="DejaVuSans-Oblique-24" d="M 2356 4666 
L 3072 4666 
L 3938 0 
L 3278 0 
L 3084 1197 
L 984 1197 
L 325 0 
L -341 0 
L 2356 4666 
z
M 2584 4044 
L 1275 1722 
L 2988 1722 
L 2584 4044 
z
" transform="scale(0.015625)"/>
      <path id="DejaVuSans-Oblique-48" d="M 3078 2063 
Q 3088 2113 3092 2166 
Q 3097 2219 3097 2272 
Q 3097 2653 2873 2875 
Q 2650 3097 2266 3097 
Q 1838 3097 1509 2826 
Q 1181 2556 1013 2059 
L 3078 2063 
z
M 3578 1613 
L 903 1613 
Q 884 1494 878 1425 
Q 872 1356 872 1306 
Q 872 872 1139 634 
Q 1406 397 1894 397 
Q 2269 397 2603 481 
Q 2938 566 3225 728 
L 3116 159 
Q 2806 34 2476 -28 
Q 2147 -91 1806 -91 
Q 1078 -91 686 257 
Q 294 606 294 1247 
Q 294 1794 489 2264 
Q 684 2734 1063 3103 
Q 1306 3334 1642 3459 
Q 1978 3584 2356 3584 
Q 2950 3584 3301 3228 
Q 3653 2872 3653 2272 
Q 3653 2128 3634 1964 
Q 3616 1800 3578 1613 
z
" transform="scale(0.015625)"/>
      <path id="DejaVuSans-Oblique-4a" d="M 3816 3500 
L 3219 434 
Q 3047 -456 2561 -893 
Q 2075 -1331 1253 -1331 
Q 950 -1331 690 -1286 
Q 431 -1241 206 -1147 
L 313 -588 
Q 525 -725 762 -790 
Q 1000 -856 1269 -856 
Q 1816 -856 2167 -557 
Q 2519 -259 2631 300 
L 2681 563 
Q 2441 288 2122 144 
Q 1803 0 1434 0 
Q 903 0 598 351 
Q 294 703 294 1319 
Q 294 1803 478 2267 
Q 663 2731 997 3091 
Q 1219 3328 1514 3456 
Q 1809 3584 2131 3584 
Q 2484 3584 2746 3420 
Q 3009 3256 3138 2956 
L 3238 3500 
L 3816 3500 
z
M 2950 2216 
Q 2950 2641 2750 2872 
Q 2550 3103 2181 3103 
Q 1953 3103 1747 3012 
Q 1541 2922 1394 2759 
Q 1156 2491 1023 2127 
Q 891 1763 891 1375 
Q 891 944 1092 712 
Q 1294 481 1672 481 
Q 2219 481 2584 976 
Q 2950 1472 2950 2216 
z
" transform="scale(0.015625)"/>
      <path id="DejaVuSans-Oblique-44" d="M 3438 1997 
L 3047 0 
L 2472 0 
L 2578 531 
Q 2325 219 2001 64 
Q 1678 -91 1281 -91 
Q 834 -91 548 182 
Q 263 456 263 884 
Q 263 1497 752 1853 
Q 1241 2209 2100 2209 
L 2900 2209 
L 2931 2363 
Q 2938 2388 2941 2417 
Q 2944 2447 2944 2509 
Q 2944 2788 2717 2942 
Q 2491 3097 2081 3097 
Q 1800 3097 1504 3025 
Q 1209 2953 897 2809 
L 997 3341 
Q 1322 3463 1633 3523 
Q 1944 3584 2234 3584 
Q 2853 3584 3176 3315 
Q 3500 3047 3500 2534 
Q 3500 2431 3484 2292 
Q 3469 2153 3438 1997 
z
M 2816 1759 
L 2241 1759 
Q 1534 1759 1195 1570 
Q 856 1381 856 984 
Q 856 709 1029 553 
Q 1203 397 1509 397 
Q 1978 397 2328 733 
Q 2678 1069 2791 1631 
L 2816 1759 
z
" transform="scale(0.015625)"/>
      <path id="DejaVuSans-Oblique-4f" d="M 1172 4863 
L 1747 4863 
L 800 0 
L 225 0 
L 1172 4863 
z
" transform="scale(0.015625)"/>
      <path id="DejaVuSans-Oblique-58" d="M 428 1388 
L 838 3500 
L 1416 3500 
L 1006 1409 
Q 975 1256 961 1147 
Q 947 1038 947 966 
Q 947 700 1109 554 
Q 1272 409 1569 409 
Q 2031 409 2368 721 
Q 2706 1034 2809 1563 
L 3194 3500 
L 3769 3500 
L 3091 0 
L 2516 0 
L 2631 550 
Q 2388 244 2052 76 
Q 1716 -91 1338 -91 
Q 878 -91 622 161 
Q 366 413 366 863 
Q 366 956 381 1097 
Q 397 1238 428 1388 
z
" transform="scale(0.015625)"/>
      <path id="DejaVuSans-Oblique-47" d="M 2675 525 
Q 2444 222 2128 65 
Q 1813 -91 1428 -91 
Q 903 -91 598 267 
Q 294 625 294 1247 
Q 294 1766 478 2236 
Q 663 2706 1013 3078 
Q 1244 3325 1534 3454 
Q 1825 3584 2144 3584 
Q 2481 3584 2739 3421 
Q 2997 3259 3138 2956 
L 3513 4863 
L 4091 4863 
L 3144 0 
L 2566 0 
L 2675 525 
z
M 891 1350 
Q 891 897 1095 644 
Q 1300 391 1663 391 
Q 1931 391 2161 520 
Q 2391 650 2566 903 
Q 2750 1166 2856 1509 
Q 2963 1853 2963 2188 
Q 2963 2622 2758 2865 
Q 2553 3109 2194 3109 
Q 1922 3109 1687 2981 
Q 1453 2853 1288 2613 
Q 1106 2353 998 2009 
Q 891 1666 891 1350 
z
" transform="scale(0.015625)"/>
      <path id="DejaVuSans-Oblique-46" d="M 3431 3366 
L 3316 2797 
Q 3109 2947 2876 3022 
Q 2644 3097 2394 3097 
Q 2119 3097 1870 3000 
Q 1622 2903 1453 2725 
Q 1184 2453 1037 2087 
Q 891 1722 891 1331 
Q 891 859 1127 628 
Q 1363 397 1844 397 
Q 2081 397 2348 469 
Q 2616 541 2906 684 
L 2797 116 
Q 2547 13 2283 -39 
Q 2019 -91 1741 -91 
Q 1044 -91 669 257 
Q 294 606 294 1253 
Q 294 1797 489 2255 
Q 684 2713 1069 3078 
Q 1331 3328 1684 3456 
Q 2038 3584 2456 3584 
Q 2700 3584 2940 3529 
Q 3181 3475 3431 3366 
z
" transform="scale(0.015625)"/>
      <path id="DejaVuSans-Oblique-50" d="M 5747 2113 
L 5338 0 
L 4763 0 
L 5166 2094 
Q 5191 2228 5203 2325 
Q 5216 2422 5216 2491 
Q 5216 2772 5059 2928 
Q 4903 3084 4622 3084 
Q 4203 3084 3875 2770 
Q 3547 2456 3450 1953 
L 3066 0 
L 2491 0 
L 2900 2094 
Q 2925 2209 2937 2307 
Q 2950 2406 2950 2484 
Q 2950 2769 2794 2926 
Q 2638 3084 2363 3084 
Q 1938 3084 1609 2770 
Q 1281 2456 1184 1953 
L 800 0 
L 225 0 
L 909 3500 
L 1484 3500 
L 1375 2956 
Q 1609 3263 1923 3423 
Q 2238 3584 2597 3584 
Q 2978 3584 3223 3384 
Q 3469 3184 3519 2828 
Q 3781 3197 4126 3390 
Q 4472 3584 4856 3584 
Q 5306 3584 5551 3325 
Q 5797 3066 5797 2591 
Q 5797 2488 5784 2364 
Q 5772 2241 5747 2113 
z
" transform="scale(0.015625)"/>
      <path id="DejaVuSans-Oblique-a" d="M 1147 4666 
L 1147 2931 
L 616 2931 
L 616 4666 
L 1147 4666 
z
" transform="scale(0.015625)"/>
     </defs>
     <use xlink:href="#DejaVuSans-Oblique-24"/>
     <use xlink:href="#DejaVuSans-Oblique-3" transform="translate(68.40625 0)"/>
     <use xlink:href="#DejaVuSans-Oblique-55" transform="translate(100.1875 0)"/>
     <use xlink:href="#DejaVuSans-Oblique-48" transform="translate(141.296875 0)"/>
     <use xlink:href="#DejaVuSans-Oblique-4a" transform="translate(202.828125 0)"/>
     <use xlink:href="#DejaVuSans-Oblique-4c" transform="translate(266.3125 0)"/>
     <use xlink:href="#DejaVuSans-Oblique-52" transform="translate(294.09375 0)"/>
     <use xlink:href="#DejaVuSans-Oblique-51" transform="translate(355.28125 0)"/>
     <use xlink:href="#DejaVuSans-Oblique-44" transform="translate(418.65625 0)"/>
     <use xlink:href="#DejaVuSans-Oblique-4f" transform="translate(479.9375 0)"/>
     <use xlink:href="#DejaVuSans-Oblique-4f" transform="translate(507.71875 0)"/>
     <use xlink:href="#DejaVuSans-Oblique-5c" transform="translate(535.5 0)"/>
     <use xlink:href="#DejaVuSans-Oblique-3" transform="translate(594.6875 0)"/>
     <use xlink:href="#DejaVuSans-Oblique-56" transform="translate(626.46875 0)"/>
     <use xlink:href="#DejaVuSans-Oblique-58" transform="translate(678.5625 0)"/>
     <use xlink:href="#DejaVuSans-Oblique-51" transform="translate(741.9375 0)"/>
     <use xlink:href="#DejaVuSans-Oblique-51" transform="translate(805.3125 0)"/>
     <use xlink:href="#DejaVuSans-Oblique-5c" transform="translate(868.6875 0)"/>
     <use xlink:href="#DejaVuSans-Oblique-3" transform="translate(927.875 0)"/>
     <use xlink:href="#DejaVuSans-Oblique-47" transform="translate(959.65625 0)"/>
     <use xlink:href="#DejaVuSans-Oblique-44" transform="translate(1023.140625 0)"/>
     <use xlink:href="#DejaVuSans-Oblique-5c" transform="translate(1084.421875 0)"/>
     <use xlink:href="#DejaVuSans-Oblique-3" transform="translate(1143.609375 0)"/>
     <use xlink:href="#DejaVuSans-Oblique-44" transform="translate(1175.390625 0)"/>
     <use xlink:href="#DejaVuSans-Oblique-4f" transform="translate(1236.671875 0)"/>
     <use xlink:href="#DejaVuSans-Oblique-55" transform="translate(1264.453125 0)"/>
     <use xlink:href="#DejaVuSans-Oblique-48" transform="translate(1305.5625 0)"/>
     <use xlink:href="#DejaVuSans-Oblique-44" transform="translate(1367.09375 0)"/>
     <use xlink:href="#DejaVuSans-Oblique-47" transform="translate(1428.375 0)"/>
     <use xlink:href="#DejaVuSans-Oblique-5c" transform="translate(1491.859375 0)"/>
     <use xlink:href="#DejaVuSans-Oblique-3" transform="translate(1551.046875 0)"/>
     <use xlink:href="#DejaVuSans-Oblique-56" transform="translate(1582.828125 0)"/>
     <use xlink:href="#DejaVuSans-Oblique-4c" transform="translate(1634.921875 0)"/>
     <use xlink:href="#DejaVuSans-Oblique-57" transform="translate(1662.703125 0)"/>
     <use xlink:href="#DejaVuSans-Oblique-56" transform="translate(1701.90625 0)"/>
     <use xlink:href="#DejaVuSans-Oblique-3" transform="translate(1754 0)"/>
     <use xlink:href="#DejaVuSans-Oblique-4c" transform="translate(1785.78125 0)"/>
     <use xlink:href="#DejaVuSans-Oblique-51" transform="translate(1813.5625 0)"/>
     <use xlink:href="#DejaVuSans-Oblique-56" transform="translate(1876.9375 0)"/>
     <use xlink:href="#DejaVuSans-Oblique-4c" transform="translate(1929.03125 0)"/>
     <use xlink:href="#DejaVuSans-Oblique-47" transform="translate(1956.8125 0)"/>
     <use xlink:href="#DejaVuSans-Oblique-48" transform="translate(2020.296875 0)"/>
     <use xlink:href="#DejaVuSans-Oblique-3" transform="translate(2081.828125 0)"/>
     <use xlink:href="#DejaVuSans-Oblique-48" transform="translate(2113.609375 0)"/>
     <use xlink:href="#DejaVuSans-Oblique-44" transform="translate(2175.140625 0)"/>
     <use xlink:href="#DejaVuSans-Oblique-46" transform="translate(2236.421875 0)"/>
     <use xlink:href="#DejaVuSans-Oblique-4b" transform="translate(2291.40625 0)"/>
     <use xlink:href="#DejaVuSans-Oblique-3" transform="translate(2354.78125 0)"/>
     <use xlink:href="#DejaVuSans-Oblique-46" transform="translate(2386.5625 0)"/>
     <use xlink:href="#DejaVuSans-Oblique-58" transform="translate(2441.546875 0)"/>
     <use xlink:href="#DejaVuSans-Oblique-56" transform="translate(2504.921875 0)"/>
     <use xlink:href="#DejaVuSans-Oblique-57" transform="translate(2557.015625 0)"/>
     <use xlink:href="#DejaVuSans-Oblique-52" transform="translate(2596.21875 0)"/>
     <use xlink:href="#DejaVuSans-Oblique-50" transform="translate(2657.40625 0)"/>
     <use xlink:href="#DejaVuSans-Oblique-48" transform="translate(2754.8125 0)"/>
     <use xlink:href="#DejaVuSans-Oblique-55" transform="translate(2816.34375 0)"/>
     <use xlink:href="#DejaVuSans-Oblique-a" transform="translate(2857.453125 0)"/>
     <use xlink:href="#DejaVuSans-Oblique-56" transform="translate(2884.9375 0)"/>
     <use xlink:href="#DejaVuSans-Oblique-3" transform="translate(2937.03125 0)"/>
     <use xlink:href="#DejaVuSans-Oblique-52" transform="translate(2968.8125 0)"/>
     <use xlink:href="#DejaVuSans-Oblique-5a" transform="translate(3030 0)"/>
     <use xlink:href="#DejaVuSans-Oblique-51" transform="translate(3111.78125 0)"/>
     <use xlink:href="#DejaVuSans-Oblique-3" transform="translate(3175.15625 0)"/>
     <use xlink:href="#DejaVuSans-Oblique-55" transform="translate(3206.9375 0)"/>
     <use xlink:href="#DejaVuSans-Oblique-48" transform="translate(3248.046875 0)"/>
     <use xlink:href="#DejaVuSans-Oblique-44" transform="translate(3309.578125 0)"/>
     <use xlink:href="#DejaVuSans-Oblique-4f" transform="translate(3370.859375 0)"/>
     <use xlink:href="#DejaVuSans-Oblique-3" transform="translate(3398.640625 0)"/>
     <use xlink:href="#DejaVuSans-Oblique-4b" transform="translate(3430.421875 0)"/>
     <use xlink:href="#DejaVuSans-Oblique-4c" transform="translate(3493.796875 0)"/>
     <use xlink:href="#DejaVuSans-Oblique-56" transform="translate(3521.578125 0)"/>
     <use xlink:href="#DejaVuSans-Oblique-57" transform="translate(3573.671875 0)"/>
     <use xlink:href="#DejaVuSans-Oblique-52" transform="translate(3612.875 0)"/>
     <use xlink:href="#DejaVuSans-Oblique-55" transform="translate(3674.0625 0)"/>
     <use xlink:href="#DejaVuSans-Oblique-5c" transform="translate(3715.171875 0)"/>
    </g>
   </g>
   <g id="text_12">
    <!-- Per-customer view: five isolated self-baselines -->
    <g style="fill: #1e293b" transform="translate(59.723719 43.499535) scale(0.108 -0.108)">
     <defs>
      <path id="DejaVuSans-Bold-33" d="M 588 4666 
L 2584 4666 
Q 3475 4666 3951 4270 
Q 4428 3875 4428 3144 
Q 4428 2409 3951 2014 
Q 3475 1619 2584 1619 
L 1791 1619 
L 1791 0 
L 588 0 
L 588 4666 
z
M 1791 3794 
L 1791 2491 
L 2456 2491 
Q 2806 2491 2997 2661 
Q 3188 2831 3188 3144 
Q 3188 3456 2997 3625 
Q 2806 3794 2456 3794 
L 1791 3794 
z
" transform="scale(0.015625)"/>
      <path id="DejaVuSans-Bold-48" d="M 4031 1759 
L 4031 1441 
L 1416 1441 
Q 1456 1047 1700 850 
Q 1944 653 2381 653 
Q 2734 653 3104 758 
Q 3475 863 3866 1075 
L 3866 213 
Q 3469 63 3072 -14 
Q 2675 -91 2278 -91 
Q 1328 -91 801 392 
Q 275 875 275 1747 
Q 275 2603 792 3093 
Q 1309 3584 2216 3584 
Q 3041 3584 3536 3087 
Q 4031 2591 4031 1759 
z
M 2881 2131 
Q 2881 2450 2695 2645 
Q 2509 2841 2209 2841 
Q 1884 2841 1681 2658 
Q 1478 2475 1428 2131 
L 2881 2131 
z
" transform="scale(0.015625)"/>
      <path id="DejaVuSans-Bold-55" d="M 3138 2547 
Q 2991 2616 2845 2648 
Q 2700 2681 2553 2681 
Q 2122 2681 1889 2404 
Q 1656 2128 1656 1613 
L 1656 0 
L 538 0 
L 538 3500 
L 1656 3500 
L 1656 2925 
Q 1872 3269 2151 3426 
Q 2431 3584 2822 3584 
Q 2878 3584 2943 3579 
Q 3009 3575 3134 3559 
L 3138 2547 
z
" transform="scale(0.015625)"/>
      <path id="DejaVuSans-Bold-10" d="M 347 2297 
L 2309 2297 
L 2309 1388 
L 347 1388 
L 347 2297 
z
" transform="scale(0.015625)"/>
      <path id="DejaVuSans-Bold-46" d="M 3366 3391 
L 3366 2478 
Q 3138 2634 2908 2709 
Q 2678 2784 2431 2784 
Q 1963 2784 1702 2511 
Q 1441 2238 1441 1747 
Q 1441 1256 1702 982 
Q 1963 709 2431 709 
Q 2694 709 2930 787 
Q 3166 866 3366 1019 
L 3366 103 
Q 3103 6 2833 -42 
Q 2563 -91 2291 -91 
Q 1344 -91 809 395 
Q 275 881 275 1747 
Q 275 2613 809 3098 
Q 1344 3584 2291 3584 
Q 2566 3584 2833 3536 
Q 3100 3488 3366 3391 
z
" transform="scale(0.015625)"/>
      <path id="DejaVuSans-Bold-58" d="M 500 1363 
L 500 3500 
L 1625 3500 
L 1625 3150 
Q 1625 2866 1622 2436 
Q 1619 2006 1619 1863 
Q 1619 1441 1641 1255 
Q 1663 1069 1716 984 
Q 1784 875 1895 815 
Q 2006 756 2150 756 
Q 2500 756 2700 1025 
Q 2900 1294 2900 1772 
L 2900 3500 
L 4019 3500 
L 4019 0 
L 2900 0 
L 2900 506 
Q 2647 200 2364 54 
Q 2081 -91 1741 -91 
Q 1134 -91 817 281 
Q 500 653 500 1363 
z
" transform="scale(0.015625)"/>
      <path id="DejaVuSans-Bold-56" d="M 3272 3391 
L 3272 2541 
Q 2913 2691 2578 2766 
Q 2244 2841 1947 2841 
Q 1628 2841 1473 2761 
Q 1319 2681 1319 2516 
Q 1319 2381 1436 2309 
Q 1553 2238 1856 2203 
L 2053 2175 
Q 2913 2066 3209 1816 
Q 3506 1566 3506 1031 
Q 3506 472 3093 190 
Q 2681 -91 1863 -91 
Q 1516 -91 1145 -36 
Q 775 19 384 128 
L 384 978 
Q 719 816 1070 734 
Q 1422 653 1784 653 
Q 2113 653 2278 743 
Q 2444 834 2444 1013 
Q 2444 1163 2330 1236 
Q 2216 1309 1875 1350 
L 1678 1375 
Q 931 1469 631 1722 
Q 331 1975 331 2491 
Q 331 3047 712 3315 
Q 1094 3584 1881 3584 
Q 2191 3584 2531 3537 
Q 2872 3491 3272 3391 
z
" transform="scale(0.015625)"/>
      <path id="DejaVuSans-Bold-57" d="M 1759 4494 
L 1759 3500 
L 2913 3500 
L 2913 2700 
L 1759 2700 
L 1759 1216 
Q 1759 972 1856 886 
Q 1953 800 2241 800 
L 2816 800 
L 2816 0 
L 1856 0 
Q 1194 0 917 276 
Q 641 553 641 1216 
L 641 2700 
L 84 2700 
L 84 3500 
L 641 3500 
L 641 4494 
L 1759 4494 
z
" transform="scale(0.015625)"/>
      <path id="DejaVuSans-Bold-52" d="M 2203 2784 
Q 1831 2784 1636 2517 
Q 1441 2250 1441 1747 
Q 1441 1244 1636 976 
Q 1831 709 2203 709 
Q 2569 709 2762 976 
Q 2956 1244 2956 1747 
Q 2956 2250 2762 2517 
Q 2569 2784 2203 2784 
z
M 2203 3584 
Q 3106 3584 3614 3096 
Q 4122 2609 4122 1747 
Q 4122 884 3614 396 
Q 3106 -91 2203 -91 
Q 1297 -91 786 396 
Q 275 884 275 1747 
Q 275 2609 786 3096 
Q 1297 3584 2203 3584 
z
" transform="scale(0.015625)"/>
      <path id="DejaVuSans-Bold-50" d="M 3781 2919 
Q 3994 3244 4286 3414 
Q 4578 3584 4928 3584 
Q 5531 3584 5847 3212 
Q 6163 2841 6163 2131 
L 6163 0 
L 5038 0 
L 5038 1825 
Q 5041 1866 5042 1909 
Q 5044 1953 5044 2034 
Q 5044 2406 4934 2573 
Q 4825 2741 4581 2741 
Q 4263 2741 4089 2478 
Q 3916 2216 3909 1719 
L 3909 0 
L 2784 0 
L 2784 1825 
Q 2784 2406 2684 2573 
Q 2584 2741 2328 2741 
Q 2006 2741 1831 2477 
Q 1656 2213 1656 1722 
L 1656 0 
L 531 0 
L 531 3500 
L 1656 3500 
L 1656 2988 
Q 1863 3284 2130 3434 
Q 2397 3584 2719 3584 
Q 3081 3584 3359 3409 
Q 3638 3234 3781 2919 
z
" transform="scale(0.015625)"/>
      <path id="DejaVuSans-Bold-3" transform="scale(0.015625)"/>
      <path id="DejaVuSans-Bold-59" d="M 97 3500 
L 1216 3500 
L 2088 1081 
L 2956 3500 
L 4078 3500 
L 2700 0 
L 1472 0 
L 97 3500 
z
" transform="scale(0.015625)"/>
      <path id="DejaVuSans-Bold-4c" d="M 538 3500 
L 1656 3500 
L 1656 0 
L 538 0 
L 538 3500 
z
M 538 4863 
L 1656 4863 
L 1656 3950 
L 538 3950 
L 538 4863 
z
" transform="scale(0.015625)"/>
      <path id="DejaVuSans-Bold-5a" d="M 225 3500 
L 1313 3500 
L 1900 1088 
L 2491 3500 
L 3425 3500 
L 4013 1113 
L 4603 3500 
L 5691 3500 
L 4769 0 
L 3547 0 
L 2956 2406 
L 2369 0 
L 1147 0 
L 225 3500 
z
" transform="scale(0.015625)"/>
      <path id="DejaVuSans-Bold-1d" d="M 716 3500 
L 1844 3500 
L 1844 2291 
L 716 2291 
L 716 3500 
z
M 716 1209 
L 1844 1209 
L 1844 0 
L 716 0 
L 716 1209 
z
" transform="scale(0.015625)"/>
      <path id="DejaVuSans-Bold-13ab" d="M 3078 4863 
L 4206 4863 
L 4206 3950 
L 3078 3950 
L 3078 4863 
z
M 2847 4863 
L 2847 4128 
L 2228 4128 
Q 1994 4128 1903 4042 
Q 1813 3956 1813 3744 
L 1813 3500 
L 4206 3500 
L 4206 0 
L 3078 0 
L 3078 2700 
L 1813 2700 
L 1813 0 
L 684 0 
L 684 2700 
L 134 2700 
L 134 3500 
L 684 3500 
L 684 3744 
Q 684 4316 1003 4589 
Q 1322 4863 1991 4863 
L 2847 4863 
z
" transform="scale(0.015625)"/>
      <path id="DejaVuSans-Bold-4f" d="M 538 4863 
L 1656 4863 
L 1656 0 
L 538 0 
L 538 4863 
z
" transform="scale(0.015625)"/>
      <path id="DejaVuSans-Bold-44" d="M 2106 1575 
Q 1756 1575 1579 1456 
Q 1403 1338 1403 1106 
Q 1403 894 1545 773 
Q 1688 653 1941 653 
Q 2256 653 2472 879 
Q 2688 1106 2688 1447 
L 2688 1575 
L 2106 1575 
z
M 3816 1997 
L 3816 0 
L 2688 0 
L 2688 519 
Q 2463 200 2181 54 
Q 1900 -91 1497 -91 
Q 953 -91 614 226 
Q 275 544 275 1050 
Q 275 1666 698 1953 
Q 1122 2241 2028 2241 
L 2688 2241 
L 2688 2328 
Q 2688 2594 2478 2717 
Q 2269 2841 1825 2841 
Q 1466 2841 1156 2769 
Q 847 2697 581 2553 
L 581 3406 
Q 941 3494 1303 3539 
Q 1666 3584 2028 3584 
Q 2975 3584 3395 3211 
Q 3816 2838 3816 1997 
z
" transform="scale(0.015625)"/>
      <path id="DejaVuSans-Bold-47" d="M 2919 2988 
L 2919 4863 
L 4044 4863 
L 4044 0 
L 2919 0 
L 2919 506 
Q 2688 197 2409 53 
Q 2131 -91 1766 -91 
Q 1119 -91 703 423 
Q 288 938 288 1747 
Q 288 2556 703 3070 
Q 1119 3584 1766 3584 
Q 2128 3584 2408 3439 
Q 2688 3294 2919 2988 
z
M 2181 722 
Q 2541 722 2730 984 
Q 2919 1247 2919 1747 
Q 2919 2247 2730 2509 
Q 2541 2772 2181 2772 
Q 1825 2772 1636 2509 
Q 1447 2247 1447 1747 
Q 1447 1247 1636 984 
Q 1825 722 2181 722 
z
" transform="scale(0.015625)"/>
      <path id="DejaVuSans-Bold-49" d="M 2841 4863 
L 2841 4128 
L 2222 4128 
Q 1984 4128 1890 4042 
Q 1797 3956 1797 3744 
L 1797 3500 
L 2753 3500 
L 2753 2700 
L 1797 2700 
L 1797 0 
L 678 0 
L 678 2700 
L 122 2700 
L 122 3500 
L 678 3500 
L 678 3744 
Q 678 4316 997 4589 
Q 1316 4863 1984 4863 
L 2841 4863 
z
" transform="scale(0.015625)"/>
      <path id="DejaVuSans-Bold-45" d="M 2400 722 
Q 2759 722 2948 984 
Q 3138 1247 3138 1747 
Q 3138 2247 2948 2509 
Q 2759 2772 2400 2772 
Q 2041 2772 1848 2508 
Q 1656 2244 1656 1747 
Q 1656 1250 1848 986 
Q 2041 722 2400 722 
z
M 1656 2988 
Q 1888 3294 2169 3439 
Q 2450 3584 2816 3584 
Q 3463 3584 3878 3070 
Q 4294 2556 4294 1747 
Q 4294 938 3878 423 
Q 3463 -91 2816 -91 
Q 2450 -91 2169 54 
Q 1888 200 1656 506 
L 1656 0 
L 538 0 
L 538 4863 
L 1656 4863 
L 1656 2988 
z
" transform="scale(0.015625)"/>
      <path id="DejaVuSans-Bold-51" d="M 4056 2131 
L 4056 0 
L 2931 0 
L 2931 347 
L 2931 1631 
Q 2931 2084 2911 2256 
Q 2891 2428 2841 2509 
Q 2775 2619 2662 2680 
Q 2550 2741 2406 2741 
Q 2056 2741 1856 2470 
Q 1656 2200 1656 1722 
L 1656 0 
L 538 0 
L 538 3500 
L 1656 3500 
L 1656 2988 
Q 1909 3294 2193 3439 
Q 2478 3584 2822 3584 
Q 3428 3584 3742 3212 
Q 4056 2841 4056 2131 
z
" transform="scale(0.015625)"/>
     </defs>
     <use xlink:href="#DejaVuSans-Bold-33"/>
     <use xlink:href="#DejaVuSans-Bold-48" transform="translate(73.296875 0)"/>
     <use xlink:href="#DejaVuSans-Bold-55" transform="translate(141.125 0)"/>
     <use xlink:href="#DejaVuSans-Bold-10" transform="translate(190.4375 0)"/>
     <use xlink:href="#DejaVuSans-Bold-46" transform="translate(231.9375 0)"/>
     <use xlink:href="#DejaVuSans-Bold-58" transform="translate(291.21875 0)"/>
     <use xlink:href="#DejaVuSans-Bold-56" transform="translate(362.40625 0)"/>
     <use xlink:href="#DejaVuSans-Bold-57" transform="translate(421.921875 0)"/>
     <use xlink:href="#DejaVuSans-Bold-52" transform="translate(469.71875 0)"/>
     <use xlink:href="#DejaVuSans-Bold-50" transform="translate(538.421875 0)"/>
     <use xlink:href="#DejaVuSans-Bold-48" transform="translate(642.625 0)"/>
     <use xlink:href="#DejaVuSans-Bold-55" transform="translate(710.453125 0)"/>
     <use xlink:href="#DejaVuSans-Bold-3" transform="translate(759.765625 0)"/>
     <use xlink:href="#DejaVuSans-Bold-59" transform="translate(794.578125 0)"/>
     <use xlink:href="#DejaVuSans-Bold-4c" transform="translate(859.765625 0)"/>
     <use xlink:href="#DejaVuSans-Bold-48" transform="translate(894.046875 0)"/>
     <use xlink:href="#DejaVuSans-Bold-5a" transform="translate(961.875 0)"/>
     <use xlink:href="#DejaVuSans-Bold-1d" transform="translate(1054.265625 0)"/>
     <use xlink:href="#DejaVuSans-Bold-3" transform="translate(1094.25 0)"/>
     <use xlink:href="#DejaVuSans-Bold-13ab" transform="translate(1129.0625 0)"/>
     <use xlink:href="#DejaVuSans-Bold-59" transform="translate(1203.1875 0)"/>
     <use xlink:href="#DejaVuSans-Bold-48" transform="translate(1268.375 0)"/>
     <use xlink:href="#DejaVuSans-Bold-3" transform="translate(1336.203125 0)"/>
     <use xlink:href="#DejaVuSans-Bold-4c" transform="translate(1371.015625 0)"/>
     <use xlink:href="#DejaVuSans-Bold-56" transform="translate(1405.296875 0)"/>
     <use xlink:href="#DejaVuSans-Bold-52" transform="translate(1464.8125 0)"/>
     <use xlink:href="#DejaVuSans-Bold-4f" transform="translate(1533.515625 0)"/>
     <use xlink:href="#DejaVuSans-Bold-44" transform="translate(1567.796875 0)"/>
     <use xlink:href="#DejaVuSans-Bold-57" transform="translate(1635.28125 0)"/>
     <use xlink:href="#DejaVuSans-Bold-48" transform="translate(1683.078125 0)"/>
     <use xlink:href="#DejaVuSans-Bold-47" transform="translate(1750.90625 0)"/>
     <use xlink:href="#DejaVuSans-Bold-3" transform="translate(1822.484375 0)"/>
     <use xlink:href="#DejaVuSans-Bold-56" transform="translate(1857.296875 0)"/>
     <use xlink:href="#DejaVuSans-Bold-48" transform="translate(1916.8125 0)"/>
     <use xlink:href="#DejaVuSans-Bold-4f" transform="translate(1984.640625 0)"/>
     <use xlink:href="#DejaVuSans-Bold-49" transform="translate(2018.921875 0)"/>
     <use xlink:href="#DejaVuSans-Bold-10" transform="translate(2060.671875 0)"/>
     <use xlink:href="#DejaVuSans-Bold-45" transform="translate(2102.171875 0)"/>
     <use xlink:href="#DejaVuSans-Bold-44" transform="translate(2173.75 0)"/>
     <use xlink:href="#DejaVuSans-Bold-56" transform="translate(2241.234375 0)"/>
     <use xlink:href="#DejaVuSans-Bold-48" transform="translate(2300.75 0)"/>
     <use xlink:href="#DejaVuSans-Bold-4f" transform="translate(2368.578125 0)"/>
     <use xlink:href="#DejaVuSans-Bold-4c" transform="translate(2402.859375 0)"/>
     <use xlink:href="#DejaVuSans-Bold-51" transform="translate(2437.140625 0)"/>
     <use xlink:href="#DejaVuSans-Bold-48" transform="translate(2508.328125 0)"/>
     <use xlink:href="#DejaVuSans-Bold-56" transform="translate(2576.15625 0)"/>
    </g>
   </g>
   <g id="text_13">
    <!--  -->
    <g style="fill: #ffffff" transform="translate(77.873427 122.837822) scale(0.13 -0.13)">
     <defs>
      <path id="bootstrap-icons-4c8" d="M 3477 5803 
Q 3371 5909 3200 5909 
Q 3029 5909 2923 5803 
L 256 3136 
Q 192 3093 192 3008 
Q 192 2923 256 2859 
Q 320 2795 405 2795 
Q 491 2795 533 2859 
L 3200 5525 
L 5867 2859 
Q 5909 2795 5994 2795 
Q 6080 2795 6144 2859 
Q 6208 2923 6208 3008 
Q 6208 3093 6144 3136 
L 5205 4075 
L 5205 5397 
Q 5205 5483 5141 5547 
Q 5077 5611 4992 5611 
L 4608 5611 
Q 4523 5611 4459 5547 
Q 4395 5483 4395 5397 
L 4395 4885 
L 3477 5803 
z
M 3200 5077 
L 5611 2688 
L 5611 1003 
Q 5611 747 5429 576 
Q 5248 405 4992 405 
L 1408 405 
Q 1152 405 970 576 
Q 789 747 789 1003 
L 789 2688 
L 3200 5077 
z
" transform="scale(0.015625)"/>
     </defs>
     <use xlink:href="#bootstrap-icons-4c8"/>
    </g>
   </g>
   <g id="text_14">
    <!--  -->
    <g style="fill: #ffffff" transform="translate(136.711713 122.837822) scale(0.13 -0.13)">
     <use xlink:href="#bootstrap-icons-4c8"/>
    </g>
   </g>
   <g id="text_15">
    <!--  -->
    <g style="fill: #ffffff" transform="translate(195.55 122.837822) scale(0.13 -0.13)">
     <use xlink:href="#bootstrap-icons-4c8"/>
    </g>
   </g>
   <g id="text_16">
    <!--  -->
    <g style="fill: #ffffff" transform="translate(254.388287 122.837822) scale(0.13 -0.13)">
     <use xlink:href="#bootstrap-icons-4c8"/>
    </g>
   </g>
   <g id="text_17">
    <!--  -->
    <g style="fill: #ffffff" transform="translate(313.226573 122.837822) scale(0.13 -0.13)">
     <use xlink:href="#bootstrap-icons-4c8"/>
    </g>
   </g>
  </g>
  <g id="axes_2">
   <g id="patch_7">
    <path d="M 465.303891 91.912203 
Q 513.387655 128.590632 570.639509 141.490439 
" clip-path="url(#p7386bb2e37)" style="fill: none; stroke: #dc2626; stroke-width: 1.6; stroke-linecap: round"/>
    <path d="M 565.791923 137.528002 
L 570.639509 141.490439 
L 564.561008 142.991045 
z
" clip-path="url(#p7386bb2e37)" style="fill: #dc2626; stroke: #dc2626; stroke-width: 1.6; stroke-linecap: round"/>
   </g>
   <g id="patch_8">
    <path d="M 522.804762 93.1762 
Q 543.131923 121.793764 571.556114 139.167666 
" clip-path="url(#p7386bb2e37)" style="fill: none; stroke: #dc2626; stroke-width: 1.6; stroke-linecap: round"/>
    <path d="M 568.23828 133.858054 
L 571.556114 139.167666 
L 565.317724 138.636166 
z
" clip-path="url(#p7386bb2e37)" style="fill: #dc2626; stroke: #dc2626; stroke-width: 1.6; stroke-linecap: round"/>
   </g>
   <g id="patch_9">
    <path d="M 576.99198 94.095181 
Q 572.917701 115.686348 576.661069 135.519696 
" clip-path="url(#p7386bb2e37)" style="fill: none; stroke: #dc2626; stroke-width: 1.6; stroke-linecap: round"/>
    <path d="M 578.373878 129.497546 
L 576.661069 135.519696 
L 572.871035 130.536159 
z
" clip-path="url(#p7386bb2e37)" style="fill: #dc2626; stroke: #dc2626; stroke-width: 1.6; stroke-linecap: round"/>
   </g>
   <g id="patch_10">
    <path d="M 631.916314 91.270211 
Q 601.966518 109.577807 582.675923 136.737706 
" clip-path="url(#p7386bb2e37)" style="fill: none; stroke: #dc2626; stroke-width: 1.6; stroke-linecap: round"/>
    <path d="M 588.201468 133.793498 
L 582.675923 136.737706 
L 583.635884 130.550746 
z
" clip-path="url(#p7386bb2e37)" style="fill: #dc2626; stroke: #dc2626; stroke-width: 1.6; stroke-linecap: round"/>
   </g>
   <g id="patch_11">
    <path d="M 690.062986 89.48408 
Q 631.065859 102.776733 584.404232 138.369884 
" clip-path="url(#p7386bb2e37)" style="fill: none; stroke: #dc2626; stroke-width: 1.6; stroke-linecap: round"/>
    <path d="M 590.554914 137.199796 
L 584.404232 138.369884 
L 587.158571 132.747285 
z
" clip-path="url(#p7386bb2e37)" style="fill: #dc2626; stroke: #dc2626; stroke-width: 1.6; stroke-linecap: round"/>
   </g>
   <g id="patch_12">
    <path d="M 460.573427 88.226196 
C 464.387761 88.226196 468.046384 86.710745 470.743526 84.013603 
C 473.440668 81.316461 474.956119 77.657838 474.956119 73.843503 
C 474.956119 70.029169 473.440668 66.370546 470.743526 63.673404 
C 468.046384 60.976262 464.387761 59.460811 460.573427 59.460811 
C 456.759092 59.460811 453.100469 60.976262 450.403327 63.673404 
C 447.706185 66.370546 446.190734 70.029169 446.190734 73.843503 
C 446.190734 77.657838 447.706185 81.316461 450.403327 84.013603 
C 453.100469 86.710745 456.759092 88.226196 460.573427 88.226196 
z
" clip-path="url(#p7386bb2e37)" style="fill: #059669; stroke: #ffffff; stroke-width: 1.2; stroke-linejoin: miter"/>
   </g>
   <g id="patch_13">
    <path d="M 519.411713 88.226196 
C 523.226048 88.226196 526.884671 86.710745 529.581813 84.013603 
C 532.278954 81.316461 533.794406 77.657838 533.794406 73.843503 
C 533.794406 70.029169 532.278954 66.370546 529.581813 63.673404 
C 526.884671 60.976262 523.226048 59.460811 519.411713 59.460811 
C 515.597379 59.460811 511.938756 60.976262 509.241614 63.673404 
C 506.544472 66.370546 505.029021 70.029169 505.029021 73.843503 
C 505.029021 77.657838 506.544472 81.316461 509.241614 84.013603 
C 511.938756 86.710745 515.597379 88.226196 519.411713 88.226196 
z
" clip-path="url(#p7386bb2e37)" style="fill: #059669; stroke: #ffffff; stroke-width: 1.2; stroke-linejoin: miter"/>
   </g>
   <g id="patch_14">
    <path d="M 578.25 88.226196 
C 582.064335 88.226196 585.722957 86.710745 588.420099 84.013603 
C 591.117241 81.316461 592.632692 77.657838 592.632692 73.843503 
C 592.632692 70.029169 591.117241 66.370546 588.420099 63.673404 
C 585.722957 60.976262 582.064335 59.460811 578.25 59.460811 
C 574.435665 59.460811 570.777043 60.976262 568.079901 63.673404 
C 565.382759 66.370546 563.867308 70.029169 563.867308 73.843503 
C 563.867308 77.657838 565.382759 81.316461 568.079901 84.013603 
C 570.777043 86.710745 574.435665 88.226196 578.25 88.226196 
z
" clip-path="url(#p7386bb2e37)" style="fill: #059669; stroke: #ffffff; stroke-width: 1.2; stroke-linejoin: miter"/>
   </g>
   <g id="patch_15">
    <path d="M 637.088287 88.226196 
C 640.902621 88.226196 644.561244 86.710745 647.258386 84.013603 
C 649.955528 81.316461 651.470979 77.657838 651.470979 73.843503 
C 651.470979 70.029169 649.955528 66.370546 647.258386 63.673404 
C 644.561244 60.976262 640.902621 59.460811 637.088287 59.460811 
C 633.273952 59.460811 629.615329 60.976262 626.918187 63.673404 
C 624.221046 66.370546 622.705594 70.029169 622.705594 73.843503 
C 622.705594 77.657838 624.221046 81.316461 626.918187 84.013603 
C 629.615329 86.710745 633.273952 88.226196 637.088287 88.226196 
z
" clip-path="url(#p7386bb2e37)" style="fill: #059669; stroke: #ffffff; stroke-width: 1.2; stroke-linejoin: miter"/>
   </g>
   <g id="patch_16">
    <path d="M 695.926573 88.226196 
C 699.740908 88.226196 703.399531 86.710745 706.096673 84.013603 
C 708.793815 81.316461 710.309266 77.657838 710.309266 73.843503 
C 710.309266 70.029169 708.793815 66.370546 706.096673 63.673404 
C 703.399531 60.976262 699.740908 59.460811 695.926573 59.460811 
C 692.112239 59.460811 688.453616 60.976262 685.756474 63.673404 
C 683.059332 66.370546 681.543881 70.029169 681.543881 73.843503 
C 681.543881 77.657838 683.059332 81.316461 685.756474 84.013603 
C 688.453616 86.710745 692.112239 88.226196 695.926573 88.226196 
z
" clip-path="url(#p7386bb2e37)" style="fill: #059669; stroke: #ffffff; stroke-width: 1.2; stroke-linejoin: miter"/>
   </g>
   <g id="patch_17">
    <path d="M 578.25 174.52235 
C 582.411092 174.52235 586.402317 172.86913 589.344654 169.926794 
C 592.28699 166.984457 593.94021 162.993232 593.94021 158.83214 
C 593.94021 154.671048 592.28699 150.679823 589.344654 147.737486 
C 586.402317 144.79515 582.411092 143.14193 578.25 143.14193 
C 574.088908 143.14193 570.097683 144.79515 567.155346 147.737486 
C 564.21301 150.679823 562.55979 154.671048 562.55979 158.83214 
C 562.55979 162.993232 564.21301 166.984457 567.155346 169.926794 
C 570.097683 172.86913 574.088908 174.52235 578.25 174.52235 
z
" clip-path="url(#p7386bb2e37)" style="fill: #dc2626; stroke: #ffffff; stroke-width: 1.4; stroke-linejoin: miter"/>
   </g>
   <g id="text_18">
    <!--  -->
    <g style="fill: #ea580c" transform="translate(455.073427 47.693154) scale(0.11 -0.11)">
     <defs>
      <path id="bootstrap-icons-73c" d="M 3200 1600 
Q 3627 1600 4000 1813 
Q 4373 2027 4586 2400 
Q 4800 2773 4800 3200 
Q 4800 3627 4586 4000 
Q 4373 4373 4000 4586 
Q 3627 4800 3200 4800 
Q 2773 4800 2400 4586 
Q 2027 4373 1813 4000 
Q 1600 3627 1600 3200 
Q 1600 2773 1813 2400 
Q 2027 2027 2400 1813 
Q 2773 1600 3200 1600 
z
M 3200 6400 
Q 3285 6400 3338 6346 
Q 3392 6293 3392 6208 
L 3392 5397 
Q 3392 5312 3338 5258 
Q 3285 5205 3200 5205 
Q 3115 5205 3061 5258 
Q 3008 5312 3008 5397 
L 3008 6208 
Q 3008 6293 3061 6346 
Q 3115 6400 3200 6400 
z
M 3200 1195 
Q 3285 1195 3338 1141 
Q 3392 1088 3392 1003 
L 3392 192 
Q 3392 107 3338 53 
Q 3285 0 3200 0 
Q 3115 0 3061 53 
Q 3008 107 3008 192 
L 3008 1003 
Q 3008 1088 3061 1141 
Q 3115 1195 3200 1195 
z
M 6400 3200 
Q 6400 3115 6346 3061 
Q 6293 3008 6208 3008 
L 5397 3008 
Q 5312 3008 5258 3061 
Q 5205 3115 5205 3200 
Q 5205 3285 5258 3338 
Q 5312 3392 5397 3392 
L 6208 3392 
Q 6293 3392 6346 3338 
Q 6400 3285 6400 3200 
z
M 1195 3200 
Q 1195 3115 1141 3061 
Q 1088 3008 1003 3008 
L 192 3008 
Q 107 3008 53 3061 
Q 0 3115 0 3200 
Q 0 3285 53 3338 
Q 107 3392 192 3392 
L 1003 3392 
Q 1088 3392 1141 3338 
Q 1195 3285 1195 3200 
z
M 5461 5461 
Q 5525 5397 5525 5322 
Q 5525 5248 5461 5184 
L 4907 4608 
Q 4843 4565 4757 4565 
Q 4672 4565 4618 4618 
Q 4565 4672 4565 4757 
Q 4565 4843 4608 4907 
L 5184 5461 
Q 5248 5525 5322 5525 
Q 5397 5525 5461 5461 
z
M 1792 1792 
Q 1835 1728 1835 1642 
Q 1835 1557 1792 1493 
L 1216 939 
Q 1152 875 1077 875 
Q 1003 875 939 939 
Q 875 1003 875 1077 
Q 875 1152 939 1216 
L 1493 1792 
Q 1557 1835 1642 1835 
Q 1728 1835 1792 1792 
z
M 5461 939 
Q 5397 875 5322 875 
Q 5248 875 5184 939 
L 4608 1493 
Q 4565 1557 4565 1642 
Q 4565 1728 4618 1781 
Q 4672 1835 4757 1835 
Q 4843 1835 4907 1792 
L 5461 1216 
Q 5525 1152 5525 1077 
Q 5525 1003 5461 939 
z
M 1792 4608 
Q 1728 4565 1642 4565 
Q 1557 4565 1493 4608 
L 939 5184 
Q 853 5269 885 5376 
Q 917 5483 1024 5515 
Q 1131 5547 1216 5461 
L 1792 4907 
Q 1835 4843 1835 4757 
Q 1835 4672 1792 4608 
z
" transform="scale(0.015625)"/>
     </defs>
     <use xlink:href="#bootstrap-icons-73c"/>
    </g>
   </g>
   <g id="text_19">
    <!--  -->
    <g style="fill: #ea580c" transform="translate(513.911713 47.693154) scale(0.11 -0.11)">
     <use xlink:href="#bootstrap-icons-73c"/>
    </g>
   </g>
   <g id="text_20">
    <!--  -->
    <g style="fill: #ea580c" transform="translate(572.75 47.693154) scale(0.11 -0.11)">
     <use xlink:href="#bootstrap-icons-73c"/>
    </g>
   </g>
   <g id="text_21">
    <!--  -->
    <g style="fill: #ea580c" transform="translate(631.588287 47.693154) scale(0.11 -0.11)">
     <use xlink:href="#bootstrap-icons-73c"/>
    </g>
   </g>
   <g id="text_22">
    <!--  -->
    <g style="fill: #ea580c" transform="translate(690.426573 47.693154) scale(0.11 -0.11)">
     <use xlink:href="#bootstrap-icons-73c"/>
    </g>
   </g>
   <g id="text_23">
    <!-- real overload -->
    <g style="fill: #dc2626" transform="translate(546.511133 191.520077) scale(0.085 -0.085)">
     <use xlink:href="#DejaVuSans-Bold-55"/>
     <use xlink:href="#DejaVuSans-Bold-48" transform="translate(49.3125 0)"/>
     <use xlink:href="#DejaVuSans-Bold-44" transform="translate(117.140625 0)"/>
     <use xlink:href="#DejaVuSans-Bold-4f" transform="translate(184.625 0)"/>
     <use xlink:href="#DejaVuSans-Bold-3" transform="translate(218.90625 0)"/>
     <use xlink:href="#DejaVuSans-Bold-52" transform="translate(253.71875 0)"/>
     <use xlink:href="#DejaVuSans-Bold-59" transform="translate(322.421875 0)"/>
     <use xlink:href="#DejaVuSans-Bold-48" transform="translate(387.609375 0)"/>
     <use xlink:href="#DejaVuSans-Bold-55" transform="translate(455.4375 0)"/>
     <use xlink:href="#DejaVuSans-Bold-4f" transform="translate(504.75 0)"/>
     <use xlink:href="#DejaVuSans-Bold-52" transform="translate(539.03125 0)"/>
     <use xlink:href="#DejaVuSans-Bold-44" transform="translate(607.734375 0)"/>
     <use xlink:href="#DejaVuSans-Bold-47" transform="translate(675.21875 0)"/>
    </g>
   </g>
   <g id="text_24">
    <!-- Five individually unremarkable exports, one real, physical overload -->
    <g style="fill: #6b7280" transform="translate(440.169687 230.745601) scale(0.082 -0.082)">
     <defs>
      <path id="DejaVuSans-Oblique-29" d="M 1081 4666 
L 3756 4666 
L 3653 4134 
L 1606 4134 
L 1338 2759 
L 3188 2759 
L 3084 2228 
L 1234 2228 
L 800 0 
L 172 0 
L 1081 4666 
z
" transform="scale(0.015625)"/>
      <path id="DejaVuSans-Oblique-59" d="M 459 3500 
L 1069 3500 
L 1581 525 
L 3256 3500 
L 3866 3500 
L 1875 0 
L 1100 0 
L 459 3500 
z
" transform="scale(0.015625)"/>
      <path id="DejaVuSans-Oblique-4e" d="M 1172 4863 
L 1747 4863 
L 1197 2028 
L 3169 3500 
L 3916 3500 
L 1716 1825 
L 3322 0 
L 2625 0 
L 1131 1709 
L 800 0 
L 225 0 
L 1172 4863 
z
" transform="scale(0.015625)"/>
      <path id="DejaVuSans-Oblique-45" d="M 3169 2138 
Q 3169 2591 2961 2847 
Q 2753 3103 2388 3103 
Q 2122 3103 1889 2973 
Q 1656 2844 1484 2597 
Q 1303 2338 1198 1995 
Q 1094 1653 1094 1313 
Q 1094 881 1298 636 
Q 1503 391 1863 391 
Q 2134 391 2365 517 
Q 2597 644 2772 891 
Q 2950 1147 3059 1487 
Q 3169 1828 3169 2138 
z
M 1381 2969 
Q 1594 3256 1914 3420 
Q 2234 3584 2584 3584 
Q 3122 3584 3439 3221 
Q 3756 2859 3756 2241 
Q 3756 1734 3570 1259 
Q 3384 784 3041 416 
Q 2816 172 2522 40 
Q 2228 -91 1906 -91 
Q 1566 -91 1316 65 
Q 1066 222 909 531 
L 806 0 
L 231 0 
L 1178 4863 
L 1753 4863 
L 1381 2969 
z
" transform="scale(0.015625)"/>
      <path id="DejaVuSans-Oblique-5b" d="M 3841 3500 
L 2234 1784 
L 3219 0 
L 2559 0 
L 1819 1388 
L 531 0 
L -166 0 
L 1556 1844 
L 641 3500 
L 1300 3500 
L 1972 2234 
L 3144 3500 
L 3841 3500 
z
" transform="scale(0.015625)"/>
      <path id="DejaVuSans-Oblique-53" d="M 3175 2156 
Q 3175 2616 2975 2859 
Q 2775 3103 2400 3103 
Q 2144 3103 1911 2972 
Q 1678 2841 1497 2591 
Q 1319 2344 1212 1994 
Q 1106 1644 1106 1300 
Q 1106 863 1306 627 
Q 1506 391 1875 391 
Q 2147 391 2380 519 
Q 2613 647 2778 891 
Q 2956 1147 3065 1494 
Q 3175 1841 3175 2156 
z
M 1394 2969 
Q 1625 3272 1939 3428 
Q 2253 3584 2638 3584 
Q 3175 3584 3472 3232 
Q 3769 2881 3769 2247 
Q 3769 1728 3584 1258 
Q 3400 788 3053 416 
Q 2822 169 2531 39 
Q 2241 -91 1919 -91 
Q 1547 -91 1294 64 
Q 1041 219 916 525 
L 556 -1331 
L -19 -1331 
L 922 3500 
L 1497 3500 
L 1394 2969 
z
" transform="scale(0.015625)"/>
      <path id="DejaVuSans-Oblique-f" d="M 575 794 
L 1234 794 
L 1131 256 
L 422 -744 
L 19 -744 
L 469 256 
L 575 794 
z
" transform="scale(0.015625)"/>
     </defs>
     <use xlink:href="#DejaVuSans-Oblique-29"/>
     <use xlink:href="#DejaVuSans-Oblique-4c" transform="translate(57.515625 0)"/>
     <use xlink:href="#DejaVuSans-Oblique-59" transform="translate(85.296875 0)"/>
     <use xlink:href="#DejaVuSans-Oblique-48" transform="translate(144.484375 0)"/>
     <use xlink:href="#DejaVuSans-Oblique-3" transform="translate(206.015625 0)"/>
     <use xlink:href="#DejaVuSans-Oblique-4c" transform="translate(237.796875 0)"/>
     <use xlink:href="#DejaVuSans-Oblique-51" transform="translate(265.578125 0)"/>
     <use xlink:href="#DejaVuSans-Oblique-47" transform="translate(328.953125 0)"/>
     <use xlink:href="#DejaVuSans-Oblique-4c" transform="translate(392.4375 0)"/>
     <use xlink:href="#DejaVuSans-Oblique-59" transform="translate(420.21875 0)"/>
     <use xlink:href="#DejaVuSans-Oblique-4c" transform="translate(479.40625 0)"/>
     <use xlink:href="#DejaVuSans-Oblique-47" transform="translate(507.1875 0)"/>
     <use xlink:href="#DejaVuSans-Oblique-58" transform="translate(570.671875 0)"/>
     <use xlink:href="#DejaVuSans-Oblique-44" transform="translate(634.046875 0)"/>
     <use xlink:href="#DejaVuSans-Oblique-4f" transform="translate(695.328125 0)"/>
     <use xlink:href="#DejaVuSans-Oblique-4f" transform="translate(723.109375 0)"/>
     <use xlink:href="#DejaVuSans-Oblique-5c" transform="translate(750.890625 0)"/>
     <use xlink:href="#DejaVuSans-Oblique-3" transform="translate(810.078125 0)"/>
     <use xlink:href="#DejaVuSans-Oblique-58" transform="translate(841.859375 0)"/>
     <use xlink:href="#DejaVuSans-Oblique-51" transform="translate(905.234375 0)"/>
     <use xlink:href="#DejaVuSans-Oblique-55" transform="translate(968.609375 0)"/>
     <use xlink:href="#DejaVuSans-Oblique-48" transform="translate(1009.71875 0)"/>
     <use xlink:href="#DejaVuSans-Oblique-50" transform="translate(1071.25 0)"/>
     <use xlink:href="#DejaVuSans-Oblique-44" transform="translate(1168.65625 0)"/>
     <use xlink:href="#DejaVuSans-Oblique-55" transform="translate(1229.9375 0)"/>
     <use xlink:href="#DejaVuSans-Oblique-4e" transform="translate(1271.046875 0)"/>
     <use xlink:href="#DejaVuSans-Oblique-44" transform="translate(1328.953125 0)"/>
     <use xlink:href="#DejaVuSans-Oblique-45" transform="translate(1390.234375 0)"/>
     <use xlink:href="#DejaVuSans-Oblique-4f" transform="translate(1453.71875 0)"/>
     <use xlink:href="#DejaVuSans-Oblique-48" transform="translate(1481.5 0)"/>
     <use xlink:href="#DejaVuSans-Oblique-3" transform="translate(1543.03125 0)"/>
     <use xlink:href="#DejaVuSans-Oblique-48" transform="translate(1574.8125 0)"/>
     <use xlink:href="#DejaVuSans-Oblique-5b" transform="translate(1636.34375 0)"/>
     <use xlink:href="#DejaVuSans-Oblique-53" transform="translate(1695.53125 0)"/>
     <use xlink:href="#DejaVuSans-Oblique-52" transform="translate(1759.015625 0)"/>
     <use xlink:href="#DejaVuSans-Oblique-55" transform="translate(1820.203125 0)"/>
     <use xlink:href="#DejaVuSans-Oblique-57" transform="translate(1861.3125 0)"/>
     <use xlink:href="#DejaVuSans-Oblique-56" transform="translate(1900.515625 0)"/>
     <use xlink:href="#DejaVuSans-Oblique-f" transform="translate(1952.609375 0)"/>
     <use xlink:href="#DejaVuSans-Oblique-3" transform="translate(1984.390625 0)"/>
     <use xlink:href="#DejaVuSans-Oblique-52" transform="translate(2016.171875 0)"/>
     <use xlink:href="#DejaVuSans-Oblique-51" transform="translate(2077.359375 0)"/>
     <use xlink:href="#DejaVuSans-Oblique-48" transform="translate(2140.734375 0)"/>
     <use xlink:href="#DejaVuSans-Oblique-3" transform="translate(2202.265625 0)"/>
     <use xlink:href="#DejaVuSans-Oblique-55" transform="translate(2234.046875 0)"/>
     <use xlink:href="#DejaVuSans-Oblique-48" transform="translate(2275.15625 0)"/>
     <use xlink:href="#DejaVuSans-Oblique-44" transform="translate(2336.6875 0)"/>
     <use xlink:href="#DejaVuSans-Oblique-4f" transform="translate(2397.96875 0)"/>
     <use xlink:href="#DejaVuSans-Oblique-f" transform="translate(2425.75 0)"/>
     <use xlink:href="#DejaVuSans-Oblique-3" transform="translate(2457.53125 0)"/>
     <use xlink:href="#DejaVuSans-Oblique-53" transform="translate(2489.3125 0)"/>
     <use xlink:href="#DejaVuSans-Oblique-4b" transform="translate(2552.796875 0)"/>
     <use xlink:href="#DejaVuSans-Oblique-5c" transform="translate(2616.171875 0)"/>
     <use xlink:href="#DejaVuSans-Oblique-56" transform="translate(2675.359375 0)"/>
     <use xlink:href="#DejaVuSans-Oblique-4c" transform="translate(2727.453125 0)"/>
     <use xlink:href="#DejaVuSans-Oblique-46" transform="translate(2755.234375 0)"/>
     <use xlink:href="#DejaVuSans-Oblique-44" transform="translate(2810.21875 0)"/>
     <use xlink:href="#DejaVuSans-Oblique-4f" transform="translate(2871.5 0)"/>
     <use xlink:href="#DejaVuSans-Oblique-3" transform="translate(2899.28125 0)"/>
     <use xlink:href="#DejaVuSans-Oblique-52" transform="translate(2931.0625 0)"/>
     <use xlink:href="#DejaVuSans-Oblique-59" transform="translate(2992.25 0)"/>
     <use xlink:href="#DejaVuSans-Oblique-48" transform="translate(3051.4375 0)"/>
     <use xlink:href="#DejaVuSans-Oblique-55" transform="translate(3112.96875 0)"/>
     <use xlink:href="#DejaVuSans-Oblique-4f" transform="translate(3154.078125 0)"/>
     <use xlink:href="#DejaVuSans-Oblique-52" transform="translate(3181.859375 0)"/>
     <use xlink:href="#DejaVuSans-Oblique-44" transform="translate(3243.046875 0)"/>
     <use xlink:href="#DejaVuSans-Oblique-47" transform="translate(3304.328125 0)"/>
    </g>
   </g>
   <g id="text_25">
    <!-- Network view: the same real moment, summed -->
    <g style="fill: #1e293b" transform="translate(434.073375 14.080392) scale(0.108 -0.108)">
     <defs>
      <path id="DejaVuSans-Bold-31" d="M 588 4666 
L 1931 4666 
L 3628 1466 
L 3628 4666 
L 4769 4666 
L 4769 0 
L 3425 0 
L 1728 3200 
L 1728 0 
L 588 0 
L 588 4666 
z
" transform="scale(0.015625)"/>
      <path id="DejaVuSans-Bold-4e" d="M 538 4863 
L 1656 4863 
L 1656 2216 
L 2944 3500 
L 4244 3500 
L 2534 1894 
L 4378 0 
L 3022 0 
L 1656 1459 
L 1656 0 
L 538 0 
L 538 4863 
z
" transform="scale(0.015625)"/>
      <path id="DejaVuSans-Bold-4b" d="M 4056 2131 
L 4056 0 
L 2931 0 
L 2931 347 
L 2931 1625 
Q 2931 2084 2911 2256 
Q 2891 2428 2841 2509 
Q 2775 2619 2662 2680 
Q 2550 2741 2406 2741 
Q 2056 2741 1856 2470 
Q 1656 2200 1656 1722 
L 1656 0 
L 538 0 
L 538 4863 
L 1656 4863 
L 1656 2988 
Q 1909 3294 2193 3439 
Q 2478 3584 2822 3584 
Q 3428 3584 3742 3212 
Q 4056 2841 4056 2131 
z
" transform="scale(0.015625)"/>
      <path id="DejaVuSans-Bold-f" d="M 653 1209 
L 1778 1209 
L 1778 256 
L 1006 -909 
L 341 -909 
L 653 256 
L 653 1209 
z
" transform="scale(0.015625)"/>
     </defs>
     <use xlink:href="#DejaVuSans-Bold-31"/>
     <use xlink:href="#DejaVuSans-Bold-48" transform="translate(83.6875 0)"/>
     <use xlink:href="#DejaVuSans-Bold-57" transform="translate(151.515625 0)"/>
     <use xlink:href="#DejaVuSans-Bold-5a" transform="translate(199.3125 0)"/>
     <use xlink:href="#DejaVuSans-Bold-52" transform="translate(291.703125 0)"/>
     <use xlink:href="#DejaVuSans-Bold-55" transform="translate(360.40625 0)"/>
     <use xlink:href="#DejaVuSans-Bold-4e" transform="translate(409.71875 0)"/>
     <use xlink:href="#DejaVuSans-Bold-3" transform="translate(476.21875 0)"/>
     <use xlink:href="#DejaVuSans-Bold-59" transform="translate(511.03125 0)"/>
     <use xlink:href="#DejaVuSans-Bold-4c" transform="translate(576.21875 0)"/>
     <use xlink:href="#DejaVuSans-Bold-48" transform="translate(610.5 0)"/>
     <use xlink:href="#DejaVuSans-Bold-5a" transform="translate(678.328125 0)"/>
     <use xlink:href="#DejaVuSans-Bold-1d" transform="translate(770.71875 0)"/>
     <use xlink:href="#DejaVuSans-Bold-3" transform="translate(810.703125 0)"/>
     <use xlink:href="#DejaVuSans-Bold-57" transform="translate(845.515625 0)"/>
     <use xlink:href="#DejaVuSans-Bold-4b" transform="translate(893.3125 0)"/>
     <use xlink:href="#DejaVuSans-Bold-48" transform="translate(964.5 0)"/>
     <use xlink:href="#DejaVuSans-Bold-3" transform="translate(1032.328125 0)"/>
     <use xlink:href="#DejaVuSans-Bold-56" transform="translate(1067.140625 0)"/>
     <use xlink:href="#DejaVuSans-Bold-44" transform="translate(1126.65625 0)"/>
     <use xlink:href="#DejaVuSans-Bold-50" transform="translate(1194.140625 0)"/>
     <use xlink:href="#DejaVuSans-Bold-48" transform="translate(1298.34375 0)"/>
     <use xlink:href="#DejaVuSans-Bold-3" transform="translate(1366.171875 0)"/>
     <use xlink:href="#DejaVuSans-Bold-55" transform="translate(1400.984375 0)"/>
     <use xlink:href="#DejaVuSans-Bold-48" transform="translate(1450.296875 0)"/>
     <use xlink:href="#DejaVuSans-Bold-44" transform="translate(1518.125 0)"/>
     <use xlink:href="#DejaVuSans-Bold-4f" transform="translate(1585.609375 0)"/>
     <use xlink:href="#DejaVuSans-Bold-3" transform="translate(1619.890625 0)"/>
     <use xlink:href="#DejaVuSans-Bold-50" transform="translate(1654.703125 0)"/>
     <use xlink:href="#DejaVuSans-Bold-52" transform="translate(1758.90625 0)"/>
     <use xlink:href="#DejaVuSans-Bold-50" transform="translate(1827.609375 0)"/>
     <use xlink:href="#DejaVuSans-Bold-48" transform="translate(1931.8125 0)"/>
     <use xlink:href="#DejaVuSans-Bold-51" transform="translate(1999.640625 0)"/>
     <use xlink:href="#DejaVuSans-Bold-57" transform="translate(2070.828125 0)"/>
     <use xlink:href="#DejaVuSans-Bold-f" transform="translate(2118.625 0)"/>
     <use xlink:href="#DejaVuSans-Bold-3" transform="translate(2156.609375 0)"/>
     <use xlink:href="#DejaVuSans-Bold-56" transform="translate(2191.421875 0)"/>
     <use xlink:href="#DejaVuSans-Bold-58" transform="translate(2250.9375 0)"/>
     <use xlink:href="#DejaVuSans-Bold-50" transform="translate(2322.125 0)"/>
     <use xlink:href="#DejaVuSans-Bold-50" transform="translate(2426.328125 0)"/>
     <use xlink:href="#DejaVuSans-Bold-48" transform="translate(2530.53125 0)"/>
     <use xlink:href="#DejaVuSans-Bold-47" transform="translate(2598.359375 0)"/>
    </g>
   </g>
   <g id="text_26">
    <!--  -->
    <g style="fill: #ffffff" transform="translate(454.073427 80.343503) scale(0.13 -0.13)">
     <use xlink:href="#bootstrap-icons-4c8"/>
    </g>
   </g>
   <g id="text_27">
    <!--  -->
    <g style="fill: #ffffff" transform="translate(512.911713 80.343503) scale(0.13 -0.13)">
     <use xlink:href="#bootstrap-icons-4c8"/>
    </g>
   </g>
   <g id="text_28">
    <!--  -->
    <g style="fill: #ffffff" transform="translate(571.75 80.343503) scale(0.13 -0.13)">
     <use xlink:href="#bootstrap-icons-4c8"/>
    </g>
   </g>
   <g id="text_29">
    <!--  -->
    <g style="fill: #ffffff" transform="translate(630.588287 80.343503) scale(0.13 -0.13)">
     <use xlink:href="#bootstrap-icons-4c8"/>
    </g>
   </g>
   <g id="text_30">
    <!--  -->
    <g style="fill: #ffffff" transform="translate(689.426573 80.343503) scale(0.13 -0.13)">
     <use xlink:href="#bootstrap-icons-4c8"/>
    </g>
   </g>
   <g id="text_31">
    <!--  -->
    <g style="fill: #ffffff" transform="translate(570.25 166.83214) scale(0.16 -0.16)">
     <defs>
      <path id="bootstrap-icons-499" d="M 811 5611 
Q 469 5611 234 5376 
Q 0 5141 0 4800 
L 0 4395 
Q 0 4075 234 3840 
Q 469 3605 789 3605 
L 3008 3605 
L 3008 2411 
Q 2752 2411 2581 2229 
Q 2411 2048 2411 1792 
L 192 1792 
Q 107 1792 53 1738 
Q 0 1685 0 1600 
Q 0 1515 53 1461 
Q 107 1408 192 1408 
L 2411 1408 
Q 2411 1152 2581 981 
Q 2752 811 3008 789 
L 3392 789 
Q 3648 789 3829 970 
Q 4011 1152 3989 1408 
L 6208 1408 
Q 6293 1408 6346 1461 
Q 6400 1515 6400 1600 
Q 6400 1685 6346 1738 
Q 6293 1792 6208 1792 
L 4011 1792 
Q 3989 2048 3818 2218 
Q 3648 2389 3392 2389 
L 3392 3605 
L 5611 3605 
Q 5931 3605 6165 3840 
Q 6400 4075 6400 4395 
L 6400 4800 
Q 6400 5141 6165 5376 
Q 5931 5611 5589 5611 
L 811 5611 
z
M 1003 4395 
Q 917 4395 864 4459 
Q 811 4523 811 4608 
Q 811 4693 864 4746 
Q 917 4800 1002 4800 
Q 1088 4800 1141 4746 
Q 1195 4693 1195 4608 
Q 1195 4523 1141 4459 
Q 1088 4395 1003 4395 
z
M 1792 4395 
Q 1707 4395 1653 4459 
Q 1600 4523 1600 4608 
Q 1600 4693 1653 4746 
Q 1707 4800 1792 4800 
Q 1877 4800 1941 4746 
Q 2005 4693 2005 4608 
Q 2005 4523 1941 4459 
Q 1877 4395 1792 4395 
z
" transform="scale(0.015625)"/>
     </defs>
     <use xlink:href="#bootstrap-icons-499"/>
    </g>
   </g>
  </g>
 </g>
 <defs>
  <clipPath id="p579dc5e2b3">
   <rect x="32.072727" y="57.499535" width="339.954545" height="163.439685"/>
  </clipPath>
  <clipPath id="p7386bb2e37">
   <rect x="408.272727" y="28.080392" width="339.954545" height="222.277972"/>
  </clipPath>
 </defs>
</svg>
