<?xml version="1.0" encoding="utf-8" standalone="no"?>
<!DOCTYPE svg PUBLIC "-//W3C//DTD SVG 1.1//EN"
  "http://www.w3.org/Graphics/SVG/1.1/DTD/svg11.dtd">
<svg xmlns:xlink="http://www.w3.org/1999/xlink" width="640.8pt" height="183.664466pt" viewBox="0 0 640.8 183.664466" xmlns="http://www.w3.org/2000/svg" version="1.1">
 <metadata>
  <rdf:RDF xmlns:dc="http://purl.org/dc/elements/1.1/" xmlns:cc="http://creativecommons.org/ns#" xmlns:rdf="http://www.w3.org/1999/02/22-rdf-syntax-ns#">
   <cc:Work>
    <dc:type rdf:resource="http://purl.org/dc/dcmitype/StillImage"/>
    <dc:date>2026-07-18T21:16:41.872210</dc:date>
    <dc:format>image/svg+xml</dc:format>
    <dc:creator>
     <cc:Agent>
      <dc:title>Matplotlib v3.11.0, https://matplotlib.org/</dc:title>
     </cc:Agent>
    </dc:creator>
   </cc:Work>
  </rdf:RDF>
 </metadata>
 <defs>
  <style type="text/css">*{stroke-linejoin: round; stroke-linecap: butt}</style>
 </defs>
 <g id="figure_1">
  <g id="patch_1">
   <path d="M 0 183.664466 
L 640.8 183.664466 
L 640.8 0 
L 0 0 
z
" style="fill: #ffffff"/>
  </g>
  <g id="axes_1">
   <g id="line2d_1">
    <path d="M 48.490244 69.109832 
L 33.47561 141.180076 
" clip-path="url(#p032578ea2c)" style="fill: none; stroke: #6b7280; stroke-opacity: 0.8; stroke-width: 1.3; stroke-linecap: square"/>
   </g>
   <g id="line2d_2">
    <path d="M 48.490244 69.109832 
L 97.287805 141.180076 
" clip-path="url(#p032578ea2c)" style="fill: none; stroke: #6b7280; stroke-opacity: 0.8; stroke-width: 1.3; stroke-linecap: square"/>
   </g>
   <g id="line2d_3">
    <path d="M 48.490244 69.109832 
L 161.1 141.180076 
" clip-path="url(#p032578ea2c)" style="fill: none; stroke: #6b7280; stroke-opacity: 0.8; stroke-width: 1.3; stroke-linecap: square"/>
   </g>
   <g id="line2d_4">
    <path d="M 48.490244 69.109832 
L 224.912195 141.180076 
" clip-path="url(#p032578ea2c)" style="fill: none; stroke: #6b7280; stroke-opacity: 0.8; stroke-width: 1.3; stroke-linecap: square"/>
   </g>
   <g id="line2d_5">
    <path d="M 48.490244 69.109832 
L 288.72439 141.180076 
" clip-path="url(#p032578ea2c)" style="fill: none; stroke: #6b7280; stroke-opacity: 0.8; stroke-width: 1.3; stroke-linecap: square"/>
   </g>
   <g id="patch_2">
    <path d="M 33.47561 165.578857 
C 36.561604 165.578857 39.521619 164.352778 41.703746 162.170651 
C 43.885873 159.988524 45.111951 157.028509 45.111951 153.942515 
C 45.111951 150.856521 43.885873 147.896506 41.703746 145.714379 
C 39.521619 143.532252 36.561604 142.306174 33.47561 142.306174 
C 30.389616 142.306174 27.429601 143.532252 25.247474 145.714379 
C 23.065347 147.896506 21.839268 150.856521 21.839268 153.942515 
C 21.839268 157.028509 23.065347 159.988524 25.247474 162.170651 
C 27.429601 164.352778 30.389616 165.578857 33.47561 165.578857 
z
" clip-path="url(#p032578ea2c)" style="fill: #6b7280; stroke: #ffffff; stroke-width: 1.3; stroke-linejoin: miter"/>
   </g>
   <g id="patch_3">
    <path d="M 97.287805 165.578857 
C 100.373799 165.578857 103.333814 164.352778 105.515941 162.170651 
C 107.698068 159.988524 108.924146 157.028509 108.924146 153.942515 
C 108.924146 150.856521 107.698068 147.896506 105.515941 145.714379 
C 103.333814 143.532252 100.373799 142.306174 97.287805 142.306174 
C 94.201811 142.306174 91.241796 143.532252 89.059669 145.714379 
C 86.877542 147.896506 85.651463 150.856521 85.651463 153.942515 
C 85.651463 157.028509 86.877542 159.988524 89.059669 162.170651 
C 91.241796 164.352778 94.201811 165.578857 97.287805 165.578857 
z
" clip-path="url(#p032578ea2c)" style="fill: #6b7280; stroke: #ffffff; stroke-width: 1.3; stroke-linejoin: miter"/>
   </g>
   <g id="patch_4">
    <path d="M 161.1 165.578857 
C 164.185994 165.578857 167.146009 164.352778 169.328136 162.170651 
C 171.510263 159.988524 172.736341 157.028509 172.736341 153.942515 
C 172.736341 150.856521 171.510263 147.896506 169.328136 145.714379 
C 167.146009 143.532252 164.185994 142.306174 161.1 142.306174 
C 158.014006 142.306174 155.053991 143.532252 152.871864 145.714379 
C 150.689737 147.896506 149.463659 150.856521 149.463659 153.942515 
C 149.463659 157.028509 150.689737 159.988524 152.871864 162.170651 
C 155.053991 164.352778 158.014006 165.578857 161.1 165.578857 
z
" clip-path="url(#p032578ea2c)" style="fill: #6b7280; stroke: #ffffff; stroke-width: 1.3; stroke-linejoin: miter"/>
   </g>
   <g id="patch_5">
    <path d="M 224.912195 165.578857 
C 227.998189 165.578857 230.958204 164.352778 233.140331 162.170651 
C 235.322458 159.988524 236.548537 157.028509 236.548537 153.942515 
C 236.548537 150.856521 235.322458 147.896506 233.140331 145.714379 
C 230.958204 143.532252 227.998189 142.306174 224.912195 142.306174 
C 221.826201 142.306174 218.866186 143.532252 216.684059 145.714379 
C 214.501932 147.896506 213.275854 150.856521 213.275854 153.942515 
C 213.275854 157.028509 214.501932 159.988524 216.684059 162.170651 
C 218.866186 164.352778 221.826201 165.578857 224.912195 165.578857 
z
" clip-path="url(#p032578ea2c)" style="fill: #6b7280; stroke: #ffffff; stroke-width: 1.3; stroke-linejoin: miter"/>
   </g>
   <g id="patch_6">
    <path d="M 288.72439 165.578857 
C 291.810384 165.578857 294.770399 164.352778 296.952526 162.170651 
C 299.134653 159.988524 300.360732 157.028509 300.360732 153.942515 
C 300.360732 150.856521 299.134653 147.896506 296.952526 145.714379 
C 294.770399 143.532252 291.810384 142.306174 288.72439 142.306174 
C 285.638396 142.306174 282.678381 143.532252 280.496254 145.714379 
C 278.314127 147.896506 277.088049 150.856521 277.088049 153.942515 
C 277.088049 157.028509 278.314127 159.988524 280.496254 162.170651 
C 282.678381 164.352778 285.638396 165.578857 288.72439 165.578857 
z
" clip-path="url(#p032578ea2c)" style="fill: #6b7280; stroke: #ffffff; stroke-width: 1.3; stroke-linejoin: miter"/>
   </g>
   <g id="patch_7">
    <path d="M 48.490244 69.109832 
C 52.870364 69.109832 57.071676 67.369592 60.168888 64.272379 
C 63.266101 61.175167 65.006341 56.973855 65.006341 52.593735 
C 65.006341 48.213614 63.266101 44.012303 60.168888 40.91509 
C 57.071676 37.817877 52.870364 36.077637 48.490244 36.077637 
C 44.110124 36.077637 39.908812 37.817877 36.811599 40.91509 
C 33.714387 44.012303 31.974146 48.213614 31.974146 52.593735 
C 31.974146 56.973855 33.714387 61.175167 36.811599 64.272379 
C 39.908812 67.369592 44.110124 69.109832 48.490244 69.109832 
z
" clip-path="url(#p032578ea2c)" style="fill: #1e293b; stroke: #ffffff; stroke-width: 1.6; stroke-linejoin: miter"/>
   </g>
   <g id="text_1">
    <!--  -->
    <g style="fill: #ffffff" transform="translate(28.47561 158.942515) scale(0.1 -0.1)">
     <defs>
      <path id="bootstrap-icons-4c8" d="M 3477 5803 
Q 3371 5909 3200 5909 
Q 3029 5909 2923 5803 
L 256 3136 
Q 192 3093 192 3008 
Q 192 2923 256 2859 
Q 320 2795 405 2795 
Q 491 2795 533 2859 
L 3200 5525 
L 5867 2859 
Q 5909 2795 5994 2795 
Q 6080 2795 6144 2859 
Q 6208 2923 6208 3008 
Q 6208 3093 6144 3136 
L 5205 4075 
L 5205 5397 
Q 5205 5483 5141 5547 
Q 5077 5611 4992 5611 
L 4608 5611 
Q 4523 5611 4459 5547 
Q 4395 5483 4395 5397 
L 4395 4885 
L 3477 5803 
z
M 3200 5077 
L 5611 2688 
L 5611 1003 
Q 5611 747 5429 576 
Q 5248 405 4992 405 
L 1408 405 
Q 1152 405 970 576 
Q 789 747 789 1003 
L 789 2688 
L 3200 5077 
z
" transform="scale(0.015625)"/>
     </defs>
     <use xlink:href="#bootstrap-icons-4c8"/>
    </g>
   </g>
   <g id="text_2">
    <!--  -->
    <g style="fill: #ffffff" transform="translate(92.287805 158.942515) scale(0.1 -0.1)">
     <use xlink:href="#bootstrap-icons-4c8"/>
    </g>
   </g>
   <g id="text_3">
    <!--  -->
    <g style="fill: #ffffff" transform="translate(156.1 158.942515) scale(0.1 -0.1)">
     <use xlink:href="#bootstrap-icons-4c8"/>
    </g>
   </g>
   <g id="text_4">
    <!--  -->
    <g style="fill: #ffffff" transform="translate(219.912195 158.942515) scale(0.1 -0.1)">
     <use xlink:href="#bootstrap-icons-4c8"/>
    </g>
   </g>
   <g id="text_5">
    <!--  -->
    <g style="fill: #ffffff" transform="translate(283.72439 158.942515) scale(0.1 -0.1)">
     <use xlink:href="#bootstrap-icons-4c8"/>
    </g>
   </g>
   <g id="text_6">
    <!-- Substation telemetry only -->
    <g style="fill: #1e293b" transform="translate(72.744375 16.318125) scale(0.12 -0.12)">
     <defs>
      <path id="DejaVuSans-Bold-36" d="M 3834 4519 
L 3834 3531 
Q 3450 3703 3084 3790 
Q 2719 3878 2394 3878 
Q 1963 3878 1756 3759 
Q 1550 3641 1550 3391 
Q 1550 3203 1689 3098 
Q 1828 2994 2194 2919 
L 2706 2816 
Q 3484 2659 3812 2340 
Q 4141 2022 4141 1434 
Q 4141 663 3683 286 
Q 3225 -91 2284 -91 
Q 1841 -91 1394 -6 
Q 947 78 500 244 
L 500 1259 
Q 947 1022 1364 901 
Q 1781 781 2169 781 
Q 2563 781 2772 912 
Q 2981 1044 2981 1288 
Q 2981 1506 2839 1625 
Q 2697 1744 2272 1838 
L 1806 1941 
Q 1106 2091 782 2419 
Q 459 2747 459 3303 
Q 459 4000 909 4375 
Q 1359 4750 2203 4750 
Q 2588 4750 2994 4692 
Q 3400 4634 3834 4519 
z
" transform="scale(0.015625)"/>
      <path id="DejaVuSans-Bold-58" d="M 500 1363 
L 500 3500 
L 1625 3500 
L 1625 3150 
Q 1625 2866 1622 2436 
Q 1619 2006 1619 1863 
Q 1619 1441 1641 1255 
Q 1663 1069 1716 984 
Q 1784 875 1895 815 
Q 2006 756 2150 756 
Q 2500 756 2700 1025 
Q 2900 1294 2900 1772 
L 2900 3500 
L 4019 3500 
L 4019 0 
L 2900 0 
L 2900 506 
Q 2647 200 2364 54 
Q 2081 -91 1741 -91 
Q 1134 -91 817 281 
Q 500 653 500 1363 
z
" transform="scale(0.015625)"/>
      <path id="DejaVuSans-Bold-45" d="M 2400 722 
Q 2759 722 2948 984 
Q 3138 1247 3138 1747 
Q 3138 2247 2948 2509 
Q 2759 2772 2400 2772 
Q 2041 2772 1848 2508 
Q 1656 2244 1656 1747 
Q 1656 1250 1848 986 
Q 2041 722 2400 722 
z
M 1656 2988 
Q 1888 3294 2169 3439 
Q 2450 3584 2816 3584 
Q 3463 3584 3878 3070 
Q 4294 2556 4294 1747 
Q 4294 938 3878 423 
Q 3463 -91 2816 -91 
Q 2450 -91 2169 54 
Q 1888 200 1656 506 
L 1656 0 
L 538 0 
L 538 4863 
L 1656 4863 
L 1656 2988 
z
" transform="scale(0.015625)"/>
      <path id="DejaVuSans-Bold-56" d="M 3272 3391 
L 3272 2541 
Q 2913 2691 2578 2766 
Q 2244 2841 1947 2841 
Q 1628 2841 1473 2761 
Q 1319 2681 1319 2516 
Q 1319 2381 1436 2309 
Q 1553 2238 1856 2203 
L 2053 2175 
Q 2913 2066 3209 1816 
Q 3506 1566 3506 1031 
Q 3506 472 3093 190 
Q 2681 -91 1863 -91 
Q 1516 -91 1145 -36 
Q 775 19 384 128 
L 384 978 
Q 719 816 1070 734 
Q 1422 653 1784 653 
Q 2113 653 2278 743 
Q 2444 834 2444 1013 
Q 2444 1163 2330 1236 
Q 2216 1309 1875 1350 
L 1678 1375 
Q 931 1469 631 1722 
Q 331 1975 331 2491 
Q 331 3047 712 3315 
Q 1094 3584 1881 3584 
Q 2191 3584 2531 3537 
Q 2872 3491 3272 3391 
z
" transform="scale(0.015625)"/>
      <path id="DejaVuSans-Bold-57" d="M 1759 4494 
L 1759 3500 
L 2913 3500 
L 2913 2700 
L 1759 2700 
L 1759 1216 
Q 1759 972 1856 886 
Q 1953 800 2241 800 
L 2816 800 
L 2816 0 
L 1856 0 
Q 1194 0 917 276 
Q 641 553 641 1216 
L 641 2700 
L 84 2700 
L 84 3500 
L 641 3500 
L 641 4494 
L 1759 4494 
z
" transform="scale(0.015625)"/>
      <path id="DejaVuSans-Bold-44" d="M 2106 1575 
Q 1756 1575 1579 1456 
Q 1403 1338 1403 1106 
Q 1403 894 1545 773 
Q 1688 653 1941 653 
Q 2256 653 2472 879 
Q 2688 1106 2688 1447 
L 2688 1575 
L 2106 1575 
z
M 3816 1997 
L 3816 0 
L 2688 0 
L 2688 519 
Q 2463 200 2181 54 
Q 1900 -91 1497 -91 
Q 953 -91 614 226 
Q 275 544 275 1050 
Q 275 1666 698 1953 
Q 1122 2241 2028 2241 
L 2688 2241 
L 2688 2328 
Q 2688 2594 2478 2717 
Q 2269 2841 1825 2841 
Q 1466 2841 1156 2769 
Q 847 2697 581 2553 
L 581 3406 
Q 941 3494 1303 3539 
Q 1666 3584 2028 3584 
Q 2975 3584 3395 3211 
Q 3816 2838 3816 1997 
z
" transform="scale(0.015625)"/>
      <path id="DejaVuSans-Bold-4c" d="M 538 3500 
L 1656 3500 
L 1656 0 
L 538 0 
L 538 3500 
z
M 538 4863 
L 1656 4863 
L 1656 3950 
L 538 3950 
L 538 4863 
z
" transform="scale(0.015625)"/>
      <path id="DejaVuSans-Bold-52" d="M 2203 2784 
Q 1831 2784 1636 2517 
Q 1441 2250 1441 1747 
Q 1441 1244 1636 976 
Q 1831 709 2203 709 
Q 2569 709 2762 976 
Q 2956 1244 2956 1747 
Q 2956 2250 2762 2517 
Q 2569 2784 2203 2784 
z
M 2203 3584 
Q 3106 3584 3614 3096 
Q 4122 2609 4122 1747 
Q 4122 884 3614 396 
Q 3106 -91 2203 -91 
Q 1297 -91 786 396 
Q 275 884 275 1747 
Q 275 2609 786 3096 
Q 1297 3584 2203 3584 
z
" transform="scale(0.015625)"/>
      <path id="DejaVuSans-Bold-51" d="M 4056 2131 
L 4056 0 
L 2931 0 
L 2931 347 
L 2931 1631 
Q 2931 2084 2911 2256 
Q 2891 2428 2841 2509 
Q 2775 2619 2662 2680 
Q 2550 2741 2406 2741 
Q 2056 2741 1856 2470 
Q 1656 2200 1656 1722 
L 1656 0 
L 538 0 
L 538 3500 
L 1656 3500 
L 1656 2988 
Q 1909 3294 2193 3439 
Q 2478 3584 2822 3584 
Q 3428 3584 3742 3212 
Q 4056 2841 4056 2131 
z
" transform="scale(0.015625)"/>
      <path id="DejaVuSans-Bold-3" transform="scale(0.015625)"/>
      <path id="DejaVuSans-Bold-48" d="M 4031 1759 
L 4031 1441 
L 1416 1441 
Q 1456 1047 1700 850 
Q 1944 653 2381 653 
Q 2734 653 3104 758 
Q 3475 863 3866 1075 
L 3866 213 
Q 3469 63 3072 -14 
Q 2675 -91 2278 -91 
Q 1328 -91 801 392 
Q 275 875 275 1747 
Q 275 2603 792 3093 
Q 1309 3584 2216 3584 
Q 3041 3584 3536 3087 
Q 4031 2591 4031 1759 
z
M 2881 2131 
Q 2881 2450 2695 2645 
Q 2509 2841 2209 2841 
Q 1884 2841 1681 2658 
Q 1478 2475 1428 2131 
L 2881 2131 
z
" transform="scale(0.015625)"/>
      <path id="DejaVuSans-Bold-4f" d="M 538 4863 
L 1656 4863 
L 1656 0 
L 538 0 
L 538 4863 
z
" transform="scale(0.015625)"/>
      <path id="DejaVuSans-Bold-50" d="M 3781 2919 
Q 3994 3244 4286 3414 
Q 4578 3584 4928 3584 
Q 5531 3584 5847 3212 
Q 6163 2841 6163 2131 
L 6163 0 
L 5038 0 
L 5038 1825 
Q 5041 1866 5042 1909 
Q 5044 1953 5044 2034 
Q 5044 2406 4934 2573 
Q 4825 2741 4581 2741 
Q 4263 2741 4089 2478 
Q 3916 2216 3909 1719 
L 3909 0 
L 2784 0 
L 2784 1825 
Q 2784 2406 2684 2573 
Q 2584 2741 2328 2741 
Q 2006 2741 1831 2477 
Q 1656 2213 1656 1722 
L 1656 0 
L 531 0 
L 531 3500 
L 1656 3500 
L 1656 2988 
Q 1863 3284 2130 3434 
Q 2397 3584 2719 3584 
Q 3081 3584 3359 3409 
Q 3638 3234 3781 2919 
z
" transform="scale(0.015625)"/>
      <path id="DejaVuSans-Bold-55" d="M 3138 2547 
Q 2991 2616 2845 2648 
Q 2700 2681 2553 2681 
Q 2122 2681 1889 2404 
Q 1656 2128 1656 1613 
L 1656 0 
L 538 0 
L 538 3500 
L 1656 3500 
L 1656 2925 
Q 1872 3269 2151 3426 
Q 2431 3584 2822 3584 
Q 2878 3584 2943 3579 
Q 3009 3575 3134 3559 
L 3138 2547 
z
" transform="scale(0.015625)"/>
      <path id="DejaVuSans-Bold-5c" d="M 78 3500 
L 1197 3500 
L 2138 1125 
L 2938 3500 
L 4056 3500 
L 2584 -331 
Q 2363 -916 2067 -1148 
Q 1772 -1381 1288 -1381 
L 641 -1381 
L 641 -647 
L 991 -647 
Q 1275 -647 1404 -556 
Q 1534 -466 1606 -231 
L 1638 -134 
L 78 3500 
z
" transform="scale(0.015625)"/>
     </defs>
     <use xlink:href="#DejaVuSans-Bold-36"/>
     <use xlink:href="#DejaVuSans-Bold-58" transform="translate(72.015625 0)"/>
     <use xlink:href="#DejaVuSans-Bold-45" transform="translate(143.203125 0)"/>
     <use xlink:href="#DejaVuSans-Bold-56" transform="translate(214.78125 0)"/>
     <use xlink:href="#DejaVuSans-Bold-57" transform="translate(274.296875 0)"/>
     <use xlink:href="#DejaVuSans-Bold-44" transform="translate(322.09375 0)"/>
     <use xlink:href="#DejaVuSans-Bold-57" transform="translate(389.578125 0)"/>
     <use xlink:href="#DejaVuSans-Bold-4c" transform="translate(437.375 0)"/>
     <use xlink:href="#DejaVuSans-Bold-52" transform="translate(471.65625 0)"/>
     <use xlink:href="#DejaVuSans-Bold-51" transform="translate(540.359375 0)"/>
     <use xlink:href="#DejaVuSans-Bold-3" transform="translate(611.546875 0)"/>
     <use xlink:href="#DejaVuSans-Bold-57" transform="translate(646.359375 0)"/>
     <use xlink:href="#DejaVuSans-Bold-48" transform="translate(694.15625 0)"/>
     <use xlink:href="#DejaVuSans-Bold-4f" transform="translate(761.984375 0)"/>
     <use xlink:href="#DejaVuSans-Bold-48" transform="translate(796.265625 0)"/>
     <use xlink:href="#DejaVuSans-Bold-50" transform="translate(864.09375 0)"/>
     <use xlink:href="#DejaVuSans-Bold-48" transform="translate(968.296875 0)"/>
     <use xlink:href="#DejaVuSans-Bold-57" transform="translate(1036.125 0)"/>
     <use xlink:href="#DejaVuSans-Bold-55" transform="translate(1083.921875 0)"/>
     <use xlink:href="#DejaVuSans-Bold-5c" transform="translate(1133.234375 0)"/>
     <use xlink:href="#DejaVuSans-Bold-3" transform="translate(1198.421875 0)"/>
     <use xlink:href="#DejaVuSans-Bold-52" transform="translate(1233.234375 0)"/>
     <use xlink:href="#DejaVuSans-Bold-51" transform="translate(1301.9375 0)"/>
     <use xlink:href="#DejaVuSans-Bold-4f" transform="translate(1373.125 0)"/>
     <use xlink:href="#DejaVuSans-Bold-5c" transform="translate(1407.40625 0)"/>
    </g>
   </g>
   <g id="text_7">
    <!--  -->
    <g style="fill: #ffffff" transform="translate(40.490244 60.593735) scale(0.16 -0.16)">
     <defs>
      <path id="bootstrap-icons-499" d="M 811 5611 
Q 469 5611 234 5376 
Q 0 5141 0 4800 
L 0 4395 
Q 0 4075 234 3840 
Q 469 3605 789 3605 
L 3008 3605 
L 3008 2411 
Q 2752 2411 2581 2229 
Q 2411 2048 2411 1792 
L 192 1792 
Q 107 1792 53 1738 
Q 0 1685 0 1600 
Q 0 1515 53 1461 
Q 107 1408 192 1408 
L 2411 1408 
Q 2411 1152 2581 981 
Q 2752 811 3008 789 
L 3392 789 
Q 3648 789 3829 970 
Q 4011 1152 3989 1408 
L 6208 1408 
Q 6293 1408 6346 1461 
Q 6400 1515 6400 1600 
Q 6400 1685 6346 1738 
Q 6293 1792 6208 1792 
L 4011 1792 
Q 3989 2048 3818 2218 
Q 3648 2389 3392 2389 
L 3392 3605 
L 5611 3605 
Q 5931 3605 6165 3840 
Q 6400 4075 6400 4395 
L 6400 4800 
Q 6400 5141 6165 5376 
Q 5931 5611 5589 5611 
L 811 5611 
z
M 1003 4395 
Q 917 4395 864 4459 
Q 811 4523 811 4608 
Q 811 4693 864 4746 
Q 917 4800 1002 4800 
Q 1088 4800 1141 4746 
Q 1195 4693 1195 4608 
Q 1195 4523 1141 4459 
Q 1088 4395 1003 4395 
z
M 1792 4395 
Q 1707 4395 1653 4459 
Q 1600 4523 1600 4608 
Q 1600 4693 1653 4746 
Q 1707 4800 1792 4800 
Q 1877 4800 1941 4746 
Q 2005 4693 2005 4608 
Q 2005 4523 1941 4459 
Q 1877 4395 1792 4395 
z
" transform="scale(0.015625)"/>
     </defs>
     <use xlink:href="#bootstrap-icons-499"/>
    </g>
   </g>
   <g id="text_8">
    <!-- ? -->
    <g style="fill: #ffffff" transform="translate(30.864907 156.280406) scale(0.09 -0.09)">
     <defs>
      <path id="DejaVuSans-Bold-22" d="M 2216 1575 
L 1088 1575 
L 1088 1728 
Q 1088 1984 1191 2182 
Q 1294 2381 1625 2688 
L 1825 2869 
Q 2003 3031 2086 3175 
Q 2169 3319 2169 3463 
Q 2169 3681 2019 3804 
Q 1869 3928 1600 3928 
Q 1347 3928 1053 3823 
Q 759 3719 441 3513 
L 441 4494 
Q 819 4625 1131 4687 
Q 1444 4750 1734 4750 
Q 2497 4750 2897 4439 
Q 3297 4128 3297 3531 
Q 3297 3225 3175 2983 
Q 3053 2741 2759 2463 
L 2559 2284 
Q 2347 2091 2281 1973 
Q 2216 1856 2216 1716 
L 2216 1575 
z
M 1088 1113 
L 2216 1113 
L 2216 0 
L 1088 0 
L 1088 1113 
z
" transform="scale(0.015625)"/>
     </defs>
     <use xlink:href="#DejaVuSans-Bold-22"/>
    </g>
   </g>
   <g id="text_9">
    <!-- ? -->
    <g style="fill: #ffffff" transform="translate(94.677102 156.280406) scale(0.09 -0.09)">
     <use xlink:href="#DejaVuSans-Bold-22"/>
    </g>
   </g>
   <g id="text_10">
    <!-- ? -->
    <g style="fill: #ffffff" transform="translate(158.489297 156.280406) scale(0.09 -0.09)">
     <use xlink:href="#DejaVuSans-Bold-22"/>
    </g>
   </g>
   <g id="text_11">
    <!-- ? -->
    <g style="fill: #ffffff" transform="translate(222.301492 156.280406) scale(0.09 -0.09)">
     <use xlink:href="#DejaVuSans-Bold-22"/>
    </g>
   </g>
   <g id="text_12">
    <!-- ? -->
    <g style="fill: #ffffff" transform="translate(286.113687 156.280406) scale(0.09 -0.09)">
     <use xlink:href="#DejaVuSans-Bold-22"/>
    </g>
   </g>
  </g>
  <g id="axes_2">
   <g id="line2d_6">
    <path d="M 367.090244 69.109832 
L 352.07561 141.180076 
" clip-path="url(#p9623388a57)" style="fill: none; stroke: #059669; stroke-opacity: 0.8; stroke-width: 1.3; stroke-linecap: square"/>
   </g>
   <g id="line2d_7">
    <path d="M 367.090244 69.109832 
L 415.887805 141.180076 
" clip-path="url(#p9623388a57)" style="fill: none; stroke: #059669; stroke-opacity: 0.8; stroke-width: 1.3; stroke-linecap: square"/>
   </g>
   <g id="line2d_8">
    <path d="M 367.090244 69.109832 
L 479.7 141.180076 
" clip-path="url(#p9623388a57)" style="fill: none; stroke: #059669; stroke-opacity: 0.8; stroke-width: 1.3; stroke-linecap: square"/>
   </g>
   <g id="line2d_9">
    <path d="M 367.090244 69.109832 
L 543.512195 141.180076 
" clip-path="url(#p9623388a57)" style="fill: none; stroke: #059669; stroke-opacity: 0.8; stroke-width: 1.3; stroke-linecap: square"/>
   </g>
   <g id="line2d_10">
    <path d="M 367.090244 69.109832 
L 607.32439 141.180076 
" clip-path="url(#p9623388a57)" style="fill: none; stroke: #059669; stroke-opacity: 0.8; stroke-width: 1.3; stroke-linecap: square"/>
   </g>
   <g id="patch_8">
    <path d="M 352.07561 165.578857 
C 355.161604 165.578857 358.121619 164.352778 360.303746 162.170651 
C 362.485873 159.988524 363.711951 157.028509 363.711951 153.942515 
C 363.711951 150.856521 362.485873 147.896506 360.303746 145.714379 
C 358.121619 143.532252 355.161604 142.306174 352.07561 142.306174 
C 348.989616 142.306174 346.029601 143.532252 343.847474 145.714379 
C 341.665347 147.896506 340.439268 150.856521 340.439268 153.942515 
C 340.439268 157.028509 341.665347 159.988524 343.847474 162.170651 
C 346.029601 164.352778 348.989616 165.578857 352.07561 165.578857 
z
" clip-path="url(#p9623388a57)" style="fill: #059669; stroke: #ffffff; stroke-width: 1.3; stroke-linejoin: miter"/>
   </g>
   <g id="patch_9">
    <path d="M 415.887805 165.578857 
C 418.973799 165.578857 421.933814 164.352778 424.115941 162.170651 
C 426.298068 159.988524 427.524146 157.028509 427.524146 153.942515 
C 427.524146 150.856521 426.298068 147.896506 424.115941 145.714379 
C 421.933814 143.532252 418.973799 142.306174 415.887805 142.306174 
C 412.801811 142.306174 409.841796 143.532252 407.659669 145.714379 
C 405.477542 147.896506 404.251463 150.856521 404.251463 153.942515 
C 404.251463 157.028509 405.477542 159.988524 407.659669 162.170651 
C 409.841796 164.352778 412.801811 165.578857 415.887805 165.578857 
z
" clip-path="url(#p9623388a57)" style="fill: #059669; stroke: #ffffff; stroke-width: 1.3; stroke-linejoin: miter"/>
   </g>
   <g id="patch_10">
    <path d="M 479.7 165.578857 
C 482.785994 165.578857 485.746009 164.352778 487.928136 162.170651 
C 490.110263 159.988524 491.336341 157.028509 491.336341 153.942515 
C 491.336341 150.856521 490.110263 147.896506 487.928136 145.714379 
C 485.746009 143.532252 482.785994 142.306174 479.7 142.306174 
C 476.614006 142.306174 473.653991 143.532252 471.471864 145.714379 
C 469.289737 147.896506 468.063659 150.856521 468.063659 153.942515 
C 468.063659 157.028509 469.289737 159.988524 471.471864 162.170651 
C 473.653991 164.352778 476.614006 165.578857 479.7 165.578857 
z
" clip-path="url(#p9623388a57)" style="fill: #059669; stroke: #ffffff; stroke-width: 1.3; stroke-linejoin: miter"/>
   </g>
   <g id="patch_11">
    <path d="M 543.512195 165.578857 
C 546.598189 165.578857 549.558204 164.352778 551.740331 162.170651 
C 553.922458 159.988524 555.148537 157.028509 555.148537 153.942515 
C 555.148537 150.856521 553.922458 147.896506 551.740331 145.714379 
C 549.558204 143.532252 546.598189 142.306174 543.512195 142.306174 
C 540.426201 142.306174 537.466186 143.532252 535.284059 145.714379 
C 533.101932 147.896506 531.875854 150.856521 531.875854 153.942515 
C 531.875854 157.028509 533.101932 159.988524 535.284059 162.170651 
C 537.466186 164.352778 540.426201 165.578857 543.512195 165.578857 
z
" clip-path="url(#p9623388a57)" style="fill: #059669; stroke: #ffffff; stroke-width: 1.3; stroke-linejoin: miter"/>
   </g>
   <g id="patch_12">
    <path d="M 607.32439 165.578857 
C 610.410384 165.578857 613.370399 164.352778 615.552526 162.170651 
C 617.734653 159.988524 618.960732 157.028509 618.960732 153.942515 
C 618.960732 150.856521 617.734653 147.896506 615.552526 145.714379 
C 613.370399 143.532252 610.410384 142.306174 607.32439 142.306174 
C 604.238396 142.306174 601.278381 143.532252 599.096254 145.714379 
C 596.914127 147.896506 595.688049 150.856521 595.688049 153.942515 
C 595.688049 157.028509 596.914127 159.988524 599.096254 162.170651 
C 601.278381 164.352778 604.238396 165.578857 607.32439 165.578857 
z
" clip-path="url(#p9623388a57)" style="fill: #059669; stroke: #ffffff; stroke-width: 1.3; stroke-linejoin: miter"/>
   </g>
   <g id="patch_13">
    <path d="M 367.090244 69.109832 
C 371.470364 69.109832 375.671676 67.369592 378.768888 64.272379 
C 381.866101 61.175167 383.606341 56.973855 383.606341 52.593735 
C 383.606341 48.213614 381.866101 44.012303 378.768888 40.91509 
C 375.671676 37.817877 371.470364 36.077637 367.090244 36.077637 
C 362.710124 36.077637 358.508812 37.817877 355.411599 40.91509 
C 352.314387 44.012303 350.574146 48.213614 350.574146 52.593735 
C 350.574146 56.973855 352.314387 61.175167 355.411599 64.272379 
C 358.508812 67.369592 362.710124 69.109832 367.090244 69.109832 
z
" clip-path="url(#p9623388a57)" style="fill: #1e293b; stroke: #ffffff; stroke-width: 1.6; stroke-linejoin: miter"/>
   </g>
   <g id="text_13">
    <!--  -->
    <g style="fill: #ffffff" transform="translate(347.07561 158.942515) scale(0.1 -0.1)">
     <use xlink:href="#bootstrap-icons-4c8"/>
    </g>
   </g>
   <g id="text_14">
    <!--  -->
    <g style="fill: #ffffff" transform="translate(410.887805 158.942515) scale(0.1 -0.1)">
     <use xlink:href="#bootstrap-icons-4c8"/>
    </g>
   </g>
   <g id="text_15">
    <!--  -->
    <g style="fill: #ffffff" transform="translate(474.7 158.942515) scale(0.1 -0.1)">
     <use xlink:href="#bootstrap-icons-4c8"/>
    </g>
   </g>
   <g id="text_16">
    <!--  -->
    <g style="fill: #ffffff" transform="translate(538.512195 158.942515) scale(0.1 -0.1)">
     <use xlink:href="#bootstrap-icons-4c8"/>
    </g>
   </g>
   <g id="text_17">
    <!--  -->
    <g style="fill: #ffffff" transform="translate(602.32439 158.942515) scale(0.1 -0.1)">
     <use xlink:href="#bootstrap-icons-4c8"/>
    </g>
   </g>
   <g id="text_18">
    <!-- Smart-meter pseudo-measurements -->
    <g style="fill: #1e293b" transform="translate(357.0675 16.318125) scale(0.12 -0.12)">
     <defs>
      <path id="DejaVuSans-Bold-10" d="M 347 2297 
L 2309 2297 
L 2309 1388 
L 347 1388 
L 347 2297 
z
" transform="scale(0.015625)"/>
      <path id="DejaVuSans-Bold-53" d="M 1656 506 
L 1656 -1331 
L 538 -1331 
L 538 3500 
L 1656 3500 
L 1656 2988 
Q 1888 3294 2169 3439 
Q 2450 3584 2816 3584 
Q 3463 3584 3878 3070 
Q 4294 2556 4294 1747 
Q 4294 938 3878 423 
Q 3463 -91 2816 -91 
Q 2450 -91 2169 54 
Q 1888 200 1656 506 
z
M 2400 2772 
Q 2041 2772 1848 2508 
Q 1656 2244 1656 1747 
Q 1656 1250 1848 986 
Q 2041 722 2400 722 
Q 2759 722 2948 984 
Q 3138 1247 3138 1747 
Q 3138 2247 2948 2509 
Q 2759 2772 2400 2772 
z
" transform="scale(0.015625)"/>
      <path id="DejaVuSans-Bold-47" d="M 2919 2988 
L 2919 4863 
L 4044 4863 
L 4044 0 
L 2919 0 
L 2919 506 
Q 2688 197 2409 53 
Q 2131 -91 1766 -91 
Q 1119 -91 703 423 
Q 288 938 288 1747 
Q 288 2556 703 3070 
Q 1119 3584 1766 3584 
Q 2128 3584 2408 3439 
Q 2688 3294 2919 2988 
z
M 2181 722 
Q 2541 722 2730 984 
Q 2919 1247 2919 1747 
Q 2919 2247 2730 2509 
Q 2541 2772 2181 2772 
Q 1825 2772 1636 2509 
Q 1447 2247 1447 1747 
Q 1447 1247 1636 984 
Q 1825 722 2181 722 
z
" transform="scale(0.015625)"/>
     </defs>
     <use xlink:href="#DejaVuSans-Bold-36"/>
     <use xlink:href="#DejaVuSans-Bold-50" transform="translate(72.015625 0)"/>
     <use xlink:href="#DejaVuSans-Bold-44" transform="translate(176.21875 0)"/>
     <use xlink:href="#DejaVuSans-Bold-55" transform="translate(243.703125 0)"/>
     <use xlink:href="#DejaVuSans-Bold-57" transform="translate(293.015625 0)"/>
     <use xlink:href="#DejaVuSans-Bold-10" transform="translate(340.8125 0)"/>
     <use xlink:href="#DejaVuSans-Bold-50" transform="translate(382.3125 0)"/>
     <use xlink:href="#DejaVuSans-Bold-48" transform="translate(486.515625 0)"/>
     <use xlink:href="#DejaVuSans-Bold-57" transform="translate(554.34375 0)"/>
     <use xlink:href="#DejaVuSans-Bold-48" transform="translate(602.140625 0)"/>
     <use xlink:href="#DejaVuSans-Bold-55" transform="translate(669.96875 0)"/>
     <use xlink:href="#DejaVuSans-Bold-3" transform="translate(719.28125 0)"/>
     <use xlink:href="#DejaVuSans-Bold-53" transform="translate(754.09375 0)"/>
     <use xlink:href="#DejaVuSans-Bold-56" transform="translate(825.671875 0)"/>
     <use xlink:href="#DejaVuSans-Bold-48" transform="translate(885.1875 0)"/>
     <use xlink:href="#DejaVuSans-Bold-58" transform="translate(953.015625 0)"/>
     <use xlink:href="#DejaVuSans-Bold-47" transform="translate(1024.203125 0)"/>
     <use xlink:href="#DejaVuSans-Bold-52" transform="translate(1095.78125 0)"/>
     <use xlink:href="#DejaVuSans-Bold-10" transform="translate(1164.484375 0)"/>
     <use xlink:href="#DejaVuSans-Bold-50" transform="translate(1205.984375 0)"/>
     <use xlink:href="#DejaVuSans-Bold-48" transform="translate(1310.1875 0)"/>
     <use xlink:href="#DejaVuSans-Bold-44" transform="translate(1378.015625 0)"/>
     <use xlink:href="#DejaVuSans-Bold-56" transform="translate(1445.5 0)"/>
     <use xlink:href="#DejaVuSans-Bold-58" transform="translate(1505.015625 0)"/>
     <use xlink:href="#DejaVuSans-Bold-55" transform="translate(1576.203125 0)"/>
     <use xlink:href="#DejaVuSans-Bold-48" transform="translate(1625.515625 0)"/>
     <use xlink:href="#DejaVuSans-Bold-50" transform="translate(1693.34375 0)"/>
     <use xlink:href="#DejaVuSans-Bold-48" transform="translate(1797.546875 0)"/>
     <use xlink:href="#DejaVuSans-Bold-51" transform="translate(1865.375 0)"/>
     <use xlink:href="#DejaVuSans-Bold-57" transform="translate(1936.5625 0)"/>
     <use xlink:href="#DejaVuSans-Bold-56" transform="translate(1984.359375 0)"/>
    </g>
   </g>
   <g id="text_19">
    <!--  -->
    <g style="fill: #ffffff" transform="translate(359.090244 60.593735) scale(0.16 -0.16)">
     <use xlink:href="#bootstrap-icons-499"/>
    </g>
   </g>
   <g id="patch_14">
    <path d="M 361.835122 147.936662 
C 363.626989 147.936662 365.345708 147.224745 366.612749 145.957704 
C 367.879791 144.690662 368.591707 142.971944 368.591707 141.180076 
C 368.591707 139.388209 367.879791 137.66949 366.612749 136.402449 
C 365.345708 135.135407 363.626989 134.423491 361.835122 134.423491 
C 360.043255 134.423491 358.324536 135.135407 357.057495 136.402449 
C 355.790453 137.66949 355.078537 139.388209 355.078537 141.180076 
C 355.078537 142.971944 355.790453 144.690662 357.057495 145.957704 
C 358.324536 147.224745 360.043255 147.936662 361.835122 147.936662 
z
" clip-path="url(#p9623388a57)" style="fill: #059669; stroke: #ffffff; stroke-width: 0.8; stroke-linejoin: miter"/>
   </g>
   <g id="patch_15">
    <path d="M 425.647317 147.936662 
C 427.439184 147.936662 429.157903 147.224745 430.424944 145.957704 
C 431.691986 144.690662 432.403902 142.971944 432.403902 141.180076 
C 432.403902 139.388209 431.691986 137.66949 430.424944 136.402449 
C 429.157903 135.135407 427.439184 134.423491 425.647317 134.423491 
C 423.85545 134.423491 422.136731 135.135407 420.86969 136.402449 
C 419.602648 137.66949 418.890732 139.388209 418.890732 141.180076 
C 418.890732 142.971944 419.602648 144.690662 420.86969 145.957704 
C 422.136731 147.224745 423.85545 147.936662 425.647317 147.936662 
z
" clip-path="url(#p9623388a57)" style="fill: #059669; stroke: #ffffff; stroke-width: 0.8; stroke-linejoin: miter"/>
   </g>
   <g id="patch_16">
    <path d="M 489.459512 147.936662 
C 491.25138 147.936662 492.970098 147.224745 494.23714 145.957704 
C 495.504181 144.690662 496.216098 142.971944 496.216098 141.180076 
C 496.216098 139.388209 495.504181 137.66949 494.23714 136.402449 
C 492.970098 135.135407 491.25138 134.423491 489.459512 134.423491 
C 487.667645 134.423491 485.948926 135.135407 484.681885 136.402449 
C 483.414843 137.66949 482.702927 139.388209 482.702927 141.180076 
C 482.702927 142.971944 483.414843 144.690662 484.681885 145.957704 
C 485.948926 147.224745 487.667645 147.936662 489.459512 147.936662 
z
" clip-path="url(#p9623388a57)" style="fill: #059669; stroke: #ffffff; stroke-width: 0.8; stroke-linejoin: miter"/>
   </g>
   <g id="patch_17">
    <path d="M 553.271707 147.936662 
C 555.063575 147.936662 556.782293 147.224745 558.049335 145.957704 
C 559.316376 144.690662 560.028293 142.971944 560.028293 141.180076 
C 560.028293 139.388209 559.316376 137.66949 558.049335 136.402449 
C 556.782293 135.135407 555.063575 134.423491 553.271707 134.423491 
C 551.47984 134.423491 549.761122 135.135407 548.49408 136.402449 
C 547.227038 137.66949 546.515122 139.388209 546.515122 141.180076 
C 546.515122 142.971944 547.227038 144.690662 548.49408 145.957704 
C 549.761122 147.224745 551.47984 147.936662 553.271707 147.936662 
z
" clip-path="url(#p9623388a57)" style="fill: #059669; stroke: #ffffff; stroke-width: 0.8; stroke-linejoin: miter"/>
   </g>
   <g id="patch_18">
    <path d="M 617.083902 147.936662 
C 618.87577 147.936662 620.594488 147.224745 621.86153 145.957704 
C 623.128571 144.690662 623.840488 142.971944 623.840488 141.180076 
C 623.840488 139.388209 623.128571 137.66949 621.86153 136.402449 
C 620.594488 135.135407 618.87577 134.423491 617.083902 134.423491 
C 615.292035 134.423491 613.573317 135.135407 612.306275 136.402449 
C 611.039234 137.66949 610.327317 139.388209 610.327317 141.180076 
C 610.327317 142.971944 611.039234 144.690662 612.306275 145.957704 
C 613.573317 147.224745 615.292035 147.936662 617.083902 147.936662 
z
" clip-path="url(#p9623388a57)" style="fill: #059669; stroke: #ffffff; stroke-width: 0.8; stroke-linejoin: miter"/>
   </g>
   <g id="text_20">
    <!--  -->
    <g style="fill: #ffffff" transform="translate(358.585122 144.430076) scale(0.065 -0.065)">
     <defs>
      <path id="bootstrap-icons-70f" d="M 3200 4800 
Q 3285 4800 3338 4746 
Q 3392 4693 3392 4608 
L 3392 4011 
Q 3392 3925 3338 3861 
Q 3285 3797 3200 3797 
Q 3115 3797 3061 3861 
Q 3008 3925 3008 3989 
L 3008 4608 
Q 3008 4693 3061 4746 
Q 3115 4800 3200 4800 
z
M 1493 4117 
Q 1557 4160 1632 4160 
Q 1707 4160 1771 4117 
L 2133 3733 
Q 2197 3691 2197 3605 
Q 2197 3520 2144 3456 
Q 2091 3392 2005 3392 
Q 1920 3392 1856 3456 
L 1493 3819 
Q 1429 3883 1429 3968 
Q 1429 4053 1493 4117 
z
M 811 2411 
Q 811 2475 864 2539 
Q 917 2603 1003 2603 
L 1643 2603 
Q 1707 2603 1771 2539 
Q 1835 2475 1835 2400 
Q 1835 2325 1771 2261 
Q 1707 2197 1643 2197 
L 1003 2197 
Q 917 2197 864 2261 
Q 811 2325 811 2411 
z
M 4608 2411 
Q 4608 2475 4661 2539 
Q 4715 2603 4800 2603 
L 5397 2603 
Q 5483 2603 5547 2539 
Q 5611 2475 5611 2400 
Q 5611 2325 5547 2261 
Q 5483 2197 5397 2197 
L 4800 2197 
Q 4715 2197 4661 2261 
Q 4608 2325 4608 2411 
z
M 4907 4096 
Q 4864 4139 4800 4139 
Q 4736 4139 4693 4096 
L 3029 2667 
Q 2944 2603 2912 2507 
Q 2880 2411 2901 2315 
Q 2923 2219 2997 2144 
Q 3072 2069 3178 2048 
Q 3285 2027 3381 2059 
Q 3477 2091 3541 2176 
L 4907 3883 
Q 4949 3947 4949 4000 
Q 4949 4053 4907 4096 
z
M 0 2411 
Q 0 3349 522 4149 
Q 1045 4949 1920 5333 
Q 2795 5717 3733 5557 
Q 4672 5397 5376 4746 
Q 6080 4096 6304 3168 
Q 6528 2240 6229 1344 
Q 6101 981 5749 853 
Q 5397 725 5056 832 
Q 3925 1195 3200 1195 
Q 2475 1195 1344 832 
Q 1003 725 651 853 
Q 299 981 171 1344 
Q 0 1856 0 2389 
L 0 2411 
z
M 3200 5205 
Q 2517 5205 1909 4885 
Q 1301 4565 906 4010 
Q 512 3456 426 2784 
Q 341 2112 555 1472 
Q 619 1301 811 1226 
Q 1003 1152 1237 1216 
Q 2411 1600 3200 1600 
Q 3989 1600 5163 1216 
Q 5397 1152 5589 1226 
Q 5781 1301 5845 1472 
Q 6059 2112 5973 2784 
Q 5888 3456 5493 4010 
Q 5099 4565 4491 4885 
Q 3883 5205 3200 5205 
z
" transform="scale(0.015625)"/>
     </defs>
     <use xlink:href="#bootstrap-icons-70f"/>
    </g>
   </g>
   <g id="text_21">
    <!--  -->
    <g style="fill: #ffffff" transform="translate(422.397317 144.430076) scale(0.065 -0.065)">
     <use xlink:href="#bootstrap-icons-70f"/>
    </g>
   </g>
   <g id="text_22">
    <!--  -->
    <g style="fill: #ffffff" transform="translate(486.209512 144.430076) scale(0.065 -0.065)">
     <use xlink:href="#bootstrap-icons-70f"/>
    </g>
   </g>
   <g id="text_23">
    <!--  -->
    <g style="fill: #ffffff" transform="translate(550.021707 144.430076) scale(0.065 -0.065)">
     <use xlink:href="#bootstrap-icons-70f"/>
    </g>
   </g>
   <g id="text_24">
    <!--  -->
    <g style="fill: #ffffff" transform="translate(613.833902 144.430076) scale(0.065 -0.065)">
     <use xlink:href="#bootstrap-icons-70f"/>
    </g>
   </g>
  </g>
 </g>
 <defs>
  <clipPath id="p032578ea2c">
   <rect x="7.2" y="26.318125" width="307.8" height="150.146341"/>
  </clipPath>
  <clipPath id="p9623388a57">
   <rect x="325.8" y="26.318125" width="307.8" height="150.146341"/>
  </clipPath>
 </defs>
</svg>
