<?xml version="1.0" encoding="utf-8" standalone="no"?>
<!DOCTYPE svg PUBLIC "-//W3C//DTD SVG 1.1//EN"
  "http://www.w3.org/Graphics/SVG/1.1/DTD/svg11.dtd">
<svg xmlns:xlink="http://www.w3.org/1999/xlink" width="619.2pt" height="331.2pt" viewBox="0 0 619.2 331.2" xmlns="http://www.w3.org/2000/svg" version="1.1">
 <metadata>
  <rdf:RDF xmlns:dc="http://purl.org/dc/elements/1.1/" xmlns:cc="http://creativecommons.org/ns#" xmlns:rdf="http://www.w3.org/1999/02/22-rdf-syntax-ns#">
   <cc:Work>
    <dc:type rdf:resource="http://purl.org/dc/dcmitype/StillImage"/>
    <dc:date>2026-07-09T23:55:55.533648</dc:date>
    <dc:format>image/svg+xml</dc:format>
    <dc:creator>
     <cc:Agent>
      <dc:title>Matplotlib v3.11.0, https://matplotlib.org/</dc:title>
     </cc:Agent>
    </dc:creator>
   </cc:Work>
  </rdf:RDF>
 </metadata>
 <defs>
  <style type="text/css">*{stroke-linejoin: round; stroke-linecap: butt}</style>
 </defs>
 <g id="figure_1">
  <g id="patch_1">
   <path d="M 0 331.2 
L 619.2 331.2 
L 619.2 0 
L 0 0 
z
" style="fill: #ffffff"/>
  </g>
  <g id="axes_1">
   <g id="patch_2">
    <path d="M 163.244734 218.788649 
Q 175.770872 182.608507 164.123544 148.964002 
" clip-path="url(#p111ebf503e)" style="fill: none; stroke: #ea580c; stroke-width: 2.4; stroke-linecap: round"/>
    <path d="M 163.309592 155.171858 
L 164.123544 148.964002 
L 168.601458 153.339877 
z
" clip-path="url(#p111ebf503e)" style="fill: #ea580c; stroke: #ea580c; stroke-width: 2.4; stroke-linecap: round"/>
   </g>
   <g id="patch_3">
    <path d="M 150.309936 137.708235 
C 160.985453 137.708235 171.225165 133.466808 178.773895 125.918077 
C 186.322626 118.369347 190.564053 108.129634 190.564053 97.454118 
C 190.564053 86.778601 186.322626 76.538888 178.773895 68.990158 
C 171.225165 61.441428 160.985453 57.2 150.309936 57.2 
C 139.634419 57.2 129.394707 61.441428 121.845976 68.990158 
C 114.297246 76.538888 110.055818 86.778601 110.055818 97.454118 
C 110.055818 108.129634 114.297246 118.369347 121.845976 125.918077 
C 129.394707 133.466808 139.634419 137.708235 150.309936 137.708235 
z
" clip-path="url(#p111ebf503e)" style="fill: #ffffff; stroke: #1e293b; stroke-width: 1.6; stroke-linejoin: miter"/>
   </g>
   <g id="patch_4">
    <path d="M 150.309936 301.821176 
C 159.343065 301.821176 168.007437 298.232276 174.394825 291.844889 
C 180.782212 285.457502 184.371112 276.79313 184.371112 267.76 
C 184.371112 258.72687 180.782212 250.062498 174.394825 243.675111 
C 168.007437 237.287724 159.343065 233.698824 150.309936 233.698824 
C 141.276806 233.698824 132.612434 237.287724 126.225047 243.675111 
C 119.83766 250.062498 116.248759 258.72687 116.248759 267.76 
C 116.248759 276.79313 119.83766 285.457502 126.225047 291.844889 
C 132.612434 298.232276 141.276806 301.821176 150.309936 301.821176 
z
" clip-path="url(#p111ebf503e)" style="fill: #059669; stroke: #ffffff; stroke-width: 1.6; stroke-linejoin: miter"/>
   </g>
   <g id="patch_5">
    <path d="M 224.62523 121.451765 
C 230.98948 121.451765 237.093924 118.923221 241.594129 114.423017 
C 246.094334 109.922812 248.622877 103.818368 248.622877 97.454118 
C 248.622877 91.089867 246.094334 84.985423 241.594129 80.485219 
C 237.093924 75.985014 230.98948 73.456471 224.62523 73.456471 
C 218.26098 73.456471 212.156536 75.985014 207.656331 80.485219 
C 203.156126 84.985423 200.627583 91.089867 200.627583 97.454118 
C 200.627583 103.818368 203.156126 109.922812 207.656331 114.423017 
C 212.156536 118.923221 218.26098 121.451765 224.62523 121.451765 
z
" clip-path="url(#p111ebf503e)" style="fill: #ffffff; stroke: #dc2626; stroke-width: 2.6; stroke-linejoin: miter"/>
   </g>
   <g id="text_1">
    <!--  -->
    <g style="fill: #1e293b" transform="translate(140.809936 106.954118) scale(0.19 -0.19)">
     <defs>
      <path id="bootstrap-icons-499" d="M 811 5611 
Q 469 5611 234 5376 
Q 0 5141 0 4800 
L 0 4395 
Q 0 4075 234 3840 
Q 469 3605 789 3605 
L 3008 3605 
L 3008 2411 
Q 2752 2411 2581 2229 
Q 2411 2048 2411 1792 
L 192 1792 
Q 107 1792 53 1738 
Q 0 1685 0 1600 
Q 0 1515 53 1461 
Q 107 1408 192 1408 
L 2411 1408 
Q 2411 1152 2581 981 
Q 2752 811 3008 789 
L 3392 789 
Q 3648 789 3829 970 
Q 4011 1152 3989 1408 
L 6208 1408 
Q 6293 1408 6346 1461 
Q 6400 1515 6400 1600 
Q 6400 1685 6346 1738 
Q 6293 1792 6208 1792 
L 4011 1792 
Q 3989 2048 3818 2218 
Q 3648 2389 3392 2389 
L 3392 3605 
L 5611 3605 
Q 5931 3605 6165 3840 
Q 6400 4075 6400 4395 
L 6400 4800 
Q 6400 5141 6165 5376 
Q 5931 5611 5589 5611 
L 811 5611 
z
M 1003 4395 
Q 917 4395 864 4459 
Q 811 4523 811 4608 
Q 811 4693 864 4746 
Q 917 4800 1002 4800 
Q 1088 4800 1141 4746 
Q 1195 4693 1195 4608 
Q 1195 4523 1141 4459 
Q 1088 4395 1003 4395 
z
M 1792 4395 
Q 1707 4395 1653 4459 
Q 1600 4523 1600 4608 
Q 1600 4693 1653 4746 
Q 1707 4800 1792 4800 
Q 1877 4800 1941 4746 
Q 2005 4693 2005 4608 
Q 2005 4523 1941 4459 
Q 1877 4395 1792 4395 
z
" transform="scale(0.015625)"/>
     </defs>
     <use xlink:href="#bootstrap-icons-499"/>
    </g>
   </g>
   <g id="text_2">
    <!--  -->
    <g style="fill: #ffffff" transform="translate(142.809936 275.26) scale(0.15 -0.15)">
     <defs>
      <path id="bootstrap-icons-4c8" d="M 3477 5803 
Q 3371 5909 3200 5909 
Q 3029 5909 2923 5803 
L 256 3136 
Q 192 3093 192 3008 
Q 192 2923 256 2859 
Q 320 2795 405 2795 
Q 491 2795 533 2859 
L 3200 5525 
L 5867 2859 
Q 5909 2795 5994 2795 
Q 6080 2795 6144 2859 
Q 6208 2923 6208 3008 
Q 6208 3093 6144 3136 
L 5205 4075 
L 5205 5397 
Q 5205 5483 5141 5547 
Q 5077 5611 4992 5611 
L 4608 5611 
Q 4523 5611 4459 5547 
Q 4395 5483 4395 5397 
L 4395 4885 
L 3477 5803 
z
M 3200 5077 
L 5611 2688 
L 5611 1003 
Q 5611 747 5429 576 
Q 5248 405 4992 405 
L 1408 405 
Q 1152 405 970 576 
Q 789 747 789 1003 
L 789 2688 
L 3200 5077 
z
" transform="scale(0.015625)"/>
     </defs>
     <use xlink:href="#bootstrap-icons-4c8"/>
    </g>
   </g>
   <g id="text_3">
    <!--  -->
    <g style="fill: #dc2626" transform="translate(219.12523 102.954118) scale(0.11 -0.11)">
     <defs>
      <path id="bootstrap-icons-70f" d="M 3200 4800 
Q 3285 4800 3338 4746 
Q 3392 4693 3392 4608 
L 3392 4011 
Q 3392 3925 3338 3861 
Q 3285 3797 3200 3797 
Q 3115 3797 3061 3861 
Q 3008 3925 3008 3989 
L 3008 4608 
Q 3008 4693 3061 4746 
Q 3115 4800 3200 4800 
z
M 1493 4117 
Q 1557 4160 1632 4160 
Q 1707 4160 1771 4117 
L 2133 3733 
Q 2197 3691 2197 3605 
Q 2197 3520 2144 3456 
Q 2091 3392 2005 3392 
Q 1920 3392 1856 3456 
L 1493 3819 
Q 1429 3883 1429 3968 
Q 1429 4053 1493 4117 
z
M 811 2411 
Q 811 2475 864 2539 
Q 917 2603 1003 2603 
L 1643 2603 
Q 1707 2603 1771 2539 
Q 1835 2475 1835 2400 
Q 1835 2325 1771 2261 
Q 1707 2197 1643 2197 
L 1003 2197 
Q 917 2197 864 2261 
Q 811 2325 811 2411 
z
M 4608 2411 
Q 4608 2475 4661 2539 
Q 4715 2603 4800 2603 
L 5397 2603 
Q 5483 2603 5547 2539 
Q 5611 2475 5611 2400 
Q 5611 2325 5547 2261 
Q 5483 2197 5397 2197 
L 4800 2197 
Q 4715 2197 4661 2261 
Q 4608 2325 4608 2411 
z
M 4907 4096 
Q 4864 4139 4800 4139 
Q 4736 4139 4693 4096 
L 3029 2667 
Q 2944 2603 2912 2507 
Q 2880 2411 2901 2315 
Q 2923 2219 2997 2144 
Q 3072 2069 3178 2048 
Q 3285 2027 3381 2059 
Q 3477 2091 3541 2176 
L 4907 3883 
Q 4949 3947 4949 4000 
Q 4949 4053 4907 4096 
z
M 0 2411 
Q 0 3349 522 4149 
Q 1045 4949 1920 5333 
Q 2795 5717 3733 5557 
Q 4672 5397 5376 4746 
Q 6080 4096 6304 3168 
Q 6528 2240 6229 1344 
Q 6101 981 5749 853 
Q 5397 725 5056 832 
Q 3925 1195 3200 1195 
Q 2475 1195 1344 832 
Q 1003 725 651 853 
Q 299 981 171 1344 
Q 0 1856 0 2389 
L 0 2411 
z
M 3200 5205 
Q 2517 5205 1909 4885 
Q 1301 4565 906 4010 
Q 512 3456 426 2784 
Q 341 2112 555 1472 
Q 619 1301 811 1226 
Q 1003 1152 1237 1216 
Q 2411 1600 3200 1600 
Q 3989 1600 5163 1216 
Q 5397 1152 5589 1226 
Q 5781 1301 5845 1472 
Q 6059 2112 5973 2784 
Q 5888 3456 5493 4010 
Q 5099 4565 4491 4885 
Q 3883 5205 3200 5205 
z
" transform="scale(0.015625)"/>
     </defs>
     <use xlink:href="#bootstrap-icons-70f"/>
    </g>
   </g>
   <g id="text_4">
    <!-- voltage -->
    <g style="fill: #dc2626" transform="translate(208.768003 141.061325) scale(0.075 -0.075)">
     <defs>
      <path id="DejaVuSans-Bold-59" d="M 97 3500 
L 1216 3500 
L 2088 1081 
L 2956 3500 
L 4078 3500 
L 2700 0 
L 1472 0 
L 97 3500 
z
" transform="scale(0.015625)"/>
      <path id="DejaVuSans-Bold-52" d="M 2203 2784 
Q 1831 2784 1636 2517 
Q 1441 2250 1441 1747 
Q 1441 1244 1636 976 
Q 1831 709 2203 709 
Q 2569 709 2762 976 
Q 2956 1244 2956 1747 
Q 2956 2250 2762 2517 
Q 2569 2784 2203 2784 
z
M 2203 3584 
Q 3106 3584 3614 3096 
Q 4122 2609 4122 1747 
Q 4122 884 3614 396 
Q 3106 -91 2203 -91 
Q 1297 -91 786 396 
Q 275 884 275 1747 
Q 275 2609 786 3096 
Q 1297 3584 2203 3584 
z
" transform="scale(0.015625)"/>
      <path id="DejaVuSans-Bold-4f" d="M 538 4863 
L 1656 4863 
L 1656 0 
L 538 0 
L 538 4863 
z
" transform="scale(0.015625)"/>
      <path id="DejaVuSans-Bold-57" d="M 1759 4494 
L 1759 3500 
L 2913 3500 
L 2913 2700 
L 1759 2700 
L 1759 1216 
Q 1759 972 1856 886 
Q 1953 800 2241 800 
L 2816 800 
L 2816 0 
L 1856 0 
Q 1194 0 917 276 
Q 641 553 641 1216 
L 641 2700 
L 84 2700 
L 84 3500 
L 641 3500 
L 641 4494 
L 1759 4494 
z
" transform="scale(0.015625)"/>
      <path id="DejaVuSans-Bold-44" d="M 2106 1575 
Q 1756 1575 1579 1456 
Q 1403 1338 1403 1106 
Q 1403 894 1545 773 
Q 1688 653 1941 653 
Q 2256 653 2472 879 
Q 2688 1106 2688 1447 
L 2688 1575 
L 2106 1575 
z
M 3816 1997 
L 3816 0 
L 2688 0 
L 2688 519 
Q 2463 200 2181 54 
Q 1900 -91 1497 -91 
Q 953 -91 614 226 
Q 275 544 275 1050 
Q 275 1666 698 1953 
Q 1122 2241 2028 2241 
L 2688 2241 
L 2688 2328 
Q 2688 2594 2478 2717 
Q 2269 2841 1825 2841 
Q 1466 2841 1156 2769 
Q 847 2697 581 2553 
L 581 3406 
Q 941 3494 1303 3539 
Q 1666 3584 2028 3584 
Q 2975 3584 3395 3211 
Q 3816 2838 3816 1997 
z
" transform="scale(0.015625)"/>
      <path id="DejaVuSans-Bold-4a" d="M 2919 594 
Q 2688 288 2409 144 
Q 2131 0 1766 0 
Q 1125 0 706 504 
Q 288 1009 288 1791 
Q 288 2575 706 3076 
Q 1125 3578 1766 3578 
Q 2131 3578 2409 3434 
Q 2688 3291 2919 2981 
L 2919 3500 
L 4044 3500 
L 4044 353 
Q 4044 -491 3511 -936 
Q 2978 -1381 1966 -1381 
Q 1638 -1381 1331 -1331 
Q 1025 -1281 716 -1178 
L 716 -306 
Q 1009 -475 1290 -558 
Q 1572 -641 1856 -641 
Q 2406 -641 2662 -400 
Q 2919 -159 2919 353 
L 2919 594 
z
M 2181 2772 
Q 1834 2772 1640 2515 
Q 1447 2259 1447 1791 
Q 1447 1309 1634 1061 
Q 1822 813 2181 813 
Q 2531 813 2725 1069 
Q 2919 1325 2919 1791 
Q 2919 2259 2725 2515 
Q 2531 2772 2181 2772 
z
" transform="scale(0.015625)"/>
      <path id="DejaVuSans-Bold-48" d="M 4031 1759 
L 4031 1441 
L 1416 1441 
Q 1456 1047 1700 850 
Q 1944 653 2381 653 
Q 2734 653 3104 758 
Q 3475 863 3866 1075 
L 3866 213 
Q 3469 63 3072 -14 
Q 2675 -91 2278 -91 
Q 1328 -91 801 392 
Q 275 875 275 1747 
Q 275 2603 792 3093 
Q 1309 3584 2216 3584 
Q 3041 3584 3536 3087 
Q 4031 2591 4031 1759 
z
M 2881 2131 
Q 2881 2450 2695 2645 
Q 2509 2841 2209 2841 
Q 1884 2841 1681 2658 
Q 1478 2475 1428 2131 
L 2881 2131 
z
" transform="scale(0.015625)"/>
     </defs>
     <use xlink:href="#DejaVuSans-Bold-59"/>
     <use xlink:href="#DejaVuSans-Bold-52" transform="translate(65.1875 0)"/>
     <use xlink:href="#DejaVuSans-Bold-4f" transform="translate(133.890625 0)"/>
     <use xlink:href="#DejaVuSans-Bold-57" transform="translate(168.171875 0)"/>
     <use xlink:href="#DejaVuSans-Bold-44" transform="translate(215.96875 0)"/>
     <use xlink:href="#DejaVuSans-Bold-4a" transform="translate(283.453125 0)"/>
     <use xlink:href="#DejaVuSans-Bold-48" transform="translate(355.03125 0)"/>
    </g>
    <!-- binds first -->
    <g style="fill: #dc2626" transform="translate(203.111363 150.063376) scale(0.075 -0.075)">
     <defs>
      <path id="DejaVuSans-Bold-45" d="M 2400 722 
Q 2759 722 2948 984 
Q 3138 1247 3138 1747 
Q 3138 2247 2948 2509 
Q 2759 2772 2400 2772 
Q 2041 2772 1848 2508 
Q 1656 2244 1656 1747 
Q 1656 1250 1848 986 
Q 2041 722 2400 722 
z
M 1656 2988 
Q 1888 3294 2169 3439 
Q 2450 3584 2816 3584 
Q 3463 3584 3878 3070 
Q 4294 2556 4294 1747 
Q 4294 938 3878 423 
Q 3463 -91 2816 -91 
Q 2450 -91 2169 54 
Q 1888 200 1656 506 
L 1656 0 
L 538 0 
L 538 4863 
L 1656 4863 
L 1656 2988 
z
" transform="scale(0.015625)"/>
      <path id="DejaVuSans-Bold-4c" d="M 538 3500 
L 1656 3500 
L 1656 0 
L 538 0 
L 538 3500 
z
M 538 4863 
L 1656 4863 
L 1656 3950 
L 538 3950 
L 538 4863 
z
" transform="scale(0.015625)"/>
      <path id="DejaVuSans-Bold-51" d="M 4056 2131 
L 4056 0 
L 2931 0 
L 2931 347 
L 2931 1631 
Q 2931 2084 2911 2256 
Q 2891 2428 2841 2509 
Q 2775 2619 2662 2680 
Q 2550 2741 2406 2741 
Q 2056 2741 1856 2470 
Q 1656 2200 1656 1722 
L 1656 0 
L 538 0 
L 538 3500 
L 1656 3500 
L 1656 2988 
Q 1909 3294 2193 3439 
Q 2478 3584 2822 3584 
Q 3428 3584 3742 3212 
Q 4056 2841 4056 2131 
z
" transform="scale(0.015625)"/>
      <path id="DejaVuSans-Bold-47" d="M 2919 2988 
L 2919 4863 
L 4044 4863 
L 4044 0 
L 2919 0 
L 2919 506 
Q 2688 197 2409 53 
Q 2131 -91 1766 -91 
Q 1119 -91 703 423 
Q 288 938 288 1747 
Q 288 2556 703 3070 
Q 1119 3584 1766 3584 
Q 2128 3584 2408 3439 
Q 2688 3294 2919 2988 
z
M 2181 722 
Q 2541 722 2730 984 
Q 2919 1247 2919 1747 
Q 2919 2247 2730 2509 
Q 2541 2772 2181 2772 
Q 1825 2772 1636 2509 
Q 1447 2247 1447 1747 
Q 1447 1247 1636 984 
Q 1825 722 2181 722 
z
" transform="scale(0.015625)"/>
      <path id="DejaVuSans-Bold-56" d="M 3272 3391 
L 3272 2541 
Q 2913 2691 2578 2766 
Q 2244 2841 1947 2841 
Q 1628 2841 1473 2761 
Q 1319 2681 1319 2516 
Q 1319 2381 1436 2309 
Q 1553 2238 1856 2203 
L 2053 2175 
Q 2913 2066 3209 1816 
Q 3506 1566 3506 1031 
Q 3506 472 3093 190 
Q 2681 -91 1863 -91 
Q 1516 -91 1145 -36 
Q 775 19 384 128 
L 384 978 
Q 719 816 1070 734 
Q 1422 653 1784 653 
Q 2113 653 2278 743 
Q 2444 834 2444 1013 
Q 2444 1163 2330 1236 
Q 2216 1309 1875 1350 
L 1678 1375 
Q 931 1469 631 1722 
Q 331 1975 331 2491 
Q 331 3047 712 3315 
Q 1094 3584 1881 3584 
Q 2191 3584 2531 3537 
Q 2872 3491 3272 3391 
z
" transform="scale(0.015625)"/>
      <path id="DejaVuSans-Bold-3" transform="scale(0.015625)"/>
      <path id="DejaVuSans-Bold-13ab" d="M 3078 4863 
L 4206 4863 
L 4206 3950 
L 3078 3950 
L 3078 4863 
z
M 2847 4863 
L 2847 4128 
L 2228 4128 
Q 1994 4128 1903 4042 
Q 1813 3956 1813 3744 
L 1813 3500 
L 4206 3500 
L 4206 0 
L 3078 0 
L 3078 2700 
L 1813 2700 
L 1813 0 
L 684 0 
L 684 2700 
L 134 2700 
L 134 3500 
L 684 3500 
L 684 3744 
Q 684 4316 1003 4589 
Q 1322 4863 1991 4863 
L 2847 4863 
z
" transform="scale(0.015625)"/>
      <path id="DejaVuSans-Bold-55" d="M 3138 2547 
Q 2991 2616 2845 2648 
Q 2700 2681 2553 2681 
Q 2122 2681 1889 2404 
Q 1656 2128 1656 1613 
L 1656 0 
L 538 0 
L 538 3500 
L 1656 3500 
L 1656 2925 
Q 1872 3269 2151 3426 
Q 2431 3584 2822 3584 
Q 2878 3584 2943 3579 
Q 3009 3575 3134 3559 
L 3138 2547 
z
" transform="scale(0.015625)"/>
     </defs>
     <use xlink:href="#DejaVuSans-Bold-45"/>
     <use xlink:href="#DejaVuSans-Bold-4c" transform="translate(71.578125 0)"/>
     <use xlink:href="#DejaVuSans-Bold-51" transform="translate(105.859375 0)"/>
     <use xlink:href="#DejaVuSans-Bold-47" transform="translate(177.046875 0)"/>
     <use xlink:href="#DejaVuSans-Bold-56" transform="translate(248.625 0)"/>
     <use xlink:href="#DejaVuSans-Bold-3" transform="translate(308.140625 0)"/>
     <use xlink:href="#DejaVuSans-Bold-13ab" transform="translate(342.953125 0)"/>
     <use xlink:href="#DejaVuSans-Bold-55" transform="translate(417.078125 0)"/>
     <use xlink:href="#DejaVuSans-Bold-56" transform="translate(466.390625 0)"/>
     <use xlink:href="#DejaVuSans-Bold-57" transform="translate(525.90625 0)"/>
    </g>
   </g>
   <g id="text_5">
    <!-- PV, midday -->
    <g style="fill: #1e293b" transform="translate(130.018167 20.88) scale(0.13 -0.13)">
     <defs>
      <path id="DejaVuSans-Bold-33" d="M 588 4666 
L 2584 4666 
Q 3475 4666 3951 4270 
Q 4428 3875 4428 3144 
Q 4428 2409 3951 2014 
Q 3475 1619 2584 1619 
L 1791 1619 
L 1791 0 
L 588 0 
L 588 4666 
z
M 1791 3794 
L 1791 2491 
L 2456 2491 
Q 2806 2491 2997 2661 
Q 3188 2831 3188 3144 
Q 3188 3456 2997 3625 
Q 2806 3794 2456 3794 
L 1791 3794 
z
" transform="scale(0.015625)"/>
      <path id="DejaVuSans-Bold-39" d="M 31 4666 
L 1241 4666 
L 2478 1222 
L 3713 4666 
L 4922 4666 
L 3194 0 
L 1759 0 
L 31 4666 
z
" transform="scale(0.015625)"/>
      <path id="DejaVuSans-Bold-f" d="M 653 1209 
L 1778 1209 
L 1778 256 
L 1006 -909 
L 341 -909 
L 653 256 
L 653 1209 
z
" transform="scale(0.015625)"/>
      <path id="DejaVuSans-Bold-50" d="M 3781 2919 
Q 3994 3244 4286 3414 
Q 4578 3584 4928 3584 
Q 5531 3584 5847 3212 
Q 6163 2841 6163 2131 
L 6163 0 
L 5038 0 
L 5038 1825 
Q 5041 1866 5042 1909 
Q 5044 1953 5044 2034 
Q 5044 2406 4934 2573 
Q 4825 2741 4581 2741 
Q 4263 2741 4089 2478 
Q 3916 2216 3909 1719 
L 3909 0 
L 2784 0 
L 2784 1825 
Q 2784 2406 2684 2573 
Q 2584 2741 2328 2741 
Q 2006 2741 1831 2477 
Q 1656 2213 1656 1722 
L 1656 0 
L 531 0 
L 531 3500 
L 1656 3500 
L 1656 2988 
Q 1863 3284 2130 3434 
Q 2397 3584 2719 3584 
Q 3081 3584 3359 3409 
Q 3638 3234 3781 2919 
z
" transform="scale(0.015625)"/>
      <path id="DejaVuSans-Bold-5c" d="M 78 3500 
L 1197 3500 
L 2138 1125 
L 2938 3500 
L 4056 3500 
L 2584 -331 
Q 2363 -916 2067 -1148 
Q 1772 -1381 1288 -1381 
L 641 -1381 
L 641 -647 
L 991 -647 
Q 1275 -647 1404 -556 
Q 1534 -466 1606 -231 
L 1638 -134 
L 78 3500 
z
" transform="scale(0.015625)"/>
     </defs>
     <use xlink:href="#DejaVuSans-Bold-33"/>
     <use xlink:href="#DejaVuSans-Bold-39" transform="translate(73.296875 0)"/>
     <use xlink:href="#DejaVuSans-Bold-f" transform="translate(137.796875 0)"/>
     <use xlink:href="#DejaVuSans-Bold-3" transform="translate(175.78125 0)"/>
     <use xlink:href="#DejaVuSans-Bold-50" transform="translate(210.59375 0)"/>
     <use xlink:href="#DejaVuSans-Bold-4c" transform="translate(314.796875 0)"/>
     <use xlink:href="#DejaVuSans-Bold-47" transform="translate(349.078125 0)"/>
     <use xlink:href="#DejaVuSans-Bold-47" transform="translate(420.65625 0)"/>
     <use xlink:href="#DejaVuSans-Bold-44" transform="translate(492.234375 0)"/>
     <use xlink:href="#DejaVuSans-Bold-5c" transform="translate(556.640625 0)"/>
    </g>
   </g>
   <g id="patch_6">
    <path d="M 184.371112 262.341176 
C 189.914169 262.341176 195.230943 260.138897 199.150476 256.219364 
C 203.070009 252.299831 205.272289 246.983057 205.272289 241.44 
C 205.272289 235.896943 203.070009 230.580169 199.150476 226.660636 
C 195.230943 222.741103 189.914169 220.538824 184.371112 220.538824 
C 178.828056 220.538824 173.511282 222.741103 169.591749 226.660636 
C 165.672216 230.580169 163.469936 235.896943 163.469936 241.44 
C 163.469936 246.983057 165.672216 252.299831 169.591749 256.219364 
C 173.511282 260.138897 178.828056 262.341176 184.371112 262.341176 
z
" clip-path="url(#p111ebf503e)" style="fill: #ea580c; stroke: #ffffff; stroke-linejoin: miter"/>
   </g>
   <g id="text_6">
    <!--  -->
    <g style="fill: #ffffff" transform="translate(178.871112 246.94) scale(0.11 -0.11)">
     <defs>
      <path id="bootstrap-icons-73c" d="M 3200 1600 
Q 3627 1600 4000 1813 
Q 4373 2027 4586 2400 
Q 4800 2773 4800 3200 
Q 4800 3627 4586 4000 
Q 4373 4373 4000 4586 
Q 3627 4800 3200 4800 
Q 2773 4800 2400 4586 
Q 2027 4373 1813 4000 
Q 1600 3627 1600 3200 
Q 1600 2773 1813 2400 
Q 2027 2027 2400 1813 
Q 2773 1600 3200 1600 
z
M 3200 6400 
Q 3285 6400 3338 6346 
Q 3392 6293 3392 6208 
L 3392 5397 
Q 3392 5312 3338 5258 
Q 3285 5205 3200 5205 
Q 3115 5205 3061 5258 
Q 3008 5312 3008 5397 
L 3008 6208 
Q 3008 6293 3061 6346 
Q 3115 6400 3200 6400 
z
M 3200 1195 
Q 3285 1195 3338 1141 
Q 3392 1088 3392 1003 
L 3392 192 
Q 3392 107 3338 53 
Q 3285 0 3200 0 
Q 3115 0 3061 53 
Q 3008 107 3008 192 
L 3008 1003 
Q 3008 1088 3061 1141 
Q 3115 1195 3200 1195 
z
M 6400 3200 
Q 6400 3115 6346 3061 
Q 6293 3008 6208 3008 
L 5397 3008 
Q 5312 3008 5258 3061 
Q 5205 3115 5205 3200 
Q 5205 3285 5258 3338 
Q 5312 3392 5397 3392 
L 6208 3392 
Q 6293 3392 6346 3338 
Q 6400 3285 6400 3200 
z
M 1195 3200 
Q 1195 3115 1141 3061 
Q 1088 3008 1003 3008 
L 192 3008 
Q 107 3008 53 3061 
Q 0 3115 0 3200 
Q 0 3285 53 3338 
Q 107 3392 192 3392 
L 1003 3392 
Q 1088 3392 1141 3338 
Q 1195 3285 1195 3200 
z
M 5461 5461 
Q 5525 5397 5525 5322 
Q 5525 5248 5461 5184 
L 4907 4608 
Q 4843 4565 4757 4565 
Q 4672 4565 4618 4618 
Q 4565 4672 4565 4757 
Q 4565 4843 4608 4907 
L 5184 5461 
Q 5248 5525 5322 5525 
Q 5397 5525 5461 5461 
z
M 1792 1792 
Q 1835 1728 1835 1642 
Q 1835 1557 1792 1493 
L 1216 939 
Q 1152 875 1077 875 
Q 1003 875 939 939 
Q 875 1003 875 1077 
Q 875 1152 939 1216 
L 1493 1792 
Q 1557 1835 1642 1835 
Q 1728 1835 1792 1792 
z
M 5461 939 
Q 5397 875 5322 875 
Q 5248 875 5184 939 
L 4608 1493 
Q 4565 1557 4565 1642 
Q 4565 1728 4618 1781 
Q 4672 1835 4757 1835 
Q 4843 1835 4907 1792 
L 5461 1216 
Q 5525 1152 5525 1077 
Q 5525 1003 5461 939 
z
M 1792 4608 
Q 1728 4565 1642 4565 
Q 1557 4565 1493 4608 
L 939 5184 
Q 853 5269 885 5376 
Q 917 5483 1024 5515 
Q 1131 5547 1216 5461 
L 1792 4907 
Q 1835 4843 1835 4757 
Q 1835 4672 1792 4608 
z
" transform="scale(0.015625)"/>
     </defs>
     <use xlink:href="#bootstrap-icons-73c"/>
    </g>
   </g>
  </g>
  <g id="axes_2">
   <g id="patch_7">
    <path d="M 441.570745 146.425469 
Q 454.096882 182.605611 442.449555 216.250116 
" clip-path="url(#p1e791d605f)" style="fill: none; stroke: #0369a1; stroke-width: 2.4; stroke-linecap: round"/>
    <path d="M 446.927469 211.874241 
L 442.449555 216.250116 
L 441.635603 210.042259 
z
" clip-path="url(#p1e791d605f)" style="fill: #0369a1; stroke: #0369a1; stroke-width: 2.4; stroke-linecap: round"/>
   </g>
   <g id="patch_8">
    <path d="M 428.635947 137.708235 
C 439.311463 137.708235 449.551176 133.466808 457.099906 125.918077 
C 464.648636 118.369347 468.890064 108.129634 468.890064 97.454118 
C 468.890064 86.778601 464.648636 76.538888 457.099906 68.990158 
C 449.551176 61.441428 439.311463 57.2 428.635947 57.2 
C 417.96043 57.2 407.720717 61.441428 400.171987 68.990158 
C 392.623257 76.538888 388.381829 86.778601 388.381829 97.454118 
C 388.381829 108.129634 392.623257 118.369347 400.171987 125.918077 
C 407.720717 133.466808 417.96043 137.708235 428.635947 137.708235 
z
" clip-path="url(#p1e791d605f)" style="fill: #ffffff; stroke: #1e293b; stroke-width: 1.6; stroke-linejoin: miter"/>
   </g>
   <g id="patch_9">
    <path d="M 428.635947 301.821176 
C 437.669076 301.821176 446.333448 298.232276 452.720835 291.844889 
C 459.108223 285.457502 462.697123 276.79313 462.697123 267.76 
C 462.697123 258.72687 459.108223 250.062498 452.720835 243.675111 
C 446.333448 237.287724 437.669076 233.698824 428.635947 233.698824 
C 419.602817 233.698824 410.938445 237.287724 404.551058 243.675111 
C 398.16367 250.062498 394.57477 258.72687 394.57477 267.76 
C 394.57477 276.79313 398.16367 285.457502 404.551058 291.844889 
C 410.938445 298.232276 419.602817 301.821176 428.635947 301.821176 
z
" clip-path="url(#p1e791d605f)" style="fill: #059669; stroke: #ffffff; stroke-width: 1.6; stroke-linejoin: miter"/>
   </g>
   <g id="patch_10">
    <path d="M 502.951241 121.451765 
C 509.315491 121.451765 515.419935 118.923221 519.92014 114.423017 
C 524.420344 109.922812 526.948888 103.818368 526.948888 97.454118 
C 526.948888 91.089867 524.420344 84.985423 519.92014 80.485219 
C 515.419935 75.985014 509.315491 73.456471 502.951241 73.456471 
C 496.58699 73.456471 490.482546 75.985014 485.982342 80.485219 
C 481.482137 84.985423 478.953594 91.089867 478.953594 97.454118 
C 478.953594 103.818368 481.482137 109.922812 485.982342 114.423017 
C 490.482546 118.923221 496.58699 121.451765 502.951241 121.451765 
z
" clip-path="url(#p1e791d605f)" style="fill: #ffffff; stroke: #dc2626; stroke-width: 2.6; stroke-linejoin: miter"/>
   </g>
   <g id="text_7">
    <!--  -->
    <g style="fill: #1e293b" transform="translate(419.135947 106.954118) scale(0.19 -0.19)">
     <use xlink:href="#bootstrap-icons-499"/>
    </g>
   </g>
   <g id="text_8">
    <!--  -->
    <g style="fill: #ffffff" transform="translate(421.135947 275.26) scale(0.15 -0.15)">
     <use xlink:href="#bootstrap-icons-4c8"/>
    </g>
   </g>
   <g id="text_9">
    <!--  -->
    <g style="fill: #dc2626" transform="translate(497.451241 102.954118) scale(0.11 -0.11)">
     <use xlink:href="#bootstrap-icons-70f"/>
    </g>
   </g>
   <g id="text_10">
    <!-- thermal -->
    <g style="fill: #dc2626" transform="translate(486.372725 141.061325) scale(0.075 -0.075)">
     <defs>
      <path id="DejaVuSans-Bold-4b" d="M 4056 2131 
L 4056 0 
L 2931 0 
L 2931 347 
L 2931 1625 
Q 2931 2084 2911 2256 
Q 2891 2428 2841 2509 
Q 2775 2619 2662 2680 
Q 2550 2741 2406 2741 
Q 2056 2741 1856 2470 
Q 1656 2200 1656 1722 
L 1656 0 
L 538 0 
L 538 4863 
L 1656 4863 
L 1656 2988 
Q 1909 3294 2193 3439 
Q 2478 3584 2822 3584 
Q 3428 3584 3742 3212 
Q 4056 2841 4056 2131 
z
" transform="scale(0.015625)"/>
     </defs>
     <use xlink:href="#DejaVuSans-Bold-57"/>
     <use xlink:href="#DejaVuSans-Bold-4b" transform="translate(47.796875 0)"/>
     <use xlink:href="#DejaVuSans-Bold-48" transform="translate(118.984375 0)"/>
     <use xlink:href="#DejaVuSans-Bold-55" transform="translate(186.8125 0)"/>
     <use xlink:href="#DejaVuSans-Bold-50" transform="translate(236.125 0)"/>
     <use xlink:href="#DejaVuSans-Bold-44" transform="translate(340.328125 0)"/>
     <use xlink:href="#DejaVuSans-Bold-4f" transform="translate(407.8125 0)"/>
    </g>
    <!-- binds first -->
    <g style="fill: #dc2626" transform="translate(481.437373 150.063376) scale(0.075 -0.075)">
     <use xlink:href="#DejaVuSans-Bold-45"/>
     <use xlink:href="#DejaVuSans-Bold-4c" transform="translate(71.578125 0)"/>
     <use xlink:href="#DejaVuSans-Bold-51" transform="translate(105.859375 0)"/>
     <use xlink:href="#DejaVuSans-Bold-47" transform="translate(177.046875 0)"/>
     <use xlink:href="#DejaVuSans-Bold-56" transform="translate(248.625 0)"/>
     <use xlink:href="#DejaVuSans-Bold-3" transform="translate(308.140625 0)"/>
     <use xlink:href="#DejaVuSans-Bold-13ab" transform="translate(342.953125 0)"/>
     <use xlink:href="#DejaVuSans-Bold-55" transform="translate(417.078125 0)"/>
     <use xlink:href="#DejaVuSans-Bold-56" transform="translate(466.390625 0)"/>
     <use xlink:href="#DejaVuSans-Bold-57" transform="translate(525.90625 0)"/>
    </g>
   </g>
   <g id="text_11">
    <!-- EV, evening -->
    <g style="fill: #1e293b" transform="translate(406.208318 20.88) scale(0.13 -0.13)">
     <defs>
      <path id="DejaVuSans-Bold-28" d="M 588 4666 
L 3834 4666 
L 3834 3756 
L 1791 3756 
L 1791 2888 
L 3713 2888 
L 3713 1978 
L 1791 1978 
L 1791 909 
L 3903 909 
L 3903 0 
L 588 0 
L 588 4666 
z
" transform="scale(0.015625)"/>
     </defs>
     <use xlink:href="#DejaVuSans-Bold-28"/>
     <use xlink:href="#DejaVuSans-Bold-39" transform="translate(68.3125 0)"/>
     <use xlink:href="#DejaVuSans-Bold-f" transform="translate(132.8125 0)"/>
     <use xlink:href="#DejaVuSans-Bold-3" transform="translate(170.796875 0)"/>
     <use xlink:href="#DejaVuSans-Bold-48" transform="translate(205.609375 0)"/>
     <use xlink:href="#DejaVuSans-Bold-59" transform="translate(273.4375 0)"/>
     <use xlink:href="#DejaVuSans-Bold-48" transform="translate(338.625 0)"/>
     <use xlink:href="#DejaVuSans-Bold-51" transform="translate(406.453125 0)"/>
     <use xlink:href="#DejaVuSans-Bold-4c" transform="translate(477.640625 0)"/>
     <use xlink:href="#DejaVuSans-Bold-51" transform="translate(511.921875 0)"/>
     <use xlink:href="#DejaVuSans-Bold-4a" transform="translate(583.109375 0)"/>
    </g>
   </g>
   <g id="patch_11">
    <path d="M 462.697123 262.341176 
C 468.24018 262.341176 473.556954 260.138897 477.476487 256.219364 
C 481.39602 252.299831 483.598299 246.983057 483.598299 241.44 
C 483.598299 235.896943 481.39602 230.580169 477.476487 226.660636 
C 473.556954 222.741103 468.24018 220.538824 462.697123 220.538824 
C 457.154066 220.538824 451.837292 222.741103 447.917759 226.660636 
C 443.998226 230.580169 441.795947 235.896943 441.795947 241.44 
C 441.795947 246.983057 443.998226 252.299831 447.917759 256.219364 
C 451.837292 260.138897 457.154066 262.341176 462.697123 262.341176 
z
" clip-path="url(#p1e791d605f)" style="fill: #0369a1; stroke: #ffffff; stroke-linejoin: miter"/>
   </g>
   <g id="text_12">
    <!--  -->
    <g style="fill: #ffffff" transform="translate(457.197123 246.94) scale(0.11 -0.11)">
     <defs>
      <path id="bootstrap-icons-353" d="M 1003 4992 
Q 1131 5269 1376 5440 
Q 1621 5611 1920 5611 
L 4480 5611 
Q 4779 5611 5024 5440 
Q 5269 5269 5397 4992 
L 5717 4245 
Q 5760 4139 5867 4096 
Q 6016 4011 6112 3883 
Q 6208 3755 6251 3584 
L 6379 2923 
Q 6400 2816 6400 2731 
L 6400 2560 
Q 6400 2325 6293 2112 
Q 6187 1899 5995 1749 
L 5995 1003 
Q 5995 917 5941 864 
Q 5888 811 5803 811 
L 4992 811 
Q 4928 811 4864 864 
Q 4800 917 4800 1003 
L 4800 1536 
Q 3861 1493 3200 1493 
Q 2539 1493 1600 1536 
L 1600 1003 
Q 1600 917 1546 853 
Q 1493 789 1408 811 
L 597 811 
Q 512 811 458 864 
Q 405 917 405 1003 
L 405 1749 
Q 213 1899 106 2112 
Q 0 2325 0 2560 
L 0 2731 
Q 0 2816 21 2923 
L 149 3584 
Q 192 3755 288 3883 
Q 384 4011 533 4096 
Q 640 4139 683 4245 
L 1003 4992 
z
M 3712 4800 
Q 3648 4821 3627 4779 
L 2411 3499 
Q 2389 3456 2410 3413 
Q 2432 3371 2475 3371 
L 2965 3371 
L 2709 2496 
Q 2688 2432 2741 2410 
Q 2795 2389 2837 2432 
L 3989 3691 
Q 4011 3733 3989 3776 
Q 3968 3819 3925 3819 
L 3435 3819 
L 3733 4693 
Q 3755 4757 3712 4800 
z
" transform="scale(0.015625)"/>
     </defs>
     <use xlink:href="#bootstrap-icons-353"/>
    </g>
   </g>
  </g>
 </g>
 <defs>
  <clipPath id="p111ebf503e">
   <rect x="75.994642" y="30.88" width="188.884706" height="289.52"/>
  </clipPath>
  <clipPath id="p1e791d605f">
   <rect x="354.320652" y="30.88" width="188.884706" height="289.52"/>
  </clipPath>
 </defs>
</svg>
