<?xml version="1.0" encoding="utf-8" standalone="no"?>
<!DOCTYPE svg PUBLIC "-//W3C//DTD SVG 1.1//EN"
  "http://www.w3.org/Graphics/SVG/1.1/DTD/svg11.dtd">
<svg xmlns:xlink="http://www.w3.org/1999/xlink" width="733.68pt" height="374.4pt" viewBox="0 0 733.68 374.4" xmlns="http://www.w3.org/2000/svg" version="1.1">
 <metadata>
  <rdf:RDF xmlns:dc="http://purl.org/dc/elements/1.1/" xmlns:cc="http://creativecommons.org/ns#" xmlns:rdf="http://www.w3.org/1999/02/22-rdf-syntax-ns#">
   <cc:Work>
    <dc:type rdf:resource="http://purl.org/dc/dcmitype/StillImage"/>
    <dc:date>2026-07-23T17:46:09.624455</dc:date>
    <dc:format>image/svg+xml</dc:format>
    <dc:creator>
     <cc:Agent>
      <dc:title>Matplotlib v3.11.0, https://matplotlib.org/</dc:title>
     </cc:Agent>
    </dc:creator>
   </cc:Work>
  </rdf:RDF>
 </metadata>
 <defs>
  <style type="text/css">*{stroke-linejoin: round; stroke-linecap: butt}</style>
 </defs>
 <g id="figure_1">
  <g id="patch_1">
   <path d="M 0 374.4 
L 733.68 374.4 
L 733.68 0 
L 0 0 
z
" style="fill: #ffffff"/>
  </g>
  <g id="axes_1">
   <g id="patch_2">
    <path d="M 120.152136 84.38522 
L 246.144814 84.38522 
Q 249.710644 84.38522 249.710644 80.81939 
L 249.710644 49.915525 
Q 249.710644 46.349695 246.144814 46.349695 
L 120.152136 46.349695 
Q 116.586305 46.349695 116.586305 49.915525 
L 116.586305 80.81939 
Q 116.586305 84.38522 120.152136 84.38522 
z
" clip-path="url(#pddcde8de9d)" style="fill: #1e293b; stroke: #1e293b; stroke-width: 1.6; stroke-linejoin: miter"/>
   </g>
   <g id="patch_3">
    <path d="M 45.864 161.644881 
L 159.970576 161.644881 
Q 163.536407 161.644881 163.536407 158.079051 
L 163.536407 127.175186 
Q 163.536407 123.609356 159.970576 123.609356 
L 45.864 123.609356 
Q 42.298169 123.609356 42.298169 127.175186 
L 42.298169 158.079051 
Q 42.298169 161.644881 45.864 161.644881 
z
" clip-path="url(#pddcde8de9d)" style="fill: #0369a1; stroke: #0369a1; stroke-width: 1.6; stroke-linejoin: miter"/>
   </g>
   <g id="patch_4">
    <path d="M 206.326373 161.644881 
L 320.432949 161.644881 
Q 323.99878 161.644881 323.99878 158.079051 
L 323.99878 127.175186 
Q 323.99878 123.609356 320.432949 123.609356 
L 206.326373 123.609356 
Q 202.760542 123.609356 202.760542 127.175186 
L 202.760542 158.079051 
Q 202.760542 161.644881 206.326373 161.644881 
z
" clip-path="url(#pddcde8de9d)" style="fill: #0369a1; stroke: #0369a1; stroke-width: 1.6; stroke-linejoin: miter"/>
   </g>
   <g id="patch_5">
    <path d="M 157.766997 84.382391 
Q 131.147279 103.99692 105.877681 122.616624 
" clip-path="url(#pddcde8de9d)" style="fill: none; stroke: #1e293b; stroke-width: 1.5; stroke-linecap: round"/>
    <path d="M 111.606289 121.625134 
L 105.877681 122.616624 
L 108.521654 117.438844 
z
" clip-path="url(#pddcde8de9d)" style="fill: #1e293b; stroke: #1e293b; stroke-width: 1.5; stroke-linecap: round"/>
   </g>
   <g id="patch_6">
    <path d="M 208.529952 84.382391 
Q 235.14967 103.99692 260.419269 122.616624 
" clip-path="url(#pddcde8de9d)" style="fill: none; stroke: #1e293b; stroke-width: 1.5; stroke-linecap: round"/>
    <path d="M 257.775296 117.438844 
L 260.419269 122.616624 
L 254.690661 121.625134 
z
" clip-path="url(#pddcde8de9d)" style="fill: #1e293b; stroke: #1e293b; stroke-width: 1.5; stroke-linecap: round"/>
   </g>
   <g id="patch_7">
    <path d="M 45.864 238.904542 
L 159.970576 238.904542 
Q 163.536407 238.904542 163.536407 235.338712 
L 163.536407 204.434847 
Q 163.536407 200.869017 159.970576 200.869017 
L 45.864 200.869017 
Q 42.298169 200.869017 42.298169 204.434847 
L 42.298169 235.338712 
Q 42.298169 238.904542 45.864 238.904542 
z
" clip-path="url(#pddcde8de9d)" style="fill: #059669; stroke: #059669; stroke-width: 1.6; stroke-linejoin: miter"/>
   </g>
   <g id="patch_8">
    <path d="M 102.917288 162.454579 
Q 102.917288 181.257808 102.917288 198.383987 
" clip-path="url(#pddcde8de9d)" style="fill: none; stroke: #0369a1; stroke-width: 1.5; stroke-linecap: round"/>
    <path d="M 105.517288 193.183987 
L 102.917288 198.383987 
L 100.317288 193.183987 
z
" clip-path="url(#pddcde8de9d)" style="fill: #0369a1; stroke: #0369a1; stroke-width: 1.5; stroke-linecap: round"/>
   </g>
   <g id="patch_9">
    <path d="M 164.071332 218.872935 
Q 212.863277 190.171791 260.209714 162.320946 
" clip-path="url(#pddcde8de9d)" style="fill: none; stroke: #059669; stroke-width: 1.5; stroke-linecap: round"/>
    <path d="M 254.409403 162.716422 
L 260.209714 162.320946 
L 257.045908 167.19848 
z
" clip-path="url(#pddcde8de9d)" style="fill: #059669; stroke: #059669; stroke-width: 1.5; stroke-linecap: round"/>
   </g>
   <g id="patch_10">
    <path d="M 263.379661 162.454397 
Q 263.379661 194.629676 263.379661 225.127903 
" clip-path="url(#pddcde8de9d)" style="fill: none; stroke: #6b7280; stroke-width: 1.5; stroke-linecap: round"/>
    <path d="M 265.979661 219.927903 
L 263.379661 225.127903 
L 260.779661 219.927903 
z
" clip-path="url(#pddcde8de9d)" style="fill: #6b7280; stroke: #6b7280; stroke-width: 1.5; stroke-linecap: round"/>
   </g>
   <g id="text_1">
    <!-- Full data -->
    <g style="fill: #ffffff" transform="translate(162.720748 67.523837) scale(0.083 -0.083)">
     <defs>
      <path id="DejaVuSans-Bold-29" d="M 588 4666 
L 3834 4666 
L 3834 3756 
L 1791 3756 
L 1791 2888 
L 3713 2888 
L 3713 1978 
L 1791 1978 
L 1791 0 
L 588 0 
L 588 4666 
z
" transform="scale(0.015625)"/>
      <path id="DejaVuSans-Bold-58" d="M 500 1363 
L 500 3500 
L 1625 3500 
L 1625 3150 
Q 1625 2866 1622 2436 
Q 1619 2006 1619 1863 
Q 1619 1441 1641 1255 
Q 1663 1069 1716 984 
Q 1784 875 1895 815 
Q 2006 756 2150 756 
Q 2500 756 2700 1025 
Q 2900 1294 2900 1772 
L 2900 3500 
L 4019 3500 
L 4019 0 
L 2900 0 
L 2900 506 
Q 2647 200 2364 54 
Q 2081 -91 1741 -91 
Q 1134 -91 817 281 
Q 500 653 500 1363 
z
" transform="scale(0.015625)"/>
      <path id="DejaVuSans-Bold-4f" d="M 538 4863 
L 1656 4863 
L 1656 0 
L 538 0 
L 538 4863 
z
" transform="scale(0.015625)"/>
      <path id="DejaVuSans-Bold-3" transform="scale(0.015625)"/>
      <path id="DejaVuSans-Bold-47" d="M 2919 2988 
L 2919 4863 
L 4044 4863 
L 4044 0 
L 2919 0 
L 2919 506 
Q 2688 197 2409 53 
Q 2131 -91 1766 -91 
Q 1119 -91 703 423 
Q 288 938 288 1747 
Q 288 2556 703 3070 
Q 1119 3584 1766 3584 
Q 2128 3584 2408 3439 
Q 2688 3294 2919 2988 
z
M 2181 722 
Q 2541 722 2730 984 
Q 2919 1247 2919 1747 
Q 2919 2247 2730 2509 
Q 2541 2772 2181 2772 
Q 1825 2772 1636 2509 
Q 1447 2247 1447 1747 
Q 1447 1247 1636 984 
Q 1825 722 2181 722 
z
" transform="scale(0.015625)"/>
      <path id="DejaVuSans-Bold-44" d="M 2106 1575 
Q 1756 1575 1579 1456 
Q 1403 1338 1403 1106 
Q 1403 894 1545 773 
Q 1688 653 1941 653 
Q 2256 653 2472 879 
Q 2688 1106 2688 1447 
L 2688 1575 
L 2106 1575 
z
M 3816 1997 
L 3816 0 
L 2688 0 
L 2688 519 
Q 2463 200 2181 54 
Q 1900 -91 1497 -91 
Q 953 -91 614 226 
Q 275 544 275 1050 
Q 275 1666 698 1953 
Q 1122 2241 2028 2241 
L 2688 2241 
L 2688 2328 
Q 2688 2594 2478 2717 
Q 2269 2841 1825 2841 
Q 1466 2841 1156 2769 
Q 847 2697 581 2553 
L 581 3406 
Q 941 3494 1303 3539 
Q 1666 3584 2028 3584 
Q 2975 3584 3395 3211 
Q 3816 2838 3816 1997 
z
" transform="scale(0.015625)"/>
      <path id="DejaVuSans-Bold-57" d="M 1759 4494 
L 1759 3500 
L 2913 3500 
L 2913 2700 
L 1759 2700 
L 1759 1216 
Q 1759 972 1856 886 
Q 1953 800 2241 800 
L 2816 800 
L 2816 0 
L 1856 0 
Q 1194 0 917 276 
Q 641 553 641 1216 
L 641 2700 
L 84 2700 
L 84 3500 
L 641 3500 
L 641 4494 
L 1759 4494 
z
" transform="scale(0.015625)"/>
     </defs>
     <use xlink:href="#DejaVuSans-Bold-29"/>
     <use xlink:href="#DejaVuSans-Bold-58" transform="translate(63.328125 0)"/>
     <use xlink:href="#DejaVuSans-Bold-4f" transform="translate(134.515625 0)"/>
     <use xlink:href="#DejaVuSans-Bold-4f" transform="translate(168.796875 0)"/>
     <use xlink:href="#DejaVuSans-Bold-3" transform="translate(203.078125 0)"/>
     <use xlink:href="#DejaVuSans-Bold-47" transform="translate(237.890625 0)"/>
     <use xlink:href="#DejaVuSans-Bold-44" transform="translate(309.46875 0)"/>
     <use xlink:href="#DejaVuSans-Bold-57" transform="translate(376.953125 0)"/>
     <use xlink:href="#DejaVuSans-Bold-44" transform="translate(424.75 0)"/>
    </g>
   </g>
   <g id="text_2">
    <!-- Half A -->
    <g style="fill: #ffffff" transform="translate(88.759304 144.783498) scale(0.083 -0.083)">
     <defs>
      <path id="DejaVuSans-Bold-2b" d="M 588 4666 
L 1791 4666 
L 1791 2888 
L 3566 2888 
L 3566 4666 
L 4769 4666 
L 4769 0 
L 3566 0 
L 3566 1978 
L 1791 1978 
L 1791 0 
L 588 0 
L 588 4666 
z
" transform="scale(0.015625)"/>
      <path id="DejaVuSans-Bold-49" d="M 2841 4863 
L 2841 4128 
L 2222 4128 
Q 1984 4128 1890 4042 
Q 1797 3956 1797 3744 
L 1797 3500 
L 2753 3500 
L 2753 2700 
L 1797 2700 
L 1797 0 
L 678 0 
L 678 2700 
L 122 2700 
L 122 3500 
L 678 3500 
L 678 3744 
Q 678 4316 997 4589 
Q 1316 4863 1984 4863 
L 2841 4863 
z
" transform="scale(0.015625)"/>
      <path id="DejaVuSans-Bold-24" d="M 3419 850 
L 1538 850 
L 1241 0 
L 31 0 
L 1759 4666 
L 3194 4666 
L 4922 0 
L 3713 0 
L 3419 850 
z
M 1838 1716 
L 3116 1716 
L 2478 3572 
L 1838 1716 
z
" transform="scale(0.015625)"/>
     </defs>
     <use xlink:href="#DejaVuSans-Bold-2b"/>
     <use xlink:href="#DejaVuSans-Bold-44" transform="translate(83.6875 0)"/>
     <use xlink:href="#DejaVuSans-Bold-4f" transform="translate(151.171875 0)"/>
     <use xlink:href="#DejaVuSans-Bold-49" transform="translate(185.453125 0)"/>
     <use xlink:href="#DejaVuSans-Bold-3" transform="translate(228.953125 0)"/>
     <use xlink:href="#DejaVuSans-Bold-24" transform="translate(263.765625 0)"/>
    </g>
   </g>
   <g id="text_3">
    <!-- Half B -->
    <g style="fill: #ffffff" transform="translate(249.270309 144.783498) scale(0.083 -0.083)">
     <defs>
      <path id="DejaVuSans-Bold-25" d="M 2456 2859 
Q 2741 2859 2887 2984 
Q 3034 3109 3034 3353 
Q 3034 3594 2887 3720 
Q 2741 3847 2456 3847 
L 1791 3847 
L 1791 2859 
L 2456 2859 
z
M 2497 819 
Q 2859 819 3042 972 
Q 3225 1125 3225 1434 
Q 3225 1738 3044 1889 
Q 2863 2041 2497 2041 
L 1791 2041 
L 1791 819 
L 2497 819 
z
M 3616 2497 
Q 4003 2384 4215 2081 
Q 4428 1778 4428 1338 
Q 4428 663 3972 331 
Q 3516 0 2584 0 
L 588 0 
L 588 4666 
L 2394 4666 
Q 3366 4666 3802 4372 
Q 4238 4078 4238 3431 
Q 4238 3091 4078 2852 
Q 3919 2613 3616 2497 
z
" transform="scale(0.015625)"/>
     </defs>
     <use xlink:href="#DejaVuSans-Bold-2b"/>
     <use xlink:href="#DejaVuSans-Bold-44" transform="translate(83.6875 0)"/>
     <use xlink:href="#DejaVuSans-Bold-4f" transform="translate(151.171875 0)"/>
     <use xlink:href="#DejaVuSans-Bold-49" transform="translate(185.453125 0)"/>
     <use xlink:href="#DejaVuSans-Bold-3" transform="translate(228.953125 0)"/>
     <use xlink:href="#DejaVuSans-Bold-25" transform="translate(263.765625 0)"/>
    </g>
   </g>
   <g id="text_4">
    <!-- Cluster + centroids -->
    <g style="fill: #ffffff" transform="translate(57.83921 222.043159) scale(0.083 -0.083)">
     <defs>
      <path id="DejaVuSans-Bold-26" d="M 4288 256 
Q 3956 84 3597 -3 
Q 3238 -91 2847 -91 
Q 1681 -91 1000 561 
Q 319 1213 319 2328 
Q 319 3447 1000 4098 
Q 1681 4750 2847 4750 
Q 3238 4750 3597 4662 
Q 3956 4575 4288 4403 
L 4288 3438 
Q 3953 3666 3628 3772 
Q 3303 3878 2944 3878 
Q 2300 3878 1931 3465 
Q 1563 3053 1563 2328 
Q 1563 1606 1931 1193 
Q 2300 781 2944 781 
Q 3303 781 3628 887 
Q 3953 994 4288 1222 
L 4288 256 
z
" transform="scale(0.015625)"/>
      <path id="DejaVuSans-Bold-56" d="M 3272 3391 
L 3272 2541 
Q 2913 2691 2578 2766 
Q 2244 2841 1947 2841 
Q 1628 2841 1473 2761 
Q 1319 2681 1319 2516 
Q 1319 2381 1436 2309 
Q 1553 2238 1856 2203 
L 2053 2175 
Q 2913 2066 3209 1816 
Q 3506 1566 3506 1031 
Q 3506 472 3093 190 
Q 2681 -91 1863 -91 
Q 1516 -91 1145 -36 
Q 775 19 384 128 
L 384 978 
Q 719 816 1070 734 
Q 1422 653 1784 653 
Q 2113 653 2278 743 
Q 2444 834 2444 1013 
Q 2444 1163 2330 1236 
Q 2216 1309 1875 1350 
L 1678 1375 
Q 931 1469 631 1722 
Q 331 1975 331 2491 
Q 331 3047 712 3315 
Q 1094 3584 1881 3584 
Q 2191 3584 2531 3537 
Q 2872 3491 3272 3391 
z
" transform="scale(0.015625)"/>
      <path id="DejaVuSans-Bold-48" d="M 4031 1759 
L 4031 1441 
L 1416 1441 
Q 1456 1047 1700 850 
Q 1944 653 2381 653 
Q 2734 653 3104 758 
Q 3475 863 3866 1075 
L 3866 213 
Q 3469 63 3072 -14 
Q 2675 -91 2278 -91 
Q 1328 -91 801 392 
Q 275 875 275 1747 
Q 275 2603 792 3093 
Q 1309 3584 2216 3584 
Q 3041 3584 3536 3087 
Q 4031 2591 4031 1759 
z
M 2881 2131 
Q 2881 2450 2695 2645 
Q 2509 2841 2209 2841 
Q 1884 2841 1681 2658 
Q 1478 2475 1428 2131 
L 2881 2131 
z
" transform="scale(0.015625)"/>
      <path id="DejaVuSans-Bold-55" d="M 3138 2547 
Q 2991 2616 2845 2648 
Q 2700 2681 2553 2681 
Q 2122 2681 1889 2404 
Q 1656 2128 1656 1613 
L 1656 0 
L 538 0 
L 538 3500 
L 1656 3500 
L 1656 2925 
Q 1872 3269 2151 3426 
Q 2431 3584 2822 3584 
Q 2878 3584 2943 3579 
Q 3009 3575 3134 3559 
L 3138 2547 
z
" transform="scale(0.015625)"/>
      <path id="DejaVuSans-Bold-e" d="M 3053 4013 
L 3053 2375 
L 4684 2375 
L 4684 1638 
L 3053 1638 
L 3053 0 
L 2309 0 
L 2309 1638 
L 678 1638 
L 678 2375 
L 2309 2375 
L 2309 4013 
L 3053 4013 
z
" transform="scale(0.015625)"/>
      <path id="DejaVuSans-Bold-46" d="M 3366 3391 
L 3366 2478 
Q 3138 2634 2908 2709 
Q 2678 2784 2431 2784 
Q 1963 2784 1702 2511 
Q 1441 2238 1441 1747 
Q 1441 1256 1702 982 
Q 1963 709 2431 709 
Q 2694 709 2930 787 
Q 3166 866 3366 1019 
L 3366 103 
Q 3103 6 2833 -42 
Q 2563 -91 2291 -91 
Q 1344 -91 809 395 
Q 275 881 275 1747 
Q 275 2613 809 3098 
Q 1344 3584 2291 3584 
Q 2566 3584 2833 3536 
Q 3100 3488 3366 3391 
z
" transform="scale(0.015625)"/>
      <path id="DejaVuSans-Bold-51" d="M 4056 2131 
L 4056 0 
L 2931 0 
L 2931 347 
L 2931 1631 
Q 2931 2084 2911 2256 
Q 2891 2428 2841 2509 
Q 2775 2619 2662 2680 
Q 2550 2741 2406 2741 
Q 2056 2741 1856 2470 
Q 1656 2200 1656 1722 
L 1656 0 
L 538 0 
L 538 3500 
L 1656 3500 
L 1656 2988 
Q 1909 3294 2193 3439 
Q 2478 3584 2822 3584 
Q 3428 3584 3742 3212 
Q 4056 2841 4056 2131 
z
" transform="scale(0.015625)"/>
      <path id="DejaVuSans-Bold-52" d="M 2203 2784 
Q 1831 2784 1636 2517 
Q 1441 2250 1441 1747 
Q 1441 1244 1636 976 
Q 1831 709 2203 709 
Q 2569 709 2762 976 
Q 2956 1244 2956 1747 
Q 2956 2250 2762 2517 
Q 2569 2784 2203 2784 
z
M 2203 3584 
Q 3106 3584 3614 3096 
Q 4122 2609 4122 1747 
Q 4122 884 3614 396 
Q 3106 -91 2203 -91 
Q 1297 -91 786 396 
Q 275 884 275 1747 
Q 275 2609 786 3096 
Q 1297 3584 2203 3584 
z
" transform="scale(0.015625)"/>
      <path id="DejaVuSans-Bold-4c" d="M 538 3500 
L 1656 3500 
L 1656 0 
L 538 0 
L 538 3500 
z
M 538 4863 
L 1656 4863 
L 1656 3950 
L 538 3950 
L 538 4863 
z
" transform="scale(0.015625)"/>
     </defs>
     <use xlink:href="#DejaVuSans-Bold-26"/>
     <use xlink:href="#DejaVuSans-Bold-4f" transform="translate(73.390625 0)"/>
     <use xlink:href="#DejaVuSans-Bold-58" transform="translate(107.671875 0)"/>
     <use xlink:href="#DejaVuSans-Bold-56" transform="translate(178.859375 0)"/>
     <use xlink:href="#DejaVuSans-Bold-57" transform="translate(238.375 0)"/>
     <use xlink:href="#DejaVuSans-Bold-48" transform="translate(286.171875 0)"/>
     <use xlink:href="#DejaVuSans-Bold-55" transform="translate(354 0)"/>
     <use xlink:href="#DejaVuSans-Bold-3" transform="translate(403.3125 0)"/>
     <use xlink:href="#DejaVuSans-Bold-e" transform="translate(438.125 0)"/>
     <use xlink:href="#DejaVuSans-Bold-3" transform="translate(521.921875 0)"/>
     <use xlink:href="#DejaVuSans-Bold-46" transform="translate(556.734375 0)"/>
     <use xlink:href="#DejaVuSans-Bold-48" transform="translate(616.015625 0)"/>
     <use xlink:href="#DejaVuSans-Bold-51" transform="translate(683.84375 0)"/>
     <use xlink:href="#DejaVuSans-Bold-57" transform="translate(755.03125 0)"/>
     <use xlink:href="#DejaVuSans-Bold-55" transform="translate(802.828125 0)"/>
     <use xlink:href="#DejaVuSans-Bold-52" transform="translate(852.140625 0)"/>
     <use xlink:href="#DejaVuSans-Bold-4c" transform="translate(920.84375 0)"/>
     <use xlink:href="#DejaVuSans-Bold-47" transform="translate(955.125 0)"/>
     <use xlink:href="#DejaVuSans-Bold-56" transform="translate(1026.703125 0)"/>
    </g>
   </g>
   <g id="text_5">
    <!-- predict -->
    <g style="fill: #059669" transform="translate(196.194994 199.086102) scale(0.083 -0.083)">
     <defs>
      <path id="DejaVuSans-Bold-53" d="M 1656 506 
L 1656 -1331 
L 538 -1331 
L 538 3500 
L 1656 3500 
L 1656 2988 
Q 1888 3294 2169 3439 
Q 2450 3584 2816 3584 
Q 3463 3584 3878 3070 
Q 4294 2556 4294 1747 
Q 4294 938 3878 423 
Q 3463 -91 2816 -91 
Q 2450 -91 2169 54 
Q 1888 200 1656 506 
z
M 2400 2772 
Q 2041 2772 1848 2508 
Q 1656 2244 1656 1747 
Q 1656 1250 1848 986 
Q 2041 722 2400 722 
Q 2759 722 2948 984 
Q 3138 1247 3138 1747 
Q 3138 2247 2948 2509 
Q 2759 2772 2400 2772 
z
" transform="scale(0.015625)"/>
     </defs>
     <use xlink:href="#DejaVuSans-Bold-53"/>
     <use xlink:href="#DejaVuSans-Bold-55" transform="translate(71.578125 0)"/>
     <use xlink:href="#DejaVuSans-Bold-48" transform="translate(120.890625 0)"/>
     <use xlink:href="#DejaVuSans-Bold-47" transform="translate(188.71875 0)"/>
     <use xlink:href="#DejaVuSans-Bold-4c" transform="translate(260.296875 0)"/>
     <use xlink:href="#DejaVuSans-Bold-46" transform="translate(294.578125 0)"/>
     <use xlink:href="#DejaVuSans-Bold-57" transform="translate(353.859375 0)"/>
    </g>
   </g>
   <g id="PathCollection_1">
    <defs>
     <path id="m426b994076" d="M -0 23.452079 
L 23.452079 0 
L 0 -23.452079 
L -23.452079 -0 
z
" style="stroke: #1e293b; stroke-width: 1.5"/>
    </defs>
    <g clip-path="url(#pddcde8de9d)">
     <use xlink:href="#m426b994076" x="263.379661" y="249.602034" style="fill: #ffffff; stroke: #1e293b; stroke-width: 1.5"/>
    </g>
   </g>
   <g id="text_6">
    <!-- do B's -->
    <g style="fill: #1e293b" transform="translate(252.112224 243.395198) scale(0.066 -0.066)">
     <defs>
      <path id="DejaVuSans-Bold-a" d="M 1350 4666 
L 1350 2931 
L 609 2931 
L 609 4666 
L 1350 4666 
z
" transform="scale(0.015625)"/>
     </defs>
     <use xlink:href="#DejaVuSans-Bold-47"/>
     <use xlink:href="#DejaVuSans-Bold-52" transform="translate(71.578125 0)"/>
     <use xlink:href="#DejaVuSans-Bold-3" transform="translate(140.28125 0)"/>
     <use xlink:href="#DejaVuSans-Bold-25" transform="translate(175.09375 0)"/>
     <use xlink:href="#DejaVuSans-Bold-a" transform="translate(251.3125 0)"/>
     <use xlink:href="#DejaVuSans-Bold-56" transform="translate(281.921875 0)"/>
    </g>
    <!-- pairs -->
    <g style="fill: #1e293b" transform="translate(254.067989 251.317003) scale(0.066 -0.066)">
     <use xlink:href="#DejaVuSans-Bold-53"/>
     <use xlink:href="#DejaVuSans-Bold-44" transform="translate(71.578125 0)"/>
     <use xlink:href="#DejaVuSans-Bold-4c" transform="translate(139.0625 0)"/>
     <use xlink:href="#DejaVuSans-Bold-55" transform="translate(173.34375 0)"/>
     <use xlink:href="#DejaVuSans-Bold-56" transform="translate(222.65625 0)"/>
    </g>
    <!-- agree? -->
    <g style="fill: #1e293b" transform="translate(250.772114 259.238292) scale(0.066 -0.066)">
     <defs>
      <path id="DejaVuSans-Bold-4a" d="M 2919 594 
Q 2688 288 2409 144 
Q 2131 0 1766 0 
Q 1125 0 706 504 
Q 288 1009 288 1791 
Q 288 2575 706 3076 
Q 1125 3578 1766 3578 
Q 2131 3578 2409 3434 
Q 2688 3291 2919 2981 
L 2919 3500 
L 4044 3500 
L 4044 353 
Q 4044 -491 3511 -936 
Q 2978 -1381 1966 -1381 
Q 1638 -1381 1331 -1331 
Q 1025 -1281 716 -1178 
L 716 -306 
Q 1009 -475 1290 -558 
Q 1572 -641 1856 -641 
Q 2406 -641 2662 -400 
Q 2919 -159 2919 353 
L 2919 594 
z
M 2181 2772 
Q 1834 2772 1640 2515 
Q 1447 2259 1447 1791 
Q 1447 1309 1634 1061 
Q 1822 813 2181 813 
Q 2531 813 2725 1069 
Q 2919 1325 2919 1791 
Q 2919 2259 2725 2515 
Q 2531 2772 2181 2772 
z
" transform="scale(0.015625)"/>
      <path id="DejaVuSans-Bold-22" d="M 2216 1575 
L 1088 1575 
L 1088 1728 
Q 1088 1984 1191 2182 
Q 1294 2381 1625 2688 
L 1825 2869 
Q 2003 3031 2086 3175 
Q 2169 3319 2169 3463 
Q 2169 3681 2019 3804 
Q 1869 3928 1600 3928 
Q 1347 3928 1053 3823 
Q 759 3719 441 3513 
L 441 4494 
Q 819 4625 1131 4687 
Q 1444 4750 1734 4750 
Q 2497 4750 2897 4439 
Q 3297 4128 3297 3531 
Q 3297 3225 3175 2983 
Q 3053 2741 2759 2463 
L 2559 2284 
Q 2347 2091 2281 1973 
Q 2216 1856 2216 1716 
L 2216 1575 
z
M 1088 1113 
L 2216 1113 
L 2216 0 
L 1088 0 
L 1088 1113 
z
" transform="scale(0.015625)"/>
     </defs>
     <use xlink:href="#DejaVuSans-Bold-44"/>
     <use xlink:href="#DejaVuSans-Bold-4a" transform="translate(67.484375 0)"/>
     <use xlink:href="#DejaVuSans-Bold-55" transform="translate(139.0625 0)"/>
     <use xlink:href="#DejaVuSans-Bold-48" transform="translate(188.375 0)"/>
     <use xlink:href="#DejaVuSans-Bold-48" transform="translate(256.203125 0)"/>
     <use xlink:href="#DejaVuSans-Bold-22" transform="translate(324.03125 0)"/>
    </g>
   </g>
   <g id="text_7">
    <!-- Prediction strength -->
    <g style="fill: #1e293b" transform="translate(120.20625 35.595254) scale(0.12 -0.12)">
     <defs>
      <path id="DejaVuSans-Bold-33" d="M 588 4666 
L 2584 4666 
Q 3475 4666 3951 4270 
Q 4428 3875 4428 3144 
Q 4428 2409 3951 2014 
Q 3475 1619 2584 1619 
L 1791 1619 
L 1791 0 
L 588 0 
L 588 4666 
z
M 1791 3794 
L 1791 2491 
L 2456 2491 
Q 2806 2491 2997 2661 
Q 3188 2831 3188 3144 
Q 3188 3456 2997 3625 
Q 2806 3794 2456 3794 
L 1791 3794 
z
" transform="scale(0.015625)"/>
      <path id="DejaVuSans-Bold-4b" d="M 4056 2131 
L 4056 0 
L 2931 0 
L 2931 347 
L 2931 1625 
Q 2931 2084 2911 2256 
Q 2891 2428 2841 2509 
Q 2775 2619 2662 2680 
Q 2550 2741 2406 2741 
Q 2056 2741 1856 2470 
Q 1656 2200 1656 1722 
L 1656 0 
L 538 0 
L 538 4863 
L 1656 4863 
L 1656 2988 
Q 1909 3294 2193 3439 
Q 2478 3584 2822 3584 
Q 3428 3584 3742 3212 
Q 4056 2841 4056 2131 
z
" transform="scale(0.015625)"/>
     </defs>
     <use xlink:href="#DejaVuSans-Bold-33"/>
     <use xlink:href="#DejaVuSans-Bold-55" transform="translate(73.296875 0)"/>
     <use xlink:href="#DejaVuSans-Bold-48" transform="translate(122.609375 0)"/>
     <use xlink:href="#DejaVuSans-Bold-47" transform="translate(190.4375 0)"/>
     <use xlink:href="#DejaVuSans-Bold-4c" transform="translate(262.015625 0)"/>
     <use xlink:href="#DejaVuSans-Bold-46" transform="translate(296.296875 0)"/>
     <use xlink:href="#DejaVuSans-Bold-57" transform="translate(355.578125 0)"/>
     <use xlink:href="#DejaVuSans-Bold-4c" transform="translate(403.375 0)"/>
     <use xlink:href="#DejaVuSans-Bold-52" transform="translate(437.65625 0)"/>
     <use xlink:href="#DejaVuSans-Bold-51" transform="translate(506.359375 0)"/>
     <use xlink:href="#DejaVuSans-Bold-3" transform="translate(577.546875 0)"/>
     <use xlink:href="#DejaVuSans-Bold-56" transform="translate(612.359375 0)"/>
     <use xlink:href="#DejaVuSans-Bold-57" transform="translate(671.875 0)"/>
     <use xlink:href="#DejaVuSans-Bold-55" transform="translate(719.671875 0)"/>
     <use xlink:href="#DejaVuSans-Bold-48" transform="translate(768.984375 0)"/>
     <use xlink:href="#DejaVuSans-Bold-51" transform="translate(836.8125 0)"/>
     <use xlink:href="#DejaVuSans-Bold-4a" transform="translate(908 0)"/>
     <use xlink:href="#DejaVuSans-Bold-57" transform="translate(979.578125 0)"/>
     <use xlink:href="#DejaVuSans-Bold-4b" transform="translate(1027.375 0)"/>
    </g>
   </g>
  </g>
  <g id="axes_2">
   <g id="patch_11">
    <path d="M 481.592136 84.38522 
L 607.584814 84.38522 
Q 611.150644 84.38522 611.150644 80.81939 
L 611.150644 49.915525 
Q 611.150644 46.349695 607.584814 46.349695 
L 481.592136 46.349695 
Q 478.026305 46.349695 478.026305 49.915525 
L 478.026305 80.81939 
Q 478.026305 84.38522 481.592136 84.38522 
z
" clip-path="url(#pfd1a2a4ec6)" style="fill: #1e293b; stroke: #1e293b; stroke-width: 1.6; stroke-linejoin: miter"/>
   </g>
   <g id="patch_12">
    <path d="M 481.592136 161.644881 
L 607.584814 161.644881 
Q 611.150644 161.644881 611.150644 158.079051 
L 611.150644 127.175186 
Q 611.150644 123.609356 607.584814 123.609356 
L 481.592136 123.609356 
Q 478.026305 123.609356 478.026305 127.175186 
L 478.026305 158.079051 
Q 478.026305 161.644881 481.592136 161.644881 
z
" clip-path="url(#pfd1a2a4ec6)" style="fill: #ea580c; stroke: #ea580c; stroke-width: 1.6; stroke-linejoin: miter"/>
   </g>
   <g id="patch_13">
    <path d="M 544.588475 85.194917 
Q 544.588475 103.998147 544.588475 121.124326 
" clip-path="url(#pfd1a2a4ec6)" style="fill: none; stroke: #1e293b; stroke-width: 1.5; stroke-linecap: round"/>
    <path d="M 547.188475 115.924326 
L 544.588475 121.124326 
L 541.988475 115.924326 
z
" clip-path="url(#pfd1a2a4ec6)" style="fill: #1e293b; stroke: #1e293b; stroke-width: 1.5; stroke-linecap: round"/>
   </g>
   <g id="patch_14">
    <path d="M 481.592136 238.904542 
L 607.584814 238.904542 
Q 611.150644 238.904542 611.150644 235.338712 
L 611.150644 204.434847 
Q 611.150644 200.869017 607.584814 200.869017 
L 481.592136 200.869017 
Q 478.026305 200.869017 478.026305 204.434847 
L 478.026305 235.338712 
Q 478.026305 238.904542 481.592136 238.904542 
z
" clip-path="url(#pfd1a2a4ec6)" style="fill: #059669; stroke: #059669; stroke-width: 1.6; stroke-linejoin: miter"/>
   </g>
   <g id="patch_15">
    <path d="M 544.588475 162.454579 
Q 544.588475 181.257808 544.588475 198.383987 
" clip-path="url(#pfd1a2a4ec6)" style="fill: none; stroke: #ea580c; stroke-width: 1.5; stroke-linecap: round"/>
    <path d="M 547.188475 193.183987 
L 544.588475 198.383987 
L 541.988475 193.183987 
z
" clip-path="url(#pfd1a2a4ec6)" style="fill: #ea580c; stroke: #ea580c; stroke-width: 1.5; stroke-linecap: round"/>
   </g>
   <g id="patch_16">
    <path d="M 481.592136 316.164203 
L 607.584814 316.164203 
Q 611.150644 316.164203 611.150644 312.598373 
L 611.150644 281.694508 
Q 611.150644 278.128678 607.584814 278.128678 
L 481.592136 278.128678 
Q 478.026305 278.128678 478.026305 281.694508 
L 478.026305 312.598373 
Q 478.026305 316.164203 481.592136 316.164203 
z
" clip-path="url(#pfd1a2a4ec6)" style="fill: #8b5cf6; stroke: #8b5cf6; stroke-width: 1.6; stroke-linejoin: miter"/>
   </g>
   <g id="patch_17">
    <path d="M 544.588475 239.71424 
Q 544.588475 258.517469 544.588475 275.643648 
" clip-path="url(#pfd1a2a4ec6)" style="fill: none; stroke: #059669; stroke-width: 1.5; stroke-linecap: round"/>
    <path d="M 547.188475 270.443648 
L 544.588475 275.643648 
L 541.988475 270.443648 
z
" clip-path="url(#pfd1a2a4ec6)" style="fill: #059669; stroke: #059669; stroke-width: 1.5; stroke-linecap: round"/>
   </g>
   <g id="text_8">
    <!-- Full data -->
    <g style="fill: #ffffff" transform="translate(524.160748 67.523837) scale(0.083 -0.083)">
     <use xlink:href="#DejaVuSans-Bold-29"/>
     <use xlink:href="#DejaVuSans-Bold-58" transform="translate(63.328125 0)"/>
     <use xlink:href="#DejaVuSans-Bold-4f" transform="translate(134.515625 0)"/>
     <use xlink:href="#DejaVuSans-Bold-4f" transform="translate(168.796875 0)"/>
     <use xlink:href="#DejaVuSans-Bold-3" transform="translate(203.078125 0)"/>
     <use xlink:href="#DejaVuSans-Bold-47" transform="translate(237.890625 0)"/>
     <use xlink:href="#DejaVuSans-Bold-44" transform="translate(309.46875 0)"/>
     <use xlink:href="#DejaVuSans-Bold-57" transform="translate(376.953125 0)"/>
     <use xlink:href="#DejaVuSans-Bold-44" transform="translate(424.75 0)"/>
    </g>
   </g>
   <g id="text_9">
    <!-- Bootstrap resample -->
    <g style="fill: #ffffff" transform="translate(498.35942 144.783498) scale(0.083 -0.083)">
     <defs>
      <path id="DejaVuSans-Bold-50" d="M 3781 2919 
Q 3994 3244 4286 3414 
Q 4578 3584 4928 3584 
Q 5531 3584 5847 3212 
Q 6163 2841 6163 2131 
L 6163 0 
L 5038 0 
L 5038 1825 
Q 5041 1866 5042 1909 
Q 5044 1953 5044 2034 
Q 5044 2406 4934 2573 
Q 4825 2741 4581 2741 
Q 4263 2741 4089 2478 
Q 3916 2216 3909 1719 
L 3909 0 
L 2784 0 
L 2784 1825 
Q 2784 2406 2684 2573 
Q 2584 2741 2328 2741 
Q 2006 2741 1831 2477 
Q 1656 2213 1656 1722 
L 1656 0 
L 531 0 
L 531 3500 
L 1656 3500 
L 1656 2988 
Q 1863 3284 2130 3434 
Q 2397 3584 2719 3584 
Q 3081 3584 3359 3409 
Q 3638 3234 3781 2919 
z
" transform="scale(0.015625)"/>
     </defs>
     <use xlink:href="#DejaVuSans-Bold-25"/>
     <use xlink:href="#DejaVuSans-Bold-52" transform="translate(76.21875 0)"/>
     <use xlink:href="#DejaVuSans-Bold-52" transform="translate(144.921875 0)"/>
     <use xlink:href="#DejaVuSans-Bold-57" transform="translate(213.625 0)"/>
     <use xlink:href="#DejaVuSans-Bold-56" transform="translate(261.421875 0)"/>
     <use xlink:href="#DejaVuSans-Bold-57" transform="translate(320.9375 0)"/>
     <use xlink:href="#DejaVuSans-Bold-55" transform="translate(368.734375 0)"/>
     <use xlink:href="#DejaVuSans-Bold-44" transform="translate(418.046875 0)"/>
     <use xlink:href="#DejaVuSans-Bold-53" transform="translate(485.53125 0)"/>
     <use xlink:href="#DejaVuSans-Bold-3" transform="translate(557.109375 0)"/>
     <use xlink:href="#DejaVuSans-Bold-55" transform="translate(591.921875 0)"/>
     <use xlink:href="#DejaVuSans-Bold-48" transform="translate(641.234375 0)"/>
     <use xlink:href="#DejaVuSans-Bold-56" transform="translate(709.0625 0)"/>
     <use xlink:href="#DejaVuSans-Bold-44" transform="translate(768.578125 0)"/>
     <use xlink:href="#DejaVuSans-Bold-50" transform="translate(836.0625 0)"/>
     <use xlink:href="#DejaVuSans-Bold-53" transform="translate(940.265625 0)"/>
     <use xlink:href="#DejaVuSans-Bold-4f" transform="translate(1011.84375 0)"/>
     <use xlink:href="#DejaVuSans-Bold-48" transform="translate(1046.125 0)"/>
    </g>
   </g>
   <g id="text_10">
    <!-- with -->
    <g style="fill: #6b7280" transform="translate(586.189831 113.432999) scale(0.072 -0.072)">
     <defs>
      <path id="DejaVuSans-5a" d="M 269 3500 
L 844 3500 
L 1563 769 
L 2278 3500 
L 2956 3500 
L 3675 769 
L 4391 3500 
L 4966 3500 
L 4050 0 
L 3372 0 
L 2619 2869 
L 1863 0 
L 1184 0 
L 269 3500 
z
" transform="scale(0.015625)"/>
      <path id="DejaVuSans-4c" d="M 603 3500 
L 1178 3500 
L 1178 0 
L 603 0 
L 603 3500 
z
M 603 4863 
L 1178 4863 
L 1178 4134 
L 603 4134 
L 603 4863 
z
" transform="scale(0.015625)"/>
      <path id="DejaVuSans-57" d="M 1172 4494 
L 1172 3500 
L 2356 3500 
L 2356 3053 
L 1172 3053 
L 1172 1153 
Q 1172 725 1289 603 
Q 1406 481 1766 481 
L 2356 481 
L 2356 0 
L 1766 0 
Q 1100 0 847 248 
Q 594 497 594 1153 
L 594 3053 
L 172 3053 
L 172 3500 
L 594 3500 
L 594 4494 
L 1172 4494 
z
" transform="scale(0.015625)"/>
      <path id="DejaVuSans-4b" d="M 3513 2113 
L 3513 0 
L 2938 0 
L 2938 2094 
Q 2938 2591 2744 2837 
Q 2550 3084 2163 3084 
Q 1697 3084 1428 2787 
Q 1159 2491 1159 1978 
L 1159 0 
L 581 0 
L 581 4863 
L 1159 4863 
L 1159 2956 
Q 1366 3272 1645 3428 
Q 1925 3584 2291 3584 
Q 2894 3584 3203 3211 
Q 3513 2838 3513 2113 
z
" transform="scale(0.015625)"/>
     </defs>
     <use xlink:href="#DejaVuSans-5a"/>
     <use xlink:href="#DejaVuSans-4c" transform="translate(81.78125 0)"/>
     <use xlink:href="#DejaVuSans-57" transform="translate(109.5625 0)"/>
     <use xlink:href="#DejaVuSans-4b" transform="translate(148.765625 0)"/>
    </g>
    <!-- replacement -->
    <g style="fill: #6b7280" transform="translate(586.189831 122.074968) scale(0.072 -0.072)">
     <defs>
      <path id="DejaVuSans-55" d="M 2631 2963 
Q 2534 3019 2420 3045 
Q 2306 3072 2169 3072 
Q 1681 3072 1420 2755 
Q 1159 2438 1159 1844 
L 1159 0 
L 581 0 
L 581 3500 
L 1159 3500 
L 1159 2956 
Q 1341 3275 1631 3429 
Q 1922 3584 2338 3584 
Q 2397 3584 2469 3576 
Q 2541 3569 2628 3553 
L 2631 2963 
z
" transform="scale(0.015625)"/>
      <path id="DejaVuSans-48" d="M 3597 1894 
L 3597 1613 
L 953 1613 
Q 991 1019 1311 708 
Q 1631 397 2203 397 
Q 2534 397 2845 478 
Q 3156 559 3463 722 
L 3463 178 
Q 3153 47 2828 -22 
Q 2503 -91 2169 -91 
Q 1331 -91 842 396 
Q 353 884 353 1716 
Q 353 2575 817 3079 
Q 1281 3584 2069 3584 
Q 2775 3584 3186 3129 
Q 3597 2675 3597 1894 
z
M 3022 2063 
Q 3016 2534 2758 2815 
Q 2500 3097 2075 3097 
Q 1594 3097 1305 2825 
Q 1016 2553 972 2059 
L 3022 2063 
z
" transform="scale(0.015625)"/>
      <path id="DejaVuSans-53" d="M 1159 525 
L 1159 -1331 
L 581 -1331 
L 581 3500 
L 1159 3500 
L 1159 2969 
Q 1341 3281 1617 3432 
Q 1894 3584 2278 3584 
Q 2916 3584 3314 3078 
Q 3713 2572 3713 1747 
Q 3713 922 3314 415 
Q 2916 -91 2278 -91 
Q 1894 -91 1617 61 
Q 1341 213 1159 525 
z
M 3116 1747 
Q 3116 2381 2855 2742 
Q 2594 3103 2138 3103 
Q 1681 3103 1420 2742 
Q 1159 2381 1159 1747 
Q 1159 1113 1420 752 
Q 1681 391 2138 391 
Q 2594 391 2855 752 
Q 3116 1113 3116 1747 
z
" transform="scale(0.015625)"/>
      <path id="DejaVuSans-4f" d="M 603 4863 
L 1178 4863 
L 1178 0 
L 603 0 
L 603 4863 
z
" transform="scale(0.015625)"/>
      <path id="DejaVuSans-44" d="M 2194 1759 
Q 1497 1759 1228 1600 
Q 959 1441 959 1056 
Q 959 750 1161 570 
Q 1363 391 1709 391 
Q 2188 391 2477 730 
Q 2766 1069 2766 1631 
L 2766 1759 
L 2194 1759 
z
M 3341 1997 
L 3341 0 
L 2766 0 
L 2766 531 
Q 2569 213 2275 61 
Q 1981 -91 1556 -91 
Q 1019 -91 701 211 
Q 384 513 384 1019 
Q 384 1609 779 1909 
Q 1175 2209 1959 2209 
L 2766 2209 
L 2766 2266 
Q 2766 2663 2505 2880 
Q 2244 3097 1772 3097 
Q 1472 3097 1187 3025 
Q 903 2953 641 2809 
L 641 3341 
Q 956 3463 1253 3523 
Q 1550 3584 1831 3584 
Q 2591 3584 2966 3190 
Q 3341 2797 3341 1997 
z
" transform="scale(0.015625)"/>
      <path id="DejaVuSans-46" d="M 3122 3366 
L 3122 2828 
Q 2878 2963 2633 3030 
Q 2388 3097 2138 3097 
Q 1578 3097 1268 2742 
Q 959 2388 959 1747 
Q 959 1106 1268 751 
Q 1578 397 2138 397 
Q 2388 397 2633 464 
Q 2878 531 3122 666 
L 3122 134 
Q 2881 22 2623 -34 
Q 2366 -91 2075 -91 
Q 1284 -91 818 406 
Q 353 903 353 1747 
Q 353 2603 823 3093 
Q 1294 3584 2113 3584 
Q 2378 3584 2631 3529 
Q 2884 3475 3122 3366 
z
" transform="scale(0.015625)"/>
      <path id="DejaVuSans-50" d="M 3328 2828 
Q 3544 3216 3844 3400 
Q 4144 3584 4550 3584 
Q 5097 3584 5394 3201 
Q 5691 2819 5691 2113 
L 5691 0 
L 5113 0 
L 5113 2094 
Q 5113 2597 4934 2840 
Q 4756 3084 4391 3084 
Q 3944 3084 3684 2787 
Q 3425 2491 3425 1978 
L 3425 0 
L 2847 0 
L 2847 2094 
Q 2847 2600 2669 2842 
Q 2491 3084 2119 3084 
Q 1678 3084 1418 2786 
Q 1159 2488 1159 1978 
L 1159 0 
L 581 0 
L 581 3500 
L 1159 3500 
L 1159 2956 
Q 1356 3278 1631 3431 
Q 1906 3584 2284 3584 
Q 2666 3584 2933 3390 
Q 3200 3197 3328 2828 
z
" transform="scale(0.015625)"/>
      <path id="DejaVuSans-51" d="M 3513 2113 
L 3513 0 
L 2938 0 
L 2938 2094 
Q 2938 2591 2744 2837 
Q 2550 3084 2163 3084 
Q 1697 3084 1428 2787 
Q 1159 2491 1159 1978 
L 1159 0 
L 581 0 
L 581 3500 
L 1159 3500 
L 1159 2956 
Q 1366 3272 1645 3428 
Q 1925 3584 2291 3584 
Q 2894 3584 3203 3211 
Q 3513 2838 3513 2113 
z
" transform="scale(0.015625)"/>
     </defs>
     <use xlink:href="#DejaVuSans-55"/>
     <use xlink:href="#DejaVuSans-48" transform="translate(38.90625 0)"/>
     <use xlink:href="#DejaVuSans-53" transform="translate(100.4375 0)"/>
     <use xlink:href="#DejaVuSans-4f" transform="translate(163.921875 0)"/>
     <use xlink:href="#DejaVuSans-44" transform="translate(191.703125 0)"/>
     <use xlink:href="#DejaVuSans-46" transform="translate(252.984375 0)"/>
     <use xlink:href="#DejaVuSans-48" transform="translate(307.96875 0)"/>
     <use xlink:href="#DejaVuSans-50" transform="translate(369.5 0)"/>
     <use xlink:href="#DejaVuSans-48" transform="translate(466.90625 0)"/>
     <use xlink:href="#DejaVuSans-51" transform="translate(528.4375 0)"/>
     <use xlink:href="#DejaVuSans-57" transform="translate(591.8125 0)"/>
    </g>
   </g>
   <g id="text_11">
    <!-- Re-cluster -->
    <g style="fill: #ffffff" transform="translate(520.703928 222.043159) scale(0.083 -0.083)">
     <defs>
      <path id="DejaVuSans-Bold-35" d="M 2297 2597 
Q 2675 2597 2839 2737 
Q 3003 2878 3003 3200 
Q 3003 3519 2839 3656 
Q 2675 3794 2297 3794 
L 1791 3794 
L 1791 2597 
L 2297 2597 
z
M 1791 1766 
L 1791 0 
L 588 0 
L 588 4666 
L 2425 4666 
Q 3347 4666 3776 4356 
Q 4206 4047 4206 3378 
Q 4206 2916 3982 2619 
Q 3759 2322 3309 2181 
Q 3556 2125 3751 1926 
Q 3947 1728 4147 1325 
L 4800 0 
L 3519 0 
L 2950 1159 
Q 2778 1509 2601 1637 
Q 2425 1766 2131 1766 
L 1791 1766 
z
" transform="scale(0.015625)"/>
      <path id="DejaVuSans-Bold-10" d="M 347 2297 
L 2309 2297 
L 2309 1388 
L 347 1388 
L 347 2297 
z
" transform="scale(0.015625)"/>
     </defs>
     <use xlink:href="#DejaVuSans-Bold-35"/>
     <use xlink:href="#DejaVuSans-Bold-48" transform="translate(77 0)"/>
     <use xlink:href="#DejaVuSans-Bold-10" transform="translate(144.828125 0)"/>
     <use xlink:href="#DejaVuSans-Bold-46" transform="translate(186.328125 0)"/>
     <use xlink:href="#DejaVuSans-Bold-4f" transform="translate(245.609375 0)"/>
     <use xlink:href="#DejaVuSans-Bold-58" transform="translate(279.890625 0)"/>
     <use xlink:href="#DejaVuSans-Bold-56" transform="translate(351.078125 0)"/>
     <use xlink:href="#DejaVuSans-Bold-57" transform="translate(410.59375 0)"/>
     <use xlink:href="#DejaVuSans-Bold-48" transform="translate(458.390625 0)"/>
     <use xlink:href="#DejaVuSans-Bold-55" transform="translate(526.21875 0)"/>
    </g>
   </g>
   <g id="text_12">
    <!-- Jaccard vs. -->
    <g style="fill: #ffffff" transform="translate(519.309787 294.321036) scale(0.083 -0.083)">
     <defs>
      <path id="DejaVuSans-Bold-2d" d="M 588 4666 
L 1791 4666 
L 1791 453 
Q 1791 -419 1317 -850 
Q 844 -1281 -116 -1281 
L -359 -1281 
L -359 -372 
L -172 -372 
Q 203 -372 395 -162 
Q 588 47 588 453 
L 588 4666 
z
" transform="scale(0.015625)"/>
      <path id="DejaVuSans-Bold-59" d="M 97 3500 
L 1216 3500 
L 2088 1081 
L 2956 3500 
L 4078 3500 
L 2700 0 
L 1472 0 
L 97 3500 
z
" transform="scale(0.015625)"/>
      <path id="DejaVuSans-Bold-11" d="M 653 1209 
L 1778 1209 
L 1778 0 
L 653 0 
L 653 1209 
z
" transform="scale(0.015625)"/>
     </defs>
     <use xlink:href="#DejaVuSans-Bold-2d"/>
     <use xlink:href="#DejaVuSans-Bold-44" transform="translate(37.203125 0)"/>
     <use xlink:href="#DejaVuSans-Bold-46" transform="translate(104.6875 0)"/>
     <use xlink:href="#DejaVuSans-Bold-46" transform="translate(163.96875 0)"/>
     <use xlink:href="#DejaVuSans-Bold-44" transform="translate(223.25 0)"/>
     <use xlink:href="#DejaVuSans-Bold-55" transform="translate(290.734375 0)"/>
     <use xlink:href="#DejaVuSans-Bold-47" transform="translate(340.046875 0)"/>
     <use xlink:href="#DejaVuSans-Bold-3" transform="translate(411.625 0)"/>
     <use xlink:href="#DejaVuSans-Bold-59" transform="translate(446.4375 0)"/>
     <use xlink:href="#DejaVuSans-Bold-56" transform="translate(511.625 0)"/>
     <use xlink:href="#DejaVuSans-Bold-11" transform="translate(571.140625 0)"/>
    </g>
    <!-- original cluster $C$ -->
    <g style="fill: #ffffff" transform="translate(504.748475 304.284603) scale(0.083 -0.083)">
     <defs>
      <path id="DejaVuSans-Oblique-26" d="M 4447 4306 
L 4319 3641 
Q 4019 3944 3683 4091 
Q 3347 4238 2956 4238 
Q 2422 4238 2017 3981 
Q 1613 3725 1319 3200 
Q 1131 2863 1032 2486 
Q 934 2109 934 1728 
Q 934 1091 1264 756 
Q 1594 422 2222 422 
Q 2656 422 3056 561 
Q 3456 700 3834 978 
L 3688 231 
Q 3316 72 2936 -9 
Q 2556 -91 2175 -91 
Q 1278 -91 773 396 
Q 269 884 269 1753 
Q 269 2309 461 2846 
Q 653 3384 1013 3828 
Q 1394 4300 1883 4525 
Q 2372 4750 3022 4750 
Q 3422 4750 3780 4639 
Q 4138 4528 4447 4306 
z
" transform="scale(0.015625)"/>
     </defs>
     <use xlink:href="#DejaVuSans-Bold-52" transform="translate(0 0.015625)"/>
     <use xlink:href="#DejaVuSans-Bold-55" transform="translate(68.701172 0.015625)"/>
     <use xlink:href="#DejaVuSans-Bold-4c" transform="translate(118.017578 0.015625)"/>
     <use xlink:href="#DejaVuSans-Bold-4a" transform="translate(152.294922 0.015625)"/>
     <use xlink:href="#DejaVuSans-Bold-4c" transform="translate(223.876953 0.015625)"/>
     <use xlink:href="#DejaVuSans-Bold-51" transform="translate(258.154297 0.015625)"/>
     <use xlink:href="#DejaVuSans-Bold-44" transform="translate(329.345703 0.015625)"/>
     <use xlink:href="#DejaVuSans-Bold-4f" transform="translate(396.826172 0.015625)"/>
     <use xlink:href="#DejaVuSans-Bold-3" transform="translate(431.103516 0.015625)"/>
     <use xlink:href="#DejaVuSans-Bold-46" transform="translate(465.917969 0.015625)"/>
     <use xlink:href="#DejaVuSans-Bold-4f" transform="translate(525.195312 0.015625)"/>
     <use xlink:href="#DejaVuSans-Bold-58" transform="translate(559.472656 0.015625)"/>
     <use xlink:href="#DejaVuSans-Bold-56" transform="translate(630.664062 0.015625)"/>
     <use xlink:href="#DejaVuSans-Bold-57" transform="translate(690.185547 0.015625)"/>
     <use xlink:href="#DejaVuSans-Bold-48" transform="translate(737.988281 0.015625)"/>
     <use xlink:href="#DejaVuSans-Bold-55" transform="translate(805.810547 0.015625)"/>
     <use xlink:href="#DejaVuSans-Bold-3" transform="translate(855.126953 0.015625)"/>
     <use xlink:href="#DejaVuSans-Oblique-26" transform="translate(889.941406 0.015625)"/>
    </g>
   </g>
   <g id="text_13">
    <!-- Cluster-wise stability -->
    <g style="fill: #1e293b" transform="translate(475.809375 35.595254) scale(0.12 -0.12)">
     <defs>
      <path id="DejaVuSans-Bold-5a" d="M 225 3500 
L 1313 3500 
L 1900 1088 
L 2491 3500 
L 3425 3500 
L 4013 1113 
L 4603 3500 
L 5691 3500 
L 4769 0 
L 3547 0 
L 2956 2406 
L 2369 0 
L 1147 0 
L 225 3500 
z
" transform="scale(0.015625)"/>
      <path id="DejaVuSans-Bold-45" d="M 2400 722 
Q 2759 722 2948 984 
Q 3138 1247 3138 1747 
Q 3138 2247 2948 2509 
Q 2759 2772 2400 2772 
Q 2041 2772 1848 2508 
Q 1656 2244 1656 1747 
Q 1656 1250 1848 986 
Q 2041 722 2400 722 
z
M 1656 2988 
Q 1888 3294 2169 3439 
Q 2450 3584 2816 3584 
Q 3463 3584 3878 3070 
Q 4294 2556 4294 1747 
Q 4294 938 3878 423 
Q 3463 -91 2816 -91 
Q 2450 -91 2169 54 
Q 1888 200 1656 506 
L 1656 0 
L 538 0 
L 538 4863 
L 1656 4863 
L 1656 2988 
z
" transform="scale(0.015625)"/>
      <path id="DejaVuSans-Bold-5c" d="M 78 3500 
L 1197 3500 
L 2138 1125 
L 2938 3500 
L 4056 3500 
L 2584 -331 
Q 2363 -916 2067 -1148 
Q 1772 -1381 1288 -1381 
L 641 -1381 
L 641 -647 
L 991 -647 
Q 1275 -647 1404 -556 
Q 1534 -466 1606 -231 
L 1638 -134 
L 78 3500 
z
" transform="scale(0.015625)"/>
     </defs>
     <use xlink:href="#DejaVuSans-Bold-26"/>
     <use xlink:href="#DejaVuSans-Bold-4f" transform="translate(73.390625 0)"/>
     <use xlink:href="#DejaVuSans-Bold-58" transform="translate(107.671875 0)"/>
     <use xlink:href="#DejaVuSans-Bold-56" transform="translate(178.859375 0)"/>
     <use xlink:href="#DejaVuSans-Bold-57" transform="translate(238.375 0)"/>
     <use xlink:href="#DejaVuSans-Bold-48" transform="translate(286.171875 0)"/>
     <use xlink:href="#DejaVuSans-Bold-55" transform="translate(354 0)"/>
     <use xlink:href="#DejaVuSans-Bold-10" transform="translate(403.3125 0)"/>
     <use xlink:href="#DejaVuSans-Bold-5a" transform="translate(444.8125 0)"/>
     <use xlink:href="#DejaVuSans-Bold-4c" transform="translate(537.203125 0)"/>
     <use xlink:href="#DejaVuSans-Bold-56" transform="translate(571.484375 0)"/>
     <use xlink:href="#DejaVuSans-Bold-48" transform="translate(631 0)"/>
     <use xlink:href="#DejaVuSans-Bold-3" transform="translate(698.828125 0)"/>
     <use xlink:href="#DejaVuSans-Bold-56" transform="translate(733.640625 0)"/>
     <use xlink:href="#DejaVuSans-Bold-57" transform="translate(793.15625 0)"/>
     <use xlink:href="#DejaVuSans-Bold-44" transform="translate(840.953125 0)"/>
     <use xlink:href="#DejaVuSans-Bold-45" transform="translate(908.4375 0)"/>
     <use xlink:href="#DejaVuSans-Bold-4c" transform="translate(980.015625 0)"/>
     <use xlink:href="#DejaVuSans-Bold-4f" transform="translate(1014.296875 0)"/>
     <use xlink:href="#DejaVuSans-Bold-4c" transform="translate(1048.578125 0)"/>
     <use xlink:href="#DejaVuSans-Bold-57" transform="translate(1082.859375 0)"/>
     <use xlink:href="#DejaVuSans-Bold-5c" transform="translate(1130.65625 0)"/>
    </g>
   </g>
  </g>
 </g>
 <defs>
  <clipPath id="pddcde8de9d">
   <rect x="10.8" y="41.595254" width="350.64" height="291.209492"/>
  </clipPath>
  <clipPath id="pfd1a2a4ec6">
   <rect x="372.24" y="41.595254" width="350.64" height="291.209492"/>
  </clipPath>
 </defs>
</svg>
