<?xml version="1.0" encoding="utf-8" standalone="no"?>
<!DOCTYPE svg PUBLIC "-//W3C//DTD SVG 1.1//EN"
  "http://www.w3.org/Graphics/SVG/1.1/DTD/svg11.dtd">
<svg xmlns:xlink="http://www.w3.org/1999/xlink" width="676.8pt" height="316.8pt" viewBox="0 0 676.8 316.8" xmlns="http://www.w3.org/2000/svg" version="1.1">
 <metadata>
  <rdf:RDF xmlns:dc="http://purl.org/dc/elements/1.1/" xmlns:cc="http://creativecommons.org/ns#" xmlns:rdf="http://www.w3.org/1999/02/22-rdf-syntax-ns#">
   <cc:Work>
    <dc:type rdf:resource="http://purl.org/dc/dcmitype/StillImage"/>
    <dc:date>2026-07-23T17:46:09.465497</dc:date>
    <dc:format>image/svg+xml</dc:format>
    <dc:creator>
     <cc:Agent>
      <dc:title>Matplotlib v3.11.0, https://matplotlib.org/</dc:title>
     </cc:Agent>
    </dc:creator>
   </cc:Work>
  </rdf:RDF>
 </metadata>
 <defs>
  <style type="text/css">*{stroke-linejoin: round; stroke-linecap: butt}</style>
 </defs>
 <g id="figure_1">
  <g id="patch_1">
   <path d="M 0 316.8 
L 676.8 316.8 
L 676.8 0 
L 0 0 
z
" style="fill: #ffffff"/>
  </g>
  <g id="axes_1">
   <g id="PathCollection_1">
    <defs>
     <path id="C0_0_821a73d4e7" d="M 0 2.54951 
C 0.676138 2.54951 1.324674 2.280877 1.802776 1.802776 
C 2.280877 1.324674 2.54951 0.676138 2.54951 -0 
C 2.54951 -0.676138 2.280877 -1.324674 1.802776 -1.802776 
C 1.324674 -2.280877 0.676138 -2.54951 0 -2.54951 
C -0.676138 -2.54951 -1.324674 -2.280877 -1.802776 -1.802776 
C -2.280877 -1.324674 -2.54951 -0.676138 -2.54951 0 
C -2.54951 0.676138 -2.280877 1.324674 -1.802776 1.802776 
C -1.324674 2.280877 -0.676138 2.54951 0 2.54951 
z
"/>
    </defs>
    <g clip-path="url(#p3cd4f5d55c)">
     <use xlink:href="#C0_0_821a73d4e7" x="134.899591" y="169.592249" style="fill: #059669; fill-opacity: 0.85"/>
    </g>
    <g clip-path="url(#p3cd4f5d55c)">
     <use xlink:href="#C0_0_821a73d4e7" x="113.578482" y="143.474671" style="fill: #059669; fill-opacity: 0.85"/>
    </g>
    <g clip-path="url(#p3cd4f5d55c)">
     <use xlink:href="#C0_0_821a73d4e7" x="102.138327" y="138.847722" style="fill: #059669; fill-opacity: 0.85"/>
    </g>
    <g clip-path="url(#p3cd4f5d55c)">
     <use xlink:href="#C0_0_821a73d4e7" x="81.546176" y="139.062339" style="fill: #059669; fill-opacity: 0.85"/>
    </g>
    <g clip-path="url(#p3cd4f5d55c)">
     <use xlink:href="#C0_0_821a73d4e7" x="96.717938" y="92.356557" style="fill: #059669; fill-opacity: 0.85"/>
    </g>
    <g clip-path="url(#p3cd4f5d55c)">
     <use xlink:href="#C0_0_821a73d4e7" x="111.051825" y="140.648112" style="fill: #059669; fill-opacity: 0.85"/>
    </g>
    <g clip-path="url(#p3cd4f5d55c)">
     <use xlink:href="#C0_0_821a73d4e7" x="104.389732" y="144.792138" style="fill: #059669; fill-opacity: 0.85"/>
    </g>
    <g clip-path="url(#p3cd4f5d55c)">
     <use xlink:href="#C0_0_821a73d4e7" x="94.222481" y="141.149603" style="fill: #059669; fill-opacity: 0.85"/>
    </g>
    <g clip-path="url(#p3cd4f5d55c)">
     <use xlink:href="#C0_0_821a73d4e7" x="114.417318" y="139.149331" style="fill: #059669; fill-opacity: 0.85"/>
    </g>
    <g clip-path="url(#p3cd4f5d55c)">
     <use xlink:href="#C0_0_821a73d4e7" x="120.668699" y="138.640202" style="fill: #059669; fill-opacity: 0.85"/>
    </g>
    <g clip-path="url(#p3cd4f5d55c)">
     <use xlink:href="#C0_0_821a73d4e7" x="108.404101" y="115.705673" style="fill: #059669; fill-opacity: 0.85"/>
    </g>
    <g clip-path="url(#p3cd4f5d55c)">
     <use xlink:href="#C0_0_821a73d4e7" x="115.247135" y="142.65299" style="fill: #059669; fill-opacity: 0.85"/>
    </g>
    <g clip-path="url(#p3cd4f5d55c)">
     <use xlink:href="#C0_0_821a73d4e7" x="105.683178" y="128.913556" style="fill: #059669; fill-opacity: 0.85"/>
    </g>
    <g clip-path="url(#p3cd4f5d55c)">
     <use xlink:href="#C0_0_821a73d4e7" x="133.50915" y="139.557495" style="fill: #059669; fill-opacity: 0.85"/>
    </g>
    <g clip-path="url(#p3cd4f5d55c)">
     <use xlink:href="#C0_0_821a73d4e7" x="104.885423" y="122.846438" style="fill: #059669; fill-opacity: 0.85"/>
    </g>
    <g clip-path="url(#p3cd4f5d55c)">
     <use xlink:href="#C0_0_821a73d4e7" x="96.43879" y="139.84785" style="fill: #059669; fill-opacity: 0.85"/>
    </g>
    <g clip-path="url(#p3cd4f5d55c)">
     <use xlink:href="#C0_0_821a73d4e7" x="119.680439" y="128.390325" style="fill: #059669; fill-opacity: 0.85"/>
    </g>
    <g clip-path="url(#p3cd4f5d55c)">
     <use xlink:href="#C0_0_821a73d4e7" x="109.287746" y="127.211105" style="fill: #059669; fill-opacity: 0.85"/>
    </g>
    <g clip-path="url(#p3cd4f5d55c)">
     <use xlink:href="#C0_0_821a73d4e7" x="70.928111" y="122.596899" style="fill: #059669; fill-opacity: 0.85"/>
    </g>
    <g clip-path="url(#p3cd4f5d55c)">
     <use xlink:href="#C0_0_821a73d4e7" x="95.477266" y="157.937978" style="fill: #059669; fill-opacity: 0.85"/>
    </g>
    <g clip-path="url(#p3cd4f5d55c)">
     <use xlink:href="#C0_0_821a73d4e7" x="111.717401" y="126.811168" style="fill: #059669; fill-opacity: 0.85"/>
    </g>
    <g clip-path="url(#p3cd4f5d55c)">
     <use xlink:href="#C0_0_821a73d4e7" x="102.241881" y="150.15729" style="fill: #059669; fill-opacity: 0.85"/>
    </g>
    <g clip-path="url(#p3cd4f5d55c)">
     <use xlink:href="#C0_0_821a73d4e7" x="108.428608" y="136.708151" style="fill: #059669; fill-opacity: 0.85"/>
    </g>
    <g clip-path="url(#p3cd4f5d55c)">
     <use xlink:href="#C0_0_821a73d4e7" x="126.55255" y="126.195466" style="fill: #059669; fill-opacity: 0.85"/>
    </g>
    <g clip-path="url(#p3cd4f5d55c)">
     <use xlink:href="#C0_0_821a73d4e7" x="110.631781" y="121.410164" style="fill: #059669; fill-opacity: 0.85"/>
    </g>
    <g clip-path="url(#p3cd4f5d55c)">
     <use xlink:href="#C0_0_821a73d4e7" x="105.385147" y="148.179892" style="fill: #059669; fill-opacity: 0.85"/>
    </g>
    <g clip-path="url(#p3cd4f5d55c)">
     <use xlink:href="#C0_0_821a73d4e7" x="115.758909" y="128.361573" style="fill: #059669; fill-opacity: 0.85"/>
    </g>
    <g clip-path="url(#p3cd4f5d55c)">
     <use xlink:href="#C0_0_821a73d4e7" x="105.262884" y="146.299919" style="fill: #059669; fill-opacity: 0.85"/>
    </g>
    <g clip-path="url(#p3cd4f5d55c)">
     <use xlink:href="#C0_0_821a73d4e7" x="111.096066" y="168.780686" style="fill: #059669; fill-opacity: 0.85"/>
    </g>
    <g clip-path="url(#p3cd4f5d55c)">
     <use xlink:href="#C0_0_821a73d4e7" x="117.152442" y="129.559394" style="fill: #059669; fill-opacity: 0.85"/>
    </g>
    <g clip-path="url(#p3cd4f5d55c)">
     <use xlink:href="#C0_0_821a73d4e7" x="86.553566" y="135.209059" style="fill: #059669; fill-opacity: 0.85"/>
    </g>
    <g clip-path="url(#p3cd4f5d55c)">
     <use xlink:href="#C0_0_821a73d4e7" x="95.418736" y="126.066539" style="fill: #059669; fill-opacity: 0.85"/>
    </g>
    <g clip-path="url(#p3cd4f5d55c)">
     <use xlink:href="#C0_0_821a73d4e7" x="81.35986" y="148.030049" style="fill: #059669; fill-opacity: 0.85"/>
    </g>
    <g clip-path="url(#p3cd4f5d55c)">
     <use xlink:href="#C0_0_821a73d4e7" x="117.408051" y="120.82199" style="fill: #059669; fill-opacity: 0.85"/>
    </g>
    <g clip-path="url(#p3cd4f5d55c)">
     <use xlink:href="#C0_0_821a73d4e7" x="79.732837" y="142.55854" style="fill: #059669; fill-opacity: 0.85"/>
    </g>
    <g clip-path="url(#p3cd4f5d55c)">
     <use xlink:href="#C0_0_821a73d4e7" x="112.395" y="144.019208" style="fill: #059669; fill-opacity: 0.85"/>
    </g>
    <g clip-path="url(#p3cd4f5d55c)">
     <use xlink:href="#C0_0_821a73d4e7" x="128.98369" y="151.665841" style="fill: #059669; fill-opacity: 0.85"/>
    </g>
    <g clip-path="url(#p3cd4f5d55c)">
     <use xlink:href="#C0_0_821a73d4e7" x="112.743321" y="149.789413" style="fill: #059669; fill-opacity: 0.85"/>
    </g>
    <g clip-path="url(#p3cd4f5d55c)">
     <use xlink:href="#C0_0_821a73d4e7" x="126.557343" y="136.299601" style="fill: #059669; fill-opacity: 0.85"/>
    </g>
    <g clip-path="url(#p3cd4f5d55c)">
     <use xlink:href="#C0_0_821a73d4e7" x="103.19463" y="158.58918" style="fill: #059669; fill-opacity: 0.85"/>
    </g>
   </g>
   <g id="PathCollection_2">
    <defs>
     <path id="C1_0_05be1a8ec4" d="M 0 2.54951 
C 0.676138 2.54951 1.324674 2.280877 1.802776 1.802776 
C 2.280877 1.324674 2.54951 0.676138 2.54951 -0 
C 2.54951 -0.676138 2.280877 -1.324674 1.802776 -1.802776 
C 1.324674 -2.280877 0.676138 -2.54951 0 -2.54951 
C -0.676138 -2.54951 -1.324674 -2.280877 -1.802776 -1.802776 
C -2.280877 -1.324674 -2.54951 -0.676138 -2.54951 0 
C -2.54951 0.676138 -2.280877 1.324674 -1.802776 1.802776 
C -1.324674 2.280877 -0.676138 2.54951 0 2.54951 
z
"/>
    </defs>
    <g clip-path="url(#p3cd4f5d55c)">
     <use xlink:href="#C1_0_05be1a8ec4" x="235.288156" y="126.124905" style="fill: #0369a1; fill-opacity: 0.85"/>
    </g>
    <g clip-path="url(#p3cd4f5d55c)">
     <use xlink:href="#C1_0_05be1a8ec4" x="223.09237" y="121.065309" style="fill: #0369a1; fill-opacity: 0.85"/>
    </g>
    <g clip-path="url(#p3cd4f5d55c)">
     <use xlink:href="#C1_0_05be1a8ec4" x="217.780064" y="144.413758" style="fill: #0369a1; fill-opacity: 0.85"/>
    </g>
    <g clip-path="url(#p3cd4f5d55c)">
     <use xlink:href="#C1_0_05be1a8ec4" x="202.678004" y="146.528413" style="fill: #0369a1; fill-opacity: 0.85"/>
    </g>
    <g clip-path="url(#p3cd4f5d55c)">
     <use xlink:href="#C1_0_05be1a8ec4" x="231.192248" y="155.202075" style="fill: #0369a1; fill-opacity: 0.85"/>
    </g>
    <g clip-path="url(#p3cd4f5d55c)">
     <use xlink:href="#C1_0_05be1a8ec4" x="205.356533" y="140.235741" style="fill: #0369a1; fill-opacity: 0.85"/>
    </g>
    <g clip-path="url(#p3cd4f5d55c)">
     <use xlink:href="#C1_0_05be1a8ec4" x="216.142932" y="128.456024" style="fill: #0369a1; fill-opacity: 0.85"/>
    </g>
    <g clip-path="url(#p3cd4f5d55c)">
     <use xlink:href="#C1_0_05be1a8ec4" x="196.7808" y="158.744586" style="fill: #0369a1; fill-opacity: 0.85"/>
    </g>
    <g clip-path="url(#p3cd4f5d55c)">
     <use xlink:href="#C1_0_05be1a8ec4" x="213.133823" y="120.070968" style="fill: #0369a1; fill-opacity: 0.85"/>
    </g>
    <g clip-path="url(#p3cd4f5d55c)">
     <use xlink:href="#C1_0_05be1a8ec4" x="223.138278" y="133.181855" style="fill: #0369a1; fill-opacity: 0.85"/>
    </g>
    <g clip-path="url(#p3cd4f5d55c)">
     <use xlink:href="#C1_0_05be1a8ec4" x="209.02493" y="132.162547" style="fill: #0369a1; fill-opacity: 0.85"/>
    </g>
    <g clip-path="url(#p3cd4f5d55c)">
     <use xlink:href="#C1_0_05be1a8ec4" x="209.994807" y="125.278431" style="fill: #0369a1; fill-opacity: 0.85"/>
    </g>
    <g clip-path="url(#p3cd4f5d55c)">
     <use xlink:href="#C1_0_05be1a8ec4" x="202.754126" y="134.251455" style="fill: #0369a1; fill-opacity: 0.85"/>
    </g>
    <g clip-path="url(#p3cd4f5d55c)">
     <use xlink:href="#C1_0_05be1a8ec4" x="211.736355" y="128.876319" style="fill: #0369a1; fill-opacity: 0.85"/>
    </g>
    <g clip-path="url(#p3cd4f5d55c)">
     <use xlink:href="#C1_0_05be1a8ec4" x="216.143188" y="102.512006" style="fill: #0369a1; fill-opacity: 0.85"/>
    </g>
    <g clip-path="url(#p3cd4f5d55c)">
     <use xlink:href="#C1_0_05be1a8ec4" x="232.881603" y="116.35055" style="fill: #0369a1; fill-opacity: 0.85"/>
    </g>
    <g clip-path="url(#p3cd4f5d55c)">
     <use xlink:href="#C1_0_05be1a8ec4" x="186.396193" y="140.486324" style="fill: #0369a1; fill-opacity: 0.85"/>
    </g>
    <g clip-path="url(#p3cd4f5d55c)">
     <use xlink:href="#C1_0_05be1a8ec4" x="205.195706" y="129.016081" style="fill: #0369a1; fill-opacity: 0.85"/>
    </g>
    <g clip-path="url(#p3cd4f5d55c)">
     <use xlink:href="#C1_0_05be1a8ec4" x="183.249271" y="120.584218" style="fill: #0369a1; fill-opacity: 0.85"/>
    </g>
    <g clip-path="url(#p3cd4f5d55c)">
     <use xlink:href="#C1_0_05be1a8ec4" x="227.210171" y="153.122146" style="fill: #0369a1; fill-opacity: 0.85"/>
    </g>
    <g clip-path="url(#p3cd4f5d55c)">
     <use xlink:href="#C1_0_05be1a8ec4" x="200.335348" y="146.541183" style="fill: #0369a1; fill-opacity: 0.85"/>
    </g>
    <g clip-path="url(#p3cd4f5d55c)">
     <use xlink:href="#C1_0_05be1a8ec4" x="213.760653" y="127.593867" style="fill: #0369a1; fill-opacity: 0.85"/>
    </g>
    <g clip-path="url(#p3cd4f5d55c)">
     <use xlink:href="#C1_0_05be1a8ec4" x="240.097571" y="138.609239" style="fill: #0369a1; fill-opacity: 0.85"/>
    </g>
    <g clip-path="url(#p3cd4f5d55c)">
     <use xlink:href="#C1_0_05be1a8ec4" x="223.275501" y="133.973214" style="fill: #0369a1; fill-opacity: 0.85"/>
    </g>
    <g clip-path="url(#p3cd4f5d55c)">
     <use xlink:href="#C1_0_05be1a8ec4" x="236.314268" y="126.264444" style="fill: #0369a1; fill-opacity: 0.85"/>
    </g>
    <g clip-path="url(#p3cd4f5d55c)">
     <use xlink:href="#C1_0_05be1a8ec4" x="231.172252" y="150.173967" style="fill: #0369a1; fill-opacity: 0.85"/>
    </g>
    <g clip-path="url(#p3cd4f5d55c)">
     <use xlink:href="#C1_0_05be1a8ec4" x="210.666101" y="146.706731" style="fill: #0369a1; fill-opacity: 0.85"/>
    </g>
    <g clip-path="url(#p3cd4f5d55c)">
     <use xlink:href="#C1_0_05be1a8ec4" x="232.964277" y="127.374866" style="fill: #0369a1; fill-opacity: 0.85"/>
    </g>
    <g clip-path="url(#p3cd4f5d55c)">
     <use xlink:href="#C1_0_05be1a8ec4" x="209.182737" y="141.959802" style="fill: #0369a1; fill-opacity: 0.85"/>
    </g>
    <g clip-path="url(#p3cd4f5d55c)">
     <use xlink:href="#C1_0_05be1a8ec4" x="219.559494" y="145.231603" style="fill: #0369a1; fill-opacity: 0.85"/>
    </g>
    <g clip-path="url(#p3cd4f5d55c)">
     <use xlink:href="#C1_0_05be1a8ec4" x="200.965457" y="129.692009" style="fill: #0369a1; fill-opacity: 0.85"/>
    </g>
    <g clip-path="url(#p3cd4f5d55c)">
     <use xlink:href="#C1_0_05be1a8ec4" x="245.5532" y="139.248918" style="fill: #0369a1; fill-opacity: 0.85"/>
    </g>
    <g clip-path="url(#p3cd4f5d55c)">
     <use xlink:href="#C1_0_05be1a8ec4" x="205.888684" y="151.402157" style="fill: #0369a1; fill-opacity: 0.85"/>
    </g>
    <g clip-path="url(#p3cd4f5d55c)">
     <use xlink:href="#C1_0_05be1a8ec4" x="195.652036" y="129.11775" style="fill: #0369a1; fill-opacity: 0.85"/>
    </g>
    <g clip-path="url(#p3cd4f5d55c)">
     <use xlink:href="#C1_0_05be1a8ec4" x="224.369929" y="135.8946" style="fill: #0369a1; fill-opacity: 0.85"/>
    </g>
    <g clip-path="url(#p3cd4f5d55c)">
     <use xlink:href="#C1_0_05be1a8ec4" x="217.561303" y="134.492193" style="fill: #0369a1; fill-opacity: 0.85"/>
    </g>
    <g clip-path="url(#p3cd4f5d55c)">
     <use xlink:href="#C1_0_05be1a8ec4" x="215.013508" y="156.066285" style="fill: #0369a1; fill-opacity: 0.85"/>
    </g>
    <g clip-path="url(#p3cd4f5d55c)">
     <use xlink:href="#C1_0_05be1a8ec4" x="207.17292" y="134.550491" style="fill: #0369a1; fill-opacity: 0.85"/>
    </g>
    <g clip-path="url(#p3cd4f5d55c)">
     <use xlink:href="#C1_0_05be1a8ec4" x="202.902334" y="142.27462" style="fill: #0369a1; fill-opacity: 0.85"/>
    </g>
    <g clip-path="url(#p3cd4f5d55c)">
     <use xlink:href="#C1_0_05be1a8ec4" x="202.429967" y="140.396722" style="fill: #0369a1; fill-opacity: 0.85"/>
    </g>
   </g>
   <g id="text_1">
    <!-- silhouette 0.78 · 50% / 50% -->
    <g style="fill: #6b7280" transform="translate(94.678908 199.829769) scale(0.095 -0.095)">
     <defs>
      <path id="DejaVuSans-56" d="M 2834 3397 
L 2834 2853 
Q 2591 2978 2328 3040 
Q 2066 3103 1784 3103 
Q 1356 3103 1142 2972 
Q 928 2841 928 2578 
Q 928 2378 1081 2264 
Q 1234 2150 1697 2047 
L 1894 2003 
Q 2506 1872 2764 1633 
Q 3022 1394 3022 966 
Q 3022 478 2636 193 
Q 2250 -91 1575 -91 
Q 1294 -91 989 -36 
Q 684 19 347 128 
L 347 722 
Q 666 556 975 473 
Q 1284 391 1588 391 
Q 1994 391 2212 530 
Q 2431 669 2431 922 
Q 2431 1156 2273 1281 
Q 2116 1406 1581 1522 
L 1381 1569 
Q 847 1681 609 1914 
Q 372 2147 372 2553 
Q 372 3047 722 3315 
Q 1072 3584 1716 3584 
Q 2034 3584 2315 3537 
Q 2597 3491 2834 3397 
z
" transform="scale(0.015625)"/>
      <path id="DejaVuSans-4c" d="M 603 3500 
L 1178 3500 
L 1178 0 
L 603 0 
L 603 3500 
z
M 603 4863 
L 1178 4863 
L 1178 4134 
L 603 4134 
L 603 4863 
z
" transform="scale(0.015625)"/>
      <path id="DejaVuSans-4f" d="M 603 4863 
L 1178 4863 
L 1178 0 
L 603 0 
L 603 4863 
z
" transform="scale(0.015625)"/>
      <path id="DejaVuSans-4b" d="M 3513 2113 
L 3513 0 
L 2938 0 
L 2938 2094 
Q 2938 2591 2744 2837 
Q 2550 3084 2163 3084 
Q 1697 3084 1428 2787 
Q 1159 2491 1159 1978 
L 1159 0 
L 581 0 
L 581 4863 
L 1159 4863 
L 1159 2956 
Q 1366 3272 1645 3428 
Q 1925 3584 2291 3584 
Q 2894 3584 3203 3211 
Q 3513 2838 3513 2113 
z
" transform="scale(0.015625)"/>
      <path id="DejaVuSans-52" d="M 1959 3097 
Q 1497 3097 1228 2736 
Q 959 2375 959 1747 
Q 959 1119 1226 758 
Q 1494 397 1959 397 
Q 2419 397 2687 759 
Q 2956 1122 2956 1747 
Q 2956 2369 2687 2733 
Q 2419 3097 1959 3097 
z
M 1959 3584 
Q 2709 3584 3137 3096 
Q 3566 2609 3566 1747 
Q 3566 888 3137 398 
Q 2709 -91 1959 -91 
Q 1206 -91 779 398 
Q 353 888 353 1747 
Q 353 2609 779 3096 
Q 1206 3584 1959 3584 
z
" transform="scale(0.015625)"/>
      <path id="DejaVuSans-58" d="M 544 1381 
L 544 3500 
L 1119 3500 
L 1119 1403 
Q 1119 906 1312 657 
Q 1506 409 1894 409 
Q 2359 409 2629 706 
Q 2900 1003 2900 1516 
L 2900 3500 
L 3475 3500 
L 3475 0 
L 2900 0 
L 2900 538 
Q 2691 219 2414 64 
Q 2138 -91 1772 -91 
Q 1169 -91 856 284 
Q 544 659 544 1381 
z
M 1991 3584 
L 1991 3584 
z
" transform="scale(0.015625)"/>
      <path id="DejaVuSans-48" d="M 3597 1894 
L 3597 1613 
L 953 1613 
Q 991 1019 1311 708 
Q 1631 397 2203 397 
Q 2534 397 2845 478 
Q 3156 559 3463 722 
L 3463 178 
Q 3153 47 2828 -22 
Q 2503 -91 2169 -91 
Q 1331 -91 842 396 
Q 353 884 353 1716 
Q 353 2575 817 3079 
Q 1281 3584 2069 3584 
Q 2775 3584 3186 3129 
Q 3597 2675 3597 1894 
z
M 3022 2063 
Q 3016 2534 2758 2815 
Q 2500 3097 2075 3097 
Q 1594 3097 1305 2825 
Q 1016 2553 972 2059 
L 3022 2063 
z
" transform="scale(0.015625)"/>
      <path id="DejaVuSans-57" d="M 1172 4494 
L 1172 3500 
L 2356 3500 
L 2356 3053 
L 1172 3053 
L 1172 1153 
Q 1172 725 1289 603 
Q 1406 481 1766 481 
L 2356 481 
L 2356 0 
L 1766 0 
Q 1100 0 847 248 
Q 594 497 594 1153 
L 594 3053 
L 172 3053 
L 172 3500 
L 594 3500 
L 594 4494 
L 1172 4494 
z
" transform="scale(0.015625)"/>
      <path id="DejaVuSans-3" transform="scale(0.015625)"/>
      <path id="DejaVuSans-13" d="M 2034 4250 
Q 1547 4250 1301 3770 
Q 1056 3291 1056 2328 
Q 1056 1369 1301 889 
Q 1547 409 2034 409 
Q 2525 409 2770 889 
Q 3016 1369 3016 2328 
Q 3016 3291 2770 3770 
Q 2525 4250 2034 4250 
z
M 2034 4750 
Q 2819 4750 3233 4129 
Q 3647 3509 3647 2328 
Q 3647 1150 3233 529 
Q 2819 -91 2034 -91 
Q 1250 -91 836 529 
Q 422 1150 422 2328 
Q 422 3509 836 4129 
Q 1250 4750 2034 4750 
z
" transform="scale(0.015625)"/>
      <path id="DejaVuSans-11" d="M 684 794 
L 1344 794 
L 1344 0 
L 684 0 
L 684 794 
z
" transform="scale(0.015625)"/>
      <path id="DejaVuSans-1a" d="M 525 4666 
L 3525 4666 
L 3525 4397 
L 1831 0 
L 1172 0 
L 2766 4134 
L 525 4134 
L 525 4666 
z
" transform="scale(0.015625)"/>
      <path id="DejaVuSans-1b" d="M 2034 2216 
Q 1584 2216 1326 1975 
Q 1069 1734 1069 1313 
Q 1069 891 1326 650 
Q 1584 409 2034 409 
Q 2484 409 2743 651 
Q 3003 894 3003 1313 
Q 3003 1734 2745 1975 
Q 2488 2216 2034 2216 
z
M 1403 2484 
Q 997 2584 770 2862 
Q 544 3141 544 3541 
Q 544 4100 942 4425 
Q 1341 4750 2034 4750 
Q 2731 4750 3128 4425 
Q 3525 4100 3525 3541 
Q 3525 3141 3298 2862 
Q 3072 2584 2669 2484 
Q 3125 2378 3379 2068 
Q 3634 1759 3634 1313 
Q 3634 634 3220 271 
Q 2806 -91 2034 -91 
Q 1263 -91 848 271 
Q 434 634 434 1313 
Q 434 1759 690 2068 
Q 947 2378 1403 2484 
z
M 1172 3481 
Q 1172 3119 1398 2916 
Q 1625 2713 2034 2713 
Q 2441 2713 2670 2916 
Q 2900 3119 2900 3481 
Q 2900 3844 2670 4047 
Q 2441 4250 2034 4250 
Q 1625 4250 1398 4047 
Q 1172 3844 1172 3481 
z
" transform="scale(0.015625)"/>
      <path id="DejaVuSans-79" d="M 684 2619 
L 1344 2619 
L 1344 1825 
L 684 1825 
L 684 2619 
z
" transform="scale(0.015625)"/>
      <path id="DejaVuSans-18" d="M 691 4666 
L 3169 4666 
L 3169 4134 
L 1269 4134 
L 1269 2991 
Q 1406 3038 1543 3061 
Q 1681 3084 1819 3084 
Q 2600 3084 3056 2656 
Q 3513 2228 3513 1497 
Q 3513 744 3044 326 
Q 2575 -91 1722 -91 
Q 1428 -91 1123 -41 
Q 819 9 494 109 
L 494 744 
Q 775 591 1075 516 
Q 1375 441 1709 441 
Q 2250 441 2565 725 
Q 2881 1009 2881 1497 
Q 2881 1984 2565 2268 
Q 2250 2553 1709 2553 
Q 1456 2553 1204 2497 
Q 953 2441 691 2322 
L 691 4666 
z
" transform="scale(0.015625)"/>
      <path id="DejaVuSans-8" d="M 4653 2053 
Q 4381 2053 4226 1822 
Q 4072 1591 4072 1178 
Q 4072 772 4226 539 
Q 4381 306 4653 306 
Q 4919 306 5073 539 
Q 5228 772 5228 1178 
Q 5228 1588 5073 1820 
Q 4919 2053 4653 2053 
z
M 4653 2450 
Q 5147 2450 5437 2106 
Q 5728 1763 5728 1178 
Q 5728 594 5436 251 
Q 5144 -91 4653 -91 
Q 4153 -91 3862 251 
Q 3572 594 3572 1178 
Q 3572 1766 3864 2108 
Q 4156 2450 4653 2450 
z
M 1428 4353 
Q 1159 4353 1004 4120 
Q 850 3888 850 3481 
Q 850 3069 1003 2837 
Q 1156 2606 1428 2606 
Q 1700 2606 1854 2837 
Q 2009 3069 2009 3481 
Q 2009 3884 1853 4118 
Q 1697 4353 1428 4353 
z
M 4250 4750 
L 4750 4750 
L 1831 -91 
L 1331 -91 
L 4250 4750 
z
M 1428 4750 
Q 1922 4750 2215 4408 
Q 2509 4066 2509 3481 
Q 2509 2891 2217 2550 
Q 1925 2209 1428 2209 
Q 931 2209 642 2551 
Q 353 2894 353 3481 
Q 353 4063 643 4406 
Q 934 4750 1428 4750 
z
" transform="scale(0.015625)"/>
      <path id="DejaVuSans-12" d="M 1625 4666 
L 2156 4666 
L 531 -594 
L 0 -594 
L 1625 4666 
z
" transform="scale(0.015625)"/>
     </defs>
     <use xlink:href="#DejaVuSans-56"/>
     <use xlink:href="#DejaVuSans-4c" transform="translate(52.09375 0)"/>
     <use xlink:href="#DejaVuSans-4f" transform="translate(79.875 0)"/>
     <use xlink:href="#DejaVuSans-4b" transform="translate(107.65625 0)"/>
     <use xlink:href="#DejaVuSans-52" transform="translate(171.03125 0)"/>
     <use xlink:href="#DejaVuSans-58" transform="translate(232.21875 0)"/>
     <use xlink:href="#DejaVuSans-48" transform="translate(295.59375 0)"/>
     <use xlink:href="#DejaVuSans-57" transform="translate(357.125 0)"/>
     <use xlink:href="#DejaVuSans-57" transform="translate(396.328125 0)"/>
     <use xlink:href="#DejaVuSans-48" transform="translate(435.53125 0)"/>
     <use xlink:href="#DejaVuSans-3" transform="translate(497.0625 0)"/>
     <use xlink:href="#DejaVuSans-13" transform="translate(528.84375 0)"/>
     <use xlink:href="#DejaVuSans-11" transform="translate(592.46875 0)"/>
     <use xlink:href="#DejaVuSans-1a" transform="translate(624.25 0)"/>
     <use xlink:href="#DejaVuSans-1b" transform="translate(687.875 0)"/>
     <use xlink:href="#DejaVuSans-3" transform="translate(751.5 0)"/>
     <use xlink:href="#DejaVuSans-79" transform="translate(783.28125 0)"/>
     <use xlink:href="#DejaVuSans-3" transform="translate(815.0625 0)"/>
     <use xlink:href="#DejaVuSans-18" transform="translate(846.84375 0)"/>
     <use xlink:href="#DejaVuSans-13" transform="translate(910.46875 0)"/>
     <use xlink:href="#DejaVuSans-8" transform="translate(974.09375 0)"/>
     <use xlink:href="#DejaVuSans-3" transform="translate(1069.109375 0)"/>
     <use xlink:href="#DejaVuSans-12" transform="translate(1100.890625 0)"/>
     <use xlink:href="#DejaVuSans-3" transform="translate(1134.578125 0)"/>
     <use xlink:href="#DejaVuSans-18" transform="translate(1166.359375 0)"/>
     <use xlink:href="#DejaVuSans-13" transform="translate(1229.984375 0)"/>
     <use xlink:href="#DejaVuSans-8" transform="translate(1293.609375 0)"/>
    </g>
   </g>
   <g id="text_2">
    <!-- A real split -->
    <g style="fill: #1e293b" transform="translate(136.630938 17.401091) scale(0.115 -0.115)">
     <defs>
      <path id="DejaVuSans-Bold-24" d="M 3419 850 
L 1538 850 
L 1241 0 
L 31 0 
L 1759 4666 
L 3194 4666 
L 4922 0 
L 3713 0 
L 3419 850 
z
M 1838 1716 
L 3116 1716 
L 2478 3572 
L 1838 1716 
z
" transform="scale(0.015625)"/>
      <path id="DejaVuSans-Bold-3" transform="scale(0.015625)"/>
      <path id="DejaVuSans-Bold-55" d="M 3138 2547 
Q 2991 2616 2845 2648 
Q 2700 2681 2553 2681 
Q 2122 2681 1889 2404 
Q 1656 2128 1656 1613 
L 1656 0 
L 538 0 
L 538 3500 
L 1656 3500 
L 1656 2925 
Q 1872 3269 2151 3426 
Q 2431 3584 2822 3584 
Q 2878 3584 2943 3579 
Q 3009 3575 3134 3559 
L 3138 2547 
z
" transform="scale(0.015625)"/>
      <path id="DejaVuSans-Bold-48" d="M 4031 1759 
L 4031 1441 
L 1416 1441 
Q 1456 1047 1700 850 
Q 1944 653 2381 653 
Q 2734 653 3104 758 
Q 3475 863 3866 1075 
L 3866 213 
Q 3469 63 3072 -14 
Q 2675 -91 2278 -91 
Q 1328 -91 801 392 
Q 275 875 275 1747 
Q 275 2603 792 3093 
Q 1309 3584 2216 3584 
Q 3041 3584 3536 3087 
Q 4031 2591 4031 1759 
z
M 2881 2131 
Q 2881 2450 2695 2645 
Q 2509 2841 2209 2841 
Q 1884 2841 1681 2658 
Q 1478 2475 1428 2131 
L 2881 2131 
z
" transform="scale(0.015625)"/>
      <path id="DejaVuSans-Bold-44" d="M 2106 1575 
Q 1756 1575 1579 1456 
Q 1403 1338 1403 1106 
Q 1403 894 1545 773 
Q 1688 653 1941 653 
Q 2256 653 2472 879 
Q 2688 1106 2688 1447 
L 2688 1575 
L 2106 1575 
z
M 3816 1997 
L 3816 0 
L 2688 0 
L 2688 519 
Q 2463 200 2181 54 
Q 1900 -91 1497 -91 
Q 953 -91 614 226 
Q 275 544 275 1050 
Q 275 1666 698 1953 
Q 1122 2241 2028 2241 
L 2688 2241 
L 2688 2328 
Q 2688 2594 2478 2717 
Q 2269 2841 1825 2841 
Q 1466 2841 1156 2769 
Q 847 2697 581 2553 
L 581 3406 
Q 941 3494 1303 3539 
Q 1666 3584 2028 3584 
Q 2975 3584 3395 3211 
Q 3816 2838 3816 1997 
z
" transform="scale(0.015625)"/>
      <path id="DejaVuSans-Bold-4f" d="M 538 4863 
L 1656 4863 
L 1656 0 
L 538 0 
L 538 4863 
z
" transform="scale(0.015625)"/>
      <path id="DejaVuSans-Bold-56" d="M 3272 3391 
L 3272 2541 
Q 2913 2691 2578 2766 
Q 2244 2841 1947 2841 
Q 1628 2841 1473 2761 
Q 1319 2681 1319 2516 
Q 1319 2381 1436 2309 
Q 1553 2238 1856 2203 
L 2053 2175 
Q 2913 2066 3209 1816 
Q 3506 1566 3506 1031 
Q 3506 472 3093 190 
Q 2681 -91 1863 -91 
Q 1516 -91 1145 -36 
Q 775 19 384 128 
L 384 978 
Q 719 816 1070 734 
Q 1422 653 1784 653 
Q 2113 653 2278 743 
Q 2444 834 2444 1013 
Q 2444 1163 2330 1236 
Q 2216 1309 1875 1350 
L 1678 1375 
Q 931 1469 631 1722 
Q 331 1975 331 2491 
Q 331 3047 712 3315 
Q 1094 3584 1881 3584 
Q 2191 3584 2531 3537 
Q 2872 3491 3272 3391 
z
" transform="scale(0.015625)"/>
      <path id="DejaVuSans-Bold-53" d="M 1656 506 
L 1656 -1331 
L 538 -1331 
L 538 3500 
L 1656 3500 
L 1656 2988 
Q 1888 3294 2169 3439 
Q 2450 3584 2816 3584 
Q 3463 3584 3878 3070 
Q 4294 2556 4294 1747 
Q 4294 938 3878 423 
Q 3463 -91 2816 -91 
Q 2450 -91 2169 54 
Q 1888 200 1656 506 
z
M 2400 2772 
Q 2041 2772 1848 2508 
Q 1656 2244 1656 1747 
Q 1656 1250 1848 986 
Q 2041 722 2400 722 
Q 2759 722 2948 984 
Q 3138 1247 3138 1747 
Q 3138 2247 2948 2509 
Q 2759 2772 2400 2772 
z
" transform="scale(0.015625)"/>
      <path id="DejaVuSans-Bold-4c" d="M 538 3500 
L 1656 3500 
L 1656 0 
L 538 0 
L 538 3500 
z
M 538 4863 
L 1656 4863 
L 1656 3950 
L 538 3950 
L 538 4863 
z
" transform="scale(0.015625)"/>
      <path id="DejaVuSans-Bold-57" d="M 1759 4494 
L 1759 3500 
L 2913 3500 
L 2913 2700 
L 1759 2700 
L 1759 1216 
Q 1759 972 1856 886 
Q 1953 800 2241 800 
L 2816 800 
L 2816 0 
L 1856 0 
Q 1194 0 917 276 
Q 641 553 641 1216 
L 641 2700 
L 84 2700 
L 84 3500 
L 641 3500 
L 641 4494 
L 1759 4494 
z
" transform="scale(0.015625)"/>
     </defs>
     <use xlink:href="#DejaVuSans-Bold-24"/>
     <use xlink:href="#DejaVuSans-Bold-3" transform="translate(77.390625 0)"/>
     <use xlink:href="#DejaVuSans-Bold-55" transform="translate(112.203125 0)"/>
     <use xlink:href="#DejaVuSans-Bold-48" transform="translate(161.515625 0)"/>
     <use xlink:href="#DejaVuSans-Bold-44" transform="translate(229.34375 0)"/>
     <use xlink:href="#DejaVuSans-Bold-4f" transform="translate(296.828125 0)"/>
     <use xlink:href="#DejaVuSans-Bold-3" transform="translate(331.109375 0)"/>
     <use xlink:href="#DejaVuSans-Bold-56" transform="translate(365.921875 0)"/>
     <use xlink:href="#DejaVuSans-Bold-53" transform="translate(425.4375 0)"/>
     <use xlink:href="#DejaVuSans-Bold-4f" transform="translate(497.015625 0)"/>
     <use xlink:href="#DejaVuSans-Bold-4c" transform="translate(531.296875 0)"/>
     <use xlink:href="#DejaVuSans-Bold-57" transform="translate(565.578125 0)"/>
    </g>
   </g>
  </g>
  <g id="axes_2">
   <g id="PathCollection_3">
    <defs>
     <path id="C2_0_0111bcb86a" d="M 0 2.345208 
C 0.621956 2.345208 1.218523 2.098102 1.658312 1.658312 
C 2.098102 1.218523 2.345208 0.621956 2.345208 -0 
C 2.345208 -0.621956 2.098102 -1.218523 1.658312 -1.658312 
C 1.218523 -2.098102 0.621956 -2.345208 0 -2.345208 
C -0.621956 -2.345208 -1.218523 -2.098102 -1.658312 -1.658312 
C -2.098102 -1.218523 -2.345208 -0.621956 -2.345208 0 
C -2.345208 0.621956 -2.098102 1.218523 -1.658312 1.658312 
C -1.218523 2.098102 -0.621956 2.345208 0 2.345208 
z
"/>
    </defs>
    <g clip-path="url(#p8266605bb3)">
     <use xlink:href="#C2_0_0111bcb86a" x="509.650591" y="143.64625" style="fill: #0369a1; fill-opacity: 0.75"/>
    </g>
    <g clip-path="url(#p8266605bb3)">
     <use xlink:href="#C2_0_0111bcb86a" x="490.750595" y="120.742454" style="fill: #0369a1; fill-opacity: 0.75"/>
    </g>
    <g clip-path="url(#p8266605bb3)">
     <use xlink:href="#C2_0_0111bcb86a" x="505.740293" y="104.197776" style="fill: #0369a1; fill-opacity: 0.75"/>
    </g>
    <g clip-path="url(#p8266605bb3)">
     <use xlink:href="#C2_0_0111bcb86a" x="454.402263" y="119.932748" style="fill: #0369a1; fill-opacity: 0.75"/>
    </g>
    <g clip-path="url(#p8266605bb3)">
     <use xlink:href="#C2_0_0111bcb86a" x="484.586601" y="133.487109" style="fill: #0369a1; fill-opacity: 0.75"/>
    </g>
    <g clip-path="url(#p8266605bb3)">
     <use xlink:href="#C2_0_0111bcb86a" x="509.361757" y="115.683553" style="fill: #0369a1; fill-opacity: 0.75"/>
    </g>
    <g clip-path="url(#p8266605bb3)">
     <use xlink:href="#C2_0_0111bcb86a" x="513.146177" y="133.103942" style="fill: #0369a1; fill-opacity: 0.75"/>
    </g>
    <g clip-path="url(#p8266605bb3)">
     <use xlink:href="#C2_0_0111bcb86a" x="523.850367" y="141.326286" style="fill: #0369a1; fill-opacity: 0.75"/>
    </g>
    <g clip-path="url(#p8266605bb3)">
     <use xlink:href="#C2_0_0111bcb86a" x="490.992504" y="121.012111" style="fill: #0369a1; fill-opacity: 0.75"/>
    </g>
    <g clip-path="url(#p8266605bb3)">
     <use xlink:href="#C2_0_0111bcb86a" x="483.289882" y="95.457073" style="fill: #0369a1; fill-opacity: 0.75"/>
    </g>
    <g clip-path="url(#p8266605bb3)">
     <use xlink:href="#C2_0_0111bcb86a" x="512.768091" y="95.181749" style="fill: #0369a1; fill-opacity: 0.75"/>
    </g>
    <g clip-path="url(#p8266605bb3)">
     <use xlink:href="#C2_0_0111bcb86a" x="493.139542" y="143.205333" style="fill: #0369a1; fill-opacity: 0.75"/>
    </g>
    <g clip-path="url(#p8266605bb3)">
     <use xlink:href="#C2_0_0111bcb86a" x="496.77392" y="122.227868" style="fill: #0369a1; fill-opacity: 0.75"/>
    </g>
    <g clip-path="url(#p8266605bb3)">
     <use xlink:href="#C2_0_0111bcb86a" x="482.61316" y="128.888515" style="fill: #0369a1; fill-opacity: 0.75"/>
    </g>
    <g clip-path="url(#p8266605bb3)">
     <use xlink:href="#C2_0_0111bcb86a" x="493.323195" y="105.690396" style="fill: #0369a1; fill-opacity: 0.75"/>
    </g>
    <g clip-path="url(#p8266605bb3)">
     <use xlink:href="#C2_0_0111bcb86a" x="481.200339" y="116.379722" style="fill: #0369a1; fill-opacity: 0.75"/>
    </g>
    <g clip-path="url(#p8266605bb3)">
     <use xlink:href="#C2_0_0111bcb86a" x="481.553915" y="154.045292" style="fill: #0369a1; fill-opacity: 0.75"/>
    </g>
    <g clip-path="url(#p8266605bb3)">
     <use xlink:href="#C2_0_0111bcb86a" x="480.306979" y="158.353749" style="fill: #0369a1; fill-opacity: 0.75"/>
    </g>
    <g clip-path="url(#p8266605bb3)">
     <use xlink:href="#C2_0_0111bcb86a" x="496.385446" y="116.659398" style="fill: #0369a1; fill-opacity: 0.75"/>
    </g>
    <g clip-path="url(#p8266605bb3)">
     <use xlink:href="#C2_0_0111bcb86a" x="496.722622" y="124.297177" style="fill: #0369a1; fill-opacity: 0.75"/>
    </g>
    <g clip-path="url(#p8266605bb3)">
     <use xlink:href="#C2_0_0111bcb86a" x="524.272886" y="130.947012" style="fill: #0369a1; fill-opacity: 0.75"/>
    </g>
    <g clip-path="url(#p8266605bb3)">
     <use xlink:href="#C2_0_0111bcb86a" x="497.301599" y="141.177771" style="fill: #0369a1; fill-opacity: 0.75"/>
    </g>
    <g clip-path="url(#p8266605bb3)">
     <use xlink:href="#C2_0_0111bcb86a" x="463.453482" y="121.755594" style="fill: #0369a1; fill-opacity: 0.75"/>
    </g>
    <g clip-path="url(#p8266605bb3)">
     <use xlink:href="#C2_0_0111bcb86a" x="460.671574" y="123.765051" style="fill: #0369a1; fill-opacity: 0.75"/>
    </g>
    <g clip-path="url(#p8266605bb3)">
     <use xlink:href="#C2_0_0111bcb86a" x="493.369817" y="114.86657" style="fill: #0369a1; fill-opacity: 0.75"/>
    </g>
    <g clip-path="url(#p8266605bb3)">
     <use xlink:href="#C2_0_0111bcb86a" x="492.366614" y="151.465791" style="fill: #0369a1; fill-opacity: 0.75"/>
    </g>
    <g clip-path="url(#p8266605bb3)">
     <use xlink:href="#C2_0_0111bcb86a" x="500.356216" y="146.530217" style="fill: #0369a1; fill-opacity: 0.75"/>
    </g>
    <g clip-path="url(#p8266605bb3)">
     <use xlink:href="#C2_0_0111bcb86a" x="490.242215" y="135.229267" style="fill: #0369a1; fill-opacity: 0.75"/>
    </g>
    <g clip-path="url(#p8266605bb3)">
     <use xlink:href="#C2_0_0111bcb86a" x="491.11323" y="139.558772" style="fill: #0369a1; fill-opacity: 0.75"/>
    </g>
    <g clip-path="url(#p8266605bb3)">
     <use xlink:href="#C2_0_0111bcb86a" x="478.014428" y="139.564994" style="fill: #0369a1; fill-opacity: 0.75"/>
    </g>
    <g clip-path="url(#p8266605bb3)">
     <use xlink:href="#C2_0_0111bcb86a" x="453.504063" y="138.968108" style="fill: #0369a1; fill-opacity: 0.75"/>
    </g>
    <g clip-path="url(#p8266605bb3)">
     <use xlink:href="#C2_0_0111bcb86a" x="471.152272" y="114.988902" style="fill: #0369a1; fill-opacity: 0.75"/>
    </g>
    <g clip-path="url(#p8266605bb3)">
     <use xlink:href="#C2_0_0111bcb86a" x="517.473861" y="172.633959" style="fill: #0369a1; fill-opacity: 0.75"/>
    </g>
    <g clip-path="url(#p8266605bb3)">
     <use xlink:href="#C2_0_0111bcb86a" x="496.358539" y="138.386866" style="fill: #0369a1; fill-opacity: 0.75"/>
    </g>
    <g clip-path="url(#p8266605bb3)">
     <use xlink:href="#C2_0_0111bcb86a" x="473.992781" y="126.036538" style="fill: #0369a1; fill-opacity: 0.75"/>
    </g>
    <g clip-path="url(#p8266605bb3)">
     <use xlink:href="#C2_0_0111bcb86a" x="484.97314" y="169.191223" style="fill: #0369a1; fill-opacity: 0.75"/>
    </g>
    <g clip-path="url(#p8266605bb3)">
     <use xlink:href="#C2_0_0111bcb86a" x="488.633339" y="138.797704" style="fill: #0369a1; fill-opacity: 0.75"/>
    </g>
    <g clip-path="url(#p8266605bb3)">
     <use xlink:href="#C2_0_0111bcb86a" x="495.6362" y="159.124163" style="fill: #0369a1; fill-opacity: 0.75"/>
    </g>
    <g clip-path="url(#p8266605bb3)">
     <use xlink:href="#C2_0_0111bcb86a" x="505.194315" y="122.21134" style="fill: #0369a1; fill-opacity: 0.75"/>
    </g>
    <g clip-path="url(#p8266605bb3)">
     <use xlink:href="#C2_0_0111bcb86a" x="472.132553" y="148.381206" style="fill: #0369a1; fill-opacity: 0.75"/>
    </g>
    <g clip-path="url(#p8266605bb3)">
     <use xlink:href="#C2_0_0111bcb86a" x="492.130743" y="146.636998" style="fill: #0369a1; fill-opacity: 0.75"/>
    </g>
    <g clip-path="url(#p8266605bb3)">
     <use xlink:href="#C2_0_0111bcb86a" x="526.36714" y="132.104203" style="fill: #0369a1; fill-opacity: 0.75"/>
    </g>
    <g clip-path="url(#p8266605bb3)">
     <use xlink:href="#C2_0_0111bcb86a" x="474.670972" y="150.807163" style="fill: #0369a1; fill-opacity: 0.75"/>
    </g>
    <g clip-path="url(#p8266605bb3)">
     <use xlink:href="#C2_0_0111bcb86a" x="492.559935" y="92.925649" style="fill: #0369a1; fill-opacity: 0.75"/>
    </g>
    <g clip-path="url(#p8266605bb3)">
     <use xlink:href="#C2_0_0111bcb86a" x="490.292751" y="133.622535" style="fill: #0369a1; fill-opacity: 0.75"/>
    </g>
    <g clip-path="url(#p8266605bb3)">
     <use xlink:href="#C2_0_0111bcb86a" x="503.286717" y="136.768265" style="fill: #0369a1; fill-opacity: 0.75"/>
    </g>
    <g clip-path="url(#p8266605bb3)">
     <use xlink:href="#C2_0_0111bcb86a" x="536.444338" y="145.991337" style="fill: #0369a1; fill-opacity: 0.75"/>
    </g>
    <g clip-path="url(#p8266605bb3)">
     <use xlink:href="#C2_0_0111bcb86a" x="507.60655" y="133.003879" style="fill: #0369a1; fill-opacity: 0.75"/>
    </g>
    <g clip-path="url(#p8266605bb3)">
     <use xlink:href="#C2_0_0111bcb86a" x="505.297835" y="158.099562" style="fill: #0369a1; fill-opacity: 0.75"/>
    </g>
    <g clip-path="url(#p8266605bb3)">
     <use xlink:href="#C2_0_0111bcb86a" x="526.824317" y="138.296091" style="fill: #0369a1; fill-opacity: 0.75"/>
    </g>
    <g clip-path="url(#p8266605bb3)">
     <use xlink:href="#C2_0_0111bcb86a" x="494.279806" y="153.563718" style="fill: #0369a1; fill-opacity: 0.75"/>
    </g>
    <g clip-path="url(#p8266605bb3)">
     <use xlink:href="#C2_0_0111bcb86a" x="479.942939" y="125.424926" style="fill: #0369a1; fill-opacity: 0.75"/>
    </g>
    <g clip-path="url(#p8266605bb3)">
     <use xlink:href="#C2_0_0111bcb86a" x="512.15422" y="121.877297" style="fill: #0369a1; fill-opacity: 0.75"/>
    </g>
    <g clip-path="url(#p8266605bb3)">
     <use xlink:href="#C2_0_0111bcb86a" x="516.329768" y="122.604892" style="fill: #0369a1; fill-opacity: 0.75"/>
    </g>
    <g clip-path="url(#p8266605bb3)">
     <use xlink:href="#C2_0_0111bcb86a" x="494.172795" y="120.314377" style="fill: #0369a1; fill-opacity: 0.75"/>
    </g>
    <g clip-path="url(#p8266605bb3)">
     <use xlink:href="#C2_0_0111bcb86a" x="504.779939" y="137.902839" style="fill: #0369a1; fill-opacity: 0.75"/>
    </g>
    <g clip-path="url(#p8266605bb3)">
     <use xlink:href="#C2_0_0111bcb86a" x="507.26626" y="111.883875" style="fill: #0369a1; fill-opacity: 0.75"/>
    </g>
    <g clip-path="url(#p8266605bb3)">
     <use xlink:href="#C2_0_0111bcb86a" x="498.041266" y="142.700757" style="fill: #0369a1; fill-opacity: 0.75"/>
    </g>
    <g clip-path="url(#p8266605bb3)">
     <use xlink:href="#C2_0_0111bcb86a" x="507.128095" y="100.340478" style="fill: #0369a1; fill-opacity: 0.75"/>
    </g>
    <g clip-path="url(#p8266605bb3)">
     <use xlink:href="#C2_0_0111bcb86a" x="489.686554" y="137.747701" style="fill: #0369a1; fill-opacity: 0.75"/>
    </g>
    <g clip-path="url(#p8266605bb3)">
     <use xlink:href="#C2_0_0111bcb86a" x="491.078549" y="113.060317" style="fill: #0369a1; fill-opacity: 0.75"/>
    </g>
    <g clip-path="url(#p8266605bb3)">
     <use xlink:href="#C2_0_0111bcb86a" x="459.156206" y="129.148586" style="fill: #0369a1; fill-opacity: 0.75"/>
    </g>
    <g clip-path="url(#p8266605bb3)">
     <use xlink:href="#C2_0_0111bcb86a" x="516.016206" y="151.281536" style="fill: #0369a1; fill-opacity: 0.75"/>
    </g>
    <g clip-path="url(#p8266605bb3)">
     <use xlink:href="#C2_0_0111bcb86a" x="521.585224" y="125.967921" style="fill: #0369a1; fill-opacity: 0.75"/>
    </g>
    <g clip-path="url(#p8266605bb3)">
     <use xlink:href="#C2_0_0111bcb86a" x="483.333735" y="132.183639" style="fill: #0369a1; fill-opacity: 0.75"/>
    </g>
    <g clip-path="url(#p8266605bb3)">
     <use xlink:href="#C2_0_0111bcb86a" x="464.8377" y="146.630348" style="fill: #0369a1; fill-opacity: 0.75"/>
    </g>
    <g clip-path="url(#p8266605bb3)">
     <use xlink:href="#C2_0_0111bcb86a" x="527.927768" y="152.790956" style="fill: #0369a1; fill-opacity: 0.75"/>
    </g>
    <g clip-path="url(#p8266605bb3)">
     <use xlink:href="#C2_0_0111bcb86a" x="528.259377" y="137.546196" style="fill: #0369a1; fill-opacity: 0.75"/>
    </g>
    <g clip-path="url(#p8266605bb3)">
     <use xlink:href="#C2_0_0111bcb86a" x="512.307431" y="135.191237" style="fill: #0369a1; fill-opacity: 0.75"/>
    </g>
    <g clip-path="url(#p8266605bb3)">
     <use xlink:href="#C2_0_0111bcb86a" x="451.568209" y="146.763238" style="fill: #0369a1; fill-opacity: 0.75"/>
    </g>
    <g clip-path="url(#p8266605bb3)">
     <use xlink:href="#C2_0_0111bcb86a" x="497.201959" y="157.617325" style="fill: #0369a1; fill-opacity: 0.75"/>
    </g>
    <g clip-path="url(#p8266605bb3)">
     <use xlink:href="#C2_0_0111bcb86a" x="468.349032" y="129.142195" style="fill: #0369a1; fill-opacity: 0.75"/>
    </g>
    <g clip-path="url(#p8266605bb3)">
     <use xlink:href="#C2_0_0111bcb86a" x="481.44972" y="167.844136" style="fill: #0369a1; fill-opacity: 0.75"/>
    </g>
    <g clip-path="url(#p8266605bb3)">
     <use xlink:href="#C2_0_0111bcb86a" x="480.798432" y="119.85995" style="fill: #0369a1; fill-opacity: 0.75"/>
    </g>
    <g clip-path="url(#p8266605bb3)">
     <use xlink:href="#C2_0_0111bcb86a" x="484.746851" y="118.470386" style="fill: #0369a1; fill-opacity: 0.75"/>
    </g>
    <g clip-path="url(#p8266605bb3)">
     <use xlink:href="#C2_0_0111bcb86a" x="522.30399" y="135.404859" style="fill: #0369a1; fill-opacity: 0.75"/>
    </g>
    <g clip-path="url(#p8266605bb3)">
     <use xlink:href="#C2_0_0111bcb86a" x="472.435559" y="160.444227" style="fill: #0369a1; fill-opacity: 0.75"/>
    </g>
    <g clip-path="url(#p8266605bb3)">
     <use xlink:href="#C2_0_0111bcb86a" x="493.145836" y="119.478599" style="fill: #0369a1; fill-opacity: 0.75"/>
    </g>
   </g>
   <g id="PathCollection_4">
    <defs>
     <path id="mb526facaea" d="M 0 4.743416 
C 1.257969 4.743416 2.464584 4.24362 3.354102 3.354102 
C 4.24362 2.464584 4.743416 1.257969 4.743416 0 
C 4.743416 -1.257969 4.24362 -2.464584 3.354102 -3.354102 
C 2.464584 -4.24362 1.257969 -4.743416 0 -4.743416 
C -1.257969 -4.743416 -2.464584 -4.24362 -3.354102 -3.354102 
C -4.24362 -2.464584 -4.743416 -1.257969 -4.743416 0 
C -4.743416 1.257969 -4.24362 2.464584 -3.354102 3.354102 
C -2.464584 4.24362 -1.257969 4.743416 0 4.743416 
z
" style="stroke: #ffffff; stroke-width: 1.2"/>
    </defs>
    <g clip-path="url(#p8266605bb3)">
     <use xlink:href="#mb526facaea" x="594.99124" y="68.446711" style="fill: #dc2626; stroke: #ffffff; stroke-width: 1.2"/>
     <use xlink:href="#mb526facaea" x="602.498843" y="211.091174" style="fill: #dc2626; stroke: #ffffff; stroke-width: 1.2"/>
    </g>
   </g>
   <g id="text_3">
    <!-- silhouette 0.99 · 98.7% / 1.3% -->
    <g style="fill: #6b7280" transform="translate(421.637501 248.62919) scale(0.095 -0.095)">
     <defs>
      <path id="DejaVuSans-1c" d="M 703 97 
L 703 672 
Q 941 559 1184 500 
Q 1428 441 1663 441 
Q 2288 441 2617 861 
Q 2947 1281 2994 2138 
Q 2813 1869 2534 1725 
Q 2256 1581 1919 1581 
Q 1219 1581 811 2004 
Q 403 2428 403 3163 
Q 403 3881 828 4315 
Q 1253 4750 1959 4750 
Q 2769 4750 3195 4129 
Q 3622 3509 3622 2328 
Q 3622 1225 3098 567 
Q 2575 -91 1691 -91 
Q 1453 -91 1209 -44 
Q 966 3 703 97 
z
M 1959 2075 
Q 2384 2075 2632 2365 
Q 2881 2656 2881 3163 
Q 2881 3666 2632 3958 
Q 2384 4250 1959 4250 
Q 1534 4250 1286 3958 
Q 1038 3666 1038 3163 
Q 1038 2656 1286 2365 
Q 1534 2075 1959 2075 
z
" transform="scale(0.015625)"/>
      <path id="DejaVuSans-14" d="M 794 531 
L 1825 531 
L 1825 4091 
L 703 3866 
L 703 4441 
L 1819 4666 
L 2450 4666 
L 2450 531 
L 3481 531 
L 3481 0 
L 794 0 
L 794 531 
z
" transform="scale(0.015625)"/>
      <path id="DejaVuSans-16" d="M 2597 2516 
Q 3050 2419 3304 2112 
Q 3559 1806 3559 1356 
Q 3559 666 3084 287 
Q 2609 -91 1734 -91 
Q 1441 -91 1130 -33 
Q 819 25 488 141 
L 488 750 
Q 750 597 1062 519 
Q 1375 441 1716 441 
Q 2309 441 2620 675 
Q 2931 909 2931 1356 
Q 2931 1769 2642 2001 
Q 2353 2234 1838 2234 
L 1294 2234 
L 1294 2753 
L 1863 2753 
Q 2328 2753 2575 2939 
Q 2822 3125 2822 3475 
Q 2822 3834 2567 4026 
Q 2313 4219 1838 4219 
Q 1578 4219 1281 4162 
Q 984 4106 628 3988 
L 628 4550 
Q 988 4650 1302 4700 
Q 1616 4750 1894 4750 
Q 2613 4750 3031 4423 
Q 3450 4097 3450 3541 
Q 3450 3153 3228 2886 
Q 3006 2619 2597 2516 
z
" transform="scale(0.015625)"/>
     </defs>
     <use xlink:href="#DejaVuSans-56"/>
     <use xlink:href="#DejaVuSans-4c" transform="translate(52.09375 0)"/>
     <use xlink:href="#DejaVuSans-4f" transform="translate(79.875 0)"/>
     <use xlink:href="#DejaVuSans-4b" transform="translate(107.65625 0)"/>
     <use xlink:href="#DejaVuSans-52" transform="translate(171.03125 0)"/>
     <use xlink:href="#DejaVuSans-58" transform="translate(232.21875 0)"/>
     <use xlink:href="#DejaVuSans-48" transform="translate(295.59375 0)"/>
     <use xlink:href="#DejaVuSans-57" transform="translate(357.125 0)"/>
     <use xlink:href="#DejaVuSans-57" transform="translate(396.328125 0)"/>
     <use xlink:href="#DejaVuSans-48" transform="translate(435.53125 0)"/>
     <use xlink:href="#DejaVuSans-3" transform="translate(497.0625 0)"/>
     <use xlink:href="#DejaVuSans-13" transform="translate(528.84375 0)"/>
     <use xlink:href="#DejaVuSans-11" transform="translate(592.46875 0)"/>
     <use xlink:href="#DejaVuSans-1c" transform="translate(624.25 0)"/>
     <use xlink:href="#DejaVuSans-1c" transform="translate(687.875 0)"/>
     <use xlink:href="#DejaVuSans-3" transform="translate(751.5 0)"/>
     <use xlink:href="#DejaVuSans-79" transform="translate(783.28125 0)"/>
     <use xlink:href="#DejaVuSans-3" transform="translate(815.0625 0)"/>
     <use xlink:href="#DejaVuSans-1c" transform="translate(846.84375 0)"/>
     <use xlink:href="#DejaVuSans-1b" transform="translate(910.46875 0)"/>
     <use xlink:href="#DejaVuSans-11" transform="translate(974.09375 0)"/>
     <use xlink:href="#DejaVuSans-1a" transform="translate(1005.875 0)"/>
     <use xlink:href="#DejaVuSans-8" transform="translate(1069.5 0)"/>
     <use xlink:href="#DejaVuSans-3" transform="translate(1164.515625 0)"/>
     <use xlink:href="#DejaVuSans-12" transform="translate(1196.296875 0)"/>
     <use xlink:href="#DejaVuSans-3" transform="translate(1229.984375 0)"/>
     <use xlink:href="#DejaVuSans-14" transform="translate(1261.765625 0)"/>
     <use xlink:href="#DejaVuSans-11" transform="translate(1325.390625 0)"/>
     <use xlink:href="#DejaVuSans-16" transform="translate(1357.171875 0)"/>
     <use xlink:href="#DejaVuSans-8" transform="translate(1420.796875 0)"/>
    </g>
   </g>
   <g id="text_4">
    <!-- `MAC000037`'s split -->
    <g style="fill: #1e293b" transform="translate(439.341016 17.401091) scale(0.115 -0.115)">
     <defs>
      <path id="DejaVuSans-Bold-43" d="M 1178 5119 
L 2059 3944 
L 1447 3944 
L 294 5119 
L 1178 5119 
z
" transform="scale(0.015625)"/>
      <path id="DejaVuSans-Bold-30" d="M 588 4666 
L 2119 4666 
L 3181 2169 
L 4250 4666 
L 5778 4666 
L 5778 0 
L 4641 0 
L 4641 3413 
L 3566 897 
L 2803 897 
L 1728 3413 
L 1728 0 
L 588 0 
L 588 4666 
z
" transform="scale(0.015625)"/>
      <path id="DejaVuSans-Bold-26" d="M 4288 256 
Q 3956 84 3597 -3 
Q 3238 -91 2847 -91 
Q 1681 -91 1000 561 
Q 319 1213 319 2328 
Q 319 3447 1000 4098 
Q 1681 4750 2847 4750 
Q 3238 4750 3597 4662 
Q 3956 4575 4288 4403 
L 4288 3438 
Q 3953 3666 3628 3772 
Q 3303 3878 2944 3878 
Q 2300 3878 1931 3465 
Q 1563 3053 1563 2328 
Q 1563 1606 1931 1193 
Q 2300 781 2944 781 
Q 3303 781 3628 887 
Q 3953 994 4288 1222 
L 4288 256 
z
" transform="scale(0.015625)"/>
      <path id="DejaVuSans-Bold-13" d="M 2944 2338 
Q 2944 3213 2780 3570 
Q 2616 3928 2228 3928 
Q 1841 3928 1675 3570 
Q 1509 3213 1509 2338 
Q 1509 1453 1675 1090 
Q 1841 728 2228 728 
Q 2613 728 2778 1090 
Q 2944 1453 2944 2338 
z
M 4147 2328 
Q 4147 1169 3647 539 
Q 3147 -91 2228 -91 
Q 1306 -91 806 539 
Q 306 1169 306 2328 
Q 306 3491 806 4120 
Q 1306 4750 2228 4750 
Q 3147 4750 3647 4120 
Q 4147 3491 4147 2328 
z
" transform="scale(0.015625)"/>
      <path id="DejaVuSans-Bold-16" d="M 2981 2516 
Q 3453 2394 3698 2092 
Q 3944 1791 3944 1325 
Q 3944 631 3412 270 
Q 2881 -91 1863 -91 
Q 1503 -91 1142 -33 
Q 781 25 428 141 
L 428 1069 
Q 766 900 1098 814 
Q 1431 728 1753 728 
Q 2231 728 2486 893 
Q 2741 1059 2741 1369 
Q 2741 1688 2480 1852 
Q 2219 2016 1709 2016 
L 1228 2016 
L 1228 2791 
L 1734 2791 
Q 2188 2791 2409 2933 
Q 2631 3075 2631 3366 
Q 2631 3634 2415 3781 
Q 2200 3928 1806 3928 
Q 1516 3928 1219 3862 
Q 922 3797 628 3669 
L 628 4550 
Q 984 4650 1334 4700 
Q 1684 4750 2022 4750 
Q 2931 4750 3382 4451 
Q 3834 4153 3834 3553 
Q 3834 3144 3618 2883 
Q 3403 2622 2981 2516 
z
" transform="scale(0.015625)"/>
      <path id="DejaVuSans-Bold-1a" d="M 428 4666 
L 3944 4666 
L 3944 3988 
L 2125 0 
L 953 0 
L 2675 3781 
L 428 3781 
L 428 4666 
z
" transform="scale(0.015625)"/>
      <path id="DejaVuSans-Bold-a" d="M 1350 4666 
L 1350 2931 
L 609 2931 
L 609 4666 
L 1350 4666 
z
" transform="scale(0.015625)"/>
     </defs>
     <use xlink:href="#DejaVuSans-Bold-43"/>
     <use xlink:href="#DejaVuSans-Bold-30" transform="translate(50 0)"/>
     <use xlink:href="#DejaVuSans-Bold-24" transform="translate(149.515625 0)"/>
     <use xlink:href="#DejaVuSans-Bold-26" transform="translate(226.90625 0)"/>
     <use xlink:href="#DejaVuSans-Bold-13" transform="translate(300.296875 0)"/>
     <use xlink:href="#DejaVuSans-Bold-13" transform="translate(369.875 0)"/>
     <use xlink:href="#DejaVuSans-Bold-13" transform="translate(439.453125 0)"/>
     <use xlink:href="#DejaVuSans-Bold-13" transform="translate(509.03125 0)"/>
     <use xlink:href="#DejaVuSans-Bold-16" transform="translate(578.609375 0)"/>
     <use xlink:href="#DejaVuSans-Bold-1a" transform="translate(648.1875 0)"/>
     <use xlink:href="#DejaVuSans-Bold-43" transform="translate(717.765625 0)"/>
     <use xlink:href="#DejaVuSans-Bold-a" transform="translate(767.765625 0)"/>
     <use xlink:href="#DejaVuSans-Bold-56" transform="translate(798.375 0)"/>
     <use xlink:href="#DejaVuSans-Bold-3" transform="translate(857.890625 0)"/>
     <use xlink:href="#DejaVuSans-Bold-56" transform="translate(892.703125 0)"/>
     <use xlink:href="#DejaVuSans-Bold-53" transform="translate(952.21875 0)"/>
     <use xlink:href="#DejaVuSans-Bold-4f" transform="translate(1023.796875 0)"/>
     <use xlink:href="#DejaVuSans-Bold-4c" transform="translate(1058.078125 0)"/>
     <use xlink:href="#DejaVuSans-Bold-57" transform="translate(1092.359375 0)"/>
    </g>
   </g>
  </g>
  <g id="text_5">
   <!-- Same formulas, same blind spot: the higher score belongs to the fake split -->
   <g style="fill: #6b7280" transform="translate(142.258359 307.296) scale(0.105 -0.105)">
    <defs>
     <path id="DejaVuSans-36" d="M 3425 4513 
L 3425 3897 
Q 3066 4069 2747 4153 
Q 2428 4238 2131 4238 
Q 1616 4238 1336 4038 
Q 1056 3838 1056 3469 
Q 1056 3159 1242 3001 
Q 1428 2844 1947 2747 
L 2328 2669 
Q 3034 2534 3370 2195 
Q 3706 1856 3706 1288 
Q 3706 609 3251 259 
Q 2797 -91 1919 -91 
Q 1588 -91 1214 -16 
Q 841 59 441 206 
L 441 856 
Q 825 641 1194 531 
Q 1563 422 1919 422 
Q 2459 422 2753 634 
Q 3047 847 3047 1241 
Q 3047 1584 2836 1778 
Q 2625 1972 2144 2069 
L 1759 2144 
Q 1053 2284 737 2584 
Q 422 2884 422 3419 
Q 422 4038 858 4394 
Q 1294 4750 2059 4750 
Q 2388 4750 2728 4690 
Q 3069 4631 3425 4513 
z
" transform="scale(0.015625)"/>
     <path id="DejaVuSans-44" d="M 2194 1759 
Q 1497 1759 1228 1600 
Q 959 1441 959 1056 
Q 959 750 1161 570 
Q 1363 391 1709 391 
Q 2188 391 2477 730 
Q 2766 1069 2766 1631 
L 2766 1759 
L 2194 1759 
z
M 3341 1997 
L 3341 0 
L 2766 0 
L 2766 531 
Q 2569 213 2275 61 
Q 1981 -91 1556 -91 
Q 1019 -91 701 211 
Q 384 513 384 1019 
Q 384 1609 779 1909 
Q 1175 2209 1959 2209 
L 2766 2209 
L 2766 2266 
Q 2766 2663 2505 2880 
Q 2244 3097 1772 3097 
Q 1472 3097 1187 3025 
Q 903 2953 641 2809 
L 641 3341 
Q 956 3463 1253 3523 
Q 1550 3584 1831 3584 
Q 2591 3584 2966 3190 
Q 3341 2797 3341 1997 
z
" transform="scale(0.015625)"/>
     <path id="DejaVuSans-50" d="M 3328 2828 
Q 3544 3216 3844 3400 
Q 4144 3584 4550 3584 
Q 5097 3584 5394 3201 
Q 5691 2819 5691 2113 
L 5691 0 
L 5113 0 
L 5113 2094 
Q 5113 2597 4934 2840 
Q 4756 3084 4391 3084 
Q 3944 3084 3684 2787 
Q 3425 2491 3425 1978 
L 3425 0 
L 2847 0 
L 2847 2094 
Q 2847 2600 2669 2842 
Q 2491 3084 2119 3084 
Q 1678 3084 1418 2786 
Q 1159 2488 1159 1978 
L 1159 0 
L 581 0 
L 581 3500 
L 1159 3500 
L 1159 2956 
Q 1356 3278 1631 3431 
Q 1906 3584 2284 3584 
Q 2666 3584 2933 3390 
Q 3200 3197 3328 2828 
z
" transform="scale(0.015625)"/>
     <path id="DejaVuSans-49" d="M 2375 4863 
L 2375 4384 
L 1825 4384 
Q 1516 4384 1395 4259 
Q 1275 4134 1275 3809 
L 1275 3500 
L 2222 3500 
L 2222 3053 
L 1275 3053 
L 1275 0 
L 697 0 
L 697 3053 
L 147 3053 
L 147 3500 
L 697 3500 
L 697 3744 
Q 697 4328 969 4595 
Q 1241 4863 1831 4863 
L 2375 4863 
z
" transform="scale(0.015625)"/>
     <path id="DejaVuSans-55" d="M 2631 2963 
Q 2534 3019 2420 3045 
Q 2306 3072 2169 3072 
Q 1681 3072 1420 2755 
Q 1159 2438 1159 1844 
L 1159 0 
L 581 0 
L 581 3500 
L 1159 3500 
L 1159 2956 
Q 1341 3275 1631 3429 
Q 1922 3584 2338 3584 
Q 2397 3584 2469 3576 
Q 2541 3569 2628 3553 
L 2631 2963 
z
" transform="scale(0.015625)"/>
     <path id="DejaVuSans-f" d="M 750 794 
L 1409 794 
L 1409 256 
L 897 -744 
L 494 -744 
L 750 256 
L 750 794 
z
" transform="scale(0.015625)"/>
     <path id="DejaVuSans-45" d="M 3116 1747 
Q 3116 2381 2855 2742 
Q 2594 3103 2138 3103 
Q 1681 3103 1420 2742 
Q 1159 2381 1159 1747 
Q 1159 1113 1420 752 
Q 1681 391 2138 391 
Q 2594 391 2855 752 
Q 3116 1113 3116 1747 
z
M 1159 2969 
Q 1341 3281 1617 3432 
Q 1894 3584 2278 3584 
Q 2916 3584 3314 3078 
Q 3713 2572 3713 1747 
Q 3713 922 3314 415 
Q 2916 -91 2278 -91 
Q 1894 -91 1617 61 
Q 1341 213 1159 525 
L 1159 0 
L 581 0 
L 581 4863 
L 1159 4863 
L 1159 2969 
z
" transform="scale(0.015625)"/>
     <path id="DejaVuSans-51" d="M 3513 2113 
L 3513 0 
L 2938 0 
L 2938 2094 
Q 2938 2591 2744 2837 
Q 2550 3084 2163 3084 
Q 1697 3084 1428 2787 
Q 1159 2491 1159 1978 
L 1159 0 
L 581 0 
L 581 3500 
L 1159 3500 
L 1159 2956 
Q 1366 3272 1645 3428 
Q 1925 3584 2291 3584 
Q 2894 3584 3203 3211 
Q 3513 2838 3513 2113 
z
" transform="scale(0.015625)"/>
     <path id="DejaVuSans-47" d="M 2906 2969 
L 2906 4863 
L 3481 4863 
L 3481 0 
L 2906 0 
L 2906 525 
Q 2725 213 2448 61 
Q 2172 -91 1784 -91 
Q 1150 -91 751 415 
Q 353 922 353 1747 
Q 353 2572 751 3078 
Q 1150 3584 1784 3584 
Q 2172 3584 2448 3432 
Q 2725 3281 2906 2969 
z
M 947 1747 
Q 947 1113 1208 752 
Q 1469 391 1925 391 
Q 2381 391 2643 752 
Q 2906 1113 2906 1747 
Q 2906 2381 2643 2742 
Q 2381 3103 1925 3103 
Q 1469 3103 1208 2742 
Q 947 2381 947 1747 
z
" transform="scale(0.015625)"/>
     <path id="DejaVuSans-53" d="M 1159 525 
L 1159 -1331 
L 581 -1331 
L 581 3500 
L 1159 3500 
L 1159 2969 
Q 1341 3281 1617 3432 
Q 1894 3584 2278 3584 
Q 2916 3584 3314 3078 
Q 3713 2572 3713 1747 
Q 3713 922 3314 415 
Q 2916 -91 2278 -91 
Q 1894 -91 1617 61 
Q 1341 213 1159 525 
z
M 3116 1747 
Q 3116 2381 2855 2742 
Q 2594 3103 2138 3103 
Q 1681 3103 1420 2742 
Q 1159 2381 1159 1747 
Q 1159 1113 1420 752 
Q 1681 391 2138 391 
Q 2594 391 2855 752 
Q 3116 1113 3116 1747 
z
" transform="scale(0.015625)"/>
     <path id="DejaVuSans-1d" d="M 750 794 
L 1409 794 
L 1409 0 
L 750 0 
L 750 794 
z
M 750 3309 
L 1409 3309 
L 1409 2516 
L 750 2516 
L 750 3309 
z
" transform="scale(0.015625)"/>
     <path id="DejaVuSans-4a" d="M 2906 1791 
Q 2906 2416 2648 2759 
Q 2391 3103 1925 3103 
Q 1463 3103 1205 2759 
Q 947 2416 947 1791 
Q 947 1169 1205 825 
Q 1463 481 1925 481 
Q 2391 481 2648 825 
Q 2906 1169 2906 1791 
z
M 3481 434 
Q 3481 -459 3084 -895 
Q 2688 -1331 1869 -1331 
Q 1566 -1331 1297 -1286 
Q 1028 -1241 775 -1147 
L 775 -588 
Q 1028 -725 1275 -790 
Q 1522 -856 1778 -856 
Q 2344 -856 2625 -561 
Q 2906 -266 2906 331 
L 2906 616 
Q 2728 306 2450 153 
Q 2172 0 1784 0 
Q 1141 0 747 490 
Q 353 981 353 1791 
Q 353 2603 747 3093 
Q 1141 3584 1784 3584 
Q 2172 3584 2450 3431 
Q 2728 3278 2906 2969 
L 2906 3500 
L 3481 3500 
L 3481 434 
z
" transform="scale(0.015625)"/>
     <path id="DejaVuSans-46" d="M 3122 3366 
L 3122 2828 
Q 2878 2963 2633 3030 
Q 2388 3097 2138 3097 
Q 1578 3097 1268 2742 
Q 959 2388 959 1747 
Q 959 1106 1268 751 
Q 1578 397 2138 397 
Q 2388 397 2633 464 
Q 2878 531 3122 666 
L 3122 134 
Q 2881 22 2623 -34 
Q 2366 -91 2075 -91 
Q 1284 -91 818 406 
Q 353 903 353 1747 
Q 353 2603 823 3093 
Q 1294 3584 2113 3584 
Q 2378 3584 2631 3529 
Q 2884 3475 3122 3366 
z
" transform="scale(0.015625)"/>
     <path id="DejaVuSans-4e" d="M 581 4863 
L 1159 4863 
L 1159 1991 
L 2875 3500 
L 3609 3500 
L 1753 1863 
L 3688 0 
L 2938 0 
L 1159 1709 
L 1159 0 
L 581 0 
L 581 4863 
z
" transform="scale(0.015625)"/>
    </defs>
    <use xlink:href="#DejaVuSans-36"/>
    <use xlink:href="#DejaVuSans-44" transform="translate(63.484375 0)"/>
    <use xlink:href="#DejaVuSans-50" transform="translate(124.765625 0)"/>
    <use xlink:href="#DejaVuSans-48" transform="translate(222.171875 0)"/>
    <use xlink:href="#DejaVuSans-3" transform="translate(283.703125 0)"/>
    <use xlink:href="#DejaVuSans-49" transform="translate(315.484375 0)"/>
    <use xlink:href="#DejaVuSans-52" transform="translate(350.6875 0)"/>
    <use xlink:href="#DejaVuSans-55" transform="translate(411.875 0)"/>
    <use xlink:href="#DejaVuSans-50" transform="translate(451.234375 0)"/>
    <use xlink:href="#DejaVuSans-58" transform="translate(548.640625 0)"/>
    <use xlink:href="#DejaVuSans-4f" transform="translate(612.015625 0)"/>
    <use xlink:href="#DejaVuSans-44" transform="translate(639.796875 0)"/>
    <use xlink:href="#DejaVuSans-56" transform="translate(701.078125 0)"/>
    <use xlink:href="#DejaVuSans-f" transform="translate(753.171875 0)"/>
    <use xlink:href="#DejaVuSans-3" transform="translate(784.953125 0)"/>
    <use xlink:href="#DejaVuSans-56" transform="translate(816.734375 0)"/>
    <use xlink:href="#DejaVuSans-44" transform="translate(868.828125 0)"/>
    <use xlink:href="#DejaVuSans-50" transform="translate(930.109375 0)"/>
    <use xlink:href="#DejaVuSans-48" transform="translate(1027.515625 0)"/>
    <use xlink:href="#DejaVuSans-3" transform="translate(1089.046875 0)"/>
    <use xlink:href="#DejaVuSans-45" transform="translate(1120.828125 0)"/>
    <use xlink:href="#DejaVuSans-4f" transform="translate(1184.3125 0)"/>
    <use xlink:href="#DejaVuSans-4c" transform="translate(1212.09375 0)"/>
    <use xlink:href="#DejaVuSans-51" transform="translate(1239.875 0)"/>
    <use xlink:href="#DejaVuSans-47" transform="translate(1303.25 0)"/>
    <use xlink:href="#DejaVuSans-3" transform="translate(1366.734375 0)"/>
    <use xlink:href="#DejaVuSans-56" transform="translate(1398.515625 0)"/>
    <use xlink:href="#DejaVuSans-53" transform="translate(1450.609375 0)"/>
    <use xlink:href="#DejaVuSans-52" transform="translate(1514.09375 0)"/>
    <use xlink:href="#DejaVuSans-57" transform="translate(1575.28125 0)"/>
    <use xlink:href="#DejaVuSans-1d" transform="translate(1614.484375 0)"/>
    <use xlink:href="#DejaVuSans-3" transform="translate(1648.171875 0)"/>
    <use xlink:href="#DejaVuSans-57" transform="translate(1679.953125 0)"/>
    <use xlink:href="#DejaVuSans-4b" transform="translate(1719.15625 0)"/>
    <use xlink:href="#DejaVuSans-48" transform="translate(1782.53125 0)"/>
    <use xlink:href="#DejaVuSans-3" transform="translate(1844.0625 0)"/>
    <use xlink:href="#DejaVuSans-4b" transform="translate(1875.84375 0)"/>
    <use xlink:href="#DejaVuSans-4c" transform="translate(1939.21875 0)"/>
    <use xlink:href="#DejaVuSans-4a" transform="translate(1967 0)"/>
    <use xlink:href="#DejaVuSans-4b" transform="translate(2030.484375 0)"/>
    <use xlink:href="#DejaVuSans-48" transform="translate(2093.859375 0)"/>
    <use xlink:href="#DejaVuSans-55" transform="translate(2155.390625 0)"/>
    <use xlink:href="#DejaVuSans-3" transform="translate(2196.5 0)"/>
    <use xlink:href="#DejaVuSans-56" transform="translate(2228.28125 0)"/>
    <use xlink:href="#DejaVuSans-46" transform="translate(2280.375 0)"/>
    <use xlink:href="#DejaVuSans-52" transform="translate(2335.359375 0)"/>
    <use xlink:href="#DejaVuSans-55" transform="translate(2396.546875 0)"/>
    <use xlink:href="#DejaVuSans-48" transform="translate(2435.453125 0)"/>
    <use xlink:href="#DejaVuSans-3" transform="translate(2496.984375 0)"/>
    <use xlink:href="#DejaVuSans-45" transform="translate(2528.765625 0)"/>
    <use xlink:href="#DejaVuSans-48" transform="translate(2592.25 0)"/>
    <use xlink:href="#DejaVuSans-4f" transform="translate(2653.78125 0)"/>
    <use xlink:href="#DejaVuSans-52" transform="translate(2681.5625 0)"/>
    <use xlink:href="#DejaVuSans-51" transform="translate(2742.75 0)"/>
    <use xlink:href="#DejaVuSans-4a" transform="translate(2806.125 0)"/>
    <use xlink:href="#DejaVuSans-56" transform="translate(2869.609375 0)"/>
    <use xlink:href="#DejaVuSans-3" transform="translate(2921.703125 0)"/>
    <use xlink:href="#DejaVuSans-57" transform="translate(2953.484375 0)"/>
    <use xlink:href="#DejaVuSans-52" transform="translate(2992.6875 0)"/>
    <use xlink:href="#DejaVuSans-3" transform="translate(3053.875 0)"/>
    <use xlink:href="#DejaVuSans-57" transform="translate(3085.65625 0)"/>
    <use xlink:href="#DejaVuSans-4b" transform="translate(3124.859375 0)"/>
    <use xlink:href="#DejaVuSans-48" transform="translate(3188.234375 0)"/>
    <use xlink:href="#DejaVuSans-3" transform="translate(3249.765625 0)"/>
    <use xlink:href="#DejaVuSans-49" transform="translate(3281.546875 0)"/>
    <use xlink:href="#DejaVuSans-44" transform="translate(3316.75 0)"/>
    <use xlink:href="#DejaVuSans-4e" transform="translate(3378.03125 0)"/>
    <use xlink:href="#DejaVuSans-48" transform="translate(3432.375 0)"/>
    <use xlink:href="#DejaVuSans-3" transform="translate(3493.90625 0)"/>
    <use xlink:href="#DejaVuSans-56" transform="translate(3525.6875 0)"/>
    <use xlink:href="#DejaVuSans-53" transform="translate(3577.78125 0)"/>
    <use xlink:href="#DejaVuSans-4f" transform="translate(3641.265625 0)"/>
    <use xlink:href="#DejaVuSans-4c" transform="translate(3669.046875 0)"/>
    <use xlink:href="#DejaVuSans-57" transform="translate(3696.828125 0)"/>
   </g>
  </g>
 </g>
 <defs>
  <clipPath id="p3cd4f5d55c">
   <rect x="48.024545" y="23.401091" width="247.750909" height="247.750909"/>
  </clipPath>
  <clipPath id="p8266605bb3">
   <rect x="381.024545" y="23.401091" width="247.750909" height="247.750909"/>
  </clipPath>
 </defs>
</svg>
