<?xml version="1.0" encoding="utf-8" standalone="no"?>
<!DOCTYPE svg PUBLIC "-//W3C//DTD SVG 1.1//EN"
  "http://www.w3.org/Graphics/SVG/1.1/DTD/svg11.dtd">
<svg xmlns:xlink="http://www.w3.org/1999/xlink" width="676.8pt" height="316.8pt" viewBox="0 0 676.8 316.8" xmlns="http://www.w3.org/2000/svg" version="1.1">
 <metadata>
  <rdf:RDF xmlns:dc="http://purl.org/dc/elements/1.1/" xmlns:cc="http://creativecommons.org/ns#" xmlns:rdf="http://www.w3.org/1999/02/22-rdf-syntax-ns#">
   <cc:Work>
    <dc:type rdf:resource="http://purl.org/dc/dcmitype/StillImage"/>
    <dc:date>2026-07-24T11:23:17.058575</dc:date>
    <dc:format>image/svg+xml</dc:format>
    <dc:creator>
     <cc:Agent>
      <dc:title>Matplotlib v3.11.0, https://matplotlib.org/</dc:title>
     </cc:Agent>
    </dc:creator>
   </cc:Work>
  </rdf:RDF>
 </metadata>
 <defs>
  <style type="text/css">*{stroke-linejoin: round; stroke-linecap: butt}</style>
 </defs>
 <g id="figure_1">
  <g id="patch_1">
   <path d="M 0 316.8 
L 676.8 316.8 
L 676.8 0 
L 0 0 
z
" style="fill: #ffffff"/>
  </g>
  <g id="axes_1">
   <g id="PathCollection_1">
    <defs>
     <path id="C0_0_b46776f32e" d="M 0 2.54951 
C 0.676138 2.54951 1.324674 2.280877 1.802776 1.802776 
C 2.280877 1.324674 2.54951 0.676138 2.54951 -0 
C 2.54951 -0.676138 2.280877 -1.324674 1.802776 -1.802776 
C 1.324674 -2.280877 0.676138 -2.54951 0 -2.54951 
C -0.676138 -2.54951 -1.324674 -2.280877 -1.802776 -1.802776 
C -2.280877 -1.324674 -2.54951 -0.676138 -2.54951 0 
C -2.54951 0.676138 -2.280877 1.324674 -1.802776 1.802776 
C -1.324674 2.280877 -0.676138 2.54951 0 2.54951 
z
"/>
    </defs>
    <g clip-path="url(#paef9ba3301)">
     <use xlink:href="#C0_0_b46776f32e" x="107.941183" y="131.740613" style="fill: #059669; fill-opacity: 0.85"/>
    </g>
    <g clip-path="url(#paef9ba3301)">
     <use xlink:href="#C0_0_b46776f32e" x="104.314221" y="147.405765" style="fill: #059669; fill-opacity: 0.85"/>
    </g>
    <g clip-path="url(#paef9ba3301)">
     <use xlink:href="#C0_0_b46776f32e" x="101.936363" y="148.73679" style="fill: #059669; fill-opacity: 0.85"/>
    </g>
    <g clip-path="url(#paef9ba3301)">
     <use xlink:href="#C0_0_b46776f32e" x="108.717152" y="118.023075" style="fill: #059669; fill-opacity: 0.85"/>
    </g>
    <g clip-path="url(#paef9ba3301)">
     <use xlink:href="#C0_0_b46776f32e" x="101.441967" y="143.847967" style="fill: #059669; fill-opacity: 0.85"/>
    </g>
    <g clip-path="url(#paef9ba3301)">
     <use xlink:href="#C0_0_b46776f32e" x="114.376851" y="130.974813" style="fill: #059669; fill-opacity: 0.85"/>
    </g>
    <g clip-path="url(#paef9ba3301)">
     <use xlink:href="#C0_0_b46776f32e" x="109.313426" y="147.930988" style="fill: #059669; fill-opacity: 0.85"/>
    </g>
    <g clip-path="url(#paef9ba3301)">
     <use xlink:href="#C0_0_b46776f32e" x="107.539695" y="126.517422" style="fill: #059669; fill-opacity: 0.85"/>
    </g>
    <g clip-path="url(#paef9ba3301)">
     <use xlink:href="#C0_0_b46776f32e" x="90.219891" y="141.702896" style="fill: #059669; fill-opacity: 0.85"/>
    </g>
    <g clip-path="url(#paef9ba3301)">
     <use xlink:href="#C0_0_b46776f32e" x="82.883353" y="152.660412" style="fill: #059669; fill-opacity: 0.85"/>
    </g>
    <g clip-path="url(#paef9ba3301)">
     <use xlink:href="#C0_0_b46776f32e" x="83.666885" y="138.771951" style="fill: #059669; fill-opacity: 0.85"/>
    </g>
    <g clip-path="url(#paef9ba3301)">
     <use xlink:href="#C0_0_b46776f32e" x="91.231028" y="132.102577" style="fill: #059669; fill-opacity: 0.85"/>
    </g>
    <g clip-path="url(#paef9ba3301)">
     <use xlink:href="#C0_0_b46776f32e" x="109.989601" y="138.137617" style="fill: #059669; fill-opacity: 0.85"/>
    </g>
    <g clip-path="url(#paef9ba3301)">
     <use xlink:href="#C0_0_b46776f32e" x="74.775914" y="142.770789" style="fill: #059669; fill-opacity: 0.85"/>
    </g>
    <g clip-path="url(#paef9ba3301)">
     <use xlink:href="#C0_0_b46776f32e" x="107.286159" y="134.183059" style="fill: #059669; fill-opacity: 0.85"/>
    </g>
    <g clip-path="url(#paef9ba3301)">
     <use xlink:href="#C0_0_b46776f32e" x="87.771061" y="141.968133" style="fill: #059669; fill-opacity: 0.85"/>
    </g>
    <g clip-path="url(#paef9ba3301)">
     <use xlink:href="#C0_0_b46776f32e" x="95.036585" y="146.328949" style="fill: #059669; fill-opacity: 0.85"/>
    </g>
    <g clip-path="url(#paef9ba3301)">
     <use xlink:href="#C0_0_b46776f32e" x="121.898424" y="146.311792" style="fill: #059669; fill-opacity: 0.85"/>
    </g>
    <g clip-path="url(#paef9ba3301)">
     <use xlink:href="#C0_0_b46776f32e" x="107.496627" y="124.0269" style="fill: #059669; fill-opacity: 0.85"/>
    </g>
    <g clip-path="url(#paef9ba3301)">
     <use xlink:href="#C0_0_b46776f32e" x="100.238188" y="137.146751" style="fill: #059669; fill-opacity: 0.85"/>
    </g>
    <g clip-path="url(#paef9ba3301)">
     <use xlink:href="#C0_0_b46776f32e" x="109.37994" y="134.835398" style="fill: #059669; fill-opacity: 0.85"/>
    </g>
    <g clip-path="url(#paef9ba3301)">
     <use xlink:href="#C0_0_b46776f32e" x="91.789369" y="134.672621" style="fill: #059669; fill-opacity: 0.85"/>
    </g>
    <g clip-path="url(#paef9ba3301)">
     <use xlink:href="#C0_0_b46776f32e" x="125.822489" y="156.053438" style="fill: #059669; fill-opacity: 0.85"/>
    </g>
    <g clip-path="url(#paef9ba3301)">
     <use xlink:href="#C0_0_b46776f32e" x="119.244192" y="134.103438" style="fill: #059669; fill-opacity: 0.85"/>
    </g>
    <g clip-path="url(#paef9ba3301)">
     <use xlink:href="#C0_0_b46776f32e" x="99.475964" y="109.327347" style="fill: #059669; fill-opacity: 0.85"/>
    </g>
    <g clip-path="url(#paef9ba3301)">
     <use xlink:href="#C0_0_b46776f32e" x="117.964953" y="151.471715" style="fill: #059669; fill-opacity: 0.85"/>
    </g>
    <g clip-path="url(#paef9ba3301)">
     <use xlink:href="#C0_0_b46776f32e" x="108.906458" y="128.079721" style="fill: #059669; fill-opacity: 0.85"/>
    </g>
    <g clip-path="url(#paef9ba3301)">
     <use xlink:href="#C0_0_b46776f32e" x="105.438469" y="126.680654" style="fill: #059669; fill-opacity: 0.85"/>
    </g>
    <g clip-path="url(#paef9ba3301)">
     <use xlink:href="#C0_0_b46776f32e" x="107.048859" y="126.886952" style="fill: #059669; fill-opacity: 0.85"/>
    </g>
    <g clip-path="url(#paef9ba3301)">
     <use xlink:href="#C0_0_b46776f32e" x="126.872233" y="144.574857" style="fill: #059669; fill-opacity: 0.85"/>
    </g>
    <g clip-path="url(#paef9ba3301)">
     <use xlink:href="#C0_0_b46776f32e" x="110.600586" y="141.777864" style="fill: #059669; fill-opacity: 0.85"/>
    </g>
    <g clip-path="url(#paef9ba3301)">
     <use xlink:href="#C0_0_b46776f32e" x="109.601275" y="151.312416" style="fill: #059669; fill-opacity: 0.85"/>
    </g>
    <g clip-path="url(#paef9ba3301)">
     <use xlink:href="#C0_0_b46776f32e" x="100.29481" y="138.25965" style="fill: #059669; fill-opacity: 0.85"/>
    </g>
    <g clip-path="url(#paef9ba3301)">
     <use xlink:href="#C0_0_b46776f32e" x="119.762894" y="120.591394" style="fill: #059669; fill-opacity: 0.85"/>
    </g>
    <g clip-path="url(#paef9ba3301)">
     <use xlink:href="#C0_0_b46776f32e" x="90.492363" y="146.141983" style="fill: #059669; fill-opacity: 0.85"/>
    </g>
    <g clip-path="url(#paef9ba3301)">
     <use xlink:href="#C0_0_b46776f32e" x="116.445558" y="161.918302" style="fill: #059669; fill-opacity: 0.85"/>
    </g>
    <g clip-path="url(#paef9ba3301)">
     <use xlink:href="#C0_0_b46776f32e" x="101.824419" y="136.956886" style="fill: #059669; fill-opacity: 0.85"/>
    </g>
    <g clip-path="url(#paef9ba3301)">
     <use xlink:href="#C0_0_b46776f32e" x="124.481537" y="126.595124" style="fill: #059669; fill-opacity: 0.85"/>
    </g>
    <g clip-path="url(#paef9ba3301)">
     <use xlink:href="#C0_0_b46776f32e" x="103.615146" y="140.530122" style="fill: #059669; fill-opacity: 0.85"/>
    </g>
    <g clip-path="url(#paef9ba3301)">
     <use xlink:href="#C0_0_b46776f32e" x="104.629575" y="115.608584" style="fill: #059669; fill-opacity: 0.85"/>
    </g>
   </g>
   <g id="PathCollection_2">
    <defs>
     <path id="C1_0_bbdd27532d" d="M 0 2.54951 
C 0.676138 2.54951 1.324674 2.280877 1.802776 1.802776 
C 2.280877 1.324674 2.54951 0.676138 2.54951 -0 
C 2.54951 -0.676138 2.280877 -1.324674 1.802776 -1.802776 
C 1.324674 -2.280877 0.676138 -2.54951 0 -2.54951 
C -0.676138 -2.54951 -1.324674 -2.280877 -1.802776 -1.802776 
C -2.280877 -1.324674 -2.54951 -0.676138 -2.54951 0 
C -2.54951 0.676138 -2.280877 1.324674 -1.802776 1.802776 
C -1.324674 2.280877 -0.676138 2.54951 0 2.54951 
z
"/>
    </defs>
    <g clip-path="url(#paef9ba3301)">
     <use xlink:href="#C1_0_bbdd27532d" x="207.657944" y="139.675362" style="fill: #0369a1; fill-opacity: 0.85"/>
    </g>
    <g clip-path="url(#paef9ba3301)">
     <use xlink:href="#C1_0_bbdd27532d" x="217.939667" y="137.266196" style="fill: #0369a1; fill-opacity: 0.85"/>
    </g>
    <g clip-path="url(#paef9ba3301)">
     <use xlink:href="#C1_0_bbdd27532d" x="210.697106" y="150.349232" style="fill: #0369a1; fill-opacity: 0.85"/>
    </g>
    <g clip-path="url(#paef9ba3301)">
     <use xlink:href="#C1_0_bbdd27532d" x="213.143848" y="141.518042" style="fill: #0369a1; fill-opacity: 0.85"/>
    </g>
    <g clip-path="url(#paef9ba3301)">
     <use xlink:href="#C1_0_bbdd27532d" x="228.655052" y="127.073446" style="fill: #0369a1; fill-opacity: 0.85"/>
    </g>
    <g clip-path="url(#paef9ba3301)">
     <use xlink:href="#C1_0_bbdd27532d" x="212.977597" y="126.872023" style="fill: #0369a1; fill-opacity: 0.85"/>
    </g>
    <g clip-path="url(#paef9ba3301)">
     <use xlink:href="#C1_0_bbdd27532d" x="208.819068" y="121.817588" style="fill: #0369a1; fill-opacity: 0.85"/>
    </g>
    <g clip-path="url(#paef9ba3301)">
     <use xlink:href="#C1_0_bbdd27532d" x="213.224481" y="127.991568" style="fill: #0369a1; fill-opacity: 0.85"/>
    </g>
    <g clip-path="url(#paef9ba3301)">
     <use xlink:href="#C1_0_bbdd27532d" x="196.292823" y="131.109252" style="fill: #0369a1; fill-opacity: 0.85"/>
    </g>
    <g clip-path="url(#paef9ba3301)">
     <use xlink:href="#C1_0_bbdd27532d" x="191.059711" y="162.483473" style="fill: #0369a1; fill-opacity: 0.85"/>
    </g>
    <g clip-path="url(#paef9ba3301)">
     <use xlink:href="#C1_0_bbdd27532d" x="209.285236" y="147.52873" style="fill: #0369a1; fill-opacity: 0.85"/>
    </g>
    <g clip-path="url(#paef9ba3301)">
     <use xlink:href="#C1_0_bbdd27532d" x="215.456394" y="106.109064" style="fill: #0369a1; fill-opacity: 0.85"/>
    </g>
    <g clip-path="url(#paef9ba3301)">
     <use xlink:href="#C1_0_bbdd27532d" x="202.340702" y="143.893654" style="fill: #0369a1; fill-opacity: 0.85"/>
    </g>
    <g clip-path="url(#paef9ba3301)">
     <use xlink:href="#C1_0_bbdd27532d" x="216.001043" y="129.181849" style="fill: #0369a1; fill-opacity: 0.85"/>
    </g>
    <g clip-path="url(#paef9ba3301)">
     <use xlink:href="#C1_0_bbdd27532d" x="210.972099" y="138.387864" style="fill: #0369a1; fill-opacity: 0.85"/>
    </g>
    <g clip-path="url(#paef9ba3301)">
     <use xlink:href="#C1_0_bbdd27532d" x="222.54797" y="128.827615" style="fill: #0369a1; fill-opacity: 0.85"/>
    </g>
    <g clip-path="url(#paef9ba3301)">
     <use xlink:href="#C1_0_bbdd27532d" x="199.680718" y="136.718412" style="fill: #0369a1; fill-opacity: 0.85"/>
    </g>
    <g clip-path="url(#paef9ba3301)">
     <use xlink:href="#C1_0_bbdd27532d" x="213.760375" y="149.564451" style="fill: #0369a1; fill-opacity: 0.85"/>
    </g>
    <g clip-path="url(#paef9ba3301)">
     <use xlink:href="#C1_0_bbdd27532d" x="216.718027" y="146.975914" style="fill: #0369a1; fill-opacity: 0.85"/>
    </g>
    <g clip-path="url(#paef9ba3301)">
     <use xlink:href="#C1_0_bbdd27532d" x="226.09901" y="133.136769" style="fill: #0369a1; fill-opacity: 0.85"/>
    </g>
    <g clip-path="url(#paef9ba3301)">
     <use xlink:href="#C1_0_bbdd27532d" x="214.471886" y="143.460117" style="fill: #0369a1; fill-opacity: 0.85"/>
    </g>
    <g clip-path="url(#paef9ba3301)">
     <use xlink:href="#C1_0_bbdd27532d" x="211.733352" y="161.988459" style="fill: #0369a1; fill-opacity: 0.85"/>
    </g>
    <g clip-path="url(#paef9ba3301)">
     <use xlink:href="#C1_0_bbdd27532d" x="198.393462" y="130.896407" style="fill: #0369a1; fill-opacity: 0.85"/>
    </g>
    <g clip-path="url(#paef9ba3301)">
     <use xlink:href="#C1_0_bbdd27532d" x="185.259547" y="124.52453" style="fill: #0369a1; fill-opacity: 0.85"/>
    </g>
    <g clip-path="url(#paef9ba3301)">
     <use xlink:href="#C1_0_bbdd27532d" x="190.297192" y="125.708238" style="fill: #0369a1; fill-opacity: 0.85"/>
    </g>
    <g clip-path="url(#paef9ba3301)">
     <use xlink:href="#C1_0_bbdd27532d" x="202.159282" y="125.415142" style="fill: #0369a1; fill-opacity: 0.85"/>
    </g>
    <g clip-path="url(#paef9ba3301)">
     <use xlink:href="#C1_0_bbdd27532d" x="215.020402" y="155.917645" style="fill: #0369a1; fill-opacity: 0.85"/>
    </g>
    <g clip-path="url(#paef9ba3301)">
     <use xlink:href="#C1_0_bbdd27532d" x="229.748548" y="116.686291" style="fill: #0369a1; fill-opacity: 0.85"/>
    </g>
    <g clip-path="url(#paef9ba3301)">
     <use xlink:href="#C1_0_bbdd27532d" x="212.428863" y="139.283329" style="fill: #0369a1; fill-opacity: 0.85"/>
    </g>
    <g clip-path="url(#paef9ba3301)">
     <use xlink:href="#C1_0_bbdd27532d" x="211.189941" y="148.519539" style="fill: #0369a1; fill-opacity: 0.85"/>
    </g>
    <g clip-path="url(#paef9ba3301)">
     <use xlink:href="#C1_0_bbdd27532d" x="227.765447" y="142.826096" style="fill: #0369a1; fill-opacity: 0.85"/>
    </g>
    <g clip-path="url(#paef9ba3301)">
     <use xlink:href="#C1_0_bbdd27532d" x="212.621355" y="146.124255" style="fill: #0369a1; fill-opacity: 0.85"/>
    </g>
    <g clip-path="url(#paef9ba3301)">
     <use xlink:href="#C1_0_bbdd27532d" x="205.049387" y="152.504825" style="fill: #0369a1; fill-opacity: 0.85"/>
    </g>
    <g clip-path="url(#paef9ba3301)">
     <use xlink:href="#C1_0_bbdd27532d" x="229.852872" y="137.705026" style="fill: #0369a1; fill-opacity: 0.85"/>
    </g>
    <g clip-path="url(#paef9ba3301)">
     <use xlink:href="#C1_0_bbdd27532d" x="226.018071" y="135.499986" style="fill: #0369a1; fill-opacity: 0.85"/>
    </g>
    <g clip-path="url(#paef9ba3301)">
     <use xlink:href="#C1_0_bbdd27532d" x="204.149384" y="139.978367" style="fill: #0369a1; fill-opacity: 0.85"/>
    </g>
    <g clip-path="url(#paef9ba3301)">
     <use xlink:href="#C1_0_bbdd27532d" x="205.916614" y="135.570657" style="fill: #0369a1; fill-opacity: 0.85"/>
    </g>
    <g clip-path="url(#paef9ba3301)">
     <use xlink:href="#C1_0_bbdd27532d" x="208.352838" y="139.625856" style="fill: #0369a1; fill-opacity: 0.85"/>
    </g>
    <g clip-path="url(#paef9ba3301)">
     <use xlink:href="#C1_0_bbdd27532d" x="195.137942" y="146.30272" style="fill: #0369a1; fill-opacity: 0.85"/>
    </g>
    <g clip-path="url(#paef9ba3301)">
     <use xlink:href="#C1_0_bbdd27532d" x="235.081734" y="144.516521" style="fill: #0369a1; fill-opacity: 0.85"/>
    </g>
   </g>
   <g id="text_1">
    <!-- well separated · 50% / 50% -->
    <g style="fill: #6b7280" transform="translate(95.403181 199.650508) scale(0.095 -0.095)">
     <defs>
      <path id="DejaVuSans-5a" d="M 269 3500 
L 844 3500 
L 1563 769 
L 2278 3500 
L 2956 3500 
L 3675 769 
L 4391 3500 
L 4966 3500 
L 4050 0 
L 3372 0 
L 2619 2869 
L 1863 0 
L 1184 0 
L 269 3500 
z
" transform="scale(0.015625)"/>
      <path id="DejaVuSans-48" d="M 3597 1894 
L 3597 1613 
L 953 1613 
Q 991 1019 1311 708 
Q 1631 397 2203 397 
Q 2534 397 2845 478 
Q 3156 559 3463 722 
L 3463 178 
Q 3153 47 2828 -22 
Q 2503 -91 2169 -91 
Q 1331 -91 842 396 
Q 353 884 353 1716 
Q 353 2575 817 3079 
Q 1281 3584 2069 3584 
Q 2775 3584 3186 3129 
Q 3597 2675 3597 1894 
z
M 3022 2063 
Q 3016 2534 2758 2815 
Q 2500 3097 2075 3097 
Q 1594 3097 1305 2825 
Q 1016 2553 972 2059 
L 3022 2063 
z
" transform="scale(0.015625)"/>
      <path id="DejaVuSans-4f" d="M 603 4863 
L 1178 4863 
L 1178 0 
L 603 0 
L 603 4863 
z
" transform="scale(0.015625)"/>
      <path id="DejaVuSans-3" transform="scale(0.015625)"/>
      <path id="DejaVuSans-56" d="M 2834 3397 
L 2834 2853 
Q 2591 2978 2328 3040 
Q 2066 3103 1784 3103 
Q 1356 3103 1142 2972 
Q 928 2841 928 2578 
Q 928 2378 1081 2264 
Q 1234 2150 1697 2047 
L 1894 2003 
Q 2506 1872 2764 1633 
Q 3022 1394 3022 966 
Q 3022 478 2636 193 
Q 2250 -91 1575 -91 
Q 1294 -91 989 -36 
Q 684 19 347 128 
L 347 722 
Q 666 556 975 473 
Q 1284 391 1588 391 
Q 1994 391 2212 530 
Q 2431 669 2431 922 
Q 2431 1156 2273 1281 
Q 2116 1406 1581 1522 
L 1381 1569 
Q 847 1681 609 1914 
Q 372 2147 372 2553 
Q 372 3047 722 3315 
Q 1072 3584 1716 3584 
Q 2034 3584 2315 3537 
Q 2597 3491 2834 3397 
z
" transform="scale(0.015625)"/>
      <path id="DejaVuSans-53" d="M 1159 525 
L 1159 -1331 
L 581 -1331 
L 581 3500 
L 1159 3500 
L 1159 2969 
Q 1341 3281 1617 3432 
Q 1894 3584 2278 3584 
Q 2916 3584 3314 3078 
Q 3713 2572 3713 1747 
Q 3713 922 3314 415 
Q 2916 -91 2278 -91 
Q 1894 -91 1617 61 
Q 1341 213 1159 525 
z
M 3116 1747 
Q 3116 2381 2855 2742 
Q 2594 3103 2138 3103 
Q 1681 3103 1420 2742 
Q 1159 2381 1159 1747 
Q 1159 1113 1420 752 
Q 1681 391 2138 391 
Q 2594 391 2855 752 
Q 3116 1113 3116 1747 
z
" transform="scale(0.015625)"/>
      <path id="DejaVuSans-44" d="M 2194 1759 
Q 1497 1759 1228 1600 
Q 959 1441 959 1056 
Q 959 750 1161 570 
Q 1363 391 1709 391 
Q 2188 391 2477 730 
Q 2766 1069 2766 1631 
L 2766 1759 
L 2194 1759 
z
M 3341 1997 
L 3341 0 
L 2766 0 
L 2766 531 
Q 2569 213 2275 61 
Q 1981 -91 1556 -91 
Q 1019 -91 701 211 
Q 384 513 384 1019 
Q 384 1609 779 1909 
Q 1175 2209 1959 2209 
L 2766 2209 
L 2766 2266 
Q 2766 2663 2505 2880 
Q 2244 3097 1772 3097 
Q 1472 3097 1187 3025 
Q 903 2953 641 2809 
L 641 3341 
Q 956 3463 1253 3523 
Q 1550 3584 1831 3584 
Q 2591 3584 2966 3190 
Q 3341 2797 3341 1997 
z
" transform="scale(0.015625)"/>
      <path id="DejaVuSans-55" d="M 2631 2963 
Q 2534 3019 2420 3045 
Q 2306 3072 2169 3072 
Q 1681 3072 1420 2755 
Q 1159 2438 1159 1844 
L 1159 0 
L 581 0 
L 581 3500 
L 1159 3500 
L 1159 2956 
Q 1341 3275 1631 3429 
Q 1922 3584 2338 3584 
Q 2397 3584 2469 3576 
Q 2541 3569 2628 3553 
L 2631 2963 
z
" transform="scale(0.015625)"/>
      <path id="DejaVuSans-57" d="M 1172 4494 
L 1172 3500 
L 2356 3500 
L 2356 3053 
L 1172 3053 
L 1172 1153 
Q 1172 725 1289 603 
Q 1406 481 1766 481 
L 2356 481 
L 2356 0 
L 1766 0 
Q 1100 0 847 248 
Q 594 497 594 1153 
L 594 3053 
L 172 3053 
L 172 3500 
L 594 3500 
L 594 4494 
L 1172 4494 
z
" transform="scale(0.015625)"/>
      <path id="DejaVuSans-47" d="M 2906 2969 
L 2906 4863 
L 3481 4863 
L 3481 0 
L 2906 0 
L 2906 525 
Q 2725 213 2448 61 
Q 2172 -91 1784 -91 
Q 1150 -91 751 415 
Q 353 922 353 1747 
Q 353 2572 751 3078 
Q 1150 3584 1784 3584 
Q 2172 3584 2448 3432 
Q 2725 3281 2906 2969 
z
M 947 1747 
Q 947 1113 1208 752 
Q 1469 391 1925 391 
Q 2381 391 2643 752 
Q 2906 1113 2906 1747 
Q 2906 2381 2643 2742 
Q 2381 3103 1925 3103 
Q 1469 3103 1208 2742 
Q 947 2381 947 1747 
z
" transform="scale(0.015625)"/>
      <path id="DejaVuSans-79" d="M 684 2619 
L 1344 2619 
L 1344 1825 
L 684 1825 
L 684 2619 
z
" transform="scale(0.015625)"/>
      <path id="DejaVuSans-18" d="M 691 4666 
L 3169 4666 
L 3169 4134 
L 1269 4134 
L 1269 2991 
Q 1406 3038 1543 3061 
Q 1681 3084 1819 3084 
Q 2600 3084 3056 2656 
Q 3513 2228 3513 1497 
Q 3513 744 3044 326 
Q 2575 -91 1722 -91 
Q 1428 -91 1123 -41 
Q 819 9 494 109 
L 494 744 
Q 775 591 1075 516 
Q 1375 441 1709 441 
Q 2250 441 2565 725 
Q 2881 1009 2881 1497 
Q 2881 1984 2565 2268 
Q 2250 2553 1709 2553 
Q 1456 2553 1204 2497 
Q 953 2441 691 2322 
L 691 4666 
z
" transform="scale(0.015625)"/>
      <path id="DejaVuSans-13" d="M 2034 4250 
Q 1547 4250 1301 3770 
Q 1056 3291 1056 2328 
Q 1056 1369 1301 889 
Q 1547 409 2034 409 
Q 2525 409 2770 889 
Q 3016 1369 3016 2328 
Q 3016 3291 2770 3770 
Q 2525 4250 2034 4250 
z
M 2034 4750 
Q 2819 4750 3233 4129 
Q 3647 3509 3647 2328 
Q 3647 1150 3233 529 
Q 2819 -91 2034 -91 
Q 1250 -91 836 529 
Q 422 1150 422 2328 
Q 422 3509 836 4129 
Q 1250 4750 2034 4750 
z
" transform="scale(0.015625)"/>
      <path id="DejaVuSans-8" d="M 4653 2053 
Q 4381 2053 4226 1822 
Q 4072 1591 4072 1178 
Q 4072 772 4226 539 
Q 4381 306 4653 306 
Q 4919 306 5073 539 
Q 5228 772 5228 1178 
Q 5228 1588 5073 1820 
Q 4919 2053 4653 2053 
z
M 4653 2450 
Q 5147 2450 5437 2106 
Q 5728 1763 5728 1178 
Q 5728 594 5436 251 
Q 5144 -91 4653 -91 
Q 4153 -91 3862 251 
Q 3572 594 3572 1178 
Q 3572 1766 3864 2108 
Q 4156 2450 4653 2450 
z
M 1428 4353 
Q 1159 4353 1004 4120 
Q 850 3888 850 3481 
Q 850 3069 1003 2837 
Q 1156 2606 1428 2606 
Q 1700 2606 1854 2837 
Q 2009 3069 2009 3481 
Q 2009 3884 1853 4118 
Q 1697 4353 1428 4353 
z
M 4250 4750 
L 4750 4750 
L 1831 -91 
L 1331 -91 
L 4250 4750 
z
M 1428 4750 
Q 1922 4750 2215 4408 
Q 2509 4066 2509 3481 
Q 2509 2891 2217 2550 
Q 1925 2209 1428 2209 
Q 931 2209 642 2551 
Q 353 2894 353 3481 
Q 353 4063 643 4406 
Q 934 4750 1428 4750 
z
" transform="scale(0.015625)"/>
      <path id="DejaVuSans-12" d="M 1625 4666 
L 2156 4666 
L 531 -594 
L 0 -594 
L 1625 4666 
z
" transform="scale(0.015625)"/>
     </defs>
     <use xlink:href="#DejaVuSans-5a"/>
     <use xlink:href="#DejaVuSans-48" transform="translate(81.78125 0)"/>
     <use xlink:href="#DejaVuSans-4f" transform="translate(143.3125 0)"/>
     <use xlink:href="#DejaVuSans-4f" transform="translate(171.09375 0)"/>
     <use xlink:href="#DejaVuSans-3" transform="translate(198.875 0)"/>
     <use xlink:href="#DejaVuSans-56" transform="translate(230.65625 0)"/>
     <use xlink:href="#DejaVuSans-48" transform="translate(282.75 0)"/>
     <use xlink:href="#DejaVuSans-53" transform="translate(344.28125 0)"/>
     <use xlink:href="#DejaVuSans-44" transform="translate(407.765625 0)"/>
     <use xlink:href="#DejaVuSans-55" transform="translate(469.046875 0)"/>
     <use xlink:href="#DejaVuSans-44" transform="translate(510.15625 0)"/>
     <use xlink:href="#DejaVuSans-57" transform="translate(571.4375 0)"/>
     <use xlink:href="#DejaVuSans-48" transform="translate(610.640625 0)"/>
     <use xlink:href="#DejaVuSans-47" transform="translate(672.171875 0)"/>
     <use xlink:href="#DejaVuSans-3" transform="translate(735.65625 0)"/>
     <use xlink:href="#DejaVuSans-79" transform="translate(767.4375 0)"/>
     <use xlink:href="#DejaVuSans-3" transform="translate(799.21875 0)"/>
     <use xlink:href="#DejaVuSans-18" transform="translate(831 0)"/>
     <use xlink:href="#DejaVuSans-13" transform="translate(894.625 0)"/>
     <use xlink:href="#DejaVuSans-8" transform="translate(958.25 0)"/>
     <use xlink:href="#DejaVuSans-3" transform="translate(1053.265625 0)"/>
     <use xlink:href="#DejaVuSans-12" transform="translate(1085.046875 0)"/>
     <use xlink:href="#DejaVuSans-3" transform="translate(1118.734375 0)"/>
     <use xlink:href="#DejaVuSans-18" transform="translate(1150.515625 0)"/>
     <use xlink:href="#DejaVuSans-13" transform="translate(1214.140625 0)"/>
     <use xlink:href="#DejaVuSans-8" transform="translate(1277.765625 0)"/>
    </g>
   </g>
   <g id="text_2">
    <!-- A real split -->
    <g style="fill: #1e293b" transform="translate(136.630937 16.778396) scale(0.115 -0.115)">
     <defs>
      <path id="DejaVuSans-Bold-24" d="M 3419 850 
L 1538 850 
L 1241 0 
L 31 0 
L 1759 4666 
L 3194 4666 
L 4922 0 
L 3713 0 
L 3419 850 
z
M 1838 1716 
L 3116 1716 
L 2478 3572 
L 1838 1716 
z
" transform="scale(0.015625)"/>
      <path id="DejaVuSans-Bold-3" transform="scale(0.015625)"/>
      <path id="DejaVuSans-Bold-55" d="M 3138 2547 
Q 2991 2616 2845 2648 
Q 2700 2681 2553 2681 
Q 2122 2681 1889 2404 
Q 1656 2128 1656 1613 
L 1656 0 
L 538 0 
L 538 3500 
L 1656 3500 
L 1656 2925 
Q 1872 3269 2151 3426 
Q 2431 3584 2822 3584 
Q 2878 3584 2943 3579 
Q 3009 3575 3134 3559 
L 3138 2547 
z
" transform="scale(0.015625)"/>
      <path id="DejaVuSans-Bold-48" d="M 4031 1759 
L 4031 1441 
L 1416 1441 
Q 1456 1047 1700 850 
Q 1944 653 2381 653 
Q 2734 653 3104 758 
Q 3475 863 3866 1075 
L 3866 213 
Q 3469 63 3072 -14 
Q 2675 -91 2278 -91 
Q 1328 -91 801 392 
Q 275 875 275 1747 
Q 275 2603 792 3093 
Q 1309 3584 2216 3584 
Q 3041 3584 3536 3087 
Q 4031 2591 4031 1759 
z
M 2881 2131 
Q 2881 2450 2695 2645 
Q 2509 2841 2209 2841 
Q 1884 2841 1681 2658 
Q 1478 2475 1428 2131 
L 2881 2131 
z
" transform="scale(0.015625)"/>
      <path id="DejaVuSans-Bold-44" d="M 2106 1575 
Q 1756 1575 1579 1456 
Q 1403 1338 1403 1106 
Q 1403 894 1545 773 
Q 1688 653 1941 653 
Q 2256 653 2472 879 
Q 2688 1106 2688 1447 
L 2688 1575 
L 2106 1575 
z
M 3816 1997 
L 3816 0 
L 2688 0 
L 2688 519 
Q 2463 200 2181 54 
Q 1900 -91 1497 -91 
Q 953 -91 614 226 
Q 275 544 275 1050 
Q 275 1666 698 1953 
Q 1122 2241 2028 2241 
L 2688 2241 
L 2688 2328 
Q 2688 2594 2478 2717 
Q 2269 2841 1825 2841 
Q 1466 2841 1156 2769 
Q 847 2697 581 2553 
L 581 3406 
Q 941 3494 1303 3539 
Q 1666 3584 2028 3584 
Q 2975 3584 3395 3211 
Q 3816 2838 3816 1997 
z
" transform="scale(0.015625)"/>
      <path id="DejaVuSans-Bold-4f" d="M 538 4863 
L 1656 4863 
L 1656 0 
L 538 0 
L 538 4863 
z
" transform="scale(0.015625)"/>
      <path id="DejaVuSans-Bold-56" d="M 3272 3391 
L 3272 2541 
Q 2913 2691 2578 2766 
Q 2244 2841 1947 2841 
Q 1628 2841 1473 2761 
Q 1319 2681 1319 2516 
Q 1319 2381 1436 2309 
Q 1553 2238 1856 2203 
L 2053 2175 
Q 2913 2066 3209 1816 
Q 3506 1566 3506 1031 
Q 3506 472 3093 190 
Q 2681 -91 1863 -91 
Q 1516 -91 1145 -36 
Q 775 19 384 128 
L 384 978 
Q 719 816 1070 734 
Q 1422 653 1784 653 
Q 2113 653 2278 743 
Q 2444 834 2444 1013 
Q 2444 1163 2330 1236 
Q 2216 1309 1875 1350 
L 1678 1375 
Q 931 1469 631 1722 
Q 331 1975 331 2491 
Q 331 3047 712 3315 
Q 1094 3584 1881 3584 
Q 2191 3584 2531 3537 
Q 2872 3491 3272 3391 
z
" transform="scale(0.015625)"/>
      <path id="DejaVuSans-Bold-53" d="M 1656 506 
L 1656 -1331 
L 538 -1331 
L 538 3500 
L 1656 3500 
L 1656 2988 
Q 1888 3294 2169 3439 
Q 2450 3584 2816 3584 
Q 3463 3584 3878 3070 
Q 4294 2556 4294 1747 
Q 4294 938 3878 423 
Q 3463 -91 2816 -91 
Q 2450 -91 2169 54 
Q 1888 200 1656 506 
z
M 2400 2772 
Q 2041 2772 1848 2508 
Q 1656 2244 1656 1747 
Q 1656 1250 1848 986 
Q 2041 722 2400 722 
Q 2759 722 2948 984 
Q 3138 1247 3138 1747 
Q 3138 2247 2948 2509 
Q 2759 2772 2400 2772 
z
" transform="scale(0.015625)"/>
      <path id="DejaVuSans-Bold-4c" d="M 538 3500 
L 1656 3500 
L 1656 0 
L 538 0 
L 538 3500 
z
M 538 4863 
L 1656 4863 
L 1656 3950 
L 538 3950 
L 538 4863 
z
" transform="scale(0.015625)"/>
      <path id="DejaVuSans-Bold-57" d="M 1759 4494 
L 1759 3500 
L 2913 3500 
L 2913 2700 
L 1759 2700 
L 1759 1216 
Q 1759 972 1856 886 
Q 1953 800 2241 800 
L 2816 800 
L 2816 0 
L 1856 0 
Q 1194 0 917 276 
Q 641 553 641 1216 
L 641 2700 
L 84 2700 
L 84 3500 
L 641 3500 
L 641 4494 
L 1759 4494 
z
" transform="scale(0.015625)"/>
     </defs>
     <use xlink:href="#DejaVuSans-Bold-24"/>
     <use xlink:href="#DejaVuSans-Bold-3" transform="translate(77.390625 0)"/>
     <use xlink:href="#DejaVuSans-Bold-55" transform="translate(112.203125 0)"/>
     <use xlink:href="#DejaVuSans-Bold-48" transform="translate(161.515625 0)"/>
     <use xlink:href="#DejaVuSans-Bold-44" transform="translate(229.34375 0)"/>
     <use xlink:href="#DejaVuSans-Bold-4f" transform="translate(296.828125 0)"/>
     <use xlink:href="#DejaVuSans-Bold-3" transform="translate(331.109375 0)"/>
     <use xlink:href="#DejaVuSans-Bold-56" transform="translate(365.921875 0)"/>
     <use xlink:href="#DejaVuSans-Bold-53" transform="translate(425.4375 0)"/>
     <use xlink:href="#DejaVuSans-Bold-4f" transform="translate(497.015625 0)"/>
     <use xlink:href="#DejaVuSans-Bold-4c" transform="translate(531.296875 0)"/>
     <use xlink:href="#DejaVuSans-Bold-57" transform="translate(565.578125 0)"/>
    </g>
   </g>
  </g>
  <g id="axes_2">
   <g id="PathCollection_3">
    <defs>
     <path id="C2_0_454757fcbf" d="M 0 2.345208 
C 0.621956 2.345208 1.218523 2.098102 1.658312 1.658312 
C 2.098102 1.218523 2.345208 0.621956 2.345208 -0 
C 2.345208 -0.621956 2.098102 -1.218523 1.658312 -1.658312 
C 1.218523 -2.098102 0.621956 -2.345208 0 -2.345208 
C -0.621956 -2.345208 -1.218523 -2.098102 -1.658312 -1.658312 
C -2.098102 -1.218523 -2.345208 -0.621956 -2.345208 0 
C -2.345208 0.621956 -2.098102 1.218523 -1.658312 1.658312 
C -1.218523 2.098102 -0.621956 2.345208 0 2.345208 
z
"/>
    </defs>
    <g clip-path="url(#p0a9a62f161)">
     <use xlink:href="#C2_0_454757fcbf" x="473.77627" y="129.328295" style="fill: #0369a1; fill-opacity: 0.75"/>
    </g>
    <g clip-path="url(#p0a9a62f161)">
     <use xlink:href="#C2_0_454757fcbf" x="520.089781" y="163.034675" style="fill: #0369a1; fill-opacity: 0.75"/>
    </g>
    <g clip-path="url(#p0a9a62f161)">
     <use xlink:href="#C2_0_454757fcbf" x="489.686706" y="147.568304" style="fill: #0369a1; fill-opacity: 0.75"/>
    </g>
    <g clip-path="url(#p0a9a62f161)">
     <use xlink:href="#C2_0_454757fcbf" x="460.474628" y="121.846974" style="fill: #0369a1; fill-opacity: 0.75"/>
    </g>
    <g clip-path="url(#p0a9a62f161)">
     <use xlink:href="#C2_0_454757fcbf" x="493.169166" y="134.331226" style="fill: #0369a1; fill-opacity: 0.75"/>
    </g>
    <g clip-path="url(#p0a9a62f161)">
     <use xlink:href="#C2_0_454757fcbf" x="479.454661" y="127.118187" style="fill: #0369a1; fill-opacity: 0.75"/>
    </g>
    <g clip-path="url(#p0a9a62f161)">
     <use xlink:href="#C2_0_454757fcbf" x="483.462774" y="138.364381" style="fill: #0369a1; fill-opacity: 0.75"/>
    </g>
    <g clip-path="url(#p0a9a62f161)">
     <use xlink:href="#C2_0_454757fcbf" x="472.757054" y="158.5579" style="fill: #0369a1; fill-opacity: 0.75"/>
    </g>
    <g clip-path="url(#p0a9a62f161)">
     <use xlink:href="#C2_0_454757fcbf" x="518.739901" y="145.217263" style="fill: #0369a1; fill-opacity: 0.75"/>
    </g>
    <g clip-path="url(#p0a9a62f161)">
     <use xlink:href="#C2_0_454757fcbf" x="499.098601" y="136.311295" style="fill: #0369a1; fill-opacity: 0.75"/>
    </g>
    <g clip-path="url(#p0a9a62f161)">
     <use xlink:href="#C2_0_454757fcbf" x="485.309622" y="145.233375" style="fill: #0369a1; fill-opacity: 0.75"/>
    </g>
    <g clip-path="url(#p0a9a62f161)">
     <use xlink:href="#C2_0_454757fcbf" x="505.46604" y="141.355484" style="fill: #0369a1; fill-opacity: 0.75"/>
    </g>
    <g clip-path="url(#p0a9a62f161)">
     <use xlink:href="#C2_0_454757fcbf" x="490.760699" y="135.257364" style="fill: #0369a1; fill-opacity: 0.75"/>
    </g>
    <g clip-path="url(#p0a9a62f161)">
     <use xlink:href="#C2_0_454757fcbf" x="515.747686" y="122.87087" style="fill: #0369a1; fill-opacity: 0.75"/>
    </g>
    <g clip-path="url(#p0a9a62f161)">
     <use xlink:href="#C2_0_454757fcbf" x="500.809367" y="146.279751" style="fill: #0369a1; fill-opacity: 0.75"/>
    </g>
    <g clip-path="url(#p0a9a62f161)">
     <use xlink:href="#C2_0_454757fcbf" x="467.606916" y="117.80896" style="fill: #0369a1; fill-opacity: 0.75"/>
    </g>
    <g clip-path="url(#p0a9a62f161)">
     <use xlink:href="#C2_0_454757fcbf" x="511.795136" y="138.323083" style="fill: #0369a1; fill-opacity: 0.75"/>
    </g>
    <g clip-path="url(#p0a9a62f161)">
     <use xlink:href="#C2_0_454757fcbf" x="503.806476" y="120.971714" style="fill: #0369a1; fill-opacity: 0.75"/>
    </g>
    <g clip-path="url(#p0a9a62f161)">
     <use xlink:href="#C2_0_454757fcbf" x="509.250009" y="118.338569" style="fill: #0369a1; fill-opacity: 0.75"/>
    </g>
    <g clip-path="url(#p0a9a62f161)">
     <use xlink:href="#C2_0_454757fcbf" x="485.037306" y="107.169481" style="fill: #0369a1; fill-opacity: 0.75"/>
    </g>
    <g clip-path="url(#p0a9a62f161)">
     <use xlink:href="#C2_0_454757fcbf" x="470.154169" y="119.46115" style="fill: #0369a1; fill-opacity: 0.75"/>
    </g>
    <g clip-path="url(#p0a9a62f161)">
     <use xlink:href="#C2_0_454757fcbf" x="502.904207" y="119.237312" style="fill: #0369a1; fill-opacity: 0.75"/>
    </g>
    <g clip-path="url(#p0a9a62f161)">
     <use xlink:href="#C2_0_454757fcbf" x="528.966053" y="107.743892" style="fill: #0369a1; fill-opacity: 0.75"/>
    </g>
    <g clip-path="url(#p0a9a62f161)">
     <use xlink:href="#C2_0_454757fcbf" x="472.062433" y="167.449841" style="fill: #0369a1; fill-opacity: 0.75"/>
    </g>
    <g clip-path="url(#p0a9a62f161)">
     <use xlink:href="#C2_0_454757fcbf" x="508.981024" y="154.774147" style="fill: #0369a1; fill-opacity: 0.75"/>
    </g>
    <g clip-path="url(#p0a9a62f161)">
     <use xlink:href="#C2_0_454757fcbf" x="493.376869" y="119.875023" style="fill: #0369a1; fill-opacity: 0.75"/>
    </g>
    <g clip-path="url(#p0a9a62f161)">
     <use xlink:href="#C2_0_454757fcbf" x="462.6803" y="175.377265" style="fill: #0369a1; fill-opacity: 0.75"/>
    </g>
    <g clip-path="url(#p0a9a62f161)">
     <use xlink:href="#C2_0_454757fcbf" x="498.489308" y="134.840316" style="fill: #0369a1; fill-opacity: 0.75"/>
    </g>
    <g clip-path="url(#p0a9a62f161)">
     <use xlink:href="#C2_0_454757fcbf" x="488.985215" y="134.950411" style="fill: #0369a1; fill-opacity: 0.75"/>
    </g>
    <g clip-path="url(#p0a9a62f161)">
     <use xlink:href="#C2_0_454757fcbf" x="477.418672" y="164.153675" style="fill: #0369a1; fill-opacity: 0.75"/>
    </g>
    <g clip-path="url(#p0a9a62f161)">
     <use xlink:href="#C2_0_454757fcbf" x="490.474483" y="153.959336" style="fill: #0369a1; fill-opacity: 0.75"/>
    </g>
    <g clip-path="url(#p0a9a62f161)">
     <use xlink:href="#C2_0_454757fcbf" x="462.686247" y="126.160501" style="fill: #0369a1; fill-opacity: 0.75"/>
    </g>
    <g clip-path="url(#p0a9a62f161)">
     <use xlink:href="#C2_0_454757fcbf" x="492.455003" y="128.026174" style="fill: #0369a1; fill-opacity: 0.75"/>
    </g>
    <g clip-path="url(#p0a9a62f161)">
     <use xlink:href="#C2_0_454757fcbf" x="474.995537" y="148.057643" style="fill: #0369a1; fill-opacity: 0.75"/>
    </g>
    <g clip-path="url(#p0a9a62f161)">
     <use xlink:href="#C2_0_454757fcbf" x="474.812115" y="152.358703" style="fill: #0369a1; fill-opacity: 0.75"/>
    </g>
    <g clip-path="url(#p0a9a62f161)">
     <use xlink:href="#C2_0_454757fcbf" x="497.287122" y="150.408082" style="fill: #0369a1; fill-opacity: 0.75"/>
    </g>
    <g clip-path="url(#p0a9a62f161)">
     <use xlink:href="#C2_0_454757fcbf" x="500.310099" y="129.282579" style="fill: #0369a1; fill-opacity: 0.75"/>
    </g>
    <g clip-path="url(#p0a9a62f161)">
     <use xlink:href="#C2_0_454757fcbf" x="531.716089" y="161.882461" style="fill: #0369a1; fill-opacity: 0.75"/>
    </g>
    <g clip-path="url(#p0a9a62f161)">
     <use xlink:href="#C2_0_454757fcbf" x="510.317224" y="137.35931" style="fill: #0369a1; fill-opacity: 0.75"/>
    </g>
    <g clip-path="url(#p0a9a62f161)">
     <use xlink:href="#C2_0_454757fcbf" x="493.346305" y="162.95639" style="fill: #0369a1; fill-opacity: 0.75"/>
    </g>
    <g clip-path="url(#p0a9a62f161)">
     <use xlink:href="#C2_0_454757fcbf" x="484.9512" y="121.691353" style="fill: #0369a1; fill-opacity: 0.75"/>
    </g>
    <g clip-path="url(#p0a9a62f161)">
     <use xlink:href="#C2_0_454757fcbf" x="492.058363" y="134.150355" style="fill: #0369a1; fill-opacity: 0.75"/>
    </g>
    <g clip-path="url(#p0a9a62f161)">
     <use xlink:href="#C2_0_454757fcbf" x="488.140113" y="113.950894" style="fill: #0369a1; fill-opacity: 0.75"/>
    </g>
    <g clip-path="url(#p0a9a62f161)">
     <use xlink:href="#C2_0_454757fcbf" x="493.206259" y="177.078911" style="fill: #0369a1; fill-opacity: 0.75"/>
    </g>
    <g clip-path="url(#p0a9a62f161)">
     <use xlink:href="#C2_0_454757fcbf" x="480.588128" y="172.720724" style="fill: #0369a1; fill-opacity: 0.75"/>
    </g>
    <g clip-path="url(#p0a9a62f161)">
     <use xlink:href="#C2_0_454757fcbf" x="432.430633" y="145.650235" style="fill: #0369a1; fill-opacity: 0.75"/>
    </g>
    <g clip-path="url(#p0a9a62f161)">
     <use xlink:href="#C2_0_454757fcbf" x="518.702796" y="134.788872" style="fill: #0369a1; fill-opacity: 0.75"/>
    </g>
    <g clip-path="url(#p0a9a62f161)">
     <use xlink:href="#C2_0_454757fcbf" x="471.547457" y="153.375869" style="fill: #0369a1; fill-opacity: 0.75"/>
    </g>
    <g clip-path="url(#p0a9a62f161)">
     <use xlink:href="#C2_0_454757fcbf" x="514.884115" y="132.709557" style="fill: #0369a1; fill-opacity: 0.75"/>
    </g>
    <g clip-path="url(#p0a9a62f161)">
     <use xlink:href="#C2_0_454757fcbf" x="494.513453" y="136.681435" style="fill: #0369a1; fill-opacity: 0.75"/>
    </g>
    <g clip-path="url(#p0a9a62f161)">
     <use xlink:href="#C2_0_454757fcbf" x="494.332837" y="120.520829" style="fill: #0369a1; fill-opacity: 0.75"/>
    </g>
    <g clip-path="url(#p0a9a62f161)">
     <use xlink:href="#C2_0_454757fcbf" x="504.007498" y="131.61675" style="fill: #0369a1; fill-opacity: 0.75"/>
    </g>
    <g clip-path="url(#p0a9a62f161)">
     <use xlink:href="#C2_0_454757fcbf" x="473.98749" y="126.058373" style="fill: #0369a1; fill-opacity: 0.75"/>
    </g>
    <g clip-path="url(#p0a9a62f161)">
     <use xlink:href="#C2_0_454757fcbf" x="480.735373" y="115.093489" style="fill: #0369a1; fill-opacity: 0.75"/>
    </g>
    <g clip-path="url(#p0a9a62f161)">
     <use xlink:href="#C2_0_454757fcbf" x="469.693967" y="138.26499" style="fill: #0369a1; fill-opacity: 0.75"/>
    </g>
    <g clip-path="url(#p0a9a62f161)">
     <use xlink:href="#C2_0_454757fcbf" x="493.471836" y="160.60026" style="fill: #0369a1; fill-opacity: 0.75"/>
    </g>
    <g clip-path="url(#p0a9a62f161)">
     <use xlink:href="#C2_0_454757fcbf" x="526.011223" y="108.196209" style="fill: #0369a1; fill-opacity: 0.75"/>
    </g>
    <g clip-path="url(#p0a9a62f161)">
     <use xlink:href="#C2_0_454757fcbf" x="484.887414" y="121.154642" style="fill: #0369a1; fill-opacity: 0.75"/>
    </g>
    <g clip-path="url(#p0a9a62f161)">
     <use xlink:href="#C2_0_454757fcbf" x="500.735529" y="184.852699" style="fill: #0369a1; fill-opacity: 0.75"/>
    </g>
    <g clip-path="url(#p0a9a62f161)">
     <use xlink:href="#C2_0_454757fcbf" x="498.321825" y="136.82975" style="fill: #0369a1; fill-opacity: 0.75"/>
    </g>
    <g clip-path="url(#p0a9a62f161)">
     <use xlink:href="#C2_0_454757fcbf" x="495.176124" y="155.938163" style="fill: #0369a1; fill-opacity: 0.75"/>
    </g>
    <g clip-path="url(#p0a9a62f161)">
     <use xlink:href="#C2_0_454757fcbf" x="488.542208" y="139.029638" style="fill: #0369a1; fill-opacity: 0.75"/>
    </g>
    <g clip-path="url(#p0a9a62f161)">
     <use xlink:href="#C2_0_454757fcbf" x="515.965688" y="129.382848" style="fill: #0369a1; fill-opacity: 0.75"/>
    </g>
    <g clip-path="url(#p0a9a62f161)">
     <use xlink:href="#C2_0_454757fcbf" x="493.505766" y="106.906111" style="fill: #0369a1; fill-opacity: 0.75"/>
    </g>
    <g clip-path="url(#p0a9a62f161)">
     <use xlink:href="#C2_0_454757fcbf" x="483.162645" y="143.00308" style="fill: #0369a1; fill-opacity: 0.75"/>
    </g>
    <g clip-path="url(#p0a9a62f161)">
     <use xlink:href="#C2_0_454757fcbf" x="459.425897" y="106.150907" style="fill: #0369a1; fill-opacity: 0.75"/>
    </g>
    <g clip-path="url(#p0a9a62f161)">
     <use xlink:href="#C2_0_454757fcbf" x="511.755344" y="118.423909" style="fill: #0369a1; fill-opacity: 0.75"/>
    </g>
    <g clip-path="url(#p0a9a62f161)">
     <use xlink:href="#C2_0_454757fcbf" x="506.196406" y="133.602913" style="fill: #0369a1; fill-opacity: 0.75"/>
    </g>
    <g clip-path="url(#p0a9a62f161)">
     <use xlink:href="#C2_0_454757fcbf" x="497.66497" y="140.41729" style="fill: #0369a1; fill-opacity: 0.75"/>
    </g>
    <g clip-path="url(#p0a9a62f161)">
     <use xlink:href="#C2_0_454757fcbf" x="489.779308" y="134.653702" style="fill: #0369a1; fill-opacity: 0.75"/>
    </g>
    <g clip-path="url(#p0a9a62f161)">
     <use xlink:href="#C2_0_454757fcbf" x="522.05715" y="125.219564" style="fill: #0369a1; fill-opacity: 0.75"/>
    </g>
    <g clip-path="url(#p0a9a62f161)">
     <use xlink:href="#C2_0_454757fcbf" x="492.510294" y="146.577435" style="fill: #0369a1; fill-opacity: 0.75"/>
    </g>
    <g clip-path="url(#p0a9a62f161)">
     <use xlink:href="#C2_0_454757fcbf" x="481.662044" y="105.518699" style="fill: #0369a1; fill-opacity: 0.75"/>
    </g>
    <g clip-path="url(#p0a9a62f161)">
     <use xlink:href="#C2_0_454757fcbf" x="503.144211" y="134.404445" style="fill: #0369a1; fill-opacity: 0.75"/>
    </g>
    <g clip-path="url(#p0a9a62f161)">
     <use xlink:href="#C2_0_454757fcbf" x="487.09647" y="156.54364" style="fill: #0369a1; fill-opacity: 0.75"/>
    </g>
    <g clip-path="url(#p0a9a62f161)">
     <use xlink:href="#C2_0_454757fcbf" x="492.352211" y="119.23658" style="fill: #0369a1; fill-opacity: 0.75"/>
    </g>
    <g clip-path="url(#p0a9a62f161)">
     <use xlink:href="#C2_0_454757fcbf" x="486.224238" y="139.951326" style="fill: #0369a1; fill-opacity: 0.75"/>
    </g>
    <g clip-path="url(#p0a9a62f161)">
     <use xlink:href="#C2_0_454757fcbf" x="489.451268" y="133.613341" style="fill: #0369a1; fill-opacity: 0.75"/>
    </g>
   </g>
   <g id="PathCollection_4">
    <defs>
     <path id="m4a001010b1" d="M 0 4.743416 
C 1.257969 4.743416 2.464584 4.24362 3.354102 3.354102 
C 4.24362 2.464584 4.743416 1.257969 4.743416 0 
C 4.743416 -1.257969 4.24362 -2.464584 3.354102 -3.354102 
C 2.464584 -4.24362 1.257969 -4.743416 0 -4.743416 
C -1.257969 -4.743416 -2.464584 -4.24362 -3.354102 -3.354102 
C -4.24362 -2.464584 -4.743416 -1.257969 -4.743416 0 
C -4.743416 1.257969 -4.24362 2.464584 -3.354102 3.354102 
C -2.464584 4.24362 -1.257969 4.743416 0 4.743416 
z
" style="stroke: #ffffff; stroke-width: 1.2"/>
    </defs>
    <g clip-path="url(#p0a9a62f161)">
     <use xlink:href="#m4a001010b1" x="595.217674" y="67.937233" style="fill: #dc2626; stroke: #ffffff; stroke-width: 1.2"/>
     <use xlink:href="#m4a001010b1" x="602.744147" y="210.940217" style="fill: #dc2626; stroke: #ffffff; stroke-width: 1.2"/>
    </g>
   </g>
   <g id="text_3">
    <!-- also well separated · 98.7% / 1.3% -->
    <g style="fill: #6b7280" transform="translate(411.240838 248.572581) scale(0.095 -0.095)">
     <defs>
      <path id="DejaVuSans-52" d="M 1959 3097 
Q 1497 3097 1228 2736 
Q 959 2375 959 1747 
Q 959 1119 1226 758 
Q 1494 397 1959 397 
Q 2419 397 2687 759 
Q 2956 1122 2956 1747 
Q 2956 2369 2687 2733 
Q 2419 3097 1959 3097 
z
M 1959 3584 
Q 2709 3584 3137 3096 
Q 3566 2609 3566 1747 
Q 3566 888 3137 398 
Q 2709 -91 1959 -91 
Q 1206 -91 779 398 
Q 353 888 353 1747 
Q 353 2609 779 3096 
Q 1206 3584 1959 3584 
z
" transform="scale(0.015625)"/>
      <path id="DejaVuSans-1c" d="M 703 97 
L 703 672 
Q 941 559 1184 500 
Q 1428 441 1663 441 
Q 2288 441 2617 861 
Q 2947 1281 2994 2138 
Q 2813 1869 2534 1725 
Q 2256 1581 1919 1581 
Q 1219 1581 811 2004 
Q 403 2428 403 3163 
Q 403 3881 828 4315 
Q 1253 4750 1959 4750 
Q 2769 4750 3195 4129 
Q 3622 3509 3622 2328 
Q 3622 1225 3098 567 
Q 2575 -91 1691 -91 
Q 1453 -91 1209 -44 
Q 966 3 703 97 
z
M 1959 2075 
Q 2384 2075 2632 2365 
Q 2881 2656 2881 3163 
Q 2881 3666 2632 3958 
Q 2384 4250 1959 4250 
Q 1534 4250 1286 3958 
Q 1038 3666 1038 3163 
Q 1038 2656 1286 2365 
Q 1534 2075 1959 2075 
z
" transform="scale(0.015625)"/>
      <path id="DejaVuSans-1b" d="M 2034 2216 
Q 1584 2216 1326 1975 
Q 1069 1734 1069 1313 
Q 1069 891 1326 650 
Q 1584 409 2034 409 
Q 2484 409 2743 651 
Q 3003 894 3003 1313 
Q 3003 1734 2745 1975 
Q 2488 2216 2034 2216 
z
M 1403 2484 
Q 997 2584 770 2862 
Q 544 3141 544 3541 
Q 544 4100 942 4425 
Q 1341 4750 2034 4750 
Q 2731 4750 3128 4425 
Q 3525 4100 3525 3541 
Q 3525 3141 3298 2862 
Q 3072 2584 2669 2484 
Q 3125 2378 3379 2068 
Q 3634 1759 3634 1313 
Q 3634 634 3220 271 
Q 2806 -91 2034 -91 
Q 1263 -91 848 271 
Q 434 634 434 1313 
Q 434 1759 690 2068 
Q 947 2378 1403 2484 
z
M 1172 3481 
Q 1172 3119 1398 2916 
Q 1625 2713 2034 2713 
Q 2441 2713 2670 2916 
Q 2900 3119 2900 3481 
Q 2900 3844 2670 4047 
Q 2441 4250 2034 4250 
Q 1625 4250 1398 4047 
Q 1172 3844 1172 3481 
z
" transform="scale(0.015625)"/>
      <path id="DejaVuSans-11" d="M 684 794 
L 1344 794 
L 1344 0 
L 684 0 
L 684 794 
z
" transform="scale(0.015625)"/>
      <path id="DejaVuSans-1a" d="M 525 4666 
L 3525 4666 
L 3525 4397 
L 1831 0 
L 1172 0 
L 2766 4134 
L 525 4134 
L 525 4666 
z
" transform="scale(0.015625)"/>
      <path id="DejaVuSans-14" d="M 794 531 
L 1825 531 
L 1825 4091 
L 703 3866 
L 703 4441 
L 1819 4666 
L 2450 4666 
L 2450 531 
L 3481 531 
L 3481 0 
L 794 0 
L 794 531 
z
" transform="scale(0.015625)"/>
      <path id="DejaVuSans-16" d="M 2597 2516 
Q 3050 2419 3304 2112 
Q 3559 1806 3559 1356 
Q 3559 666 3084 287 
Q 2609 -91 1734 -91 
Q 1441 -91 1130 -33 
Q 819 25 488 141 
L 488 750 
Q 750 597 1062 519 
Q 1375 441 1716 441 
Q 2309 441 2620 675 
Q 2931 909 2931 1356 
Q 2931 1769 2642 2001 
Q 2353 2234 1838 2234 
L 1294 2234 
L 1294 2753 
L 1863 2753 
Q 2328 2753 2575 2939 
Q 2822 3125 2822 3475 
Q 2822 3834 2567 4026 
Q 2313 4219 1838 4219 
Q 1578 4219 1281 4162 
Q 984 4106 628 3988 
L 628 4550 
Q 988 4650 1302 4700 
Q 1616 4750 1894 4750 
Q 2613 4750 3031 4423 
Q 3450 4097 3450 3541 
Q 3450 3153 3228 2886 
Q 3006 2619 2597 2516 
z
" transform="scale(0.015625)"/>
     </defs>
     <use xlink:href="#DejaVuSans-44"/>
     <use xlink:href="#DejaVuSans-4f" transform="translate(61.28125 0)"/>
     <use xlink:href="#DejaVuSans-56" transform="translate(89.0625 0)"/>
     <use xlink:href="#DejaVuSans-52" transform="translate(141.15625 0)"/>
     <use xlink:href="#DejaVuSans-3" transform="translate(202.34375 0)"/>
     <use xlink:href="#DejaVuSans-5a" transform="translate(234.125 0)"/>
     <use xlink:href="#DejaVuSans-48" transform="translate(315.90625 0)"/>
     <use xlink:href="#DejaVuSans-4f" transform="translate(377.4375 0)"/>
     <use xlink:href="#DejaVuSans-4f" transform="translate(405.21875 0)"/>
     <use xlink:href="#DejaVuSans-3" transform="translate(433 0)"/>
     <use xlink:href="#DejaVuSans-56" transform="translate(464.78125 0)"/>
     <use xlink:href="#DejaVuSans-48" transform="translate(516.875 0)"/>
     <use xlink:href="#DejaVuSans-53" transform="translate(578.40625 0)"/>
     <use xlink:href="#DejaVuSans-44" transform="translate(641.890625 0)"/>
     <use xlink:href="#DejaVuSans-55" transform="translate(703.171875 0)"/>
     <use xlink:href="#DejaVuSans-44" transform="translate(744.28125 0)"/>
     <use xlink:href="#DejaVuSans-57" transform="translate(805.5625 0)"/>
     <use xlink:href="#DejaVuSans-48" transform="translate(844.765625 0)"/>
     <use xlink:href="#DejaVuSans-47" transform="translate(906.296875 0)"/>
     <use xlink:href="#DejaVuSans-3" transform="translate(969.78125 0)"/>
     <use xlink:href="#DejaVuSans-79" transform="translate(1001.5625 0)"/>
     <use xlink:href="#DejaVuSans-3" transform="translate(1033.34375 0)"/>
     <use xlink:href="#DejaVuSans-1c" transform="translate(1065.125 0)"/>
     <use xlink:href="#DejaVuSans-1b" transform="translate(1128.75 0)"/>
     <use xlink:href="#DejaVuSans-11" transform="translate(1192.375 0)"/>
     <use xlink:href="#DejaVuSans-1a" transform="translate(1224.15625 0)"/>
     <use xlink:href="#DejaVuSans-8" transform="translate(1287.78125 0)"/>
     <use xlink:href="#DejaVuSans-3" transform="translate(1382.796875 0)"/>
     <use xlink:href="#DejaVuSans-12" transform="translate(1414.578125 0)"/>
     <use xlink:href="#DejaVuSans-3" transform="translate(1448.265625 0)"/>
     <use xlink:href="#DejaVuSans-14" transform="translate(1480.046875 0)"/>
     <use xlink:href="#DejaVuSans-11" transform="translate(1543.671875 0)"/>
     <use xlink:href="#DejaVuSans-16" transform="translate(1575.453125 0)"/>
     <use xlink:href="#DejaVuSans-8" transform="translate(1639.078125 0)"/>
    </g>
   </g>
   <g id="text_4">
    <!-- An isolated outlier -->
    <g style="fill: #1e293b" transform="translate(444.923906 16.778396) scale(0.115 -0.115)">
     <defs>
      <path id="DejaVuSans-Bold-51" d="M 4056 2131 
L 4056 0 
L 2931 0 
L 2931 347 
L 2931 1631 
Q 2931 2084 2911 2256 
Q 2891 2428 2841 2509 
Q 2775 2619 2662 2680 
Q 2550 2741 2406 2741 
Q 2056 2741 1856 2470 
Q 1656 2200 1656 1722 
L 1656 0 
L 538 0 
L 538 3500 
L 1656 3500 
L 1656 2988 
Q 1909 3294 2193 3439 
Q 2478 3584 2822 3584 
Q 3428 3584 3742 3212 
Q 4056 2841 4056 2131 
z
" transform="scale(0.015625)"/>
      <path id="DejaVuSans-Bold-52" d="M 2203 2784 
Q 1831 2784 1636 2517 
Q 1441 2250 1441 1747 
Q 1441 1244 1636 976 
Q 1831 709 2203 709 
Q 2569 709 2762 976 
Q 2956 1244 2956 1747 
Q 2956 2250 2762 2517 
Q 2569 2784 2203 2784 
z
M 2203 3584 
Q 3106 3584 3614 3096 
Q 4122 2609 4122 1747 
Q 4122 884 3614 396 
Q 3106 -91 2203 -91 
Q 1297 -91 786 396 
Q 275 884 275 1747 
Q 275 2609 786 3096 
Q 1297 3584 2203 3584 
z
" transform="scale(0.015625)"/>
      <path id="DejaVuSans-Bold-47" d="M 2919 2988 
L 2919 4863 
L 4044 4863 
L 4044 0 
L 2919 0 
L 2919 506 
Q 2688 197 2409 53 
Q 2131 -91 1766 -91 
Q 1119 -91 703 423 
Q 288 938 288 1747 
Q 288 2556 703 3070 
Q 1119 3584 1766 3584 
Q 2128 3584 2408 3439 
Q 2688 3294 2919 2988 
z
M 2181 722 
Q 2541 722 2730 984 
Q 2919 1247 2919 1747 
Q 2919 2247 2730 2509 
Q 2541 2772 2181 2772 
Q 1825 2772 1636 2509 
Q 1447 2247 1447 1747 
Q 1447 1247 1636 984 
Q 1825 722 2181 722 
z
" transform="scale(0.015625)"/>
      <path id="DejaVuSans-Bold-58" d="M 500 1363 
L 500 3500 
L 1625 3500 
L 1625 3150 
Q 1625 2866 1622 2436 
Q 1619 2006 1619 1863 
Q 1619 1441 1641 1255 
Q 1663 1069 1716 984 
Q 1784 875 1895 815 
Q 2006 756 2150 756 
Q 2500 756 2700 1025 
Q 2900 1294 2900 1772 
L 2900 3500 
L 4019 3500 
L 4019 0 
L 2900 0 
L 2900 506 
Q 2647 200 2364 54 
Q 2081 -91 1741 -91 
Q 1134 -91 817 281 
Q 500 653 500 1363 
z
" transform="scale(0.015625)"/>
     </defs>
     <use xlink:href="#DejaVuSans-Bold-24"/>
     <use xlink:href="#DejaVuSans-Bold-51" transform="translate(77.390625 0)"/>
     <use xlink:href="#DejaVuSans-Bold-3" transform="translate(148.578125 0)"/>
     <use xlink:href="#DejaVuSans-Bold-4c" transform="translate(183.390625 0)"/>
     <use xlink:href="#DejaVuSans-Bold-56" transform="translate(217.671875 0)"/>
     <use xlink:href="#DejaVuSans-Bold-52" transform="translate(277.1875 0)"/>
     <use xlink:href="#DejaVuSans-Bold-4f" transform="translate(345.890625 0)"/>
     <use xlink:href="#DejaVuSans-Bold-44" transform="translate(380.171875 0)"/>
     <use xlink:href="#DejaVuSans-Bold-57" transform="translate(447.65625 0)"/>
     <use xlink:href="#DejaVuSans-Bold-48" transform="translate(495.453125 0)"/>
     <use xlink:href="#DejaVuSans-Bold-47" transform="translate(563.28125 0)"/>
     <use xlink:href="#DejaVuSans-Bold-3" transform="translate(634.859375 0)"/>
     <use xlink:href="#DejaVuSans-Bold-52" transform="translate(669.671875 0)"/>
     <use xlink:href="#DejaVuSans-Bold-58" transform="translate(738.375 0)"/>
     <use xlink:href="#DejaVuSans-Bold-57" transform="translate(809.5625 0)"/>
     <use xlink:href="#DejaVuSans-Bold-4f" transform="translate(857.359375 0)"/>
     <use xlink:href="#DejaVuSans-Bold-4c" transform="translate(891.640625 0)"/>
     <use xlink:href="#DejaVuSans-Bold-48" transform="translate(925.921875 0)"/>
     <use xlink:href="#DejaVuSans-Bold-55" transform="translate(993.75 0)"/>
    </g>
   </g>
  </g>
  <g id="text_5">
   <!-- Same formulas, same blind spot: neither reads population share -->
   <g style="fill: #6b7280" transform="translate(169.359023 307.296) scale(0.105 -0.105)">
    <defs>
     <path id="DejaVuSans-36" d="M 3425 4513 
L 3425 3897 
Q 3066 4069 2747 4153 
Q 2428 4238 2131 4238 
Q 1616 4238 1336 4038 
Q 1056 3838 1056 3469 
Q 1056 3159 1242 3001 
Q 1428 2844 1947 2747 
L 2328 2669 
Q 3034 2534 3370 2195 
Q 3706 1856 3706 1288 
Q 3706 609 3251 259 
Q 2797 -91 1919 -91 
Q 1588 -91 1214 -16 
Q 841 59 441 206 
L 441 856 
Q 825 641 1194 531 
Q 1563 422 1919 422 
Q 2459 422 2753 634 
Q 3047 847 3047 1241 
Q 3047 1584 2836 1778 
Q 2625 1972 2144 2069 
L 1759 2144 
Q 1053 2284 737 2584 
Q 422 2884 422 3419 
Q 422 4038 858 4394 
Q 1294 4750 2059 4750 
Q 2388 4750 2728 4690 
Q 3069 4631 3425 4513 
z
" transform="scale(0.015625)"/>
     <path id="DejaVuSans-50" d="M 3328 2828 
Q 3544 3216 3844 3400 
Q 4144 3584 4550 3584 
Q 5097 3584 5394 3201 
Q 5691 2819 5691 2113 
L 5691 0 
L 5113 0 
L 5113 2094 
Q 5113 2597 4934 2840 
Q 4756 3084 4391 3084 
Q 3944 3084 3684 2787 
Q 3425 2491 3425 1978 
L 3425 0 
L 2847 0 
L 2847 2094 
Q 2847 2600 2669 2842 
Q 2491 3084 2119 3084 
Q 1678 3084 1418 2786 
Q 1159 2488 1159 1978 
L 1159 0 
L 581 0 
L 581 3500 
L 1159 3500 
L 1159 2956 
Q 1356 3278 1631 3431 
Q 1906 3584 2284 3584 
Q 2666 3584 2933 3390 
Q 3200 3197 3328 2828 
z
" transform="scale(0.015625)"/>
     <path id="DejaVuSans-49" d="M 2375 4863 
L 2375 4384 
L 1825 4384 
Q 1516 4384 1395 4259 
Q 1275 4134 1275 3809 
L 1275 3500 
L 2222 3500 
L 2222 3053 
L 1275 3053 
L 1275 0 
L 697 0 
L 697 3053 
L 147 3053 
L 147 3500 
L 697 3500 
L 697 3744 
Q 697 4328 969 4595 
Q 1241 4863 1831 4863 
L 2375 4863 
z
" transform="scale(0.015625)"/>
     <path id="DejaVuSans-58" d="M 544 1381 
L 544 3500 
L 1119 3500 
L 1119 1403 
Q 1119 906 1312 657 
Q 1506 409 1894 409 
Q 2359 409 2629 706 
Q 2900 1003 2900 1516 
L 2900 3500 
L 3475 3500 
L 3475 0 
L 2900 0 
L 2900 538 
Q 2691 219 2414 64 
Q 2138 -91 1772 -91 
Q 1169 -91 856 284 
Q 544 659 544 1381 
z
M 1991 3584 
L 1991 3584 
z
" transform="scale(0.015625)"/>
     <path id="DejaVuSans-f" d="M 750 794 
L 1409 794 
L 1409 256 
L 897 -744 
L 494 -744 
L 750 256 
L 750 794 
z
" transform="scale(0.015625)"/>
     <path id="DejaVuSans-45" d="M 3116 1747 
Q 3116 2381 2855 2742 
Q 2594 3103 2138 3103 
Q 1681 3103 1420 2742 
Q 1159 2381 1159 1747 
Q 1159 1113 1420 752 
Q 1681 391 2138 391 
Q 2594 391 2855 752 
Q 3116 1113 3116 1747 
z
M 1159 2969 
Q 1341 3281 1617 3432 
Q 1894 3584 2278 3584 
Q 2916 3584 3314 3078 
Q 3713 2572 3713 1747 
Q 3713 922 3314 415 
Q 2916 -91 2278 -91 
Q 1894 -91 1617 61 
Q 1341 213 1159 525 
L 1159 0 
L 581 0 
L 581 4863 
L 1159 4863 
L 1159 2969 
z
" transform="scale(0.015625)"/>
     <path id="DejaVuSans-4c" d="M 603 3500 
L 1178 3500 
L 1178 0 
L 603 0 
L 603 3500 
z
M 603 4863 
L 1178 4863 
L 1178 4134 
L 603 4134 
L 603 4863 
z
" transform="scale(0.015625)"/>
     <path id="DejaVuSans-51" d="M 3513 2113 
L 3513 0 
L 2938 0 
L 2938 2094 
Q 2938 2591 2744 2837 
Q 2550 3084 2163 3084 
Q 1697 3084 1428 2787 
Q 1159 2491 1159 1978 
L 1159 0 
L 581 0 
L 581 3500 
L 1159 3500 
L 1159 2956 
Q 1366 3272 1645 3428 
Q 1925 3584 2291 3584 
Q 2894 3584 3203 3211 
Q 3513 2838 3513 2113 
z
" transform="scale(0.015625)"/>
     <path id="DejaVuSans-1d" d="M 750 794 
L 1409 794 
L 1409 0 
L 750 0 
L 750 794 
z
M 750 3309 
L 1409 3309 
L 1409 2516 
L 750 2516 
L 750 3309 
z
" transform="scale(0.015625)"/>
     <path id="DejaVuSans-4b" d="M 3513 2113 
L 3513 0 
L 2938 0 
L 2938 2094 
Q 2938 2591 2744 2837 
Q 2550 3084 2163 3084 
Q 1697 3084 1428 2787 
Q 1159 2491 1159 1978 
L 1159 0 
L 581 0 
L 581 4863 
L 1159 4863 
L 1159 2956 
Q 1366 3272 1645 3428 
Q 1925 3584 2291 3584 
Q 2894 3584 3203 3211 
Q 3513 2838 3513 2113 
z
" transform="scale(0.015625)"/>
    </defs>
    <use xlink:href="#DejaVuSans-36"/>
    <use xlink:href="#DejaVuSans-44" transform="translate(63.484375 0)"/>
    <use xlink:href="#DejaVuSans-50" transform="translate(124.765625 0)"/>
    <use xlink:href="#DejaVuSans-48" transform="translate(222.171875 0)"/>
    <use xlink:href="#DejaVuSans-3" transform="translate(283.703125 0)"/>
    <use xlink:href="#DejaVuSans-49" transform="translate(315.484375 0)"/>
    <use xlink:href="#DejaVuSans-52" transform="translate(350.6875 0)"/>
    <use xlink:href="#DejaVuSans-55" transform="translate(411.875 0)"/>
    <use xlink:href="#DejaVuSans-50" transform="translate(451.234375 0)"/>
    <use xlink:href="#DejaVuSans-58" transform="translate(548.640625 0)"/>
    <use xlink:href="#DejaVuSans-4f" transform="translate(612.015625 0)"/>
    <use xlink:href="#DejaVuSans-44" transform="translate(639.796875 0)"/>
    <use xlink:href="#DejaVuSans-56" transform="translate(701.078125 0)"/>
    <use xlink:href="#DejaVuSans-f" transform="translate(753.171875 0)"/>
    <use xlink:href="#DejaVuSans-3" transform="translate(784.953125 0)"/>
    <use xlink:href="#DejaVuSans-56" transform="translate(816.734375 0)"/>
    <use xlink:href="#DejaVuSans-44" transform="translate(868.828125 0)"/>
    <use xlink:href="#DejaVuSans-50" transform="translate(930.109375 0)"/>
    <use xlink:href="#DejaVuSans-48" transform="translate(1027.515625 0)"/>
    <use xlink:href="#DejaVuSans-3" transform="translate(1089.046875 0)"/>
    <use xlink:href="#DejaVuSans-45" transform="translate(1120.828125 0)"/>
    <use xlink:href="#DejaVuSans-4f" transform="translate(1184.3125 0)"/>
    <use xlink:href="#DejaVuSans-4c" transform="translate(1212.09375 0)"/>
    <use xlink:href="#DejaVuSans-51" transform="translate(1239.875 0)"/>
    <use xlink:href="#DejaVuSans-47" transform="translate(1303.25 0)"/>
    <use xlink:href="#DejaVuSans-3" transform="translate(1366.734375 0)"/>
    <use xlink:href="#DejaVuSans-56" transform="translate(1398.515625 0)"/>
    <use xlink:href="#DejaVuSans-53" transform="translate(1450.609375 0)"/>
    <use xlink:href="#DejaVuSans-52" transform="translate(1514.09375 0)"/>
    <use xlink:href="#DejaVuSans-57" transform="translate(1575.28125 0)"/>
    <use xlink:href="#DejaVuSans-1d" transform="translate(1614.484375 0)"/>
    <use xlink:href="#DejaVuSans-3" transform="translate(1648.171875 0)"/>
    <use xlink:href="#DejaVuSans-51" transform="translate(1679.953125 0)"/>
    <use xlink:href="#DejaVuSans-48" transform="translate(1743.328125 0)"/>
    <use xlink:href="#DejaVuSans-4c" transform="translate(1804.859375 0)"/>
    <use xlink:href="#DejaVuSans-57" transform="translate(1832.640625 0)"/>
    <use xlink:href="#DejaVuSans-4b" transform="translate(1871.84375 0)"/>
    <use xlink:href="#DejaVuSans-48" transform="translate(1935.21875 0)"/>
    <use xlink:href="#DejaVuSans-55" transform="translate(1996.75 0)"/>
    <use xlink:href="#DejaVuSans-3" transform="translate(2037.859375 0)"/>
    <use xlink:href="#DejaVuSans-55" transform="translate(2069.640625 0)"/>
    <use xlink:href="#DejaVuSans-48" transform="translate(2108.546875 0)"/>
    <use xlink:href="#DejaVuSans-44" transform="translate(2170.078125 0)"/>
    <use xlink:href="#DejaVuSans-47" transform="translate(2231.359375 0)"/>
    <use xlink:href="#DejaVuSans-56" transform="translate(2294.84375 0)"/>
    <use xlink:href="#DejaVuSans-3" transform="translate(2346.9375 0)"/>
    <use xlink:href="#DejaVuSans-53" transform="translate(2378.71875 0)"/>
    <use xlink:href="#DejaVuSans-52" transform="translate(2442.203125 0)"/>
    <use xlink:href="#DejaVuSans-53" transform="translate(2503.390625 0)"/>
    <use xlink:href="#DejaVuSans-58" transform="translate(2566.875 0)"/>
    <use xlink:href="#DejaVuSans-4f" transform="translate(2630.25 0)"/>
    <use xlink:href="#DejaVuSans-44" transform="translate(2658.03125 0)"/>
    <use xlink:href="#DejaVuSans-57" transform="translate(2719.3125 0)"/>
    <use xlink:href="#DejaVuSans-4c" transform="translate(2758.515625 0)"/>
    <use xlink:href="#DejaVuSans-52" transform="translate(2786.296875 0)"/>
    <use xlink:href="#DejaVuSans-51" transform="translate(2847.484375 0)"/>
    <use xlink:href="#DejaVuSans-3" transform="translate(2910.859375 0)"/>
    <use xlink:href="#DejaVuSans-56" transform="translate(2942.640625 0)"/>
    <use xlink:href="#DejaVuSans-4b" transform="translate(2994.734375 0)"/>
    <use xlink:href="#DejaVuSans-44" transform="translate(3058.109375 0)"/>
    <use xlink:href="#DejaVuSans-55" transform="translate(3119.390625 0)"/>
    <use xlink:href="#DejaVuSans-48" transform="translate(3158.296875 0)"/>
   </g>
  </g>
 </g>
 <defs>
  <clipPath id="paef9ba3301">
   <rect x="47.713198" y="22.778396" width="248.373604" height="248.373604"/>
  </clipPath>
  <clipPath id="p0a9a62f161">
   <rect x="380.713198" y="22.778396" width="248.373604" height="248.373604"/>
  </clipPath>
 </defs>
</svg>
