<?xml version="1.0" encoding="utf-8" standalone="no"?>
<!DOCTYPE svg PUBLIC "-//W3C//DTD SVG 1.1//EN"
  "http://www.w3.org/Graphics/SVG/1.1/DTD/svg11.dtd">
<svg xmlns:xlink="http://www.w3.org/1999/xlink" width="403.2pt" height="604.8pt" viewBox="0 0 403.2 604.8" xmlns="http://www.w3.org/2000/svg" version="1.1">
 <metadata>
  <rdf:RDF xmlns:dc="http://purl.org/dc/elements/1.1/" xmlns:cc="http://creativecommons.org/ns#" xmlns:rdf="http://www.w3.org/1999/02/22-rdf-syntax-ns#">
   <cc:Work>
    <dc:type rdf:resource="http://purl.org/dc/dcmitype/StillImage"/>
    <dc:date>2026-07-23T16:11:11.384477</dc:date>
    <dc:format>image/svg+xml</dc:format>
    <dc:creator>
     <cc:Agent>
      <dc:title>Matplotlib v3.11.0, https://matplotlib.org/</dc:title>
     </cc:Agent>
    </dc:creator>
   </cc:Work>
  </rdf:RDF>
 </metadata>
 <defs>
  <style type="text/css">*{stroke-linejoin: round; stroke-linecap: butt}</style>
 </defs>
 <g id="figure_1">
  <g id="patch_1">
   <path d="M 0 604.8 
L 403.2 604.8 
L 403.2 0 
L 0 0 
z
" style="fill: #ffffff"/>
  </g>
  <g id="axes_1">
   <g id="patch_2">
    <path d="M 82.813252 98.101104 
L 320.386748 98.101104 
Q 324.680245 98.101104 324.680245 93.807607 
L 324.680245 27.973988 
Q 324.680245 23.680491 320.386748 23.680491 
L 82.813252 23.680491 
Q 78.519755 23.680491 78.519755 27.973988 
L 78.519755 93.807607 
Q 78.519755 98.101104 82.813252 98.101104 
z
" clip-path="url(#p315f601114)" style="fill: #0369a1; stroke: #0369a1; stroke-width: 1.6; stroke-linejoin: miter"/>
   </g>
   <g id="patch_3">
    <path d="M 201.6 98.673343 
Q 201.6 116.349299 201.6 132.348203 
" clip-path="url(#p315f601114)" style="fill: none; stroke: #6b7280; stroke-width: 1.5; stroke-linecap: round"/>
    <path d="M 204.2 127.148203 
L 201.6 132.348203 
L 199 127.148203 
z
" clip-path="url(#p315f601114)" style="fill: #6b7280; stroke: #6b7280; stroke-width: 1.5; stroke-linecap: round"/>
   </g>
   <g id="patch_4">
    <path d="M 111.436564 209.016442 
L 291.763436 209.016442 
Q 296.056933 209.016442 296.056933 204.722945 
L 296.056933 138.889325 
Q 296.056933 134.595828 291.763436 134.595828 
L 111.436564 134.595828 
Q 107.143067 134.595828 107.143067 138.889325 
L 107.143067 204.722945 
Q 107.143067 209.016442 111.436564 209.016442 
z
" clip-path="url(#p315f601114)" style="fill: #0369a1; stroke: #0369a1; stroke-width: 1.6; stroke-linejoin: miter"/>
   </g>
   <g id="patch_5">
    <path d="M 201.6 209.588681 
Q 201.6 227.264636 201.6 243.26354 
" clip-path="url(#p315f601114)" style="fill: none; stroke: #6b7280; stroke-width: 1.5; stroke-linecap: round"/>
    <path d="M 204.2 238.06354 
L 201.6 243.26354 
L 199 238.06354 
z
" clip-path="url(#p315f601114)" style="fill: #6b7280; stroke: #6b7280; stroke-width: 1.5; stroke-linecap: round"/>
   </g>
   <g id="patch_6">
    <path d="M 136.481963 319.931779 
L 266.718037 319.931779 
Q 271.011534 319.931779 271.011534 315.638282 
L 271.011534 249.804663 
Q 271.011534 245.511166 266.718037 245.511166 
L 136.481963 245.511166 
Q 132.188466 245.511166 132.188466 249.804663 
L 132.188466 315.638282 
Q 132.188466 319.931779 136.481963 319.931779 
z
" clip-path="url(#p315f601114)" style="fill: #ea580c; stroke: #ea580c; stroke-width: 1.6; stroke-linejoin: miter"/>
   </g>
   <g id="patch_7">
    <path d="M 201.6 320.504018 
Q 201.6 338.179974 201.6 354.178878 
" clip-path="url(#p315f601114)" style="fill: none; stroke: #6b7280; stroke-width: 1.5; stroke-linecap: round"/>
    <path d="M 204.2 348.978878 
L 201.6 354.178878 
L 199 348.978878 
z
" clip-path="url(#p315f601114)" style="fill: #6b7280; stroke: #6b7280; stroke-width: 1.5; stroke-linecap: round"/>
   </g>
   <g id="patch_8">
    <path d="M 136.481963 430.847117 
L 266.718037 430.847117 
Q 271.011534 430.847117 271.011534 426.55362 
L 271.011534 360.72 
Q 271.011534 356.426503 266.718037 356.426503 
L 136.481963 356.426503 
Q 132.188466 356.426503 132.188466 360.72 
L 132.188466 426.55362 
Q 132.188466 430.847117 136.481963 430.847117 
z
" clip-path="url(#p315f601114)" style="fill: #ea580c; stroke: #ea580c; stroke-width: 1.6; stroke-linejoin: miter"/>
   </g>
   <g id="patch_9">
    <path d="M 201.6 431.419356 
Q 201.6 449.095311 201.6 465.094215 
" clip-path="url(#p315f601114)" style="fill: none; stroke: #6b7280; stroke-width: 1.5; stroke-linecap: round"/>
    <path d="M 204.2 459.894215 
L 201.6 465.094215 
L 199 459.894215 
z
" clip-path="url(#p315f601114)" style="fill: #6b7280; stroke: #6b7280; stroke-width: 1.5; stroke-linecap: round"/>
   </g>
   <g id="patch_10">
    <path d="M 154.371534 541.762454 
L 248.828466 541.762454 
Q 253.121963 541.762454 253.121963 537.468957 
L 253.121963 471.635337 
Q 253.121963 467.34184 248.828466 467.34184 
L 154.371534 467.34184 
Q 150.078037 467.34184 150.078037 471.635337 
L 150.078037 537.468957 
Q 150.078037 541.762454 154.371534 541.762454 
z
" clip-path="url(#p315f601114)" style="fill: #059669; stroke: #059669; stroke-width: 1.6; stroke-linejoin: miter"/>
   </g>
   <g id="text_1">
    <!-- 400 trials -->
    <g style="fill: #ffffff" transform="translate(179.346922 58.066042) scale(0.083 -0.083)">
     <defs>
      <path id="DejaVuSans-Bold-17" d="M 2356 3675 
L 1038 1722 
L 2356 1722 
L 2356 3675 
z
M 2156 4666 
L 3494 4666 
L 3494 1722 
L 4159 1722 
L 4159 850 
L 3494 850 
L 3494 0 
L 2356 0 
L 2356 850 
L 288 850 
L 288 1881 
L 2156 4666 
z
" transform="scale(0.015625)"/>
      <path id="DejaVuSans-Bold-13" d="M 2944 2338 
Q 2944 3213 2780 3570 
Q 2616 3928 2228 3928 
Q 1841 3928 1675 3570 
Q 1509 3213 1509 2338 
Q 1509 1453 1675 1090 
Q 1841 728 2228 728 
Q 2613 728 2778 1090 
Q 2944 1453 2944 2338 
z
M 4147 2328 
Q 4147 1169 3647 539 
Q 3147 -91 2228 -91 
Q 1306 -91 806 539 
Q 306 1169 306 2328 
Q 306 3491 806 4120 
Q 1306 4750 2228 4750 
Q 3147 4750 3647 4120 
Q 4147 3491 4147 2328 
z
" transform="scale(0.015625)"/>
      <path id="DejaVuSans-Bold-3" transform="scale(0.015625)"/>
      <path id="DejaVuSans-Bold-57" d="M 1759 4494 
L 1759 3500 
L 2913 3500 
L 2913 2700 
L 1759 2700 
L 1759 1216 
Q 1759 972 1856 886 
Q 1953 800 2241 800 
L 2816 800 
L 2816 0 
L 1856 0 
Q 1194 0 917 276 
Q 641 553 641 1216 
L 641 2700 
L 84 2700 
L 84 3500 
L 641 3500 
L 641 4494 
L 1759 4494 
z
" transform="scale(0.015625)"/>
      <path id="DejaVuSans-Bold-55" d="M 3138 2547 
Q 2991 2616 2845 2648 
Q 2700 2681 2553 2681 
Q 2122 2681 1889 2404 
Q 1656 2128 1656 1613 
L 1656 0 
L 538 0 
L 538 3500 
L 1656 3500 
L 1656 2925 
Q 1872 3269 2151 3426 
Q 2431 3584 2822 3584 
Q 2878 3584 2943 3579 
Q 3009 3575 3134 3559 
L 3138 2547 
z
" transform="scale(0.015625)"/>
      <path id="DejaVuSans-Bold-4c" d="M 538 3500 
L 1656 3500 
L 1656 0 
L 538 0 
L 538 3500 
z
M 538 4863 
L 1656 4863 
L 1656 3950 
L 538 3950 
L 538 4863 
z
" transform="scale(0.015625)"/>
      <path id="DejaVuSans-Bold-44" d="M 2106 1575 
Q 1756 1575 1579 1456 
Q 1403 1338 1403 1106 
Q 1403 894 1545 773 
Q 1688 653 1941 653 
Q 2256 653 2472 879 
Q 2688 1106 2688 1447 
L 2688 1575 
L 2106 1575 
z
M 3816 1997 
L 3816 0 
L 2688 0 
L 2688 519 
Q 2463 200 2181 54 
Q 1900 -91 1497 -91 
Q 953 -91 614 226 
Q 275 544 275 1050 
Q 275 1666 698 1953 
Q 1122 2241 2028 2241 
L 2688 2241 
L 2688 2328 
Q 2688 2594 2478 2717 
Q 2269 2841 1825 2841 
Q 1466 2841 1156 2769 
Q 847 2697 581 2553 
L 581 3406 
Q 941 3494 1303 3539 
Q 1666 3584 2028 3584 
Q 2975 3584 3395 3211 
Q 3816 2838 3816 1997 
z
" transform="scale(0.015625)"/>
      <path id="DejaVuSans-Bold-4f" d="M 538 4863 
L 1656 4863 
L 1656 0 
L 538 0 
L 538 4863 
z
" transform="scale(0.015625)"/>
      <path id="DejaVuSans-Bold-56" d="M 3272 3391 
L 3272 2541 
Q 2913 2691 2578 2766 
Q 2244 2841 1947 2841 
Q 1628 2841 1473 2761 
Q 1319 2681 1319 2516 
Q 1319 2381 1436 2309 
Q 1553 2238 1856 2203 
L 2053 2175 
Q 2913 2066 3209 1816 
Q 3506 1566 3506 1031 
Q 3506 472 3093 190 
Q 2681 -91 1863 -91 
Q 1516 -91 1145 -36 
Q 775 19 384 128 
L 384 978 
Q 719 816 1070 734 
Q 1422 653 1784 653 
Q 2113 653 2278 743 
Q 2444 834 2444 1013 
Q 2444 1163 2330 1236 
Q 2216 1309 1875 1350 
L 1678 1375 
Q 931 1469 631 1722 
Q 331 1975 331 2491 
Q 331 3047 712 3315 
Q 1094 3584 1881 3584 
Q 2191 3584 2531 3537 
Q 2872 3491 3272 3391 
z
" transform="scale(0.015625)"/>
     </defs>
     <use xlink:href="#DejaVuSans-Bold-17"/>
     <use xlink:href="#DejaVuSans-Bold-13" transform="translate(69.578125 0)"/>
     <use xlink:href="#DejaVuSans-Bold-13" transform="translate(139.15625 0)"/>
     <use xlink:href="#DejaVuSans-Bold-3" transform="translate(208.734375 0)"/>
     <use xlink:href="#DejaVuSans-Bold-57" transform="translate(243.546875 0)"/>
     <use xlink:href="#DejaVuSans-Bold-55" transform="translate(291.34375 0)"/>
     <use xlink:href="#DejaVuSans-Bold-4c" transform="translate(340.65625 0)"/>
     <use xlink:href="#DejaVuSans-Bold-44" transform="translate(374.9375 0)"/>
     <use xlink:href="#DejaVuSans-Bold-4f" transform="translate(442.421875 0)"/>
     <use xlink:href="#DejaVuSans-Bold-56" transform="translate(476.703125 0)"/>
    </g>
    <!-- 3 cheap live objectives -->
    <g style="fill: #ffffff" transform="translate(148.096773 68.028311) scale(0.083 -0.083)">
     <defs>
      <path id="DejaVuSans-Bold-16" d="M 2981 2516 
Q 3453 2394 3698 2092 
Q 3944 1791 3944 1325 
Q 3944 631 3412 270 
Q 2881 -91 1863 -91 
Q 1503 -91 1142 -33 
Q 781 25 428 141 
L 428 1069 
Q 766 900 1098 814 
Q 1431 728 1753 728 
Q 2231 728 2486 893 
Q 2741 1059 2741 1369 
Q 2741 1688 2480 1852 
Q 2219 2016 1709 2016 
L 1228 2016 
L 1228 2791 
L 1734 2791 
Q 2188 2791 2409 2933 
Q 2631 3075 2631 3366 
Q 2631 3634 2415 3781 
Q 2200 3928 1806 3928 
Q 1516 3928 1219 3862 
Q 922 3797 628 3669 
L 628 4550 
Q 984 4650 1334 4700 
Q 1684 4750 2022 4750 
Q 2931 4750 3382 4451 
Q 3834 4153 3834 3553 
Q 3834 3144 3618 2883 
Q 3403 2622 2981 2516 
z
" transform="scale(0.015625)"/>
      <path id="DejaVuSans-Bold-46" d="M 3366 3391 
L 3366 2478 
Q 3138 2634 2908 2709 
Q 2678 2784 2431 2784 
Q 1963 2784 1702 2511 
Q 1441 2238 1441 1747 
Q 1441 1256 1702 982 
Q 1963 709 2431 709 
Q 2694 709 2930 787 
Q 3166 866 3366 1019 
L 3366 103 
Q 3103 6 2833 -42 
Q 2563 -91 2291 -91 
Q 1344 -91 809 395 
Q 275 881 275 1747 
Q 275 2613 809 3098 
Q 1344 3584 2291 3584 
Q 2566 3584 2833 3536 
Q 3100 3488 3366 3391 
z
" transform="scale(0.015625)"/>
      <path id="DejaVuSans-Bold-4b" d="M 4056 2131 
L 4056 0 
L 2931 0 
L 2931 347 
L 2931 1625 
Q 2931 2084 2911 2256 
Q 2891 2428 2841 2509 
Q 2775 2619 2662 2680 
Q 2550 2741 2406 2741 
Q 2056 2741 1856 2470 
Q 1656 2200 1656 1722 
L 1656 0 
L 538 0 
L 538 4863 
L 1656 4863 
L 1656 2988 
Q 1909 3294 2193 3439 
Q 2478 3584 2822 3584 
Q 3428 3584 3742 3212 
Q 4056 2841 4056 2131 
z
" transform="scale(0.015625)"/>
      <path id="DejaVuSans-Bold-48" d="M 4031 1759 
L 4031 1441 
L 1416 1441 
Q 1456 1047 1700 850 
Q 1944 653 2381 653 
Q 2734 653 3104 758 
Q 3475 863 3866 1075 
L 3866 213 
Q 3469 63 3072 -14 
Q 2675 -91 2278 -91 
Q 1328 -91 801 392 
Q 275 875 275 1747 
Q 275 2603 792 3093 
Q 1309 3584 2216 3584 
Q 3041 3584 3536 3087 
Q 4031 2591 4031 1759 
z
M 2881 2131 
Q 2881 2450 2695 2645 
Q 2509 2841 2209 2841 
Q 1884 2841 1681 2658 
Q 1478 2475 1428 2131 
L 2881 2131 
z
" transform="scale(0.015625)"/>
      <path id="DejaVuSans-Bold-53" d="M 1656 506 
L 1656 -1331 
L 538 -1331 
L 538 3500 
L 1656 3500 
L 1656 2988 
Q 1888 3294 2169 3439 
Q 2450 3584 2816 3584 
Q 3463 3584 3878 3070 
Q 4294 2556 4294 1747 
Q 4294 938 3878 423 
Q 3463 -91 2816 -91 
Q 2450 -91 2169 54 
Q 1888 200 1656 506 
z
M 2400 2772 
Q 2041 2772 1848 2508 
Q 1656 2244 1656 1747 
Q 1656 1250 1848 986 
Q 2041 722 2400 722 
Q 2759 722 2948 984 
Q 3138 1247 3138 1747 
Q 3138 2247 2948 2509 
Q 2759 2772 2400 2772 
z
" transform="scale(0.015625)"/>
      <path id="DejaVuSans-Bold-59" d="M 97 3500 
L 1216 3500 
L 2088 1081 
L 2956 3500 
L 4078 3500 
L 2700 0 
L 1472 0 
L 97 3500 
z
" transform="scale(0.015625)"/>
      <path id="DejaVuSans-Bold-52" d="M 2203 2784 
Q 1831 2784 1636 2517 
Q 1441 2250 1441 1747 
Q 1441 1244 1636 976 
Q 1831 709 2203 709 
Q 2569 709 2762 976 
Q 2956 1244 2956 1747 
Q 2956 2250 2762 2517 
Q 2569 2784 2203 2784 
z
M 2203 3584 
Q 3106 3584 3614 3096 
Q 4122 2609 4122 1747 
Q 4122 884 3614 396 
Q 3106 -91 2203 -91 
Q 1297 -91 786 396 
Q 275 884 275 1747 
Q 275 2609 786 3096 
Q 1297 3584 2203 3584 
z
" transform="scale(0.015625)"/>
      <path id="DejaVuSans-Bold-45" d="M 2400 722 
Q 2759 722 2948 984 
Q 3138 1247 3138 1747 
Q 3138 2247 2948 2509 
Q 2759 2772 2400 2772 
Q 2041 2772 1848 2508 
Q 1656 2244 1656 1747 
Q 1656 1250 1848 986 
Q 2041 722 2400 722 
z
M 1656 2988 
Q 1888 3294 2169 3439 
Q 2450 3584 2816 3584 
Q 3463 3584 3878 3070 
Q 4294 2556 4294 1747 
Q 4294 938 3878 423 
Q 3463 -91 2816 -91 
Q 2450 -91 2169 54 
Q 1888 200 1656 506 
L 1656 0 
L 538 0 
L 538 4863 
L 1656 4863 
L 1656 2988 
z
" transform="scale(0.015625)"/>
      <path id="DejaVuSans-Bold-4d" d="M 538 3500 
L 1656 3500 
L 1656 63 
Q 1656 -641 1318 -1011 
Q 981 -1381 341 -1381 
L -213 -1381 
L -213 -647 
L -19 -647 
Q 300 -647 419 -503 
Q 538 -359 538 63 
L 538 3500 
z
M 538 4863 
L 1656 4863 
L 1656 3950 
L 538 3950 
L 538 4863 
z
" transform="scale(0.015625)"/>
     </defs>
     <use xlink:href="#DejaVuSans-Bold-16"/>
     <use xlink:href="#DejaVuSans-Bold-3" transform="translate(69.578125 0)"/>
     <use xlink:href="#DejaVuSans-Bold-46" transform="translate(104.390625 0)"/>
     <use xlink:href="#DejaVuSans-Bold-4b" transform="translate(163.671875 0)"/>
     <use xlink:href="#DejaVuSans-Bold-48" transform="translate(234.859375 0)"/>
     <use xlink:href="#DejaVuSans-Bold-44" transform="translate(302.6875 0)"/>
     <use xlink:href="#DejaVuSans-Bold-53" transform="translate(370.171875 0)"/>
     <use xlink:href="#DejaVuSans-Bold-3" transform="translate(441.75 0)"/>
     <use xlink:href="#DejaVuSans-Bold-4f" transform="translate(476.5625 0)"/>
     <use xlink:href="#DejaVuSans-Bold-4c" transform="translate(510.84375 0)"/>
     <use xlink:href="#DejaVuSans-Bold-59" transform="translate(545.125 0)"/>
     <use xlink:href="#DejaVuSans-Bold-48" transform="translate(610.3125 0)"/>
     <use xlink:href="#DejaVuSans-Bold-3" transform="translate(678.140625 0)"/>
     <use xlink:href="#DejaVuSans-Bold-52" transform="translate(712.953125 0)"/>
     <use xlink:href="#DejaVuSans-Bold-45" transform="translate(781.65625 0)"/>
     <use xlink:href="#DejaVuSans-Bold-4d" transform="translate(853.234375 0)"/>
     <use xlink:href="#DejaVuSans-Bold-48" transform="translate(887.515625 0)"/>
     <use xlink:href="#DejaVuSans-Bold-46" transform="translate(955.34375 0)"/>
     <use xlink:href="#DejaVuSans-Bold-57" transform="translate(1014.625 0)"/>
     <use xlink:href="#DejaVuSans-Bold-4c" transform="translate(1062.421875 0)"/>
     <use xlink:href="#DejaVuSans-Bold-59" transform="translate(1096.703125 0)"/>
     <use xlink:href="#DejaVuSans-Bold-48" transform="translate(1161.890625 0)"/>
     <use xlink:href="#DejaVuSans-Bold-56" transform="translate(1229.71875 0)"/>
    </g>
   </g>
   <g id="text_2">
    <!-- ~20 on the Pareto front -->
    <g style="fill: #ffffff" transform="translate(145.942664 168.981379) scale(0.083 -0.083)">
     <defs>
      <path id="DejaVuSans-Bold-61" d="M 4684 2656 
L 4684 1894 
Q 4353 1644 4073 1536 
Q 3794 1428 3494 1428 
Q 3159 1428 2713 1609 
Q 2669 1628 2644 1638 
Q 2622 1647 2575 1666 
Q 2091 1856 1797 1856 
Q 1522 1856 1253 1736 
Q 984 1616 678 1356 
L 678 2119 
Q 1013 2369 1291 2476 
Q 1569 2584 1869 2584 
Q 2203 2584 2650 2403 
Q 2697 2384 2719 2375 
Q 2741 2366 2788 2347 
Q 3272 2156 3566 2156 
Q 3834 2156 4098 2273 
Q 4363 2391 4684 2656 
z
" transform="scale(0.015625)"/>
      <path id="DejaVuSans-Bold-15" d="M 1844 884 
L 3897 884 
L 3897 0 
L 506 0 
L 506 884 
L 2209 2388 
Q 2438 2594 2547 2791 
Q 2656 2988 2656 3200 
Q 2656 3528 2436 3728 
Q 2216 3928 1850 3928 
Q 1569 3928 1234 3808 
Q 900 3688 519 3450 
L 519 4475 
Q 925 4609 1322 4679 
Q 1719 4750 2100 4750 
Q 2938 4750 3402 4381 
Q 3866 4013 3866 3353 
Q 3866 2972 3669 2642 
Q 3472 2313 2841 1759 
L 1844 884 
z
" transform="scale(0.015625)"/>
      <path id="DejaVuSans-Bold-51" d="M 4056 2131 
L 4056 0 
L 2931 0 
L 2931 347 
L 2931 1631 
Q 2931 2084 2911 2256 
Q 2891 2428 2841 2509 
Q 2775 2619 2662 2680 
Q 2550 2741 2406 2741 
Q 2056 2741 1856 2470 
Q 1656 2200 1656 1722 
L 1656 0 
L 538 0 
L 538 3500 
L 1656 3500 
L 1656 2988 
Q 1909 3294 2193 3439 
Q 2478 3584 2822 3584 
Q 3428 3584 3742 3212 
Q 4056 2841 4056 2131 
z
" transform="scale(0.015625)"/>
      <path id="DejaVuSans-Bold-33" d="M 588 4666 
L 2584 4666 
Q 3475 4666 3951 4270 
Q 4428 3875 4428 3144 
Q 4428 2409 3951 2014 
Q 3475 1619 2584 1619 
L 1791 1619 
L 1791 0 
L 588 0 
L 588 4666 
z
M 1791 3794 
L 1791 2491 
L 2456 2491 
Q 2806 2491 2997 2661 
Q 3188 2831 3188 3144 
Q 3188 3456 2997 3625 
Q 2806 3794 2456 3794 
L 1791 3794 
z
" transform="scale(0.015625)"/>
      <path id="DejaVuSans-Bold-49" d="M 2841 4863 
L 2841 4128 
L 2222 4128 
Q 1984 4128 1890 4042 
Q 1797 3956 1797 3744 
L 1797 3500 
L 2753 3500 
L 2753 2700 
L 1797 2700 
L 1797 0 
L 678 0 
L 678 2700 
L 122 2700 
L 122 3500 
L 678 3500 
L 678 3744 
Q 678 4316 997 4589 
Q 1316 4863 1984 4863 
L 2841 4863 
z
" transform="scale(0.015625)"/>
     </defs>
     <use xlink:href="#DejaVuSans-Bold-61"/>
     <use xlink:href="#DejaVuSans-Bold-15" transform="translate(83.796875 0)"/>
     <use xlink:href="#DejaVuSans-Bold-13" transform="translate(153.375 0)"/>
     <use xlink:href="#DejaVuSans-Bold-3" transform="translate(222.953125 0)"/>
     <use xlink:href="#DejaVuSans-Bold-52" transform="translate(257.765625 0)"/>
     <use xlink:href="#DejaVuSans-Bold-51" transform="translate(326.46875 0)"/>
     <use xlink:href="#DejaVuSans-Bold-3" transform="translate(397.65625 0)"/>
     <use xlink:href="#DejaVuSans-Bold-57" transform="translate(432.46875 0)"/>
     <use xlink:href="#DejaVuSans-Bold-4b" transform="translate(480.265625 0)"/>
     <use xlink:href="#DejaVuSans-Bold-48" transform="translate(551.453125 0)"/>
     <use xlink:href="#DejaVuSans-Bold-3" transform="translate(619.28125 0)"/>
     <use xlink:href="#DejaVuSans-Bold-33" transform="translate(654.09375 0)"/>
     <use xlink:href="#DejaVuSans-Bold-44" transform="translate(724.703125 0)"/>
     <use xlink:href="#DejaVuSans-Bold-55" transform="translate(792.1875 0)"/>
     <use xlink:href="#DejaVuSans-Bold-48" transform="translate(841.5 0)"/>
     <use xlink:href="#DejaVuSans-Bold-57" transform="translate(909.328125 0)"/>
     <use xlink:href="#DejaVuSans-Bold-52" transform="translate(957.125 0)"/>
     <use xlink:href="#DejaVuSans-Bold-3" transform="translate(1025.828125 0)"/>
     <use xlink:href="#DejaVuSans-Bold-49" transform="translate(1060.640625 0)"/>
     <use xlink:href="#DejaVuSans-Bold-55" transform="translate(1104.140625 0)"/>
     <use xlink:href="#DejaVuSans-Bold-52" transform="translate(1153.453125 0)"/>
     <use xlink:href="#DejaVuSans-Bold-51" transform="translate(1222.15625 0)"/>
     <use xlink:href="#DejaVuSans-Bold-57" transform="translate(1293.34375 0)"/>
    </g>
    <!-- (dominance alone) -->
    <g style="fill: #ffffff" transform="translate(157.965344 178.943649) scale(0.083 -0.083)">
     <defs>
      <path id="DejaVuSans-Bold-b" d="M 2413 -844 
L 1484 -844 
Q 1006 -72 778 623 
Q 550 1319 550 2003 
Q 550 2688 779 3389 
Q 1009 4091 1484 4856 
L 2413 4856 
Q 2013 4116 1813 3408 
Q 1613 2700 1613 2009 
Q 1613 1319 1811 609 
Q 2009 -100 2413 -844 
z
" transform="scale(0.015625)"/>
      <path id="DejaVuSans-Bold-47" d="M 2919 2988 
L 2919 4863 
L 4044 4863 
L 4044 0 
L 2919 0 
L 2919 506 
Q 2688 197 2409 53 
Q 2131 -91 1766 -91 
Q 1119 -91 703 423 
Q 288 938 288 1747 
Q 288 2556 703 3070 
Q 1119 3584 1766 3584 
Q 2128 3584 2408 3439 
Q 2688 3294 2919 2988 
z
M 2181 722 
Q 2541 722 2730 984 
Q 2919 1247 2919 1747 
Q 2919 2247 2730 2509 
Q 2541 2772 2181 2772 
Q 1825 2772 1636 2509 
Q 1447 2247 1447 1747 
Q 1447 1247 1636 984 
Q 1825 722 2181 722 
z
" transform="scale(0.015625)"/>
      <path id="DejaVuSans-Bold-50" d="M 3781 2919 
Q 3994 3244 4286 3414 
Q 4578 3584 4928 3584 
Q 5531 3584 5847 3212 
Q 6163 2841 6163 2131 
L 6163 0 
L 5038 0 
L 5038 1825 
Q 5041 1866 5042 1909 
Q 5044 1953 5044 2034 
Q 5044 2406 4934 2573 
Q 4825 2741 4581 2741 
Q 4263 2741 4089 2478 
Q 3916 2216 3909 1719 
L 3909 0 
L 2784 0 
L 2784 1825 
Q 2784 2406 2684 2573 
Q 2584 2741 2328 2741 
Q 2006 2741 1831 2477 
Q 1656 2213 1656 1722 
L 1656 0 
L 531 0 
L 531 3500 
L 1656 3500 
L 1656 2988 
Q 1863 3284 2130 3434 
Q 2397 3584 2719 3584 
Q 3081 3584 3359 3409 
Q 3638 3234 3781 2919 
z
" transform="scale(0.015625)"/>
      <path id="DejaVuSans-Bold-c" d="M 513 -844 
Q 913 -100 1113 609 
Q 1313 1319 1313 2009 
Q 1313 2700 1113 3408 
Q 913 4116 513 4856 
L 1441 4856 
Q 1916 4091 2145 3389 
Q 2375 2688 2375 2003 
Q 2375 1319 2147 623 
Q 1919 -72 1441 -844 
L 513 -844 
z
" transform="scale(0.015625)"/>
     </defs>
     <use xlink:href="#DejaVuSans-Bold-b"/>
     <use xlink:href="#DejaVuSans-Bold-47" transform="translate(45.703125 0)"/>
     <use xlink:href="#DejaVuSans-Bold-52" transform="translate(117.28125 0)"/>
     <use xlink:href="#DejaVuSans-Bold-50" transform="translate(185.984375 0)"/>
     <use xlink:href="#DejaVuSans-Bold-4c" transform="translate(290.1875 0)"/>
     <use xlink:href="#DejaVuSans-Bold-51" transform="translate(324.46875 0)"/>
     <use xlink:href="#DejaVuSans-Bold-44" transform="translate(395.65625 0)"/>
     <use xlink:href="#DejaVuSans-Bold-51" transform="translate(463.140625 0)"/>
     <use xlink:href="#DejaVuSans-Bold-46" transform="translate(534.328125 0)"/>
     <use xlink:href="#DejaVuSans-Bold-48" transform="translate(593.609375 0)"/>
     <use xlink:href="#DejaVuSans-Bold-3" transform="translate(661.4375 0)"/>
     <use xlink:href="#DejaVuSans-Bold-44" transform="translate(696.25 0)"/>
     <use xlink:href="#DejaVuSans-Bold-4f" transform="translate(763.734375 0)"/>
     <use xlink:href="#DejaVuSans-Bold-52" transform="translate(798.015625 0)"/>
     <use xlink:href="#DejaVuSans-Bold-51" transform="translate(866.71875 0)"/>
     <use xlink:href="#DejaVuSans-Bold-48" transform="translate(937.90625 0)"/>
     <use xlink:href="#DejaVuSans-Bold-c" transform="translate(1005.734375 0)"/>
    </g>
   </g>
   <g id="text_3">
    <!-- Top 5 by composite score -->
    <g style="fill: #ffffff" transform="translate(142.365234 279.896717) scale(0.083 -0.083)">
     <defs>
      <path id="DejaVuSans-Bold-37" d="M 31 4666 
L 4331 4666 
L 4331 3756 
L 2784 3756 
L 2784 0 
L 1581 0 
L 1581 3756 
L 31 3756 
L 31 4666 
z
" transform="scale(0.015625)"/>
      <path id="DejaVuSans-Bold-18" d="M 678 4666 
L 3669 4666 
L 3669 3781 
L 1638 3781 
L 1638 3059 
Q 1775 3097 1914 3117 
Q 2053 3138 2203 3138 
Q 3056 3138 3531 2711 
Q 4006 2284 4006 1522 
Q 4006 766 3489 337 
Q 2972 -91 2053 -91 
Q 1656 -91 1267 -14 
Q 878 63 494 219 
L 494 1166 
Q 875 947 1217 837 
Q 1559 728 1863 728 
Q 2300 728 2551 942 
Q 2803 1156 2803 1522 
Q 2803 1891 2551 2103 
Q 2300 2316 1863 2316 
Q 1603 2316 1309 2248 
Q 1016 2181 678 2041 
L 678 4666 
z
" transform="scale(0.015625)"/>
      <path id="DejaVuSans-Bold-5c" d="M 78 3500 
L 1197 3500 
L 2138 1125 
L 2938 3500 
L 4056 3500 
L 2584 -331 
Q 2363 -916 2067 -1148 
Q 1772 -1381 1288 -1381 
L 641 -1381 
L 641 -647 
L 991 -647 
Q 1275 -647 1404 -556 
Q 1534 -466 1606 -231 
L 1638 -134 
L 78 3500 
z
" transform="scale(0.015625)"/>
     </defs>
     <use xlink:href="#DejaVuSans-Bold-37"/>
     <use xlink:href="#DejaVuSans-Bold-52" transform="translate(54.9375 0)"/>
     <use xlink:href="#DejaVuSans-Bold-53" transform="translate(123.640625 0)"/>
     <use xlink:href="#DejaVuSans-Bold-3" transform="translate(195.21875 0)"/>
     <use xlink:href="#DejaVuSans-Bold-18" transform="translate(230.03125 0)"/>
     <use xlink:href="#DejaVuSans-Bold-3" transform="translate(299.609375 0)"/>
     <use xlink:href="#DejaVuSans-Bold-45" transform="translate(334.421875 0)"/>
     <use xlink:href="#DejaVuSans-Bold-5c" transform="translate(406 0)"/>
     <use xlink:href="#DejaVuSans-Bold-3" transform="translate(471.1875 0)"/>
     <use xlink:href="#DejaVuSans-Bold-46" transform="translate(506 0)"/>
     <use xlink:href="#DejaVuSans-Bold-52" transform="translate(565.28125 0)"/>
     <use xlink:href="#DejaVuSans-Bold-50" transform="translate(633.984375 0)"/>
     <use xlink:href="#DejaVuSans-Bold-53" transform="translate(738.1875 0)"/>
     <use xlink:href="#DejaVuSans-Bold-52" transform="translate(809.765625 0)"/>
     <use xlink:href="#DejaVuSans-Bold-56" transform="translate(878.46875 0)"/>
     <use xlink:href="#DejaVuSans-Bold-4c" transform="translate(937.984375 0)"/>
     <use xlink:href="#DejaVuSans-Bold-57" transform="translate(972.265625 0)"/>
     <use xlink:href="#DejaVuSans-Bold-48" transform="translate(1020.0625 0)"/>
     <use xlink:href="#DejaVuSans-Bold-3" transform="translate(1087.890625 0)"/>
     <use xlink:href="#DejaVuSans-Bold-56" transform="translate(1122.703125 0)"/>
     <use xlink:href="#DejaVuSans-Bold-46" transform="translate(1182.21875 0)"/>
     <use xlink:href="#DejaVuSans-Bold-52" transform="translate(1241.5 0)"/>
     <use xlink:href="#DejaVuSans-Bold-55" transform="translate(1310.203125 0)"/>
     <use xlink:href="#DejaVuSans-Bold-48" transform="translate(1359.515625 0)"/>
    </g>
    <!-- (cheap trust factor) -->
    <g style="fill: #ffffff" transform="translate(155.531758 289.858986) scale(0.083 -0.083)">
     <defs>
      <path id="DejaVuSans-Bold-58" d="M 500 1363 
L 500 3500 
L 1625 3500 
L 1625 3150 
Q 1625 2866 1622 2436 
Q 1619 2006 1619 1863 
Q 1619 1441 1641 1255 
Q 1663 1069 1716 984 
Q 1784 875 1895 815 
Q 2006 756 2150 756 
Q 2500 756 2700 1025 
Q 2900 1294 2900 1772 
L 2900 3500 
L 4019 3500 
L 4019 0 
L 2900 0 
L 2900 506 
Q 2647 200 2364 54 
Q 2081 -91 1741 -91 
Q 1134 -91 817 281 
Q 500 653 500 1363 
z
" transform="scale(0.015625)"/>
     </defs>
     <use xlink:href="#DejaVuSans-Bold-b"/>
     <use xlink:href="#DejaVuSans-Bold-46" transform="translate(45.703125 0)"/>
     <use xlink:href="#DejaVuSans-Bold-4b" transform="translate(104.984375 0)"/>
     <use xlink:href="#DejaVuSans-Bold-48" transform="translate(176.171875 0)"/>
     <use xlink:href="#DejaVuSans-Bold-44" transform="translate(244 0)"/>
     <use xlink:href="#DejaVuSans-Bold-53" transform="translate(311.484375 0)"/>
     <use xlink:href="#DejaVuSans-Bold-3" transform="translate(383.0625 0)"/>
     <use xlink:href="#DejaVuSans-Bold-57" transform="translate(417.875 0)"/>
     <use xlink:href="#DejaVuSans-Bold-55" transform="translate(465.671875 0)"/>
     <use xlink:href="#DejaVuSans-Bold-58" transform="translate(514.984375 0)"/>
     <use xlink:href="#DejaVuSans-Bold-56" transform="translate(586.171875 0)"/>
     <use xlink:href="#DejaVuSans-Bold-57" transform="translate(645.6875 0)"/>
     <use xlink:href="#DejaVuSans-Bold-3" transform="translate(693.484375 0)"/>
     <use xlink:href="#DejaVuSans-Bold-49" transform="translate(728.296875 0)"/>
     <use xlink:href="#DejaVuSans-Bold-44" transform="translate(771.796875 0)"/>
     <use xlink:href="#DejaVuSans-Bold-46" transform="translate(839.28125 0)"/>
     <use xlink:href="#DejaVuSans-Bold-57" transform="translate(898.5625 0)"/>
     <use xlink:href="#DejaVuSans-Bold-52" transform="translate(946.359375 0)"/>
     <use xlink:href="#DejaVuSans-Bold-55" transform="translate(1015.0625 0)"/>
     <use xlink:href="#DejaVuSans-Bold-c" transform="translate(1064.375 0)"/>
    </g>
   </g>
   <g id="text_4">
    <!-- Full resampling audit -->
    <g style="fill: #ffffff" transform="translate(151.954328 390.812054) scale(0.083 -0.083)">
     <defs>
      <path id="DejaVuSans-Bold-29" d="M 588 4666 
L 3834 4666 
L 3834 3756 
L 1791 3756 
L 1791 2888 
L 3713 2888 
L 3713 1978 
L 1791 1978 
L 1791 0 
L 588 0 
L 588 4666 
z
" transform="scale(0.015625)"/>
      <path id="DejaVuSans-Bold-4a" d="M 2919 594 
Q 2688 288 2409 144 
Q 2131 0 1766 0 
Q 1125 0 706 504 
Q 288 1009 288 1791 
Q 288 2575 706 3076 
Q 1125 3578 1766 3578 
Q 2131 3578 2409 3434 
Q 2688 3291 2919 2981 
L 2919 3500 
L 4044 3500 
L 4044 353 
Q 4044 -491 3511 -936 
Q 2978 -1381 1966 -1381 
Q 1638 -1381 1331 -1331 
Q 1025 -1281 716 -1178 
L 716 -306 
Q 1009 -475 1290 -558 
Q 1572 -641 1856 -641 
Q 2406 -641 2662 -400 
Q 2919 -159 2919 353 
L 2919 594 
z
M 2181 2772 
Q 1834 2772 1640 2515 
Q 1447 2259 1447 1791 
Q 1447 1309 1634 1061 
Q 1822 813 2181 813 
Q 2531 813 2725 1069 
Q 2919 1325 2919 1791 
Q 2919 2259 2725 2515 
Q 2531 2772 2181 2772 
z
" transform="scale(0.015625)"/>
     </defs>
     <use xlink:href="#DejaVuSans-Bold-29"/>
     <use xlink:href="#DejaVuSans-Bold-58" transform="translate(63.328125 0)"/>
     <use xlink:href="#DejaVuSans-Bold-4f" transform="translate(134.515625 0)"/>
     <use xlink:href="#DejaVuSans-Bold-4f" transform="translate(168.796875 0)"/>
     <use xlink:href="#DejaVuSans-Bold-3" transform="translate(203.078125 0)"/>
     <use xlink:href="#DejaVuSans-Bold-55" transform="translate(237.890625 0)"/>
     <use xlink:href="#DejaVuSans-Bold-48" transform="translate(287.203125 0)"/>
     <use xlink:href="#DejaVuSans-Bold-56" transform="translate(355.03125 0)"/>
     <use xlink:href="#DejaVuSans-Bold-44" transform="translate(414.546875 0)"/>
     <use xlink:href="#DejaVuSans-Bold-50" transform="translate(482.03125 0)"/>
     <use xlink:href="#DejaVuSans-Bold-53" transform="translate(586.234375 0)"/>
     <use xlink:href="#DejaVuSans-Bold-4f" transform="translate(657.8125 0)"/>
     <use xlink:href="#DejaVuSans-Bold-4c" transform="translate(692.09375 0)"/>
     <use xlink:href="#DejaVuSans-Bold-51" transform="translate(726.375 0)"/>
     <use xlink:href="#DejaVuSans-Bold-4a" transform="translate(797.5625 0)"/>
     <use xlink:href="#DejaVuSans-Bold-3" transform="translate(869.140625 0)"/>
     <use xlink:href="#DejaVuSans-Bold-44" transform="translate(903.953125 0)"/>
     <use xlink:href="#DejaVuSans-Bold-58" transform="translate(971.4375 0)"/>
     <use xlink:href="#DejaVuSans-Bold-47" transform="translate(1042.625 0)"/>
     <use xlink:href="#DejaVuSans-Bold-4c" transform="translate(1114.203125 0)"/>
     <use xlink:href="#DejaVuSans-Bold-57" transform="translate(1148.484375 0)"/>
    </g>
    <!-- (expensive trust factor) -->
    <g style="fill: #ffffff" transform="translate(145.888195 400.774323) scale(0.083 -0.083)">
     <defs>
      <path id="DejaVuSans-Bold-5b" d="M 1422 1791 
L 159 3500 
L 1344 3500 
L 2059 2463 
L 2784 3500 
L 3969 3500 
L 2706 1797 
L 4031 0 
L 2847 0 
L 2059 1106 
L 1281 0 
L 97 0 
L 1422 1791 
z
" transform="scale(0.015625)"/>
     </defs>
     <use xlink:href="#DejaVuSans-Bold-b"/>
     <use xlink:href="#DejaVuSans-Bold-48" transform="translate(45.703125 0)"/>
     <use xlink:href="#DejaVuSans-Bold-5b" transform="translate(113.53125 0)"/>
     <use xlink:href="#DejaVuSans-Bold-53" transform="translate(178.03125 0)"/>
     <use xlink:href="#DejaVuSans-Bold-48" transform="translate(249.609375 0)"/>
     <use xlink:href="#DejaVuSans-Bold-51" transform="translate(317.4375 0)"/>
     <use xlink:href="#DejaVuSans-Bold-56" transform="translate(388.625 0)"/>
     <use xlink:href="#DejaVuSans-Bold-4c" transform="translate(448.140625 0)"/>
     <use xlink:href="#DejaVuSans-Bold-59" transform="translate(482.421875 0)"/>
     <use xlink:href="#DejaVuSans-Bold-48" transform="translate(547.609375 0)"/>
     <use xlink:href="#DejaVuSans-Bold-3" transform="translate(615.4375 0)"/>
     <use xlink:href="#DejaVuSans-Bold-57" transform="translate(650.25 0)"/>
     <use xlink:href="#DejaVuSans-Bold-55" transform="translate(698.046875 0)"/>
     <use xlink:href="#DejaVuSans-Bold-58" transform="translate(747.359375 0)"/>
     <use xlink:href="#DejaVuSans-Bold-56" transform="translate(818.546875 0)"/>
     <use xlink:href="#DejaVuSans-Bold-57" transform="translate(878.0625 0)"/>
     <use xlink:href="#DejaVuSans-Bold-3" transform="translate(925.859375 0)"/>
     <use xlink:href="#DejaVuSans-Bold-49" transform="translate(960.671875 0)"/>
     <use xlink:href="#DejaVuSans-Bold-44" transform="translate(1004.171875 0)"/>
     <use xlink:href="#DejaVuSans-Bold-46" transform="translate(1071.65625 0)"/>
     <use xlink:href="#DejaVuSans-Bold-57" transform="translate(1130.9375 0)"/>
     <use xlink:href="#DejaVuSans-Bold-52" transform="translate(1178.734375 0)"/>
     <use xlink:href="#DejaVuSans-Bold-55" transform="translate(1247.4375 0)"/>
     <use xlink:href="#DejaVuSans-Bold-c" transform="translate(1296.75 0)"/>
    </g>
   </g>
   <g id="text_5">
    <!-- 1 settled recipe -->
    <g style="fill: #ffffff" transform="translate(164.833594 506.708526) scale(0.083 -0.083)">
     <defs>
      <path id="DejaVuSans-Bold-14" d="M 750 831 
L 1813 831 
L 1813 3847 
L 722 3622 
L 722 4441 
L 1806 4666 
L 2950 4666 
L 2950 831 
L 4013 831 
L 4013 0 
L 750 0 
L 750 831 
z
" transform="scale(0.015625)"/>
     </defs>
     <use xlink:href="#DejaVuSans-Bold-14"/>
     <use xlink:href="#DejaVuSans-Bold-3" transform="translate(69.578125 0)"/>
     <use xlink:href="#DejaVuSans-Bold-56" transform="translate(104.390625 0)"/>
     <use xlink:href="#DejaVuSans-Bold-48" transform="translate(163.90625 0)"/>
     <use xlink:href="#DejaVuSans-Bold-57" transform="translate(231.734375 0)"/>
     <use xlink:href="#DejaVuSans-Bold-57" transform="translate(279.53125 0)"/>
     <use xlink:href="#DejaVuSans-Bold-4f" transform="translate(327.328125 0)"/>
     <use xlink:href="#DejaVuSans-Bold-48" transform="translate(361.609375 0)"/>
     <use xlink:href="#DejaVuSans-Bold-47" transform="translate(429.4375 0)"/>
     <use xlink:href="#DejaVuSans-Bold-3" transform="translate(501.015625 0)"/>
     <use xlink:href="#DejaVuSans-Bold-55" transform="translate(535.828125 0)"/>
     <use xlink:href="#DejaVuSans-Bold-48" transform="translate(585.140625 0)"/>
     <use xlink:href="#DejaVuSans-Bold-46" transform="translate(652.96875 0)"/>
     <use xlink:href="#DejaVuSans-Bold-4c" transform="translate(712.25 0)"/>
     <use xlink:href="#DejaVuSans-Bold-53" transform="translate(746.53125 0)"/>
     <use xlink:href="#DejaVuSans-Bold-48" transform="translate(818.109375 0)"/>
    </g>
   </g>
  </g>
 </g>
 <defs>
  <clipPath id="p315f601114">
   <rect x="44.171779" y="10.8" width="314.856442" height="583.2"/>
  </clipPath>
 </defs>
</svg>
