<?xml version="1.0" encoding="utf-8" standalone="no"?>
<!DOCTYPE svg PUBLIC "-//W3C//DTD SVG 1.1//EN"
  "http://www.w3.org/Graphics/SVG/1.1/DTD/svg11.dtd">
<svg xmlns:xlink="http://www.w3.org/1999/xlink" width="828pt" height="259.2pt" viewBox="0 0 828 259.2" xmlns="http://www.w3.org/2000/svg" version="1.1">
 <metadata>
  <rdf:RDF xmlns:dc="http://purl.org/dc/elements/1.1/" xmlns:cc="http://creativecommons.org/ns#" xmlns:rdf="http://www.w3.org/1999/02/22-rdf-syntax-ns#">
   <cc:Work>
    <dc:type rdf:resource="http://purl.org/dc/dcmitype/StillImage"/>
    <dc:date>2026-07-17T07:56:49.123944</dc:date>
    <dc:format>image/svg+xml</dc:format>
    <dc:creator>
     <cc:Agent>
      <dc:title>Matplotlib v3.11.0, https://matplotlib.org/</dc:title>
     </cc:Agent>
    </dc:creator>
   </cc:Work>
  </rdf:RDF>
 </metadata>
 <defs>
  <style type="text/css">*{stroke-linejoin: round; stroke-linecap: butt}</style>
 </defs>
 <g id="figure_1">
  <g id="patch_1">
   <path d="M 0 259.2 
L 828 259.2 
L 828 0 
L 0 0 
z
" style="fill: #ffffff"/>
  </g>
  <g id="axes_1">
   <g id="FillBetweenPolyCollection_1">
    <defs>
     <path id="mbe6ed45924" d="M 187.822556 -10.8 
L 187.822556 -82.164834 
L 188.478195 -80.156696 
L 189.133835 -78.177973 
L 189.789474 -76.229393 
L 190.445113 -74.31163 
L 191.100752 -72.425299 
L 191.756391 -70.570959 
L 192.41203 -68.749117 
L 193.067669 -66.960223 
L 193.723308 -65.204678 
L 194.378947 -63.482827 
L 195.034586 -61.794967 
L 195.690226 -60.141342 
L 196.345865 -58.522152 
L 197.001504 -56.937546 
L 197.657143 -55.387628 
L 198.312782 -53.872458 
L 198.968421 -52.392053 
L 199.62406 -50.946387 
L 200.279699 -49.535395 
L 200.935338 -48.158972 
L 201.590977 -46.816977 
L 202.246617 -45.509233 
L 202.902256 -44.235527 
L 203.557895 -42.995617 
L 204.213534 -41.789226 
L 204.869173 -40.616051 
L 205.524812 -39.47576 
L 206.180451 -38.367993 
L 206.83609 -37.292368 
L 207.491729 -36.248478 
L 208.147368 -35.235895 
L 208.803008 -34.254172 
L 209.458647 -33.302842 
L 210.114286 -32.381422 
L 210.769925 -31.489411 
L 211.425564 -30.626298 
L 212.081203 -29.791556 
L 212.736842 -28.984646 
L 213.392481 -28.205022 
L 214.04812 -27.452127 
L 214.703759 -26.725397 
L 215.359398 -26.024261 
L 216.015038 -25.348144 
L 216.670677 -24.696466 
L 217.326316 -24.068645 
L 217.981955 -23.464095 
L 218.637594 -22.882232 
L 219.293233 -22.322471 
L 219.948872 -21.784225 
L 220.604511 -21.266915 
L 221.26015 -20.769958 
L 221.915789 -20.29278 
L 222.571429 -19.834807 
L 223.227068 -19.395472 
L 223.882707 -18.974215 
L 224.538346 -18.570478 
L 225.193985 -18.183714 
L 225.849624 -17.81338 
L 226.505263 -17.458943 
L 227.160902 -17.119878 
L 227.816541 -16.795666 
L 228.47218 -16.4858 
L 229.12782 -16.189782 
L 229.783459 -15.907121 
L 230.439098 -15.637339 
L 231.094737 -15.379967 
L 231.750376 -15.134546 
L 232.406015 -14.900626 
L 233.061654 -14.677772 
L 233.717293 -14.465555 
L 234.372932 -14.263559 
L 235.028571 -14.071379 
L 235.684211 -13.88862 
L 236.33985 -13.7149 
L 236.995489 -13.549844 
L 237.651128 -13.393092 
L 238.306767 -13.244293 
L 238.962406 -13.103107 
L 239.618045 -12.969203 
L 240.273684 -12.842263 
L 240.929323 -12.721979 
L 241.584962 -12.608053 
L 242.240602 -12.500196 
L 242.896241 -12.39813 
L 243.55188 -12.301588 
L 244.207519 -12.21031 
L 244.863158 -12.124049 
L 245.518797 -12.042565 
L 246.174436 -11.965626 
L 246.830075 -11.893012 
L 247.485714 -11.824509 
L 248.141353 -11.759914 
L 248.796992 -11.69903 
L 249.452632 -11.641669 
L 250.108271 -11.587652 
L 250.76391 -11.536805 
L 251.419549 -11.488963 
L 252.075188 -11.443969 
L 252.730827 -11.401671 
L 253.386466 -11.361926 
L 254.042105 -11.324595 
L 254.697744 -11.289547 
L 255.353383 -11.256658 
L 256.009023 -11.225806 
L 256.664662 -11.19688 
L 257.320301 -11.16977 
L 257.97594 -11.144373 
L 258.631579 -11.120591 
L 259.287218 -11.098332 
L 259.942857 -11.077507 
L 260.598496 -11.058032 
L 261.254135 -11.039827 
L 261.909774 -11.022817 
L 262.565414 -11.00693 
L 263.221053 -10.992099 
L 263.876692 -10.978259 
L 264.532331 -10.965349 
L 265.18797 -10.953313 
L 265.843609 -10.942096 
L 266.499248 -10.931647 
L 267.154887 -10.921917 
L 267.810526 -10.912861 
L 268.466165 -10.904435 
L 269.121805 -10.8966 
L 269.777444 -10.889316 
L 270.433083 -10.882549 
L 271.088722 -10.876264 
L 271.744361 -10.870429 
L 272.4 -10.865014 
L 272.4 -10.8 
L 272.4 -10.8 
L 271.744361 -10.8 
L 271.088722 -10.8 
L 270.433083 -10.8 
L 269.777444 -10.8 
L 269.121805 -10.8 
L 268.466165 -10.8 
L 267.810526 -10.8 
L 267.154887 -10.8 
L 266.499248 -10.8 
L 265.843609 -10.8 
L 265.18797 -10.8 
L 264.532331 -10.8 
L 263.876692 -10.8 
L 263.221053 -10.8 
L 262.565414 -10.8 
L 261.909774 -10.8 
L 261.254135 -10.8 
L 260.598496 -10.8 
L 259.942857 -10.8 
L 259.287218 -10.8 
L 258.631579 -10.8 
L 257.97594 -10.8 
L 257.320301 -10.8 
L 256.664662 -10.8 
L 256.009023 -10.8 
L 255.353383 -10.8 
L 254.697744 -10.8 
L 254.042105 -10.8 
L 253.386466 -10.8 
L 252.730827 -10.8 
L 252.075188 -10.8 
L 251.419549 -10.8 
L 250.76391 -10.8 
L 250.108271 -10.8 
L 249.452632 -10.8 
L 248.796992 -10.8 
L 248.141353 -10.8 
L 247.485714 -10.8 
L 246.830075 -10.8 
L 246.174436 -10.8 
L 245.518797 -10.8 
L 244.863158 -10.8 
L 244.207519 -10.8 
L 243.55188 -10.8 
L 242.896241 -10.8 
L 242.240602 -10.8 
L 241.584962 -10.8 
L 240.929323 -10.8 
L 240.273684 -10.8 
L 239.618045 -10.8 
L 238.962406 -10.8 
L 238.306767 -10.8 
L 237.651128 -10.8 
L 236.995489 -10.8 
L 236.33985 -10.8 
L 235.684211 -10.8 
L 235.028571 -10.8 
L 234.372932 -10.8 
L 233.717293 -10.8 
L 233.061654 -10.8 
L 232.406015 -10.8 
L 231.750376 -10.8 
L 231.094737 -10.8 
L 230.439098 -10.8 
L 229.783459 -10.8 
L 229.12782 -10.8 
L 228.47218 -10.8 
L 227.816541 -10.8 
L 227.160902 -10.8 
L 226.505263 -10.8 
L 225.849624 -10.8 
L 225.193985 -10.8 
L 224.538346 -10.8 
L 223.882707 -10.8 
L 223.227068 -10.8 
L 222.571429 -10.8 
L 221.915789 -10.8 
L 221.26015 -10.8 
L 220.604511 -10.8 
L 219.948872 -10.8 
L 219.293233 -10.8 
L 218.637594 -10.8 
L 217.981955 -10.8 
L 217.326316 -10.8 
L 216.670677 -10.8 
L 216.015038 -10.8 
L 215.359398 -10.8 
L 214.703759 -10.8 
L 214.04812 -10.8 
L 213.392481 -10.8 
L 212.736842 -10.8 
L 212.081203 -10.8 
L 211.425564 -10.8 
L 210.769925 -10.8 
L 210.114286 -10.8 
L 209.458647 -10.8 
L 208.803008 -10.8 
L 208.147368 -10.8 
L 207.491729 -10.8 
L 206.83609 -10.8 
L 206.180451 -10.8 
L 205.524812 -10.8 
L 204.869173 -10.8 
L 204.213534 -10.8 
L 203.557895 -10.8 
L 202.902256 -10.8 
L 202.246617 -10.8 
L 201.590977 -10.8 
L 200.935338 -10.8 
L 200.279699 -10.8 
L 199.62406 -10.8 
L 198.968421 -10.8 
L 198.312782 -10.8 
L 197.657143 -10.8 
L 197.001504 -10.8 
L 196.345865 -10.8 
L 195.690226 -10.8 
L 195.034586 -10.8 
L 194.378947 -10.8 
L 193.723308 -10.8 
L 193.067669 -10.8 
L 192.41203 -10.8 
L 191.756391 -10.8 
L 191.100752 -10.8 
L 190.445113 -10.8 
L 189.789474 -10.8 
L 189.133835 -10.8 
L 188.478195 -10.8 
L 187.822556 -10.8 
z
" style="stroke: #dc2626; stroke-opacity: 0.55"/>
    </defs>
    <g clip-path="url(#p7c10ffe3c6)">
     <use xlink:href="#mbe6ed45924" x="0" y="259.2" style="fill: #dc2626; fill-opacity: 0.55; stroke: #dc2626; stroke-opacity: 0.55"/>
    </g>
   </g>
   <g id="line2d_1">
    <path d="M 10.8 248.334986 
L 23.257143 248.122493 
L 30.469173 247.798329 
L 36.369925 247.306988 
L 40.959398 246.699804 
L 44.893233 245.955707 
L 48.171429 245.128621 
L 51.449624 244.065454 
L 54.07218 243.010218 
L 56.694737 241.741057 
L 59.317293 240.225785 
L 61.93985 238.430042 
L 64.562406 236.317768 
L 67.184962 233.851856 
L 69.807519 230.994978 
L 72.430075 227.710589 
L 75.052632 223.964105 
L 77.675188 219.72424 
L 80.297744 214.964473 
L 82.920301 209.664605 
L 85.542857 203.812372 
L 88.165414 197.405033 
L 90.78797 190.450883 
L 94.066165 181.022027 
L 97.344361 170.842408 
L 101.278195 157.787 
L 105.867669 141.722235 
L 117.013534 102.315878 
L 120.291729 91.668531 
L 122.914286 83.790028 
L 125.536842 76.623938 
L 127.503759 71.792424 
L 129.470677 67.480779 
L 131.437594 63.733218 
L 133.404511 60.588775 
L 134.715789 58.844187 
L 136.027068 57.390789 
L 137.338346 56.235502 
L 138.649624 55.383853 
L 139.960902 54.839931 
L 141.27218 54.606352 
L 142.583459 54.684243 
L 143.894737 55.073228 
L 145.206015 55.771433 
L 146.517293 56.775503 
L 147.828571 58.080624 
L 149.13985 59.680568 
L 150.451128 61.567734 
L 152.418045 64.917206 
L 154.384962 68.857402 
L 156.35188 73.347484 
L 158.318797 78.341673 
L 160.941353 85.697944 
L 163.56391 93.734039 
L 166.842105 104.530542 
L 171.431579 120.568098 
L 182.577444 160.017567 
L 186.511278 172.933846 
L 189.789474 182.970607 
L 193.067669 192.239777 
L 195.690226 199.058658 
L 198.312782 205.327542 
L 200.935338 211.041028 
L 203.557895 216.204383 
L 206.180451 220.832007 
L 208.803008 224.945828 
L 211.425564 228.573702 
L 214.04812 231.747873 
L 216.670677 234.503534 
L 219.293233 236.877529 
L 221.915789 238.90722 
L 224.538346 240.629522 
L 227.160902 242.080122 
L 229.783459 243.292879 
L 233.061654 244.522228 
L 236.33985 245.4851 
L 239.618045 246.230797 
L 243.55188 246.898412 
L 248.141353 247.440086 
L 253.386466 247.838074 
L 260.598496 248.141968 
L 271.088722 248.323736 
L 272.4 248.334986 
L 272.4 248.334986 
" clip-path="url(#p7c10ffe3c6)" style="fill: none; stroke: #1e293b; stroke-width: 1.8; stroke-linecap: square"/>
   </g>
   <g id="line2d_2">
    <path d="M 187.38 248.4 
L 187.38 25.537305 
" clip-path="url(#p7c10ffe3c6)" style="fill: none; stroke-dasharray: 4.44,1.92; stroke-dashoffset: 0; stroke: #dc2626; stroke-width: 1.2"/>
   </g>
   <g id="text_1">
    <!-- P(load &gt; X) -->
    <g style="fill: #dc2626" transform="translate(192.285 141.813494) scale(0.09 -0.09)">
     <defs>
      <path id="DejaVuSans-Bold-33" d="M 588 4666 
L 2584 4666 
Q 3475 4666 3951 4270 
Q 4428 3875 4428 3144 
Q 4428 2409 3951 2014 
Q 3475 1619 2584 1619 
L 1791 1619 
L 1791 0 
L 588 0 
L 588 4666 
z
M 1791 3794 
L 1791 2491 
L 2456 2491 
Q 2806 2491 2997 2661 
Q 3188 2831 3188 3144 
Q 3188 3456 2997 3625 
Q 2806 3794 2456 3794 
L 1791 3794 
z
" transform="scale(0.015625)"/>
      <path id="DejaVuSans-Bold-b" d="M 2413 -844 
L 1484 -844 
Q 1006 -72 778 623 
Q 550 1319 550 2003 
Q 550 2688 779 3389 
Q 1009 4091 1484 4856 
L 2413 4856 
Q 2013 4116 1813 3408 
Q 1613 2700 1613 2009 
Q 1613 1319 1811 609 
Q 2009 -100 2413 -844 
z
" transform="scale(0.015625)"/>
      <path id="DejaVuSans-Bold-4f" d="M 538 4863 
L 1656 4863 
L 1656 0 
L 538 0 
L 538 4863 
z
" transform="scale(0.015625)"/>
      <path id="DejaVuSans-Bold-52" d="M 2203 2784 
Q 1831 2784 1636 2517 
Q 1441 2250 1441 1747 
Q 1441 1244 1636 976 
Q 1831 709 2203 709 
Q 2569 709 2762 976 
Q 2956 1244 2956 1747 
Q 2956 2250 2762 2517 
Q 2569 2784 2203 2784 
z
M 2203 3584 
Q 3106 3584 3614 3096 
Q 4122 2609 4122 1747 
Q 4122 884 3614 396 
Q 3106 -91 2203 -91 
Q 1297 -91 786 396 
Q 275 884 275 1747 
Q 275 2609 786 3096 
Q 1297 3584 2203 3584 
z
" transform="scale(0.015625)"/>
      <path id="DejaVuSans-Bold-44" d="M 2106 1575 
Q 1756 1575 1579 1456 
Q 1403 1338 1403 1106 
Q 1403 894 1545 773 
Q 1688 653 1941 653 
Q 2256 653 2472 879 
Q 2688 1106 2688 1447 
L 2688 1575 
L 2106 1575 
z
M 3816 1997 
L 3816 0 
L 2688 0 
L 2688 519 
Q 2463 200 2181 54 
Q 1900 -91 1497 -91 
Q 953 -91 614 226 
Q 275 544 275 1050 
Q 275 1666 698 1953 
Q 1122 2241 2028 2241 
L 2688 2241 
L 2688 2328 
Q 2688 2594 2478 2717 
Q 2269 2841 1825 2841 
Q 1466 2841 1156 2769 
Q 847 2697 581 2553 
L 581 3406 
Q 941 3494 1303 3539 
Q 1666 3584 2028 3584 
Q 2975 3584 3395 3211 
Q 3816 2838 3816 1997 
z
" transform="scale(0.015625)"/>
      <path id="DejaVuSans-Bold-47" d="M 2919 2988 
L 2919 4863 
L 4044 4863 
L 4044 0 
L 2919 0 
L 2919 506 
Q 2688 197 2409 53 
Q 2131 -91 1766 -91 
Q 1119 -91 703 423 
Q 288 938 288 1747 
Q 288 2556 703 3070 
Q 1119 3584 1766 3584 
Q 2128 3584 2408 3439 
Q 2688 3294 2919 2988 
z
M 2181 722 
Q 2541 722 2730 984 
Q 2919 1247 2919 1747 
Q 2919 2247 2730 2509 
Q 2541 2772 2181 2772 
Q 1825 2772 1636 2509 
Q 1447 2247 1447 1747 
Q 1447 1247 1636 984 
Q 1825 722 2181 722 
z
" transform="scale(0.015625)"/>
      <path id="DejaVuSans-Bold-3" transform="scale(0.015625)"/>
      <path id="DejaVuSans-Bold-21" d="M 678 3041 
L 678 3822 
L 4684 2375 
L 4684 1638 
L 678 191 
L 678 972 
L 3694 2003 
L 678 3041 
z
" transform="scale(0.015625)"/>
      <path id="DejaVuSans-Bold-3b" d="M 3188 2381 
L 4806 0 
L 3553 0 
L 2463 1594 
L 1381 0 
L 122 0 
L 1741 2381 
L 184 4666 
L 1441 4666 
L 2463 3163 
L 3481 4666 
L 4744 4666 
L 3188 2381 
z
" transform="scale(0.015625)"/>
      <path id="DejaVuSans-Bold-c" d="M 513 -844 
Q 913 -100 1113 609 
Q 1313 1319 1313 2009 
Q 1313 2700 1113 3408 
Q 913 4116 513 4856 
L 1441 4856 
Q 1916 4091 2145 3389 
Q 2375 2688 2375 2003 
Q 2375 1319 2147 623 
Q 1919 -72 1441 -844 
L 513 -844 
z
" transform="scale(0.015625)"/>
     </defs>
     <use xlink:href="#DejaVuSans-Bold-33"/>
     <use xlink:href="#DejaVuSans-Bold-b" transform="translate(73.296875 0)"/>
     <use xlink:href="#DejaVuSans-Bold-4f" transform="translate(119 0)"/>
     <use xlink:href="#DejaVuSans-Bold-52" transform="translate(153.28125 0)"/>
     <use xlink:href="#DejaVuSans-Bold-44" transform="translate(221.984375 0)"/>
     <use xlink:href="#DejaVuSans-Bold-47" transform="translate(289.46875 0)"/>
     <use xlink:href="#DejaVuSans-Bold-3" transform="translate(361.046875 0)"/>
     <use xlink:href="#DejaVuSans-Bold-21" transform="translate(395.859375 0)"/>
     <use xlink:href="#DejaVuSans-Bold-3" transform="translate(479.65625 0)"/>
     <use xlink:href="#DejaVuSans-Bold-3b" transform="translate(514.46875 0)"/>
     <use xlink:href="#DejaVuSans-Bold-c" transform="translate(591.5625 0)"/>
    </g>
   </g>
   <g id="text_2">
    <!-- Parametric -->
    <g style="fill: #1e293b" transform="translate(106.088359 19.537305) scale(0.115 -0.115)">
     <defs>
      <path id="DejaVuSans-Bold-55" d="M 3138 2547 
Q 2991 2616 2845 2648 
Q 2700 2681 2553 2681 
Q 2122 2681 1889 2404 
Q 1656 2128 1656 1613 
L 1656 0 
L 538 0 
L 538 3500 
L 1656 3500 
L 1656 2925 
Q 1872 3269 2151 3426 
Q 2431 3584 2822 3584 
Q 2878 3584 2943 3579 
Q 3009 3575 3134 3559 
L 3138 2547 
z
" transform="scale(0.015625)"/>
      <path id="DejaVuSans-Bold-50" d="M 3781 2919 
Q 3994 3244 4286 3414 
Q 4578 3584 4928 3584 
Q 5531 3584 5847 3212 
Q 6163 2841 6163 2131 
L 6163 0 
L 5038 0 
L 5038 1825 
Q 5041 1866 5042 1909 
Q 5044 1953 5044 2034 
Q 5044 2406 4934 2573 
Q 4825 2741 4581 2741 
Q 4263 2741 4089 2478 
Q 3916 2216 3909 1719 
L 3909 0 
L 2784 0 
L 2784 1825 
Q 2784 2406 2684 2573 
Q 2584 2741 2328 2741 
Q 2006 2741 1831 2477 
Q 1656 2213 1656 1722 
L 1656 0 
L 531 0 
L 531 3500 
L 1656 3500 
L 1656 2988 
Q 1863 3284 2130 3434 
Q 2397 3584 2719 3584 
Q 3081 3584 3359 3409 
Q 3638 3234 3781 2919 
z
" transform="scale(0.015625)"/>
      <path id="DejaVuSans-Bold-48" d="M 4031 1759 
L 4031 1441 
L 1416 1441 
Q 1456 1047 1700 850 
Q 1944 653 2381 653 
Q 2734 653 3104 758 
Q 3475 863 3866 1075 
L 3866 213 
Q 3469 63 3072 -14 
Q 2675 -91 2278 -91 
Q 1328 -91 801 392 
Q 275 875 275 1747 
Q 275 2603 792 3093 
Q 1309 3584 2216 3584 
Q 3041 3584 3536 3087 
Q 4031 2591 4031 1759 
z
M 2881 2131 
Q 2881 2450 2695 2645 
Q 2509 2841 2209 2841 
Q 1884 2841 1681 2658 
Q 1478 2475 1428 2131 
L 2881 2131 
z
" transform="scale(0.015625)"/>
      <path id="DejaVuSans-Bold-57" d="M 1759 4494 
L 1759 3500 
L 2913 3500 
L 2913 2700 
L 1759 2700 
L 1759 1216 
Q 1759 972 1856 886 
Q 1953 800 2241 800 
L 2816 800 
L 2816 0 
L 1856 0 
Q 1194 0 917 276 
Q 641 553 641 1216 
L 641 2700 
L 84 2700 
L 84 3500 
L 641 3500 
L 641 4494 
L 1759 4494 
z
" transform="scale(0.015625)"/>
      <path id="DejaVuSans-Bold-4c" d="M 538 3500 
L 1656 3500 
L 1656 0 
L 538 0 
L 538 3500 
z
M 538 4863 
L 1656 4863 
L 1656 3950 
L 538 3950 
L 538 4863 
z
" transform="scale(0.015625)"/>
      <path id="DejaVuSans-Bold-46" d="M 3366 3391 
L 3366 2478 
Q 3138 2634 2908 2709 
Q 2678 2784 2431 2784 
Q 1963 2784 1702 2511 
Q 1441 2238 1441 1747 
Q 1441 1256 1702 982 
Q 1963 709 2431 709 
Q 2694 709 2930 787 
Q 3166 866 3366 1019 
L 3366 103 
Q 3103 6 2833 -42 
Q 2563 -91 2291 -91 
Q 1344 -91 809 395 
Q 275 881 275 1747 
Q 275 2613 809 3098 
Q 1344 3584 2291 3584 
Q 2566 3584 2833 3536 
Q 3100 3488 3366 3391 
z
" transform="scale(0.015625)"/>
     </defs>
     <use xlink:href="#DejaVuSans-Bold-33"/>
     <use xlink:href="#DejaVuSans-Bold-44" transform="translate(70.609375 0)"/>
     <use xlink:href="#DejaVuSans-Bold-55" transform="translate(138.09375 0)"/>
     <use xlink:href="#DejaVuSans-Bold-44" transform="translate(187.40625 0)"/>
     <use xlink:href="#DejaVuSans-Bold-50" transform="translate(254.890625 0)"/>
     <use xlink:href="#DejaVuSans-Bold-48" transform="translate(359.09375 0)"/>
     <use xlink:href="#DejaVuSans-Bold-57" transform="translate(426.921875 0)"/>
     <use xlink:href="#DejaVuSans-Bold-55" transform="translate(474.71875 0)"/>
     <use xlink:href="#DejaVuSans-Bold-4c" transform="translate(524.03125 0)"/>
     <use xlink:href="#DejaVuSans-Bold-46" transform="translate(558.3125 0)"/>
    </g>
   </g>
  </g>
  <g id="axes_2">
   <g id="PathCollection_1">
    <defs>
     <path id="m03865e4f84" d="M 0 1.581139 
C 0.419323 1.581139 0.821528 1.41454 1.118034 1.118034 
C 1.41454 0.821528 1.581139 0.419323 1.581139 0 
C 1.581139 -0.419323 1.41454 -0.821528 1.118034 -1.118034 
C 0.821528 -1.41454 0.419323 -1.581139 0 -1.581139 
C -0.419323 -1.581139 -0.821528 -1.41454 -1.118034 -1.118034 
C -1.41454 -0.821528 -1.581139 -0.419323 -1.581139 0 
C -1.581139 0.419323 -1.41454 0.821528 -1.118034 1.118034 
C -0.821528 1.41454 -0.419323 1.581139 0 1.581139 
z
" style="stroke: #6b7280; stroke-opacity: 0.6"/>
    </defs>
    <g clip-path="url(#pf71899f054)">
     <use xlink:href="#m03865e4f84" x="283.2" y="217.04102" style="fill: #6b7280; fill-opacity: 0.6; stroke: #6b7280; stroke-opacity: 0.6"/>
     <use xlink:href="#m03865e4f84" x="286.747119" y="197.602431" style="fill: #6b7280; fill-opacity: 0.6; stroke: #6b7280; stroke-opacity: 0.6"/>
     <use xlink:href="#m03865e4f84" x="290.294237" y="195.366949" style="fill: #6b7280; fill-opacity: 0.6; stroke: #6b7280; stroke-opacity: 0.6"/>
     <use xlink:href="#m03865e4f84" x="293.841356" y="217.156748" style="fill: #6b7280; fill-opacity: 0.6; stroke: #6b7280; stroke-opacity: 0.6"/>
     <use xlink:href="#m03865e4f84" x="297.388475" y="211.711032" style="fill: #6b7280; fill-opacity: 0.6; stroke: #6b7280; stroke-opacity: 0.6"/>
     <use xlink:href="#m03865e4f84" x="300.935593" y="213.298489" style="fill: #6b7280; fill-opacity: 0.6; stroke: #6b7280; stroke-opacity: 0.6"/>
     <use xlink:href="#m03865e4f84" x="304.482712" y="191.49481" style="fill: #6b7280; fill-opacity: 0.6; stroke: #6b7280; stroke-opacity: 0.6"/>
     <use xlink:href="#m03865e4f84" x="308.029831" y="200.193217" style="fill: #6b7280; fill-opacity: 0.6; stroke: #6b7280; stroke-opacity: 0.6"/>
     <use xlink:href="#m03865e4f84" x="311.576949" y="181.575342" style="fill: #6b7280; fill-opacity: 0.6; stroke: #6b7280; stroke-opacity: 0.6"/>
     <use xlink:href="#m03865e4f84" x="315.124068" y="232.625983" style="fill: #6b7280; fill-opacity: 0.6; stroke: #6b7280; stroke-opacity: 0.6"/>
     <use xlink:href="#m03865e4f84" x="318.671186" y="156.970988" style="fill: #6b7280; fill-opacity: 0.6; stroke: #6b7280; stroke-opacity: 0.6"/>
     <use xlink:href="#m03865e4f84" x="322.218305" y="190.864507" style="fill: #6b7280; fill-opacity: 0.6; stroke: #6b7280; stroke-opacity: 0.6"/>
     <use xlink:href="#m03865e4f84" x="325.765424" y="169.943325" style="fill: #6b7280; fill-opacity: 0.6; stroke: #6b7280; stroke-opacity: 0.6"/>
     <use xlink:href="#m03865e4f84" x="329.312542" y="186.780322" style="fill: #6b7280; fill-opacity: 0.6; stroke: #6b7280; stroke-opacity: 0.6"/>
     <use xlink:href="#m03865e4f84" x="332.859661" y="190.405881" style="fill: #6b7280; fill-opacity: 0.6; stroke: #6b7280; stroke-opacity: 0.6"/>
     <use xlink:href="#m03865e4f84" x="336.40678" y="166.146572" style="fill: #6b7280; fill-opacity: 0.6; stroke: #6b7280; stroke-opacity: 0.6"/>
     <use xlink:href="#m03865e4f84" x="339.953898" y="153.54691" style="fill: #6b7280; fill-opacity: 0.6; stroke: #6b7280; stroke-opacity: 0.6"/>
     <use xlink:href="#m03865e4f84" x="343.501017" y="178.517355" style="fill: #6b7280; fill-opacity: 0.6; stroke: #6b7280; stroke-opacity: 0.6"/>
     <use xlink:href="#m03865e4f84" x="347.048136" y="174.631268" style="fill: #6b7280; fill-opacity: 0.6; stroke: #6b7280; stroke-opacity: 0.6"/>
     <use xlink:href="#m03865e4f84" x="350.595254" y="148.179849" style="fill: #6b7280; fill-opacity: 0.6; stroke: #6b7280; stroke-opacity: 0.6"/>
     <use xlink:href="#m03865e4f84" x="354.142373" y="190.381992" style="fill: #6b7280; fill-opacity: 0.6; stroke: #6b7280; stroke-opacity: 0.6"/>
     <use xlink:href="#m03865e4f84" x="357.689492" y="207.117949" style="fill: #6b7280; fill-opacity: 0.6; stroke: #6b7280; stroke-opacity: 0.6"/>
     <use xlink:href="#m03865e4f84" x="361.23661" y="148.109128" style="fill: #6b7280; fill-opacity: 0.6; stroke: #6b7280; stroke-opacity: 0.6"/>
     <use xlink:href="#m03865e4f84" x="364.783729" y="177.501293" style="fill: #6b7280; fill-opacity: 0.6; stroke: #6b7280; stroke-opacity: 0.6"/>
     <use xlink:href="#m03865e4f84" x="368.330847" y="213.080139" style="fill: #6b7280; fill-opacity: 0.6; stroke: #6b7280; stroke-opacity: 0.6"/>
     <use xlink:href="#m03865e4f84" x="371.877966" y="176.97555" style="fill: #6b7280; fill-opacity: 0.6; stroke: #6b7280; stroke-opacity: 0.6"/>
     <use xlink:href="#m03865e4f84" x="375.425085" y="163.816736" style="fill: #6b7280; fill-opacity: 0.6; stroke: #6b7280; stroke-opacity: 0.6"/>
     <use xlink:href="#m03865e4f84" x="378.972203" y="183.619203" style="fill: #6b7280; fill-opacity: 0.6; stroke: #6b7280; stroke-opacity: 0.6"/>
     <use xlink:href="#m03865e4f84" x="382.519322" y="190.261893" style="fill: #6b7280; fill-opacity: 0.6; stroke: #6b7280; stroke-opacity: 0.6"/>
     <use xlink:href="#m03865e4f84" x="386.066441" y="140.45571" style="fill: #6b7280; fill-opacity: 0.6; stroke: #6b7280; stroke-opacity: 0.6"/>
     <use xlink:href="#m03865e4f84" x="389.613559" y="111.40986" style="fill: #6b7280; fill-opacity: 0.6; stroke: #6b7280; stroke-opacity: 0.6"/>
     <use xlink:href="#m03865e4f84" x="393.160678" y="143.47592" style="fill: #6b7280; fill-opacity: 0.6; stroke: #6b7280; stroke-opacity: 0.6"/>
     <use xlink:href="#m03865e4f84" x="396.707797" y="156.287044" style="fill: #6b7280; fill-opacity: 0.6; stroke: #6b7280; stroke-opacity: 0.6"/>
     <use xlink:href="#m03865e4f84" x="400.254915" y="119.557967" style="fill: #6b7280; fill-opacity: 0.6; stroke: #6b7280; stroke-opacity: 0.6"/>
     <use xlink:href="#m03865e4f84" x="403.802034" y="107.20961" style="fill: #6b7280; fill-opacity: 0.6; stroke: #6b7280; stroke-opacity: 0.6"/>
     <use xlink:href="#m03865e4f84" x="407.349153" y="134.67904" style="fill: #6b7280; fill-opacity: 0.6; stroke: #6b7280; stroke-opacity: 0.6"/>
     <use xlink:href="#m03865e4f84" x="410.896271" y="107.571896" style="fill: #6b7280; fill-opacity: 0.6; stroke: #6b7280; stroke-opacity: 0.6"/>
     <use xlink:href="#m03865e4f84" x="414.44339" y="91.128122" style="fill: #6b7280; fill-opacity: 0.6; stroke: #6b7280; stroke-opacity: 0.6"/>
     <use xlink:href="#m03865e4f84" x="417.990508" y="123.787762" style="fill: #6b7280; fill-opacity: 0.6; stroke: #6b7280; stroke-opacity: 0.6"/>
     <use xlink:href="#m03865e4f84" x="421.537627" y="137.500719" style="fill: #6b7280; fill-opacity: 0.6; stroke: #6b7280; stroke-opacity: 0.6"/>
     <use xlink:href="#m03865e4f84" x="425.084746" y="103.613812" style="fill: #6b7280; fill-opacity: 0.6; stroke: #6b7280; stroke-opacity: 0.6"/>
     <use xlink:href="#m03865e4f84" x="428.631864" y="103.824569" style="fill: #6b7280; fill-opacity: 0.6; stroke: #6b7280; stroke-opacity: 0.6"/>
     <use xlink:href="#m03865e4f84" x="432.178983" y="80.129038" style="fill: #6b7280; fill-opacity: 0.6; stroke: #6b7280; stroke-opacity: 0.6"/>
     <use xlink:href="#m03865e4f84" x="435.726102" y="136.02806" style="fill: #6b7280; fill-opacity: 0.6; stroke: #6b7280; stroke-opacity: 0.6"/>
     <use xlink:href="#m03865e4f84" x="439.27322" y="117.790247" style="fill: #6b7280; fill-opacity: 0.6; stroke: #6b7280; stroke-opacity: 0.6"/>
     <use xlink:href="#m03865e4f84" x="442.820339" y="118.555291" style="fill: #6b7280; fill-opacity: 0.6; stroke: #6b7280; stroke-opacity: 0.6"/>
     <use xlink:href="#m03865e4f84" x="446.367458" y="134.464769" style="fill: #6b7280; fill-opacity: 0.6; stroke: #6b7280; stroke-opacity: 0.6"/>
     <use xlink:href="#m03865e4f84" x="449.914576" y="91.901368" style="fill: #6b7280; fill-opacity: 0.6; stroke: #6b7280; stroke-opacity: 0.6"/>
     <use xlink:href="#m03865e4f84" x="453.461695" y="81.538265" style="fill: #6b7280; fill-opacity: 0.6; stroke: #6b7280; stroke-opacity: 0.6"/>
     <use xlink:href="#m03865e4f84" x="457.008814" y="103.020312" style="fill: #6b7280; fill-opacity: 0.6; stroke: #6b7280; stroke-opacity: 0.6"/>
     <use xlink:href="#m03865e4f84" x="460.555932" y="62.295098" style="fill: #6b7280; fill-opacity: 0.6; stroke: #6b7280; stroke-opacity: 0.6"/>
     <use xlink:href="#m03865e4f84" x="464.103051" y="70.449557" style="fill: #6b7280; fill-opacity: 0.6; stroke: #6b7280; stroke-opacity: 0.6"/>
     <use xlink:href="#m03865e4f84" x="467.650169" y="71.716622" style="fill: #6b7280; fill-opacity: 0.6; stroke: #6b7280; stroke-opacity: 0.6"/>
     <use xlink:href="#m03865e4f84" x="471.197288" y="73.02472" style="fill: #6b7280; fill-opacity: 0.6; stroke: #6b7280; stroke-opacity: 0.6"/>
     <use xlink:href="#m03865e4f84" x="474.744407" y="63.463877" style="fill: #6b7280; fill-opacity: 0.6; stroke: #6b7280; stroke-opacity: 0.6"/>
     <use xlink:href="#m03865e4f84" x="478.291525" y="89.875801" style="fill: #6b7280; fill-opacity: 0.6; stroke: #6b7280; stroke-opacity: 0.6"/>
     <use xlink:href="#m03865e4f84" x="481.838644" y="63.5951" style="fill: #6b7280; fill-opacity: 0.6; stroke: #6b7280; stroke-opacity: 0.6"/>
     <use xlink:href="#m03865e4f84" x="485.385763" y="60.457389" style="fill: #6b7280; fill-opacity: 0.6; stroke: #6b7280; stroke-opacity: 0.6"/>
     <use xlink:href="#m03865e4f84" x="488.932881" y="90.790127" style="fill: #6b7280; fill-opacity: 0.6; stroke: #6b7280; stroke-opacity: 0.6"/>
     <use xlink:href="#m03865e4f84" x="492.48" y="57.825206" style="fill: #6b7280; fill-opacity: 0.6; stroke: #6b7280; stroke-opacity: 0.6"/>
    </g>
   </g>
   <g id="line2d_3">
    <path d="M 283.2 217.436765 
L 286.747119 214.821183 
L 290.294237 212.2056 
L 293.841356 209.590018 
L 297.388475 206.974436 
L 300.935593 204.358854 
L 304.482712 201.743272 
L 308.029831 199.127689 
L 311.576949 196.512107 
L 315.124068 193.896525 
L 318.671186 191.280943 
L 322.218305 188.66536 
L 325.765424 186.049778 
L 329.312542 183.434196 
L 332.859661 180.818614 
L 336.40678 178.203031 
L 339.953898 175.587449 
L 343.501017 172.971867 
L 347.048136 170.356285 
L 350.595254 167.740702 
L 354.142373 165.12512 
L 357.689492 162.509538 
L 361.23661 159.893956 
L 364.783729 157.278373 
L 368.330847 154.662791 
L 371.877966 152.047209 
L 375.425085 149.431627 
L 378.972203 146.816044 
L 382.519322 144.200462 
L 386.066441 141.58488 
L 389.613559 138.969298 
L 393.160678 136.353715 
L 396.707797 133.738133 
L 400.254915 131.122551 
L 403.802034 128.506969 
L 407.349153 125.891387 
L 410.896271 123.275804 
L 414.44339 120.660222 
L 417.990508 118.04464 
L 421.537627 115.429058 
L 425.084746 112.813475 
L 428.631864 110.197893 
L 432.178983 107.582311 
L 435.726102 104.966729 
L 439.27322 102.351146 
L 442.820339 99.735564 
L 446.367458 97.119982 
L 449.914576 94.5044 
L 453.461695 91.888817 
L 457.008814 89.273235 
L 460.555932 86.657653 
L 464.103051 84.042071 
L 467.650169 81.426488 
L 471.197288 78.810906 
L 474.744407 76.195324 
L 478.291525 73.579742 
L 481.838644 70.964159 
L 485.385763 68.348577 
L 488.932881 65.732995 
L 492.48 63.117413 
" clip-path="url(#pf71899f054)" style="fill: none; stroke: #1e293b; stroke-width: 1.6; stroke-linecap: square"/>
   </g>
   <g id="line2d_4">
    <path d="M 283.2 196.603652 
L 286.747119 192.027427 
L 290.294237 187.457458 
L 293.841356 182.899982 
L 297.388475 178.361196 
L 300.935593 173.847238 
L 304.482712 169.364164 
L 308.029831 164.917934 
L 311.576949 160.51439 
L 315.124068 156.159238 
L 318.671186 151.858028 
L 322.218305 147.61614 
L 325.765424 143.438764 
L 329.312542 139.330882 
L 332.859661 135.297257 
L 336.40678 131.342415 
L 339.953898 127.470628 
L 343.501017 123.685906 
L 347.048136 119.99198 
L 350.595254 116.39229 
L 354.142373 112.889976 
L 357.689492 109.48787 
L 361.23661 106.188479 
L 364.783729 102.993987 
L 368.330847 99.90624 
L 371.877966 96.926747 
L 375.425085 94.056666 
L 378.972203 91.296812 
L 382.519322 88.647644 
L 386.066441 86.109269 
L 389.613559 83.681442 
L 393.160678 81.363562 
L 396.707797 79.15468 
L 400.254915 77.053499 
L 403.802034 75.058375 
L 407.349153 73.167331 
L 410.896271 71.378053 
L 414.44339 69.687905 
L 417.990508 68.093934 
L 421.537627 66.592879 
L 425.084746 65.181185 
L 428.631864 63.855008 
L 432.178983 62.610236 
L 435.726102 61.442493 
L 439.27322 60.347159 
L 442.820339 59.319383 
L 446.367458 58.354098 
L 449.914576 57.446039 
L 453.461695 56.589755 
L 457.008814 55.779633 
L 460.555932 55.009912 
L 464.103051 54.274702 
L 467.650169 53.568001 
L 471.197288 52.883719 
L 474.744407 52.215693 
L 478.291525 51.557707 
L 481.838644 49.358579 
L 485.385763 44.784071 
L 488.932881 40.218279 
L 492.48 35.667427 
" clip-path="url(#pf71899f054)" style="fill: none; stroke-dasharray: 5.92,2.56; stroke-dashoffset: 0; stroke: #ea580c; stroke-width: 1.6"/>
   </g>
   <g id="line2d_5">
    <path d="M 283.2 238.269877 
L 286.747119 237.614938 
L 290.294237 236.953743 
L 293.841356 236.280054 
L 297.388475 235.587676 
L 300.935593 234.87047 
L 304.482712 234.122379 
L 308.029831 233.337444 
L 311.576949 232.509824 
L 315.124068 231.633811 
L 318.671186 230.703857 
L 322.218305 229.71458 
L 325.765424 228.660792 
L 329.312542 227.53751 
L 332.859661 226.33997 
L 336.40678 225.063648 
L 339.953898 223.70427 
L 343.501017 222.257827 
L 347.048136 220.720589 
L 350.595254 219.089115 
L 354.142373 217.360264 
L 357.689492 215.531206 
L 361.23661 213.599432 
L 364.783729 211.56276 
L 368.330847 209.419342 
L 371.877966 207.167671 
L 375.425085 204.806587 
L 378.972203 202.335277 
L 382.519322 199.75328 
L 386.066441 197.060491 
L 389.613559 194.257154 
L 393.160678 191.343869 
L 396.707797 188.321586 
L 400.254915 185.191604 
L 403.802034 181.955562 
L 407.349153 178.615442 
L 410.896271 175.173555 
L 414.44339 171.632539 
L 417.990508 167.995346 
L 421.537627 164.265236 
L 425.084746 160.445766 
L 428.631864 156.540778 
L 432.178983 152.554386 
L 435.726102 148.490964 
L 439.27322 144.355134 
L 442.820339 140.151745 
L 446.367458 135.885865 
L 449.914576 131.562761 
L 453.461695 127.18788 
L 457.008814 122.766837 
L 460.555932 118.305393 
L 464.103051 113.80944 
L 467.650169 109.284976 
L 471.197288 104.738093 
L 474.744407 100.174955 
L 478.291525 95.601777 
L 481.838644 92.56974 
L 485.385763 91.913083 
L 488.932881 91.247711 
L 492.48 90.567398 
" clip-path="url(#pf71899f054)" style="fill: none; stroke-dasharray: 5.92,2.56; stroke-dashoffset: 0; stroke: #ea580c; stroke-width: 1.6"/>
   </g>
   <g id="text_3">
    <!--   P95 -->
    <g style="fill: #ea580c" transform="translate(492.48 38.005318) scale(0.09 -0.09)">
     <defs>
      <path id="DejaVuSans-Bold-1c" d="M 641 103 
L 641 966 
Q 928 831 1190 764 
Q 1453 697 1709 697 
Q 2247 697 2547 995 
Q 2847 1294 2900 1881 
Q 2688 1725 2447 1647 
Q 2206 1569 1925 1569 
Q 1209 1569 770 1986 
Q 331 2403 331 3084 
Q 331 3838 820 4291 
Q 1309 4744 2131 4744 
Q 3044 4744 3544 4128 
Q 4044 3513 4044 2388 
Q 4044 1231 3459 570 
Q 2875 -91 1856 -91 
Q 1528 -91 1228 -42 
Q 928 6 641 103 
z
M 2125 2350 
Q 2441 2350 2600 2554 
Q 2759 2759 2759 3169 
Q 2759 3575 2600 3781 
Q 2441 3988 2125 3988 
Q 1809 3988 1650 3781 
Q 1491 3575 1491 3169 
Q 1491 2759 1650 2554 
Q 1809 2350 2125 2350 
z
" transform="scale(0.015625)"/>
      <path id="DejaVuSans-Bold-18" d="M 678 4666 
L 3669 4666 
L 3669 3781 
L 1638 3781 
L 1638 3059 
Q 1775 3097 1914 3117 
Q 2053 3138 2203 3138 
Q 3056 3138 3531 2711 
Q 4006 2284 4006 1522 
Q 4006 766 3489 337 
Q 2972 -91 2053 -91 
Q 1656 -91 1267 -14 
Q 878 63 494 219 
L 494 1166 
Q 875 947 1217 837 
Q 1559 728 1863 728 
Q 2300 728 2551 942 
Q 2803 1156 2803 1522 
Q 2803 1891 2551 2103 
Q 2300 2316 1863 2316 
Q 1603 2316 1309 2248 
Q 1016 2181 678 2041 
L 678 4666 
z
" transform="scale(0.015625)"/>
     </defs>
     <use xlink:href="#DejaVuSans-Bold-3"/>
     <use xlink:href="#DejaVuSans-Bold-3" transform="translate(34.8125 0)"/>
     <use xlink:href="#DejaVuSans-Bold-33" transform="translate(69.625 0)"/>
     <use xlink:href="#DejaVuSans-Bold-1c" transform="translate(142.921875 0)"/>
     <use xlink:href="#DejaVuSans-Bold-18" transform="translate(212.5 0)"/>
    </g>
   </g>
   <g id="text_4">
    <!--   P50 -->
    <g style="fill: #1e293b" transform="translate(492.48 65.455303) scale(0.09 -0.09)">
     <defs>
      <path id="DejaVuSans-Bold-13" d="M 2944 2338 
Q 2944 3213 2780 3570 
Q 2616 3928 2228 3928 
Q 1841 3928 1675 3570 
Q 1509 3213 1509 2338 
Q 1509 1453 1675 1090 
Q 1841 728 2228 728 
Q 2613 728 2778 1090 
Q 2944 1453 2944 2338 
z
M 4147 2328 
Q 4147 1169 3647 539 
Q 3147 -91 2228 -91 
Q 1306 -91 806 539 
Q 306 1169 306 2328 
Q 306 3491 806 4120 
Q 1306 4750 2228 4750 
Q 3147 4750 3647 4120 
Q 4147 3491 4147 2328 
z
" transform="scale(0.015625)"/>
     </defs>
     <use xlink:href="#DejaVuSans-Bold-3"/>
     <use xlink:href="#DejaVuSans-Bold-3" transform="translate(34.8125 0)"/>
     <use xlink:href="#DejaVuSans-Bold-33" transform="translate(69.625 0)"/>
     <use xlink:href="#DejaVuSans-Bold-18" transform="translate(142.921875 0)"/>
     <use xlink:href="#DejaVuSans-Bold-13" transform="translate(212.5 0)"/>
    </g>
   </g>
   <g id="text_5">
    <!--   P5 -->
    <g style="fill: #ea580c" transform="translate(492.48 92.905289) scale(0.09 -0.09)">
     <use xlink:href="#DejaVuSans-Bold-3"/>
     <use xlink:href="#DejaVuSans-Bold-3" transform="translate(34.8125 0)"/>
     <use xlink:href="#DejaVuSans-Bold-33" transform="translate(69.625 0)"/>
     <use xlink:href="#DejaVuSans-Bold-18" transform="translate(142.921875 0)"/>
    </g>
   </g>
   <g id="text_6">
    <!-- Quantile -->
    <g style="fill: #1e293b" transform="translate(386.453906 19.537305) scale(0.115 -0.115)">
     <defs>
      <path id="DejaVuSans-Bold-34" d="M 2847 -84 
L 2753 -84 
Q 1600 -84 959 553 
Q 319 1191 319 2328 
Q 319 3463 958 4106 
Q 1597 4750 2719 4750 
Q 3853 4750 4486 4112 
Q 5119 3475 5119 2328 
Q 5119 1541 4783 972 
Q 4447 403 3816 116 
L 4756 -934 
L 3609 -934 
L 2847 -84 
z
M 2719 3878 
Q 2169 3878 1866 3472 
Q 1563 3066 1563 2328 
Q 1563 1578 1859 1179 
Q 2156 781 2719 781 
Q 3272 781 3575 1187 
Q 3878 1594 3878 2328 
Q 3878 3066 3575 3472 
Q 3272 3878 2719 3878 
z
" transform="scale(0.015625)"/>
      <path id="DejaVuSans-Bold-58" d="M 500 1363 
L 500 3500 
L 1625 3500 
L 1625 3150 
Q 1625 2866 1622 2436 
Q 1619 2006 1619 1863 
Q 1619 1441 1641 1255 
Q 1663 1069 1716 984 
Q 1784 875 1895 815 
Q 2006 756 2150 756 
Q 2500 756 2700 1025 
Q 2900 1294 2900 1772 
L 2900 3500 
L 4019 3500 
L 4019 0 
L 2900 0 
L 2900 506 
Q 2647 200 2364 54 
Q 2081 -91 1741 -91 
Q 1134 -91 817 281 
Q 500 653 500 1363 
z
" transform="scale(0.015625)"/>
      <path id="DejaVuSans-Bold-51" d="M 4056 2131 
L 4056 0 
L 2931 0 
L 2931 347 
L 2931 1631 
Q 2931 2084 2911 2256 
Q 2891 2428 2841 2509 
Q 2775 2619 2662 2680 
Q 2550 2741 2406 2741 
Q 2056 2741 1856 2470 
Q 1656 2200 1656 1722 
L 1656 0 
L 538 0 
L 538 3500 
L 1656 3500 
L 1656 2988 
Q 1909 3294 2193 3439 
Q 2478 3584 2822 3584 
Q 3428 3584 3742 3212 
Q 4056 2841 4056 2131 
z
" transform="scale(0.015625)"/>
     </defs>
     <use xlink:href="#DejaVuSans-Bold-34"/>
     <use xlink:href="#DejaVuSans-Bold-58" transform="translate(85.015625 0)"/>
     <use xlink:href="#DejaVuSans-Bold-44" transform="translate(156.203125 0)"/>
     <use xlink:href="#DejaVuSans-Bold-51" transform="translate(223.6875 0)"/>
     <use xlink:href="#DejaVuSans-Bold-57" transform="translate(294.875 0)"/>
     <use xlink:href="#DejaVuSans-Bold-4c" transform="translate(342.671875 0)"/>
     <use xlink:href="#DejaVuSans-Bold-4f" transform="translate(376.953125 0)"/>
     <use xlink:href="#DejaVuSans-Bold-48" transform="translate(411.234375 0)"/>
    </g>
   </g>
  </g>
  <g id="axes_3">
   <g id="FillBetweenPolyCollection_2">
    <defs>
     <path id="mc7667d9d0a" d="M 555.6 -131.171652 
L 555.6 -41.75271 
L 560.033898 -45.391834 
L 564.467797 -49.006497 
L 568.901695 -52.572512 
L 573.335593 -56.066239 
L 577.769492 -59.464846 
L 582.20339 -62.746568 
L 586.637288 -65.890952 
L 591.071186 -68.879084 
L 595.505085 -71.693801 
L 599.938983 -74.319884 
L 604.372881 -76.74423 
L 608.80678 -78.955997 
L 613.240678 -80.946727 
L 617.674576 -82.710439 
L 622.108475 -84.243697 
L 626.542373 -85.54565 
L 630.976271 -86.618039 
L 635.410169 -87.46518 
L 639.844068 -88.093912 
L 644.277966 -88.513525 
L 648.711864 -88.735652 
L 653.145763 -88.774141 
L 657.579661 -88.644898 
L 662.013559 -88.36571 
L 666.447458 -87.956044 
L 670.881356 -87.436832 
L 675.315254 -86.830231 
L 679.749153 -86.159382 
L 684.183051 -85.448142 
L 688.616949 -84.720822 
L 693.050847 -84.001916 
L 697.484746 -83.31582 
L 701.918644 -82.686564 
L 706.352542 -82.137541 
L 710.786441 -81.691244 
L 715.220339 -81.369014 
L 719.654237 -81.190801 
L 724.088136 -81.174941 
L 728.522034 -81.337951 
L 732.955932 -81.694339 
L 737.389831 -82.256449 
L 741.823729 -83.034316 
L 746.257627 -84.035557 
L 750.691525 -85.265286 
L 755.125424 -86.726052 
L 759.559322 -88.417818 
L 763.99322 -90.337955 
L 768.427119 -92.481273 
L 772.861017 -94.840081 
L 777.294915 -97.404271 
L 781.728814 -100.161436 
L 786.162712 -103.097 
L 790.59661 -106.194391 
L 795.030508 -109.435222 
L 799.464407 -112.799496 
L 803.898305 -116.265835 
L 808.332203 -119.811715 
L 812.766102 -123.413719 
L 817.2 -127.047804 
L 817.2 -216.466745 
L 817.2 -216.466745 
L 812.766102 -212.83266 
L 808.332203 -209.230656 
L 803.898305 -205.684777 
L 799.464407 -202.218438 
L 795.030508 -198.854163 
L 790.59661 -195.613332 
L 786.162712 -192.515941 
L 781.728814 -189.580377 
L 777.294915 -186.823213 
L 772.861017 -184.259022 
L 768.427119 -181.900214 
L 763.99322 -179.756896 
L 759.559322 -177.83676 
L 755.125424 -176.144994 
L 750.691525 -174.684227 
L 746.257627 -173.454498 
L 741.823729 -172.453257 
L 737.389831 -171.67539 
L 732.955932 -171.11328 
L 728.522034 -170.756892 
L 724.088136 -170.593883 
L 719.654237 -170.609742 
L 715.220339 -170.787955 
L 710.786441 -171.110185 
L 706.352542 -171.556483 
L 701.918644 -172.105506 
L 697.484746 -172.734761 
L 693.050847 -173.420857 
L 688.616949 -174.139764 
L 684.183051 -174.867083 
L 679.749153 -175.578323 
L 675.315254 -176.249173 
L 670.881356 -176.855773 
L 666.447458 -177.374985 
L 662.013559 -177.784651 
L 657.579661 -178.063839 
L 653.145763 -178.193082 
L 648.711864 -178.154593 
L 644.277966 -177.932466 
L 639.844068 -177.512853 
L 635.410169 -176.884121 
L 630.976271 -176.03698 
L 626.542373 -174.964591 
L 622.108475 -173.662638 
L 617.674576 -172.12938 
L 613.240678 -170.365668 
L 608.80678 -168.374939 
L 604.372881 -166.163171 
L 599.938983 -163.738825 
L 595.505085 -161.112742 
L 591.071186 -158.298025 
L 586.637288 -155.309894 
L 582.20339 -152.165509 
L 577.769492 -148.883787 
L 573.335593 -145.48518 
L 568.901695 -141.991454 
L 564.467797 -138.425438 
L 560.033898 -134.810775 
L 555.6 -131.171652 
z
" style="stroke: #059669; stroke-opacity: 0.28"/>
    </defs>
    <g clip-path="url(#p94496be58e)">
     <use xlink:href="#mc7667d9d0a" x="0" y="259.2" style="fill: #059669; fill-opacity: 0.28; stroke: #059669; stroke-opacity: 0.28"/>
    </g>
   </g>
   <g id="line2d_6">
    <path d="M 555.6 172.737819 
L 560.033898 169.098695 
L 564.467797 165.484032 
L 568.901695 161.918017 
L 573.335593 158.424291 
L 577.769492 155.025684 
L 582.20339 151.743961 
L 586.637288 148.599577 
L 591.071186 145.611445 
L 595.505085 142.796729 
L 599.938983 140.170645 
L 604.372881 137.746299 
L 608.80678 135.534532 
L 613.240678 133.543802 
L 617.674576 131.780091 
L 622.108475 130.246832 
L 626.542373 128.944879 
L 630.976271 127.87249 
L 635.410169 127.02535 
L 639.844068 126.396618 
L 644.277966 125.977005 
L 648.711864 125.754877 
L 653.145763 125.716388 
L 657.579661 125.845632 
L 662.013559 126.12482 
L 666.447458 126.534485 
L 670.881356 127.053698 
L 675.315254 127.660298 
L 679.749153 128.331148 
L 684.183051 129.042388 
L 688.616949 129.769707 
L 693.050847 130.488613 
L 697.484746 131.174709 
L 701.918644 131.803965 
L 706.352542 132.352988 
L 710.786441 132.799285 
L 715.220339 133.121515 
L 719.654237 133.299728 
L 724.088136 133.315588 
L 728.522034 133.152579 
L 732.955932 132.79619 
L 737.389831 132.234081 
L 741.823729 131.456214 
L 746.257627 130.454972 
L 750.691525 129.225244 
L 755.125424 127.764477 
L 759.559322 126.072711 
L 763.99322 124.152575 
L 768.427119 122.009257 
L 772.861017 119.650449 
L 777.294915 117.086258 
L 781.728814 114.329094 
L 786.162712 111.39353 
L 790.59661 108.296138 
L 795.030508 105.055308 
L 799.464407 101.691033 
L 803.898305 98.224694 
L 808.332203 94.678815 
L 812.766102 91.07681 
L 817.2 87.442726 
" clip-path="url(#p94496be58e)" style="fill: none; stroke: #059669; stroke-width: 1.8; stroke-linecap: square"/>
   </g>
   <g id="PathCollection_2">
    <defs>
     <path id="m487d8e4af6" d="M 0 2 
C 0.530406 2 1.03916 1.789267 1.414214 1.414214 
C 1.789267 1.03916 2 0.530406 2 0 
C 2 -0.530406 1.789267 -1.03916 1.414214 -1.414214 
C 1.03916 -1.789267 0.530406 -2 0 -2 
C -0.530406 -2 -1.03916 -1.789267 -1.414214 -1.414214 
C -1.789267 -1.03916 -2 -0.530406 -2 0 
C -2 0.530406 -1.789267 1.03916 -1.414214 1.414214 
C -1.03916 1.789267 -0.530406 2 0 2 
z
" style="stroke: #1e293b"/>
    </defs>
    <g clip-path="url(#p94496be58e)">
     <use xlink:href="#m487d8e4af6" x="568.901695" y="195.926822" style="fill: #1e293b; stroke: #1e293b"/>
     <use xlink:href="#m487d8e4af6" x="586.637288" y="124.340229" style="fill: #1e293b; stroke: #1e293b"/>
     <use xlink:href="#m487d8e4af6" x="608.80678" y="137.945038" style="fill: #1e293b; stroke: #1e293b"/>
     <use xlink:href="#m487d8e4af6" x="630.976271" y="154.540587" style="fill: #1e293b; stroke: #1e293b"/>
     <use xlink:href="#m487d8e4af6" x="653.145763" y="108.601827" style="fill: #1e293b; stroke: #1e293b"/>
     <use xlink:href="#m487d8e4af6" x="675.315254" y="149.431819" style="fill: #1e293b; stroke: #1e293b"/>
     <use xlink:href="#m487d8e4af6" x="693.050847" y="161.826716" style="fill: #1e293b; stroke: #1e293b"/>
     <use xlink:href="#m487d8e4af6" x="715.220339" y="126.083021" style="fill: #1e293b; stroke: #1e293b"/>
     <use xlink:href="#m487d8e4af6" x="737.389831" y="103.923489" style="fill: #1e293b; stroke: #1e293b"/>
     <use xlink:href="#m487d8e4af6" x="759.559322" y="159.912886" style="fill: #1e293b; stroke: #1e293b"/>
     <use xlink:href="#m487d8e4af6" x="781.728814" y="92.501144" style="fill: #1e293b; stroke: #1e293b"/>
     <use xlink:href="#m487d8e4af6" x="803.898305" y="120.388429" style="fill: #1e293b; stroke: #1e293b"/>
    </g>
   </g>
   <g id="text_7">
    <!-- $\geq 90\%$ coverage, guaranteed -->
    <g style="fill: #059669" transform="translate(613.32 229.484455) scale(0.09 -0.09)">
     <defs>
      <path id="DejaVuSans-cef" d="M 678 3175 
L 678 3725 
L 4684 2578 
L 4684 2047 
L 678 897 
L 678 1453 
L 3681 2309 
L 678 3175 
z
M 4684 531 
L 4684 0 
L 678 0 
L 678 531 
L 4684 531 
z
" transform="scale(0.015625)"/>
      <path id="DejaVuSans-1c" d="M 703 97 
L 703 672 
Q 941 559 1184 500 
Q 1428 441 1663 441 
Q 2288 441 2617 861 
Q 2947 1281 2994 2138 
Q 2813 1869 2534 1725 
Q 2256 1581 1919 1581 
Q 1219 1581 811 2004 
Q 403 2428 403 3163 
Q 403 3881 828 4315 
Q 1253 4750 1959 4750 
Q 2769 4750 3195 4129 
Q 3622 3509 3622 2328 
Q 3622 1225 3098 567 
Q 2575 -91 1691 -91 
Q 1453 -91 1209 -44 
Q 966 3 703 97 
z
M 1959 2075 
Q 2384 2075 2632 2365 
Q 2881 2656 2881 3163 
Q 2881 3666 2632 3958 
Q 2384 4250 1959 4250 
Q 1534 4250 1286 3958 
Q 1038 3666 1038 3163 
Q 1038 2656 1286 2365 
Q 1534 2075 1959 2075 
z
" transform="scale(0.015625)"/>
      <path id="DejaVuSans-13" d="M 2034 4250 
Q 1547 4250 1301 3770 
Q 1056 3291 1056 2328 
Q 1056 1369 1301 889 
Q 1547 409 2034 409 
Q 2525 409 2770 889 
Q 3016 1369 3016 2328 
Q 3016 3291 2770 3770 
Q 2525 4250 2034 4250 
z
M 2034 4750 
Q 2819 4750 3233 4129 
Q 3647 3509 3647 2328 
Q 3647 1150 3233 529 
Q 2819 -91 2034 -91 
Q 1250 -91 836 529 
Q 422 1150 422 2328 
Q 422 3509 836 4129 
Q 1250 4750 2034 4750 
z
" transform="scale(0.015625)"/>
      <path id="DejaVuSans-8" d="M 4653 2053 
Q 4381 2053 4226 1822 
Q 4072 1591 4072 1178 
Q 4072 772 4226 539 
Q 4381 306 4653 306 
Q 4919 306 5073 539 
Q 5228 772 5228 1178 
Q 5228 1588 5073 1820 
Q 4919 2053 4653 2053 
z
M 4653 2450 
Q 5147 2450 5437 2106 
Q 5728 1763 5728 1178 
Q 5728 594 5436 251 
Q 5144 -91 4653 -91 
Q 4153 -91 3862 251 
Q 3572 594 3572 1178 
Q 3572 1766 3864 2108 
Q 4156 2450 4653 2450 
z
M 1428 4353 
Q 1159 4353 1004 4120 
Q 850 3888 850 3481 
Q 850 3069 1003 2837 
Q 1156 2606 1428 2606 
Q 1700 2606 1854 2837 
Q 2009 3069 2009 3481 
Q 2009 3884 1853 4118 
Q 1697 4353 1428 4353 
z
M 4250 4750 
L 4750 4750 
L 1831 -91 
L 1331 -91 
L 4250 4750 
z
M 1428 4750 
Q 1922 4750 2215 4408 
Q 2509 4066 2509 3481 
Q 2509 2891 2217 2550 
Q 1925 2209 1428 2209 
Q 931 2209 642 2551 
Q 353 2894 353 3481 
Q 353 4063 643 4406 
Q 934 4750 1428 4750 
z
" transform="scale(0.015625)"/>
      <path id="DejaVuSans-Bold-59" d="M 97 3500 
L 1216 3500 
L 2088 1081 
L 2956 3500 
L 4078 3500 
L 2700 0 
L 1472 0 
L 97 3500 
z
" transform="scale(0.015625)"/>
      <path id="DejaVuSans-Bold-4a" d="M 2919 594 
Q 2688 288 2409 144 
Q 2131 0 1766 0 
Q 1125 0 706 504 
Q 288 1009 288 1791 
Q 288 2575 706 3076 
Q 1125 3578 1766 3578 
Q 2131 3578 2409 3434 
Q 2688 3291 2919 2981 
L 2919 3500 
L 4044 3500 
L 4044 353 
Q 4044 -491 3511 -936 
Q 2978 -1381 1966 -1381 
Q 1638 -1381 1331 -1331 
Q 1025 -1281 716 -1178 
L 716 -306 
Q 1009 -475 1290 -558 
Q 1572 -641 1856 -641 
Q 2406 -641 2662 -400 
Q 2919 -159 2919 353 
L 2919 594 
z
M 2181 2772 
Q 1834 2772 1640 2515 
Q 1447 2259 1447 1791 
Q 1447 1309 1634 1061 
Q 1822 813 2181 813 
Q 2531 813 2725 1069 
Q 2919 1325 2919 1791 
Q 2919 2259 2725 2515 
Q 2531 2772 2181 2772 
z
" transform="scale(0.015625)"/>
      <path id="DejaVuSans-Bold-f" d="M 653 1209 
L 1778 1209 
L 1778 256 
L 1006 -909 
L 341 -909 
L 653 256 
L 653 1209 
z
" transform="scale(0.015625)"/>
     </defs>
     <use xlink:href="#DejaVuSans-cef" transform="translate(19.482422 0.015625)"/>
     <use xlink:href="#DejaVuSans-1c" transform="translate(122.753906 0.015625)"/>
     <use xlink:href="#DejaVuSans-13" transform="translate(186.376953 0.015625)"/>
     <use xlink:href="#DejaVuSans-8" transform="translate(250 0.015625)"/>
     <use xlink:href="#DejaVuSans-Bold-3" transform="translate(345.019531 0.015625)"/>
     <use xlink:href="#DejaVuSans-Bold-46" transform="translate(379.833984 0.015625)"/>
     <use xlink:href="#DejaVuSans-Bold-52" transform="translate(439.111328 0.015625)"/>
     <use xlink:href="#DejaVuSans-Bold-59" transform="translate(507.8125 0.015625)"/>
     <use xlink:href="#DejaVuSans-Bold-48" transform="translate(572.998047 0.015625)"/>
     <use xlink:href="#DejaVuSans-Bold-55" transform="translate(640.820312 0.015625)"/>
     <use xlink:href="#DejaVuSans-Bold-44" transform="translate(690.136719 0.015625)"/>
     <use xlink:href="#DejaVuSans-Bold-4a" transform="translate(757.617188 0.015625)"/>
     <use xlink:href="#DejaVuSans-Bold-48" transform="translate(829.199219 0.015625)"/>
     <use xlink:href="#DejaVuSans-Bold-f" transform="translate(897.021484 0.015625)"/>
     <use xlink:href="#DejaVuSans-Bold-3" transform="translate(935.009766 0.015625)"/>
     <use xlink:href="#DejaVuSans-Bold-4a" transform="translate(969.824219 0.015625)"/>
     <use xlink:href="#DejaVuSans-Bold-58" transform="translate(1041.40625 0.015625)"/>
     <use xlink:href="#DejaVuSans-Bold-44" transform="translate(1112.597656 0.015625)"/>
     <use xlink:href="#DejaVuSans-Bold-55" transform="translate(1180.078125 0.015625)"/>
     <use xlink:href="#DejaVuSans-Bold-44" transform="translate(1229.394531 0.015625)"/>
     <use xlink:href="#DejaVuSans-Bold-51" transform="translate(1296.875 0.015625)"/>
     <use xlink:href="#DejaVuSans-Bold-57" transform="translate(1368.066406 0.015625)"/>
     <use xlink:href="#DejaVuSans-Bold-48" transform="translate(1415.869141 0.015625)"/>
     <use xlink:href="#DejaVuSans-Bold-48" transform="translate(1483.691406 0.015625)"/>
     <use xlink:href="#DejaVuSans-Bold-47" transform="translate(1551.513672 0.015625)"/>
    </g>
   </g>
   <g id="text_8">
    <!-- Conformal -->
    <g style="fill: #1e293b" transform="translate(653.005977 19.537305) scale(0.115 -0.115)">
     <defs>
      <path id="DejaVuSans-Bold-26" d="M 4288 256 
Q 3956 84 3597 -3 
Q 3238 -91 2847 -91 
Q 1681 -91 1000 561 
Q 319 1213 319 2328 
Q 319 3447 1000 4098 
Q 1681 4750 2847 4750 
Q 3238 4750 3597 4662 
Q 3956 4575 4288 4403 
L 4288 3438 
Q 3953 3666 3628 3772 
Q 3303 3878 2944 3878 
Q 2300 3878 1931 3465 
Q 1563 3053 1563 2328 
Q 1563 1606 1931 1193 
Q 2300 781 2944 781 
Q 3303 781 3628 887 
Q 3953 994 4288 1222 
L 4288 256 
z
" transform="scale(0.015625)"/>
      <path id="DejaVuSans-Bold-49" d="M 2841 4863 
L 2841 4128 
L 2222 4128 
Q 1984 4128 1890 4042 
Q 1797 3956 1797 3744 
L 1797 3500 
L 2753 3500 
L 2753 2700 
L 1797 2700 
L 1797 0 
L 678 0 
L 678 2700 
L 122 2700 
L 122 3500 
L 678 3500 
L 678 3744 
Q 678 4316 997 4589 
Q 1316 4863 1984 4863 
L 2841 4863 
z
" transform="scale(0.015625)"/>
     </defs>
     <use xlink:href="#DejaVuSans-Bold-26"/>
     <use xlink:href="#DejaVuSans-Bold-52" transform="translate(73.390625 0)"/>
     <use xlink:href="#DejaVuSans-Bold-51" transform="translate(142.09375 0)"/>
     <use xlink:href="#DejaVuSans-Bold-49" transform="translate(213.28125 0)"/>
     <use xlink:href="#DejaVuSans-Bold-52" transform="translate(256.78125 0)"/>
     <use xlink:href="#DejaVuSans-Bold-55" transform="translate(325.484375 0)"/>
     <use xlink:href="#DejaVuSans-Bold-50" transform="translate(374.796875 0)"/>
     <use xlink:href="#DejaVuSans-Bold-44" transform="translate(479 0)"/>
     <use xlink:href="#DejaVuSans-Bold-4f" transform="translate(546.484375 0)"/>
    </g>
   </g>
  </g>
 </g>
 <defs>
  <clipPath id="p7c10ffe3c6">
   <rect x="10.8" y="25.537305" width="261.6" height="222.862695"/>
  </clipPath>
  <clipPath id="pf71899f054">
   <rect x="283.2" y="25.537305" width="261.6" height="222.862695"/>
  </clipPath>
  <clipPath id="p94496be58e">
   <rect x="555.6" y="25.537305" width="261.6" height="222.862695"/>
  </clipPath>
 </defs>
</svg>
