<?xml version="1.0" encoding="utf-8" standalone="no"?>
<!DOCTYPE svg PUBLIC "-//W3C//DTD SVG 1.1//EN"
  "http://www.w3.org/Graphics/SVG/1.1/DTD/svg11.dtd">
<svg xmlns:xlink="http://www.w3.org/1999/xlink" width="726.48pt" height="350.938125pt" viewBox="0 0 726.48 350.938125" xmlns="http://www.w3.org/2000/svg" version="1.1">
 <metadata>
  <rdf:RDF xmlns:dc="http://purl.org/dc/elements/1.1/" xmlns:cc="http://creativecommons.org/ns#" xmlns:rdf="http://www.w3.org/1999/02/22-rdf-syntax-ns#">
   <cc:Work>
    <dc:type rdf:resource="http://purl.org/dc/dcmitype/StillImage"/>
    <dc:date>2026-07-18T10:17:53.155171</dc:date>
    <dc:format>image/svg+xml</dc:format>
    <dc:creator>
     <cc:Agent>
      <dc:title>Matplotlib v3.11.0, https://matplotlib.org/</dc:title>
     </cc:Agent>
    </dc:creator>
   </cc:Work>
  </rdf:RDF>
 </metadata>
 <defs>
  <style type="text/css">*{stroke-linejoin: round; stroke-linecap: butt}</style>
 </defs>
 <g id="figure_1">
  <g id="patch_1">
   <path d="M 0 350.938125 
L 726.48 350.938125 
L 726.48 0 
L 0 0 
z
" style="fill: #ffffff"/>
  </g>
  <g id="axes_1">
   <g id="patch_2">
    <path d="M 120.5736 70.238925 
L 244.4664 70.238925 
Q 247.9728 70.238925 247.9728 66.732525 
L 247.9728 36.343725 
Q 247.9728 32.837325 244.4664 32.837325 
L 120.5736 32.837325 
Q 117.0672 32.837325 117.0672 36.343725 
L 117.0672 66.732525 
Q 117.0672 70.238925 120.5736 70.238925 
z
" clip-path="url(#p76b127ff4b)" style="fill: #0369a1; stroke: #0369a1; stroke-width: 1.6; stroke-linejoin: miter"/>
   </g>
   <g id="patch_3">
    <path d="M 182.52 71.07258 
Q 182.52 89.525643 182.52 106.301656 
" clip-path="url(#p76b127ff4b)" style="fill: none; stroke: #0369a1; stroke-width: 1.5; stroke-linecap: round"/>
    <path d="M 185.12 101.101656 
L 182.52 106.301656 
L 179.92 101.101656 
z
" clip-path="url(#p76b127ff4b)" style="fill: #0369a1; stroke: #0369a1; stroke-width: 1.5; stroke-linecap: round"/>
   </g>
   <g id="patch_4">
    <path d="M 120.5736 149.132925 
L 244.4664 149.132925 
Q 247.9728 149.132925 247.9728 145.626525 
L 247.9728 115.237725 
Q 247.9728 111.731325 244.4664 111.731325 
L 120.5736 111.731325 
Q 117.0672 111.731325 117.0672 115.237725 
L 117.0672 145.626525 
Q 117.0672 149.132925 120.5736 149.132925 
z
" clip-path="url(#p76b127ff4b)" style="fill: #0369a1; stroke: #0369a1; stroke-width: 1.6; stroke-linejoin: miter"/>
   </g>
   <g id="patch_5">
    <path d="M 182.52 149.96658 
Q 182.52 168.419643 182.52 185.195656 
" clip-path="url(#p76b127ff4b)" style="fill: none; stroke: #0369a1; stroke-width: 1.5; stroke-linecap: round"/>
    <path d="M 185.12 179.995656 
L 182.52 185.195656 
L 179.92 179.995656 
z
" clip-path="url(#p76b127ff4b)" style="fill: #0369a1; stroke: #0369a1; stroke-width: 1.5; stroke-linecap: round"/>
   </g>
   <g id="patch_6">
    <path d="M 120.5736 228.026925 
L 244.4664 228.026925 
Q 247.9728 228.026925 247.9728 224.520525 
L 247.9728 194.131725 
Q 247.9728 190.625325 244.4664 190.625325 
L 120.5736 190.625325 
Q 117.0672 190.625325 117.0672 194.131725 
L 117.0672 224.520525 
Q 117.0672 228.026925 120.5736 228.026925 
z
" clip-path="url(#p76b127ff4b)" style="fill: #1e293b; stroke: #1e293b; stroke-width: 1.6; stroke-linejoin: miter"/>
   </g>
   <g id="patch_7">
    <path d="M 182.52 228.86058 
Q 182.52 247.313643 182.52 264.089656 
" clip-path="url(#p76b127ff4b)" style="fill: none; stroke: #1e293b; stroke-width: 1.5; stroke-linecap: round"/>
    <path d="M 185.12 258.889656 
L 182.52 264.089656 
L 179.92 258.889656 
z
" clip-path="url(#p76b127ff4b)" style="fill: #1e293b; stroke: #1e293b; stroke-width: 1.5; stroke-linecap: round"/>
   </g>
   <g id="patch_8">
    <path d="M 257.083641 52.958819 
Q 178.083163 133.355342 255.910592 212.555689 
" clip-path="url(#p76b127ff4b)" style="fill: none; stroke: #ea580c; stroke-width: 1.5; stroke-linecap: round"/>
    <path d="M 254.120405 207.024393 
L 255.910592 212.555689 
L 250.411443 210.669061 
z
" clip-path="url(#p76b127ff4b)" style="fill: #ea580c; stroke: #ea580c; stroke-width: 1.5; stroke-linecap: round"/>
   </g>
   <g id="text_1">
    <!-- Population history -->
    <g style="fill: #ffffff" transform="translate(139.38918 53.694504) scale(0.083 -0.083)">
     <defs>
      <path id="DejaVuSans-Bold-33" d="M 588 4666 
L 2584 4666 
Q 3475 4666 3951 4270 
Q 4428 3875 4428 3144 
Q 4428 2409 3951 2014 
Q 3475 1619 2584 1619 
L 1791 1619 
L 1791 0 
L 588 0 
L 588 4666 
z
M 1791 3794 
L 1791 2491 
L 2456 2491 
Q 2806 2491 2997 2661 
Q 3188 2831 3188 3144 
Q 3188 3456 2997 3625 
Q 2806 3794 2456 3794 
L 1791 3794 
z
" transform="scale(0.015625)"/>
      <path id="DejaVuSans-Bold-52" d="M 2203 2784 
Q 1831 2784 1636 2517 
Q 1441 2250 1441 1747 
Q 1441 1244 1636 976 
Q 1831 709 2203 709 
Q 2569 709 2762 976 
Q 2956 1244 2956 1747 
Q 2956 2250 2762 2517 
Q 2569 2784 2203 2784 
z
M 2203 3584 
Q 3106 3584 3614 3096 
Q 4122 2609 4122 1747 
Q 4122 884 3614 396 
Q 3106 -91 2203 -91 
Q 1297 -91 786 396 
Q 275 884 275 1747 
Q 275 2609 786 3096 
Q 1297 3584 2203 3584 
z
" transform="scale(0.015625)"/>
      <path id="DejaVuSans-Bold-53" d="M 1656 506 
L 1656 -1331 
L 538 -1331 
L 538 3500 
L 1656 3500 
L 1656 2988 
Q 1888 3294 2169 3439 
Q 2450 3584 2816 3584 
Q 3463 3584 3878 3070 
Q 4294 2556 4294 1747 
Q 4294 938 3878 423 
Q 3463 -91 2816 -91 
Q 2450 -91 2169 54 
Q 1888 200 1656 506 
z
M 2400 2772 
Q 2041 2772 1848 2508 
Q 1656 2244 1656 1747 
Q 1656 1250 1848 986 
Q 2041 722 2400 722 
Q 2759 722 2948 984 
Q 3138 1247 3138 1747 
Q 3138 2247 2948 2509 
Q 2759 2772 2400 2772 
z
" transform="scale(0.015625)"/>
      <path id="DejaVuSans-Bold-58" d="M 500 1363 
L 500 3500 
L 1625 3500 
L 1625 3150 
Q 1625 2866 1622 2436 
Q 1619 2006 1619 1863 
Q 1619 1441 1641 1255 
Q 1663 1069 1716 984 
Q 1784 875 1895 815 
Q 2006 756 2150 756 
Q 2500 756 2700 1025 
Q 2900 1294 2900 1772 
L 2900 3500 
L 4019 3500 
L 4019 0 
L 2900 0 
L 2900 506 
Q 2647 200 2364 54 
Q 2081 -91 1741 -91 
Q 1134 -91 817 281 
Q 500 653 500 1363 
z
" transform="scale(0.015625)"/>
      <path id="DejaVuSans-Bold-4f" d="M 538 4863 
L 1656 4863 
L 1656 0 
L 538 0 
L 538 4863 
z
" transform="scale(0.015625)"/>
      <path id="DejaVuSans-Bold-44" d="M 2106 1575 
Q 1756 1575 1579 1456 
Q 1403 1338 1403 1106 
Q 1403 894 1545 773 
Q 1688 653 1941 653 
Q 2256 653 2472 879 
Q 2688 1106 2688 1447 
L 2688 1575 
L 2106 1575 
z
M 3816 1997 
L 3816 0 
L 2688 0 
L 2688 519 
Q 2463 200 2181 54 
Q 1900 -91 1497 -91 
Q 953 -91 614 226 
Q 275 544 275 1050 
Q 275 1666 698 1953 
Q 1122 2241 2028 2241 
L 2688 2241 
L 2688 2328 
Q 2688 2594 2478 2717 
Q 2269 2841 1825 2841 
Q 1466 2841 1156 2769 
Q 847 2697 581 2553 
L 581 3406 
Q 941 3494 1303 3539 
Q 1666 3584 2028 3584 
Q 2975 3584 3395 3211 
Q 3816 2838 3816 1997 
z
" transform="scale(0.015625)"/>
      <path id="DejaVuSans-Bold-57" d="M 1759 4494 
L 1759 3500 
L 2913 3500 
L 2913 2700 
L 1759 2700 
L 1759 1216 
Q 1759 972 1856 886 
Q 1953 800 2241 800 
L 2816 800 
L 2816 0 
L 1856 0 
Q 1194 0 917 276 
Q 641 553 641 1216 
L 641 2700 
L 84 2700 
L 84 3500 
L 641 3500 
L 641 4494 
L 1759 4494 
z
" transform="scale(0.015625)"/>
      <path id="DejaVuSans-Bold-4c" d="M 538 3500 
L 1656 3500 
L 1656 0 
L 538 0 
L 538 3500 
z
M 538 4863 
L 1656 4863 
L 1656 3950 
L 538 3950 
L 538 4863 
z
" transform="scale(0.015625)"/>
      <path id="DejaVuSans-Bold-51" d="M 4056 2131 
L 4056 0 
L 2931 0 
L 2931 347 
L 2931 1631 
Q 2931 2084 2911 2256 
Q 2891 2428 2841 2509 
Q 2775 2619 2662 2680 
Q 2550 2741 2406 2741 
Q 2056 2741 1856 2470 
Q 1656 2200 1656 1722 
L 1656 0 
L 538 0 
L 538 3500 
L 1656 3500 
L 1656 2988 
Q 1909 3294 2193 3439 
Q 2478 3584 2822 3584 
Q 3428 3584 3742 3212 
Q 4056 2841 4056 2131 
z
" transform="scale(0.015625)"/>
      <path id="DejaVuSans-Bold-3" transform="scale(0.015625)"/>
      <path id="DejaVuSans-Bold-4b" d="M 4056 2131 
L 4056 0 
L 2931 0 
L 2931 347 
L 2931 1625 
Q 2931 2084 2911 2256 
Q 2891 2428 2841 2509 
Q 2775 2619 2662 2680 
Q 2550 2741 2406 2741 
Q 2056 2741 1856 2470 
Q 1656 2200 1656 1722 
L 1656 0 
L 538 0 
L 538 4863 
L 1656 4863 
L 1656 2988 
Q 1909 3294 2193 3439 
Q 2478 3584 2822 3584 
Q 3428 3584 3742 3212 
Q 4056 2841 4056 2131 
z
" transform="scale(0.015625)"/>
      <path id="DejaVuSans-Bold-56" d="M 3272 3391 
L 3272 2541 
Q 2913 2691 2578 2766 
Q 2244 2841 1947 2841 
Q 1628 2841 1473 2761 
Q 1319 2681 1319 2516 
Q 1319 2381 1436 2309 
Q 1553 2238 1856 2203 
L 2053 2175 
Q 2913 2066 3209 1816 
Q 3506 1566 3506 1031 
Q 3506 472 3093 190 
Q 2681 -91 1863 -91 
Q 1516 -91 1145 -36 
Q 775 19 384 128 
L 384 978 
Q 719 816 1070 734 
Q 1422 653 1784 653 
Q 2113 653 2278 743 
Q 2444 834 2444 1013 
Q 2444 1163 2330 1236 
Q 2216 1309 1875 1350 
L 1678 1375 
Q 931 1469 631 1722 
Q 331 1975 331 2491 
Q 331 3047 712 3315 
Q 1094 3584 1881 3584 
Q 2191 3584 2531 3537 
Q 2872 3491 3272 3391 
z
" transform="scale(0.015625)"/>
      <path id="DejaVuSans-Bold-55" d="M 3138 2547 
Q 2991 2616 2845 2648 
Q 2700 2681 2553 2681 
Q 2122 2681 1889 2404 
Q 1656 2128 1656 1613 
L 1656 0 
L 538 0 
L 538 3500 
L 1656 3500 
L 1656 2925 
Q 1872 3269 2151 3426 
Q 2431 3584 2822 3584 
Q 2878 3584 2943 3579 
Q 3009 3575 3134 3559 
L 3138 2547 
z
" transform="scale(0.015625)"/>
      <path id="DejaVuSans-Bold-5c" d="M 78 3500 
L 1197 3500 
L 2138 1125 
L 2938 3500 
L 4056 3500 
L 2584 -331 
Q 2363 -916 2067 -1148 
Q 1772 -1381 1288 -1381 
L 641 -1381 
L 641 -647 
L 991 -647 
Q 1275 -647 1404 -556 
Q 1534 -466 1606 -231 
L 1638 -134 
L 78 3500 
z
" transform="scale(0.015625)"/>
     </defs>
     <use xlink:href="#DejaVuSans-Bold-33"/>
     <use xlink:href="#DejaVuSans-Bold-52" transform="translate(73.296875 0)"/>
     <use xlink:href="#DejaVuSans-Bold-53" transform="translate(142 0)"/>
     <use xlink:href="#DejaVuSans-Bold-58" transform="translate(213.578125 0)"/>
     <use xlink:href="#DejaVuSans-Bold-4f" transform="translate(284.765625 0)"/>
     <use xlink:href="#DejaVuSans-Bold-44" transform="translate(319.046875 0)"/>
     <use xlink:href="#DejaVuSans-Bold-57" transform="translate(386.53125 0)"/>
     <use xlink:href="#DejaVuSans-Bold-4c" transform="translate(434.328125 0)"/>
     <use xlink:href="#DejaVuSans-Bold-52" transform="translate(468.609375 0)"/>
     <use xlink:href="#DejaVuSans-Bold-51" transform="translate(537.3125 0)"/>
     <use xlink:href="#DejaVuSans-Bold-3" transform="translate(608.5 0)"/>
     <use xlink:href="#DejaVuSans-Bold-4b" transform="translate(643.3125 0)"/>
     <use xlink:href="#DejaVuSans-Bold-4c" transform="translate(714.5 0)"/>
     <use xlink:href="#DejaVuSans-Bold-56" transform="translate(748.78125 0)"/>
     <use xlink:href="#DejaVuSans-Bold-57" transform="translate(808.296875 0)"/>
     <use xlink:href="#DejaVuSans-Bold-52" transform="translate(856.09375 0)"/>
     <use xlink:href="#DejaVuSans-Bold-55" transform="translate(924.796875 0)"/>
     <use xlink:href="#DejaVuSans-Bold-5c" transform="translate(974.109375 0)"/>
    </g>
   </g>
   <g id="text_2">
    <!-- Lag + distance -->
    <g style="fill: #ffffff" transform="translate(147.861016 127.607369) scale(0.083 -0.083)">
     <defs>
      <path id="DejaVuSans-Bold-2f" d="M 588 4666 
L 1791 4666 
L 1791 909 
L 3903 909 
L 3903 0 
L 588 0 
L 588 4666 
z
" transform="scale(0.015625)"/>
      <path id="DejaVuSans-Bold-4a" d="M 2919 594 
Q 2688 288 2409 144 
Q 2131 0 1766 0 
Q 1125 0 706 504 
Q 288 1009 288 1791 
Q 288 2575 706 3076 
Q 1125 3578 1766 3578 
Q 2131 3578 2409 3434 
Q 2688 3291 2919 2981 
L 2919 3500 
L 4044 3500 
L 4044 353 
Q 4044 -491 3511 -936 
Q 2978 -1381 1966 -1381 
Q 1638 -1381 1331 -1331 
Q 1025 -1281 716 -1178 
L 716 -306 
Q 1009 -475 1290 -558 
Q 1572 -641 1856 -641 
Q 2406 -641 2662 -400 
Q 2919 -159 2919 353 
L 2919 594 
z
M 2181 2772 
Q 1834 2772 1640 2515 
Q 1447 2259 1447 1791 
Q 1447 1309 1634 1061 
Q 1822 813 2181 813 
Q 2531 813 2725 1069 
Q 2919 1325 2919 1791 
Q 2919 2259 2725 2515 
Q 2531 2772 2181 2772 
z
" transform="scale(0.015625)"/>
      <path id="DejaVuSans-Bold-e" d="M 3053 4013 
L 3053 2375 
L 4684 2375 
L 4684 1638 
L 3053 1638 
L 3053 0 
L 2309 0 
L 2309 1638 
L 678 1638 
L 678 2375 
L 2309 2375 
L 2309 4013 
L 3053 4013 
z
" transform="scale(0.015625)"/>
      <path id="DejaVuSans-Bold-47" d="M 2919 2988 
L 2919 4863 
L 4044 4863 
L 4044 0 
L 2919 0 
L 2919 506 
Q 2688 197 2409 53 
Q 2131 -91 1766 -91 
Q 1119 -91 703 423 
Q 288 938 288 1747 
Q 288 2556 703 3070 
Q 1119 3584 1766 3584 
Q 2128 3584 2408 3439 
Q 2688 3294 2919 2988 
z
M 2181 722 
Q 2541 722 2730 984 
Q 2919 1247 2919 1747 
Q 2919 2247 2730 2509 
Q 2541 2772 2181 2772 
Q 1825 2772 1636 2509 
Q 1447 2247 1447 1747 
Q 1447 1247 1636 984 
Q 1825 722 2181 722 
z
" transform="scale(0.015625)"/>
      <path id="DejaVuSans-Bold-46" d="M 3366 3391 
L 3366 2478 
Q 3138 2634 2908 2709 
Q 2678 2784 2431 2784 
Q 1963 2784 1702 2511 
Q 1441 2238 1441 1747 
Q 1441 1256 1702 982 
Q 1963 709 2431 709 
Q 2694 709 2930 787 
Q 3166 866 3366 1019 
L 3366 103 
Q 3103 6 2833 -42 
Q 2563 -91 2291 -91 
Q 1344 -91 809 395 
Q 275 881 275 1747 
Q 275 2613 809 3098 
Q 1344 3584 2291 3584 
Q 2566 3584 2833 3536 
Q 3100 3488 3366 3391 
z
" transform="scale(0.015625)"/>
      <path id="DejaVuSans-Bold-48" d="M 4031 1759 
L 4031 1441 
L 1416 1441 
Q 1456 1047 1700 850 
Q 1944 653 2381 653 
Q 2734 653 3104 758 
Q 3475 863 3866 1075 
L 3866 213 
Q 3469 63 3072 -14 
Q 2675 -91 2278 -91 
Q 1328 -91 801 392 
Q 275 875 275 1747 
Q 275 2603 792 3093 
Q 1309 3584 2216 3584 
Q 3041 3584 3536 3087 
Q 4031 2591 4031 1759 
z
M 2881 2131 
Q 2881 2450 2695 2645 
Q 2509 2841 2209 2841 
Q 1884 2841 1681 2658 
Q 1478 2475 1428 2131 
L 2881 2131 
z
" transform="scale(0.015625)"/>
     </defs>
     <use xlink:href="#DejaVuSans-Bold-2f"/>
     <use xlink:href="#DejaVuSans-Bold-44" transform="translate(63.71875 0)"/>
     <use xlink:href="#DejaVuSans-Bold-4a" transform="translate(131.203125 0)"/>
     <use xlink:href="#DejaVuSans-Bold-3" transform="translate(202.78125 0)"/>
     <use xlink:href="#DejaVuSans-Bold-e" transform="translate(237.59375 0)"/>
     <use xlink:href="#DejaVuSans-Bold-3" transform="translate(321.390625 0)"/>
     <use xlink:href="#DejaVuSans-Bold-47" transform="translate(356.203125 0)"/>
     <use xlink:href="#DejaVuSans-Bold-4c" transform="translate(427.78125 0)"/>
     <use xlink:href="#DejaVuSans-Bold-56" transform="translate(462.0625 0)"/>
     <use xlink:href="#DejaVuSans-Bold-57" transform="translate(521.578125 0)"/>
     <use xlink:href="#DejaVuSans-Bold-44" transform="translate(569.375 0)"/>
     <use xlink:href="#DejaVuSans-Bold-51" transform="translate(636.859375 0)"/>
     <use xlink:href="#DejaVuSans-Bold-46" transform="translate(708.046875 0)"/>
     <use xlink:href="#DejaVuSans-Bold-48" transform="translate(767.328125 0)"/>
    </g>
    <!-- features -->
    <g style="fill: #ffffff" transform="translate(162.830195 137.569639) scale(0.083 -0.083)">
     <defs>
      <path id="DejaVuSans-Bold-49" d="M 2841 4863 
L 2841 4128 
L 2222 4128 
Q 1984 4128 1890 4042 
Q 1797 3956 1797 3744 
L 1797 3500 
L 2753 3500 
L 2753 2700 
L 1797 2700 
L 1797 0 
L 678 0 
L 678 2700 
L 122 2700 
L 122 3500 
L 678 3500 
L 678 3744 
Q 678 4316 997 4589 
Q 1316 4863 1984 4863 
L 2841 4863 
z
" transform="scale(0.015625)"/>
     </defs>
     <use xlink:href="#DejaVuSans-Bold-49"/>
     <use xlink:href="#DejaVuSans-Bold-48" transform="translate(43.5 0)"/>
     <use xlink:href="#DejaVuSans-Bold-44" transform="translate(111.328125 0)"/>
     <use xlink:href="#DejaVuSans-Bold-57" transform="translate(178.8125 0)"/>
     <use xlink:href="#DejaVuSans-Bold-58" transform="translate(226.609375 0)"/>
     <use xlink:href="#DejaVuSans-Bold-55" transform="translate(297.796875 0)"/>
     <use xlink:href="#DejaVuSans-Bold-48" transform="translate(347.109375 0)"/>
     <use xlink:href="#DejaVuSans-Bold-56" transform="translate(414.9375 0)"/>
    </g>
   </g>
   <g id="text_3">
    <!-- Fit one model -->
    <g style="fill: #ffffff" transform="translate(150.385383 211.482504) scale(0.083 -0.083)">
     <defs>
      <path id="DejaVuSans-Bold-29" d="M 588 4666 
L 3834 4666 
L 3834 3756 
L 1791 3756 
L 1791 2888 
L 3713 2888 
L 3713 1978 
L 1791 1978 
L 1791 0 
L 588 0 
L 588 4666 
z
" transform="scale(0.015625)"/>
      <path id="DejaVuSans-Bold-50" d="M 3781 2919 
Q 3994 3244 4286 3414 
Q 4578 3584 4928 3584 
Q 5531 3584 5847 3212 
Q 6163 2841 6163 2131 
L 6163 0 
L 5038 0 
L 5038 1825 
Q 5041 1866 5042 1909 
Q 5044 1953 5044 2034 
Q 5044 2406 4934 2573 
Q 4825 2741 4581 2741 
Q 4263 2741 4089 2478 
Q 3916 2216 3909 1719 
L 3909 0 
L 2784 0 
L 2784 1825 
Q 2784 2406 2684 2573 
Q 2584 2741 2328 2741 
Q 2006 2741 1831 2477 
Q 1656 2213 1656 1722 
L 1656 0 
L 531 0 
L 531 3500 
L 1656 3500 
L 1656 2988 
Q 1863 3284 2130 3434 
Q 2397 3584 2719 3584 
Q 3081 3584 3359 3409 
Q 3638 3234 3781 2919 
z
" transform="scale(0.015625)"/>
     </defs>
     <use xlink:href="#DejaVuSans-Bold-29"/>
     <use xlink:href="#DejaVuSans-Bold-4c" transform="translate(68.3125 0)"/>
     <use xlink:href="#DejaVuSans-Bold-57" transform="translate(102.59375 0)"/>
     <use xlink:href="#DejaVuSans-Bold-3" transform="translate(150.390625 0)"/>
     <use xlink:href="#DejaVuSans-Bold-52" transform="translate(185.203125 0)"/>
     <use xlink:href="#DejaVuSans-Bold-51" transform="translate(253.90625 0)"/>
     <use xlink:href="#DejaVuSans-Bold-48" transform="translate(325.09375 0)"/>
     <use xlink:href="#DejaVuSans-Bold-3" transform="translate(392.921875 0)"/>
     <use xlink:href="#DejaVuSans-Bold-50" transform="translate(427.734375 0)"/>
     <use xlink:href="#DejaVuSans-Bold-52" transform="translate(531.9375 0)"/>
     <use xlink:href="#DejaVuSans-Bold-47" transform="translate(600.640625 0)"/>
     <use xlink:href="#DejaVuSans-Bold-48" transform="translate(672.21875 0)"/>
     <use xlink:href="#DejaVuSans-Bold-4f" transform="translate(740.046875 0)"/>
    </g>
   </g>
   <g id="text_4">
    <!-- Forecast, this -->
    <g style="fill: #1e293b" transform="translate(148.650312 288.147203) scale(0.088 -0.088)">
     <defs>
      <path id="DejaVuSans-Bold-f" d="M 653 1209 
L 1778 1209 
L 1778 256 
L 1006 -909 
L 341 -909 
L 653 256 
L 653 1209 
z
" transform="scale(0.015625)"/>
     </defs>
     <use xlink:href="#DejaVuSans-Bold-29"/>
     <use xlink:href="#DejaVuSans-Bold-52" transform="translate(64.265625 0)"/>
     <use xlink:href="#DejaVuSans-Bold-55" transform="translate(132.96875 0)"/>
     <use xlink:href="#DejaVuSans-Bold-48" transform="translate(182.28125 0)"/>
     <use xlink:href="#DejaVuSans-Bold-46" transform="translate(250.109375 0)"/>
     <use xlink:href="#DejaVuSans-Bold-44" transform="translate(309.390625 0)"/>
     <use xlink:href="#DejaVuSans-Bold-56" transform="translate(376.875 0)"/>
     <use xlink:href="#DejaVuSans-Bold-57" transform="translate(436.390625 0)"/>
     <use xlink:href="#DejaVuSans-Bold-f" transform="translate(484.1875 0)"/>
     <use xlink:href="#DejaVuSans-Bold-3" transform="translate(522.171875 0)"/>
     <use xlink:href="#DejaVuSans-Bold-57" transform="translate(556.984375 0)"/>
     <use xlink:href="#DejaVuSans-Bold-4b" transform="translate(604.78125 0)"/>
     <use xlink:href="#DejaVuSans-Bold-4c" transform="translate(675.96875 0)"/>
     <use xlink:href="#DejaVuSans-Bold-56" transform="translate(710.25 0)"/>
    </g>
    <!-- population only -->
    <g style="fill: #1e293b" transform="translate(143.758062 298.709609) scale(0.088 -0.088)">
     <use xlink:href="#DejaVuSans-Bold-53"/>
     <use xlink:href="#DejaVuSans-Bold-52" transform="translate(71.578125 0)"/>
     <use xlink:href="#DejaVuSans-Bold-53" transform="translate(140.28125 0)"/>
     <use xlink:href="#DejaVuSans-Bold-58" transform="translate(211.859375 0)"/>
     <use xlink:href="#DejaVuSans-Bold-4f" transform="translate(283.046875 0)"/>
     <use xlink:href="#DejaVuSans-Bold-44" transform="translate(317.328125 0)"/>
     <use xlink:href="#DejaVuSans-Bold-57" transform="translate(384.8125 0)"/>
     <use xlink:href="#DejaVuSans-Bold-4c" transform="translate(432.609375 0)"/>
     <use xlink:href="#DejaVuSans-Bold-52" transform="translate(466.890625 0)"/>
     <use xlink:href="#DejaVuSans-Bold-51" transform="translate(535.59375 0)"/>
     <use xlink:href="#DejaVuSans-Bold-3" transform="translate(606.78125 0)"/>
     <use xlink:href="#DejaVuSans-Bold-52" transform="translate(641.59375 0)"/>
     <use xlink:href="#DejaVuSans-Bold-51" transform="translate(710.296875 0)"/>
     <use xlink:href="#DejaVuSans-Bold-4f" transform="translate(781.484375 0)"/>
     <use xlink:href="#DejaVuSans-Bold-5c" transform="translate(815.765625 0)"/>
    </g>
   </g>
   <g id="text_5">
    <!-- new -->
    <g style="fill: #ea580c" transform="translate(281.840563 126.206563) scale(0.076 -0.076)">
     <defs>
      <path id="DejaVuSans-Bold-5a" d="M 225 3500 
L 1313 3500 
L 1900 1088 
L 2491 3500 
L 3425 3500 
L 4013 1113 
L 4603 3500 
L 5691 3500 
L 4769 0 
L 3547 0 
L 2956 2406 
L 2369 0 
L 1147 0 
L 225 3500 
z
" transform="scale(0.015625)"/>
     </defs>
     <use xlink:href="#DejaVuSans-Bold-51"/>
     <use xlink:href="#DejaVuSans-Bold-48" transform="translate(71.1875 0)"/>
     <use xlink:href="#DejaVuSans-Bold-5a" transform="translate(139.015625 0)"/>
    </g>
    <!-- population: -->
    <g style="fill: #ea580c" transform="translate(266.056906 135.328641) scale(0.076 -0.076)">
     <defs>
      <path id="DejaVuSans-Bold-1d" d="M 716 3500 
L 1844 3500 
L 1844 2291 
L 716 2291 
L 716 3500 
z
M 716 1209 
L 1844 1209 
L 1844 0 
L 716 0 
L 716 1209 
z
" transform="scale(0.015625)"/>
     </defs>
     <use xlink:href="#DejaVuSans-Bold-53"/>
     <use xlink:href="#DejaVuSans-Bold-52" transform="translate(71.578125 0)"/>
     <use xlink:href="#DejaVuSans-Bold-53" transform="translate(140.28125 0)"/>
     <use xlink:href="#DejaVuSans-Bold-58" transform="translate(211.859375 0)"/>
     <use xlink:href="#DejaVuSans-Bold-4f" transform="translate(283.046875 0)"/>
     <use xlink:href="#DejaVuSans-Bold-44" transform="translate(317.328125 0)"/>
     <use xlink:href="#DejaVuSans-Bold-57" transform="translate(384.8125 0)"/>
     <use xlink:href="#DejaVuSans-Bold-4c" transform="translate(432.609375 0)"/>
     <use xlink:href="#DejaVuSans-Bold-52" transform="translate(466.890625 0)"/>
     <use xlink:href="#DejaVuSans-Bold-51" transform="translate(535.59375 0)"/>
     <use xlink:href="#DejaVuSans-Bold-1d" transform="translate(606.78125 0)"/>
    </g>
    <!-- repeat -->
    <g style="fill: #ea580c" transform="translate(276.504531 144.450125) scale(0.076 -0.076)">
     <use xlink:href="#DejaVuSans-Bold-55"/>
     <use xlink:href="#DejaVuSans-Bold-48" transform="translate(49.3125 0)"/>
     <use xlink:href="#DejaVuSans-Bold-53" transform="translate(117.140625 0)"/>
     <use xlink:href="#DejaVuSans-Bold-48" transform="translate(188.71875 0)"/>
     <use xlink:href="#DejaVuSans-Bold-44" transform="translate(256.546875 0)"/>
     <use xlink:href="#DejaVuSans-Bold-57" transform="translate(324.03125 0)"/>
    </g>
   </g>
   <g id="text_6">
    <!-- Trained specialist -->
    <g style="fill: #1e293b" transform="translate(123.14625 16.318125) scale(0.12 -0.12)">
     <defs>
      <path id="DejaVuSans-Bold-37" d="M 31 4666 
L 4331 4666 
L 4331 3756 
L 2784 3756 
L 2784 0 
L 1581 0 
L 1581 3756 
L 31 3756 
L 31 4666 
z
" transform="scale(0.015625)"/>
     </defs>
     <use xlink:href="#DejaVuSans-Bold-37"/>
     <use xlink:href="#DejaVuSans-Bold-55" transform="translate(57.234375 0)"/>
     <use xlink:href="#DejaVuSans-Bold-44" transform="translate(106.546875 0)"/>
     <use xlink:href="#DejaVuSans-Bold-4c" transform="translate(174.03125 0)"/>
     <use xlink:href="#DejaVuSans-Bold-51" transform="translate(208.3125 0)"/>
     <use xlink:href="#DejaVuSans-Bold-48" transform="translate(279.5 0)"/>
     <use xlink:href="#DejaVuSans-Bold-47" transform="translate(347.328125 0)"/>
     <use xlink:href="#DejaVuSans-Bold-3" transform="translate(418.90625 0)"/>
     <use xlink:href="#DejaVuSans-Bold-56" transform="translate(453.71875 0)"/>
     <use xlink:href="#DejaVuSans-Bold-53" transform="translate(513.234375 0)"/>
     <use xlink:href="#DejaVuSans-Bold-48" transform="translate(584.8125 0)"/>
     <use xlink:href="#DejaVuSans-Bold-46" transform="translate(652.640625 0)"/>
     <use xlink:href="#DejaVuSans-Bold-4c" transform="translate(711.921875 0)"/>
     <use xlink:href="#DejaVuSans-Bold-44" transform="translate(746.203125 0)"/>
     <use xlink:href="#DejaVuSans-Bold-4f" transform="translate(813.6875 0)"/>
     <use xlink:href="#DejaVuSans-Bold-4c" transform="translate(847.96875 0)"/>
     <use xlink:href="#DejaVuSans-Bold-56" transform="translate(882.25 0)"/>
     <use xlink:href="#DejaVuSans-Bold-57" transform="translate(941.765625 0)"/>
    </g>
   </g>
  </g>
  <g id="axes_2">
   <g id="patch_9">
    <path d="M 482.0136 70.238925 
L 605.9064 70.238925 
Q 609.4128 70.238925 609.4128 66.732525 
L 609.4128 36.343725 
Q 609.4128 32.837325 605.9064 32.837325 
L 482.0136 32.837325 
Q 478.5072 32.837325 478.5072 36.343725 
L 478.5072 66.732525 
Q 478.5072 70.238925 482.0136 70.238925 
L 482.0136 70.238925 
z
" clip-path="url(#pa18e0213b1)" style="fill: none; opacity: 0.9; stroke: #6b7280; stroke-width: 1.6; stroke-linejoin: miter"/>
   </g>
   <g id="patch_10">
    <path d="M 543.96 71.07258 
Q 543.96 89.525643 543.96 106.301656 
" clip-path="url(#pa18e0213b1)" style="fill: none; stroke: #6b7280; stroke-width: 1.5; stroke-linecap: round"/>
    <path d="M 546.56 101.101656 
L 543.96 106.301656 
L 541.36 101.101656 
z
" clip-path="url(#pa18e0213b1)" style="fill: #6b7280; stroke: #6b7280; stroke-width: 1.5; stroke-linecap: round"/>
   </g>
   <g id="patch_11">
    <path d="M 482.0136 149.132925 
L 605.9064 149.132925 
Q 609.4128 149.132925 609.4128 145.626525 
L 609.4128 115.237725 
Q 609.4128 111.731325 605.9064 111.731325 
L 482.0136 111.731325 
Q 478.5072 111.731325 478.5072 115.237725 
L 478.5072 145.626525 
Q 478.5072 149.132925 482.0136 149.132925 
z
" clip-path="url(#pa18e0213b1)" style="fill: #059669; stroke: #059669; stroke-width: 1.6; stroke-linejoin: miter"/>
   </g>
   <g id="patch_12">
    <path d="M 457.715611 225.442514 
Q 492.8256 190.332525 526.749734 156.408391 
" clip-path="url(#pa18e0213b1)" style="fill: none; stroke: #059669; stroke-width: 1.5; stroke-linecap: round"/>
    <path d="M 521.234301 158.246869 
L 526.749734 156.408391 
L 524.911256 161.923824 
z
" clip-path="url(#pa18e0213b1)" style="fill: #059669; stroke: #059669; stroke-width: 1.5; stroke-linecap: round"/>
   </g>
   <g id="patch_13">
    <path d="M 394.3536 263.090925 
L 518.2464 263.090925 
Q 521.7528 263.090925 521.7528 259.584525 
L 521.7528 229.195725 
Q 521.7528 225.689325 518.2464 225.689325 
L 394.3536 225.689325 
Q 390.8472 225.689325 390.8472 229.195725 
L 390.8472 259.584525 
Q 390.8472 263.090925 394.3536 263.090925 
L 394.3536 263.090925 
z
" clip-path="url(#pa18e0213b1)" style="fill: none; opacity: 0.9; stroke: #059669; stroke-width: 1.6; stroke-linejoin: miter"/>
   </g>
   <g id="patch_14">
    <path d="M 630.204389 225.442514 
Q 595.0944 190.332525 561.170266 156.408391 
" clip-path="url(#pa18e0213b1)" style="fill: none; stroke: #059669; stroke-width: 1.5; stroke-linecap: round"/>
    <path d="M 563.008744 161.923824 
L 561.170266 156.408391 
L 566.685699 158.246869 
z
" clip-path="url(#pa18e0213b1)" style="fill: #059669; stroke: #059669; stroke-width: 1.5; stroke-linecap: round"/>
   </g>
   <g id="patch_15">
    <path d="M 569.6736 263.090925 
L 693.5664 263.090925 
Q 697.0728 263.090925 697.0728 259.584525 
L 697.0728 229.195725 
Q 697.0728 225.689325 693.5664 225.689325 
L 569.6736 225.689325 
Q 566.1672 225.689325 566.1672 229.195725 
L 566.1672 259.584525 
Q 566.1672 263.090925 569.6736 263.090925 
L 569.6736 263.090925 
z
" clip-path="url(#pa18e0213b1)" style="fill: none; opacity: 0.9; stroke: #059669; stroke-width: 1.6; stroke-linejoin: miter"/>
   </g>
   <g id="patch_16">
    <path d="M 543.96 149.96328 
Q 543.96 225.396033 543.96 299.151735 
" clip-path="url(#pa18e0213b1)" style="fill: none; stroke: #059669; stroke-width: 1.5; stroke-linecap: round"/>
    <path d="M 546.56 293.951735 
L 543.96 299.151735 
L 541.36 293.951735 
z
" clip-path="url(#pa18e0213b1)" style="fill: #059669; stroke: #059669; stroke-width: 1.5; stroke-linecap: round"/>
   </g>
   <g id="text_7">
    <!-- Pretrained once, -->
    <g style="fill: #6b7280" transform="translate(504.96232 48.713369) scale(0.083 -0.083)">
     <use xlink:href="#DejaVuSans-Bold-33"/>
     <use xlink:href="#DejaVuSans-Bold-55" transform="translate(73.296875 0)"/>
     <use xlink:href="#DejaVuSans-Bold-48" transform="translate(122.609375 0)"/>
     <use xlink:href="#DejaVuSans-Bold-57" transform="translate(190.4375 0)"/>
     <use xlink:href="#DejaVuSans-Bold-55" transform="translate(238.234375 0)"/>
     <use xlink:href="#DejaVuSans-Bold-44" transform="translate(287.546875 0)"/>
     <use xlink:href="#DejaVuSans-Bold-4c" transform="translate(355.03125 0)"/>
     <use xlink:href="#DejaVuSans-Bold-51" transform="translate(389.3125 0)"/>
     <use xlink:href="#DejaVuSans-Bold-48" transform="translate(460.5 0)"/>
     <use xlink:href="#DejaVuSans-Bold-47" transform="translate(528.328125 0)"/>
     <use xlink:href="#DejaVuSans-Bold-3" transform="translate(599.90625 0)"/>
     <use xlink:href="#DejaVuSans-Bold-52" transform="translate(634.71875 0)"/>
     <use xlink:href="#DejaVuSans-Bold-51" transform="translate(703.421875 0)"/>
     <use xlink:href="#DejaVuSans-Bold-46" transform="translate(774.609375 0)"/>
     <use xlink:href="#DejaVuSans-Bold-48" transform="translate(833.890625 0)"/>
     <use xlink:href="#DejaVuSans-Bold-f" transform="translate(901.71875 0)"/>
    </g>
    <!-- general corpus -->
    <g style="fill: #6b7280" transform="translate(508.938539 58.675639) scale(0.083 -0.083)">
     <use xlink:href="#DejaVuSans-Bold-4a"/>
     <use xlink:href="#DejaVuSans-Bold-48" transform="translate(71.578125 0)"/>
     <use xlink:href="#DejaVuSans-Bold-51" transform="translate(139.40625 0)"/>
     <use xlink:href="#DejaVuSans-Bold-48" transform="translate(210.59375 0)"/>
     <use xlink:href="#DejaVuSans-Bold-55" transform="translate(278.421875 0)"/>
     <use xlink:href="#DejaVuSans-Bold-44" transform="translate(327.734375 0)"/>
     <use xlink:href="#DejaVuSans-Bold-4f" transform="translate(395.21875 0)"/>
     <use xlink:href="#DejaVuSans-Bold-3" transform="translate(429.5 0)"/>
     <use xlink:href="#DejaVuSans-Bold-46" transform="translate(464.3125 0)"/>
     <use xlink:href="#DejaVuSans-Bold-52" transform="translate(523.59375 0)"/>
     <use xlink:href="#DejaVuSans-Bold-55" transform="translate(592.296875 0)"/>
     <use xlink:href="#DejaVuSans-Bold-53" transform="translate(641.609375 0)"/>
     <use xlink:href="#DejaVuSans-Bold-58" transform="translate(713.1875 0)"/>
     <use xlink:href="#DejaVuSans-Bold-56" transform="translate(784.375 0)"/>
    </g>
   </g>
   <g id="text_8">
    <!-- Frozen model -->
    <g style="fill: #ffffff" transform="translate(512.479656 132.588504) scale(0.083 -0.083)">
     <defs>
      <path id="DejaVuSans-Bold-5d" d="M 366 3500 
L 3419 3500 
L 3419 2719 
L 1575 800 
L 3419 800 
L 3419 0 
L 288 0 
L 288 781 
L 2131 2700 
L 366 2700 
L 366 3500 
z
" transform="scale(0.015625)"/>
     </defs>
     <use xlink:href="#DejaVuSans-Bold-29"/>
     <use xlink:href="#DejaVuSans-Bold-55" transform="translate(61.921875 0)"/>
     <use xlink:href="#DejaVuSans-Bold-52" transform="translate(111.234375 0)"/>
     <use xlink:href="#DejaVuSans-Bold-5d" transform="translate(179.9375 0)"/>
     <use xlink:href="#DejaVuSans-Bold-48" transform="translate(238.140625 0)"/>
     <use xlink:href="#DejaVuSans-Bold-51" transform="translate(305.96875 0)"/>
     <use xlink:href="#DejaVuSans-Bold-3" transform="translate(377.15625 0)"/>
     <use xlink:href="#DejaVuSans-Bold-50" transform="translate(411.96875 0)"/>
     <use xlink:href="#DejaVuSans-Bold-52" transform="translate(516.171875 0)"/>
     <use xlink:href="#DejaVuSans-Bold-47" transform="translate(584.875 0)"/>
     <use xlink:href="#DejaVuSans-Bold-48" transform="translate(656.453125 0)"/>
     <use xlink:href="#DejaVuSans-Bold-4f" transform="translate(724.28125 0)"/>
    </g>
   </g>
   <g id="text_9">
    <!-- AusNet customer's -->
    <g style="fill: #059669" transform="translate(412.302867 241.565045) scale(0.083 -0.083)">
     <defs>
      <path id="DejaVuSans-Bold-24" d="M 3419 850 
L 1538 850 
L 1241 0 
L 31 0 
L 1759 4666 
L 3194 4666 
L 4922 0 
L 3713 0 
L 3419 850 
z
M 1838 1716 
L 3116 1716 
L 2478 3572 
L 1838 1716 
z
" transform="scale(0.015625)"/>
      <path id="DejaVuSans-Bold-31" d="M 588 4666 
L 1931 4666 
L 3628 1466 
L 3628 4666 
L 4769 4666 
L 4769 0 
L 3425 0 
L 1728 3200 
L 1728 0 
L 588 0 
L 588 4666 
z
" transform="scale(0.015625)"/>
      <path id="DejaVuSans-Bold-a" d="M 1350 4666 
L 1350 2931 
L 609 2931 
L 609 4666 
L 1350 4666 
z
" transform="scale(0.015625)"/>
     </defs>
     <use xlink:href="#DejaVuSans-Bold-24"/>
     <use xlink:href="#DejaVuSans-Bold-58" transform="translate(77.390625 0)"/>
     <use xlink:href="#DejaVuSans-Bold-56" transform="translate(148.578125 0)"/>
     <use xlink:href="#DejaVuSans-Bold-31" transform="translate(208.09375 0)"/>
     <use xlink:href="#DejaVuSans-Bold-48" transform="translate(291.78125 0)"/>
     <use xlink:href="#DejaVuSans-Bold-57" transform="translate(359.609375 0)"/>
     <use xlink:href="#DejaVuSans-Bold-3" transform="translate(407.40625 0)"/>
     <use xlink:href="#DejaVuSans-Bold-46" transform="translate(442.21875 0)"/>
     <use xlink:href="#DejaVuSans-Bold-58" transform="translate(501.5 0)"/>
     <use xlink:href="#DejaVuSans-Bold-56" transform="translate(572.6875 0)"/>
     <use xlink:href="#DejaVuSans-Bold-57" transform="translate(632.203125 0)"/>
     <use xlink:href="#DejaVuSans-Bold-52" transform="translate(680 0)"/>
     <use xlink:href="#DejaVuSans-Bold-50" transform="translate(748.703125 0)"/>
     <use xlink:href="#DejaVuSans-Bold-48" transform="translate(852.90625 0)"/>
     <use xlink:href="#DejaVuSans-Bold-55" transform="translate(920.734375 0)"/>
     <use xlink:href="#DejaVuSans-Bold-a" transform="translate(970.046875 0)"/>
     <use xlink:href="#DejaVuSans-Bold-56" transform="translate(1000.65625 0)"/>
    </g>
    <!-- own context window -->
    <g style="fill: #059669" transform="translate(408.179453 251.527314) scale(0.083 -0.083)">
     <defs>
      <path id="DejaVuSans-Bold-5b" d="M 1422 1791 
L 159 3500 
L 1344 3500 
L 2059 2463 
L 2784 3500 
L 3969 3500 
L 2706 1797 
L 4031 0 
L 2847 0 
L 2059 1106 
L 1281 0 
L 97 0 
L 1422 1791 
z
" transform="scale(0.015625)"/>
     </defs>
     <use xlink:href="#DejaVuSans-Bold-52"/>
     <use xlink:href="#DejaVuSans-Bold-5a" transform="translate(68.703125 0)"/>
     <use xlink:href="#DejaVuSans-Bold-51" transform="translate(161.09375 0)"/>
     <use xlink:href="#DejaVuSans-Bold-3" transform="translate(232.28125 0)"/>
     <use xlink:href="#DejaVuSans-Bold-46" transform="translate(267.09375 0)"/>
     <use xlink:href="#DejaVuSans-Bold-52" transform="translate(326.375 0)"/>
     <use xlink:href="#DejaVuSans-Bold-51" transform="translate(395.078125 0)"/>
     <use xlink:href="#DejaVuSans-Bold-57" transform="translate(466.265625 0)"/>
     <use xlink:href="#DejaVuSans-Bold-48" transform="translate(514.0625 0)"/>
     <use xlink:href="#DejaVuSans-Bold-5b" transform="translate(581.890625 0)"/>
     <use xlink:href="#DejaVuSans-Bold-57" transform="translate(646.390625 0)"/>
     <use xlink:href="#DejaVuSans-Bold-3" transform="translate(694.1875 0)"/>
     <use xlink:href="#DejaVuSans-Bold-5a" transform="translate(729 0)"/>
     <use xlink:href="#DejaVuSans-Bold-4c" transform="translate(821.390625 0)"/>
     <use xlink:href="#DejaVuSans-Bold-51" transform="translate(855.671875 0)"/>
     <use xlink:href="#DejaVuSans-Bold-47" transform="translate(926.859375 0)"/>
     <use xlink:href="#DejaVuSans-Bold-52" transform="translate(998.4375 0)"/>
     <use xlink:href="#DejaVuSans-Bold-5a" transform="translate(1067.140625 0)"/>
    </g>
   </g>
   <g id="text_10">
    <!-- NREL customer's -->
    <g style="fill: #059669" transform="translate(592.382398 241.565045) scale(0.083 -0.083)">
     <defs>
      <path id="DejaVuSans-Bold-35" d="M 2297 2597 
Q 2675 2597 2839 2737 
Q 3003 2878 3003 3200 
Q 3003 3519 2839 3656 
Q 2675 3794 2297 3794 
L 1791 3794 
L 1791 2597 
L 2297 2597 
z
M 1791 1766 
L 1791 0 
L 588 0 
L 588 4666 
L 2425 4666 
Q 3347 4666 3776 4356 
Q 4206 4047 4206 3378 
Q 4206 2916 3982 2619 
Q 3759 2322 3309 2181 
Q 3556 2125 3751 1926 
Q 3947 1728 4147 1325 
L 4800 0 
L 3519 0 
L 2950 1159 
Q 2778 1509 2601 1637 
Q 2425 1766 2131 1766 
L 1791 1766 
z
" transform="scale(0.015625)"/>
      <path id="DejaVuSans-Bold-28" d="M 588 4666 
L 3834 4666 
L 3834 3756 
L 1791 3756 
L 1791 2888 
L 3713 2888 
L 3713 1978 
L 1791 1978 
L 1791 909 
L 3903 909 
L 3903 0 
L 588 0 
L 588 4666 
z
" transform="scale(0.015625)"/>
     </defs>
     <use xlink:href="#DejaVuSans-Bold-31"/>
     <use xlink:href="#DejaVuSans-Bold-35" transform="translate(83.6875 0)"/>
     <use xlink:href="#DejaVuSans-Bold-28" transform="translate(160.6875 0)"/>
     <use xlink:href="#DejaVuSans-Bold-2f" transform="translate(229 0)"/>
     <use xlink:href="#DejaVuSans-Bold-3" transform="translate(292.71875 0)"/>
     <use xlink:href="#DejaVuSans-Bold-46" transform="translate(327.53125 0)"/>
     <use xlink:href="#DejaVuSans-Bold-58" transform="translate(386.8125 0)"/>
     <use xlink:href="#DejaVuSans-Bold-56" transform="translate(458 0)"/>
     <use xlink:href="#DejaVuSans-Bold-57" transform="translate(517.515625 0)"/>
     <use xlink:href="#DejaVuSans-Bold-52" transform="translate(565.3125 0)"/>
     <use xlink:href="#DejaVuSans-Bold-50" transform="translate(634.015625 0)"/>
     <use xlink:href="#DejaVuSans-Bold-48" transform="translate(738.21875 0)"/>
     <use xlink:href="#DejaVuSans-Bold-55" transform="translate(806.046875 0)"/>
     <use xlink:href="#DejaVuSans-Bold-a" transform="translate(855.359375 0)"/>
     <use xlink:href="#DejaVuSans-Bold-56" transform="translate(885.96875 0)"/>
    </g>
    <!-- own context window -->
    <g style="fill: #059669" transform="translate(583.499453 251.527314) scale(0.083 -0.083)">
     <use xlink:href="#DejaVuSans-Bold-52"/>
     <use xlink:href="#DejaVuSans-Bold-5a" transform="translate(68.703125 0)"/>
     <use xlink:href="#DejaVuSans-Bold-51" transform="translate(161.09375 0)"/>
     <use xlink:href="#DejaVuSans-Bold-3" transform="translate(232.28125 0)"/>
     <use xlink:href="#DejaVuSans-Bold-46" transform="translate(267.09375 0)"/>
     <use xlink:href="#DejaVuSans-Bold-52" transform="translate(326.375 0)"/>
     <use xlink:href="#DejaVuSans-Bold-51" transform="translate(395.078125 0)"/>
     <use xlink:href="#DejaVuSans-Bold-57" transform="translate(466.265625 0)"/>
     <use xlink:href="#DejaVuSans-Bold-48" transform="translate(514.0625 0)"/>
     <use xlink:href="#DejaVuSans-Bold-5b" transform="translate(581.890625 0)"/>
     <use xlink:href="#DejaVuSans-Bold-57" transform="translate(646.390625 0)"/>
     <use xlink:href="#DejaVuSans-Bold-3" transform="translate(694.1875 0)"/>
     <use xlink:href="#DejaVuSans-Bold-5a" transform="translate(729 0)"/>
     <use xlink:href="#DejaVuSans-Bold-4c" transform="translate(821.390625 0)"/>
     <use xlink:href="#DejaVuSans-Bold-51" transform="translate(855.671875 0)"/>
     <use xlink:href="#DejaVuSans-Bold-47" transform="translate(926.859375 0)"/>
     <use xlink:href="#DejaVuSans-Bold-52" transform="translate(998.4375 0)"/>
     <use xlink:href="#DejaVuSans-Bold-5a" transform="translate(1067.140625 0)"/>
    </g>
   </g>
   <g id="text_11">
    <!-- Forecast, either population, -->
    <g style="fill: #059669" transform="translate(474.668938 320.289203) scale(0.088 -0.088)">
     <use xlink:href="#DejaVuSans-Bold-29"/>
     <use xlink:href="#DejaVuSans-Bold-52" transform="translate(64.265625 0)"/>
     <use xlink:href="#DejaVuSans-Bold-55" transform="translate(132.96875 0)"/>
     <use xlink:href="#DejaVuSans-Bold-48" transform="translate(182.28125 0)"/>
     <use xlink:href="#DejaVuSans-Bold-46" transform="translate(250.109375 0)"/>
     <use xlink:href="#DejaVuSans-Bold-44" transform="translate(309.390625 0)"/>
     <use xlink:href="#DejaVuSans-Bold-56" transform="translate(376.875 0)"/>
     <use xlink:href="#DejaVuSans-Bold-57" transform="translate(436.390625 0)"/>
     <use xlink:href="#DejaVuSans-Bold-f" transform="translate(484.1875 0)"/>
     <use xlink:href="#DejaVuSans-Bold-3" transform="translate(522.171875 0)"/>
     <use xlink:href="#DejaVuSans-Bold-48" transform="translate(556.984375 0)"/>
     <use xlink:href="#DejaVuSans-Bold-4c" transform="translate(624.8125 0)"/>
     <use xlink:href="#DejaVuSans-Bold-57" transform="translate(659.09375 0)"/>
     <use xlink:href="#DejaVuSans-Bold-4b" transform="translate(706.890625 0)"/>
     <use xlink:href="#DejaVuSans-Bold-48" transform="translate(778.078125 0)"/>
     <use xlink:href="#DejaVuSans-Bold-55" transform="translate(845.90625 0)"/>
     <use xlink:href="#DejaVuSans-Bold-3" transform="translate(895.21875 0)"/>
     <use xlink:href="#DejaVuSans-Bold-53" transform="translate(930.03125 0)"/>
     <use xlink:href="#DejaVuSans-Bold-52" transform="translate(1001.609375 0)"/>
     <use xlink:href="#DejaVuSans-Bold-53" transform="translate(1070.3125 0)"/>
     <use xlink:href="#DejaVuSans-Bold-58" transform="translate(1141.890625 0)"/>
     <use xlink:href="#DejaVuSans-Bold-4f" transform="translate(1213.078125 0)"/>
     <use xlink:href="#DejaVuSans-Bold-44" transform="translate(1247.359375 0)"/>
     <use xlink:href="#DejaVuSans-Bold-57" transform="translate(1314.84375 0)"/>
     <use xlink:href="#DejaVuSans-Bold-4c" transform="translate(1362.640625 0)"/>
     <use xlink:href="#DejaVuSans-Bold-52" transform="translate(1396.921875 0)"/>
     <use xlink:href="#DejaVuSans-Bold-51" transform="translate(1465.625 0)"/>
     <use xlink:href="#DejaVuSans-Bold-f" transform="translate(1536.8125 0)"/>
    </g>
    <!-- no fitting step -->
    <g style="fill: #059669" transform="translate(508.628 330.851609) scale(0.088 -0.088)">
     <defs>
      <path id="DejaVuSans-Bold-13ab" d="M 3078 4863 
L 4206 4863 
L 4206 3950 
L 3078 3950 
L 3078 4863 
z
M 2847 4863 
L 2847 4128 
L 2228 4128 
Q 1994 4128 1903 4042 
Q 1813 3956 1813 3744 
L 1813 3500 
L 4206 3500 
L 4206 0 
L 3078 0 
L 3078 2700 
L 1813 2700 
L 1813 0 
L 684 0 
L 684 2700 
L 134 2700 
L 134 3500 
L 684 3500 
L 684 3744 
Q 684 4316 1003 4589 
Q 1322 4863 1991 4863 
L 2847 4863 
z
" transform="scale(0.015625)"/>
     </defs>
     <use xlink:href="#DejaVuSans-Bold-51"/>
     <use xlink:href="#DejaVuSans-Bold-52" transform="translate(71.1875 0)"/>
     <use xlink:href="#DejaVuSans-Bold-3" transform="translate(139.890625 0)"/>
     <use xlink:href="#DejaVuSans-Bold-13ab" transform="translate(174.703125 0)"/>
     <use xlink:href="#DejaVuSans-Bold-57" transform="translate(248.828125 0)"/>
     <use xlink:href="#DejaVuSans-Bold-57" transform="translate(296.625 0)"/>
     <use xlink:href="#DejaVuSans-Bold-4c" transform="translate(344.421875 0)"/>
     <use xlink:href="#DejaVuSans-Bold-51" transform="translate(378.703125 0)"/>
     <use xlink:href="#DejaVuSans-Bold-4a" transform="translate(449.890625 0)"/>
     <use xlink:href="#DejaVuSans-Bold-3" transform="translate(521.46875 0)"/>
     <use xlink:href="#DejaVuSans-Bold-56" transform="translate(556.28125 0)"/>
     <use xlink:href="#DejaVuSans-Bold-57" transform="translate(615.796875 0)"/>
     <use xlink:href="#DejaVuSans-Bold-48" transform="translate(663.59375 0)"/>
     <use xlink:href="#DejaVuSans-Bold-53" transform="translate(731.421875 0)"/>
    </g>
   </g>
   <g id="text_12">
    <!-- Zero-shot foundation model -->
    <g style="fill: #1e293b" transform="translate(449.226563 16.318125) scale(0.12 -0.12)">
     <defs>
      <path id="DejaVuSans-Bold-3d" d="M 359 4666 
L 4281 4666 
L 4281 3938 
L 1778 909 
L 4353 909 
L 4353 0 
L 288 0 
L 288 728 
L 2791 3756 
L 359 3756 
L 359 4666 
z
" transform="scale(0.015625)"/>
      <path id="DejaVuSans-Bold-10" d="M 347 2297 
L 2309 2297 
L 2309 1388 
L 347 1388 
L 347 2297 
z
" transform="scale(0.015625)"/>
     </defs>
     <use xlink:href="#DejaVuSans-Bold-3d"/>
     <use xlink:href="#DejaVuSans-Bold-48" transform="translate(72.515625 0)"/>
     <use xlink:href="#DejaVuSans-Bold-55" transform="translate(140.34375 0)"/>
     <use xlink:href="#DejaVuSans-Bold-52" transform="translate(189.65625 0)"/>
     <use xlink:href="#DejaVuSans-Bold-10" transform="translate(258.359375 0)"/>
     <use xlink:href="#DejaVuSans-Bold-56" transform="translate(299.859375 0)"/>
     <use xlink:href="#DejaVuSans-Bold-4b" transform="translate(359.375 0)"/>
     <use xlink:href="#DejaVuSans-Bold-52" transform="translate(430.5625 0)"/>
     <use xlink:href="#DejaVuSans-Bold-57" transform="translate(499.265625 0)"/>
     <use xlink:href="#DejaVuSans-Bold-3" transform="translate(547.0625 0)"/>
     <use xlink:href="#DejaVuSans-Bold-49" transform="translate(581.875 0)"/>
     <use xlink:href="#DejaVuSans-Bold-52" transform="translate(625.375 0)"/>
     <use xlink:href="#DejaVuSans-Bold-58" transform="translate(694.078125 0)"/>
     <use xlink:href="#DejaVuSans-Bold-51" transform="translate(765.265625 0)"/>
     <use xlink:href="#DejaVuSans-Bold-47" transform="translate(836.453125 0)"/>
     <use xlink:href="#DejaVuSans-Bold-44" transform="translate(908.03125 0)"/>
     <use xlink:href="#DejaVuSans-Bold-57" transform="translate(975.515625 0)"/>
     <use xlink:href="#DejaVuSans-Bold-4c" transform="translate(1023.3125 0)"/>
     <use xlink:href="#DejaVuSans-Bold-52" transform="translate(1057.59375 0)"/>
     <use xlink:href="#DejaVuSans-Bold-51" transform="translate(1126.296875 0)"/>
     <use xlink:href="#DejaVuSans-Bold-3" transform="translate(1197.484375 0)"/>
     <use xlink:href="#DejaVuSans-Bold-50" transform="translate(1232.296875 0)"/>
     <use xlink:href="#DejaVuSans-Bold-52" transform="translate(1336.5 0)"/>
     <use xlink:href="#DejaVuSans-Bold-47" transform="translate(1405.203125 0)"/>
     <use xlink:href="#DejaVuSans-Bold-48" transform="translate(1476.78125 0)"/>
     <use xlink:href="#DejaVuSans-Bold-4f" transform="translate(1544.609375 0)"/>
    </g>
   </g>
  </g>
 </g>
 <defs>
  <clipPath id="p76b127ff4b">
   <rect x="7.2" y="22.318125" width="350.64" height="321.42"/>
  </clipPath>
  <clipPath id="pa18e0213b1">
   <rect x="368.64" y="22.318125" width="350.64" height="321.42"/>
  </clipPath>
 </defs>
</svg>
