<?xml version="1.0" encoding="utf-8" standalone="no"?>
<!DOCTYPE svg PUBLIC "-//W3C//DTD SVG 1.1//EN"
  "http://www.w3.org/Graphics/SVG/1.1/DTD/svg11.dtd">
<svg xmlns:xlink="http://www.w3.org/1999/xlink" width="640.268906pt" height="274.59413pt" viewBox="0 0 640.268906 274.59413" xmlns="http://www.w3.org/2000/svg" version="1.1">
 <metadata>
  <rdf:RDF xmlns:dc="http://purl.org/dc/elements/1.1/" xmlns:cc="http://creativecommons.org/ns#" xmlns:rdf="http://www.w3.org/1999/02/22-rdf-syntax-ns#">
   <cc:Work>
    <dc:type rdf:resource="http://purl.org/dc/dcmitype/StillImage"/>
    <dc:date>2026-07-12T06:35:59.819594</dc:date>
    <dc:format>image/svg+xml</dc:format>
    <dc:creator>
     <cc:Agent>
      <dc:title>Matplotlib v3.11.0, https://matplotlib.org/</dc:title>
     </cc:Agent>
    </dc:creator>
   </cc:Work>
  </rdf:RDF>
 </metadata>
 <defs>
  <style type="text/css">*{stroke-linejoin: round; stroke-linecap: butt}</style>
 </defs>
 <g id="figure_1">
  <g id="patch_1">
   <path d="M 0 274.59413 
L 640.268906 274.59413 
L 640.268906 0 
L 0 0 
z
" style="fill: #ffffff"/>
  </g>
  <g id="axes_1">
   <g id="patch_2">
    <path d="M 50.466406 218.216428 
L 303.966406 218.216428 
L 303.966406 22.318125 
L 50.466406 22.318125 
z
" style="fill: #ffffff"/>
   </g>
   <g id="matplotlib.axis_1">
    <g id="xtick_1">
     <g id="line2d_1">
      <defs>
       <path id="m8ed11f5d7c" d="M 0 0 
L 0 3.5 
" style="stroke: #000000; stroke-width: 0.8"/>
      </defs>
      <g>
       <use xlink:href="#m8ed11f5d7c" x="50.466406" y="218.216428" style="stroke: #000000; stroke-width: 0.8"/>
      </g>
     </g>
     <g id="text_1">
      <!-- 0 -->
      <g transform="translate(47.285156 232.814084) scale(0.1 -0.1)">
       <defs>
        <path id="DejaVuSans-13" d="M 2034 4250 
Q 1547 4250 1301 3770 
Q 1056 3291 1056 2328 
Q 1056 1369 1301 889 
Q 1547 409 2034 409 
Q 2525 409 2770 889 
Q 3016 1369 3016 2328 
Q 3016 3291 2770 3770 
Q 2525 4250 2034 4250 
z
M 2034 4750 
Q 2819 4750 3233 4129 
Q 3647 3509 3647 2328 
Q 3647 1150 3233 529 
Q 2819 -91 2034 -91 
Q 1250 -91 836 529 
Q 422 1150 422 2328 
Q 422 3509 836 4129 
Q 1250 4750 2034 4750 
z
" transform="scale(0.015625)"/>
       </defs>
       <use xlink:href="#DejaVuSans-13"/>
      </g>
     </g>
    </g>
    <g id="xtick_2">
     <g id="line2d_2">
      <g>
       <use xlink:href="#m8ed11f5d7c" x="113.841406" y="218.216428" style="stroke: #000000; stroke-width: 0.8"/>
      </g>
     </g>
     <g id="text_2">
      <!-- 6 -->
      <g transform="translate(110.660156 232.814084) scale(0.1 -0.1)">
       <defs>
        <path id="DejaVuSans-19" d="M 2113 2584 
Q 1688 2584 1439 2293 
Q 1191 2003 1191 1497 
Q 1191 994 1439 701 
Q 1688 409 2113 409 
Q 2538 409 2786 701 
Q 3034 994 3034 1497 
Q 3034 2003 2786 2293 
Q 2538 2584 2113 2584 
z
M 3366 4563 
L 3366 3988 
Q 3128 4100 2886 4159 
Q 2644 4219 2406 4219 
Q 1781 4219 1451 3797 
Q 1122 3375 1075 2522 
Q 1259 2794 1537 2939 
Q 1816 3084 2150 3084 
Q 2853 3084 3261 2657 
Q 3669 2231 3669 1497 
Q 3669 778 3244 343 
Q 2819 -91 2113 -91 
Q 1303 -91 875 529 
Q 447 1150 447 2328 
Q 447 3434 972 4092 
Q 1497 4750 2381 4750 
Q 2619 4750 2861 4703 
Q 3103 4656 3366 4563 
z
" transform="scale(0.015625)"/>
       </defs>
       <use xlink:href="#DejaVuSans-19"/>
      </g>
     </g>
    </g>
    <g id="xtick_3">
     <g id="line2d_3">
      <g>
       <use xlink:href="#m8ed11f5d7c" x="177.216406" y="218.216428" style="stroke: #000000; stroke-width: 0.8"/>
      </g>
     </g>
     <g id="text_3">
      <!-- 12 -->
      <g transform="translate(170.853906 232.814084) scale(0.1 -0.1)">
       <defs>
        <path id="DejaVuSans-14" d="M 794 531 
L 1825 531 
L 1825 4091 
L 703 3866 
L 703 4441 
L 1819 4666 
L 2450 4666 
L 2450 531 
L 3481 531 
L 3481 0 
L 794 0 
L 794 531 
z
" transform="scale(0.015625)"/>
        <path id="DejaVuSans-15" d="M 1228 531 
L 3431 531 
L 3431 0 
L 469 0 
L 469 531 
Q 828 903 1448 1529 
Q 2069 2156 2228 2338 
Q 2531 2678 2651 2914 
Q 2772 3150 2772 3378 
Q 2772 3750 2511 3984 
Q 2250 4219 1831 4219 
Q 1534 4219 1204 4116 
Q 875 4013 500 3803 
L 500 4441 
Q 881 4594 1212 4672 
Q 1544 4750 1819 4750 
Q 2544 4750 2975 4387 
Q 3406 4025 3406 3419 
Q 3406 3131 3298 2873 
Q 3191 2616 2906 2266 
Q 2828 2175 2409 1742 
Q 1991 1309 1228 531 
z
" transform="scale(0.015625)"/>
       </defs>
       <use xlink:href="#DejaVuSans-14"/>
       <use xlink:href="#DejaVuSans-15" transform="translate(63.625 0)"/>
      </g>
     </g>
    </g>
    <g id="xtick_4">
     <g id="line2d_4">
      <g>
       <use xlink:href="#m8ed11f5d7c" x="240.591406" y="218.216428" style="stroke: #000000; stroke-width: 0.8"/>
      </g>
     </g>
     <g id="text_4">
      <!-- 18 -->
      <g transform="translate(234.228906 232.814084) scale(0.1 -0.1)">
       <defs>
        <path id="DejaVuSans-1b" d="M 2034 2216 
Q 1584 2216 1326 1975 
Q 1069 1734 1069 1313 
Q 1069 891 1326 650 
Q 1584 409 2034 409 
Q 2484 409 2743 651 
Q 3003 894 3003 1313 
Q 3003 1734 2745 1975 
Q 2488 2216 2034 2216 
z
M 1403 2484 
Q 997 2584 770 2862 
Q 544 3141 544 3541 
Q 544 4100 942 4425 
Q 1341 4750 2034 4750 
Q 2731 4750 3128 4425 
Q 3525 4100 3525 3541 
Q 3525 3141 3298 2862 
Q 3072 2584 2669 2484 
Q 3125 2378 3379 2068 
Q 3634 1759 3634 1313 
Q 3634 634 3220 271 
Q 2806 -91 2034 -91 
Q 1263 -91 848 271 
Q 434 634 434 1313 
Q 434 1759 690 2068 
Q 947 2378 1403 2484 
z
M 1172 3481 
Q 1172 3119 1398 2916 
Q 1625 2713 2034 2713 
Q 2441 2713 2670 2916 
Q 2900 3119 2900 3481 
Q 2900 3844 2670 4047 
Q 2441 4250 2034 4250 
Q 1625 4250 1398 4047 
Q 1172 3844 1172 3481 
z
" transform="scale(0.015625)"/>
       </defs>
       <use xlink:href="#DejaVuSans-14"/>
       <use xlink:href="#DejaVuSans-1b" transform="translate(63.625 0)"/>
      </g>
     </g>
    </g>
    <g id="xtick_5">
     <g id="line2d_5">
      <g>
       <use xlink:href="#m8ed11f5d7c" x="303.966406" y="218.216428" style="stroke: #000000; stroke-width: 0.8"/>
      </g>
     </g>
     <g id="text_5">
      <!-- 24 -->
      <g transform="translate(297.603906 232.814084) scale(0.1 -0.1)">
       <defs>
        <path id="DejaVuSans-17" d="M 2419 4116 
L 825 1625 
L 2419 1625 
L 2419 4116 
z
M 2253 4666 
L 3047 4666 
L 3047 1625 
L 3713 1625 
L 3713 1100 
L 3047 1100 
L 3047 0 
L 2419 0 
L 2419 1100 
L 313 1100 
L 313 1709 
L 2253 4666 
z
" transform="scale(0.015625)"/>
       </defs>
       <use xlink:href="#DejaVuSans-15"/>
       <use xlink:href="#DejaVuSans-17" transform="translate(63.625 0)"/>
      </g>
     </g>
    </g>
    <g id="text_6">
     <!-- Hour of day -->
     <g transform="translate(147.977344 246.814866) scale(0.1 -0.1)">
      <defs>
       <path id="DejaVuSans-2b" d="M 628 4666 
L 1259 4666 
L 1259 2753 
L 3553 2753 
L 3553 4666 
L 4184 4666 
L 4184 0 
L 3553 0 
L 3553 2222 
L 1259 2222 
L 1259 0 
L 628 0 
L 628 4666 
z
" transform="scale(0.015625)"/>
       <path id="DejaVuSans-52" d="M 1959 3097 
Q 1497 3097 1228 2736 
Q 959 2375 959 1747 
Q 959 1119 1226 758 
Q 1494 397 1959 397 
Q 2419 397 2687 759 
Q 2956 1122 2956 1747 
Q 2956 2369 2687 2733 
Q 2419 3097 1959 3097 
z
M 1959 3584 
Q 2709 3584 3137 3096 
Q 3566 2609 3566 1747 
Q 3566 888 3137 398 
Q 2709 -91 1959 -91 
Q 1206 -91 779 398 
Q 353 888 353 1747 
Q 353 2609 779 3096 
Q 1206 3584 1959 3584 
z
" transform="scale(0.015625)"/>
       <path id="DejaVuSans-58" d="M 544 1381 
L 544 3500 
L 1119 3500 
L 1119 1403 
Q 1119 906 1312 657 
Q 1506 409 1894 409 
Q 2359 409 2629 706 
Q 2900 1003 2900 1516 
L 2900 3500 
L 3475 3500 
L 3475 0 
L 2900 0 
L 2900 538 
Q 2691 219 2414 64 
Q 2138 -91 1772 -91 
Q 1169 -91 856 284 
Q 544 659 544 1381 
z
M 1991 3584 
L 1991 3584 
z
" transform="scale(0.015625)"/>
       <path id="DejaVuSans-55" d="M 2631 2963 
Q 2534 3019 2420 3045 
Q 2306 3072 2169 3072 
Q 1681 3072 1420 2755 
Q 1159 2438 1159 1844 
L 1159 0 
L 581 0 
L 581 3500 
L 1159 3500 
L 1159 2956 
Q 1341 3275 1631 3429 
Q 1922 3584 2338 3584 
Q 2397 3584 2469 3576 
Q 2541 3569 2628 3553 
L 2631 2963 
z
" transform="scale(0.015625)"/>
       <path id="DejaVuSans-3" transform="scale(0.015625)"/>
       <path id="DejaVuSans-49" d="M 2375 4863 
L 2375 4384 
L 1825 4384 
Q 1516 4384 1395 4259 
Q 1275 4134 1275 3809 
L 1275 3500 
L 2222 3500 
L 2222 3053 
L 1275 3053 
L 1275 0 
L 697 0 
L 697 3053 
L 147 3053 
L 147 3500 
L 697 3500 
L 697 3744 
Q 697 4328 969 4595 
Q 1241 4863 1831 4863 
L 2375 4863 
z
" transform="scale(0.015625)"/>
       <path id="DejaVuSans-47" d="M 2906 2969 
L 2906 4863 
L 3481 4863 
L 3481 0 
L 2906 0 
L 2906 525 
Q 2725 213 2448 61 
Q 2172 -91 1784 -91 
Q 1150 -91 751 415 
Q 353 922 353 1747 
Q 353 2572 751 3078 
Q 1150 3584 1784 3584 
Q 2172 3584 2448 3432 
Q 2725 3281 2906 2969 
z
M 947 1747 
Q 947 1113 1208 752 
Q 1469 391 1925 391 
Q 2381 391 2643 752 
Q 2906 1113 2906 1747 
Q 2906 2381 2643 2742 
Q 2381 3103 1925 3103 
Q 1469 3103 1208 2742 
Q 947 2381 947 1747 
z
" transform="scale(0.015625)"/>
       <path id="DejaVuSans-44" d="M 2194 1759 
Q 1497 1759 1228 1600 
Q 959 1441 959 1056 
Q 959 750 1161 570 
Q 1363 391 1709 391 
Q 2188 391 2477 730 
Q 2766 1069 2766 1631 
L 2766 1759 
L 2194 1759 
z
M 3341 1997 
L 3341 0 
L 2766 0 
L 2766 531 
Q 2569 213 2275 61 
Q 1981 -91 1556 -91 
Q 1019 -91 701 211 
Q 384 513 384 1019 
Q 384 1609 779 1909 
Q 1175 2209 1959 2209 
L 2766 2209 
L 2766 2266 
Q 2766 2663 2505 2880 
Q 2244 3097 1772 3097 
Q 1472 3097 1187 3025 
Q 903 2953 641 2809 
L 641 3341 
Q 956 3463 1253 3523 
Q 1550 3584 1831 3584 
Q 2591 3584 2966 3190 
Q 3341 2797 3341 1997 
z
" transform="scale(0.015625)"/>
       <path id="DejaVuSans-5c" d="M 2059 -325 
Q 1816 -950 1584 -1140 
Q 1353 -1331 966 -1331 
L 506 -1331 
L 506 -850 
L 844 -850 
Q 1081 -850 1212 -737 
Q 1344 -625 1503 -206 
L 1606 56 
L 191 3500 
L 800 3500 
L 1894 763 
L 2988 3500 
L 3597 3500 
L 2059 -325 
z
" transform="scale(0.015625)"/>
      </defs>
      <use xlink:href="#DejaVuSans-2b"/>
      <use xlink:href="#DejaVuSans-52" transform="translate(75.203125 0)"/>
      <use xlink:href="#DejaVuSans-58" transform="translate(136.390625 0)"/>
      <use xlink:href="#DejaVuSans-55" transform="translate(199.765625 0)"/>
      <use xlink:href="#DejaVuSans-3" transform="translate(240.875 0)"/>
      <use xlink:href="#DejaVuSans-52" transform="translate(272.65625 0)"/>
      <use xlink:href="#DejaVuSans-49" transform="translate(333.84375 0)"/>
      <use xlink:href="#DejaVuSans-3" transform="translate(369.046875 0)"/>
      <use xlink:href="#DejaVuSans-47" transform="translate(400.828125 0)"/>
      <use xlink:href="#DejaVuSans-44" transform="translate(464.3125 0)"/>
      <use xlink:href="#DejaVuSans-5c" transform="translate(525.59375 0)"/>
     </g>
    </g>
   </g>
   <g id="matplotlib.axis_2">
    <g id="ytick_1">
     <g id="line2d_6">
      <defs>
       <path id="m2e0e34ca2c" d="M 0 0 
L -3.5 0 
" style="stroke: #000000; stroke-width: 0.8"/>
      </defs>
      <g>
       <use xlink:href="#m2e0e34ca2c" x="50.466406" y="198.25082" style="stroke: #000000; stroke-width: 0.8"/>
      </g>
     </g>
     <g id="text_7">
      <!-- 0.94 -->
      <g transform="translate(21.200781 202.049648) scale(0.1 -0.1)">
       <defs>
        <path id="DejaVuSans-11" d="M 684 794 
L 1344 794 
L 1344 0 
L 684 0 
L 684 794 
z
" transform="scale(0.015625)"/>
        <path id="DejaVuSans-1c" d="M 703 97 
L 703 672 
Q 941 559 1184 500 
Q 1428 441 1663 441 
Q 2288 441 2617 861 
Q 2947 1281 2994 2138 
Q 2813 1869 2534 1725 
Q 2256 1581 1919 1581 
Q 1219 1581 811 2004 
Q 403 2428 403 3163 
Q 403 3881 828 4315 
Q 1253 4750 1959 4750 
Q 2769 4750 3195 4129 
Q 3622 3509 3622 2328 
Q 3622 1225 3098 567 
Q 2575 -91 1691 -91 
Q 1453 -91 1209 -44 
Q 966 3 703 97 
z
M 1959 2075 
Q 2384 2075 2632 2365 
Q 2881 2656 2881 3163 
Q 2881 3666 2632 3958 
Q 2384 4250 1959 4250 
Q 1534 4250 1286 3958 
Q 1038 3666 1038 3163 
Q 1038 2656 1286 2365 
Q 1534 2075 1959 2075 
z
" transform="scale(0.015625)"/>
       </defs>
       <use xlink:href="#DejaVuSans-13"/>
       <use xlink:href="#DejaVuSans-11" transform="translate(63.625 0)"/>
       <use xlink:href="#DejaVuSans-1c" transform="translate(95.40625 0)"/>
       <use xlink:href="#DejaVuSans-17" transform="translate(159.03125 0)"/>
      </g>
     </g>
    </g>
    <g id="ytick_2">
     <g id="line2d_7">
      <g>
       <use xlink:href="#m2e0e34ca2c" x="50.466406" y="167.497462" style="stroke: #000000; stroke-width: 0.8"/>
      </g>
     </g>
     <g id="text_8">
      <!-- 0.96 -->
      <g transform="translate(21.200781 171.29629) scale(0.1 -0.1)">
       <use xlink:href="#DejaVuSans-13"/>
       <use xlink:href="#DejaVuSans-11" transform="translate(63.625 0)"/>
       <use xlink:href="#DejaVuSans-1c" transform="translate(95.40625 0)"/>
       <use xlink:href="#DejaVuSans-19" transform="translate(159.03125 0)"/>
      </g>
     </g>
    </g>
    <g id="ytick_3">
     <g id="line2d_8">
      <g>
       <use xlink:href="#m2e0e34ca2c" x="50.466406" y="136.744103" style="stroke: #000000; stroke-width: 0.8"/>
      </g>
     </g>
     <g id="text_9">
      <!-- 0.98 -->
      <g transform="translate(21.200781 140.542932) scale(0.1 -0.1)">
       <use xlink:href="#DejaVuSans-13"/>
       <use xlink:href="#DejaVuSans-11" transform="translate(63.625 0)"/>
       <use xlink:href="#DejaVuSans-1c" transform="translate(95.40625 0)"/>
       <use xlink:href="#DejaVuSans-1b" transform="translate(159.03125 0)"/>
      </g>
     </g>
    </g>
    <g id="ytick_4">
     <g id="line2d_9">
      <g>
       <use xlink:href="#m2e0e34ca2c" x="50.466406" y="105.990745" style="stroke: #000000; stroke-width: 0.8"/>
      </g>
     </g>
     <g id="text_10">
      <!-- 1.00 -->
      <g transform="translate(21.200781 109.789573) scale(0.1 -0.1)">
       <use xlink:href="#DejaVuSans-14"/>
       <use xlink:href="#DejaVuSans-11" transform="translate(63.625 0)"/>
       <use xlink:href="#DejaVuSans-13" transform="translate(95.40625 0)"/>
       <use xlink:href="#DejaVuSans-13" transform="translate(159.03125 0)"/>
      </g>
     </g>
    </g>
    <g id="ytick_5">
     <g id="line2d_10">
      <g>
       <use xlink:href="#m2e0e34ca2c" x="50.466406" y="75.237387" style="stroke: #000000; stroke-width: 0.8"/>
      </g>
     </g>
     <g id="text_11">
      <!-- 1.02 -->
      <g transform="translate(21.200781 79.036215) scale(0.1 -0.1)">
       <use xlink:href="#DejaVuSans-14"/>
       <use xlink:href="#DejaVuSans-11" transform="translate(63.625 0)"/>
       <use xlink:href="#DejaVuSans-13" transform="translate(95.40625 0)"/>
       <use xlink:href="#DejaVuSans-15" transform="translate(159.03125 0)"/>
      </g>
     </g>
    </g>
    <g id="ytick_6">
     <g id="line2d_11">
      <g>
       <use xlink:href="#m2e0e34ca2c" x="50.466406" y="44.484029" style="stroke: #000000; stroke-width: 0.8"/>
      </g>
     </g>
     <g id="text_12">
      <!-- 1.04 -->
      <g transform="translate(21.200781 48.282857) scale(0.1 -0.1)">
       <use xlink:href="#DejaVuSans-14"/>
       <use xlink:href="#DejaVuSans-11" transform="translate(63.625 0)"/>
       <use xlink:href="#DejaVuSans-13" transform="translate(95.40625 0)"/>
       <use xlink:href="#DejaVuSans-17" transform="translate(159.03125 0)"/>
      </g>
     </g>
    </g>
    <g id="text_13">
     <!-- Voltage (p.u.) -->
     <g transform="translate(14.798438 154.034464) rotate(-90) scale(0.1 -0.1)">
      <defs>
       <path id="DejaVuSans-39" d="M 1831 0 
L 50 4666 
L 709 4666 
L 2188 738 
L 3669 4666 
L 4325 4666 
L 2547 0 
L 1831 0 
z
" transform="scale(0.015625)"/>
       <path id="DejaVuSans-4f" d="M 603 4863 
L 1178 4863 
L 1178 0 
L 603 0 
L 603 4863 
z
" transform="scale(0.015625)"/>
       <path id="DejaVuSans-57" d="M 1172 4494 
L 1172 3500 
L 2356 3500 
L 2356 3053 
L 1172 3053 
L 1172 1153 
Q 1172 725 1289 603 
Q 1406 481 1766 481 
L 2356 481 
L 2356 0 
L 1766 0 
Q 1100 0 847 248 
Q 594 497 594 1153 
L 594 3053 
L 172 3053 
L 172 3500 
L 594 3500 
L 594 4494 
L 1172 4494 
z
" transform="scale(0.015625)"/>
       <path id="DejaVuSans-4a" d="M 2906 1791 
Q 2906 2416 2648 2759 
Q 2391 3103 1925 3103 
Q 1463 3103 1205 2759 
Q 947 2416 947 1791 
Q 947 1169 1205 825 
Q 1463 481 1925 481 
Q 2391 481 2648 825 
Q 2906 1169 2906 1791 
z
M 3481 434 
Q 3481 -459 3084 -895 
Q 2688 -1331 1869 -1331 
Q 1566 -1331 1297 -1286 
Q 1028 -1241 775 -1147 
L 775 -588 
Q 1028 -725 1275 -790 
Q 1522 -856 1778 -856 
Q 2344 -856 2625 -561 
Q 2906 -266 2906 331 
L 2906 616 
Q 2728 306 2450 153 
Q 2172 0 1784 0 
Q 1141 0 747 490 
Q 353 981 353 1791 
Q 353 2603 747 3093 
Q 1141 3584 1784 3584 
Q 2172 3584 2450 3431 
Q 2728 3278 2906 2969 
L 2906 3500 
L 3481 3500 
L 3481 434 
z
" transform="scale(0.015625)"/>
       <path id="DejaVuSans-48" d="M 3597 1894 
L 3597 1613 
L 953 1613 
Q 991 1019 1311 708 
Q 1631 397 2203 397 
Q 2534 397 2845 478 
Q 3156 559 3463 722 
L 3463 178 
Q 3153 47 2828 -22 
Q 2503 -91 2169 -91 
Q 1331 -91 842 396 
Q 353 884 353 1716 
Q 353 2575 817 3079 
Q 1281 3584 2069 3584 
Q 2775 3584 3186 3129 
Q 3597 2675 3597 1894 
z
M 3022 2063 
Q 3016 2534 2758 2815 
Q 2500 3097 2075 3097 
Q 1594 3097 1305 2825 
Q 1016 2553 972 2059 
L 3022 2063 
z
" transform="scale(0.015625)"/>
       <path id="DejaVuSans-b" d="M 1984 4856 
Q 1566 4138 1362 3434 
Q 1159 2731 1159 2009 
Q 1159 1288 1364 580 
Q 1569 -128 1984 -844 
L 1484 -844 
Q 1016 -109 783 600 
Q 550 1309 550 2009 
Q 550 2706 781 3412 
Q 1013 4119 1484 4856 
L 1984 4856 
z
" transform="scale(0.015625)"/>
       <path id="DejaVuSans-53" d="M 1159 525 
L 1159 -1331 
L 581 -1331 
L 581 3500 
L 1159 3500 
L 1159 2969 
Q 1341 3281 1617 3432 
Q 1894 3584 2278 3584 
Q 2916 3584 3314 3078 
Q 3713 2572 3713 1747 
Q 3713 922 3314 415 
Q 2916 -91 2278 -91 
Q 1894 -91 1617 61 
Q 1341 213 1159 525 
z
M 3116 1747 
Q 3116 2381 2855 2742 
Q 2594 3103 2138 3103 
Q 1681 3103 1420 2742 
Q 1159 2381 1159 1747 
Q 1159 1113 1420 752 
Q 1681 391 2138 391 
Q 2594 391 2855 752 
Q 3116 1113 3116 1747 
z
" transform="scale(0.015625)"/>
       <path id="DejaVuSans-c" d="M 513 4856 
L 1013 4856 
Q 1481 4119 1714 3412 
Q 1947 2706 1947 2009 
Q 1947 1309 1714 600 
Q 1481 -109 1013 -844 
L 513 -844 
Q 928 -128 1133 580 
Q 1338 1288 1338 2009 
Q 1338 2731 1133 3434 
Q 928 4138 513 4856 
z
" transform="scale(0.015625)"/>
      </defs>
      <use xlink:href="#DejaVuSans-39"/>
      <use xlink:href="#DejaVuSans-52" transform="translate(60.640625 0)"/>
      <use xlink:href="#DejaVuSans-4f" transform="translate(121.828125 0)"/>
      <use xlink:href="#DejaVuSans-57" transform="translate(149.609375 0)"/>
      <use xlink:href="#DejaVuSans-44" transform="translate(188.8125 0)"/>
      <use xlink:href="#DejaVuSans-4a" transform="translate(250.09375 0)"/>
      <use xlink:href="#DejaVuSans-48" transform="translate(313.578125 0)"/>
      <use xlink:href="#DejaVuSans-3" transform="translate(375.109375 0)"/>
      <use xlink:href="#DejaVuSans-b" transform="translate(406.890625 0)"/>
      <use xlink:href="#DejaVuSans-53" transform="translate(445.90625 0)"/>
      <use xlink:href="#DejaVuSans-11" transform="translate(509.390625 0)"/>
      <use xlink:href="#DejaVuSans-58" transform="translate(541.171875 0)"/>
      <use xlink:href="#DejaVuSans-11" transform="translate(604.546875 0)"/>
      <use xlink:href="#DejaVuSans-c" transform="translate(636.328125 0)"/>
     </g>
    </g>
   </g>
   <g id="line2d_12">
    <path d="M 50.466406 105.990745 
L 53.134827 101.902814 
L 55.803248 97.960468 
L 58.471669 94.424891 
L 61.14009 91.520269 
L 63.808512 89.418287 
L 66.476933 88.226317 
L 69.145354 87.980118 
L 71.813775 88.64155 
L 74.482196 90.101473 
L 77.150617 92.187617 
L 79.819038 94.676877 
L 82.487459 97.311178 
L 85.15588 99.815802 
L 87.824301 101.918909 
L 90.492722 103.37087 
L 93.161143 103.962097 
L 95.829564 103.538096 
L 98.497985 102.010714 
L 101.166406 99.364788 
L 103.834827 95.65973 
L 106.503248 91.02594 
L 109.171669 85.656288 
L 111.84009 79.793259 
L 114.508512 73.712659 
L 117.176933 67.704995 
L 119.845354 62.055846 
L 122.513775 57.026569 
L 125.182196 52.836686 
L 127.850617 49.649187 
L 130.519038 47.559744 
L 133.187459 46.590607 
L 135.85588 46.689599 
L 138.524301 47.734261 
L 141.192722 49.540887 
L 143.861143 51.877786 
L 146.529564 54.48187 
L 149.197985 57.0774 
L 151.866406 59.395583 
L 154.534827 61.193663 
L 157.203248 62.272168 
L 159.871669 62.489117 
L 162.54009 61.770189 
L 165.208512 60.114154 
L 167.876933 57.593183 
L 170.545354 54.348016 
L 173.213775 50.57832 
L 175.882196 46.528906 
L 178.550617 42.472779 
L 181.219038 38.692172 
L 183.887459 35.458913 
L 186.55588 33.015468 
L 189.224301 31.557999 
L 191.892722 31.222593 
L 194.561143 32.075649 
L 197.229564 34.109063 
L 199.897985 37.240571 
L 202.566406 41.319212 
L 205.234827 46.135545 
L 207.903248 51.435888 
L 210.571669 56.939622 
L 213.24009 62.358329 
L 215.908512 67.415443 
L 218.576933 71.865061 
L 221.245354 75.508586 
L 223.913775 78.208064 
L 226.582196 79.895271 
L 229.250617 80.575946 
L 231.919038 80.328845 
L 234.587459 79.299717 
L 237.25588 77.690594 
L 239.924301 75.745166 
L 242.592722 73.731249 
L 245.261143 71.921567 
L 247.929564 70.574201 
L 250.597985 69.91405 
L 253.266406 70.116606 
L 255.934827 71.295184 
L 258.603248 73.49247 
L 261.271669 76.677016 
L 263.94009 80.744889 
L 266.608512 85.526393 
L 269.276933 90.797379 
L 271.945354 96.294368 
L 274.613775 101.732433 
L 277.282196 106.824598 
L 279.950617 111.301405 
L 282.619038 114.929296 
L 285.287459 117.52652 
L 287.95588 118.975471 
L 290.624301 119.2306 
L 293.292722 118.321336 
L 295.961143 116.349835 
L 298.629564 113.483704 
L 301.297985 109.9442 
L 303.966406 105.990745 
" clip-path="url(#pfdd408b676)" style="fill: none; stroke: #ea580c; stroke-width: 2.2; stroke-linecap: square"/>
   </g>
   <g id="line2d_13">
    <path d="M 50.466406 192.100148 
L 53.134827 186.785837 
L 55.803248 181.660788 
L 58.471669 177.064538 
L 61.14009 173.288529 
L 63.808512 170.555952 
L 66.476933 169.006392 
L 69.145354 168.686332 
L 71.813775 169.546194 
L 74.482196 171.444094 
L 77.150617 174.156082 
L 79.819038 177.39212 
L 82.487459 180.816711 
L 85.15588 184.072723 
L 87.824301 186.806761 
L 90.492722 188.694311 
L 93.161143 189.462906 
L 95.829564 188.911705 
L 98.497985 186.926108 
L 101.166406 183.486404 
L 103.834827 178.669829 
L 106.503248 172.645902 
L 109.171669 165.665353 
L 111.84009 158.043416 
L 114.508512 150.138636 
L 117.176933 142.328673 
L 119.845354 134.98478 
L 122.513775 128.446719 
L 125.182196 122.999872 
L 127.850617 118.856123 
L 130.519038 116.139846 
L 133.187459 114.879969 
L 135.85588 115.008658 
L 138.524301 116.366719 
L 141.192722 118.715332 
L 143.861143 121.753301 
L 146.529564 125.138611 
L 149.197985 128.5128 
L 151.866406 131.526437 
L 154.534827 133.863941 
L 157.203248 135.265998 
L 159.871669 135.548032 
L 162.54009 134.613425 
L 165.208512 132.460579 
L 167.876933 129.183317 
L 170.545354 124.964601 
L 173.213775 120.063995 
L 175.882196 114.799758 
L 178.550617 109.526793 
L 181.219038 104.612003 
L 183.887459 100.408766 
L 186.55588 97.232288 
L 189.224301 95.337578 
L 191.892722 94.901551 
L 194.561143 96.010524 
L 197.229564 98.653961 
L 199.897985 102.724921 
L 202.566406 108.027155 
L 205.234827 114.288387 
L 207.903248 121.178834 
L 210.571669 128.333689 
L 213.24009 135.378007 
L 215.908512 141.952255 
L 218.576933 147.736759 
L 221.245354 152.473342 
L 223.913775 155.982662 
L 226.582196 158.176032 
L 229.250617 159.060909 
L 231.919038 158.739679 
L 234.587459 157.401812 
L 237.25588 155.309952 
L 239.924301 152.780896 
L 242.592722 150.162803 
L 245.261143 147.810217 
L 247.929564 146.058641 
L 250.597985 145.200444 
L 253.266406 145.463768 
L 255.934827 146.995918 
L 258.603248 149.852391 
L 261.271669 153.9923 
L 263.94009 159.280535 
L 266.608512 165.49649 
L 269.276933 172.348772 
L 271.945354 179.494858 
L 274.613775 186.564343 
L 277.282196 193.184157 
L 279.950617 199.004006 
L 282.619038 203.720264 
L 285.287459 207.096655 
L 287.95588 208.980292 
L 290.624301 209.31196 
L 293.292722 208.129916 
L 295.961143 205.566965 
L 298.629564 201.840994 
L 301.297985 197.23964 
L 303.966406 192.100148 
" clip-path="url(#pfdd408b676)" style="fill: none; stroke: #0369a1; stroke-width: 2.2; stroke-linecap: square"/>
   </g>
   <g id="line2d_14">
    <path d="M 50.466406 83.383518 
L 53.134827 88.645274 
L 55.803248 94.342464 
L 58.471669 100.082814 
L 61.14009 105.474637 
L 63.808512 110.165184 
L 66.476933 113.875087 
L 69.145354 116.425444 
L 71.813775 117.754868 
L 74.482196 117.924771 
L 77.150617 117.112377 
L 79.819038 115.592163 
L 82.487459 113.707581 
L 85.15588 111.835896 
L 87.824301 110.349654 
L 90.492722 109.57864 
L 93.161143 109.776127 
L 95.829564 111.092791 
L 98.497985 113.560907 
L 101.166406 117.090411 
L 103.834827 121.477208 
L 106.503248 126.42293 
L 109.171669 131.564135 
L 111.84009 136.50806 
L 114.508512 140.871345 
L 117.176933 144.317864 
L 119.845354 146.591876 
L 122.513775 147.543202 
L 125.182196 147.141893 
L 127.850617 145.480939 
L 130.519038 142.766746 
L 133.187459 139.298328 
L 135.85588 135.437305 
L 138.524301 131.571694 
L 141.192722 128.077122 
L 143.861143 125.279334 
L 146.529564 123.421736 
L 149.197985 122.641231 
L 151.866406 122.954748 
L 154.534827 124.257818 
L 157.203248 126.335336 
L 159.871669 128.883425 
L 162.54009 131.540232 
L 165.208512 133.922558 
L 167.876933 135.664672 
L 170.545354 136.455418 
L 173.213775 136.069912 
L 175.882196 134.392659 
L 178.550617 131.429762 
L 181.219038 127.309026 
L 183.887459 122.267916 
L 186.55588 116.630587 
L 189.224301 110.776277 
L 191.892722 105.102207 
L 194.561143 99.984705 
L 197.229564 95.74243 
L 199.897985 92.605367 
L 202.566406 90.692691 
L 205.234827 90.001706 
L 207.903248 90.408963 
L 210.571669 91.683436 
L 213.24009 93.510448 
L 215.908512 95.523937 
L 218.576933 97.343842 
L 221.245354 98.614871 
L 223.913775 99.042764 
L 226.582196 98.424438 
L 229.250617 96.66898 
L 231.919038 93.807401 
L 234.587459 89.990173 
L 237.25588 85.472777 
L 239.924301 80.590724 
L 242.592722 75.726532 
L 245.261143 71.271956 
L 247.929564 67.589246 
L 250.597985 64.975311 
L 253.266406 63.632352 
L 255.934827 63.647916 
L 258.603248 64.986348 
L 261.271669 67.492501 
L 263.94009 70.907343 
L 266.608512 74.893874 
L 269.276933 79.070792 
L 271.945354 83.050525 
L 274.613775 86.477835 
L 277.282196 89.065133 
L 279.950617 90.620984 
L 282.619038 91.068944 
L 285.287459 90.454854 
L 287.95588 88.941862 
L 290.624301 86.793674 
L 293.292722 84.347707 
L 295.961143 81.980829 
L 298.629564 80.071117 
L 301.297985 78.959452 
L 303.966406 78.914793 
" clip-path="url(#pfdd408b676)" style="fill: none; stroke-dasharray: 8.14,3.52; stroke-dashoffset: 0; stroke: #dc2626; stroke-width: 2.2"/>
   </g>
   <g id="patch_3">
    <path d="M 50.466406 218.216428 
L 50.466406 22.318125 
" style="fill: none; stroke: #000000; stroke-width: 0.8; stroke-linejoin: miter; stroke-linecap: square"/>
   </g>
   <g id="patch_4">
    <path d="M 50.466406 218.216428 
L 303.966406 218.216428 
" style="fill: none; stroke: #000000; stroke-width: 0.8; stroke-linejoin: miter; stroke-linecap: square"/>
   </g>
   <g id="text_14">
    <!-- Wrong pair: A1 and B1 sit closest in level -->
    <g style="fill: #dc2626" transform="translate(72.507031 265.232021) scale(0.09 -0.09)">
     <defs>
      <path id="DejaVuSans-Bold-3a" d="M 191 4666 
L 1344 4666 
L 2150 1275 
L 2950 4666 
L 4109 4666 
L 4909 1275 
L 5716 4666 
L 6859 4666 
L 5759 0 
L 4372 0 
L 3525 3547 
L 2688 0 
L 1300 0 
L 191 4666 
z
" transform="scale(0.015625)"/>
      <path id="DejaVuSans-Bold-55" d="M 3138 2547 
Q 2991 2616 2845 2648 
Q 2700 2681 2553 2681 
Q 2122 2681 1889 2404 
Q 1656 2128 1656 1613 
L 1656 0 
L 538 0 
L 538 3500 
L 1656 3500 
L 1656 2925 
Q 1872 3269 2151 3426 
Q 2431 3584 2822 3584 
Q 2878 3584 2943 3579 
Q 3009 3575 3134 3559 
L 3138 2547 
z
" transform="scale(0.015625)"/>
      <path id="DejaVuSans-Bold-52" d="M 2203 2784 
Q 1831 2784 1636 2517 
Q 1441 2250 1441 1747 
Q 1441 1244 1636 976 
Q 1831 709 2203 709 
Q 2569 709 2762 976 
Q 2956 1244 2956 1747 
Q 2956 2250 2762 2517 
Q 2569 2784 2203 2784 
z
M 2203 3584 
Q 3106 3584 3614 3096 
Q 4122 2609 4122 1747 
Q 4122 884 3614 396 
Q 3106 -91 2203 -91 
Q 1297 -91 786 396 
Q 275 884 275 1747 
Q 275 2609 786 3096 
Q 1297 3584 2203 3584 
z
" transform="scale(0.015625)"/>
      <path id="DejaVuSans-Bold-51" d="M 4056 2131 
L 4056 0 
L 2931 0 
L 2931 347 
L 2931 1631 
Q 2931 2084 2911 2256 
Q 2891 2428 2841 2509 
Q 2775 2619 2662 2680 
Q 2550 2741 2406 2741 
Q 2056 2741 1856 2470 
Q 1656 2200 1656 1722 
L 1656 0 
L 538 0 
L 538 3500 
L 1656 3500 
L 1656 2988 
Q 1909 3294 2193 3439 
Q 2478 3584 2822 3584 
Q 3428 3584 3742 3212 
Q 4056 2841 4056 2131 
z
" transform="scale(0.015625)"/>
      <path id="DejaVuSans-Bold-4a" d="M 2919 594 
Q 2688 288 2409 144 
Q 2131 0 1766 0 
Q 1125 0 706 504 
Q 288 1009 288 1791 
Q 288 2575 706 3076 
Q 1125 3578 1766 3578 
Q 2131 3578 2409 3434 
Q 2688 3291 2919 2981 
L 2919 3500 
L 4044 3500 
L 4044 353 
Q 4044 -491 3511 -936 
Q 2978 -1381 1966 -1381 
Q 1638 -1381 1331 -1331 
Q 1025 -1281 716 -1178 
L 716 -306 
Q 1009 -475 1290 -558 
Q 1572 -641 1856 -641 
Q 2406 -641 2662 -400 
Q 2919 -159 2919 353 
L 2919 594 
z
M 2181 2772 
Q 1834 2772 1640 2515 
Q 1447 2259 1447 1791 
Q 1447 1309 1634 1061 
Q 1822 813 2181 813 
Q 2531 813 2725 1069 
Q 2919 1325 2919 1791 
Q 2919 2259 2725 2515 
Q 2531 2772 2181 2772 
z
" transform="scale(0.015625)"/>
      <path id="DejaVuSans-Bold-3" transform="scale(0.015625)"/>
      <path id="DejaVuSans-Bold-53" d="M 1656 506 
L 1656 -1331 
L 538 -1331 
L 538 3500 
L 1656 3500 
L 1656 2988 
Q 1888 3294 2169 3439 
Q 2450 3584 2816 3584 
Q 3463 3584 3878 3070 
Q 4294 2556 4294 1747 
Q 4294 938 3878 423 
Q 3463 -91 2816 -91 
Q 2450 -91 2169 54 
Q 1888 200 1656 506 
z
M 2400 2772 
Q 2041 2772 1848 2508 
Q 1656 2244 1656 1747 
Q 1656 1250 1848 986 
Q 2041 722 2400 722 
Q 2759 722 2948 984 
Q 3138 1247 3138 1747 
Q 3138 2247 2948 2509 
Q 2759 2772 2400 2772 
z
" transform="scale(0.015625)"/>
      <path id="DejaVuSans-Bold-44" d="M 2106 1575 
Q 1756 1575 1579 1456 
Q 1403 1338 1403 1106 
Q 1403 894 1545 773 
Q 1688 653 1941 653 
Q 2256 653 2472 879 
Q 2688 1106 2688 1447 
L 2688 1575 
L 2106 1575 
z
M 3816 1997 
L 3816 0 
L 2688 0 
L 2688 519 
Q 2463 200 2181 54 
Q 1900 -91 1497 -91 
Q 953 -91 614 226 
Q 275 544 275 1050 
Q 275 1666 698 1953 
Q 1122 2241 2028 2241 
L 2688 2241 
L 2688 2328 
Q 2688 2594 2478 2717 
Q 2269 2841 1825 2841 
Q 1466 2841 1156 2769 
Q 847 2697 581 2553 
L 581 3406 
Q 941 3494 1303 3539 
Q 1666 3584 2028 3584 
Q 2975 3584 3395 3211 
Q 3816 2838 3816 1997 
z
" transform="scale(0.015625)"/>
      <path id="DejaVuSans-Bold-4c" d="M 538 3500 
L 1656 3500 
L 1656 0 
L 538 0 
L 538 3500 
z
M 538 4863 
L 1656 4863 
L 1656 3950 
L 538 3950 
L 538 4863 
z
" transform="scale(0.015625)"/>
      <path id="DejaVuSans-Bold-1d" d="M 716 3500 
L 1844 3500 
L 1844 2291 
L 716 2291 
L 716 3500 
z
M 716 1209 
L 1844 1209 
L 1844 0 
L 716 0 
L 716 1209 
z
" transform="scale(0.015625)"/>
      <path id="DejaVuSans-Bold-24" d="M 3419 850 
L 1538 850 
L 1241 0 
L 31 0 
L 1759 4666 
L 3194 4666 
L 4922 0 
L 3713 0 
L 3419 850 
z
M 1838 1716 
L 3116 1716 
L 2478 3572 
L 1838 1716 
z
" transform="scale(0.015625)"/>
      <path id="DejaVuSans-Bold-14" d="M 750 831 
L 1813 831 
L 1813 3847 
L 722 3622 
L 722 4441 
L 1806 4666 
L 2950 4666 
L 2950 831 
L 4013 831 
L 4013 0 
L 750 0 
L 750 831 
z
" transform="scale(0.015625)"/>
      <path id="DejaVuSans-Bold-47" d="M 2919 2988 
L 2919 4863 
L 4044 4863 
L 4044 0 
L 2919 0 
L 2919 506 
Q 2688 197 2409 53 
Q 2131 -91 1766 -91 
Q 1119 -91 703 423 
Q 288 938 288 1747 
Q 288 2556 703 3070 
Q 1119 3584 1766 3584 
Q 2128 3584 2408 3439 
Q 2688 3294 2919 2988 
z
M 2181 722 
Q 2541 722 2730 984 
Q 2919 1247 2919 1747 
Q 2919 2247 2730 2509 
Q 2541 2772 2181 2772 
Q 1825 2772 1636 2509 
Q 1447 2247 1447 1747 
Q 1447 1247 1636 984 
Q 1825 722 2181 722 
z
" transform="scale(0.015625)"/>
      <path id="DejaVuSans-Bold-25" d="M 2456 2859 
Q 2741 2859 2887 2984 
Q 3034 3109 3034 3353 
Q 3034 3594 2887 3720 
Q 2741 3847 2456 3847 
L 1791 3847 
L 1791 2859 
L 2456 2859 
z
M 2497 819 
Q 2859 819 3042 972 
Q 3225 1125 3225 1434 
Q 3225 1738 3044 1889 
Q 2863 2041 2497 2041 
L 1791 2041 
L 1791 819 
L 2497 819 
z
M 3616 2497 
Q 4003 2384 4215 2081 
Q 4428 1778 4428 1338 
Q 4428 663 3972 331 
Q 3516 0 2584 0 
L 588 0 
L 588 4666 
L 2394 4666 
Q 3366 4666 3802 4372 
Q 4238 4078 4238 3431 
Q 4238 3091 4078 2852 
Q 3919 2613 3616 2497 
z
" transform="scale(0.015625)"/>
      <path id="DejaVuSans-Bold-56" d="M 3272 3391 
L 3272 2541 
Q 2913 2691 2578 2766 
Q 2244 2841 1947 2841 
Q 1628 2841 1473 2761 
Q 1319 2681 1319 2516 
Q 1319 2381 1436 2309 
Q 1553 2238 1856 2203 
L 2053 2175 
Q 2913 2066 3209 1816 
Q 3506 1566 3506 1031 
Q 3506 472 3093 190 
Q 2681 -91 1863 -91 
Q 1516 -91 1145 -36 
Q 775 19 384 128 
L 384 978 
Q 719 816 1070 734 
Q 1422 653 1784 653 
Q 2113 653 2278 743 
Q 2444 834 2444 1013 
Q 2444 1163 2330 1236 
Q 2216 1309 1875 1350 
L 1678 1375 
Q 931 1469 631 1722 
Q 331 1975 331 2491 
Q 331 3047 712 3315 
Q 1094 3584 1881 3584 
Q 2191 3584 2531 3537 
Q 2872 3491 3272 3391 
z
" transform="scale(0.015625)"/>
      <path id="DejaVuSans-Bold-57" d="M 1759 4494 
L 1759 3500 
L 2913 3500 
L 2913 2700 
L 1759 2700 
L 1759 1216 
Q 1759 972 1856 886 
Q 1953 800 2241 800 
L 2816 800 
L 2816 0 
L 1856 0 
Q 1194 0 917 276 
Q 641 553 641 1216 
L 641 2700 
L 84 2700 
L 84 3500 
L 641 3500 
L 641 4494 
L 1759 4494 
z
" transform="scale(0.015625)"/>
      <path id="DejaVuSans-Bold-46" d="M 3366 3391 
L 3366 2478 
Q 3138 2634 2908 2709 
Q 2678 2784 2431 2784 
Q 1963 2784 1702 2511 
Q 1441 2238 1441 1747 
Q 1441 1256 1702 982 
Q 1963 709 2431 709 
Q 2694 709 2930 787 
Q 3166 866 3366 1019 
L 3366 103 
Q 3103 6 2833 -42 
Q 2563 -91 2291 -91 
Q 1344 -91 809 395 
Q 275 881 275 1747 
Q 275 2613 809 3098 
Q 1344 3584 2291 3584 
Q 2566 3584 2833 3536 
Q 3100 3488 3366 3391 
z
" transform="scale(0.015625)"/>
      <path id="DejaVuSans-Bold-4f" d="M 538 4863 
L 1656 4863 
L 1656 0 
L 538 0 
L 538 4863 
z
" transform="scale(0.015625)"/>
      <path id="DejaVuSans-Bold-48" d="M 4031 1759 
L 4031 1441 
L 1416 1441 
Q 1456 1047 1700 850 
Q 1944 653 2381 653 
Q 2734 653 3104 758 
Q 3475 863 3866 1075 
L 3866 213 
Q 3469 63 3072 -14 
Q 2675 -91 2278 -91 
Q 1328 -91 801 392 
Q 275 875 275 1747 
Q 275 2603 792 3093 
Q 1309 3584 2216 3584 
Q 3041 3584 3536 3087 
Q 4031 2591 4031 1759 
z
M 2881 2131 
Q 2881 2450 2695 2645 
Q 2509 2841 2209 2841 
Q 1884 2841 1681 2658 
Q 1478 2475 1428 2131 
L 2881 2131 
z
" transform="scale(0.015625)"/>
      <path id="DejaVuSans-Bold-59" d="M 97 3500 
L 1216 3500 
L 2088 1081 
L 2956 3500 
L 4078 3500 
L 2700 0 
L 1472 0 
L 97 3500 
z
" transform="scale(0.015625)"/>
     </defs>
     <use xlink:href="#DejaVuSans-Bold-3a"/>
     <use xlink:href="#DejaVuSans-Bold-55" transform="translate(108.546875 0)"/>
     <use xlink:href="#DejaVuSans-Bold-52" transform="translate(157.859375 0)"/>
     <use xlink:href="#DejaVuSans-Bold-51" transform="translate(226.5625 0)"/>
     <use xlink:href="#DejaVuSans-Bold-4a" transform="translate(297.75 0)"/>
     <use xlink:href="#DejaVuSans-Bold-3" transform="translate(369.328125 0)"/>
     <use xlink:href="#DejaVuSans-Bold-53" transform="translate(404.140625 0)"/>
     <use xlink:href="#DejaVuSans-Bold-44" transform="translate(475.71875 0)"/>
     <use xlink:href="#DejaVuSans-Bold-4c" transform="translate(543.203125 0)"/>
     <use xlink:href="#DejaVuSans-Bold-55" transform="translate(577.484375 0)"/>
     <use xlink:href="#DejaVuSans-Bold-1d" transform="translate(626.796875 0)"/>
     <use xlink:href="#DejaVuSans-Bold-3" transform="translate(666.78125 0)"/>
     <use xlink:href="#DejaVuSans-Bold-24" transform="translate(701.59375 0)"/>
     <use xlink:href="#DejaVuSans-Bold-14" transform="translate(778.984375 0)"/>
     <use xlink:href="#DejaVuSans-Bold-3" transform="translate(848.5625 0)"/>
     <use xlink:href="#DejaVuSans-Bold-44" transform="translate(883.375 0)"/>
     <use xlink:href="#DejaVuSans-Bold-51" transform="translate(950.859375 0)"/>
     <use xlink:href="#DejaVuSans-Bold-47" transform="translate(1022.046875 0)"/>
     <use xlink:href="#DejaVuSans-Bold-3" transform="translate(1093.625 0)"/>
     <use xlink:href="#DejaVuSans-Bold-25" transform="translate(1128.4375 0)"/>
     <use xlink:href="#DejaVuSans-Bold-14" transform="translate(1204.65625 0)"/>
     <use xlink:href="#DejaVuSans-Bold-3" transform="translate(1274.234375 0)"/>
     <use xlink:href="#DejaVuSans-Bold-56" transform="translate(1309.046875 0)"/>
     <use xlink:href="#DejaVuSans-Bold-4c" transform="translate(1368.5625 0)"/>
     <use xlink:href="#DejaVuSans-Bold-57" transform="translate(1402.84375 0)"/>
     <use xlink:href="#DejaVuSans-Bold-3" transform="translate(1450.640625 0)"/>
     <use xlink:href="#DejaVuSans-Bold-46" transform="translate(1485.453125 0)"/>
     <use xlink:href="#DejaVuSans-Bold-4f" transform="translate(1544.734375 0)"/>
     <use xlink:href="#DejaVuSans-Bold-52" transform="translate(1579.015625 0)"/>
     <use xlink:href="#DejaVuSans-Bold-56" transform="translate(1647.71875 0)"/>
     <use xlink:href="#DejaVuSans-Bold-48" transform="translate(1707.234375 0)"/>
     <use xlink:href="#DejaVuSans-Bold-56" transform="translate(1775.0625 0)"/>
     <use xlink:href="#DejaVuSans-Bold-57" transform="translate(1834.578125 0)"/>
     <use xlink:href="#DejaVuSans-Bold-3" transform="translate(1882.375 0)"/>
     <use xlink:href="#DejaVuSans-Bold-4c" transform="translate(1917.1875 0)"/>
     <use xlink:href="#DejaVuSans-Bold-51" transform="translate(1951.46875 0)"/>
     <use xlink:href="#DejaVuSans-Bold-3" transform="translate(2022.65625 0)"/>
     <use xlink:href="#DejaVuSans-Bold-4f" transform="translate(2057.46875 0)"/>
     <use xlink:href="#DejaVuSans-Bold-48" transform="translate(2091.75 0)"/>
     <use xlink:href="#DejaVuSans-Bold-59" transform="translate(2159.578125 0)"/>
     <use xlink:href="#DejaVuSans-Bold-48" transform="translate(2224.765625 0)"/>
     <use xlink:href="#DejaVuSans-Bold-4f" transform="translate(2292.59375 0)"/>
    </g>
   </g>
   <g id="text_15">
    <!-- Cluster on raw magnitude -->
    <g style="fill: #1e293b" transform="translate(89.379219 16.318125) scale(0.12 -0.12)">
     <defs>
      <path id="DejaVuSans-Bold-26" d="M 4288 256 
Q 3956 84 3597 -3 
Q 3238 -91 2847 -91 
Q 1681 -91 1000 561 
Q 319 1213 319 2328 
Q 319 3447 1000 4098 
Q 1681 4750 2847 4750 
Q 3238 4750 3597 4662 
Q 3956 4575 4288 4403 
L 4288 3438 
Q 3953 3666 3628 3772 
Q 3303 3878 2944 3878 
Q 2300 3878 1931 3465 
Q 1563 3053 1563 2328 
Q 1563 1606 1931 1193 
Q 2300 781 2944 781 
Q 3303 781 3628 887 
Q 3953 994 4288 1222 
L 4288 256 
z
" transform="scale(0.015625)"/>
      <path id="DejaVuSans-Bold-58" d="M 500 1363 
L 500 3500 
L 1625 3500 
L 1625 3150 
Q 1625 2866 1622 2436 
Q 1619 2006 1619 1863 
Q 1619 1441 1641 1255 
Q 1663 1069 1716 984 
Q 1784 875 1895 815 
Q 2006 756 2150 756 
Q 2500 756 2700 1025 
Q 2900 1294 2900 1772 
L 2900 3500 
L 4019 3500 
L 4019 0 
L 2900 0 
L 2900 506 
Q 2647 200 2364 54 
Q 2081 -91 1741 -91 
Q 1134 -91 817 281 
Q 500 653 500 1363 
z
" transform="scale(0.015625)"/>
      <path id="DejaVuSans-Bold-5a" d="M 225 3500 
L 1313 3500 
L 1900 1088 
L 2491 3500 
L 3425 3500 
L 4013 1113 
L 4603 3500 
L 5691 3500 
L 4769 0 
L 3547 0 
L 2956 2406 
L 2369 0 
L 1147 0 
L 225 3500 
z
" transform="scale(0.015625)"/>
      <path id="DejaVuSans-Bold-50" d="M 3781 2919 
Q 3994 3244 4286 3414 
Q 4578 3584 4928 3584 
Q 5531 3584 5847 3212 
Q 6163 2841 6163 2131 
L 6163 0 
L 5038 0 
L 5038 1825 
Q 5041 1866 5042 1909 
Q 5044 1953 5044 2034 
Q 5044 2406 4934 2573 
Q 4825 2741 4581 2741 
Q 4263 2741 4089 2478 
Q 3916 2216 3909 1719 
L 3909 0 
L 2784 0 
L 2784 1825 
Q 2784 2406 2684 2573 
Q 2584 2741 2328 2741 
Q 2006 2741 1831 2477 
Q 1656 2213 1656 1722 
L 1656 0 
L 531 0 
L 531 3500 
L 1656 3500 
L 1656 2988 
Q 1863 3284 2130 3434 
Q 2397 3584 2719 3584 
Q 3081 3584 3359 3409 
Q 3638 3234 3781 2919 
z
" transform="scale(0.015625)"/>
     </defs>
     <use xlink:href="#DejaVuSans-Bold-26"/>
     <use xlink:href="#DejaVuSans-Bold-4f" transform="translate(73.390625 0)"/>
     <use xlink:href="#DejaVuSans-Bold-58" transform="translate(107.671875 0)"/>
     <use xlink:href="#DejaVuSans-Bold-56" transform="translate(178.859375 0)"/>
     <use xlink:href="#DejaVuSans-Bold-57" transform="translate(238.375 0)"/>
     <use xlink:href="#DejaVuSans-Bold-48" transform="translate(286.171875 0)"/>
     <use xlink:href="#DejaVuSans-Bold-55" transform="translate(354 0)"/>
     <use xlink:href="#DejaVuSans-Bold-3" transform="translate(403.3125 0)"/>
     <use xlink:href="#DejaVuSans-Bold-52" transform="translate(438.125 0)"/>
     <use xlink:href="#DejaVuSans-Bold-51" transform="translate(506.828125 0)"/>
     <use xlink:href="#DejaVuSans-Bold-3" transform="translate(578.015625 0)"/>
     <use xlink:href="#DejaVuSans-Bold-55" transform="translate(612.828125 0)"/>
     <use xlink:href="#DejaVuSans-Bold-44" transform="translate(662.140625 0)"/>
     <use xlink:href="#DejaVuSans-Bold-5a" transform="translate(729.625 0)"/>
     <use xlink:href="#DejaVuSans-Bold-3" transform="translate(822.015625 0)"/>
     <use xlink:href="#DejaVuSans-Bold-50" transform="translate(856.828125 0)"/>
     <use xlink:href="#DejaVuSans-Bold-44" transform="translate(961.03125 0)"/>
     <use xlink:href="#DejaVuSans-Bold-4a" transform="translate(1028.515625 0)"/>
     <use xlink:href="#DejaVuSans-Bold-51" transform="translate(1100.09375 0)"/>
     <use xlink:href="#DejaVuSans-Bold-4c" transform="translate(1171.28125 0)"/>
     <use xlink:href="#DejaVuSans-Bold-57" transform="translate(1205.5625 0)"/>
     <use xlink:href="#DejaVuSans-Bold-58" transform="translate(1253.359375 0)"/>
     <use xlink:href="#DejaVuSans-Bold-47" transform="translate(1324.546875 0)"/>
     <use xlink:href="#DejaVuSans-Bold-48" transform="translate(1396.125 0)"/>
    </g>
   </g>
   <g id="legend_1">
    <g id="line2d_15">
     <path d="M 57.666406 32.796875 
L 65.666406 32.796875 
L 73.666406 32.796875 
" style="fill: none; stroke: #ea580c; stroke-width: 2.2; stroke-linecap: square"/>
    </g>
    <g id="text_16">
     <!-- Customer A1 (phase A, near) -->
     <g transform="translate(80.066406 35.596875) scale(0.08 -0.08)">
      <defs>
       <path id="DejaVuSans-26" d="M 4122 4306 
L 4122 3641 
Q 3803 3938 3442 4084 
Q 3081 4231 2675 4231 
Q 1875 4231 1450 3742 
Q 1025 3253 1025 2328 
Q 1025 1406 1450 917 
Q 1875 428 2675 428 
Q 3081 428 3442 575 
Q 3803 722 4122 1019 
L 4122 359 
Q 3791 134 3420 21 
Q 3050 -91 2638 -91 
Q 1578 -91 968 557 
Q 359 1206 359 2328 
Q 359 3453 968 4101 
Q 1578 4750 2638 4750 
Q 3056 4750 3426 4639 
Q 3797 4528 4122 4306 
z
" transform="scale(0.015625)"/>
       <path id="DejaVuSans-56" d="M 2834 3397 
L 2834 2853 
Q 2591 2978 2328 3040 
Q 2066 3103 1784 3103 
Q 1356 3103 1142 2972 
Q 928 2841 928 2578 
Q 928 2378 1081 2264 
Q 1234 2150 1697 2047 
L 1894 2003 
Q 2506 1872 2764 1633 
Q 3022 1394 3022 966 
Q 3022 478 2636 193 
Q 2250 -91 1575 -91 
Q 1294 -91 989 -36 
Q 684 19 347 128 
L 347 722 
Q 666 556 975 473 
Q 1284 391 1588 391 
Q 1994 391 2212 530 
Q 2431 669 2431 922 
Q 2431 1156 2273 1281 
Q 2116 1406 1581 1522 
L 1381 1569 
Q 847 1681 609 1914 
Q 372 2147 372 2553 
Q 372 3047 722 3315 
Q 1072 3584 1716 3584 
Q 2034 3584 2315 3537 
Q 2597 3491 2834 3397 
z
" transform="scale(0.015625)"/>
       <path id="DejaVuSans-50" d="M 3328 2828 
Q 3544 3216 3844 3400 
Q 4144 3584 4550 3584 
Q 5097 3584 5394 3201 
Q 5691 2819 5691 2113 
L 5691 0 
L 5113 0 
L 5113 2094 
Q 5113 2597 4934 2840 
Q 4756 3084 4391 3084 
Q 3944 3084 3684 2787 
Q 3425 2491 3425 1978 
L 3425 0 
L 2847 0 
L 2847 2094 
Q 2847 2600 2669 2842 
Q 2491 3084 2119 3084 
Q 1678 3084 1418 2786 
Q 1159 2488 1159 1978 
L 1159 0 
L 581 0 
L 581 3500 
L 1159 3500 
L 1159 2956 
Q 1356 3278 1631 3431 
Q 1906 3584 2284 3584 
Q 2666 3584 2933 3390 
Q 3200 3197 3328 2828 
z
" transform="scale(0.015625)"/>
       <path id="DejaVuSans-24" d="M 2188 4044 
L 1331 1722 
L 3047 1722 
L 2188 4044 
z
M 1831 4666 
L 2547 4666 
L 4325 0 
L 3669 0 
L 3244 1197 
L 1141 1197 
L 716 0 
L 50 0 
L 1831 4666 
z
" transform="scale(0.015625)"/>
       <path id="DejaVuSans-4b" d="M 3513 2113 
L 3513 0 
L 2938 0 
L 2938 2094 
Q 2938 2591 2744 2837 
Q 2550 3084 2163 3084 
Q 1697 3084 1428 2787 
Q 1159 2491 1159 1978 
L 1159 0 
L 581 0 
L 581 4863 
L 1159 4863 
L 1159 2956 
Q 1366 3272 1645 3428 
Q 1925 3584 2291 3584 
Q 2894 3584 3203 3211 
Q 3513 2838 3513 2113 
z
" transform="scale(0.015625)"/>
       <path id="DejaVuSans-f" d="M 750 794 
L 1409 794 
L 1409 256 
L 897 -744 
L 494 -744 
L 750 256 
L 750 794 
z
" transform="scale(0.015625)"/>
       <path id="DejaVuSans-51" d="M 3513 2113 
L 3513 0 
L 2938 0 
L 2938 2094 
Q 2938 2591 2744 2837 
Q 2550 3084 2163 3084 
Q 1697 3084 1428 2787 
Q 1159 2491 1159 1978 
L 1159 0 
L 581 0 
L 581 3500 
L 1159 3500 
L 1159 2956 
Q 1366 3272 1645 3428 
Q 1925 3584 2291 3584 
Q 2894 3584 3203 3211 
Q 3513 2838 3513 2113 
z
" transform="scale(0.015625)"/>
      </defs>
      <use xlink:href="#DejaVuSans-26"/>
      <use xlink:href="#DejaVuSans-58" transform="translate(69.828125 0)"/>
      <use xlink:href="#DejaVuSans-56" transform="translate(133.203125 0)"/>
      <use xlink:href="#DejaVuSans-57" transform="translate(185.296875 0)"/>
      <use xlink:href="#DejaVuSans-52" transform="translate(224.5 0)"/>
      <use xlink:href="#DejaVuSans-50" transform="translate(285.6875 0)"/>
      <use xlink:href="#DejaVuSans-48" transform="translate(383.09375 0)"/>
      <use xlink:href="#DejaVuSans-55" transform="translate(444.625 0)"/>
      <use xlink:href="#DejaVuSans-3" transform="translate(485.734375 0)"/>
      <use xlink:href="#DejaVuSans-24" transform="translate(517.515625 0)"/>
      <use xlink:href="#DejaVuSans-14" transform="translate(585.921875 0)"/>
      <use xlink:href="#DejaVuSans-3" transform="translate(649.546875 0)"/>
      <use xlink:href="#DejaVuSans-b" transform="translate(681.328125 0)"/>
      <use xlink:href="#DejaVuSans-53" transform="translate(720.34375 0)"/>
      <use xlink:href="#DejaVuSans-4b" transform="translate(783.828125 0)"/>
      <use xlink:href="#DejaVuSans-44" transform="translate(847.203125 0)"/>
      <use xlink:href="#DejaVuSans-56" transform="translate(908.484375 0)"/>
      <use xlink:href="#DejaVuSans-48" transform="translate(960.578125 0)"/>
      <use xlink:href="#DejaVuSans-3" transform="translate(1022.109375 0)"/>
      <use xlink:href="#DejaVuSans-24" transform="translate(1053.890625 0)"/>
      <use xlink:href="#DejaVuSans-f" transform="translate(1122.296875 0)"/>
      <use xlink:href="#DejaVuSans-3" transform="translate(1154.078125 0)"/>
      <use xlink:href="#DejaVuSans-51" transform="translate(1185.859375 0)"/>
      <use xlink:href="#DejaVuSans-48" transform="translate(1249.234375 0)"/>
      <use xlink:href="#DejaVuSans-44" transform="translate(1310.765625 0)"/>
      <use xlink:href="#DejaVuSans-55" transform="translate(1372.046875 0)"/>
      <use xlink:href="#DejaVuSans-c" transform="translate(1413.15625 0)"/>
     </g>
    </g>
    <g id="line2d_16">
     <path d="M 57.666406 44.7975 
L 65.666406 44.7975 
L 73.666406 44.7975 
" style="fill: none; stroke: #0369a1; stroke-width: 2.2; stroke-linecap: square"/>
    </g>
    <g id="text_17">
     <!-- Customer A2 (phase A, far) -->
     <g transform="translate(80.066406 47.5975) scale(0.08 -0.08)">
      <use xlink:href="#DejaVuSans-26"/>
      <use xlink:href="#DejaVuSans-58" transform="translate(69.828125 0)"/>
      <use xlink:href="#DejaVuSans-56" transform="translate(133.203125 0)"/>
      <use xlink:href="#DejaVuSans-57" transform="translate(185.296875 0)"/>
      <use xlink:href="#DejaVuSans-52" transform="translate(224.5 0)"/>
      <use xlink:href="#DejaVuSans-50" transform="translate(285.6875 0)"/>
      <use xlink:href="#DejaVuSans-48" transform="translate(383.09375 0)"/>
      <use xlink:href="#DejaVuSans-55" transform="translate(444.625 0)"/>
      <use xlink:href="#DejaVuSans-3" transform="translate(485.734375 0)"/>
      <use xlink:href="#DejaVuSans-24" transform="translate(517.515625 0)"/>
      <use xlink:href="#DejaVuSans-15" transform="translate(585.921875 0)"/>
      <use xlink:href="#DejaVuSans-3" transform="translate(649.546875 0)"/>
      <use xlink:href="#DejaVuSans-b" transform="translate(681.328125 0)"/>
      <use xlink:href="#DejaVuSans-53" transform="translate(720.34375 0)"/>
      <use xlink:href="#DejaVuSans-4b" transform="translate(783.828125 0)"/>
      <use xlink:href="#DejaVuSans-44" transform="translate(847.203125 0)"/>
      <use xlink:href="#DejaVuSans-56" transform="translate(908.484375 0)"/>
      <use xlink:href="#DejaVuSans-48" transform="translate(960.578125 0)"/>
      <use xlink:href="#DejaVuSans-3" transform="translate(1022.109375 0)"/>
      <use xlink:href="#DejaVuSans-24" transform="translate(1053.890625 0)"/>
      <use xlink:href="#DejaVuSans-f" transform="translate(1122.296875 0)"/>
      <use xlink:href="#DejaVuSans-3" transform="translate(1154.078125 0)"/>
      <use xlink:href="#DejaVuSans-49" transform="translate(1185.859375 0)"/>
      <use xlink:href="#DejaVuSans-44" transform="translate(1221.0625 0)"/>
      <use xlink:href="#DejaVuSans-55" transform="translate(1282.34375 0)"/>
      <use xlink:href="#DejaVuSans-c" transform="translate(1323.453125 0)"/>
     </g>
    </g>
    <g id="line2d_17">
     <path d="M 57.666406 56.798125 
L 65.666406 56.798125 
L 73.666406 56.798125 
" style="fill: none; stroke-dasharray: 8.14,3.52; stroke-dashoffset: 0; stroke: #dc2626; stroke-width: 2.2"/>
    </g>
    <g id="text_18">
     <!-- Customer B1 (phase B) -->
     <g transform="translate(80.066406 59.598125) scale(0.08 -0.08)">
      <defs>
       <path id="DejaVuSans-25" d="M 1259 2228 
L 1259 519 
L 2272 519 
Q 2781 519 3026 730 
Q 3272 941 3272 1375 
Q 3272 1813 3026 2020 
Q 2781 2228 2272 2228 
L 1259 2228 
z
M 1259 4147 
L 1259 2741 
L 2194 2741 
Q 2656 2741 2882 2914 
Q 3109 3088 3109 3444 
Q 3109 3797 2882 3972 
Q 2656 4147 2194 4147 
L 1259 4147 
z
M 628 4666 
L 2241 4666 
Q 2963 4666 3353 4366 
Q 3744 4066 3744 3513 
Q 3744 3084 3544 2831 
Q 3344 2578 2956 2516 
Q 3422 2416 3680 2098 
Q 3938 1781 3938 1306 
Q 3938 681 3513 340 
Q 3088 0 2303 0 
L 628 0 
L 628 4666 
z
" transform="scale(0.015625)"/>
      </defs>
      <use xlink:href="#DejaVuSans-26"/>
      <use xlink:href="#DejaVuSans-58" transform="translate(69.828125 0)"/>
      <use xlink:href="#DejaVuSans-56" transform="translate(133.203125 0)"/>
      <use xlink:href="#DejaVuSans-57" transform="translate(185.296875 0)"/>
      <use xlink:href="#DejaVuSans-52" transform="translate(224.5 0)"/>
      <use xlink:href="#DejaVuSans-50" transform="translate(285.6875 0)"/>
      <use xlink:href="#DejaVuSans-48" transform="translate(383.09375 0)"/>
      <use xlink:href="#DejaVuSans-55" transform="translate(444.625 0)"/>
      <use xlink:href="#DejaVuSans-3" transform="translate(485.734375 0)"/>
      <use xlink:href="#DejaVuSans-25" transform="translate(517.515625 0)"/>
      <use xlink:href="#DejaVuSans-14" transform="translate(586.125 0)"/>
      <use xlink:href="#DejaVuSans-3" transform="translate(649.75 0)"/>
      <use xlink:href="#DejaVuSans-b" transform="translate(681.53125 0)"/>
      <use xlink:href="#DejaVuSans-53" transform="translate(720.546875 0)"/>
      <use xlink:href="#DejaVuSans-4b" transform="translate(784.03125 0)"/>
      <use xlink:href="#DejaVuSans-44" transform="translate(847.40625 0)"/>
      <use xlink:href="#DejaVuSans-56" transform="translate(908.6875 0)"/>
      <use xlink:href="#DejaVuSans-48" transform="translate(960.78125 0)"/>
      <use xlink:href="#DejaVuSans-3" transform="translate(1022.3125 0)"/>
      <use xlink:href="#DejaVuSans-25" transform="translate(1054.09375 0)"/>
      <use xlink:href="#DejaVuSans-c" transform="translate(1122.703125 0)"/>
     </g>
    </g>
   </g>
  </g>
  <g id="axes_2">
   <g id="patch_5">
    <path d="M 373.206406 218.216428 
L 626.706406 218.216428 
L 626.706406 22.318125 
L 373.206406 22.318125 
z
" style="fill: #ffffff"/>
   </g>
   <g id="matplotlib.axis_3">
    <g id="xtick_6">
     <g id="line2d_18">
      <g>
       <use xlink:href="#m8ed11f5d7c" x="373.206406" y="218.216428" style="stroke: #000000; stroke-width: 0.8"/>
      </g>
     </g>
     <g id="text_19">
      <!-- 0 -->
      <g transform="translate(370.025156 232.814084) scale(0.1 -0.1)">
       <use xlink:href="#DejaVuSans-13"/>
      </g>
     </g>
    </g>
    <g id="xtick_7">
     <g id="line2d_19">
      <g>
       <use xlink:href="#m8ed11f5d7c" x="436.581406" y="218.216428" style="stroke: #000000; stroke-width: 0.8"/>
      </g>
     </g>
     <g id="text_20">
      <!-- 6 -->
      <g transform="translate(433.400156 232.814084) scale(0.1 -0.1)">
       <use xlink:href="#DejaVuSans-19"/>
      </g>
     </g>
    </g>
    <g id="xtick_8">
     <g id="line2d_20">
      <g>
       <use xlink:href="#m8ed11f5d7c" x="499.956406" y="218.216428" style="stroke: #000000; stroke-width: 0.8"/>
      </g>
     </g>
     <g id="text_21">
      <!-- 12 -->
      <g transform="translate(493.593906 232.814084) scale(0.1 -0.1)">
       <use xlink:href="#DejaVuSans-14"/>
       <use xlink:href="#DejaVuSans-15" transform="translate(63.625 0)"/>
      </g>
     </g>
    </g>
    <g id="xtick_9">
     <g id="line2d_21">
      <g>
       <use xlink:href="#m8ed11f5d7c" x="563.331406" y="218.216428" style="stroke: #000000; stroke-width: 0.8"/>
      </g>
     </g>
     <g id="text_22">
      <!-- 18 -->
      <g transform="translate(556.968906 232.814084) scale(0.1 -0.1)">
       <use xlink:href="#DejaVuSans-14"/>
       <use xlink:href="#DejaVuSans-1b" transform="translate(63.625 0)"/>
      </g>
     </g>
    </g>
    <g id="xtick_10">
     <g id="line2d_22">
      <g>
       <use xlink:href="#m8ed11f5d7c" x="626.706406" y="218.216428" style="stroke: #000000; stroke-width: 0.8"/>
      </g>
     </g>
     <g id="text_23">
      <!-- 24 -->
      <g transform="translate(620.343906 232.814084) scale(0.1 -0.1)">
       <use xlink:href="#DejaVuSans-15"/>
       <use xlink:href="#DejaVuSans-17" transform="translate(63.625 0)"/>
      </g>
     </g>
    </g>
    <g id="text_24">
     <!-- Hour of day -->
     <g transform="translate(470.717344 246.814866) scale(0.1 -0.1)">
      <use xlink:href="#DejaVuSans-2b"/>
      <use xlink:href="#DejaVuSans-52" transform="translate(75.203125 0)"/>
      <use xlink:href="#DejaVuSans-58" transform="translate(136.390625 0)"/>
      <use xlink:href="#DejaVuSans-55" transform="translate(199.765625 0)"/>
      <use xlink:href="#DejaVuSans-3" transform="translate(240.875 0)"/>
      <use xlink:href="#DejaVuSans-52" transform="translate(272.65625 0)"/>
      <use xlink:href="#DejaVuSans-49" transform="translate(333.84375 0)"/>
      <use xlink:href="#DejaVuSans-3" transform="translate(369.046875 0)"/>
      <use xlink:href="#DejaVuSans-47" transform="translate(400.828125 0)"/>
      <use xlink:href="#DejaVuSans-44" transform="translate(464.3125 0)"/>
      <use xlink:href="#DejaVuSans-5c" transform="translate(525.59375 0)"/>
     </g>
    </g>
   </g>
   <g id="matplotlib.axis_4">
    <g id="ytick_7">
     <g id="line2d_23">
      <g>
       <use xlink:href="#m2e0e34ca2c" x="373.206406" y="216.677699" style="stroke: #000000; stroke-width: 0.8"/>
      </g>
     </g>
     <g id="text_25">
      <!-- −0.04 -->
      <g transform="translate(335.561094 220.476527) scale(0.1 -0.1)">
       <defs>
        <path id="DejaVuSans-c9c" d="M 678 2272 
L 4684 2272 
L 4684 1741 
L 678 1741 
L 678 2272 
z
" transform="scale(0.015625)"/>
       </defs>
       <use xlink:href="#DejaVuSans-c9c"/>
       <use xlink:href="#DejaVuSans-13" transform="translate(83.796875 0)"/>
       <use xlink:href="#DejaVuSans-11" transform="translate(147.421875 0)"/>
       <use xlink:href="#DejaVuSans-13" transform="translate(179.203125 0)"/>
       <use xlink:href="#DejaVuSans-17" transform="translate(242.828125 0)"/>
      </g>
     </g>
    </g>
    <g id="ytick_8">
     <g id="line2d_24">
      <g>
       <use xlink:href="#m2e0e34ca2c" x="373.206406" y="192.742613" style="stroke: #000000; stroke-width: 0.8"/>
      </g>
     </g>
     <g id="text_26">
      <!-- −0.03 -->
      <g transform="translate(335.561094 196.541441) scale(0.1 -0.1)">
       <defs>
        <path id="DejaVuSans-16" d="M 2597 2516 
Q 3050 2419 3304 2112 
Q 3559 1806 3559 1356 
Q 3559 666 3084 287 
Q 2609 -91 1734 -91 
Q 1441 -91 1130 -33 
Q 819 25 488 141 
L 488 750 
Q 750 597 1062 519 
Q 1375 441 1716 441 
Q 2309 441 2620 675 
Q 2931 909 2931 1356 
Q 2931 1769 2642 2001 
Q 2353 2234 1838 2234 
L 1294 2234 
L 1294 2753 
L 1863 2753 
Q 2328 2753 2575 2939 
Q 2822 3125 2822 3475 
Q 2822 3834 2567 4026 
Q 2313 4219 1838 4219 
Q 1578 4219 1281 4162 
Q 984 4106 628 3988 
L 628 4550 
Q 988 4650 1302 4700 
Q 1616 4750 1894 4750 
Q 2613 4750 3031 4423 
Q 3450 4097 3450 3541 
Q 3450 3153 3228 2886 
Q 3006 2619 2597 2516 
z
" transform="scale(0.015625)"/>
       </defs>
       <use xlink:href="#DejaVuSans-c9c"/>
       <use xlink:href="#DejaVuSans-13" transform="translate(83.796875 0)"/>
       <use xlink:href="#DejaVuSans-11" transform="translate(147.421875 0)"/>
       <use xlink:href="#DejaVuSans-13" transform="translate(179.203125 0)"/>
       <use xlink:href="#DejaVuSans-16" transform="translate(242.828125 0)"/>
      </g>
     </g>
    </g>
    <g id="ytick_9">
     <g id="line2d_25">
      <g>
       <use xlink:href="#m2e0e34ca2c" x="373.206406" y="168.807526" style="stroke: #000000; stroke-width: 0.8"/>
      </g>
     </g>
     <g id="text_27">
      <!-- −0.02 -->
      <g transform="translate(335.561094 172.606354) scale(0.1 -0.1)">
       <use xlink:href="#DejaVuSans-c9c"/>
       <use xlink:href="#DejaVuSans-13" transform="translate(83.796875 0)"/>
       <use xlink:href="#DejaVuSans-11" transform="translate(147.421875 0)"/>
       <use xlink:href="#DejaVuSans-13" transform="translate(179.203125 0)"/>
       <use xlink:href="#DejaVuSans-15" transform="translate(242.828125 0)"/>
      </g>
     </g>
    </g>
    <g id="ytick_10">
     <g id="line2d_26">
      <g>
       <use xlink:href="#m2e0e34ca2c" x="373.206406" y="144.87244" style="stroke: #000000; stroke-width: 0.8"/>
      </g>
     </g>
     <g id="text_28">
      <!-- −0.01 -->
      <g transform="translate(335.561094 148.671268) scale(0.1 -0.1)">
       <use xlink:href="#DejaVuSans-c9c"/>
       <use xlink:href="#DejaVuSans-13" transform="translate(83.796875 0)"/>
       <use xlink:href="#DejaVuSans-11" transform="translate(147.421875 0)"/>
       <use xlink:href="#DejaVuSans-13" transform="translate(179.203125 0)"/>
       <use xlink:href="#DejaVuSans-14" transform="translate(242.828125 0)"/>
      </g>
     </g>
    </g>
    <g id="ytick_11">
     <g id="line2d_27">
      <g>
       <use xlink:href="#m2e0e34ca2c" x="373.206406" y="120.937353" style="stroke: #000000; stroke-width: 0.8"/>
      </g>
     </g>
     <g id="text_29">
      <!-- 0.00 -->
      <g transform="translate(343.940781 124.736181) scale(0.1 -0.1)">
       <use xlink:href="#DejaVuSans-13"/>
       <use xlink:href="#DejaVuSans-11" transform="translate(63.625 0)"/>
       <use xlink:href="#DejaVuSans-13" transform="translate(95.40625 0)"/>
       <use xlink:href="#DejaVuSans-13" transform="translate(159.03125 0)"/>
      </g>
     </g>
    </g>
    <g id="ytick_12">
     <g id="line2d_28">
      <g>
       <use xlink:href="#m2e0e34ca2c" x="373.206406" y="97.002266" style="stroke: #000000; stroke-width: 0.8"/>
      </g>
     </g>
     <g id="text_30">
      <!-- 0.01 -->
      <g transform="translate(343.940781 100.801095) scale(0.1 -0.1)">
       <use xlink:href="#DejaVuSans-13"/>
       <use xlink:href="#DejaVuSans-11" transform="translate(63.625 0)"/>
       <use xlink:href="#DejaVuSans-13" transform="translate(95.40625 0)"/>
       <use xlink:href="#DejaVuSans-14" transform="translate(159.03125 0)"/>
      </g>
     </g>
    </g>
    <g id="ytick_13">
     <g id="line2d_29">
      <g>
       <use xlink:href="#m2e0e34ca2c" x="373.206406" y="73.06718" style="stroke: #000000; stroke-width: 0.8"/>
      </g>
     </g>
     <g id="text_31">
      <!-- 0.02 -->
      <g transform="translate(343.940781 76.866008) scale(0.1 -0.1)">
       <use xlink:href="#DejaVuSans-13"/>
       <use xlink:href="#DejaVuSans-11" transform="translate(63.625 0)"/>
       <use xlink:href="#DejaVuSans-13" transform="translate(95.40625 0)"/>
       <use xlink:href="#DejaVuSans-15" transform="translate(159.03125 0)"/>
      </g>
     </g>
    </g>
    <g id="ytick_14">
     <g id="line2d_30">
      <g>
       <use xlink:href="#m2e0e34ca2c" x="373.206406" y="49.132093" style="stroke: #000000; stroke-width: 0.8"/>
      </g>
     </g>
     <g id="text_32">
      <!-- 0.03 -->
      <g transform="translate(343.940781 52.930921) scale(0.1 -0.1)">
       <use xlink:href="#DejaVuSans-13"/>
       <use xlink:href="#DejaVuSans-11" transform="translate(63.625 0)"/>
       <use xlink:href="#DejaVuSans-13" transform="translate(95.40625 0)"/>
       <use xlink:href="#DejaVuSans-16" transform="translate(159.03125 0)"/>
      </g>
     </g>
    </g>
    <g id="ytick_15">
     <g id="line2d_31">
      <g>
       <use xlink:href="#m2e0e34ca2c" x="373.206406" y="25.197007" style="stroke: #000000; stroke-width: 0.8"/>
      </g>
     </g>
     <g id="text_33">
      <!-- 0.04 -->
      <g transform="translate(343.940781 28.995835) scale(0.1 -0.1)">
       <use xlink:href="#DejaVuSans-13"/>
       <use xlink:href="#DejaVuSans-11" transform="translate(63.625 0)"/>
       <use xlink:href="#DejaVuSans-13" transform="translate(95.40625 0)"/>
       <use xlink:href="#DejaVuSans-17" transform="translate(159.03125 0)"/>
      </g>
     </g>
    </g>
    <g id="text_34">
     <!-- Voltage fluctuation (centered) -->
     <g transform="translate(329.15875 195.167277) rotate(-90) scale(0.1 -0.1)">
      <defs>
       <path id="DejaVuSans-13b0" d="M 1831 4863 
L 3431 4863 
L 3431 0 
L 2853 0 
L 2853 4384 
L 1825 4384 
Q 1516 4384 1395 4259 
Q 1275 4134 1275 3809 
L 1275 3500 
L 2222 3500 
L 2222 3053 
L 1275 3053 
L 1275 0 
L 697 0 
L 697 3053 
L 147 3053 
L 147 3500 
L 697 3500 
L 697 3744 
Q 697 4328 969 4595 
Q 1241 4863 1831 4863 
z
" transform="scale(0.015625)"/>
       <path id="DejaVuSans-46" d="M 3122 3366 
L 3122 2828 
Q 2878 2963 2633 3030 
Q 2388 3097 2138 3097 
Q 1578 3097 1268 2742 
Q 959 2388 959 1747 
Q 959 1106 1268 751 
Q 1578 397 2138 397 
Q 2388 397 2633 464 
Q 2878 531 3122 666 
L 3122 134 
Q 2881 22 2623 -34 
Q 2366 -91 2075 -91 
Q 1284 -91 818 406 
Q 353 903 353 1747 
Q 353 2603 823 3093 
Q 1294 3584 2113 3584 
Q 2378 3584 2631 3529 
Q 2884 3475 3122 3366 
z
" transform="scale(0.015625)"/>
       <path id="DejaVuSans-4c" d="M 603 3500 
L 1178 3500 
L 1178 0 
L 603 0 
L 603 3500 
z
M 603 4863 
L 1178 4863 
L 1178 4134 
L 603 4134 
L 603 4863 
z
" transform="scale(0.015625)"/>
      </defs>
      <use xlink:href="#DejaVuSans-39"/>
      <use xlink:href="#DejaVuSans-52" transform="translate(60.640625 0)"/>
      <use xlink:href="#DejaVuSans-4f" transform="translate(121.828125 0)"/>
      <use xlink:href="#DejaVuSans-57" transform="translate(149.609375 0)"/>
      <use xlink:href="#DejaVuSans-44" transform="translate(188.8125 0)"/>
      <use xlink:href="#DejaVuSans-4a" transform="translate(250.09375 0)"/>
      <use xlink:href="#DejaVuSans-48" transform="translate(313.578125 0)"/>
      <use xlink:href="#DejaVuSans-3" transform="translate(375.109375 0)"/>
      <use xlink:href="#DejaVuSans-13b0" transform="translate(406.890625 0)"/>
      <use xlink:href="#DejaVuSans-58" transform="translate(469.875 0)"/>
      <use xlink:href="#DejaVuSans-46" transform="translate(533.25 0)"/>
      <use xlink:href="#DejaVuSans-57" transform="translate(588.234375 0)"/>
      <use xlink:href="#DejaVuSans-58" transform="translate(627.4375 0)"/>
      <use xlink:href="#DejaVuSans-44" transform="translate(690.8125 0)"/>
      <use xlink:href="#DejaVuSans-57" transform="translate(752.09375 0)"/>
      <use xlink:href="#DejaVuSans-4c" transform="translate(791.296875 0)"/>
      <use xlink:href="#DejaVuSans-52" transform="translate(819.078125 0)"/>
      <use xlink:href="#DejaVuSans-51" transform="translate(880.265625 0)"/>
      <use xlink:href="#DejaVuSans-3" transform="translate(943.640625 0)"/>
      <use xlink:href="#DejaVuSans-b" transform="translate(975.421875 0)"/>
      <use xlink:href="#DejaVuSans-46" transform="translate(1014.4375 0)"/>
      <use xlink:href="#DejaVuSans-48" transform="translate(1069.421875 0)"/>
      <use xlink:href="#DejaVuSans-51" transform="translate(1130.953125 0)"/>
      <use xlink:href="#DejaVuSans-57" transform="translate(1194.328125 0)"/>
      <use xlink:href="#DejaVuSans-48" transform="translate(1233.53125 0)"/>
      <use xlink:href="#DejaVuSans-55" transform="translate(1295.0625 0)"/>
      <use xlink:href="#DejaVuSans-48" transform="translate(1333.96875 0)"/>
      <use xlink:href="#DejaVuSans-47" transform="translate(1395.5 0)"/>
      <use xlink:href="#DejaVuSans-c" transform="translate(1458.984375 0)"/>
     </g>
    </g>
   </g>
   <g id="line2d_32">
    <path d="M 373.206406 168.308879 
L 375.874827 161.945671 
L 378.543248 155.809081 
L 381.211669 150.30566 
L 383.88009 145.784372 
L 386.548512 142.512461 
L 389.216933 140.657061 
L 391.885354 140.273831 
L 394.553775 141.303405 
L 397.222196 143.575898 
L 399.890617 146.823156 
L 402.559038 150.697897 
L 405.227459 154.798406 
L 407.89588 158.697064 
L 410.564301 161.970725 
L 413.232722 164.230824 
L 415.901143 165.151118 
L 418.569564 164.491125 
L 421.237985 162.113628 
L 423.906406 157.995022 
L 426.574827 152.22779 
L 429.243248 145.014909 
L 431.911669 136.656595 
L 434.58009 127.530301 
L 437.248512 118.065339 
L 439.916933 108.713908 
L 442.585354 99.920535 
L 445.253775 92.092044 
L 447.922196 85.570142 
L 450.590617 80.608533 
L 453.259038 77.35614 
L 455.927459 75.847598 
L 458.59588 76.001686 
L 461.264301 77.62779 
L 463.932722 80.439955 
L 466.601143 84.077534 
L 469.269564 88.131009 
L 471.937985 92.171168 
L 474.606406 95.779613 
L 477.274827 98.578474 
L 479.943248 100.257259 
L 482.611669 100.594958 
L 485.28009 99.475886 
L 487.948512 96.898128 
L 490.616933 92.974027 
L 493.285354 87.922653 
L 495.953775 82.054806 
L 498.622196 75.751555 
L 501.290617 69.437854 
L 503.959038 63.553024 
L 506.627459 58.520185 
L 509.29588 54.716759 
L 511.964301 52.448086 
L 514.632722 51.925999 
L 517.301143 53.253852 
L 519.969564 56.419031 
L 522.637985 61.293484 
L 525.306406 67.642231 
L 527.974827 75.139255 
L 530.643248 83.389682 
L 533.311669 91.956705 
L 535.98009 100.391374 
L 538.648512 108.263195 
L 541.316933 115.189398 
L 543.985354 120.86085 
L 546.653775 125.062812 
L 549.322196 127.689091 
L 551.990617 128.748618 
L 554.659038 128.363986 
L 557.327459 126.762062 
L 559.99588 124.257328 
L 562.664301 121.229106 
L 565.332722 118.094275 
L 568.001143 115.277355 
L 570.669564 113.180067 
L 573.337985 112.152486 
L 576.006406 112.467782 
L 578.674827 114.302336 
L 581.343248 117.722597 
L 584.011669 122.679608 
L 586.68009 129.011593 
L 589.348512 136.454403 
L 592.016933 144.659134 
L 594.685354 153.215657 
L 597.353775 161.68046 
L 600.022196 169.60684 
L 602.690617 176.575365 
L 605.359038 182.22248 
L 608.027459 186.265276 
L 610.69588 188.52069 
L 613.364301 188.91782 
L 616.032722 187.502474 
L 618.701143 184.433668 
L 621.369564 179.972295 
L 624.037985 174.462761 
L 626.706406 168.308879 
" clip-path="url(#p9eb2a46e30)" style="fill: none; stroke: #ea580c; stroke-width: 2.2; stroke-linecap: square"/>
   </g>
   <g id="line2d_33">
    <path d="M 373.206406 182.520336 
L 375.874827 174.248167 
L 378.543248 166.2706 
L 381.211669 159.116152 
L 383.88009 153.238478 
L 386.548512 148.984994 
L 389.216933 146.572973 
L 391.885354 146.074774 
L 394.553775 147.413221 
L 397.222196 150.367461 
L 399.890617 154.588897 
L 402.559038 159.626061 
L 405.227459 164.956722 
L 407.89588 170.024977 
L 410.564301 174.280736 
L 413.232722 177.218865 
L 415.901143 178.415248 
L 418.569564 177.557257 
L 421.237985 174.46651 
L 423.906406 169.112323 
L 426.574827 161.614921 
L 429.243248 152.238175 
L 431.911669 141.372368 
L 434.58009 129.508186 
L 437.248512 117.203734 
L 439.916933 105.046874 
L 442.585354 93.61549 
L 445.253775 83.438451 
L 447.922196 74.959979 
L 450.590617 68.509887 
L 453.259038 64.281776 
L 455.927459 62.320672 
L 458.59588 62.520986 
L 461.264301 64.634922 
L 463.932722 68.290735 
L 466.601143 73.019588 
L 469.269564 78.289105 
L 471.937985 83.541312 
L 474.606406 88.232291 
L 477.274827 91.870811 
L 479.943248 94.05323 
L 482.611669 94.49224 
L 485.28009 93.037446 
L 487.948512 89.686361 
L 490.616933 84.585029 
L 493.285354 78.018244 
L 495.953775 70.390041 
L 498.622196 62.195816 
L 501.290617 53.988005 
L 503.959038 46.337725 
L 506.627459 39.795034 
L 509.29588 34.850581 
L 511.964301 31.901306 
L 514.632722 31.222593 
L 517.301143 32.948802 
L 519.969564 37.063534 
L 522.637985 43.400323 
L 525.306406 51.653694 
L 527.974827 61.399825 
L 530.643248 72.125381 
L 533.311669 83.262511 
L 535.98009 94.227581 
L 538.648512 104.460948 
L 541.316933 113.465011 
L 543.985354 120.837899 
L 546.653775 126.30045 
L 549.322196 129.714613 
L 551.990617 131.091998 
L 554.659038 130.591976 
L 557.327459 128.509475 
L 559.99588 125.25332 
L 562.664301 121.316632 
L 565.332722 117.241352 
L 568.001143 113.579355 
L 570.669564 110.852881 
L 573.337985 109.517026 
L 576.006406 109.926911 
L 578.674827 112.311831 
L 581.343248 116.75817 
L 584.011669 123.202285 
L 586.68009 131.433865 
L 589.348512 141.109519 
L 592.016933 151.775668 
L 594.685354 162.899148 
L 597.353775 173.903392 
L 600.022196 184.207686 
L 602.690617 193.266769 
L 605.359038 200.608018 
L 608.027459 205.863653 
L 610.69588 208.795692 
L 613.364301 209.31196 
L 616.032722 207.47201 
L 618.701143 203.482563 
L 621.369564 197.682777 
L 624.037985 190.520384 
L 626.706406 182.520336 
" clip-path="url(#p9eb2a46e30)" style="fill: none; stroke: #0369a1; stroke-width: 2.2; stroke-linecap: square"/>
   </g>
   <g id="line2d_34">
    <path d="M 373.206406 85.453572 
L 375.874827 93.643935 
L 378.543248 102.512087 
L 381.211669 111.447422 
L 383.88009 119.840245 
L 386.548512 127.141475 
L 389.216933 132.916248 
L 391.885354 136.886092 
L 394.553775 138.955452 
L 397.222196 139.21992 
L 399.890617 137.95536 
L 402.559038 135.589021 
L 405.227459 132.655511 
L 407.89588 129.742077 
L 410.564301 127.428616 
L 413.232722 126.228469 
L 415.901143 126.535875 
L 418.569564 128.585372 
L 421.237985 132.427202 
L 423.906406 137.921168 
L 426.574827 144.749586 
L 429.243248 152.448016 
L 431.911669 160.450731 
L 434.58009 168.146363 
L 437.248512 174.938181 
L 439.916933 180.302975 
L 442.585354 183.842665 
L 445.253775 185.323484 
L 447.922196 184.698812 
L 450.590617 182.113399 
L 453.259038 177.88853 
L 455.927459 172.489648 
L 458.59588 166.479643 
L 461.264301 160.462496 
L 463.932722 155.022904 
L 466.601143 150.667912 
L 469.269564 147.776405 
L 471.937985 146.561484 
L 474.606406 147.049499 
L 477.274827 149.077838 
L 479.943248 152.311667 
L 482.611669 156.27798 
L 485.28009 160.413523 
L 487.948512 164.121813 
L 490.616933 166.833559 
L 493.285354 168.064421 
L 495.953775 167.464349 
L 498.622196 164.853564 
L 501.290617 160.241568 
L 503.959038 153.827298 
L 506.627459 145.980388 
L 509.29588 137.205415 
L 511.964301 128.092692 
L 514.632722 119.260527 
L 517.301143 111.294707 
L 519.969564 104.691252 
L 522.637985 99.808151 
L 525.306406 96.830911 
L 527.974827 95.755335 
L 530.643248 96.389264 
L 533.311669 98.373087 
L 535.98009 101.216985 
L 538.648512 104.351149 
L 541.316933 107.183984 
L 543.985354 109.162446 
L 546.653775 109.828498 
L 549.322196 108.866022 
L 551.990617 106.133504 
L 554.659038 101.679218 
L 557.327459 95.737383 
L 559.99588 88.705678 
L 562.664301 81.106355 
L 565.332722 73.534834 
L 568.001143 66.600913 
L 570.669564 60.868467 
L 573.337985 56.799658 
L 576.006406 54.709231 
L 578.674827 54.733458 
L 581.343248 56.816838 
L 584.011669 60.717876 
L 586.68009 66.033363 
L 589.348512 72.238732 
L 592.016933 78.740454 
L 594.685354 84.935241 
L 597.353775 90.270135 
L 600.022196 94.297481 
L 602.690617 96.719293 
L 605.359038 97.41658 
L 608.027459 96.460697 
L 610.69588 94.105599 
L 613.364301 90.761765 
L 616.032722 86.954413 
L 618.701143 83.27017 
L 621.369564 80.297543 
L 624.037985 78.567143 
L 626.706406 78.497629 
" clip-path="url(#p9eb2a46e30)" style="fill: none; stroke-dasharray: 8.14,3.52; stroke-dashoffset: 0; stroke: #dc2626; stroke-width: 2.2"/>
   </g>
   <g id="patch_6">
    <path d="M 373.206406 218.216428 
L 373.206406 22.318125 
" style="fill: none; stroke: #000000; stroke-width: 0.8; stroke-linejoin: miter; stroke-linecap: square"/>
   </g>
   <g id="patch_7">
    <path d="M 373.206406 218.216428 
L 626.706406 218.216428 
" style="fill: none; stroke: #000000; stroke-width: 0.8; stroke-linejoin: miter; stroke-linecap: square"/>
   </g>
   <g id="text_35">
    <!-- Right pair: A1 and A2 move together -->
    <g style="fill: #059669" transform="translate(406.558906 265.232021) scale(0.09 -0.09)">
     <defs>
      <path id="DejaVuSans-Bold-35" d="M 2297 2597 
Q 2675 2597 2839 2737 
Q 3003 2878 3003 3200 
Q 3003 3519 2839 3656 
Q 2675 3794 2297 3794 
L 1791 3794 
L 1791 2597 
L 2297 2597 
z
M 1791 1766 
L 1791 0 
L 588 0 
L 588 4666 
L 2425 4666 
Q 3347 4666 3776 4356 
Q 4206 4047 4206 3378 
Q 4206 2916 3982 2619 
Q 3759 2322 3309 2181 
Q 3556 2125 3751 1926 
Q 3947 1728 4147 1325 
L 4800 0 
L 3519 0 
L 2950 1159 
Q 2778 1509 2601 1637 
Q 2425 1766 2131 1766 
L 1791 1766 
z
" transform="scale(0.015625)"/>
      <path id="DejaVuSans-Bold-4b" d="M 4056 2131 
L 4056 0 
L 2931 0 
L 2931 347 
L 2931 1625 
Q 2931 2084 2911 2256 
Q 2891 2428 2841 2509 
Q 2775 2619 2662 2680 
Q 2550 2741 2406 2741 
Q 2056 2741 1856 2470 
Q 1656 2200 1656 1722 
L 1656 0 
L 538 0 
L 538 4863 
L 1656 4863 
L 1656 2988 
Q 1909 3294 2193 3439 
Q 2478 3584 2822 3584 
Q 3428 3584 3742 3212 
Q 4056 2841 4056 2131 
z
" transform="scale(0.015625)"/>
      <path id="DejaVuSans-Bold-15" d="M 1844 884 
L 3897 884 
L 3897 0 
L 506 0 
L 506 884 
L 2209 2388 
Q 2438 2594 2547 2791 
Q 2656 2988 2656 3200 
Q 2656 3528 2436 3728 
Q 2216 3928 1850 3928 
Q 1569 3928 1234 3808 
Q 900 3688 519 3450 
L 519 4475 
Q 925 4609 1322 4679 
Q 1719 4750 2100 4750 
Q 2938 4750 3402 4381 
Q 3866 4013 3866 3353 
Q 3866 2972 3669 2642 
Q 3472 2313 2841 1759 
L 1844 884 
z
" transform="scale(0.015625)"/>
     </defs>
     <use xlink:href="#DejaVuSans-Bold-35"/>
     <use xlink:href="#DejaVuSans-Bold-4c" transform="translate(77 0)"/>
     <use xlink:href="#DejaVuSans-Bold-4a" transform="translate(111.28125 0)"/>
     <use xlink:href="#DejaVuSans-Bold-4b" transform="translate(182.859375 0)"/>
     <use xlink:href="#DejaVuSans-Bold-57" transform="translate(254.046875 0)"/>
     <use xlink:href="#DejaVuSans-Bold-3" transform="translate(301.84375 0)"/>
     <use xlink:href="#DejaVuSans-Bold-53" transform="translate(336.65625 0)"/>
     <use xlink:href="#DejaVuSans-Bold-44" transform="translate(408.234375 0)"/>
     <use xlink:href="#DejaVuSans-Bold-4c" transform="translate(475.71875 0)"/>
     <use xlink:href="#DejaVuSans-Bold-55" transform="translate(510 0)"/>
     <use xlink:href="#DejaVuSans-Bold-1d" transform="translate(559.3125 0)"/>
     <use xlink:href="#DejaVuSans-Bold-3" transform="translate(599.296875 0)"/>
     <use xlink:href="#DejaVuSans-Bold-24" transform="translate(634.109375 0)"/>
     <use xlink:href="#DejaVuSans-Bold-14" transform="translate(711.5 0)"/>
     <use xlink:href="#DejaVuSans-Bold-3" transform="translate(781.078125 0)"/>
     <use xlink:href="#DejaVuSans-Bold-44" transform="translate(815.890625 0)"/>
     <use xlink:href="#DejaVuSans-Bold-51" transform="translate(883.375 0)"/>
     <use xlink:href="#DejaVuSans-Bold-47" transform="translate(954.5625 0)"/>
     <use xlink:href="#DejaVuSans-Bold-3" transform="translate(1026.140625 0)"/>
     <use xlink:href="#DejaVuSans-Bold-24" transform="translate(1060.953125 0)"/>
     <use xlink:href="#DejaVuSans-Bold-15" transform="translate(1138.34375 0)"/>
     <use xlink:href="#DejaVuSans-Bold-3" transform="translate(1207.921875 0)"/>
     <use xlink:href="#DejaVuSans-Bold-50" transform="translate(1242.734375 0)"/>
     <use xlink:href="#DejaVuSans-Bold-52" transform="translate(1346.9375 0)"/>
     <use xlink:href="#DejaVuSans-Bold-59" transform="translate(1415.640625 0)"/>
     <use xlink:href="#DejaVuSans-Bold-48" transform="translate(1480.828125 0)"/>
     <use xlink:href="#DejaVuSans-Bold-3" transform="translate(1548.65625 0)"/>
     <use xlink:href="#DejaVuSans-Bold-57" transform="translate(1583.46875 0)"/>
     <use xlink:href="#DejaVuSans-Bold-52" transform="translate(1631.265625 0)"/>
     <use xlink:href="#DejaVuSans-Bold-4a" transform="translate(1699.96875 0)"/>
     <use xlink:href="#DejaVuSans-Bold-48" transform="translate(1771.546875 0)"/>
     <use xlink:href="#DejaVuSans-Bold-57" transform="translate(1839.375 0)"/>
     <use xlink:href="#DejaVuSans-Bold-4b" transform="translate(1887.171875 0)"/>
     <use xlink:href="#DejaVuSans-Bold-48" transform="translate(1958.359375 0)"/>
     <use xlink:href="#DejaVuSans-Bold-55" transform="translate(2026.1875 0)"/>
    </g>
   </g>
   <g id="text_36">
    <!-- Cluster on correlation -->
    <g style="fill: #1e293b" transform="translate(426.096406 16.318125) scale(0.12 -0.12)">
     <use xlink:href="#DejaVuSans-Bold-26"/>
     <use xlink:href="#DejaVuSans-Bold-4f" transform="translate(73.390625 0)"/>
     <use xlink:href="#DejaVuSans-Bold-58" transform="translate(107.671875 0)"/>
     <use xlink:href="#DejaVuSans-Bold-56" transform="translate(178.859375 0)"/>
     <use xlink:href="#DejaVuSans-Bold-57" transform="translate(238.375 0)"/>
     <use xlink:href="#DejaVuSans-Bold-48" transform="translate(286.171875 0)"/>
     <use xlink:href="#DejaVuSans-Bold-55" transform="translate(354 0)"/>
     <use xlink:href="#DejaVuSans-Bold-3" transform="translate(403.3125 0)"/>
     <use xlink:href="#DejaVuSans-Bold-52" transform="translate(438.125 0)"/>
     <use xlink:href="#DejaVuSans-Bold-51" transform="translate(506.828125 0)"/>
     <use xlink:href="#DejaVuSans-Bold-3" transform="translate(578.015625 0)"/>
     <use xlink:href="#DejaVuSans-Bold-46" transform="translate(612.828125 0)"/>
     <use xlink:href="#DejaVuSans-Bold-52" transform="translate(672.109375 0)"/>
     <use xlink:href="#DejaVuSans-Bold-55" transform="translate(740.8125 0)"/>
     <use xlink:href="#DejaVuSans-Bold-55" transform="translate(790.125 0)"/>
     <use xlink:href="#DejaVuSans-Bold-48" transform="translate(839.4375 0)"/>
     <use xlink:href="#DejaVuSans-Bold-4f" transform="translate(907.265625 0)"/>
     <use xlink:href="#DejaVuSans-Bold-44" transform="translate(941.546875 0)"/>
     <use xlink:href="#DejaVuSans-Bold-57" transform="translate(1009.03125 0)"/>
     <use xlink:href="#DejaVuSans-Bold-4c" transform="translate(1056.828125 0)"/>
     <use xlink:href="#DejaVuSans-Bold-52" transform="translate(1091.109375 0)"/>
     <use xlink:href="#DejaVuSans-Bold-51" transform="translate(1159.8125 0)"/>
    </g>
   </g>
   <g id="legend_2">
    <g id="line2d_35">
     <path d="M 380.406406 32.796875 
L 388.406406 32.796875 
L 396.406406 32.796875 
" style="fill: none; stroke: #ea580c; stroke-width: 2.2; stroke-linecap: square"/>
    </g>
    <g id="text_37">
     <!-- Customer A1 -->
     <g transform="translate(402.806406 35.596875) scale(0.08 -0.08)">
      <use xlink:href="#DejaVuSans-26"/>
      <use xlink:href="#DejaVuSans-58" transform="translate(69.828125 0)"/>
      <use xlink:href="#DejaVuSans-56" transform="translate(133.203125 0)"/>
      <use xlink:href="#DejaVuSans-57" transform="translate(185.296875 0)"/>
      <use xlink:href="#DejaVuSans-52" transform="translate(224.5 0)"/>
      <use xlink:href="#DejaVuSans-50" transform="translate(285.6875 0)"/>
      <use xlink:href="#DejaVuSans-48" transform="translate(383.09375 0)"/>
      <use xlink:href="#DejaVuSans-55" transform="translate(444.625 0)"/>
      <use xlink:href="#DejaVuSans-3" transform="translate(485.734375 0)"/>
      <use xlink:href="#DejaVuSans-24" transform="translate(517.515625 0)"/>
      <use xlink:href="#DejaVuSans-14" transform="translate(585.921875 0)"/>
     </g>
    </g>
    <g id="line2d_36">
     <path d="M 380.406406 44.7975 
L 388.406406 44.7975 
L 396.406406 44.7975 
" style="fill: none; stroke: #0369a1; stroke-width: 2.2; stroke-linecap: square"/>
    </g>
    <g id="text_38">
     <!-- Customer A2 -->
     <g transform="translate(402.806406 47.5975) scale(0.08 -0.08)">
      <use xlink:href="#DejaVuSans-26"/>
      <use xlink:href="#DejaVuSans-58" transform="translate(69.828125 0)"/>
      <use xlink:href="#DejaVuSans-56" transform="translate(133.203125 0)"/>
      <use xlink:href="#DejaVuSans-57" transform="translate(185.296875 0)"/>
      <use xlink:href="#DejaVuSans-52" transform="translate(224.5 0)"/>
      <use xlink:href="#DejaVuSans-50" transform="translate(285.6875 0)"/>
      <use xlink:href="#DejaVuSans-48" transform="translate(383.09375 0)"/>
      <use xlink:href="#DejaVuSans-55" transform="translate(444.625 0)"/>
      <use xlink:href="#DejaVuSans-3" transform="translate(485.734375 0)"/>
      <use xlink:href="#DejaVuSans-24" transform="translate(517.515625 0)"/>
      <use xlink:href="#DejaVuSans-15" transform="translate(585.921875 0)"/>
     </g>
    </g>
    <g id="line2d_37">
     <path d="M 380.406406 56.798125 
L 388.406406 56.798125 
L 396.406406 56.798125 
" style="fill: none; stroke-dasharray: 8.14,3.52; stroke-dashoffset: 0; stroke: #dc2626; stroke-width: 2.2"/>
    </g>
    <g id="text_39">
     <!-- Customer B1 -->
     <g transform="translate(402.806406 59.598125) scale(0.08 -0.08)">
      <use xlink:href="#DejaVuSans-26"/>
      <use xlink:href="#DejaVuSans-58" transform="translate(69.828125 0)"/>
      <use xlink:href="#DejaVuSans-56" transform="translate(133.203125 0)"/>
      <use xlink:href="#DejaVuSans-57" transform="translate(185.296875 0)"/>
      <use xlink:href="#DejaVuSans-52" transform="translate(224.5 0)"/>
      <use xlink:href="#DejaVuSans-50" transform="translate(285.6875 0)"/>
      <use xlink:href="#DejaVuSans-48" transform="translate(383.09375 0)"/>
      <use xlink:href="#DejaVuSans-55" transform="translate(444.625 0)"/>
      <use xlink:href="#DejaVuSans-3" transform="translate(485.734375 0)"/>
      <use xlink:href="#DejaVuSans-25" transform="translate(517.515625 0)"/>
      <use xlink:href="#DejaVuSans-14" transform="translate(586.125 0)"/>
     </g>
    </g>
   </g>
  </g>
 </g>
 <defs>
  <clipPath id="pfdd408b676">
   <rect x="50.466406" y="22.318125" width="253.5" height="195.898303"/>
  </clipPath>
  <clipPath id="p9eb2a46e30">
   <rect x="373.206406" y="22.318125" width="253.5" height="195.898303"/>
  </clipPath>
 </defs>
</svg>
