<?xml version="1.0" encoding="utf-8" standalone="no"?>
<!DOCTYPE svg PUBLIC "-//W3C//DTD SVG 1.1//EN"
  "http://www.w3.org/Graphics/SVG/1.1/DTD/svg11.dtd">
<svg xmlns:xlink="http://www.w3.org/1999/xlink" width="641.327489pt" height="189.253425pt" viewBox="0 0 641.327489 189.253425" xmlns="http://www.w3.org/2000/svg" version="1.1">
 <metadata>
  <rdf:RDF xmlns:dc="http://purl.org/dc/elements/1.1/" xmlns:cc="http://creativecommons.org/ns#" xmlns:rdf="http://www.w3.org/1999/02/22-rdf-syntax-ns#">
   <cc:Work>
    <dc:type rdf:resource="http://purl.org/dc/dcmitype/StillImage"/>
    <dc:date>2026-07-12T06:44:04.247681</dc:date>
    <dc:format>image/svg+xml</dc:format>
    <dc:creator>
     <cc:Agent>
      <dc:title>Matplotlib v3.11.0, https://matplotlib.org/</dc:title>
     </cc:Agent>
    </dc:creator>
   </cc:Work>
  </rdf:RDF>
 </metadata>
 <defs>
  <style type="text/css">*{stroke-linejoin: round; stroke-linecap: butt}</style>
 </defs>
 <g id="figure_1">
  <g id="patch_1">
   <path d="M 0 189.253425 
L 641.327489 189.253425 
L 641.327489 0 
L 0 0 
z
" style="fill: #ffffff"/>
  </g>
  <g id="axes_1">
   <g id="line2d_1">
    <path d="M 43.707653 115.122727 
L 232.330529 115.122727 
" clip-path="url(#pac5e350de4)" style="fill: none; stroke: #6b7280; stroke-width: 2; stroke-linecap: square"/>
   </g>
   <g id="patch_2">
    <path d="M 43.707653 128.508867 
C 47.257699 128.508867 50.662822 127.098419 53.173083 124.588157 
C 55.683345 122.077896 57.093793 118.672773 57.093793 115.122727 
C 57.093793 111.572682 55.683345 108.167559 53.173083 105.657297 
C 50.662822 103.147036 47.257699 101.736588 43.707653 101.736588 
C 40.157608 101.736588 36.752485 103.147036 34.242223 105.657297 
C 31.731962 108.167559 30.321514 111.572682 30.321514 115.122727 
C 30.321514 118.672773 31.731962 122.077896 34.242223 124.588157 
C 36.752485 127.098419 40.157608 128.508867 43.707653 128.508867 
z
" clip-path="url(#pac5e350de4)" style="fill: #1e293b; stroke: #ffffff; stroke-width: 1.2; stroke-linejoin: miter"/>
   </g>
   <g id="patch_3">
    <path d="M 122.807569 126.683484 
C 125.873517 126.683484 128.814305 125.46537 130.982258 123.297417 
C 133.150211 121.129464 134.368326 118.188676 134.368326 115.122727 
C 134.368326 112.056779 133.150211 109.115991 130.982258 106.948038 
C 128.814305 104.780085 125.873517 103.561971 122.807569 103.561971 
C 119.74162 103.561971 116.800832 104.780085 114.632879 106.948038 
C 112.464926 109.115991 111.246812 112.056779 111.246812 115.122727 
C 111.246812 118.188676 112.464926 121.129464 114.632879 123.297417 
C 116.800832 125.46537 119.74162 126.683484 122.807569 126.683484 
z
" clip-path="url(#pac5e350de4)" style="fill: #059669; stroke: #ffffff; stroke-width: 1.2; stroke-linejoin: miter"/>
   </g>
   <g id="text_1">
    <!-- Customer near -->
    <g style="fill: #6b7280" transform="translate(93.015069 140.678085) scale(0.08 -0.08)">
     <defs>
      <path id="DejaVuSans-26" d="M 4122 4306 
L 4122 3641 
Q 3803 3938 3442 4084 
Q 3081 4231 2675 4231 
Q 1875 4231 1450 3742 
Q 1025 3253 1025 2328 
Q 1025 1406 1450 917 
Q 1875 428 2675 428 
Q 3081 428 3442 575 
Q 3803 722 4122 1019 
L 4122 359 
Q 3791 134 3420 21 
Q 3050 -91 2638 -91 
Q 1578 -91 968 557 
Q 359 1206 359 2328 
Q 359 3453 968 4101 
Q 1578 4750 2638 4750 
Q 3056 4750 3426 4639 
Q 3797 4528 4122 4306 
z
" transform="scale(0.015625)"/>
      <path id="DejaVuSans-58" d="M 544 1381 
L 544 3500 
L 1119 3500 
L 1119 1403 
Q 1119 906 1312 657 
Q 1506 409 1894 409 
Q 2359 409 2629 706 
Q 2900 1003 2900 1516 
L 2900 3500 
L 3475 3500 
L 3475 0 
L 2900 0 
L 2900 538 
Q 2691 219 2414 64 
Q 2138 -91 1772 -91 
Q 1169 -91 856 284 
Q 544 659 544 1381 
z
M 1991 3584 
L 1991 3584 
z
" transform="scale(0.015625)"/>
      <path id="DejaVuSans-56" d="M 2834 3397 
L 2834 2853 
Q 2591 2978 2328 3040 
Q 2066 3103 1784 3103 
Q 1356 3103 1142 2972 
Q 928 2841 928 2578 
Q 928 2378 1081 2264 
Q 1234 2150 1697 2047 
L 1894 2003 
Q 2506 1872 2764 1633 
Q 3022 1394 3022 966 
Q 3022 478 2636 193 
Q 2250 -91 1575 -91 
Q 1294 -91 989 -36 
Q 684 19 347 128 
L 347 722 
Q 666 556 975 473 
Q 1284 391 1588 391 
Q 1994 391 2212 530 
Q 2431 669 2431 922 
Q 2431 1156 2273 1281 
Q 2116 1406 1581 1522 
L 1381 1569 
Q 847 1681 609 1914 
Q 372 2147 372 2553 
Q 372 3047 722 3315 
Q 1072 3584 1716 3584 
Q 2034 3584 2315 3537 
Q 2597 3491 2834 3397 
z
" transform="scale(0.015625)"/>
      <path id="DejaVuSans-57" d="M 1172 4494 
L 1172 3500 
L 2356 3500 
L 2356 3053 
L 1172 3053 
L 1172 1153 
Q 1172 725 1289 603 
Q 1406 481 1766 481 
L 2356 481 
L 2356 0 
L 1766 0 
Q 1100 0 847 248 
Q 594 497 594 1153 
L 594 3053 
L 172 3053 
L 172 3500 
L 594 3500 
L 594 4494 
L 1172 4494 
z
" transform="scale(0.015625)"/>
      <path id="DejaVuSans-52" d="M 1959 3097 
Q 1497 3097 1228 2736 
Q 959 2375 959 1747 
Q 959 1119 1226 758 
Q 1494 397 1959 397 
Q 2419 397 2687 759 
Q 2956 1122 2956 1747 
Q 2956 2369 2687 2733 
Q 2419 3097 1959 3097 
z
M 1959 3584 
Q 2709 3584 3137 3096 
Q 3566 2609 3566 1747 
Q 3566 888 3137 398 
Q 2709 -91 1959 -91 
Q 1206 -91 779 398 
Q 353 888 353 1747 
Q 353 2609 779 3096 
Q 1206 3584 1959 3584 
z
" transform="scale(0.015625)"/>
      <path id="DejaVuSans-50" d="M 3328 2828 
Q 3544 3216 3844 3400 
Q 4144 3584 4550 3584 
Q 5097 3584 5394 3201 
Q 5691 2819 5691 2113 
L 5691 0 
L 5113 0 
L 5113 2094 
Q 5113 2597 4934 2840 
Q 4756 3084 4391 3084 
Q 3944 3084 3684 2787 
Q 3425 2491 3425 1978 
L 3425 0 
L 2847 0 
L 2847 2094 
Q 2847 2600 2669 2842 
Q 2491 3084 2119 3084 
Q 1678 3084 1418 2786 
Q 1159 2488 1159 1978 
L 1159 0 
L 581 0 
L 581 3500 
L 1159 3500 
L 1159 2956 
Q 1356 3278 1631 3431 
Q 1906 3584 2284 3584 
Q 2666 3584 2933 3390 
Q 3200 3197 3328 2828 
z
" transform="scale(0.015625)"/>
      <path id="DejaVuSans-48" d="M 3597 1894 
L 3597 1613 
L 953 1613 
Q 991 1019 1311 708 
Q 1631 397 2203 397 
Q 2534 397 2845 478 
Q 3156 559 3463 722 
L 3463 178 
Q 3153 47 2828 -22 
Q 2503 -91 2169 -91 
Q 1331 -91 842 396 
Q 353 884 353 1716 
Q 353 2575 817 3079 
Q 1281 3584 2069 3584 
Q 2775 3584 3186 3129 
Q 3597 2675 3597 1894 
z
M 3022 2063 
Q 3016 2534 2758 2815 
Q 2500 3097 2075 3097 
Q 1594 3097 1305 2825 
Q 1016 2553 972 2059 
L 3022 2063 
z
" transform="scale(0.015625)"/>
      <path id="DejaVuSans-55" d="M 2631 2963 
Q 2534 3019 2420 3045 
Q 2306 3072 2169 3072 
Q 1681 3072 1420 2755 
Q 1159 2438 1159 1844 
L 1159 0 
L 581 0 
L 581 3500 
L 1159 3500 
L 1159 2956 
Q 1341 3275 1631 3429 
Q 1922 3584 2338 3584 
Q 2397 3584 2469 3576 
Q 2541 3569 2628 3553 
L 2631 2963 
z
" transform="scale(0.015625)"/>
      <path id="DejaVuSans-3" transform="scale(0.015625)"/>
      <path id="DejaVuSans-51" d="M 3513 2113 
L 3513 0 
L 2938 0 
L 2938 2094 
Q 2938 2591 2744 2837 
Q 2550 3084 2163 3084 
Q 1697 3084 1428 2787 
Q 1159 2491 1159 1978 
L 1159 0 
L 581 0 
L 581 3500 
L 1159 3500 
L 1159 2956 
Q 1366 3272 1645 3428 
Q 1925 3584 2291 3584 
Q 2894 3584 3203 3211 
Q 3513 2838 3513 2113 
z
" transform="scale(0.015625)"/>
      <path id="DejaVuSans-44" d="M 2194 1759 
Q 1497 1759 1228 1600 
Q 959 1441 959 1056 
Q 959 750 1161 570 
Q 1363 391 1709 391 
Q 2188 391 2477 730 
Q 2766 1069 2766 1631 
L 2766 1759 
L 2194 1759 
z
M 3341 1997 
L 3341 0 
L 2766 0 
L 2766 531 
Q 2569 213 2275 61 
Q 1981 -91 1556 -91 
Q 1019 -91 701 211 
Q 384 513 384 1019 
Q 384 1609 779 1909 
Q 1175 2209 1959 2209 
L 2766 2209 
L 2766 2266 
Q 2766 2663 2505 2880 
Q 2244 3097 1772 3097 
Q 1472 3097 1187 3025 
Q 903 2953 641 2809 
L 641 3341 
Q 956 3463 1253 3523 
Q 1550 3584 1831 3584 
Q 2591 3584 2966 3190 
Q 3341 2797 3341 1997 
z
" transform="scale(0.015625)"/>
     </defs>
     <use xlink:href="#DejaVuSans-26"/>
     <use xlink:href="#DejaVuSans-58" transform="translate(69.828125 0)"/>
     <use xlink:href="#DejaVuSans-56" transform="translate(133.203125 0)"/>
     <use xlink:href="#DejaVuSans-57" transform="translate(185.296875 0)"/>
     <use xlink:href="#DejaVuSans-52" transform="translate(224.5 0)"/>
     <use xlink:href="#DejaVuSans-50" transform="translate(285.6875 0)"/>
     <use xlink:href="#DejaVuSans-48" transform="translate(383.09375 0)"/>
     <use xlink:href="#DejaVuSans-55" transform="translate(444.625 0)"/>
     <use xlink:href="#DejaVuSans-3" transform="translate(485.734375 0)"/>
     <use xlink:href="#DejaVuSans-51" transform="translate(517.515625 0)"/>
     <use xlink:href="#DejaVuSans-48" transform="translate(580.890625 0)"/>
     <use xlink:href="#DejaVuSans-44" transform="translate(642.421875 0)"/>
     <use xlink:href="#DejaVuSans-55" transform="translate(703.703125 0)"/>
    </g>
   </g>
   <g id="text_2">
    <!-- same real shape -->
    <g style="fill: #6b7280" transform="translate(91.707178 95.651979) scale(0.075 -0.075)">
     <defs>
      <path id="DejaVuSans-Oblique-56" d="M 3200 3397 
L 3091 2853 
Q 2863 2978 2609 3040 
Q 2356 3103 2088 3103 
Q 1634 3103 1373 2948 
Q 1113 2794 1113 2528 
Q 1113 2219 1719 2053 
Q 1766 2041 1788 2034 
L 1972 1978 
Q 2547 1819 2739 1644 
Q 2931 1469 2931 1166 
Q 2931 609 2489 259 
Q 2047 -91 1331 -91 
Q 1053 -91 747 -37 
Q 441 16 72 128 
L 184 722 
Q 500 559 806 475 
Q 1113 391 1394 391 
Q 1816 391 2080 572 
Q 2344 753 2344 1031 
Q 2344 1331 1650 1516 
L 1591 1531 
L 1394 1581 
Q 956 1697 753 1886 
Q 550 2075 550 2369 
Q 550 2928 970 3256 
Q 1391 3584 2113 3584 
Q 2397 3584 2667 3537 
Q 2938 3491 3200 3397 
z
" transform="scale(0.015625)"/>
      <path id="DejaVuSans-Oblique-44" d="M 3438 1997 
L 3047 0 
L 2472 0 
L 2578 531 
Q 2325 219 2001 64 
Q 1678 -91 1281 -91 
Q 834 -91 548 182 
Q 263 456 263 884 
Q 263 1497 752 1853 
Q 1241 2209 2100 2209 
L 2900 2209 
L 2931 2363 
Q 2938 2388 2941 2417 
Q 2944 2447 2944 2509 
Q 2944 2788 2717 2942 
Q 2491 3097 2081 3097 
Q 1800 3097 1504 3025 
Q 1209 2953 897 2809 
L 997 3341 
Q 1322 3463 1633 3523 
Q 1944 3584 2234 3584 
Q 2853 3584 3176 3315 
Q 3500 3047 3500 2534 
Q 3500 2431 3484 2292 
Q 3469 2153 3438 1997 
z
M 2816 1759 
L 2241 1759 
Q 1534 1759 1195 1570 
Q 856 1381 856 984 
Q 856 709 1029 553 
Q 1203 397 1509 397 
Q 1978 397 2328 733 
Q 2678 1069 2791 1631 
L 2816 1759 
z
" transform="scale(0.015625)"/>
      <path id="DejaVuSans-Oblique-50" d="M 5747 2113 
L 5338 0 
L 4763 0 
L 5166 2094 
Q 5191 2228 5203 2325 
Q 5216 2422 5216 2491 
Q 5216 2772 5059 2928 
Q 4903 3084 4622 3084 
Q 4203 3084 3875 2770 
Q 3547 2456 3450 1953 
L 3066 0 
L 2491 0 
L 2900 2094 
Q 2925 2209 2937 2307 
Q 2950 2406 2950 2484 
Q 2950 2769 2794 2926 
Q 2638 3084 2363 3084 
Q 1938 3084 1609 2770 
Q 1281 2456 1184 1953 
L 800 0 
L 225 0 
L 909 3500 
L 1484 3500 
L 1375 2956 
Q 1609 3263 1923 3423 
Q 2238 3584 2597 3584 
Q 2978 3584 3223 3384 
Q 3469 3184 3519 2828 
Q 3781 3197 4126 3390 
Q 4472 3584 4856 3584 
Q 5306 3584 5551 3325 
Q 5797 3066 5797 2591 
Q 5797 2488 5784 2364 
Q 5772 2241 5747 2113 
z
" transform="scale(0.015625)"/>
      <path id="DejaVuSans-Oblique-48" d="M 3078 2063 
Q 3088 2113 3092 2166 
Q 3097 2219 3097 2272 
Q 3097 2653 2873 2875 
Q 2650 3097 2266 3097 
Q 1838 3097 1509 2826 
Q 1181 2556 1013 2059 
L 3078 2063 
z
M 3578 1613 
L 903 1613 
Q 884 1494 878 1425 
Q 872 1356 872 1306 
Q 872 872 1139 634 
Q 1406 397 1894 397 
Q 2269 397 2603 481 
Q 2938 566 3225 728 
L 3116 159 
Q 2806 34 2476 -28 
Q 2147 -91 1806 -91 
Q 1078 -91 686 257 
Q 294 606 294 1247 
Q 294 1794 489 2264 
Q 684 2734 1063 3103 
Q 1306 3334 1642 3459 
Q 1978 3584 2356 3584 
Q 2950 3584 3301 3228 
Q 3653 2872 3653 2272 
Q 3653 2128 3634 1964 
Q 3616 1800 3578 1613 
z
" transform="scale(0.015625)"/>
      <path id="DejaVuSans-Oblique-3" transform="scale(0.015625)"/>
      <path id="DejaVuSans-Oblique-55" d="M 2853 2969 
Q 2766 3016 2653 3041 
Q 2541 3066 2413 3066 
Q 1953 3066 1609 2717 
Q 1266 2369 1153 1784 
L 800 0 
L 225 0 
L 909 3500 
L 1484 3500 
L 1375 2956 
Q 1603 3259 1920 3421 
Q 2238 3584 2597 3584 
Q 2691 3584 2781 3573 
Q 2872 3563 2963 3538 
L 2853 2969 
z
" transform="scale(0.015625)"/>
      <path id="DejaVuSans-Oblique-4f" d="M 1172 4863 
L 1747 4863 
L 800 0 
L 225 0 
L 1172 4863 
z
" transform="scale(0.015625)"/>
      <path id="DejaVuSans-Oblique-4b" d="M 3566 2113 
L 3156 0 
L 2578 0 
L 2988 2091 
Q 3016 2238 3031 2350 
Q 3047 2463 3047 2528 
Q 3047 2791 2881 2937 
Q 2716 3084 2419 3084 
Q 1956 3084 1617 2771 
Q 1278 2459 1178 1941 
L 800 0 
L 225 0 
L 1172 4863 
L 1747 4863 
L 1375 2950 
Q 1594 3244 1934 3414 
Q 2275 3584 2650 3584 
Q 3113 3584 3367 3334 
Q 3622 3084 3622 2631 
Q 3622 2519 3608 2391 
Q 3594 2263 3566 2113 
z
" transform="scale(0.015625)"/>
      <path id="DejaVuSans-Oblique-53" d="M 3175 2156 
Q 3175 2616 2975 2859 
Q 2775 3103 2400 3103 
Q 2144 3103 1911 2972 
Q 1678 2841 1497 2591 
Q 1319 2344 1212 1994 
Q 1106 1644 1106 1300 
Q 1106 863 1306 627 
Q 1506 391 1875 391 
Q 2147 391 2380 519 
Q 2613 647 2778 891 
Q 2956 1147 3065 1494 
Q 3175 1841 3175 2156 
z
M 1394 2969 
Q 1625 3272 1939 3428 
Q 2253 3584 2638 3584 
Q 3175 3584 3472 3232 
Q 3769 2881 3769 2247 
Q 3769 1728 3584 1258 
Q 3400 788 3053 416 
Q 2822 169 2531 39 
Q 2241 -91 1919 -91 
Q 1547 -91 1294 64 
Q 1041 219 916 525 
L 556 -1331 
L -19 -1331 
L 922 3500 
L 1497 3500 
L 1394 2969 
z
" transform="scale(0.015625)"/>
     </defs>
     <use xlink:href="#DejaVuSans-Oblique-56"/>
     <use xlink:href="#DejaVuSans-Oblique-44" transform="translate(52.09375 0)"/>
     <use xlink:href="#DejaVuSans-Oblique-50" transform="translate(113.375 0)"/>
     <use xlink:href="#DejaVuSans-Oblique-48" transform="translate(210.78125 0)"/>
     <use xlink:href="#DejaVuSans-Oblique-3" transform="translate(272.3125 0)"/>
     <use xlink:href="#DejaVuSans-Oblique-55" transform="translate(304.09375 0)"/>
     <use xlink:href="#DejaVuSans-Oblique-48" transform="translate(345.203125 0)"/>
     <use xlink:href="#DejaVuSans-Oblique-44" transform="translate(406.734375 0)"/>
     <use xlink:href="#DejaVuSans-Oblique-4f" transform="translate(468.015625 0)"/>
     <use xlink:href="#DejaVuSans-Oblique-3" transform="translate(495.796875 0)"/>
     <use xlink:href="#DejaVuSans-Oblique-56" transform="translate(527.578125 0)"/>
     <use xlink:href="#DejaVuSans-Oblique-4b" transform="translate(579.671875 0)"/>
     <use xlink:href="#DejaVuSans-Oblique-44" transform="translate(643.046875 0)"/>
     <use xlink:href="#DejaVuSans-Oblique-53" transform="translate(704.328125 0)"/>
     <use xlink:href="#DejaVuSans-Oblique-48" transform="translate(767.8125 0)"/>
    </g>
   </g>
   <g id="patch_4">
    <path d="M 232.330529 126.683484 
C 235.396477 126.683484 238.337265 125.46537 240.505218 123.297417 
C 242.673171 121.129464 243.891285 118.188676 243.891285 115.122727 
C 243.891285 112.056779 242.673171 109.115991 240.505218 106.948038 
C 238.337265 104.780085 235.396477 103.561971 232.330529 103.561971 
C 229.26458 103.561971 226.323792 104.780085 224.155839 106.948038 
C 221.987886 109.115991 220.769772 112.056779 220.769772 115.122727 
C 220.769772 118.188676 221.987886 121.129464 224.155839 123.297417 
C 226.323792 125.46537 229.26458 126.683484 232.330529 126.683484 
z
" clip-path="url(#pac5e350de4)" style="fill: #059669; stroke: #ffffff; stroke-width: 1.2; stroke-linejoin: miter"/>
   </g>
   <g id="text_3">
    <!-- Customer far -->
    <g style="fill: #6b7280" transform="translate(206.126154 140.678085) scale(0.08 -0.08)">
     <defs>
      <path id="DejaVuSans-49" d="M 2375 4863 
L 2375 4384 
L 1825 4384 
Q 1516 4384 1395 4259 
Q 1275 4134 1275 3809 
L 1275 3500 
L 2222 3500 
L 2222 3053 
L 1275 3053 
L 1275 0 
L 697 0 
L 697 3053 
L 147 3053 
L 147 3500 
L 697 3500 
L 697 3744 
Q 697 4328 969 4595 
Q 1241 4863 1831 4863 
L 2375 4863 
z
" transform="scale(0.015625)"/>
     </defs>
     <use xlink:href="#DejaVuSans-26"/>
     <use xlink:href="#DejaVuSans-58" transform="translate(69.828125 0)"/>
     <use xlink:href="#DejaVuSans-56" transform="translate(133.203125 0)"/>
     <use xlink:href="#DejaVuSans-57" transform="translate(185.296875 0)"/>
     <use xlink:href="#DejaVuSans-52" transform="translate(224.5 0)"/>
     <use xlink:href="#DejaVuSans-50" transform="translate(285.6875 0)"/>
     <use xlink:href="#DejaVuSans-48" transform="translate(383.09375 0)"/>
     <use xlink:href="#DejaVuSans-55" transform="translate(444.625 0)"/>
     <use xlink:href="#DejaVuSans-3" transform="translate(485.734375 0)"/>
     <use xlink:href="#DejaVuSans-49" transform="translate(517.515625 0)"/>
     <use xlink:href="#DejaVuSans-44" transform="translate(552.71875 0)"/>
     <use xlink:href="#DejaVuSans-55" transform="translate(614 0)"/>
    </g>
   </g>
   <g id="text_4">
    <!-- same real shape -->
    <g style="fill: #6b7280" transform="translate(201.230138 95.651979) scale(0.075 -0.075)">
     <use xlink:href="#DejaVuSans-Oblique-56"/>
     <use xlink:href="#DejaVuSans-Oblique-44" transform="translate(52.09375 0)"/>
     <use xlink:href="#DejaVuSans-Oblique-50" transform="translate(113.375 0)"/>
     <use xlink:href="#DejaVuSans-Oblique-48" transform="translate(210.78125 0)"/>
     <use xlink:href="#DejaVuSans-Oblique-3" transform="translate(272.3125 0)"/>
     <use xlink:href="#DejaVuSans-Oblique-55" transform="translate(304.09375 0)"/>
     <use xlink:href="#DejaVuSans-Oblique-48" transform="translate(345.203125 0)"/>
     <use xlink:href="#DejaVuSans-Oblique-44" transform="translate(406.734375 0)"/>
     <use xlink:href="#DejaVuSans-Oblique-4f" transform="translate(468.015625 0)"/>
     <use xlink:href="#DejaVuSans-Oblique-3" transform="translate(495.796875 0)"/>
     <use xlink:href="#DejaVuSans-Oblique-56" transform="translate(527.578125 0)"/>
     <use xlink:href="#DejaVuSans-Oblique-4b" transform="translate(579.671875 0)"/>
     <use xlink:href="#DejaVuSans-Oblique-44" transform="translate(643.046875 0)"/>
     <use xlink:href="#DejaVuSans-Oblique-53" transform="translate(704.328125 0)"/>
     <use xlink:href="#DejaVuSans-Oblique-48" transform="translate(767.8125 0)"/>
    </g>
   </g>
   <g id="text_5">
    <!-- Impedance between customer and source adds up with distance -->
    <g style="fill: #6b7280" transform="translate(9.460614 166.841903) scale(0.085 -0.085)">
     <defs>
      <path id="DejaVuSans-Oblique-2c" d="M 1081 4666 
L 1716 4666 
L 806 0 
L 172 0 
L 1081 4666 
z
" transform="scale(0.015625)"/>
      <path id="DejaVuSans-Oblique-47" d="M 2675 525 
Q 2444 222 2128 65 
Q 1813 -91 1428 -91 
Q 903 -91 598 267 
Q 294 625 294 1247 
Q 294 1766 478 2236 
Q 663 2706 1013 3078 
Q 1244 3325 1534 3454 
Q 1825 3584 2144 3584 
Q 2481 3584 2739 3421 
Q 2997 3259 3138 2956 
L 3513 4863 
L 4091 4863 
L 3144 0 
L 2566 0 
L 2675 525 
z
M 891 1350 
Q 891 897 1095 644 
Q 1300 391 1663 391 
Q 1931 391 2161 520 
Q 2391 650 2566 903 
Q 2750 1166 2856 1509 
Q 2963 1853 2963 2188 
Q 2963 2622 2758 2865 
Q 2553 3109 2194 3109 
Q 1922 3109 1687 2981 
Q 1453 2853 1288 2613 
Q 1106 2353 998 2009 
Q 891 1666 891 1350 
z
" transform="scale(0.015625)"/>
      <path id="DejaVuSans-Oblique-51" d="M 3566 2113 
L 3156 0 
L 2578 0 
L 2988 2091 
Q 3016 2238 3031 2350 
Q 3047 2463 3047 2528 
Q 3047 2791 2881 2937 
Q 2716 3084 2419 3084 
Q 1956 3084 1622 2776 
Q 1288 2469 1184 1941 
L 800 0 
L 225 0 
L 903 3500 
L 1478 3500 
L 1363 2950 
Q 1603 3253 1940 3418 
Q 2278 3584 2650 3584 
Q 3113 3584 3367 3334 
Q 3622 3084 3622 2631 
Q 3622 2519 3608 2391 
Q 3594 2263 3566 2113 
z
" transform="scale(0.015625)"/>
      <path id="DejaVuSans-Oblique-46" d="M 3431 3366 
L 3316 2797 
Q 3109 2947 2876 3022 
Q 2644 3097 2394 3097 
Q 2119 3097 1870 3000 
Q 1622 2903 1453 2725 
Q 1184 2453 1037 2087 
Q 891 1722 891 1331 
Q 891 859 1127 628 
Q 1363 397 1844 397 
Q 2081 397 2348 469 
Q 2616 541 2906 684 
L 2797 116 
Q 2547 13 2283 -39 
Q 2019 -91 1741 -91 
Q 1044 -91 669 257 
Q 294 606 294 1253 
Q 294 1797 489 2255 
Q 684 2713 1069 3078 
Q 1331 3328 1684 3456 
Q 2038 3584 2456 3584 
Q 2700 3584 2940 3529 
Q 3181 3475 3431 3366 
z
" transform="scale(0.015625)"/>
      <path id="DejaVuSans-Oblique-45" d="M 3169 2138 
Q 3169 2591 2961 2847 
Q 2753 3103 2388 3103 
Q 2122 3103 1889 2973 
Q 1656 2844 1484 2597 
Q 1303 2338 1198 1995 
Q 1094 1653 1094 1313 
Q 1094 881 1298 636 
Q 1503 391 1863 391 
Q 2134 391 2365 517 
Q 2597 644 2772 891 
Q 2950 1147 3059 1487 
Q 3169 1828 3169 2138 
z
M 1381 2969 
Q 1594 3256 1914 3420 
Q 2234 3584 2584 3584 
Q 3122 3584 3439 3221 
Q 3756 2859 3756 2241 
Q 3756 1734 3570 1259 
Q 3384 784 3041 416 
Q 2816 172 2522 40 
Q 2228 -91 1906 -91 
Q 1566 -91 1316 65 
Q 1066 222 909 531 
L 806 0 
L 231 0 
L 1178 4863 
L 1753 4863 
L 1381 2969 
z
" transform="scale(0.015625)"/>
      <path id="DejaVuSans-Oblique-57" d="M 2706 3500 
L 2619 3053 
L 1472 3053 
L 1100 1153 
Q 1081 1047 1072 975 
Q 1063 903 1063 863 
Q 1063 663 1183 572 
Q 1303 481 1569 481 
L 2150 481 
L 2053 0 
L 1503 0 
Q 991 0 739 200 
Q 488 400 488 806 
Q 488 878 497 964 
Q 506 1050 525 1153 
L 897 3053 
L 409 3053 
L 500 3500 
L 978 3500 
L 1172 4494 
L 1747 4494 
L 1556 3500 
L 2706 3500 
z
" transform="scale(0.015625)"/>
      <path id="DejaVuSans-Oblique-5a" d="M 544 3500 
L 1113 3500 
L 1259 684 
L 2566 3500 
L 3231 3500 
L 3425 684 
L 4666 3500 
L 5241 3500 
L 3641 0 
L 2969 0 
L 2797 2900 
L 1459 0 
L 781 0 
L 544 3500 
z
" transform="scale(0.015625)"/>
      <path id="DejaVuSans-Oblique-58" d="M 428 1388 
L 838 3500 
L 1416 3500 
L 1006 1409 
Q 975 1256 961 1147 
Q 947 1038 947 966 
Q 947 700 1109 554 
Q 1272 409 1569 409 
Q 2031 409 2368 721 
Q 2706 1034 2809 1563 
L 3194 3500 
L 3769 3500 
L 3091 0 
L 2516 0 
L 2631 550 
Q 2388 244 2052 76 
Q 1716 -91 1338 -91 
Q 878 -91 622 161 
Q 366 413 366 863 
Q 366 956 381 1097 
Q 397 1238 428 1388 
z
" transform="scale(0.015625)"/>
      <path id="DejaVuSans-Oblique-52" d="M 1625 -91 
Q 1009 -91 651 289 
Q 294 669 294 1325 
Q 294 1706 417 2101 
Q 541 2497 738 2766 
Q 1047 3184 1428 3384 
Q 1809 3584 2291 3584 
Q 2888 3584 3255 3212 
Q 3622 2841 3622 2241 
Q 3622 1825 3500 1412 
Q 3378 1000 3181 728 
Q 2875 309 2494 109 
Q 2113 -91 1625 -91 
z
M 891 1344 
Q 891 869 1089 633 
Q 1288 397 1691 397 
Q 2269 397 2648 901 
Q 3028 1406 3028 2181 
Q 3028 2634 2825 2865 
Q 2622 3097 2228 3097 
Q 1903 3097 1650 2945 
Q 1397 2794 1197 2484 
Q 1050 2253 970 1956 
Q 891 1659 891 1344 
z
" transform="scale(0.015625)"/>
      <path id="DejaVuSans-Oblique-4c" d="M 1172 4863 
L 1747 4863 
L 1606 4134 
L 1031 4134 
L 1172 4863 
z
M 909 3500 
L 1484 3500 
L 800 0 
L 225 0 
L 909 3500 
z
" transform="scale(0.015625)"/>
     </defs>
     <use xlink:href="#DejaVuSans-Oblique-2c"/>
     <use xlink:href="#DejaVuSans-Oblique-50" transform="translate(29.5 0)"/>
     <use xlink:href="#DejaVuSans-Oblique-53" transform="translate(126.90625 0)"/>
     <use xlink:href="#DejaVuSans-Oblique-48" transform="translate(190.390625 0)"/>
     <use xlink:href="#DejaVuSans-Oblique-47" transform="translate(251.921875 0)"/>
     <use xlink:href="#DejaVuSans-Oblique-44" transform="translate(315.40625 0)"/>
     <use xlink:href="#DejaVuSans-Oblique-51" transform="translate(376.6875 0)"/>
     <use xlink:href="#DejaVuSans-Oblique-46" transform="translate(440.0625 0)"/>
     <use xlink:href="#DejaVuSans-Oblique-48" transform="translate(495.046875 0)"/>
     <use xlink:href="#DejaVuSans-Oblique-3" transform="translate(556.578125 0)"/>
     <use xlink:href="#DejaVuSans-Oblique-45" transform="translate(588.359375 0)"/>
     <use xlink:href="#DejaVuSans-Oblique-48" transform="translate(651.84375 0)"/>
     <use xlink:href="#DejaVuSans-Oblique-57" transform="translate(713.375 0)"/>
     <use xlink:href="#DejaVuSans-Oblique-5a" transform="translate(752.578125 0)"/>
     <use xlink:href="#DejaVuSans-Oblique-48" transform="translate(834.359375 0)"/>
     <use xlink:href="#DejaVuSans-Oblique-48" transform="translate(895.890625 0)"/>
     <use xlink:href="#DejaVuSans-Oblique-51" transform="translate(957.421875 0)"/>
     <use xlink:href="#DejaVuSans-Oblique-3" transform="translate(1020.796875 0)"/>
     <use xlink:href="#DejaVuSans-Oblique-46" transform="translate(1052.578125 0)"/>
     <use xlink:href="#DejaVuSans-Oblique-58" transform="translate(1107.5625 0)"/>
     <use xlink:href="#DejaVuSans-Oblique-56" transform="translate(1170.9375 0)"/>
     <use xlink:href="#DejaVuSans-Oblique-57" transform="translate(1223.03125 0)"/>
     <use xlink:href="#DejaVuSans-Oblique-52" transform="translate(1262.234375 0)"/>
     <use xlink:href="#DejaVuSans-Oblique-50" transform="translate(1323.421875 0)"/>
     <use xlink:href="#DejaVuSans-Oblique-48" transform="translate(1420.828125 0)"/>
     <use xlink:href="#DejaVuSans-Oblique-55" transform="translate(1482.359375 0)"/>
     <use xlink:href="#DejaVuSans-Oblique-3" transform="translate(1523.46875 0)"/>
     <use xlink:href="#DejaVuSans-Oblique-44" transform="translate(1555.25 0)"/>
     <use xlink:href="#DejaVuSans-Oblique-51" transform="translate(1616.53125 0)"/>
     <use xlink:href="#DejaVuSans-Oblique-47" transform="translate(1679.90625 0)"/>
     <use xlink:href="#DejaVuSans-Oblique-3" transform="translate(1743.390625 0)"/>
     <use xlink:href="#DejaVuSans-Oblique-56" transform="translate(1775.171875 0)"/>
     <use xlink:href="#DejaVuSans-Oblique-52" transform="translate(1827.265625 0)"/>
     <use xlink:href="#DejaVuSans-Oblique-58" transform="translate(1888.453125 0)"/>
     <use xlink:href="#DejaVuSans-Oblique-55" transform="translate(1951.828125 0)"/>
     <use xlink:href="#DejaVuSans-Oblique-46" transform="translate(1992.9375 0)"/>
     <use xlink:href="#DejaVuSans-Oblique-48" transform="translate(2047.921875 0)"/>
     <use xlink:href="#DejaVuSans-Oblique-3" transform="translate(2109.453125 0)"/>
     <use xlink:href="#DejaVuSans-Oblique-44" transform="translate(2141.234375 0)"/>
     <use xlink:href="#DejaVuSans-Oblique-47" transform="translate(2202.515625 0)"/>
     <use xlink:href="#DejaVuSans-Oblique-47" transform="translate(2266 0)"/>
     <use xlink:href="#DejaVuSans-Oblique-56" transform="translate(2329.484375 0)"/>
     <use xlink:href="#DejaVuSans-Oblique-3" transform="translate(2381.578125 0)"/>
     <use xlink:href="#DejaVuSans-Oblique-58" transform="translate(2413.359375 0)"/>
     <use xlink:href="#DejaVuSans-Oblique-53" transform="translate(2476.734375 0)"/>
     <use xlink:href="#DejaVuSans-Oblique-3" transform="translate(2540.21875 0)"/>
     <use xlink:href="#DejaVuSans-Oblique-5a" transform="translate(2572 0)"/>
     <use xlink:href="#DejaVuSans-Oblique-4c" transform="translate(2653.78125 0)"/>
     <use xlink:href="#DejaVuSans-Oblique-57" transform="translate(2681.5625 0)"/>
     <use xlink:href="#DejaVuSans-Oblique-4b" transform="translate(2720.765625 0)"/>
     <use xlink:href="#DejaVuSans-Oblique-3" transform="translate(2784.140625 0)"/>
     <use xlink:href="#DejaVuSans-Oblique-47" transform="translate(2815.921875 0)"/>
     <use xlink:href="#DejaVuSans-Oblique-4c" transform="translate(2879.40625 0)"/>
     <use xlink:href="#DejaVuSans-Oblique-56" transform="translate(2907.1875 0)"/>
     <use xlink:href="#DejaVuSans-Oblique-57" transform="translate(2959.28125 0)"/>
     <use xlink:href="#DejaVuSans-Oblique-44" transform="translate(2998.484375 0)"/>
     <use xlink:href="#DejaVuSans-Oblique-51" transform="translate(3059.765625 0)"/>
     <use xlink:href="#DejaVuSans-Oblique-46" transform="translate(3123.140625 0)"/>
     <use xlink:href="#DejaVuSans-Oblique-48" transform="translate(3178.125 0)"/>
    </g>
   </g>
   <g id="text_6">
    <!-- 1.01 pu -->
    <g style="fill: #059669" transform="translate(103.714209 57.318943) scale(0.09 -0.09)">
     <defs>
      <path id="DejaVuSans-Bold-14" d="M 750 831 
L 1813 831 
L 1813 3847 
L 722 3622 
L 722 4441 
L 1806 4666 
L 2950 4666 
L 2950 831 
L 4013 831 
L 4013 0 
L 750 0 
L 750 831 
z
" transform="scale(0.015625)"/>
      <path id="DejaVuSans-Bold-11" d="M 653 1209 
L 1778 1209 
L 1778 0 
L 653 0 
L 653 1209 
z
" transform="scale(0.015625)"/>
      <path id="DejaVuSans-Bold-13" d="M 2944 2338 
Q 2944 3213 2780 3570 
Q 2616 3928 2228 3928 
Q 1841 3928 1675 3570 
Q 1509 3213 1509 2338 
Q 1509 1453 1675 1090 
Q 1841 728 2228 728 
Q 2613 728 2778 1090 
Q 2944 1453 2944 2338 
z
M 4147 2328 
Q 4147 1169 3647 539 
Q 3147 -91 2228 -91 
Q 1306 -91 806 539 
Q 306 1169 306 2328 
Q 306 3491 806 4120 
Q 1306 4750 2228 4750 
Q 3147 4750 3647 4120 
Q 4147 3491 4147 2328 
z
" transform="scale(0.015625)"/>
      <path id="DejaVuSans-Bold-3" transform="scale(0.015625)"/>
      <path id="DejaVuSans-Bold-53" d="M 1656 506 
L 1656 -1331 
L 538 -1331 
L 538 3500 
L 1656 3500 
L 1656 2988 
Q 1888 3294 2169 3439 
Q 2450 3584 2816 3584 
Q 3463 3584 3878 3070 
Q 4294 2556 4294 1747 
Q 4294 938 3878 423 
Q 3463 -91 2816 -91 
Q 2450 -91 2169 54 
Q 1888 200 1656 506 
z
M 2400 2772 
Q 2041 2772 1848 2508 
Q 1656 2244 1656 1747 
Q 1656 1250 1848 986 
Q 2041 722 2400 722 
Q 2759 722 2948 984 
Q 3138 1247 3138 1747 
Q 3138 2247 2948 2509 
Q 2759 2772 2400 2772 
z
" transform="scale(0.015625)"/>
      <path id="DejaVuSans-Bold-58" d="M 500 1363 
L 500 3500 
L 1625 3500 
L 1625 3150 
Q 1625 2866 1622 2436 
Q 1619 2006 1619 1863 
Q 1619 1441 1641 1255 
Q 1663 1069 1716 984 
Q 1784 875 1895 815 
Q 2006 756 2150 756 
Q 2500 756 2700 1025 
Q 2900 1294 2900 1772 
L 2900 3500 
L 4019 3500 
L 4019 0 
L 2900 0 
L 2900 506 
Q 2647 200 2364 54 
Q 2081 -91 1741 -91 
Q 1134 -91 817 281 
Q 500 653 500 1363 
z
" transform="scale(0.015625)"/>
     </defs>
     <use xlink:href="#DejaVuSans-Bold-14"/>
     <use xlink:href="#DejaVuSans-Bold-11" transform="translate(69.578125 0)"/>
     <use xlink:href="#DejaVuSans-Bold-13" transform="translate(107.5625 0)"/>
     <use xlink:href="#DejaVuSans-Bold-14" transform="translate(177.140625 0)"/>
     <use xlink:href="#DejaVuSans-Bold-3" transform="translate(246.71875 0)"/>
     <use xlink:href="#DejaVuSans-Bold-53" transform="translate(281.53125 0)"/>
     <use xlink:href="#DejaVuSans-Bold-58" transform="translate(353.109375 0)"/>
    </g>
   </g>
   <g id="text_7">
    <!-- 0.96 pu -->
    <g style="fill: #dc2626" transform="translate(213.237169 57.318943) scale(0.09 -0.09)">
     <defs>
      <path id="DejaVuSans-Bold-1c" d="M 641 103 
L 641 966 
Q 928 831 1190 764 
Q 1453 697 1709 697 
Q 2247 697 2547 995 
Q 2847 1294 2900 1881 
Q 2688 1725 2447 1647 
Q 2206 1569 1925 1569 
Q 1209 1569 770 1986 
Q 331 2403 331 3084 
Q 331 3838 820 4291 
Q 1309 4744 2131 4744 
Q 3044 4744 3544 4128 
Q 4044 3513 4044 2388 
Q 4044 1231 3459 570 
Q 2875 -91 1856 -91 
Q 1528 -91 1228 -42 
Q 928 6 641 103 
z
M 2125 2350 
Q 2441 2350 2600 2554 
Q 2759 2759 2759 3169 
Q 2759 3575 2600 3781 
Q 2441 3988 2125 3988 
Q 1809 3988 1650 3781 
Q 1491 3575 1491 3169 
Q 1491 2759 1650 2554 
Q 1809 2350 2125 2350 
z
" transform="scale(0.015625)"/>
      <path id="DejaVuSans-Bold-19" d="M 2316 2303 
Q 2000 2303 1842 2098 
Q 1684 1894 1684 1484 
Q 1684 1075 1842 870 
Q 2000 666 2316 666 
Q 2634 666 2792 870 
Q 2950 1075 2950 1484 
Q 2950 1894 2792 2098 
Q 2634 2303 2316 2303 
z
M 3803 4544 
L 3803 3681 
Q 3506 3822 3243 3889 
Q 2981 3956 2731 3956 
Q 2194 3956 1894 3657 
Q 1594 3359 1544 2772 
Q 1750 2925 1990 3001 
Q 2231 3078 2516 3078 
Q 3231 3078 3670 2659 
Q 4109 2241 4109 1563 
Q 4109 813 3618 361 
Q 3128 -91 2303 -91 
Q 1394 -91 895 523 
Q 397 1138 397 2266 
Q 397 3422 980 4083 
Q 1563 4744 2578 4744 
Q 2900 4744 3203 4694 
Q 3506 4644 3803 4544 
z
" transform="scale(0.015625)"/>
     </defs>
     <use xlink:href="#DejaVuSans-Bold-13"/>
     <use xlink:href="#DejaVuSans-Bold-11" transform="translate(69.578125 0)"/>
     <use xlink:href="#DejaVuSans-Bold-1c" transform="translate(107.5625 0)"/>
     <use xlink:href="#DejaVuSans-Bold-19" transform="translate(177.140625 0)"/>
     <use xlink:href="#DejaVuSans-Bold-3" transform="translate(246.71875 0)"/>
     <use xlink:href="#DejaVuSans-Bold-53" transform="translate(281.53125 0)"/>
     <use xlink:href="#DejaVuSans-Bold-58" transform="translate(353.109375 0)"/>
    </g>
   </g>
   <g id="patch_5">
    <path d="M 124.809652 65.837396 
Q 177.570941 65.837396 228.543377 65.837396 
" style="fill: none; stroke: #ea580c; stroke-width: 1.6; stroke-linecap: round"/>
    <path d="M 224.543377 63.837396 
L 228.543377 65.837396 
L 224.543377 67.837396 
z
" style="fill: #ea580c; stroke: #ea580c; stroke-width: 1.6; stroke-linecap: round"/>
   </g>
   <g id="text_8">
    <!-- voltage drifts with distance -->
    <g style="fill: #ea580c" transform="translate(126.428424 40.282038) scale(0.075 -0.075)">
     <defs>
      <path id="DejaVuSans-Oblique-59" d="M 459 3500 
L 1069 3500 
L 1581 525 
L 3256 3500 
L 3866 3500 
L 1875 0 
L 1100 0 
L 459 3500 
z
" transform="scale(0.015625)"/>
      <path id="DejaVuSans-Oblique-4a" d="M 3816 3500 
L 3219 434 
Q 3047 -456 2561 -893 
Q 2075 -1331 1253 -1331 
Q 950 -1331 690 -1286 
Q 431 -1241 206 -1147 
L 313 -588 
Q 525 -725 762 -790 
Q 1000 -856 1269 -856 
Q 1816 -856 2167 -557 
Q 2519 -259 2631 300 
L 2681 563 
Q 2441 288 2122 144 
Q 1803 0 1434 0 
Q 903 0 598 351 
Q 294 703 294 1319 
Q 294 1803 478 2267 
Q 663 2731 997 3091 
Q 1219 3328 1514 3456 
Q 1809 3584 2131 3584 
Q 2484 3584 2746 3420 
Q 3009 3256 3138 2956 
L 3238 3500 
L 3816 3500 
z
M 2950 2216 
Q 2950 2641 2750 2872 
Q 2550 3103 2181 3103 
Q 1953 3103 1747 3012 
Q 1541 2922 1394 2759 
Q 1156 2491 1023 2127 
Q 891 1763 891 1375 
Q 891 944 1092 712 
Q 1294 481 1672 481 
Q 2219 481 2584 976 
Q 2950 1472 2950 2216 
z
" transform="scale(0.015625)"/>
      <path id="DejaVuSans-Oblique-49" d="M 3059 4863 
L 2969 4384 
L 2419 4384 
Q 2106 4384 1964 4261 
Q 1822 4138 1753 3809 
L 1691 3500 
L 2638 3500 
L 2553 3053 
L 1606 3053 
L 1013 0 
L 434 0 
L 1031 3053 
L 481 3053 
L 563 3500 
L 1113 3500 
L 1159 3744 
Q 1278 4363 1576 4613 
Q 1875 4863 2516 4863 
L 3059 4863 
z
" transform="scale(0.015625)"/>
     </defs>
     <use xlink:href="#DejaVuSans-Oblique-59"/>
     <use xlink:href="#DejaVuSans-Oblique-52" transform="translate(59.1875 0)"/>
     <use xlink:href="#DejaVuSans-Oblique-4f" transform="translate(120.375 0)"/>
     <use xlink:href="#DejaVuSans-Oblique-57" transform="translate(148.15625 0)"/>
     <use xlink:href="#DejaVuSans-Oblique-44" transform="translate(187.359375 0)"/>
     <use xlink:href="#DejaVuSans-Oblique-4a" transform="translate(248.640625 0)"/>
     <use xlink:href="#DejaVuSans-Oblique-48" transform="translate(312.125 0)"/>
     <use xlink:href="#DejaVuSans-Oblique-3" transform="translate(373.65625 0)"/>
     <use xlink:href="#DejaVuSans-Oblique-47" transform="translate(405.4375 0)"/>
     <use xlink:href="#DejaVuSans-Oblique-55" transform="translate(468.921875 0)"/>
     <use xlink:href="#DejaVuSans-Oblique-4c" transform="translate(510.03125 0)"/>
     <use xlink:href="#DejaVuSans-Oblique-49" transform="translate(537.8125 0)"/>
     <use xlink:href="#DejaVuSans-Oblique-57" transform="translate(573.015625 0)"/>
     <use xlink:href="#DejaVuSans-Oblique-56" transform="translate(612.21875 0)"/>
     <use xlink:href="#DejaVuSans-Oblique-3" transform="translate(664.3125 0)"/>
     <use xlink:href="#DejaVuSans-Oblique-5a" transform="translate(696.09375 0)"/>
     <use xlink:href="#DejaVuSans-Oblique-4c" transform="translate(777.875 0)"/>
     <use xlink:href="#DejaVuSans-Oblique-57" transform="translate(805.65625 0)"/>
     <use xlink:href="#DejaVuSans-Oblique-4b" transform="translate(844.859375 0)"/>
     <use xlink:href="#DejaVuSans-Oblique-3" transform="translate(908.234375 0)"/>
     <use xlink:href="#DejaVuSans-Oblique-47" transform="translate(940.015625 0)"/>
     <use xlink:href="#DejaVuSans-Oblique-4c" transform="translate(1003.5 0)"/>
     <use xlink:href="#DejaVuSans-Oblique-56" transform="translate(1031.28125 0)"/>
     <use xlink:href="#DejaVuSans-Oblique-57" transform="translate(1083.375 0)"/>
     <use xlink:href="#DejaVuSans-Oblique-44" transform="translate(1122.578125 0)"/>
     <use xlink:href="#DejaVuSans-Oblique-51" transform="translate(1183.859375 0)"/>
     <use xlink:href="#DejaVuSans-Oblique-46" transform="translate(1247.234375 0)"/>
     <use xlink:href="#DejaVuSans-Oblique-48" transform="translate(1302.21875 0)"/>
    </g>
   </g>
   <g id="text_9">
    <!-- Voltage: depends on where you are -->
    <g style="fill: #1e293b" transform="translate(22.853778 15.938203) scale(0.115 -0.115)">
     <defs>
      <path id="DejaVuSans-Bold-39" d="M 31 4666 
L 1241 4666 
L 2478 1222 
L 3713 4666 
L 4922 4666 
L 3194 0 
L 1759 0 
L 31 4666 
z
" transform="scale(0.015625)"/>
      <path id="DejaVuSans-Bold-52" d="M 2203 2784 
Q 1831 2784 1636 2517 
Q 1441 2250 1441 1747 
Q 1441 1244 1636 976 
Q 1831 709 2203 709 
Q 2569 709 2762 976 
Q 2956 1244 2956 1747 
Q 2956 2250 2762 2517 
Q 2569 2784 2203 2784 
z
M 2203 3584 
Q 3106 3584 3614 3096 
Q 4122 2609 4122 1747 
Q 4122 884 3614 396 
Q 3106 -91 2203 -91 
Q 1297 -91 786 396 
Q 275 884 275 1747 
Q 275 2609 786 3096 
Q 1297 3584 2203 3584 
z
" transform="scale(0.015625)"/>
      <path id="DejaVuSans-Bold-4f" d="M 538 4863 
L 1656 4863 
L 1656 0 
L 538 0 
L 538 4863 
z
" transform="scale(0.015625)"/>
      <path id="DejaVuSans-Bold-57" d="M 1759 4494 
L 1759 3500 
L 2913 3500 
L 2913 2700 
L 1759 2700 
L 1759 1216 
Q 1759 972 1856 886 
Q 1953 800 2241 800 
L 2816 800 
L 2816 0 
L 1856 0 
Q 1194 0 917 276 
Q 641 553 641 1216 
L 641 2700 
L 84 2700 
L 84 3500 
L 641 3500 
L 641 4494 
L 1759 4494 
z
" transform="scale(0.015625)"/>
      <path id="DejaVuSans-Bold-44" d="M 2106 1575 
Q 1756 1575 1579 1456 
Q 1403 1338 1403 1106 
Q 1403 894 1545 773 
Q 1688 653 1941 653 
Q 2256 653 2472 879 
Q 2688 1106 2688 1447 
L 2688 1575 
L 2106 1575 
z
M 3816 1997 
L 3816 0 
L 2688 0 
L 2688 519 
Q 2463 200 2181 54 
Q 1900 -91 1497 -91 
Q 953 -91 614 226 
Q 275 544 275 1050 
Q 275 1666 698 1953 
Q 1122 2241 2028 2241 
L 2688 2241 
L 2688 2328 
Q 2688 2594 2478 2717 
Q 2269 2841 1825 2841 
Q 1466 2841 1156 2769 
Q 847 2697 581 2553 
L 581 3406 
Q 941 3494 1303 3539 
Q 1666 3584 2028 3584 
Q 2975 3584 3395 3211 
Q 3816 2838 3816 1997 
z
" transform="scale(0.015625)"/>
      <path id="DejaVuSans-Bold-4a" d="M 2919 594 
Q 2688 288 2409 144 
Q 2131 0 1766 0 
Q 1125 0 706 504 
Q 288 1009 288 1791 
Q 288 2575 706 3076 
Q 1125 3578 1766 3578 
Q 2131 3578 2409 3434 
Q 2688 3291 2919 2981 
L 2919 3500 
L 4044 3500 
L 4044 353 
Q 4044 -491 3511 -936 
Q 2978 -1381 1966 -1381 
Q 1638 -1381 1331 -1331 
Q 1025 -1281 716 -1178 
L 716 -306 
Q 1009 -475 1290 -558 
Q 1572 -641 1856 -641 
Q 2406 -641 2662 -400 
Q 2919 -159 2919 353 
L 2919 594 
z
M 2181 2772 
Q 1834 2772 1640 2515 
Q 1447 2259 1447 1791 
Q 1447 1309 1634 1061 
Q 1822 813 2181 813 
Q 2531 813 2725 1069 
Q 2919 1325 2919 1791 
Q 2919 2259 2725 2515 
Q 2531 2772 2181 2772 
z
" transform="scale(0.015625)"/>
      <path id="DejaVuSans-Bold-48" d="M 4031 1759 
L 4031 1441 
L 1416 1441 
Q 1456 1047 1700 850 
Q 1944 653 2381 653 
Q 2734 653 3104 758 
Q 3475 863 3866 1075 
L 3866 213 
Q 3469 63 3072 -14 
Q 2675 -91 2278 -91 
Q 1328 -91 801 392 
Q 275 875 275 1747 
Q 275 2603 792 3093 
Q 1309 3584 2216 3584 
Q 3041 3584 3536 3087 
Q 4031 2591 4031 1759 
z
M 2881 2131 
Q 2881 2450 2695 2645 
Q 2509 2841 2209 2841 
Q 1884 2841 1681 2658 
Q 1478 2475 1428 2131 
L 2881 2131 
z
" transform="scale(0.015625)"/>
      <path id="DejaVuSans-Bold-1d" d="M 716 3500 
L 1844 3500 
L 1844 2291 
L 716 2291 
L 716 3500 
z
M 716 1209 
L 1844 1209 
L 1844 0 
L 716 0 
L 716 1209 
z
" transform="scale(0.015625)"/>
      <path id="DejaVuSans-Bold-47" d="M 2919 2988 
L 2919 4863 
L 4044 4863 
L 4044 0 
L 2919 0 
L 2919 506 
Q 2688 197 2409 53 
Q 2131 -91 1766 -91 
Q 1119 -91 703 423 
Q 288 938 288 1747 
Q 288 2556 703 3070 
Q 1119 3584 1766 3584 
Q 2128 3584 2408 3439 
Q 2688 3294 2919 2988 
z
M 2181 722 
Q 2541 722 2730 984 
Q 2919 1247 2919 1747 
Q 2919 2247 2730 2509 
Q 2541 2772 2181 2772 
Q 1825 2772 1636 2509 
Q 1447 2247 1447 1747 
Q 1447 1247 1636 984 
Q 1825 722 2181 722 
z
" transform="scale(0.015625)"/>
      <path id="DejaVuSans-Bold-51" d="M 4056 2131 
L 4056 0 
L 2931 0 
L 2931 347 
L 2931 1631 
Q 2931 2084 2911 2256 
Q 2891 2428 2841 2509 
Q 2775 2619 2662 2680 
Q 2550 2741 2406 2741 
Q 2056 2741 1856 2470 
Q 1656 2200 1656 1722 
L 1656 0 
L 538 0 
L 538 3500 
L 1656 3500 
L 1656 2988 
Q 1909 3294 2193 3439 
Q 2478 3584 2822 3584 
Q 3428 3584 3742 3212 
Q 4056 2841 4056 2131 
z
" transform="scale(0.015625)"/>
      <path id="DejaVuSans-Bold-56" d="M 3272 3391 
L 3272 2541 
Q 2913 2691 2578 2766 
Q 2244 2841 1947 2841 
Q 1628 2841 1473 2761 
Q 1319 2681 1319 2516 
Q 1319 2381 1436 2309 
Q 1553 2238 1856 2203 
L 2053 2175 
Q 2913 2066 3209 1816 
Q 3506 1566 3506 1031 
Q 3506 472 3093 190 
Q 2681 -91 1863 -91 
Q 1516 -91 1145 -36 
Q 775 19 384 128 
L 384 978 
Q 719 816 1070 734 
Q 1422 653 1784 653 
Q 2113 653 2278 743 
Q 2444 834 2444 1013 
Q 2444 1163 2330 1236 
Q 2216 1309 1875 1350 
L 1678 1375 
Q 931 1469 631 1722 
Q 331 1975 331 2491 
Q 331 3047 712 3315 
Q 1094 3584 1881 3584 
Q 2191 3584 2531 3537 
Q 2872 3491 3272 3391 
z
" transform="scale(0.015625)"/>
      <path id="DejaVuSans-Bold-5a" d="M 225 3500 
L 1313 3500 
L 1900 1088 
L 2491 3500 
L 3425 3500 
L 4013 1113 
L 4603 3500 
L 5691 3500 
L 4769 0 
L 3547 0 
L 2956 2406 
L 2369 0 
L 1147 0 
L 225 3500 
z
" transform="scale(0.015625)"/>
      <path id="DejaVuSans-Bold-4b" d="M 4056 2131 
L 4056 0 
L 2931 0 
L 2931 347 
L 2931 1625 
Q 2931 2084 2911 2256 
Q 2891 2428 2841 2509 
Q 2775 2619 2662 2680 
Q 2550 2741 2406 2741 
Q 2056 2741 1856 2470 
Q 1656 2200 1656 1722 
L 1656 0 
L 538 0 
L 538 4863 
L 1656 4863 
L 1656 2988 
Q 1909 3294 2193 3439 
Q 2478 3584 2822 3584 
Q 3428 3584 3742 3212 
Q 4056 2841 4056 2131 
z
" transform="scale(0.015625)"/>
      <path id="DejaVuSans-Bold-55" d="M 3138 2547 
Q 2991 2616 2845 2648 
Q 2700 2681 2553 2681 
Q 2122 2681 1889 2404 
Q 1656 2128 1656 1613 
L 1656 0 
L 538 0 
L 538 3500 
L 1656 3500 
L 1656 2925 
Q 1872 3269 2151 3426 
Q 2431 3584 2822 3584 
Q 2878 3584 2943 3579 
Q 3009 3575 3134 3559 
L 3138 2547 
z
" transform="scale(0.015625)"/>
      <path id="DejaVuSans-Bold-5c" d="M 78 3500 
L 1197 3500 
L 2138 1125 
L 2938 3500 
L 4056 3500 
L 2584 -331 
Q 2363 -916 2067 -1148 
Q 1772 -1381 1288 -1381 
L 641 -1381 
L 641 -647 
L 991 -647 
Q 1275 -647 1404 -556 
Q 1534 -466 1606 -231 
L 1638 -134 
L 78 3500 
z
" transform="scale(0.015625)"/>
     </defs>
     <use xlink:href="#DejaVuSans-Bold-39"/>
     <use xlink:href="#DejaVuSans-Bold-52" transform="translate(71.921875 0)"/>
     <use xlink:href="#DejaVuSans-Bold-4f" transform="translate(140.625 0)"/>
     <use xlink:href="#DejaVuSans-Bold-57" transform="translate(174.90625 0)"/>
     <use xlink:href="#DejaVuSans-Bold-44" transform="translate(222.703125 0)"/>
     <use xlink:href="#DejaVuSans-Bold-4a" transform="translate(290.1875 0)"/>
     <use xlink:href="#DejaVuSans-Bold-48" transform="translate(361.765625 0)"/>
     <use xlink:href="#DejaVuSans-Bold-1d" transform="translate(429.59375 0)"/>
     <use xlink:href="#DejaVuSans-Bold-3" transform="translate(469.578125 0)"/>
     <use xlink:href="#DejaVuSans-Bold-47" transform="translate(504.390625 0)"/>
     <use xlink:href="#DejaVuSans-Bold-48" transform="translate(575.96875 0)"/>
     <use xlink:href="#DejaVuSans-Bold-53" transform="translate(643.796875 0)"/>
     <use xlink:href="#DejaVuSans-Bold-48" transform="translate(715.375 0)"/>
     <use xlink:href="#DejaVuSans-Bold-51" transform="translate(783.203125 0)"/>
     <use xlink:href="#DejaVuSans-Bold-47" transform="translate(854.390625 0)"/>
     <use xlink:href="#DejaVuSans-Bold-56" transform="translate(925.96875 0)"/>
     <use xlink:href="#DejaVuSans-Bold-3" transform="translate(985.484375 0)"/>
     <use xlink:href="#DejaVuSans-Bold-52" transform="translate(1020.296875 0)"/>
     <use xlink:href="#DejaVuSans-Bold-51" transform="translate(1089 0)"/>
     <use xlink:href="#DejaVuSans-Bold-3" transform="translate(1160.1875 0)"/>
     <use xlink:href="#DejaVuSans-Bold-5a" transform="translate(1195 0)"/>
     <use xlink:href="#DejaVuSans-Bold-4b" transform="translate(1287.390625 0)"/>
     <use xlink:href="#DejaVuSans-Bold-48" transform="translate(1358.578125 0)"/>
     <use xlink:href="#DejaVuSans-Bold-55" transform="translate(1426.40625 0)"/>
     <use xlink:href="#DejaVuSans-Bold-48" transform="translate(1475.71875 0)"/>
     <use xlink:href="#DejaVuSans-Bold-3" transform="translate(1543.546875 0)"/>
     <use xlink:href="#DejaVuSans-Bold-5c" transform="translate(1578.359375 0)"/>
     <use xlink:href="#DejaVuSans-Bold-52" transform="translate(1643.546875 0)"/>
     <use xlink:href="#DejaVuSans-Bold-58" transform="translate(1712.25 0)"/>
     <use xlink:href="#DejaVuSans-Bold-3" transform="translate(1783.4375 0)"/>
     <use xlink:href="#DejaVuSans-Bold-44" transform="translate(1818.25 0)"/>
     <use xlink:href="#DejaVuSans-Bold-55" transform="translate(1885.734375 0)"/>
     <use xlink:href="#DejaVuSans-Bold-48" transform="translate(1935.046875 0)"/>
    </g>
   </g>
   <g id="text_10">
    <!--  -->
    <g style="fill: #ffffff" transform="translate(36.207653 122.622727) scale(0.15 -0.15)">
     <defs>
      <path id="bootstrap-icons-499" d="M 811 5611 
Q 469 5611 234 5376 
Q 0 5141 0 4800 
L 0 4395 
Q 0 4075 234 3840 
Q 469 3605 789 3605 
L 3008 3605 
L 3008 2411 
Q 2752 2411 2581 2229 
Q 2411 2048 2411 1792 
L 192 1792 
Q 107 1792 53 1738 
Q 0 1685 0 1600 
Q 0 1515 53 1461 
Q 107 1408 192 1408 
L 2411 1408 
Q 2411 1152 2581 981 
Q 2752 811 3008 789 
L 3392 789 
Q 3648 789 3829 970 
Q 4011 1152 3989 1408 
L 6208 1408 
Q 6293 1408 6346 1461 
Q 6400 1515 6400 1600 
Q 6400 1685 6346 1738 
Q 6293 1792 6208 1792 
L 4011 1792 
Q 3989 2048 3818 2218 
Q 3648 2389 3392 2389 
L 3392 3605 
L 5611 3605 
Q 5931 3605 6165 3840 
Q 6400 4075 6400 4395 
L 6400 4800 
Q 6400 5141 6165 5376 
Q 5931 5611 5589 5611 
L 811 5611 
z
M 1003 4395 
Q 917 4395 864 4459 
Q 811 4523 811 4608 
Q 811 4693 864 4746 
Q 917 4800 1002 4800 
Q 1088 4800 1141 4746 
Q 1195 4693 1195 4608 
Q 1195 4523 1141 4459 
Q 1088 4395 1003 4395 
z
M 1792 4395 
Q 1707 4395 1653 4459 
Q 1600 4523 1600 4608 
Q 1600 4693 1653 4746 
Q 1707 4800 1792 4800 
Q 1877 4800 1941 4746 
Q 2005 4693 2005 4608 
Q 2005 4523 1941 4459 
Q 1877 4395 1792 4395 
z
" transform="scale(0.015625)"/>
     </defs>
     <use xlink:href="#bootstrap-icons-499"/>
    </g>
   </g>
   <g id="text_11">
    <!--  -->
    <g style="fill: #ffffff" transform="translate(116.807569 121.122727) scale(0.12 -0.12)">
     <defs>
      <path id="bootstrap-icons-4c8" d="M 3477 5803 
Q 3371 5909 3200 5909 
Q 3029 5909 2923 5803 
L 256 3136 
Q 192 3093 192 3008 
Q 192 2923 256 2859 
Q 320 2795 405 2795 
Q 491 2795 533 2859 
L 3200 5525 
L 5867 2859 
Q 5909 2795 5994 2795 
Q 6080 2795 6144 2859 
Q 6208 2923 6208 3008 
Q 6208 3093 6144 3136 
L 5205 4075 
L 5205 5397 
Q 5205 5483 5141 5547 
Q 5077 5611 4992 5611 
L 4608 5611 
Q 4523 5611 4459 5547 
Q 4395 5483 4395 5397 
L 4395 4885 
L 3477 5803 
z
M 3200 5077 
L 5611 2688 
L 5611 1003 
Q 5611 747 5429 576 
Q 5248 405 4992 405 
L 1408 405 
Q 1152 405 970 576 
Q 789 747 789 1003 
L 789 2688 
L 3200 5077 
z
" transform="scale(0.015625)"/>
     </defs>
     <use xlink:href="#bootstrap-icons-4c8"/>
    </g>
   </g>
   <g id="text_12">
    <!--  -->
    <g style="fill: #ffffff" transform="translate(226.330529 121.122727) scale(0.12 -0.12)">
     <use xlink:href="#bootstrap-icons-4c8"/>
    </g>
   </g>
  </g>
  <g id="axes_2">
   <g id="line2d_2">
    <path d="M 376.707653 115.122727 
L 565.330529 115.122727 
" clip-path="url(#pc539415933)" style="fill: none; stroke: #6b7280; stroke-width: 2; stroke-linecap: square"/>
   </g>
   <g id="patch_6">
    <path d="M 450.3603 66.972791 
Q 417.316136 52.710716 384.211088 61.30056 
" clip-path="url(#pc539415933)" style="fill: none; stroke: #0369a1; stroke-width: 1.6; stroke-linecap: round"/>
    <path d="M 390.334825 62.604341 
L 384.211088 61.30056 
L 388.928355 57.183839 
z
" clip-path="url(#pc539415933)" style="fill: #0369a1; stroke: #0369a1; stroke-width: 1.6; stroke-linecap: round"/>
   </g>
   <g id="patch_7">
    <path d="M 559.808289 67.137181 
Q 472.16411 30.891086 384.059753 60.838969 
" clip-path="url(#pc539415933)" style="fill: none; stroke: #0369a1; stroke-width: 1.6; stroke-linecap: round"/>
    <path d="M 390.262942 61.687757 
L 384.059753 60.838969 
L 388.460697 56.385691 
z
" clip-path="url(#pc539415933)" style="fill: #0369a1; stroke: #0369a1; stroke-width: 1.6; stroke-linecap: round"/>
   </g>
   <g id="patch_8">
    <path d="M 376.707653 128.508867 
C 380.257699 128.508867 383.662822 127.098419 386.173083 124.588157 
C 388.683345 122.077896 390.093793 118.672773 390.093793 115.122727 
C 390.093793 111.572682 388.683345 108.167559 386.173083 105.657297 
C 383.662822 103.147036 380.257699 101.736588 376.707653 101.736588 
C 373.157608 101.736588 369.752485 103.147036 367.242223 105.657297 
C 364.731962 108.167559 363.321514 111.572682 363.321514 115.122727 
C 363.321514 118.672773 364.731962 122.077896 367.242223 124.588157 
C 369.752485 127.098419 373.157608 128.508867 376.707653 128.508867 
z
" clip-path="url(#pc539415933)" style="fill: #1e293b; stroke: #ffffff; stroke-width: 1.2; stroke-linejoin: miter"/>
   </g>
   <g id="patch_9">
    <path d="M 455.807569 126.683484 
C 458.873517 126.683484 461.814305 125.46537 463.982258 123.297417 
C 466.150211 121.129464 467.368326 118.188676 467.368326 115.122727 
C 467.368326 112.056779 466.150211 109.115991 463.982258 106.948038 
C 461.814305 104.780085 458.873517 103.561971 455.807569 103.561971 
C 452.74162 103.561971 449.800832 104.780085 447.632879 106.948038 
C 445.464926 109.115991 444.246812 112.056779 444.246812 115.122727 
C 444.246812 118.188676 445.464926 121.129464 447.632879 123.297417 
C 449.800832 125.46537 452.74162 126.683484 455.807569 126.683484 
z
" clip-path="url(#pc539415933)" style="fill: #059669; stroke: #ffffff; stroke-width: 1.2; stroke-linejoin: miter"/>
   </g>
   <g id="text_13">
    <!-- Customer near -->
    <g style="fill: #6b7280" transform="translate(426.015069 140.678085) scale(0.08 -0.08)">
     <use xlink:href="#DejaVuSans-26"/>
     <use xlink:href="#DejaVuSans-58" transform="translate(69.828125 0)"/>
     <use xlink:href="#DejaVuSans-56" transform="translate(133.203125 0)"/>
     <use xlink:href="#DejaVuSans-57" transform="translate(185.296875 0)"/>
     <use xlink:href="#DejaVuSans-52" transform="translate(224.5 0)"/>
     <use xlink:href="#DejaVuSans-50" transform="translate(285.6875 0)"/>
     <use xlink:href="#DejaVuSans-48" transform="translate(383.09375 0)"/>
     <use xlink:href="#DejaVuSans-55" transform="translate(444.625 0)"/>
     <use xlink:href="#DejaVuSans-3" transform="translate(485.734375 0)"/>
     <use xlink:href="#DejaVuSans-51" transform="translate(517.515625 0)"/>
     <use xlink:href="#DejaVuSans-48" transform="translate(580.890625 0)"/>
     <use xlink:href="#DejaVuSans-44" transform="translate(642.421875 0)"/>
     <use xlink:href="#DejaVuSans-55" transform="translate(703.703125 0)"/>
    </g>
   </g>
   <g id="text_14">
    <!-- same real shape -->
    <g style="fill: #6b7280" transform="translate(424.707178 95.651979) scale(0.075 -0.075)">
     <use xlink:href="#DejaVuSans-Oblique-56"/>
     <use xlink:href="#DejaVuSans-Oblique-44" transform="translate(52.09375 0)"/>
     <use xlink:href="#DejaVuSans-Oblique-50" transform="translate(113.375 0)"/>
     <use xlink:href="#DejaVuSans-Oblique-48" transform="translate(210.78125 0)"/>
     <use xlink:href="#DejaVuSans-Oblique-3" transform="translate(272.3125 0)"/>
     <use xlink:href="#DejaVuSans-Oblique-55" transform="translate(304.09375 0)"/>
     <use xlink:href="#DejaVuSans-Oblique-48" transform="translate(345.203125 0)"/>
     <use xlink:href="#DejaVuSans-Oblique-44" transform="translate(406.734375 0)"/>
     <use xlink:href="#DejaVuSans-Oblique-4f" transform="translate(468.015625 0)"/>
     <use xlink:href="#DejaVuSans-Oblique-3" transform="translate(495.796875 0)"/>
     <use xlink:href="#DejaVuSans-Oblique-56" transform="translate(527.578125 0)"/>
     <use xlink:href="#DejaVuSans-Oblique-4b" transform="translate(579.671875 0)"/>
     <use xlink:href="#DejaVuSans-Oblique-44" transform="translate(643.046875 0)"/>
     <use xlink:href="#DejaVuSans-Oblique-53" transform="translate(704.328125 0)"/>
     <use xlink:href="#DejaVuSans-Oblique-48" transform="translate(767.8125 0)"/>
    </g>
   </g>
   <g id="patch_10">
    <path d="M 565.330529 126.683484 
C 568.396477 126.683484 571.337265 125.46537 573.505218 123.297417 
C 575.673171 121.129464 576.891285 118.188676 576.891285 115.122727 
C 576.891285 112.056779 575.673171 109.115991 573.505218 106.948038 
C 571.337265 104.780085 568.396477 103.561971 565.330529 103.561971 
C 562.26458 103.561971 559.323792 104.780085 557.155839 106.948038 
C 554.987886 109.115991 553.769772 112.056779 553.769772 115.122727 
C 553.769772 118.188676 554.987886 121.129464 557.155839 123.297417 
C 559.323792 125.46537 562.26458 126.683484 565.330529 126.683484 
z
" clip-path="url(#pc539415933)" style="fill: #059669; stroke: #ffffff; stroke-width: 1.2; stroke-linejoin: miter"/>
   </g>
   <g id="text_15">
    <!-- Customer far -->
    <g style="fill: #6b7280" transform="translate(539.126154 140.678085) scale(0.08 -0.08)">
     <use xlink:href="#DejaVuSans-26"/>
     <use xlink:href="#DejaVuSans-58" transform="translate(69.828125 0)"/>
     <use xlink:href="#DejaVuSans-56" transform="translate(133.203125 0)"/>
     <use xlink:href="#DejaVuSans-57" transform="translate(185.296875 0)"/>
     <use xlink:href="#DejaVuSans-52" transform="translate(224.5 0)"/>
     <use xlink:href="#DejaVuSans-50" transform="translate(285.6875 0)"/>
     <use xlink:href="#DejaVuSans-48" transform="translate(383.09375 0)"/>
     <use xlink:href="#DejaVuSans-55" transform="translate(444.625 0)"/>
     <use xlink:href="#DejaVuSans-3" transform="translate(485.734375 0)"/>
     <use xlink:href="#DejaVuSans-49" transform="translate(517.515625 0)"/>
     <use xlink:href="#DejaVuSans-44" transform="translate(552.71875 0)"/>
     <use xlink:href="#DejaVuSans-55" transform="translate(614 0)"/>
    </g>
   </g>
   <g id="text_16">
    <!-- same real shape -->
    <g style="fill: #6b7280" transform="translate(534.230138 95.651979) scale(0.075 -0.075)">
     <use xlink:href="#DejaVuSans-Oblique-56"/>
     <use xlink:href="#DejaVuSans-Oblique-44" transform="translate(52.09375 0)"/>
     <use xlink:href="#DejaVuSans-Oblique-50" transform="translate(113.375 0)"/>
     <use xlink:href="#DejaVuSans-Oblique-48" transform="translate(210.78125 0)"/>
     <use xlink:href="#DejaVuSans-Oblique-3" transform="translate(272.3125 0)"/>
     <use xlink:href="#DejaVuSans-Oblique-55" transform="translate(304.09375 0)"/>
     <use xlink:href="#DejaVuSans-Oblique-48" transform="translate(345.203125 0)"/>
     <use xlink:href="#DejaVuSans-Oblique-44" transform="translate(406.734375 0)"/>
     <use xlink:href="#DejaVuSans-Oblique-4f" transform="translate(468.015625 0)"/>
     <use xlink:href="#DejaVuSans-Oblique-3" transform="translate(495.796875 0)"/>
     <use xlink:href="#DejaVuSans-Oblique-56" transform="translate(527.578125 0)"/>
     <use xlink:href="#DejaVuSans-Oblique-4b" transform="translate(579.671875 0)"/>
     <use xlink:href="#DejaVuSans-Oblique-44" transform="translate(643.046875 0)"/>
     <use xlink:href="#DejaVuSans-Oblique-53" transform="translate(704.328125 0)"/>
     <use xlink:href="#DejaVuSans-Oblique-48" transform="translate(767.8125 0)"/>
    </g>
   </g>
   <g id="text_17">
    <!-- Transformer loading sums instantaneous power, position is invisible to it -->
    <g style="fill: #6b7280" transform="translate(326.16452 166.841903) scale(0.085 -0.085)">
     <defs>
      <path id="DejaVuSans-Oblique-37" d="M 378 4666 
L 4325 4666 
L 4225 4134 
L 2559 4134 
L 1759 0 
L 1125 0 
L 1925 4134 
L 275 4134 
L 378 4666 
z
" transform="scale(0.015625)"/>
      <path id="DejaVuSans-Oblique-f" d="M 575 794 
L 1234 794 
L 1131 256 
L 422 -744 
L 19 -744 
L 469 256 
L 575 794 
z
" transform="scale(0.015625)"/>
     </defs>
     <use xlink:href="#DejaVuSans-Oblique-37"/>
     <use xlink:href="#DejaVuSans-Oblique-55" transform="translate(53.3125 0)"/>
     <use xlink:href="#DejaVuSans-Oblique-44" transform="translate(94.421875 0)"/>
     <use xlink:href="#DejaVuSans-Oblique-51" transform="translate(155.703125 0)"/>
     <use xlink:href="#DejaVuSans-Oblique-56" transform="translate(219.078125 0)"/>
     <use xlink:href="#DejaVuSans-Oblique-49" transform="translate(271.171875 0)"/>
     <use xlink:href="#DejaVuSans-Oblique-52" transform="translate(306.375 0)"/>
     <use xlink:href="#DejaVuSans-Oblique-55" transform="translate(367.5625 0)"/>
     <use xlink:href="#DejaVuSans-Oblique-50" transform="translate(408.671875 0)"/>
     <use xlink:href="#DejaVuSans-Oblique-48" transform="translate(506.078125 0)"/>
     <use xlink:href="#DejaVuSans-Oblique-55" transform="translate(567.609375 0)"/>
     <use xlink:href="#DejaVuSans-Oblique-3" transform="translate(608.71875 0)"/>
     <use xlink:href="#DejaVuSans-Oblique-4f" transform="translate(640.5 0)"/>
     <use xlink:href="#DejaVuSans-Oblique-52" transform="translate(668.28125 0)"/>
     <use xlink:href="#DejaVuSans-Oblique-44" transform="translate(729.46875 0)"/>
     <use xlink:href="#DejaVuSans-Oblique-47" transform="translate(790.75 0)"/>
     <use xlink:href="#DejaVuSans-Oblique-4c" transform="translate(854.234375 0)"/>
     <use xlink:href="#DejaVuSans-Oblique-51" transform="translate(882.015625 0)"/>
     <use xlink:href="#DejaVuSans-Oblique-4a" transform="translate(945.390625 0)"/>
     <use xlink:href="#DejaVuSans-Oblique-3" transform="translate(1008.875 0)"/>
     <use xlink:href="#DejaVuSans-Oblique-56" transform="translate(1040.65625 0)"/>
     <use xlink:href="#DejaVuSans-Oblique-58" transform="translate(1092.75 0)"/>
     <use xlink:href="#DejaVuSans-Oblique-50" transform="translate(1156.125 0)"/>
     <use xlink:href="#DejaVuSans-Oblique-56" transform="translate(1253.53125 0)"/>
     <use xlink:href="#DejaVuSans-Oblique-3" transform="translate(1305.625 0)"/>
     <use xlink:href="#DejaVuSans-Oblique-4c" transform="translate(1337.40625 0)"/>
     <use xlink:href="#DejaVuSans-Oblique-51" transform="translate(1365.1875 0)"/>
     <use xlink:href="#DejaVuSans-Oblique-56" transform="translate(1428.5625 0)"/>
     <use xlink:href="#DejaVuSans-Oblique-57" transform="translate(1480.65625 0)"/>
     <use xlink:href="#DejaVuSans-Oblique-44" transform="translate(1519.859375 0)"/>
     <use xlink:href="#DejaVuSans-Oblique-51" transform="translate(1581.140625 0)"/>
     <use xlink:href="#DejaVuSans-Oblique-57" transform="translate(1644.515625 0)"/>
     <use xlink:href="#DejaVuSans-Oblique-44" transform="translate(1683.71875 0)"/>
     <use xlink:href="#DejaVuSans-Oblique-51" transform="translate(1745 0)"/>
     <use xlink:href="#DejaVuSans-Oblique-48" transform="translate(1808.375 0)"/>
     <use xlink:href="#DejaVuSans-Oblique-52" transform="translate(1869.90625 0)"/>
     <use xlink:href="#DejaVuSans-Oblique-58" transform="translate(1931.09375 0)"/>
     <use xlink:href="#DejaVuSans-Oblique-56" transform="translate(1994.46875 0)"/>
     <use xlink:href="#DejaVuSans-Oblique-3" transform="translate(2046.5625 0)"/>
     <use xlink:href="#DejaVuSans-Oblique-53" transform="translate(2078.34375 0)"/>
     <use xlink:href="#DejaVuSans-Oblique-52" transform="translate(2141.828125 0)"/>
     <use xlink:href="#DejaVuSans-Oblique-5a" transform="translate(2203.015625 0)"/>
     <use xlink:href="#DejaVuSans-Oblique-48" transform="translate(2284.796875 0)"/>
     <use xlink:href="#DejaVuSans-Oblique-55" transform="translate(2346.328125 0)"/>
     <use xlink:href="#DejaVuSans-Oblique-f" transform="translate(2378.265625 0)"/>
     <use xlink:href="#DejaVuSans-Oblique-3" transform="translate(2410.046875 0)"/>
     <use xlink:href="#DejaVuSans-Oblique-53" transform="translate(2441.828125 0)"/>
     <use xlink:href="#DejaVuSans-Oblique-52" transform="translate(2505.3125 0)"/>
     <use xlink:href="#DejaVuSans-Oblique-56" transform="translate(2566.5 0)"/>
     <use xlink:href="#DejaVuSans-Oblique-4c" transform="translate(2618.59375 0)"/>
     <use xlink:href="#DejaVuSans-Oblique-57" transform="translate(2646.375 0)"/>
     <use xlink:href="#DejaVuSans-Oblique-4c" transform="translate(2685.578125 0)"/>
     <use xlink:href="#DejaVuSans-Oblique-52" transform="translate(2713.359375 0)"/>
     <use xlink:href="#DejaVuSans-Oblique-51" transform="translate(2774.546875 0)"/>
     <use xlink:href="#DejaVuSans-Oblique-3" transform="translate(2837.921875 0)"/>
     <use xlink:href="#DejaVuSans-Oblique-4c" transform="translate(2869.703125 0)"/>
     <use xlink:href="#DejaVuSans-Oblique-56" transform="translate(2897.484375 0)"/>
     <use xlink:href="#DejaVuSans-Oblique-3" transform="translate(2949.578125 0)"/>
     <use xlink:href="#DejaVuSans-Oblique-4c" transform="translate(2981.359375 0)"/>
     <use xlink:href="#DejaVuSans-Oblique-51" transform="translate(3009.140625 0)"/>
     <use xlink:href="#DejaVuSans-Oblique-59" transform="translate(3072.515625 0)"/>
     <use xlink:href="#DejaVuSans-Oblique-4c" transform="translate(3131.703125 0)"/>
     <use xlink:href="#DejaVuSans-Oblique-56" transform="translate(3159.484375 0)"/>
     <use xlink:href="#DejaVuSans-Oblique-4c" transform="translate(3211.578125 0)"/>
     <use xlink:href="#DejaVuSans-Oblique-45" transform="translate(3239.359375 0)"/>
     <use xlink:href="#DejaVuSans-Oblique-4f" transform="translate(3302.84375 0)"/>
     <use xlink:href="#DejaVuSans-Oblique-48" transform="translate(3330.625 0)"/>
     <use xlink:href="#DejaVuSans-Oblique-3" transform="translate(3392.15625 0)"/>
     <use xlink:href="#DejaVuSans-Oblique-57" transform="translate(3423.9375 0)"/>
     <use xlink:href="#DejaVuSans-Oblique-52" transform="translate(3463.140625 0)"/>
     <use xlink:href="#DejaVuSans-Oblique-3" transform="translate(3524.328125 0)"/>
     <use xlink:href="#DejaVuSans-Oblique-4c" transform="translate(3556.109375 0)"/>
     <use xlink:href="#DejaVuSans-Oblique-57" transform="translate(3583.890625 0)"/>
    </g>
   </g>
   <g id="text_18">
    <!-- same contribution either way -->
    <g style="fill: #0369a1" transform="translate(425.00284 46.366647) scale(0.075 -0.075)">
     <defs>
      <path id="DejaVuSans-Oblique-5c" d="M 1588 -325 
Q 1188 -997 936 -1164 
Q 684 -1331 294 -1331 
L -159 -1331 
L -63 -850 
L 269 -850 
Q 509 -850 678 -719 
Q 847 -588 1056 -206 
L 1234 128 
L 459 3500 
L 1069 3500 
L 1650 819 
L 3256 3500 
L 3859 3500 
L 1588 -325 
z
" transform="scale(0.015625)"/>
     </defs>
     <use xlink:href="#DejaVuSans-Oblique-56"/>
     <use xlink:href="#DejaVuSans-Oblique-44" transform="translate(52.09375 0)"/>
     <use xlink:href="#DejaVuSans-Oblique-50" transform="translate(113.375 0)"/>
     <use xlink:href="#DejaVuSans-Oblique-48" transform="translate(210.78125 0)"/>
     <use xlink:href="#DejaVuSans-Oblique-3" transform="translate(272.3125 0)"/>
     <use xlink:href="#DejaVuSans-Oblique-46" transform="translate(304.09375 0)"/>
     <use xlink:href="#DejaVuSans-Oblique-52" transform="translate(359.078125 0)"/>
     <use xlink:href="#DejaVuSans-Oblique-51" transform="translate(420.265625 0)"/>
     <use xlink:href="#DejaVuSans-Oblique-57" transform="translate(483.640625 0)"/>
     <use xlink:href="#DejaVuSans-Oblique-55" transform="translate(522.84375 0)"/>
     <use xlink:href="#DejaVuSans-Oblique-4c" transform="translate(563.953125 0)"/>
     <use xlink:href="#DejaVuSans-Oblique-45" transform="translate(591.734375 0)"/>
     <use xlink:href="#DejaVuSans-Oblique-58" transform="translate(655.21875 0)"/>
     <use xlink:href="#DejaVuSans-Oblique-57" transform="translate(718.59375 0)"/>
     <use xlink:href="#DejaVuSans-Oblique-4c" transform="translate(757.796875 0)"/>
     <use xlink:href="#DejaVuSans-Oblique-52" transform="translate(785.578125 0)"/>
     <use xlink:href="#DejaVuSans-Oblique-51" transform="translate(846.765625 0)"/>
     <use xlink:href="#DejaVuSans-Oblique-3" transform="translate(910.140625 0)"/>
     <use xlink:href="#DejaVuSans-Oblique-48" transform="translate(941.921875 0)"/>
     <use xlink:href="#DejaVuSans-Oblique-4c" transform="translate(1003.453125 0)"/>
     <use xlink:href="#DejaVuSans-Oblique-57" transform="translate(1031.234375 0)"/>
     <use xlink:href="#DejaVuSans-Oblique-4b" transform="translate(1070.4375 0)"/>
     <use xlink:href="#DejaVuSans-Oblique-48" transform="translate(1133.8125 0)"/>
     <use xlink:href="#DejaVuSans-Oblique-55" transform="translate(1195.34375 0)"/>
     <use xlink:href="#DejaVuSans-Oblique-3" transform="translate(1236.453125 0)"/>
     <use xlink:href="#DejaVuSans-Oblique-5a" transform="translate(1268.234375 0)"/>
     <use xlink:href="#DejaVuSans-Oblique-44" transform="translate(1350.015625 0)"/>
     <use xlink:href="#DejaVuSans-Oblique-5c" transform="translate(1411.296875 0)"/>
    </g>
   </g>
   <g id="text_19">
    <!-- Thermal: depends on what you draw -->
    <g style="fill: #1e293b" transform="translate(352.439716 15.938203) scale(0.115 -0.115)">
     <defs>
      <path id="DejaVuSans-Bold-37" d="M 31 4666 
L 4331 4666 
L 4331 3756 
L 2784 3756 
L 2784 0 
L 1581 0 
L 1581 3756 
L 31 3756 
L 31 4666 
z
" transform="scale(0.015625)"/>
      <path id="DejaVuSans-Bold-50" d="M 3781 2919 
Q 3994 3244 4286 3414 
Q 4578 3584 4928 3584 
Q 5531 3584 5847 3212 
Q 6163 2841 6163 2131 
L 6163 0 
L 5038 0 
L 5038 1825 
Q 5041 1866 5042 1909 
Q 5044 1953 5044 2034 
Q 5044 2406 4934 2573 
Q 4825 2741 4581 2741 
Q 4263 2741 4089 2478 
Q 3916 2216 3909 1719 
L 3909 0 
L 2784 0 
L 2784 1825 
Q 2784 2406 2684 2573 
Q 2584 2741 2328 2741 
Q 2006 2741 1831 2477 
Q 1656 2213 1656 1722 
L 1656 0 
L 531 0 
L 531 3500 
L 1656 3500 
L 1656 2988 
Q 1863 3284 2130 3434 
Q 2397 3584 2719 3584 
Q 3081 3584 3359 3409 
Q 3638 3234 3781 2919 
z
" transform="scale(0.015625)"/>
     </defs>
     <use xlink:href="#DejaVuSans-Bold-37"/>
     <use xlink:href="#DejaVuSans-Bold-4b" transform="translate(68.21875 0)"/>
     <use xlink:href="#DejaVuSans-Bold-48" transform="translate(139.40625 0)"/>
     <use xlink:href="#DejaVuSans-Bold-55" transform="translate(207.234375 0)"/>
     <use xlink:href="#DejaVuSans-Bold-50" transform="translate(256.546875 0)"/>
     <use xlink:href="#DejaVuSans-Bold-44" transform="translate(360.75 0)"/>
     <use xlink:href="#DejaVuSans-Bold-4f" transform="translate(428.234375 0)"/>
     <use xlink:href="#DejaVuSans-Bold-1d" transform="translate(462.515625 0)"/>
     <use xlink:href="#DejaVuSans-Bold-3" transform="translate(502.5 0)"/>
     <use xlink:href="#DejaVuSans-Bold-47" transform="translate(537.3125 0)"/>
     <use xlink:href="#DejaVuSans-Bold-48" transform="translate(608.890625 0)"/>
     <use xlink:href="#DejaVuSans-Bold-53" transform="translate(676.71875 0)"/>
     <use xlink:href="#DejaVuSans-Bold-48" transform="translate(748.296875 0)"/>
     <use xlink:href="#DejaVuSans-Bold-51" transform="translate(816.125 0)"/>
     <use xlink:href="#DejaVuSans-Bold-47" transform="translate(887.3125 0)"/>
     <use xlink:href="#DejaVuSans-Bold-56" transform="translate(958.890625 0)"/>
     <use xlink:href="#DejaVuSans-Bold-3" transform="translate(1018.40625 0)"/>
     <use xlink:href="#DejaVuSans-Bold-52" transform="translate(1053.21875 0)"/>
     <use xlink:href="#DejaVuSans-Bold-51" transform="translate(1121.921875 0)"/>
     <use xlink:href="#DejaVuSans-Bold-3" transform="translate(1193.109375 0)"/>
     <use xlink:href="#DejaVuSans-Bold-5a" transform="translate(1227.921875 0)"/>
     <use xlink:href="#DejaVuSans-Bold-4b" transform="translate(1320.3125 0)"/>
     <use xlink:href="#DejaVuSans-Bold-44" transform="translate(1391.5 0)"/>
     <use xlink:href="#DejaVuSans-Bold-57" transform="translate(1458.984375 0)"/>
     <use xlink:href="#DejaVuSans-Bold-3" transform="translate(1506.78125 0)"/>
     <use xlink:href="#DejaVuSans-Bold-5c" transform="translate(1541.59375 0)"/>
     <use xlink:href="#DejaVuSans-Bold-52" transform="translate(1606.78125 0)"/>
     <use xlink:href="#DejaVuSans-Bold-58" transform="translate(1675.484375 0)"/>
     <use xlink:href="#DejaVuSans-Bold-3" transform="translate(1746.671875 0)"/>
     <use xlink:href="#DejaVuSans-Bold-47" transform="translate(1781.484375 0)"/>
     <use xlink:href="#DejaVuSans-Bold-55" transform="translate(1853.0625 0)"/>
     <use xlink:href="#DejaVuSans-Bold-44" transform="translate(1902.375 0)"/>
     <use xlink:href="#DejaVuSans-Bold-5a" transform="translate(1969.859375 0)"/>
    </g>
   </g>
   <g id="text_20">
    <!--  -->
    <g style="fill: #ffffff" transform="translate(369.207653 122.622727) scale(0.15 -0.15)">
     <use xlink:href="#bootstrap-icons-499"/>
    </g>
   </g>
   <g id="text_21">
    <!--  -->
    <g style="fill: #ffffff" transform="translate(449.807569 121.122727) scale(0.12 -0.12)">
     <use xlink:href="#bootstrap-icons-4c8"/>
    </g>
   </g>
   <g id="text_22">
    <!--  -->
    <g style="fill: #ffffff" transform="translate(559.330529 121.122727) scale(0.12 -0.12)">
     <use xlink:href="#bootstrap-icons-4c8"/>
    </g>
   </g>
  </g>
 </g>
 <defs>
  <clipPath id="pac5e350de4">
   <rect x="7.2" y="29.938203" width="261.638182" height="152.115222"/>
  </clipPath>
  <clipPath id="pc539415933">
   <rect x="340.2" y="29.938203" width="261.638182" height="152.115222"/>
  </clipPath>
 </defs>
</svg>
