<?xml version="1.0" encoding="utf-8" standalone="no"?>
<!DOCTYPE svg PUBLIC "-//W3C//DTD SVG 1.1//EN"
  "http://www.w3.org/Graphics/SVG/1.1/DTD/svg11.dtd">
<svg xmlns:xlink="http://www.w3.org/1999/xlink" width="232.366351pt" height="381.6pt" viewBox="0 0 232.366351 381.6" xmlns="http://www.w3.org/2000/svg" version="1.1">
 <metadata>
  <rdf:RDF xmlns:dc="http://purl.org/dc/elements/1.1/" xmlns:cc="http://creativecommons.org/ns#" xmlns:rdf="http://www.w3.org/1999/02/22-rdf-syntax-ns#">
   <cc:Work>
    <dc:type rdf:resource="http://purl.org/dc/dcmitype/StillImage"/>
    <dc:date>2026-07-17T17:47:41.871233</dc:date>
    <dc:format>image/svg+xml</dc:format>
    <dc:creator>
     <cc:Agent>
      <dc:title>Matplotlib v3.11.0, https://matplotlib.org/</dc:title>
     </cc:Agent>
    </dc:creator>
   </cc:Work>
  </rdf:RDF>
 </metadata>
 <defs>
  <style type="text/css">*{stroke-linejoin: round; stroke-linecap: butt}</style>
 </defs>
 <g id="figure_1">
  <g id="patch_1">
   <path d="M 0 381.6 
L 232.366351 381.6 
L 232.366351 -0 
L 0 -0 
z
" style="fill: #ffffff"/>
  </g>
  <g id="axes_1">
   <g id="line2d_1">
    <path d="M 58.690736 108.934411 
L 58.690736 168.171761 
" clip-path="url(#p36bfe30492)" style="fill: none; stroke: #6b7280; stroke-width: 1.4; stroke-linecap: square"/>
   </g>
   <g id="line2d_2">
    <path d="M 58.690736 108.934411 
L 58.690736 168.171761 
" clip-path="url(#p36bfe30492)" style="fill: none; stroke: #6b7280; stroke-width: 1.4; stroke-linecap: square"/>
   </g>
   <g id="line2d_3">
    <path d="M 58.690736 168.171761 
L 43.881398 227.409112 
" clip-path="url(#p36bfe30492)" style="fill: none; stroke: #6b7280; stroke-width: 1.4; stroke-linecap: square"/>
   </g>
   <g id="line2d_4">
    <path d="M 43.881398 227.409112 
L 29.072061 286.646462 
" clip-path="url(#p36bfe30492)" style="fill: none; stroke: #6b7280; stroke-width: 1.4; stroke-linecap: square"/>
   </g>
   <g id="line2d_5">
    <path d="M 29.072061 286.646462 
L 43.881398 345.883812 
" clip-path="url(#p36bfe30492)" style="fill: none; stroke: #6b7280; stroke-width: 1.4; stroke-linecap: square"/>
   </g>
   <g id="line2d_6">
    <path d="M 58.690736 168.171761 
L 73.500073 227.409112 
" clip-path="url(#p36bfe30492)" style="fill: none; stroke: #6b7280; stroke-width: 1.4; stroke-linecap: square"/>
   </g>
   <g id="line2d_7">
    <path d="M 43.881398 227.409112 
L 58.690736 286.646462 
" clip-path="url(#p36bfe30492)" style="fill: none; stroke: #6b7280; stroke-width: 1.4; stroke-linecap: square"/>
   </g>
   <g id="line2d_8">
    <path d="M 43.881398 227.409112 
L 88.309411 286.646462 
" clip-path="url(#p36bfe30492)" style="fill: none; stroke: #6b7280; stroke-width: 1.4; stroke-linecap: square"/>
   </g>
   <g id="line2d_9">
    <path d="M 29.072061 286.646462 
L 73.500073 345.883812 
" clip-path="url(#p36bfe30492)" style="fill: none; stroke: #6b7280; stroke-width: 1.4; stroke-linecap: square"/>
   </g>
   <g id="line2d_10">
    <path d="M 58.690736 49.697061 
L 58.690736 108.934411 
" clip-path="url(#p36bfe30492)" style="fill: none; stroke: #6b7280; stroke-width: 1.4; stroke-linecap: square"/>
   </g>
   <g id="patch_2">
    <path d="M 58.690736 84.090266 
C 59.956956 84.090266 61.171486 83.587192 62.066839 82.691839 
C 62.962192 81.796486 63.465266 80.581956 63.465266 79.315736 
C 63.465266 78.049516 62.962192 76.834986 62.066839 75.939633 
C 61.171486 75.04428 59.956956 74.541205 58.690736 74.541205 
C 57.424516 74.541205 56.209986 75.04428 55.314633 75.939633 
C 54.41928 76.834986 53.916205 78.049516 53.916205 79.315736 
C 53.916205 80.581956 54.41928 81.796486 55.314633 82.691839 
C 56.209986 83.587192 57.424516 84.090266 58.690736 84.090266 
z
" clip-path="url(#p36bfe30492)" style="fill: #ffffff; stroke: #6b7280; stroke-width: 0.8; stroke-linejoin: miter"/>
   </g>
   <g id="patch_3">
    <path d="M 58.690736 57.397916 
C 60.733027 57.397916 62.691945 56.586505 64.136063 55.142388 
C 65.580181 53.69827 66.391591 51.739351 66.391591 49.697061 
C 66.391591 47.65477 65.580181 45.695851 64.136063 44.251733 
C 62.691945 42.807616 60.733027 41.996205 58.690736 41.996205 
C 56.648445 41.996205 54.689526 42.807616 53.245409 44.251733 
C 51.801291 45.695851 50.98988 47.65477 50.98988 49.697061 
C 50.98988 51.739351 51.801291 53.69827 53.245409 55.142388 
C 54.689526 56.586505 56.648445 57.397916 58.690736 57.397916 
z
" clip-path="url(#p36bfe30492)" style="fill: #059669; stroke: #ffffff; stroke-width: 1.6; stroke-linejoin: miter"/>
   </g>
   <g id="patch_4">
    <path d="M 58.690736 116.635267 
C 60.733027 116.635267 62.691945 115.823856 64.136063 114.379738 
C 65.580181 112.935621 66.391591 110.976702 66.391591 108.934411 
C 66.391591 106.89212 65.580181 104.933201 64.136063 103.489084 
C 62.691945 102.044966 60.733027 101.233555 58.690736 101.233555 
C 56.648445 101.233555 54.689526 102.044966 53.245409 103.489084 
C 51.801291 104.933201 50.98988 106.89212 50.98988 108.934411 
C 50.98988 110.976702 51.801291 112.935621 53.245409 114.379738 
C 54.689526 115.823856 56.648445 116.635267 58.690736 116.635267 
z
" clip-path="url(#p36bfe30492)" style="fill: #059669; stroke: #ffffff; stroke-width: 1.6; stroke-linejoin: miter"/>
   </g>
   <g id="patch_5">
    <path d="M 58.690736 175.872617 
C 60.733027 175.872617 62.691945 175.061206 64.136063 173.617088 
C 65.580181 172.172971 66.391591 170.214052 66.391591 168.171761 
C 66.391591 166.129471 65.580181 164.170552 64.136063 162.726434 
C 62.691945 161.282316 60.733027 160.470906 58.690736 160.470906 
C 56.648445 160.470906 54.689526 161.282316 53.245409 162.726434 
C 51.801291 164.170552 50.98988 166.129471 50.98988 168.171761 
C 50.98988 170.214052 51.801291 172.172971 53.245409 173.617088 
C 54.689526 175.061206 56.648445 175.872617 58.690736 175.872617 
z
" clip-path="url(#p36bfe30492)" style="fill: #059669; stroke: #ffffff; stroke-width: 1.6; stroke-linejoin: miter"/>
   </g>
   <g id="patch_6">
    <path d="M 43.881398 235.109967 
C 45.923689 235.109967 47.882608 234.298556 49.326725 232.854439 
C 50.770843 231.410321 51.582254 229.451402 51.582254 227.409112 
C 51.582254 225.366821 50.770843 223.407902 49.326725 221.963784 
C 47.882608 220.519667 45.923689 219.708256 43.881398 219.708256 
C 41.839107 219.708256 39.880189 220.519667 38.436071 221.963784 
C 36.991953 223.407902 36.180543 225.366821 36.180543 227.409112 
C 36.180543 229.451402 36.991953 231.410321 38.436071 232.854439 
C 39.880189 234.298556 41.839107 235.109967 43.881398 235.109967 
z
" clip-path="url(#p36bfe30492)" style="fill: #ea580c; stroke: #ffffff; stroke-width: 1.6; stroke-linejoin: miter"/>
   </g>
   <g id="patch_7">
    <path d="M 73.500073 235.109967 
C 75.542364 235.109967 77.501283 234.298556 78.945401 232.854439 
C 80.389518 231.410321 81.200929 229.451402 81.200929 227.409112 
C 81.200929 225.366821 80.389518 223.407902 78.945401 221.963784 
C 77.501283 220.519667 75.542364 219.708256 73.500073 219.708256 
C 71.457783 219.708256 69.498864 220.519667 68.054746 221.963784 
C 66.610629 223.407902 65.799218 225.366821 65.799218 227.409112 
C 65.799218 229.451402 66.610629 231.410321 68.054746 232.854439 
C 69.498864 234.298556 71.457783 235.109967 73.500073 235.109967 
z
" clip-path="url(#p36bfe30492)" style="fill: #ea580c; stroke: #ffffff; stroke-width: 1.6; stroke-linejoin: miter"/>
   </g>
   <g id="patch_8">
    <path d="M 29.072061 294.347318 
C 31.114351 294.347318 33.07327 293.535907 34.517388 292.091789 
C 35.961505 290.647672 36.772916 288.688753 36.772916 286.646462 
C 36.772916 284.604171 35.961505 282.645252 34.517388 281.201135 
C 33.07327 279.757017 31.114351 278.945606 29.072061 278.945606 
C 27.02977 278.945606 25.070851 279.757017 23.626733 281.201135 
C 22.182616 282.645252 21.371205 284.604171 21.371205 286.646462 
C 21.371205 288.688753 22.182616 290.647672 23.626733 292.091789 
C 25.070851 293.535907 27.02977 294.347318 29.072061 294.347318 
z
" clip-path="url(#p36bfe30492)" style="fill: #dc2626; stroke: #ffffff; stroke-width: 1.6; stroke-linejoin: miter"/>
   </g>
   <g id="patch_9">
    <path d="M 58.690736 294.347318 
C 60.733027 294.347318 62.691945 293.535907 64.136063 292.091789 
C 65.580181 290.647672 66.391591 288.688753 66.391591 286.646462 
C 66.391591 284.604171 65.580181 282.645252 64.136063 281.201135 
C 62.691945 279.757017 60.733027 278.945606 58.690736 278.945606 
C 56.648445 278.945606 54.689526 279.757017 53.245409 281.201135 
C 51.801291 282.645252 50.98988 284.604171 50.98988 286.646462 
C 50.98988 288.688753 51.801291 290.647672 53.245409 292.091789 
C 54.689526 293.535907 56.648445 294.347318 58.690736 294.347318 
z
" clip-path="url(#p36bfe30492)" style="fill: #dc2626; stroke: #ffffff; stroke-width: 1.6; stroke-linejoin: miter"/>
   </g>
   <g id="patch_10">
    <path d="M 88.309411 294.347318 
C 90.351702 294.347318 92.310621 293.535907 93.754738 292.091789 
C 95.198856 290.647672 96.010267 288.688753 96.010267 286.646462 
C 96.010267 284.604171 95.198856 282.645252 93.754738 281.201135 
C 92.310621 279.757017 90.351702 278.945606 88.309411 278.945606 
C 86.26712 278.945606 84.308201 279.757017 82.864084 281.201135 
C 81.419966 282.645252 80.608555 284.604171 80.608555 286.646462 
C 80.608555 288.688753 81.419966 290.647672 82.864084 292.091789 
C 84.308201 293.535907 86.26712 294.347318 88.309411 294.347318 
z
" clip-path="url(#p36bfe30492)" style="fill: #ea580c; stroke: #ffffff; stroke-width: 1.6; stroke-linejoin: miter"/>
   </g>
   <g id="patch_11">
    <path d="M 43.881398 353.584668 
C 45.923689 353.584668 47.882608 352.773257 49.326725 351.329139 
C 50.770843 349.885022 51.582254 347.926103 51.582254 345.883812 
C 51.582254 343.841522 50.770843 341.882603 49.326725 340.438485 
C 47.882608 338.994367 45.923689 338.182957 43.881398 338.182957 
C 41.839107 338.182957 39.880189 338.994367 38.436071 340.438485 
C 36.991953 341.882603 36.180543 343.841522 36.180543 345.883812 
C 36.180543 347.926103 36.991953 349.885022 38.436071 351.329139 
C 39.880189 352.773257 41.839107 353.584668 43.881398 353.584668 
z
" clip-path="url(#p36bfe30492)" style="fill: #dc2626; stroke: #ffffff; stroke-width: 1.6; stroke-linejoin: miter"/>
   </g>
   <g id="patch_12">
    <path d="M 73.500073 353.584668 
C 75.542364 353.584668 77.501283 352.773257 78.945401 351.329139 
C 80.389518 349.885022 81.200929 347.926103 81.200929 345.883812 
C 81.200929 343.841522 80.389518 341.882603 78.945401 340.438485 
C 77.501283 338.994367 75.542364 338.182957 73.500073 338.182957 
C 71.457783 338.182957 69.498864 338.994367 68.054746 340.438485 
C 66.610629 341.882603 65.799218 343.841522 65.799218 345.883812 
C 65.799218 347.926103 66.610629 349.885022 68.054746 351.329139 
C 69.498864 352.773257 71.457783 353.584668 73.500073 353.584668 
z
" clip-path="url(#p36bfe30492)" style="fill: #dc2626; stroke: #ffffff; stroke-width: 1.6; stroke-linejoin: miter"/>
   </g>
   <g id="text_1">
    <!--  -->
    <g style="fill: #1e293b" transform="translate(52.190736 85.815736) scale(0.13 -0.13)">
     <defs>
      <path id="bootstrap-icons-499" d="M 811 5611 
Q 469 5611 234 5376 
Q 0 5141 0 4800 
L 0 4395 
Q 0 4075 234 3840 
Q 469 3605 789 3605 
L 3008 3605 
L 3008 2411 
Q 2752 2411 2581 2229 
Q 2411 2048 2411 1792 
L 192 1792 
Q 107 1792 53 1738 
Q 0 1685 0 1600 
Q 0 1515 53 1461 
Q 107 1408 192 1408 
L 2411 1408 
Q 2411 1152 2581 981 
Q 2752 811 3008 789 
L 3392 789 
Q 3648 789 3829 970 
Q 4011 1152 3989 1408 
L 6208 1408 
Q 6293 1408 6346 1461 
Q 6400 1515 6400 1600 
Q 6400 1685 6346 1738 
Q 6293 1792 6208 1792 
L 4011 1792 
Q 3989 2048 3818 2218 
Q 3648 2389 3392 2389 
L 3392 3605 
L 5611 3605 
Q 5931 3605 6165 3840 
Q 6400 4075 6400 4395 
L 6400 4800 
Q 6400 5141 6165 5376 
Q 5931 5611 5589 5611 
L 811 5611 
z
M 1003 4395 
Q 917 4395 864 4459 
Q 811 4523 811 4608 
Q 811 4693 864 4746 
Q 917 4800 1002 4800 
Q 1088 4800 1141 4746 
Q 1195 4693 1195 4608 
Q 1195 4523 1141 4459 
Q 1088 4395 1003 4395 
z
M 1792 4395 
Q 1707 4395 1653 4459 
Q 1600 4523 1600 4608 
Q 1600 4693 1653 4746 
Q 1707 4800 1792 4800 
Q 1877 4800 1941 4746 
Q 2005 4693 2005 4608 
Q 2005 4523 1941 4459 
Q 1877 4395 1792 4395 
z
" transform="scale(0.015625)"/>
     </defs>
     <use xlink:href="#bootstrap-icons-499"/>
    </g>
   </g>
   <g id="text_2">
    <!--  -->
    <g style="fill: #ffffff" transform="translate(49.200736 59.187061) scale(0.1898 -0.1898)">
     <defs>
      <path id="bootstrap-icons-526" d="M 4501 6379 
Q 4565 6336 4586 6272 
Q 4608 6208 4587 6144 
L 3861 3797 
L 5205 3797 
Q 5333 3797 5386 3680 
Q 5440 3563 5355 3456 
L 2155 64 
Q 2091 21 2027 10 
Q 1963 0 1899 32 
Q 1835 64 1813 128 
Q 1792 192 1813 256 
L 2539 2603 
L 1195 2603 
Q 1067 2603 1013 2720 
Q 960 2837 1045 2944 
L 4245 6336 
Q 4309 6379 4373 6389 
Q 4437 6400 4501 6379 
z
" transform="scale(0.015625)"/>
     </defs>
     <use xlink:href="#bootstrap-icons-526"/>
    </g>
   </g>
   <g id="text_3">
    <!-- sourcebus -->
    <g style="fill: #1e293b" transform="translate(41.092494 68.22395) scale(0.0754 -0.0754)">
     <defs>
      <path id="HelveticaNeue-5a" d="M 742 1043 
L 198 1043 
Q 211 736 326 521 
Q 442 307 634 176 
Q 826 45 1075 -12 
Q 1325 -70 1600 -70 
Q 1850 -70 2102 -22 
Q 2355 26 2556 147 
Q 2758 269 2883 467 
Q 3008 666 3008 966 
Q 3008 1203 2915 1363 
Q 2822 1523 2672 1628 
Q 2522 1734 2326 1798 
Q 2131 1862 1926 1907 
Q 1734 1952 1542 1993 
Q 1350 2035 1196 2096 
Q 1043 2157 944 2249 
Q 845 2342 845 2483 
Q 845 2611 909 2691 
Q 973 2771 1075 2819 
Q 1178 2867 1302 2886 
Q 1427 2906 1549 2906 
Q 1683 2906 1814 2877 
Q 1946 2848 2054 2784 
Q 2163 2720 2233 2614 
Q 2304 2509 2317 2349 
L 2861 2349 
Q 2842 2650 2733 2851 
Q 2624 3053 2441 3171 
Q 2259 3290 2022 3338 
Q 1786 3386 1504 3386 
Q 1286 3386 1065 3331 
Q 845 3277 669 3165 
Q 493 3053 381 2873 
Q 269 2694 269 2445 
Q 269 2125 429 1945 
Q 589 1766 829 1667 
Q 1069 1568 1350 1513 
Q 1632 1459 1872 1392 
Q 2112 1325 2272 1216 
Q 2432 1107 2432 896 
Q 2432 742 2355 643 
Q 2278 544 2160 493 
Q 2042 442 1901 422 
Q 1760 403 1632 403 
Q 1466 403 1309 435 
Q 1152 467 1027 540 
Q 902 614 825 739 
Q 749 864 742 1043 
z
" transform="scale(0.015625)"/>
      <path id="HelveticaNeue-56" d="M 806 1651 
Q 806 1952 886 2185 
Q 966 2419 1107 2579 
Q 1248 2739 1437 2822 
Q 1626 2906 1837 2906 
Q 2048 2906 2237 2822 
Q 2426 2739 2566 2579 
Q 2707 2419 2787 2185 
Q 2867 1952 2867 1651 
Q 2867 1350 2787 1116 
Q 2707 883 2566 726 
Q 2426 570 2237 486 
Q 2048 403 1837 403 
Q 1626 403 1437 486 
Q 1248 570 1107 726 
Q 966 883 886 1116 
Q 806 1350 806 1651 
z
M 230 1651 
Q 230 1286 332 972 
Q 435 659 640 425 
Q 845 192 1145 61 
Q 1446 -70 1837 -70 
Q 2234 -70 2531 61 
Q 2829 192 3033 425 
Q 3238 659 3340 972 
Q 3443 1286 3443 1651 
Q 3443 2016 3340 2333 
Q 3238 2650 3033 2883 
Q 2829 3117 2531 3251 
Q 2234 3386 1837 3386 
Q 1446 3386 1145 3251 
Q 845 3117 640 2883 
Q 435 2650 332 2333 
Q 230 2016 230 1651 
z
" transform="scale(0.015625)"/>
      <path id="HelveticaNeue-5c" d="M 3149 0 
L 3149 3309 
L 2605 3309 
L 2605 1440 
Q 2605 1216 2544 1027 
Q 2483 838 2361 697 
Q 2240 557 2057 480 
Q 1875 403 1626 403 
Q 1312 403 1133 582 
Q 954 762 954 1069 
L 954 3309 
L 410 3309 
L 410 1133 
Q 410 864 464 643 
Q 518 422 652 262 
Q 787 102 1004 16 
Q 1222 -70 1549 -70 
Q 1914 -70 2182 74 
Q 2451 218 2624 525 
L 2637 525 
L 2637 0 
L 3149 0 
z
" transform="scale(0.015625)"/>
      <path id="HelveticaNeue-59" d="M 390 3309 
L 390 0 
L 934 0 
L 934 1472 
Q 934 1792 998 2038 
Q 1062 2285 1203 2457 
Q 1344 2630 1574 2720 
Q 1805 2810 2131 2810 
L 2131 3386 
Q 1690 3398 1402 3206 
Q 1114 3014 915 2611 
L 902 2611 
L 902 3309 
L 390 3309 
z
" transform="scale(0.015625)"/>
      <path id="HelveticaNeue-4a" d="M 2656 2246 
L 3219 2246 
Q 3187 2541 3065 2755 
Q 2944 2970 2755 3110 
Q 2566 3251 2320 3318 
Q 2074 3386 1792 3386 
Q 1402 3386 1107 3248 
Q 813 3110 617 2870 
Q 422 2630 326 2307 
Q 230 1984 230 1613 
Q 230 1242 329 931 
Q 429 621 624 397 
Q 819 173 1110 51 
Q 1402 -70 1779 -70 
Q 2413 -70 2781 262 
Q 3149 595 3238 1210 
L 2682 1210 
Q 2630 826 2403 614 
Q 2176 403 1773 403 
Q 1517 403 1331 505 
Q 1146 608 1030 777 
Q 915 947 860 1164 
Q 806 1382 806 1613 
Q 806 1862 857 2096 
Q 909 2330 1027 2509 
Q 1146 2688 1344 2797 
Q 1542 2906 1837 2906 
Q 2182 2906 2387 2733 
Q 2592 2560 2656 2246 
z
" transform="scale(0.015625)"/>
      <path id="HelveticaNeue-4c" d="M 2707 1971 
L 806 1971 
Q 819 2163 889 2332 
Q 960 2502 1081 2630 
Q 1203 2758 1372 2832 
Q 1542 2906 1754 2906 
Q 1958 2906 2128 2832 
Q 2298 2758 2422 2633 
Q 2547 2509 2620 2336 
Q 2694 2163 2707 1971 
z
M 3232 1050 
L 2694 1050 
Q 2624 723 2403 563 
Q 2182 403 1837 403 
Q 1568 403 1369 492 
Q 1171 582 1043 732 
Q 915 883 857 1078 
Q 800 1274 806 1491 
L 3283 1491 
Q 3296 1792 3229 2125 
Q 3162 2458 2986 2739 
Q 2810 3021 2518 3203 
Q 2227 3386 1786 3386 
Q 1446 3386 1161 3258 
Q 877 3130 669 2899 
Q 461 2669 345 2355 
Q 230 2042 230 1664 
Q 243 1286 342 966 
Q 442 646 640 416 
Q 838 186 1129 58 
Q 1421 -70 1818 -70 
Q 2381 -70 2752 211 
Q 3123 493 3232 1050 
z
" transform="scale(0.015625)"/>
      <path id="HelveticaNeue-49" d="M 429 4570 
L 429 0 
L 973 0 
L 973 442 
L 986 442 
Q 1075 294 1206 195 
Q 1338 96 1485 38 
Q 1632 -19 1782 -44 
Q 1933 -70 2054 -70 
Q 2432 -70 2717 64 
Q 3002 198 3190 432 
Q 3379 666 3472 979 
Q 3565 1293 3565 1645 
Q 3565 1997 3469 2310 
Q 3373 2624 3184 2864 
Q 2995 3104 2710 3245 
Q 2426 3386 2042 3386 
Q 1696 3386 1408 3261 
Q 1120 3136 986 2861 
L 973 2861 
L 973 4570 
L 429 4570 
z
M 2989 1683 
Q 2989 1440 2937 1209 
Q 2886 979 2771 800 
Q 2656 621 2467 512 
Q 2278 403 1997 403 
Q 1715 403 1516 508 
Q 1318 614 1193 787 
Q 1069 960 1011 1187 
Q 954 1414 954 1658 
Q 954 1888 1008 2112 
Q 1062 2336 1184 2512 
Q 1306 2688 1498 2797 
Q 1690 2906 1965 2906 
Q 2227 2906 2422 2803 
Q 2618 2701 2742 2528 
Q 2867 2355 2928 2134 
Q 2989 1914 2989 1683 
z
" transform="scale(0.015625)"/>
     </defs>
     <use xlink:href="#HelveticaNeue-5a"/>
     <use xlink:href="#HelveticaNeue-56" transform="translate(50 0)"/>
     <use xlink:href="#HelveticaNeue-5c" transform="translate(107.40625 0)"/>
     <use xlink:href="#HelveticaNeue-59" transform="translate(163 0)"/>
     <use xlink:href="#HelveticaNeue-4a" transform="translate(194.5 0)"/>
     <use xlink:href="#HelveticaNeue-4c" transform="translate(248.203125 0)"/>
     <use xlink:href="#HelveticaNeue-49" transform="translate(301.90625 0)"/>
     <use xlink:href="#HelveticaNeue-5c" transform="translate(361.203125 0)"/>
     <use xlink:href="#HelveticaNeue-5a" transform="translate(416.796875 0)"/>
    </g>
    <!-- 1.000 pu -->
    <g style="fill: #1e293b" transform="translate(43.879937 77.21917) scale(0.0754 -0.0754)">
     <defs>
      <path id="HelveticaNeue-18" d="M 2278 0 
L 2278 4538 
L 1862 4538 
Q 1818 4282 1696 4115 
Q 1574 3949 1398 3853 
Q 1222 3757 1004 3721 
Q 787 3686 557 3686 
L 557 3251 
L 1734 3251 
L 1734 0 
L 2278 0 
z
" transform="scale(0.015625)"/>
      <path id="HelveticaNeue-15" d="M 531 710 
L 531 0 
L 1242 0 
L 1242 710 
L 531 710 
z
" transform="scale(0.015625)"/>
      <path id="HelveticaNeue-17" d="M 845 2234 
Q 845 2400 848 2601 
Q 851 2803 880 3004 
Q 909 3206 963 3398 
Q 1018 3590 1123 3734 
Q 1229 3878 1389 3968 
Q 1549 4058 1779 4058 
Q 2010 4058 2170 3968 
Q 2330 3878 2435 3734 
Q 2541 3590 2595 3398 
Q 2650 3206 2678 3004 
Q 2707 2803 2710 2601 
Q 2714 2400 2714 2234 
Q 2714 1978 2698 1661 
Q 2682 1344 2595 1065 
Q 2509 787 2317 595 
Q 2125 403 1779 403 
Q 1434 403 1242 595 
Q 1050 787 963 1065 
Q 877 1344 861 1661 
Q 845 1978 845 2234 
z
M 269 2227 
Q 269 1978 281 1709 
Q 294 1440 345 1184 
Q 397 928 493 701 
Q 589 474 755 301 
Q 922 128 1174 29 
Q 1427 -70 1779 -70 
Q 2138 -70 2387 29 
Q 2637 128 2803 301 
Q 2970 474 3066 701 
Q 3162 928 3213 1184 
Q 3264 1440 3277 1709 
Q 3290 1978 3290 2227 
Q 3290 2477 3277 2745 
Q 3264 3014 3213 3270 
Q 3162 3526 3066 3756 
Q 2970 3987 2803 4160 
Q 2637 4333 2384 4435 
Q 2131 4538 1779 4538 
Q 1427 4538 1174 4435 
Q 922 4333 755 4160 
Q 589 3987 493 3756 
Q 397 3526 345 3270 
Q 294 3014 281 2745 
Q 269 2477 269 2227 
z
" transform="scale(0.015625)"/>
      <path id="HelveticaNeue-3" transform="scale(0.015625)"/>
      <path id="HelveticaNeue-57" d="M 429 3309 
L 429 -1261 
L 973 -1261 
L 973 442 
L 986 442 
Q 1075 294 1206 195 
Q 1338 96 1485 38 
Q 1632 -19 1782 -44 
Q 1933 -70 2054 -70 
Q 2432 -70 2717 64 
Q 3002 198 3190 432 
Q 3379 666 3472 979 
Q 3565 1293 3565 1645 
Q 3565 1997 3469 2310 
Q 3373 2624 3184 2864 
Q 2995 3104 2710 3245 
Q 2426 3386 2042 3386 
Q 1696 3386 1408 3261 
Q 1120 3136 986 2861 
L 973 2861 
L 973 3309 
L 429 3309 
z
M 2989 1683 
Q 2989 1440 2937 1209 
Q 2886 979 2771 800 
Q 2656 621 2467 512 
Q 2278 403 1997 403 
Q 1715 403 1516 508 
Q 1318 614 1193 787 
Q 1069 960 1011 1187 
Q 954 1414 954 1658 
Q 954 1888 1008 2112 
Q 1062 2336 1184 2512 
Q 1306 2688 1498 2797 
Q 1690 2906 1965 2906 
Q 2227 2906 2422 2803 
Q 2618 2701 2742 2528 
Q 2867 2355 2928 2134 
Q 2989 1914 2989 1683 
z
" transform="scale(0.015625)"/>
     </defs>
     <use xlink:href="#HelveticaNeue-18"/>
     <use xlink:href="#HelveticaNeue-15" transform="translate(55.59375 0)"/>
     <use xlink:href="#HelveticaNeue-17" transform="translate(83.390625 0)"/>
     <use xlink:href="#HelveticaNeue-17" transform="translate(138.984375 0)"/>
     <use xlink:href="#HelveticaNeue-17" transform="translate(194.578125 0)"/>
     <use xlink:href="#HelveticaNeue-3" transform="translate(250.171875 0)"/>
     <use xlink:href="#HelveticaNeue-57" transform="translate(277.96875 0)"/>
     <use xlink:href="#HelveticaNeue-5c" transform="translate(337.265625 0)"/>
    </g>
   </g>
   <g id="text_4">
    <!--  -->
    <g style="fill: #ffffff" transform="translate(49.200736 118.424411) scale(0.1898 -0.1898)">
     <defs>
      <path id="bootstrap-icons-648" d="M 6400 3200 
Q 6400 2325 5973 1589 
Q 5547 853 4811 426 
Q 4075 0 3200 0 
Q 2325 0 1589 426 
Q 853 853 426 1589 
Q 0 2325 0 3200 
Q 0 4075 426 4811 
Q 853 5547 1589 5973 
Q 2325 6400 3200 6400 
Q 4075 6400 4811 5973 
Q 5547 5547 5973 4811 
Q 6400 4075 6400 3200 
z
M 3200 2005 
Q 3691 2005 4043 2357 
Q 4395 2709 4395 3200 
Q 4395 3691 4043 4043 
Q 3691 4395 3200 4395 
Q 2709 4395 2357 4043 
Q 2005 3691 2005 3200 
Q 2005 2709 2357 2357 
Q 2709 2005 3200 2005 
z
" transform="scale(0.015625)"/>
     </defs>
     <use xlink:href="#bootstrap-icons-648"/>
    </g>
   </g>
   <g id="text_5">
    <!-- a -->
    <g style="fill: #1e293b" transform="translate(56.666128 127.4613) scale(0.0754 -0.0754)">
     <defs>
      <path id="HelveticaNeue-48" d="M 3341 13 
Q 3200 -70 2950 -70 
Q 2739 -70 2614 48 
Q 2490 166 2490 435 
Q 2266 166 1968 48 
Q 1670 -70 1325 -70 
Q 1101 -70 899 -19 
Q 698 32 550 141 
Q 403 250 316 426 
Q 230 602 230 851 
Q 230 1133 326 1312 
Q 422 1491 579 1603 
Q 736 1715 937 1772 
Q 1139 1830 1350 1869 
Q 1574 1914 1776 1936 
Q 1978 1958 2131 2000 
Q 2285 2042 2374 2122 
Q 2464 2202 2464 2355 
Q 2464 2534 2397 2643 
Q 2330 2752 2224 2809 
Q 2118 2867 1987 2886 
Q 1856 2906 1728 2906 
Q 1382 2906 1152 2774 
Q 922 2643 902 2278 
L 358 2278 
Q 371 2586 486 2797 
Q 602 3008 794 3139 
Q 986 3270 1232 3328 
Q 1478 3386 1760 3386 
Q 1984 3386 2205 3354 
Q 2426 3322 2605 3222 
Q 2784 3123 2893 2944 
Q 3002 2765 3002 2477 
L 3002 774 
Q 3002 582 3024 492 
Q 3046 403 3174 403 
Q 3245 403 3341 435 
L 3341 13 
z
M 2458 1709 
Q 2355 1632 2188 1597 
Q 2022 1562 1840 1539 
Q 1658 1517 1472 1488 
Q 1286 1459 1139 1395 
Q 992 1331 899 1212 
Q 806 1094 806 890 
Q 806 755 860 662 
Q 915 570 1001 512 
Q 1088 454 1203 428 
Q 1318 403 1446 403 
Q 1715 403 1907 476 
Q 2099 550 2220 662 
Q 2342 774 2400 905 
Q 2458 1037 2458 1152 
L 2458 1709 
z
" transform="scale(0.015625)"/>
     </defs>
     <use xlink:href="#HelveticaNeue-48"/>
    </g>
    <!-- 0.999 pu -->
    <g style="fill: #1e293b" transform="translate(43.879937 136.45652) scale(0.0754 -0.0754)">
     <defs>
      <path id="HelveticaNeue-20" d="M 858 1094 
L 314 1094 
Q 365 506 742 218 
Q 1120 -70 1690 -70 
Q 2515 -70 2889 560 
Q 3264 1190 3264 2368 
Q 3264 3014 3139 3433 
Q 3014 3853 2803 4096 
Q 2592 4339 2310 4438 
Q 2029 4538 1709 4538 
Q 1382 4538 1107 4429 
Q 832 4320 633 4125 
Q 435 3930 326 3658 
Q 218 3386 218 3059 
Q 218 2726 310 2444 
Q 403 2163 585 1964 
Q 768 1766 1037 1654 
Q 1306 1542 1651 1542 
Q 1984 1542 2265 1712 
Q 2547 1882 2701 2170 
L 2714 2157 
Q 2688 1267 2438 835 
Q 2189 403 1690 403 
Q 1363 403 1126 582 
Q 890 762 858 1094 
z
M 2618 3021 
Q 2618 2822 2554 2640 
Q 2490 2458 2368 2320 
Q 2246 2182 2073 2102 
Q 1901 2022 1690 2022 
Q 1491 2022 1328 2102 
Q 1165 2182 1046 2316 
Q 928 2451 861 2624 
Q 794 2797 794 2982 
Q 794 3194 842 3386 
Q 890 3578 995 3728 
Q 1101 3878 1270 3968 
Q 1440 4058 1683 4058 
Q 1914 4058 2086 3974 
Q 2259 3891 2377 3747 
Q 2496 3603 2557 3417 
Q 2618 3232 2618 3021 
z
" transform="scale(0.015625)"/>
     </defs>
     <use xlink:href="#HelveticaNeue-17"/>
     <use xlink:href="#HelveticaNeue-15" transform="translate(55.59375 0)"/>
     <use xlink:href="#HelveticaNeue-20" transform="translate(83.390625 0)"/>
     <use xlink:href="#HelveticaNeue-20" transform="translate(138.984375 0)"/>
     <use xlink:href="#HelveticaNeue-20" transform="translate(194.578125 0)"/>
     <use xlink:href="#HelveticaNeue-3" transform="translate(250.171875 0)"/>
     <use xlink:href="#HelveticaNeue-57" transform="translate(277.96875 0)"/>
     <use xlink:href="#HelveticaNeue-5c" transform="translate(337.265625 0)"/>
    </g>
   </g>
   <g id="text_6">
    <!--  -->
    <g style="fill: #ffffff" transform="translate(49.200736 177.661761) scale(0.1898 -0.1898)">
     <use xlink:href="#bootstrap-icons-648"/>
    </g>
   </g>
   <g id="text_7">
    <!-- b -->
    <g style="fill: #1e293b" transform="translate(56.455244 186.69865) scale(0.0754 -0.0754)">
     <use xlink:href="#HelveticaNeue-49"/>
    </g>
    <!-- 0.979 pu -->
    <g style="fill: #1e293b" transform="translate(43.879937 195.69387) scale(0.0754 -0.0754)">
     <defs>
      <path id="HelveticaNeue-1e" d="M 3258 3994 
L 3258 4461 
L 320 4461 
L 320 3949 
L 2701 3949 
Q 2342 3571 2032 3123 
Q 1722 2675 1485 2172 
Q 1248 1670 1097 1123 
Q 947 576 909 0 
L 1517 0 
Q 1549 531 1696 1094 
Q 1843 1658 2076 2189 
Q 2310 2720 2611 3187 
Q 2912 3654 3258 3994 
z
" transform="scale(0.015625)"/>
     </defs>
     <use xlink:href="#HelveticaNeue-17"/>
     <use xlink:href="#HelveticaNeue-15" transform="translate(55.59375 0)"/>
     <use xlink:href="#HelveticaNeue-20" transform="translate(83.390625 0)"/>
     <use xlink:href="#HelveticaNeue-1e" transform="translate(138.984375 0)"/>
     <use xlink:href="#HelveticaNeue-20" transform="translate(194.578125 0)"/>
     <use xlink:href="#HelveticaNeue-3" transform="translate(250.171875 0)"/>
     <use xlink:href="#HelveticaNeue-57" transform="translate(277.96875 0)"/>
     <use xlink:href="#HelveticaNeue-5c" transform="translate(337.265625 0)"/>
    </g>
   </g>
   <g id="text_8">
    <!--  -->
    <g style="fill: #ffffff" transform="translate(34.391398 236.899112) scale(0.1898 -0.1898)">
     <use xlink:href="#bootstrap-icons-648"/>
    </g>
   </g>
   <g id="text_9">
    <!-- c -->
    <g style="fill: #1e293b" transform="translate(41.85679 245.936001) scale(0.0754 -0.0754)">
     <use xlink:href="#HelveticaNeue-4a"/>
    </g>
    <!-- 0.953 pu -->
    <g style="fill: #1e293b" transform="translate(29.0706 254.931221) scale(0.0754 -0.0754)">
     <defs>
      <path id="HelveticaNeue-1c" d="M 3008 3981 
L 3008 4461 
L 768 4461 
L 346 2106 
L 813 2080 
Q 973 2272 1181 2390 
Q 1389 2509 1658 2509 
Q 1888 2509 2077 2432 
Q 2266 2355 2400 2217 
Q 2534 2080 2608 1891 
Q 2682 1702 2682 1478 
Q 2682 1210 2605 1008 
Q 2528 806 2397 672 
Q 2266 538 2090 470 
Q 1914 403 1722 403 
Q 1517 403 1347 464 
Q 1178 525 1053 637 
Q 928 749 854 899 
Q 781 1050 768 1222 
L 224 1222 
Q 230 915 345 672 
Q 461 429 659 265 
Q 858 102 1117 16 
Q 1376 -70 1670 -70 
Q 2067 -70 2364 54 
Q 2662 179 2860 390 
Q 3059 602 3158 874 
Q 3258 1146 3258 1434 
Q 3258 1824 3142 2115 
Q 3027 2406 2828 2601 
Q 2630 2797 2361 2893 
Q 2093 2989 1792 2989 
Q 1562 2989 1328 2909 
Q 1094 2829 947 2662 
L 934 2675 
L 1178 3981 
L 3008 3981 
z
" transform="scale(0.015625)"/>
      <path id="HelveticaNeue-1a" d="M 1395 2592 
L 1395 2131 
Q 1549 2150 1722 2150 
Q 1926 2150 2102 2096 
Q 2278 2042 2406 1930 
Q 2534 1818 2611 1654 
Q 2688 1491 2688 1280 
Q 2688 1075 2608 912 
Q 2528 749 2393 637 
Q 2259 525 2080 464 
Q 1901 403 1702 403 
Q 1235 403 992 681 
Q 749 960 736 1402 
L 192 1402 
Q 186 1050 291 774 
Q 397 499 595 310 
Q 794 122 1075 26 
Q 1357 -70 1702 -70 
Q 2022 -70 2307 16 
Q 2592 102 2803 275 
Q 3014 448 3139 707 
Q 3264 966 3264 1306 
Q 3264 1715 3062 2016 
Q 2861 2317 2445 2406 
L 2445 2419 
Q 2714 2541 2893 2777 
Q 3072 3014 3072 3322 
Q 3072 3635 2966 3865 
Q 2861 4096 2675 4243 
Q 2490 4390 2237 4464 
Q 1984 4538 1690 4538 
Q 1350 4538 1091 4429 
Q 832 4320 659 4128 
Q 486 3936 393 3667 
Q 301 3398 288 3072 
L 832 3072 
Q 832 3270 883 3449 
Q 934 3629 1040 3763 
Q 1146 3898 1309 3978 
Q 1472 4058 1690 4058 
Q 2035 4058 2265 3875 
Q 2496 3693 2496 3328 
Q 2496 3149 2425 3008 
Q 2355 2867 2236 2774 
Q 2118 2682 1961 2634 
Q 1805 2586 1632 2586 
L 1517 2586 
Q 1485 2586 1453 2586 
Q 1427 2586 1395 2592 
z
" transform="scale(0.015625)"/>
     </defs>
     <use xlink:href="#HelveticaNeue-17"/>
     <use xlink:href="#HelveticaNeue-15" transform="translate(55.59375 0)"/>
     <use xlink:href="#HelveticaNeue-20" transform="translate(83.390625 0)"/>
     <use xlink:href="#HelveticaNeue-1c" transform="translate(138.984375 0)"/>
     <use xlink:href="#HelveticaNeue-1a" transform="translate(194.578125 0)"/>
     <use xlink:href="#HelveticaNeue-3" transform="translate(250.171875 0)"/>
     <use xlink:href="#HelveticaNeue-57" transform="translate(277.96875 0)"/>
     <use xlink:href="#HelveticaNeue-5c" transform="translate(337.265625 0)"/>
    </g>
   </g>
   <g id="text_10">
    <!--  -->
    <g style="fill: #ffffff" transform="translate(64.010073 236.899112) scale(0.1898 -0.1898)">
     <defs>
      <path id="bootstrap-icons-4c8" d="M 3477 5803 
Q 3371 5909 3200 5909 
Q 3029 5909 2923 5803 
L 256 3136 
Q 192 3093 192 3008 
Q 192 2923 256 2859 
Q 320 2795 405 2795 
Q 491 2795 533 2859 
L 3200 5525 
L 5867 2859 
Q 5909 2795 5994 2795 
Q 6080 2795 6144 2859 
Q 6208 2923 6208 3008 
Q 6208 3093 6144 3136 
L 5205 4075 
L 5205 5397 
Q 5205 5483 5141 5547 
Q 5077 5611 4992 5611 
L 4608 5611 
Q 4523 5611 4459 5547 
Q 4395 5483 4395 5397 
L 4395 4885 
L 3477 5803 
z
M 3200 5077 
L 5611 2688 
L 5611 1003 
Q 5611 747 5429 576 
Q 5248 405 4992 405 
L 1408 405 
Q 1152 405 970 576 
Q 789 747 789 1003 
L 789 2688 
L 3200 5077 
z
" transform="scale(0.015625)"/>
     </defs>
     <use xlink:href="#bootstrap-icons-4c8"/>
    </g>
   </g>
   <g id="text_11">
    <!-- e -->
    <g style="fill: #1e293b" transform="translate(71.475466 245.936001) scale(0.0754 -0.0754)">
     <use xlink:href="#HelveticaNeue-4c"/>
    </g>
    <!-- 0.952 pu -->
    <g style="fill: #1e293b" transform="translate(58.689275 254.931221) scale(0.0754 -0.0754)">
     <defs>
      <path id="HelveticaNeue-19" d="M 282 2931 
L 826 2931 
Q 819 3136 867 3337 
Q 915 3539 1024 3699 
Q 1133 3859 1302 3958 
Q 1472 4058 1709 4058 
Q 1888 4058 2048 4000 
Q 2208 3942 2326 3833 
Q 2445 3725 2515 3574 
Q 2586 3424 2586 3238 
Q 2586 3002 2512 2822 
Q 2438 2643 2294 2489 
Q 2150 2336 1932 2185 
Q 1715 2035 1427 1856 
Q 1190 1715 972 1555 
Q 755 1395 582 1184 
Q 410 973 298 688 
Q 186 403 154 0 
L 3117 0 
L 3117 480 
L 787 480 
Q 826 691 950 854 
Q 1075 1018 1251 1158 
Q 1427 1299 1638 1424 
Q 1850 1549 2061 1677 
Q 2272 1811 2470 1958 
Q 2669 2106 2822 2288 
Q 2976 2470 3069 2700 
Q 3162 2931 3162 3232 
Q 3162 3552 3050 3795 
Q 2938 4038 2746 4201 
Q 2554 4365 2294 4451 
Q 2035 4538 1741 4538 
Q 1382 4538 1100 4416 
Q 819 4294 630 4080 
Q 442 3866 352 3571 
Q 262 3277 282 2931 
z
" transform="scale(0.015625)"/>
     </defs>
     <use xlink:href="#HelveticaNeue-17"/>
     <use xlink:href="#HelveticaNeue-15" transform="translate(55.59375 0)"/>
     <use xlink:href="#HelveticaNeue-20" transform="translate(83.390625 0)"/>
     <use xlink:href="#HelveticaNeue-1c" transform="translate(138.984375 0)"/>
     <use xlink:href="#HelveticaNeue-19" transform="translate(194.578125 0)"/>
     <use xlink:href="#HelveticaNeue-3" transform="translate(250.171875 0)"/>
     <use xlink:href="#HelveticaNeue-57" transform="translate(277.96875 0)"/>
     <use xlink:href="#HelveticaNeue-5c" transform="translate(337.265625 0)"/>
    </g>
   </g>
   <g id="text_12">
    <!--  -->
    <g style="fill: #ffffff" transform="translate(19.582061 296.136462) scale(0.1898 -0.1898)">
     <use xlink:href="#bootstrap-icons-648"/>
    </g>
   </g>
   <g id="text_13">
    <!-- d -->
    <g style="fill: #1e293b" transform="translate(26.836568 305.173351) scale(0.0754 -0.0754)">
     <defs>
      <path id="HelveticaNeue-4b" d="M 806 1626 
Q 806 1869 857 2099 
Q 909 2330 1024 2509 
Q 1139 2688 1331 2797 
Q 1523 2906 1798 2906 
Q 2080 2906 2278 2800 
Q 2477 2694 2601 2521 
Q 2726 2349 2784 2121 
Q 2842 1894 2842 1651 
Q 2842 1421 2787 1197 
Q 2733 973 2611 797 
Q 2490 621 2298 512 
Q 2106 403 1830 403 
Q 1568 403 1373 505 
Q 1178 608 1053 781 
Q 928 954 867 1174 
Q 806 1395 806 1626 
z
M 3366 0 
L 3366 4570 
L 2822 4570 
L 2822 2867 
L 2810 2867 
Q 2720 3014 2589 3113 
Q 2458 3213 2310 3273 
Q 2163 3334 2016 3360 
Q 1869 3386 1741 3386 
Q 1363 3386 1078 3248 
Q 794 3110 605 2876 
Q 416 2643 323 2329 
Q 230 2016 230 1664 
Q 230 1312 326 998 
Q 422 685 611 448 
Q 800 211 1085 70 
Q 1370 -70 1754 -70 
Q 2099 -70 2387 51 
Q 2675 173 2810 448 
L 2822 448 
L 2822 0 
L 3366 0 
z
" transform="scale(0.015625)"/>
     </defs>
     <use xlink:href="#HelveticaNeue-4b"/>
    </g>
    <!-- 0.940 pu -->
    <g style="fill: #1e293b" transform="translate(14.261262 314.168571) scale(0.0754 -0.0754)">
     <defs>
      <path id="HelveticaNeue-1b" d="M 2170 1542 
L 646 1542 
L 2157 3763 
L 2170 3763 
L 2170 1542 
z
M 2682 1542 
L 2682 4538 
L 2246 4538 
L 179 1587 
L 179 1062 
L 2170 1062 
L 2170 0 
L 2682 0 
L 2682 1062 
L 3296 1062 
L 3296 1542 
L 2682 1542 
z
" transform="scale(0.015625)"/>
     </defs>
     <use xlink:href="#HelveticaNeue-17"/>
     <use xlink:href="#HelveticaNeue-15" transform="translate(55.59375 0)"/>
     <use xlink:href="#HelveticaNeue-20" transform="translate(83.390625 0)"/>
     <use xlink:href="#HelveticaNeue-1b" transform="translate(138.984375 0)"/>
     <use xlink:href="#HelveticaNeue-17" transform="translate(194.578125 0)"/>
     <use xlink:href="#HelveticaNeue-3" transform="translate(250.171875 0)"/>
     <use xlink:href="#HelveticaNeue-57" transform="translate(277.96875 0)"/>
     <use xlink:href="#HelveticaNeue-5c" transform="translate(337.265625 0)"/>
    </g>
   </g>
   <g id="text_14">
    <!--  -->
    <g style="fill: #ffffff" transform="translate(49.200736 296.136462) scale(0.1898 -0.1898)">
     <use xlink:href="#bootstrap-icons-4c8"/>
    </g>
   </g>
   <g id="text_15">
    <!-- f -->
    <g style="fill: #1e293b" transform="translate(57.575051 305.173351) scale(0.0754 -0.0754)">
     <defs>
      <path id="HelveticaNeue-4d" d="M 634 2829 
L 634 0 
L 1178 0 
L 1178 2829 
L 1818 2829 
L 1818 3309 
L 1178 3309 
L 1178 3770 
Q 1178 3987 1286 4064 
Q 1395 4141 1594 4141 
Q 1664 4141 1747 4131 
Q 1830 4122 1901 4096 
L 1901 4570 
Q 1824 4595 1725 4608 
Q 1626 4621 1549 4621 
Q 1101 4621 867 4413 
Q 634 4205 634 3802 
L 634 3309 
L 77 3309 
L 77 2829 
L 634 2829 
z
" transform="scale(0.015625)"/>
     </defs>
     <use xlink:href="#HelveticaNeue-4d"/>
    </g>
    <!-- 0.902 pu -->
    <g style="fill: #1e293b" transform="translate(43.879937 314.168571) scale(0.0754 -0.0754)">
     <use xlink:href="#HelveticaNeue-17"/>
     <use xlink:href="#HelveticaNeue-15" transform="translate(55.59375 0)"/>
     <use xlink:href="#HelveticaNeue-20" transform="translate(83.390625 0)"/>
     <use xlink:href="#HelveticaNeue-17" transform="translate(138.984375 0)"/>
     <use xlink:href="#HelveticaNeue-19" transform="translate(194.578125 0)"/>
     <use xlink:href="#HelveticaNeue-3" transform="translate(250.171875 0)"/>
     <use xlink:href="#HelveticaNeue-57" transform="translate(277.96875 0)"/>
     <use xlink:href="#HelveticaNeue-5c" transform="translate(337.265625 0)"/>
    </g>
   </g>
   <g id="text_16">
    <!--  -->
    <g style="fill: #ffffff" transform="translate(78.819411 296.136462) scale(0.1898 -0.1898)">
     <use xlink:href="#bootstrap-icons-4c8"/>
    </g>
   </g>
   <g id="text_17">
    <!-- g -->
    <g style="fill: #1e293b" transform="translate(86.145195 305.173351) scale(0.0754 -0.0754)">
     <defs>
      <path id="HelveticaNeue-4e" d="M 3264 282 
L 3264 3309 
L 2752 3309 
L 2752 2835 
L 2746 2835 
Q 2598 3110 2336 3248 
Q 2074 3386 1760 3386 
Q 1331 3386 1036 3222 
Q 742 3059 563 2806 
Q 384 2554 307 2243 
Q 230 1933 230 1638 
Q 230 1299 323 995 
Q 416 691 601 464 
Q 787 237 1062 102 
Q 1338 -32 1709 -32 
Q 2029 -32 2313 112 
Q 2598 256 2739 563 
L 2752 563 
L 2752 346 
Q 2752 70 2697 -160 
Q 2643 -390 2521 -553 
Q 2400 -717 2214 -809 
Q 2029 -902 1760 -902 
Q 1626 -902 1478 -873 
Q 1331 -845 1206 -781 
Q 1082 -717 995 -614 
Q 909 -512 902 -365 
L 358 -365 
Q 371 -634 499 -819 
Q 627 -1005 822 -1120 
Q 1018 -1235 1258 -1286 
Q 1498 -1338 1728 -1338 
Q 2522 -1338 2893 -934 
Q 3264 -531 3264 282 
z
M 1741 442 
Q 1472 442 1293 554 
Q 1114 666 1005 848 
Q 896 1030 851 1254 
Q 806 1478 806 1702 
Q 806 1939 860 2156 
Q 915 2374 1033 2540 
Q 1152 2707 1337 2806 
Q 1523 2906 1786 2906 
Q 2042 2906 2221 2803 
Q 2400 2701 2512 2531 
Q 2624 2362 2675 2150 
Q 2726 1939 2726 1722 
Q 2726 1491 2672 1260 
Q 2618 1030 2502 848 
Q 2387 666 2198 554 
Q 2010 442 1741 442 
z
" transform="scale(0.015625)"/>
     </defs>
     <use xlink:href="#HelveticaNeue-4e"/>
    </g>
    <!-- 0.951 pu -->
    <g style="fill: #1e293b" transform="translate(73.498613 314.168571) scale(0.0754 -0.0754)">
     <use xlink:href="#HelveticaNeue-17"/>
     <use xlink:href="#HelveticaNeue-15" transform="translate(55.59375 0)"/>
     <use xlink:href="#HelveticaNeue-20" transform="translate(83.390625 0)"/>
     <use xlink:href="#HelveticaNeue-1c" transform="translate(138.984375 0)"/>
     <use xlink:href="#HelveticaNeue-18" transform="translate(194.578125 0)"/>
     <use xlink:href="#HelveticaNeue-3" transform="translate(250.171875 0)"/>
     <use xlink:href="#HelveticaNeue-57" transform="translate(277.96875 0)"/>
     <use xlink:href="#HelveticaNeue-5c" transform="translate(337.265625 0)"/>
    </g>
   </g>
   <g id="text_18">
    <!--  -->
    <g style="fill: #ffffff" transform="translate(34.391398 355.373812) scale(0.1898 -0.1898)">
     <use xlink:href="#bootstrap-icons-4c8"/>
    </g>
   </g>
   <g id="text_19">
    <!-- j -->
    <g style="fill: #1e293b" transform="translate(43.04434 364.410701) scale(0.0754 -0.0754)">
     <defs>
      <path id="HelveticaNeue-51" d="M 986 3904 
L 986 4570 
L 442 4570 
L 442 3904 
L 986 3904 
z
M 986 -416 
L 986 3309 
L 442 3309 
L 442 -326 
Q 442 -582 378 -681 
Q 314 -781 134 -781 
L 19 -781 
Q -6 -781 -28 -777 
Q -51 -774 -83 -768 
L -83 -1235 
Q 45 -1261 192 -1261 
Q 557 -1261 771 -1059 
Q 986 -858 986 -416 
z
" transform="scale(0.015625)"/>
     </defs>
     <use xlink:href="#HelveticaNeue-51"/>
    </g>
    <!-- 0.939 pu -->
    <g style="fill: #1e293b" transform="translate(29.0706 373.405921) scale(0.0754 -0.0754)">
     <use xlink:href="#HelveticaNeue-17"/>
     <use xlink:href="#HelveticaNeue-15" transform="translate(55.59375 0)"/>
     <use xlink:href="#HelveticaNeue-20" transform="translate(83.390625 0)"/>
     <use xlink:href="#HelveticaNeue-1a" transform="translate(138.984375 0)"/>
     <use xlink:href="#HelveticaNeue-20" transform="translate(194.578125 0)"/>
     <use xlink:href="#HelveticaNeue-3" transform="translate(250.171875 0)"/>
     <use xlink:href="#HelveticaNeue-57" transform="translate(277.96875 0)"/>
     <use xlink:href="#HelveticaNeue-5c" transform="translate(337.265625 0)"/>
    </g>
   </g>
   <g id="text_20">
    <!--  -->
    <g style="fill: #ffffff" transform="translate(64.010073 355.373812) scale(0.1898 -0.1898)">
     <use xlink:href="#bootstrap-icons-4c8"/>
    </g>
   </g>
   <g id="text_21">
    <!-- h -->
    <g style="fill: #1e293b" transform="translate(71.404189 364.410701) scale(0.0754 -0.0754)">
     <defs>
      <path id="HelveticaNeue-4f" d="M 410 4570 
L 410 0 
L 954 0 
L 954 1869 
Q 954 2093 1014 2281 
Q 1075 2470 1196 2611 
Q 1318 2752 1500 2829 
Q 1683 2906 1933 2906 
Q 2246 2906 2425 2726 
Q 2605 2547 2605 2240 
L 2605 0 
L 3149 0 
L 3149 2176 
Q 3149 2445 3094 2665 
Q 3040 2886 2905 3046 
Q 2771 3206 2553 3296 
Q 2336 3386 2010 3386 
Q 1862 3386 1705 3354 
Q 1549 3322 1405 3254 
Q 1261 3187 1145 3081 
Q 1030 2976 966 2822 
L 954 2822 
L 954 4570 
L 410 4570 
z
" transform="scale(0.015625)"/>
     </defs>
     <use xlink:href="#HelveticaNeue-4f"/>
    </g>
    <!-- 0.871 pu -->
    <g style="fill: #1e293b" transform="translate(58.689275 373.405921) scale(0.0754 -0.0754)">
     <defs>
      <path id="HelveticaNeue-1f" d="M 992 3360 
Q 992 3533 1056 3661 
Q 1120 3789 1225 3878 
Q 1331 3968 1478 4013 
Q 1626 4058 1786 4058 
Q 2118 4058 2332 3882 
Q 2547 3706 2547 3360 
Q 2547 3014 2336 2822 
Q 2125 2630 1798 2630 
Q 1632 2630 1485 2675 
Q 1338 2720 1229 2809 
Q 1120 2899 1056 3036 
Q 992 3174 992 3360 
z
M 416 3379 
Q 416 3072 589 2813 
Q 762 2554 1050 2438 
Q 666 2304 461 2006 
Q 256 1709 256 1306 
Q 256 960 374 701 
Q 493 442 701 269 
Q 909 96 1190 13 
Q 1472 -70 1798 -70 
Q 2112 -70 2387 19 
Q 2662 109 2864 285 
Q 3066 461 3184 717 
Q 3302 973 3302 1306 
Q 3302 1728 3104 2019 
Q 2906 2310 2496 2438 
Q 2784 2566 2953 2819 
Q 3123 3072 3123 3379 
Q 3123 3597 3046 3805 
Q 2970 4013 2806 4176 
Q 2643 4339 2380 4438 
Q 2118 4538 1747 4538 
Q 1485 4538 1245 4461 
Q 1005 4384 819 4237 
Q 634 4090 525 3875 
Q 416 3661 416 3379 
z
M 832 1280 
Q 832 1478 905 1638 
Q 979 1798 1110 1913 
Q 1242 2029 1418 2089 
Q 1594 2150 1792 2150 
Q 1984 2150 2153 2083 
Q 2323 2016 2451 1901 
Q 2579 1786 2652 1629 
Q 2726 1472 2726 1286 
Q 2726 1094 2659 934 
Q 2592 774 2467 656 
Q 2342 538 2172 470 
Q 2003 403 1798 403 
Q 1376 403 1104 636 
Q 832 870 832 1280 
z
" transform="scale(0.015625)"/>
     </defs>
     <use xlink:href="#HelveticaNeue-17"/>
     <use xlink:href="#HelveticaNeue-15" transform="translate(55.59375 0)"/>
     <use xlink:href="#HelveticaNeue-1f" transform="translate(83.390625 0)"/>
     <use xlink:href="#HelveticaNeue-1e" transform="translate(138.984375 0)"/>
     <use xlink:href="#HelveticaNeue-18" transform="translate(194.578125 0)"/>
     <use xlink:href="#HelveticaNeue-3" transform="translate(250.171875 0)"/>
     <use xlink:href="#HelveticaNeue-57" transform="translate(277.96875 0)"/>
     <use xlink:href="#HelveticaNeue-5c" transform="translate(337.265625 0)"/>
    </g>
   </g>
   <g id="text_22">
    <!-- New LV network (Figure 4) -->
    <g style="fill: #1e293b" transform="translate(3.6 18.225) scale(0.15 -0.15)">
     <defs>
      <path id="HelveticaNeue-Bold-35" d="M 442 4570 
L 442 0 
L 1382 0 
L 1382 3059 
L 1395 3059 
L 3296 0 
L 4301 0 
L 4301 4570 
L 3360 4570 
L 3360 1504 
L 3347 1504 
L 1440 4570 
L 442 4570 
z
" transform="scale(0.015625)"/>
      <path id="HelveticaNeue-Bold-4c" d="M 2573 2010 
L 1094 2010 
Q 1101 2106 1136 2227 
Q 1171 2349 1257 2457 
Q 1344 2566 1488 2640 
Q 1632 2714 1850 2714 
Q 2182 2714 2345 2534 
Q 2509 2355 2573 2010 
z
M 1094 1434 
L 3482 1434 
Q 3507 1818 3417 2170 
Q 3328 2522 3126 2797 
Q 2925 3072 2611 3235 
Q 2298 3398 1875 3398 
Q 1498 3398 1187 3264 
Q 877 3130 653 2896 
Q 429 2662 307 2342 
Q 186 2022 186 1651 
Q 186 1267 304 947 
Q 422 627 640 396 
Q 858 166 1171 41 
Q 1485 -83 1875 -83 
Q 2438 -83 2835 173 
Q 3232 429 3424 1024 
L 2624 1024 
Q 2579 870 2380 732 
Q 2182 595 1907 595 
Q 1523 595 1318 793 
Q 1114 992 1094 1434 
z
" transform="scale(0.015625)"/>
      <path id="HelveticaNeue-Bold-5e" d="M 4128 0 
L 5171 3309 
L 4237 3309 
L 3629 1069 
L 3616 1069 
L 3053 3309 
L 2170 3309 
L 1619 1062 
L 1606 1062 
L 998 3309 
L 38 3309 
L 1088 0 
L 2029 0 
L 2592 2221 
L 2605 2221 
L 3194 0 
L 4128 0 
z
" transform="scale(0.015625)"/>
      <path id="HelveticaNeue-Bold-3" transform="scale(0.015625)"/>
      <path id="HelveticaNeue-Bold-33" d="M 442 4570 
L 442 0 
L 3674 0 
L 3674 845 
L 1446 845 
L 1446 4570 
L 442 4570 
z
" transform="scale(0.015625)"/>
      <path id="HelveticaNeue-Bold-3d" d="M 2566 0 
L 4083 4570 
L 3046 4570 
L 2016 1357 
L 2003 1357 
L 986 4570 
L -45 4570 
L 1434 0 
L 2566 0 
z
" transform="scale(0.015625)"/>
      <path id="HelveticaNeue-Bold-55" d="M 346 3309 
L 346 0 
L 1254 0 
L 1254 1734 
Q 1254 2240 1420 2461 
Q 1587 2682 1958 2682 
Q 2285 2682 2413 2480 
Q 2541 2278 2541 1869 
L 2541 0 
L 3450 0 
L 3450 2035 
Q 3450 2342 3395 2595 
Q 3341 2848 3206 3024 
Q 3072 3200 2838 3299 
Q 2605 3398 2240 3398 
Q 1952 3398 1677 3267 
Q 1402 3136 1229 2848 
L 1210 2848 
L 1210 3309 
L 346 3309 
z
" transform="scale(0.015625)"/>
      <path id="HelveticaNeue-Bold-5b" d="M 1498 3309 
L 1498 4301 
L 589 4301 
L 589 3309 
L 38 3309 
L 38 2701 
L 589 2701 
L 589 749 
Q 589 499 672 345 
Q 755 192 899 109 
Q 1043 26 1232 -3 
Q 1421 -32 1632 -32 
Q 1766 -32 1907 -25 
Q 2048 -19 2163 0 
L 2163 704 
Q 2099 691 2028 684 
Q 1958 678 1882 678 
Q 1651 678 1574 755 
Q 1498 832 1498 1062 
L 1498 2701 
L 2163 2701 
L 2163 3309 
L 1498 3309 
z
" transform="scale(0.015625)"/>
      <path id="HelveticaNeue-Bold-56" d="M 1152 1651 
Q 1152 1850 1190 2042 
Q 1229 2234 1321 2381 
Q 1414 2528 1568 2621 
Q 1722 2714 1952 2714 
Q 2182 2714 2339 2621 
Q 2496 2528 2589 2381 
Q 2682 2234 2720 2042 
Q 2758 1850 2758 1651 
Q 2758 1453 2720 1264 
Q 2682 1075 2589 924 
Q 2496 774 2339 684 
Q 2182 595 1952 595 
Q 1722 595 1568 684 
Q 1414 774 1321 924 
Q 1229 1075 1190 1264 
Q 1152 1453 1152 1651 
z
M 243 1651 
Q 243 1254 364 934 
Q 486 614 710 387 
Q 934 160 1248 38 
Q 1562 -83 1952 -83 
Q 2342 -83 2659 38 
Q 2976 160 3200 387 
Q 3424 614 3545 934 
Q 3667 1254 3667 1651 
Q 3667 2048 3545 2371 
Q 3424 2694 3200 2921 
Q 2976 3149 2659 3273 
Q 2342 3398 1952 3398 
Q 1562 3398 1248 3273 
Q 934 3149 710 2921 
Q 486 2694 364 2371 
Q 243 2048 243 1651 
z
" transform="scale(0.015625)"/>
      <path id="HelveticaNeue-Bold-59" d="M 346 3309 
L 346 0 
L 1254 0 
L 1254 1491 
Q 1254 1715 1299 1907 
Q 1344 2099 1449 2243 
Q 1555 2387 1728 2470 
Q 1901 2554 2150 2554 
Q 2234 2554 2323 2544 
Q 2413 2534 2477 2522 
L 2477 3366 
Q 2368 3398 2278 3398 
Q 2106 3398 1946 3347 
Q 1786 3296 1645 3203 
Q 1504 3110 1395 2979 
Q 1286 2848 1222 2694 
L 1210 2694 
L 1210 3309 
L 346 3309 
z
" transform="scale(0.015625)"/>
      <path id="HelveticaNeue-Bold-52" d="M 429 4570 
L 429 0 
L 1338 0 
L 1338 1139 
L 1690 1478 
L 2598 0 
L 3699 0 
L 2310 2093 
L 3558 3309 
L 2483 3309 
L 1338 2118 
L 1338 4570 
L 429 4570 
z
" transform="scale(0.015625)"/>
      <path id="HelveticaNeue-Bold-f" d="M 1939 4678 
L 1178 4678 
Q 966 4371 809 4006 
Q 653 3642 547 3251 
Q 442 2861 387 2467 
Q 333 2074 333 1715 
Q 333 960 553 230 
Q 774 -499 1178 -1158 
L 1933 -1158 
Q 1568 -461 1405 275 
Q 1242 1011 1242 1779 
Q 1242 2534 1408 3267 
Q 1574 4000 1939 4678 
z
" transform="scale(0.015625)"/>
      <path id="HelveticaNeue-Bold-2d" d="M 442 4570 
L 442 0 
L 1446 0 
L 1446 1888 
L 3360 1888 
L 3360 2669 
L 1446 2669 
L 1446 3725 
L 3654 3725 
L 3654 4570 
L 442 4570 
z
" transform="scale(0.015625)"/>
      <path id="HelveticaNeue-Bold-50" d="M 1280 3821 
L 1280 4570 
L 371 4570 
L 371 3821 
L 1280 3821 
z
M 371 3309 
L 371 0 
L 1280 0 
L 1280 3309 
L 371 3309 
z
" transform="scale(0.015625)"/>
      <path id="HelveticaNeue-Bold-4e" d="M 1888 781 
Q 1677 781 1536 870 
Q 1395 960 1308 1101 
Q 1222 1242 1187 1418 
Q 1152 1594 1152 1773 
Q 1152 1958 1193 2128 
Q 1235 2298 1328 2429 
Q 1421 2560 1558 2637 
Q 1696 2714 1888 2714 
Q 2112 2714 2259 2630 
Q 2406 2547 2496 2406 
Q 2586 2266 2624 2083 
Q 2662 1901 2662 1696 
Q 2662 1517 2614 1353 
Q 2566 1190 2470 1062 
Q 2374 934 2227 857 
Q 2080 781 1888 781 
z
M 3526 211 
L 3526 3309 
L 2662 3309 
L 2662 2867 
L 2650 2867 
Q 2483 3155 2236 3276 
Q 1990 3398 1664 3398 
Q 1318 3398 1052 3264 
Q 787 3130 608 2902 
Q 429 2675 336 2377 
Q 243 2080 243 1760 
Q 243 1421 323 1117 
Q 403 813 576 585 
Q 749 358 1017 227 
Q 1286 96 1658 96 
Q 1958 96 2230 221 
Q 2502 346 2650 608 
L 2662 608 
L 2662 173 
Q 2669 -179 2493 -409 
Q 2317 -640 1933 -640 
Q 1690 -640 1504 -541 
Q 1318 -442 1254 -186 
L 352 -186 
Q 371 -467 508 -668 
Q 646 -870 854 -998 
Q 1062 -1126 1315 -1187 
Q 1568 -1248 1811 -1248 
Q 2381 -1248 2720 -1094 
Q 3059 -941 3238 -720 
Q 3418 -499 3472 -243 
Q 3526 13 3526 211 
z
" transform="scale(0.015625)"/>
      <path id="HelveticaNeue-Bold-5c" d="M 3450 0 
L 3450 3309 
L 2541 3309 
L 2541 1574 
Q 2541 1069 2374 848 
Q 2208 627 1837 627 
Q 1510 627 1382 828 
Q 1254 1030 1254 1440 
L 1254 3309 
L 346 3309 
L 346 1274 
Q 346 966 400 713 
Q 454 461 588 285 
Q 723 109 956 13 
Q 1190 -83 1555 -83 
Q 1843 -83 2118 45 
Q 2394 173 2566 461 
L 2586 461 
L 2586 0 
L 3450 0 
z
" transform="scale(0.015625)"/>
      <path id="HelveticaNeue-Bold-1b" d="M 1997 3341 
L 1997 1786 
L 819 1786 
L 1978 3341 
L 1997 3341 
z
M 1997 1037 
L 1997 0 
L 2861 0 
L 2861 1037 
L 3456 1037 
L 3456 1786 
L 2861 1786 
L 2861 4480 
L 2048 4480 
L 102 1869 
L 102 1037 
L 1997 1037 
z
" transform="scale(0.015625)"/>
      <path id="HelveticaNeue-Bold-10" d="M -38 -1158 
L 717 -1158 
Q 928 -858 1088 -493 
Q 1248 -128 1353 259 
Q 1459 646 1510 1040 
Q 1562 1434 1562 1792 
Q 1562 2547 1341 3283 
Q 1120 4019 717 4678 
L -32 4678 
Q 320 3981 486 3238 
Q 653 2496 653 1728 
Q 653 973 483 246 
Q 314 -480 -38 -1158 
z
" transform="scale(0.015625)"/>
     </defs>
     <use xlink:href="#HelveticaNeue-Bold-35"/>
     <use xlink:href="#HelveticaNeue-Bold-4c" transform="translate(74.09375 0)"/>
     <use xlink:href="#HelveticaNeue-Bold-5e" transform="translate(131.5 0)"/>
     <use xlink:href="#HelveticaNeue-Bold-3" transform="translate(212.90625 0)"/>
     <use xlink:href="#HelveticaNeue-Bold-33" transform="translate(240.703125 0)"/>
     <use xlink:href="#HelveticaNeue-Bold-3d" transform="translate(290.796875 0)"/>
     <use xlink:href="#HelveticaNeue-Bold-3" transform="translate(353.796875 0)"/>
     <use xlink:href="#HelveticaNeue-Bold-55" transform="translate(381.59375 0)"/>
     <use xlink:href="#HelveticaNeue-Bold-4c" transform="translate(440.890625 0)"/>
     <use xlink:href="#HelveticaNeue-Bold-5b" transform="translate(498.296875 0)"/>
     <use xlink:href="#HelveticaNeue-Bold-5e" transform="translate(533.5 0)"/>
     <use xlink:href="#HelveticaNeue-Bold-56" transform="translate(614.90625 0)"/>
     <use xlink:href="#HelveticaNeue-Bold-59" transform="translate(676 0)"/>
     <use xlink:href="#HelveticaNeue-Bold-52" transform="translate(714.90625 0)"/>
     <use xlink:href="#HelveticaNeue-Bold-3" transform="translate(772.3125 0)"/>
     <use xlink:href="#HelveticaNeue-Bold-f" transform="translate(800.109375 0)"/>
     <use xlink:href="#HelveticaNeue-Bold-2d" transform="translate(829.703125 0)"/>
     <use xlink:href="#HelveticaNeue-Bold-50" transform="translate(889 0)"/>
     <use xlink:href="#HelveticaNeue-Bold-4e" transform="translate(914.796875 0)"/>
     <use xlink:href="#HelveticaNeue-Bold-5c" transform="translate(975.890625 0)"/>
     <use xlink:href="#HelveticaNeue-Bold-59" transform="translate(1035.1875 0)"/>
     <use xlink:href="#HelveticaNeue-Bold-4c" transform="translate(1072.296875 0)"/>
     <use xlink:href="#HelveticaNeue-Bold-3" transform="translate(1129.703125 0)"/>
     <use xlink:href="#HelveticaNeue-Bold-1b" transform="translate(1157.5 0)"/>
     <use xlink:href="#HelveticaNeue-Bold-10" transform="translate(1213.09375 0)"/>
    </g>
   </g>
   <g id="legend_1">
    <g id="text_23">
     <!--  -->
     <g style="fill: #1e293b" transform="translate(120.185101 36.841) scale(0.092 -0.092)">
      <use xlink:href="#bootstrap-icons-526"/>
     </g>
    </g>
    <g id="text_24">
     <!-- Grid source -->
     <g transform="translate(136.785101 35.041) scale(0.08 -0.08)">
      <defs>
       <path id="HelveticaNeue-2e" d="M 3917 570 
L 4077 0 
L 4461 0 
L 4461 2406 
L 2458 2406 
L 2458 1894 
L 3917 1894 
Q 3930 1581 3834 1309 
Q 3738 1037 3549 835 
Q 3360 634 3085 518 
Q 2810 403 2451 403 
Q 2067 403 1776 553 
Q 1485 704 1286 957 
Q 1088 1210 985 1539 
Q 883 1869 883 2227 
Q 883 2592 972 2941 
Q 1062 3290 1251 3562 
Q 1440 3834 1737 4000 
Q 2035 4166 2451 4166 
Q 2707 4166 2934 4105 
Q 3162 4045 3341 3923 
Q 3520 3802 3641 3613 
Q 3763 3424 3808 3162 
L 4416 3162 
Q 4352 3565 4176 3849 
Q 4000 4134 3741 4320 
Q 3482 4506 3152 4592 
Q 2822 4678 2451 4678 
Q 1907 4678 1500 4476 
Q 1094 4275 822 3936 
Q 550 3597 412 3145 
Q 275 2694 275 2195 
Q 275 1747 422 1331 
Q 570 915 851 595 
Q 1133 275 1536 86 
Q 1939 -102 2451 -102 
Q 2854 -102 3251 54 
Q 3648 211 3917 570 
z
" transform="scale(0.015625)"/>
       <path id="HelveticaNeue-50" d="M 986 3904 
L 986 4570 
L 442 4570 
L 442 3904 
L 986 3904 
z
M 442 3309 
L 442 0 
L 986 0 
L 986 3309 
L 442 3309 
z
" transform="scale(0.015625)"/>
      </defs>
      <use xlink:href="#HelveticaNeue-2e"/>
      <use xlink:href="#HelveticaNeue-59" transform="translate(75.90625 0)"/>
      <use xlink:href="#HelveticaNeue-50" transform="translate(109.203125 0)"/>
      <use xlink:href="#HelveticaNeue-4b" transform="translate(131.40625 0)"/>
      <use xlink:href="#HelveticaNeue-3" transform="translate(190.703125 0)"/>
      <use xlink:href="#HelveticaNeue-5a" transform="translate(218.5 0)"/>
      <use xlink:href="#HelveticaNeue-56" transform="translate(268.5 0)"/>
      <use xlink:href="#HelveticaNeue-5c" transform="translate(325.90625 0)"/>
      <use xlink:href="#HelveticaNeue-59" transform="translate(381.5 0)"/>
      <use xlink:href="#HelveticaNeue-4a" transform="translate(413 0)"/>
      <use xlink:href="#HelveticaNeue-4c" transform="translate(466.703125 0)"/>
     </g>
    </g>
    <g id="text_25">
     <!--  -->
     <g style="fill: #1e293b" transform="translate(120.185101 48.561) scale(0.092 -0.092)">
      <use xlink:href="#bootstrap-icons-499"/>
     </g>
    </g>
    <g id="text_26">
     <!-- Transformer -->
     <g transform="translate(136.785101 46.761) scale(0.08 -0.08)">
      <defs>
       <path id="HelveticaNeue-3b" d="M 1536 4058 
L 1536 0 
L 2144 0 
L 2144 4058 
L 3667 4058 
L 3667 4570 
L 13 4570 
L 13 4058 
L 1536 4058 
z
" transform="scale(0.015625)"/>
       <path id="HelveticaNeue-55" d="M 410 3309 
L 410 0 
L 954 0 
L 954 1869 
Q 954 2093 1014 2281 
Q 1075 2470 1196 2611 
Q 1318 2752 1500 2829 
Q 1683 2906 1933 2906 
Q 2246 2906 2425 2726 
Q 2605 2547 2605 2240 
L 2605 0 
L 3149 0 
L 3149 2176 
Q 3149 2445 3094 2665 
Q 3040 2886 2905 3046 
Q 2771 3206 2553 3296 
Q 2336 3386 2010 3386 
Q 1274 3386 934 2784 
L 922 2784 
L 922 3309 
L 410 3309 
z
" transform="scale(0.015625)"/>
       <path id="HelveticaNeue-54" d="M 410 3309 
L 410 0 
L 954 0 
L 954 2061 
Q 954 2157 1002 2301 
Q 1050 2445 1155 2579 
Q 1261 2714 1430 2810 
Q 1600 2906 1837 2906 
Q 2022 2906 2140 2851 
Q 2259 2797 2329 2697 
Q 2400 2598 2429 2464 
Q 2458 2330 2458 2170 
L 2458 0 
L 3002 0 
L 3002 2061 
Q 3002 2445 3232 2675 
Q 3462 2906 3866 2906 
Q 4064 2906 4189 2848 
Q 4314 2790 4384 2691 
Q 4454 2592 4480 2457 
Q 4506 2323 4506 2170 
L 4506 0 
L 5050 0 
L 5050 2426 
Q 5050 2682 4970 2864 
Q 4890 3046 4746 3161 
Q 4602 3277 4400 3331 
Q 4198 3386 3949 3386 
Q 3622 3386 3350 3238 
Q 3078 3091 2912 2822 
Q 2810 3130 2560 3258 
Q 2310 3386 2003 3386 
Q 1306 3386 934 2822 
L 922 2822 
L 922 3309 
L 410 3309 
z
" transform="scale(0.015625)"/>
      </defs>
      <use xlink:href="#HelveticaNeue-3b"/>
      <use xlink:href="#HelveticaNeue-59" transform="translate(48.203125 0)"/>
      <use xlink:href="#HelveticaNeue-48" transform="translate(81.5 0)"/>
      <use xlink:href="#HelveticaNeue-55" transform="translate(135.203125 0)"/>
      <use xlink:href="#HelveticaNeue-5a" transform="translate(190.796875 0)"/>
      <use xlink:href="#HelveticaNeue-4d" transform="translate(240.796875 0)"/>
      <use xlink:href="#HelveticaNeue-56" transform="translate(270.390625 0)"/>
      <use xlink:href="#HelveticaNeue-59" transform="translate(327.796875 0)"/>
      <use xlink:href="#HelveticaNeue-54" transform="translate(361.09375 0)"/>
      <use xlink:href="#HelveticaNeue-4c" transform="translate(446.390625 0)"/>
      <use xlink:href="#HelveticaNeue-59" transform="translate(500.09375 0)"/>
     </g>
    </g>
    <g id="text_27">
     <!--  -->
     <g style="fill: #1e293b" transform="translate(120.185101 60.281) scale(0.092 -0.092)">
      <use xlink:href="#bootstrap-icons-648"/>
     </g>
    </g>
    <g id="text_28">
     <!-- Bus (junction) -->
     <g transform="translate(136.785101 58.481) scale(0.08 -0.08)">
      <defs>
       <path id="HelveticaNeue-29" d="M 1107 2605 
L 1107 4058 
L 2323 4058 
Q 2522 4058 2698 4035 
Q 2874 4013 3008 3936 
Q 3142 3859 3219 3718 
Q 3296 3578 3296 3334 
Q 3296 2970 3069 2787 
Q 2842 2605 2323 2605 
L 1107 2605 
z
M 499 4570 
L 499 0 
L 2707 0 
Q 3046 0 3305 112 
Q 3565 224 3741 406 
Q 3917 589 4006 825 
Q 4096 1062 4096 1312 
Q 4096 1734 3872 2028 
Q 3648 2323 3226 2413 
L 3226 2426 
Q 3552 2554 3728 2819 
Q 3904 3085 3904 3450 
Q 3904 3795 3747 4032 
Q 3590 4269 3366 4403 
Q 3264 4467 3120 4499 
Q 2976 4531 2809 4547 
Q 2643 4563 2473 4566 
Q 2304 4570 2157 4570 
L 499 4570 
z
M 1107 512 
L 1107 2093 
L 2496 2093 
Q 2688 2093 2867 2057 
Q 3046 2022 3184 1936 
Q 3322 1850 3405 1702 
Q 3488 1555 3488 1331 
Q 3488 947 3261 729 
Q 3034 512 2630 512 
L 1107 512 
z
" transform="scale(0.015625)"/>
       <path id="HelveticaNeue-f" d="M 1306 -1261 
L 1722 -1261 
Q 1267 -525 1072 198 
Q 877 922 877 1728 
Q 877 2515 1069 3232 
Q 1261 3949 1722 4678 
L 1306 4678 
Q 806 4019 553 3251 
Q 301 2483 301 1728 
Q 301 1306 371 922 
Q 442 538 573 173 
Q 704 -192 889 -547 
Q 1075 -902 1306 -1261 
z
" transform="scale(0.015625)"/>
       <path id="HelveticaNeue-5b" d="M 1165 3309 
L 1165 4301 
L 621 4301 
L 621 3309 
L 58 3309 
L 58 2829 
L 621 2829 
L 621 723 
Q 621 493 665 352 
Q 710 211 803 134 
Q 896 58 1046 29 
Q 1197 0 1408 0 
L 1824 0 
L 1824 480 
L 1574 480 
Q 1446 480 1366 489 
Q 1286 499 1241 531 
Q 1197 563 1181 620 
Q 1165 678 1165 774 
L 1165 2829 
L 1824 2829 
L 1824 3309 
L 1165 3309 
z
" transform="scale(0.015625)"/>
       <path id="HelveticaNeue-10" d="M -58 -1261 
L 352 -1261 
Q 851 -602 1104 163 
Q 1357 928 1357 1683 
Q 1357 2106 1286 2490 
Q 1216 2874 1085 3242 
Q 954 3610 768 3965 
Q 582 4320 352 4678 
L -58 4678 
Q 390 3942 585 3216 
Q 781 2490 781 1683 
Q 781 902 589 182 
Q 397 -538 -58 -1261 
z
" transform="scale(0.015625)"/>
      </defs>
      <use xlink:href="#HelveticaNeue-29"/>
      <use xlink:href="#HelveticaNeue-5c" transform="translate(68.5 0)"/>
      <use xlink:href="#HelveticaNeue-5a" transform="translate(124.09375 0)"/>
      <use xlink:href="#HelveticaNeue-3" transform="translate(174.09375 0)"/>
      <use xlink:href="#HelveticaNeue-f" transform="translate(201.890625 0)"/>
      <use xlink:href="#HelveticaNeue-51" transform="translate(227.796875 0)"/>
      <use xlink:href="#HelveticaNeue-5c" transform="translate(250 0)"/>
      <use xlink:href="#HelveticaNeue-55" transform="translate(305.59375 0)"/>
      <use xlink:href="#HelveticaNeue-4a" transform="translate(361.1875 0)"/>
      <use xlink:href="#HelveticaNeue-5b" transform="translate(414.890625 0)"/>
      <use xlink:href="#HelveticaNeue-50" transform="translate(446.390625 0)"/>
      <use xlink:href="#HelveticaNeue-56" transform="translate(468.59375 0)"/>
      <use xlink:href="#HelveticaNeue-55" transform="translate(526 0)"/>
      <use xlink:href="#HelveticaNeue-10" transform="translate(581.59375 0)"/>
     </g>
    </g>
    <g id="text_29">
     <!--  -->
     <g style="fill: #1e293b" transform="translate(120.185101 72.001) scale(0.092 -0.092)">
      <use xlink:href="#bootstrap-icons-4c8"/>
     </g>
    </g>
    <g id="text_30">
     <!-- Load bus -->
     <g transform="translate(136.785101 70.201) scale(0.08 -0.08)">
      <defs>
       <path id="HelveticaNeue-33" d="M 499 4570 
L 499 0 
L 3526 0 
L 3526 512 
L 1107 512 
L 1107 4570 
L 499 4570 
z
" transform="scale(0.015625)"/>
      </defs>
      <use xlink:href="#HelveticaNeue-33"/>
      <use xlink:href="#HelveticaNeue-56" transform="translate(55.59375 0)"/>
      <use xlink:href="#HelveticaNeue-48" transform="translate(113 0)"/>
      <use xlink:href="#HelveticaNeue-4b" transform="translate(166.703125 0)"/>
      <use xlink:href="#HelveticaNeue-3" transform="translate(226 0)"/>
      <use xlink:href="#HelveticaNeue-49" transform="translate(253.796875 0)"/>
      <use xlink:href="#HelveticaNeue-5c" transform="translate(313.09375 0)"/>
      <use xlink:href="#HelveticaNeue-5a" transform="translate(368.6875 0)"/>
     </g>
    </g>
    <g id="text_31">
     <!--  -->
     <g style="fill: #1e293b" transform="translate(120.185101 83.721) scale(0.092 -0.092)">
      <defs>
       <path id="bootstrap-icons-73c" d="M 3200 1600 
Q 3627 1600 4000 1813 
Q 4373 2027 4586 2400 
Q 4800 2773 4800 3200 
Q 4800 3627 4586 4000 
Q 4373 4373 4000 4586 
Q 3627 4800 3200 4800 
Q 2773 4800 2400 4586 
Q 2027 4373 1813 4000 
Q 1600 3627 1600 3200 
Q 1600 2773 1813 2400 
Q 2027 2027 2400 1813 
Q 2773 1600 3200 1600 
z
M 3200 6400 
Q 3285 6400 3338 6346 
Q 3392 6293 3392 6208 
L 3392 5397 
Q 3392 5312 3338 5258 
Q 3285 5205 3200 5205 
Q 3115 5205 3061 5258 
Q 3008 5312 3008 5397 
L 3008 6208 
Q 3008 6293 3061 6346 
Q 3115 6400 3200 6400 
z
M 3200 1195 
Q 3285 1195 3338 1141 
Q 3392 1088 3392 1003 
L 3392 192 
Q 3392 107 3338 53 
Q 3285 0 3200 0 
Q 3115 0 3061 53 
Q 3008 107 3008 192 
L 3008 1003 
Q 3008 1088 3061 1141 
Q 3115 1195 3200 1195 
z
M 6400 3200 
Q 6400 3115 6346 3061 
Q 6293 3008 6208 3008 
L 5397 3008 
Q 5312 3008 5258 3061 
Q 5205 3115 5205 3200 
Q 5205 3285 5258 3338 
Q 5312 3392 5397 3392 
L 6208 3392 
Q 6293 3392 6346 3338 
Q 6400 3285 6400 3200 
z
M 1195 3200 
Q 1195 3115 1141 3061 
Q 1088 3008 1003 3008 
L 192 3008 
Q 107 3008 53 3061 
Q 0 3115 0 3200 
Q 0 3285 53 3338 
Q 107 3392 192 3392 
L 1003 3392 
Q 1088 3392 1141 3338 
Q 1195 3285 1195 3200 
z
M 5461 5461 
Q 5525 5397 5525 5322 
Q 5525 5248 5461 5184 
L 4907 4608 
Q 4843 4565 4757 4565 
Q 4672 4565 4618 4618 
Q 4565 4672 4565 4757 
Q 4565 4843 4608 4907 
L 5184 5461 
Q 5248 5525 5322 5525 
Q 5397 5525 5461 5461 
z
M 1792 1792 
Q 1835 1728 1835 1642 
Q 1835 1557 1792 1493 
L 1216 939 
Q 1152 875 1077 875 
Q 1003 875 939 939 
Q 875 1003 875 1077 
Q 875 1152 939 1216 
L 1493 1792 
Q 1557 1835 1642 1835 
Q 1728 1835 1792 1792 
z
M 5461 939 
Q 5397 875 5322 875 
Q 5248 875 5184 939 
L 4608 1493 
Q 4565 1557 4565 1642 
Q 4565 1728 4618 1781 
Q 4672 1835 4757 1835 
Q 4843 1835 4907 1792 
L 5461 1216 
Q 5525 1152 5525 1077 
Q 5525 1003 5461 939 
z
M 1792 4608 
Q 1728 4565 1642 4565 
Q 1557 4565 1493 4608 
L 939 5184 
Q 853 5269 885 5376 
Q 917 5483 1024 5515 
Q 1131 5547 1216 5461 
L 1792 4907 
Q 1835 4843 1835 4757 
Q 1835 4672 1792 4608 
z
" transform="scale(0.015625)"/>
      </defs>
      <use xlink:href="#bootstrap-icons-73c"/>
     </g>
    </g>
    <g id="text_32">
     <!-- PV system -->
     <g transform="translate(136.785101 81.921) scale(0.08 -0.08)">
      <defs>
       <path id="HelveticaNeue-37" d="M 1107 2381 
L 1107 4058 
L 2298 4058 
Q 2816 4058 3056 3843 
Q 3296 3629 3296 3219 
Q 3296 2810 3056 2592 
Q 2816 2374 2298 2381 
L 1107 2381 
z
M 499 4570 
L 499 0 
L 1107 0 
L 1107 1869 
L 2502 1869 
Q 3194 1862 3549 2220 
Q 3904 2579 3904 3219 
Q 3904 3859 3549 4214 
Q 3194 4570 2502 4570 
L 499 4570 
z
" transform="scale(0.015625)"/>
       <path id="HelveticaNeue-3d" d="M 2298 0 
L 3923 4570 
L 3290 4570 
L 1971 608 
L 1958 608 
L 653 4570 
L 0 4570 
L 1606 0 
L 2298 0 
z
" transform="scale(0.015625)"/>
       <path id="HelveticaNeue-60" d="M 1709 -442 
Q 1613 -685 1520 -851 
Q 1427 -1018 1315 -1123 
Q 1203 -1229 1065 -1277 
Q 928 -1325 749 -1325 
Q 653 -1325 557 -1312 
Q 461 -1299 371 -1267 
L 371 -768 
Q 442 -800 534 -822 
Q 627 -845 691 -845 
Q 858 -845 970 -765 
Q 1082 -685 1139 -538 
L 1363 19 
L 51 3309 
L 666 3309 
L 1632 602 
L 1645 602 
L 2573 3309 
L 3149 3309 
L 1709 -442 
z
" transform="scale(0.015625)"/>
      </defs>
      <use xlink:href="#HelveticaNeue-37"/>
      <use xlink:href="#HelveticaNeue-3d" transform="translate(64.796875 0)"/>
      <use xlink:href="#HelveticaNeue-3" transform="translate(125.890625 0)"/>
      <use xlink:href="#HelveticaNeue-5a" transform="translate(153.6875 0)"/>
      <use xlink:href="#HelveticaNeue-60" transform="translate(203.6875 0)"/>
      <use xlink:href="#HelveticaNeue-5a" transform="translate(253.6875 0)"/>
      <use xlink:href="#HelveticaNeue-5b" transform="translate(303.6875 0)"/>
      <use xlink:href="#HelveticaNeue-4c" transform="translate(335.1875 0)"/>
      <use xlink:href="#HelveticaNeue-54" transform="translate(388.890625 0)"/>
     </g>
    </g>
    <g id="line2d_11">
     <defs>
      <path id="m4b97027878" d="M 0 4.5 
C 1.193414 4.5 2.338109 4.025852 3.181981 3.181981 
C 4.025852 2.338109 4.5 1.193414 4.5 0 
C 4.5 -1.193414 4.025852 -2.338109 3.181981 -3.181981 
C 2.338109 -4.025852 1.193414 -4.5 0 -4.5 
C -1.193414 -4.5 -2.338109 -4.025852 -3.181981 -3.181981 
C -4.025852 -2.338109 -4.5 -1.193414 -4.5 0 
C -4.5 1.193414 -4.025852 2.338109 -3.181981 3.181981 
C -2.338109 4.025852 -1.193414 4.5 0 4.5 
z
" style="stroke: #059669; stroke-width: 0.8"/>
     </defs>
     <g>
      <use xlink:href="#m4b97027878" x="124.785101" y="90.841" style="fill: #059669; stroke: #059669; stroke-width: 0.8"/>
     </g>
    </g>
    <g id="text_33">
     <!-- Compliant (0.94-1.10 pu) -->
     <g transform="translate(136.785101 93.641) scale(0.08 -0.08)">
      <defs>
       <path id="HelveticaNeue-2a" d="M 3712 3194 
L 4320 3194 
Q 4269 3558 4102 3836 
Q 3936 4115 3686 4300 
Q 3437 4486 3117 4582 
Q 2797 4678 2438 4678 
Q 1914 4678 1507 4489 
Q 1101 4301 829 3974 
Q 557 3648 416 3209 
Q 275 2771 275 2272 
Q 275 1773 406 1337 
Q 538 902 800 582 
Q 1062 262 1459 80 
Q 1856 -102 2387 -102 
Q 3264 -102 3769 378 
Q 4275 858 4365 1722 
L 3757 1722 
Q 3738 1440 3642 1197 
Q 3546 954 3376 778 
Q 3206 602 2972 502 
Q 2739 403 2438 403 
Q 2029 403 1734 556 
Q 1440 710 1251 969 
Q 1062 1229 972 1577 
Q 883 1926 883 2317 
Q 883 2675 972 3008 
Q 1062 3341 1251 3600 
Q 1440 3859 1731 4012 
Q 2022 4166 2432 4166 
Q 2912 4166 3261 3923 
Q 3610 3680 3712 3194 
z
" transform="scale(0.015625)"/>
       <path id="HelveticaNeue-53" d="M 442 4570 
L 442 0 
L 986 0 
L 986 4570 
L 442 4570 
z
" transform="scale(0.015625)"/>
       <path id="HelveticaNeue-14" d="M 320 2035 
L 320 1523 
L 2170 1523 
L 2170 2035 
L 320 2035 
z
" transform="scale(0.015625)"/>
      </defs>
      <use xlink:href="#HelveticaNeue-2a"/>
      <use xlink:href="#HelveticaNeue-56" transform="translate(72.203125 0)"/>
      <use xlink:href="#HelveticaNeue-54" transform="translate(129.609375 0)"/>
      <use xlink:href="#HelveticaNeue-57" transform="translate(214.90625 0)"/>
      <use xlink:href="#HelveticaNeue-53" transform="translate(274.203125 0)"/>
      <use xlink:href="#HelveticaNeue-50" transform="translate(296.40625 0)"/>
      <use xlink:href="#HelveticaNeue-48" transform="translate(318.609375 0)"/>
      <use xlink:href="#HelveticaNeue-55" transform="translate(372.3125 0)"/>
      <use xlink:href="#HelveticaNeue-5b" transform="translate(427.90625 0)"/>
      <use xlink:href="#HelveticaNeue-3" transform="translate(459.40625 0)"/>
      <use xlink:href="#HelveticaNeue-f" transform="translate(487.203125 0)"/>
      <use xlink:href="#HelveticaNeue-17" transform="translate(513.109375 0)"/>
      <use xlink:href="#HelveticaNeue-15" transform="translate(568.703125 0)"/>
      <use xlink:href="#HelveticaNeue-20" transform="translate(596.5 0)"/>
      <use xlink:href="#HelveticaNeue-1b" transform="translate(652.09375 0)"/>
      <use xlink:href="#HelveticaNeue-14" transform="translate(707.6875 0)"/>
      <use xlink:href="#HelveticaNeue-18" transform="translate(746.59375 0)"/>
      <use xlink:href="#HelveticaNeue-15" transform="translate(802.1875 0)"/>
      <use xlink:href="#HelveticaNeue-18" transform="translate(829.984375 0)"/>
      <use xlink:href="#HelveticaNeue-17" transform="translate(885.578125 0)"/>
      <use xlink:href="#HelveticaNeue-3" transform="translate(941.171875 0)"/>
      <use xlink:href="#HelveticaNeue-57" transform="translate(968.96875 0)"/>
      <use xlink:href="#HelveticaNeue-5c" transform="translate(1028.265625 0)"/>
      <use xlink:href="#HelveticaNeue-10" transform="translate(1083.859375 0)"/>
     </g>
    </g>
    <g id="line2d_12">
     <defs>
      <path id="mb06b2e4e05" d="M 0 4.5 
C 1.193414 4.5 2.338109 4.025852 3.181981 3.181981 
C 4.025852 2.338109 4.5 1.193414 4.5 0 
C 4.5 -1.193414 4.025852 -2.338109 3.181981 -3.181981 
C 2.338109 -4.025852 1.193414 -4.5 0 -4.5 
C -1.193414 -4.5 -2.338109 -4.025852 -3.181981 -3.181981 
C -4.025852 -2.338109 -4.5 -1.193414 -4.5 0 
C -4.5 1.193414 -4.025852 2.338109 -3.181981 3.181981 
C -2.338109 4.025852 -1.193414 4.5 0 4.5 
z
" style="stroke: #ea580c; stroke-width: 0.8"/>
     </defs>
     <g>
      <use xlink:href="#mb06b2e4e05" x="124.785101" y="102.561" style="fill: #ea580c; stroke: #ea580c; stroke-width: 0.8"/>
     </g>
    </g>
    <g id="text_34">
     <!-- Near limit -->
     <g transform="translate(136.785101 105.361) scale(0.08 -0.08)">
      <defs>
       <path id="HelveticaNeue-35" d="M 493 4570 
L 493 0 
L 1069 0 
L 1069 3667 
L 1082 3667 
L 3469 0 
L 4134 0 
L 4134 4570 
L 3558 4570 
L 3558 864 
L 3546 864 
L 1139 4570 
L 493 4570 
z
" transform="scale(0.015625)"/>
      </defs>
      <use xlink:href="#HelveticaNeue-35"/>
      <use xlink:href="#HelveticaNeue-4c" transform="translate(72.203125 0)"/>
      <use xlink:href="#HelveticaNeue-48" transform="translate(125.90625 0)"/>
      <use xlink:href="#HelveticaNeue-59" transform="translate(179.609375 0)"/>
      <use xlink:href="#HelveticaNeue-3" transform="translate(212.90625 0)"/>
      <use xlink:href="#HelveticaNeue-53" transform="translate(240.703125 0)"/>
      <use xlink:href="#HelveticaNeue-50" transform="translate(262.90625 0)"/>
      <use xlink:href="#HelveticaNeue-54" transform="translate(285.109375 0)"/>
      <use xlink:href="#HelveticaNeue-50" transform="translate(370.40625 0)"/>
      <use xlink:href="#HelveticaNeue-5b" transform="translate(392.609375 0)"/>
     </g>
    </g>
    <g id="line2d_13">
     <defs>
      <path id="mf0a0990098" d="M 0 4.5 
C 1.193414 4.5 2.338109 4.025852 3.181981 3.181981 
C 4.025852 2.338109 4.5 1.193414 4.5 0 
C 4.5 -1.193414 4.025852 -2.338109 3.181981 -3.181981 
C 2.338109 -4.025852 1.193414 -4.5 0 -4.5 
C -1.193414 -4.5 -2.338109 -4.025852 -3.181981 -3.181981 
C -4.025852 -2.338109 -4.5 -1.193414 -4.5 0 
C -4.5 1.193414 -4.025852 2.338109 -3.181981 3.181981 
C -2.338109 4.025852 -1.193414 4.5 0 4.5 
z
" style="stroke: #dc2626; stroke-width: 0.8"/>
     </defs>
     <g>
      <use xlink:href="#mf0a0990098" x="124.785101" y="114.281" style="fill: #dc2626; stroke: #dc2626; stroke-width: 0.8"/>
     </g>
    </g>
    <g id="text_35">
     <!-- Violation -->
     <g transform="translate(136.785101 117.081) scale(0.08 -0.08)">
      <use xlink:href="#HelveticaNeue-3d"/>
      <use xlink:href="#HelveticaNeue-50" transform="translate(59.296875 0)"/>
      <use xlink:href="#HelveticaNeue-56" transform="translate(81.5 0)"/>
      <use xlink:href="#HelveticaNeue-53" transform="translate(138.90625 0)"/>
      <use xlink:href="#HelveticaNeue-48" transform="translate(161.109375 0)"/>
      <use xlink:href="#HelveticaNeue-5b" transform="translate(214.8125 0)"/>
      <use xlink:href="#HelveticaNeue-50" transform="translate(246.3125 0)"/>
      <use xlink:href="#HelveticaNeue-56" transform="translate(268.515625 0)"/>
      <use xlink:href="#HelveticaNeue-55" transform="translate(325.921875 0)"/>
     </g>
    </g>
   </g>
  </g>
 </g>
 <defs>
  <clipPath id="p36bfe30492">
   <rect x="3.6" y="24.225" width="110.181472" height="353.775"/>
  </clipPath>
 </defs>
</svg>
