<?xml version="1.0" encoding="utf-8" standalone="no"?>
<!DOCTYPE svg PUBLIC "-//W3C//DTD SVG 1.1//EN"
  "http://www.w3.org/Graphics/SVG/1.1/DTD/svg11.dtd">
<svg xmlns:xlink="http://www.w3.org/1999/xlink" width="562.262131pt" height="473.76pt" viewBox="0 0 562.262131 473.76" xmlns="http://www.w3.org/2000/svg" version="1.1">
 <metadata>
  <rdf:RDF xmlns:dc="http://purl.org/dc/elements/1.1/" xmlns:cc="http://creativecommons.org/ns#" xmlns:rdf="http://www.w3.org/1999/02/22-rdf-syntax-ns#">
   <cc:Work>
    <dc:type rdf:resource="http://purl.org/dc/dcmitype/StillImage"/>
    <dc:date>2026-07-17T19:12:40.616914</dc:date>
    <dc:format>image/svg+xml</dc:format>
    <dc:creator>
     <cc:Agent>
      <dc:title>Matplotlib v3.11.0, https://matplotlib.org/</dc:title>
     </cc:Agent>
    </dc:creator>
   </cc:Work>
  </rdf:RDF>
 </metadata>
 <defs>
  <style type="text/css">*{stroke-linejoin: round; stroke-linecap: butt}</style>
 </defs>
 <g id="figure_1">
  <g id="patch_1">
   <path d="M 0 473.76 
L 562.262131 473.76 
L 562.262131 -0 
L 0 -0 
z
" style="fill: #ffffff"/>
  </g>
  <g id="axes_1">
   <g id="patch_2">
    <path d="M 114.5025 433.528 
L 483.035918 433.528 
L 483.035918 69.52 
L 114.5025 69.52 
z
" style="fill: #ffffff"/>
   </g>
   <g id="line2d_1">
    <path d="M 201.874576 146.846375 
L 201.874576 86.065818 
" clip-path="url(#pd9fc01e528)" style="fill: none; stroke-dasharray: 1.85,0.8; stroke-dashoffset: 0; stroke: #bbbbbb; stroke-width: 0.5"/>
   </g>
   <g id="line2d_2">
    <path d="M 230.750944 180.613351 
L 230.750944 119.832794 
" clip-path="url(#pd9fc01e528)" style="fill: none; stroke-dasharray: 1.85,0.8; stroke-dashoffset: 0; stroke: #bbbbbb; stroke-width: 0.5"/>
   </g>
   <g id="line2d_3">
    <path d="M 255.348331 214.380327 
L 255.348331 153.59977 
" clip-path="url(#pd9fc01e528)" style="fill: none; stroke-dasharray: 1.85,0.8; stroke-dashoffset: 0; stroke: #bbbbbb; stroke-width: 0.5"/>
   </g>
   <g id="line2d_4">
    <path d="M 278.1459 248.147302 
L 278.1459 187.366746 
" clip-path="url(#pd9fc01e528)" style="fill: none; stroke-dasharray: 1.85,0.8; stroke-dashoffset: 0; stroke: #bbbbbb; stroke-width: 0.5"/>
   </g>
   <g id="line2d_5">
    <path d="M 300.002569 281.914278 
L 300.002569 221.133722 
" clip-path="url(#pd9fc01e528)" style="fill: none; stroke-dasharray: 1.85,0.8; stroke-dashoffset: 0; stroke: #bbbbbb; stroke-width: 0.5"/>
   </g>
   <g id="line2d_6">
    <path d="M 320.755704 315.681254 
L 320.755704 254.900698 
" clip-path="url(#pd9fc01e528)" style="fill: none; stroke-dasharray: 1.85,0.8; stroke-dashoffset: 0; stroke: #bbbbbb; stroke-width: 0.5"/>
   </g>
   <g id="line2d_7">
    <path d="M 340.594837 349.44823 
L 340.594837 288.667673 
" clip-path="url(#pd9fc01e528)" style="fill: none; stroke-dasharray: 1.85,0.8; stroke-dashoffset: 0; stroke: #bbbbbb; stroke-width: 0.5"/>
   </g>
   <g id="line2d_8">
    <path d="M 359.471987 383.215206 
L 359.471987 322.434649 
" clip-path="url(#pd9fc01e528)" style="fill: none; stroke-dasharray: 1.85,0.8; stroke-dashoffset: 0; stroke: #bbbbbb; stroke-width: 0.5"/>
   </g>
   <g id="line2d_9">
    <path d="M 377.1168 416.982182 
L 377.1168 356.201625 
" clip-path="url(#pd9fc01e528)" style="fill: none; stroke-dasharray: 1.85,0.8; stroke-dashoffset: 0; stroke: #bbbbbb; stroke-width: 0.5"/>
   </g>
   <g id="line2d_10">
    <path d="M 114.5025 403.475391 
L 483.035918 403.475391 
" clip-path="url(#pd9fc01e528)" style="fill: none; stroke-dasharray: 0.5,2.5; stroke-dashoffset: 0; stroke: #cccccc; stroke-width: 0.5"/>
   </g>
   <g id="line2d_11">
    <path d="M 114.5025 369.708416 
L 483.035918 369.708416 
" clip-path="url(#pd9fc01e528)" style="fill: none; stroke-dasharray: 0.5,2.5; stroke-dashoffset: 0; stroke: #cccccc; stroke-width: 0.5"/>
   </g>
   <g id="line2d_12">
    <path d="M 114.5025 335.94144 
L 483.035918 335.94144 
" clip-path="url(#pd9fc01e528)" style="fill: none; stroke-dasharray: 0.5,2.5; stroke-dashoffset: 0; stroke: #cccccc; stroke-width: 0.5"/>
   </g>
   <g id="line2d_13">
    <path d="M 114.5025 302.174464 
L 483.035918 302.174464 
" clip-path="url(#pd9fc01e528)" style="fill: none; stroke-dasharray: 0.5,2.5; stroke-dashoffset: 0; stroke: #cccccc; stroke-width: 0.5"/>
   </g>
   <g id="line2d_14">
    <path d="M 114.5025 268.407488 
L 483.035918 268.407488 
" clip-path="url(#pd9fc01e528)" style="fill: none; stroke-dasharray: 0.5,2.5; stroke-dashoffset: 0; stroke: #cccccc; stroke-width: 0.5"/>
   </g>
   <g id="line2d_15">
    <path d="M 114.5025 234.640512 
L 483.035918 234.640512 
" clip-path="url(#pd9fc01e528)" style="fill: none; stroke-dasharray: 0.5,2.5; stroke-dashoffset: 0; stroke: #cccccc; stroke-width: 0.5"/>
   </g>
   <g id="line2d_16">
    <path d="M 114.5025 200.873536 
L 483.035918 200.873536 
" clip-path="url(#pd9fc01e528)" style="fill: none; stroke-dasharray: 0.5,2.5; stroke-dashoffset: 0; stroke: #cccccc; stroke-width: 0.5"/>
   </g>
   <g id="line2d_17">
    <path d="M 114.5025 167.10656 
L 483.035918 167.10656 
" clip-path="url(#pd9fc01e528)" style="fill: none; stroke-dasharray: 0.5,2.5; stroke-dashoffset: 0; stroke: #cccccc; stroke-width: 0.5"/>
   </g>
   <g id="line2d_18">
    <path d="M 114.5025 133.339584 
L 483.035918 133.339584 
" clip-path="url(#pd9fc01e528)" style="fill: none; stroke-dasharray: 0.5,2.5; stroke-dashoffset: 0; stroke: #cccccc; stroke-width: 0.5"/>
   </g>
   <g id="line2d_19">
    <path d="M 114.5025 99.572609 
L 483.035918 99.572609 
" clip-path="url(#pd9fc01e528)" style="fill: none; stroke-dasharray: 0.5,2.5; stroke-dashoffset: 0; stroke: #cccccc; stroke-width: 0.5"/>
   </g>
   <g id="line2d_20">
    <path d="M 479.902131 433.528 
L 479.902131 397.1272 
" clip-path="url(#pd9fc01e528)" style="fill: none; stroke-dasharray: 1.85,0.8; stroke-dashoffset: 0; stroke: #bbbbbb; stroke-width: 0.5"/>
   </g>
   <g id="line2d_21">
    <path d="M 166.523374 433.528 
L 166.523374 69.52 
" clip-path="url(#pd9fc01e528)" style="fill: none; stroke-dasharray: 1.85,0.8; stroke-dashoffset: 0; stroke: #bbbbbb; stroke-width: 0.5"/>
   </g>
   <g id="patch_3">
    <path d="M 205.008364 113.079399 
L 132.05171 113.079399 
L 132.05171 86.065818 
L 205.008364 86.065818 
L 205.008364 113.079399 
z
" clip-path="url(#pd9fc01e528)" style="fill: none; opacity: 0"/>
   </g>
   <g id="patch_4">
    <path d="M 233.884731 146.846375 
L 167.402913 146.846375 
L 167.402913 119.832794 
L 233.884731 119.832794 
L 233.884731 146.846375 
z
" clip-path="url(#pd9fc01e528)" style="fill: none; opacity: 0"/>
   </g>
   <g id="patch_5">
    <path d="M 258.482118 180.613351 
L 196.279281 180.613351 
L 196.279281 153.59977 
L 258.482118 153.59977 
L 258.482118 180.613351 
z
" clip-path="url(#pd9fc01e528)" style="fill: none; opacity: 0"/>
   </g>
   <g id="patch_6">
    <path d="M 281.279688 214.380327 
L 220.876667 214.380327 
L 220.876667 187.366746 
L 281.279688 187.366746 
L 281.279688 214.380327 
z
" clip-path="url(#pd9fc01e528)" style="fill: none; opacity: 0"/>
   </g>
   <g id="patch_7">
    <path d="M 303.136357 248.147302 
L 243.674237 248.147302 
L 243.674237 221.133722 
L 303.136357 221.133722 
L 303.136357 248.147302 
z
" clip-path="url(#pd9fc01e528)" style="fill: none; opacity: 0"/>
   </g>
   <g id="patch_8">
    <path d="M 323.889492 281.914278 
L 265.530906 281.914278 
L 265.530906 254.900698 
L 323.889492 254.900698 
L 323.889492 281.914278 
z
" clip-path="url(#pd9fc01e528)" style="fill: none; opacity: 0"/>
   </g>
   <g id="patch_9">
    <path d="M 343.728625 315.681254 
L 286.284041 315.681254 
L 286.284041 288.667673 
L 343.728625 288.667673 
L 343.728625 315.681254 
z
" clip-path="url(#pd9fc01e528)" style="fill: none; opacity: 0"/>
   </g>
   <g id="patch_10">
    <path d="M 362.605774 349.44823 
L 306.123174 349.44823 
L 306.123174 322.434649 
L 362.605774 322.434649 
L 362.605774 349.44823 
z
" clip-path="url(#pd9fc01e528)" style="fill: none; opacity: 0"/>
   </g>
   <g id="patch_11">
    <path d="M 380.250588 383.215206 
L 325.000324 383.215206 
L 325.000324 356.201625 
L 380.250588 356.201625 
L 380.250588 383.215206 
z
" clip-path="url(#pd9fc01e528)" style="fill: none; opacity: 0"/>
   </g>
   <g id="patch_12">
    <path d="M 483.035918 416.982182 
L 373.983013 416.982182 
L 373.983013 389.968601 
L 483.035918 389.968601 
L 483.035918 416.982182 
z
" clip-path="url(#pd9fc01e528)" style="fill: none; opacity: 0"/>
   </g>
   <g id="patch_13">
    <path d="M 166.523374 99.572609 
L 171.278644 86.065818 
L 171.278644 86.065818 
L 201.874576 86.065818 
L 201.874576 113.079399 
L 171.278644 113.079399 
L 171.278644 113.079399 
z
" clip-path="url(#pd9fc01e528)" style="fill: #008bfb; stroke: #008bfb; stroke-linejoin: miter"/>
   </g>
   <g id="patch_14">
    <path d="M 201.874576 133.339584 
L 206.629846 119.832794 
L 206.629846 119.832794 
L 230.750944 119.832794 
L 230.750944 146.846375 
L 206.629846 146.846375 
L 206.629846 146.846375 
z
" clip-path="url(#pd9fc01e528)" style="fill: #008bfb; stroke: #008bfb; stroke-linejoin: miter"/>
   </g>
   <g id="patch_15">
    <path d="M 230.750944 167.10656 
L 235.506214 153.59977 
L 235.506214 153.59977 
L 255.348331 153.59977 
L 255.348331 180.613351 
L 235.506214 180.613351 
L 235.506214 180.613351 
z
" clip-path="url(#pd9fc01e528)" style="fill: #008bfb; stroke: #008bfb; stroke-linejoin: miter"/>
   </g>
   <g id="patch_16">
    <path d="M 255.348331 200.873536 
L 260.103601 187.366746 
L 260.103601 187.366746 
L 278.1459 187.366746 
L 278.1459 214.380327 
L 260.103601 214.380327 
L 260.103601 214.380327 
z
" clip-path="url(#pd9fc01e528)" style="fill: #008bfb; stroke: #008bfb; stroke-linejoin: miter"/>
   </g>
   <g id="patch_17">
    <path d="M 278.1459 234.640512 
L 282.90117 221.133722 
L 282.90117 221.133722 
L 300.002569 221.133722 
L 300.002569 248.147302 
L 282.90117 248.147302 
L 282.90117 248.147302 
z
" clip-path="url(#pd9fc01e528)" style="fill: #008bfb; stroke: #008bfb; stroke-linejoin: miter"/>
   </g>
   <g id="patch_18">
    <path d="M 300.002569 268.407488 
L 304.757839 254.900698 
L 304.757839 254.900698 
L 320.755704 254.900698 
L 320.755704 281.914278 
L 304.757839 281.914278 
L 304.757839 281.914278 
z
" clip-path="url(#pd9fc01e528)" style="fill: #008bfb; stroke: #008bfb; stroke-linejoin: miter"/>
   </g>
   <g id="patch_19">
    <path d="M 320.755704 302.174464 
L 325.510974 288.667673 
L 325.510974 288.667673 
L 340.594837 288.667673 
L 340.594837 315.681254 
L 325.510974 315.681254 
L 325.510974 315.681254 
z
" clip-path="url(#pd9fc01e528)" style="fill: #008bfb; stroke: #008bfb; stroke-linejoin: miter"/>
   </g>
   <g id="patch_20">
    <path d="M 340.594837 335.94144 
L 345.350107 322.434649 
L 345.350107 322.434649 
L 359.471987 322.434649 
L 359.471987 349.44823 
L 345.350107 349.44823 
L 345.350107 349.44823 
z
" clip-path="url(#pd9fc01e528)" style="fill: #008bfb; stroke: #008bfb; stroke-linejoin: miter"/>
   </g>
   <g id="patch_21">
    <path d="M 359.471987 369.708416 
L 364.227257 356.201625 
L 364.227257 356.201625 
L 377.1168 356.201625 
L 377.1168 383.215206 
L 364.227257 383.215206 
L 364.227257 383.215206 
z
" clip-path="url(#pd9fc01e528)" style="fill: #008bfb; stroke: #008bfb; stroke-linejoin: miter"/>
   </g>
   <g id="patch_22">
    <path d="M 377.1168 403.475391 
L 381.87207 389.968601 
L 381.87207 389.968601 
L 479.902131 389.968601 
L 479.902131 416.982182 
L 381.87207 416.982182 
L 381.87207 416.982182 
z
" clip-path="url(#pd9fc01e528)" style="fill: #008bfb; stroke: #008bfb; stroke-linejoin: miter"/>
   </g>
   <g id="matplotlib.axis_1">
    <g id="xtick_1">
     <g id="line2d_22">
      <defs>
       <path id="m10c1bf922c" d="M 0 0 
L 0 3.5 
" style="stroke: #666666; stroke-width: 0.8"/>
      </defs>
      <g>
       <use xlink:href="#m10c1bf922c" x="143.589848" y="433.528" style="fill: #666666; stroke: #666666; stroke-width: 0.8"/>
      </g>
     </g>
     <g id="text_1">
      <!-- 6 -->
      <g style="fill: #666666" transform="translate(139.976254 452.904) scale(0.13 -0.13)">
       <defs>
        <path id="HelveticaNeue-1d" d="M 2650 3379 
L 3194 3379 
Q 3142 3942 2809 4240 
Q 2477 4538 1914 4538 
Q 1427 4538 1107 4333 
Q 787 4128 595 3789 
Q 403 3450 323 3011 
Q 243 2573 243 2106 
Q 243 1747 297 1363 
Q 352 979 518 659 
Q 685 339 992 134 
Q 1299 -70 1805 -70 
Q 2234 -70 2525 74 
Q 2816 218 2992 438 
Q 3168 659 3245 928 
Q 3322 1197 3322 1446 
Q 3322 1760 3226 2029 
Q 3130 2298 2954 2496 
Q 2778 2694 2518 2806 
Q 2259 2918 1933 2918 
Q 1562 2918 1277 2777 
Q 992 2637 800 2323 
L 787 2336 
Q 794 2598 838 2899 
Q 883 3200 1001 3459 
Q 1120 3718 1331 3888 
Q 1542 4058 1888 4058 
Q 2214 4058 2412 3872 
Q 2611 3686 2650 3379 
z
M 1830 2438 
Q 2061 2438 2233 2355 
Q 2406 2272 2521 2134 
Q 2637 1997 2691 1808 
Q 2746 1619 2746 1408 
Q 2746 1210 2685 1027 
Q 2624 845 2509 704 
Q 2394 563 2224 483 
Q 2054 403 1830 403 
Q 1606 403 1430 483 
Q 1254 563 1136 697 
Q 1018 832 954 1017 
Q 890 1203 890 1414 
Q 890 1626 950 1814 
Q 1011 2003 1132 2140 
Q 1254 2278 1427 2358 
Q 1600 2438 1830 2438 
z
" transform="scale(0.015625)"/>
       </defs>
       <use xlink:href="#HelveticaNeue-1d"/>
      </g>
     </g>
    </g>
    <g id="xtick_2">
     <g id="line2d_23">
      <g>
       <use xlink:href="#m10c1bf922c" x="200.624929" y="433.528" style="fill: #666666; stroke: #666666; stroke-width: 0.8"/>
      </g>
     </g>
     <g id="text_2">
      <!-- 7 -->
      <g style="fill: #666666" transform="translate(197.011335 452.904) scale(0.13 -0.13)">
       <defs>
        <path id="HelveticaNeue-1e" d="M 3258 3994 
L 3258 4461 
L 320 4461 
L 320 3949 
L 2701 3949 
Q 2342 3571 2032 3123 
Q 1722 2675 1485 2172 
Q 1248 1670 1097 1123 
Q 947 576 909 0 
L 1517 0 
Q 1549 531 1696 1094 
Q 1843 1658 2076 2189 
Q 2310 2720 2611 3187 
Q 2912 3654 3258 3994 
z
" transform="scale(0.015625)"/>
       </defs>
       <use xlink:href="#HelveticaNeue-1e"/>
      </g>
     </g>
    </g>
    <g id="xtick_3">
     <g id="line2d_24">
      <g>
       <use xlink:href="#m10c1bf922c" x="257.660009" y="433.528" style="fill: #666666; stroke: #666666; stroke-width: 0.8"/>
      </g>
     </g>
     <g id="text_3">
      <!-- 8 -->
      <g style="fill: #666666" transform="translate(254.046415 452.904) scale(0.13 -0.13)">
       <defs>
        <path id="HelveticaNeue-1f" d="M 992 3360 
Q 992 3533 1056 3661 
Q 1120 3789 1225 3878 
Q 1331 3968 1478 4013 
Q 1626 4058 1786 4058 
Q 2118 4058 2332 3882 
Q 2547 3706 2547 3360 
Q 2547 3014 2336 2822 
Q 2125 2630 1798 2630 
Q 1632 2630 1485 2675 
Q 1338 2720 1229 2809 
Q 1120 2899 1056 3036 
Q 992 3174 992 3360 
z
M 416 3379 
Q 416 3072 589 2813 
Q 762 2554 1050 2438 
Q 666 2304 461 2006 
Q 256 1709 256 1306 
Q 256 960 374 701 
Q 493 442 701 269 
Q 909 96 1190 13 
Q 1472 -70 1798 -70 
Q 2112 -70 2387 19 
Q 2662 109 2864 285 
Q 3066 461 3184 717 
Q 3302 973 3302 1306 
Q 3302 1728 3104 2019 
Q 2906 2310 2496 2438 
Q 2784 2566 2953 2819 
Q 3123 3072 3123 3379 
Q 3123 3597 3046 3805 
Q 2970 4013 2806 4176 
Q 2643 4339 2380 4438 
Q 2118 4538 1747 4538 
Q 1485 4538 1245 4461 
Q 1005 4384 819 4237 
Q 634 4090 525 3875 
Q 416 3661 416 3379 
z
M 832 1280 
Q 832 1478 905 1638 
Q 979 1798 1110 1913 
Q 1242 2029 1418 2089 
Q 1594 2150 1792 2150 
Q 1984 2150 2153 2083 
Q 2323 2016 2451 1901 
Q 2579 1786 2652 1629 
Q 2726 1472 2726 1286 
Q 2726 1094 2659 934 
Q 2592 774 2467 656 
Q 2342 538 2172 470 
Q 2003 403 1798 403 
Q 1376 403 1104 636 
Q 832 870 832 1280 
z
" transform="scale(0.015625)"/>
       </defs>
       <use xlink:href="#HelveticaNeue-1f"/>
      </g>
     </g>
    </g>
    <g id="xtick_4">
     <g id="line2d_25">
      <g>
       <use xlink:href="#m10c1bf922c" x="314.695089" y="433.528" style="fill: #666666; stroke: #666666; stroke-width: 0.8"/>
      </g>
     </g>
     <g id="text_4">
      <!-- 9 -->
      <g style="fill: #666666" transform="translate(311.081496 452.904) scale(0.13 -0.13)">
       <defs>
        <path id="HelveticaNeue-20" d="M 858 1094 
L 314 1094 
Q 365 506 742 218 
Q 1120 -70 1690 -70 
Q 2515 -70 2889 560 
Q 3264 1190 3264 2368 
Q 3264 3014 3139 3433 
Q 3014 3853 2803 4096 
Q 2592 4339 2310 4438 
Q 2029 4538 1709 4538 
Q 1382 4538 1107 4429 
Q 832 4320 633 4125 
Q 435 3930 326 3658 
Q 218 3386 218 3059 
Q 218 2726 310 2444 
Q 403 2163 585 1964 
Q 768 1766 1037 1654 
Q 1306 1542 1651 1542 
Q 1984 1542 2265 1712 
Q 2547 1882 2701 2170 
L 2714 2157 
Q 2688 1267 2438 835 
Q 2189 403 1690 403 
Q 1363 403 1126 582 
Q 890 762 858 1094 
z
M 2618 3021 
Q 2618 2822 2554 2640 
Q 2490 2458 2368 2320 
Q 2246 2182 2073 2102 
Q 1901 2022 1690 2022 
Q 1491 2022 1328 2102 
Q 1165 2182 1046 2316 
Q 928 2451 861 2624 
Q 794 2797 794 2982 
Q 794 3194 842 3386 
Q 890 3578 995 3728 
Q 1101 3878 1270 3968 
Q 1440 4058 1683 4058 
Q 1914 4058 2086 3974 
Q 2259 3891 2377 3747 
Q 2496 3603 2557 3417 
Q 2618 3232 2618 3021 
z
" transform="scale(0.015625)"/>
       </defs>
       <use xlink:href="#HelveticaNeue-20"/>
      </g>
     </g>
    </g>
    <g id="xtick_5">
     <g id="line2d_26">
      <g>
       <use xlink:href="#m10c1bf922c" x="371.73017" y="433.528" style="fill: #666666; stroke: #666666; stroke-width: 0.8"/>
      </g>
     </g>
     <g id="text_5">
      <!-- 10 -->
      <g style="fill: #666666" transform="translate(364.502982 452.904) scale(0.13 -0.13)">
       <defs>
        <path id="HelveticaNeue-18" d="M 2278 0 
L 2278 4538 
L 1862 4538 
Q 1818 4282 1696 4115 
Q 1574 3949 1398 3853 
Q 1222 3757 1004 3721 
Q 787 3686 557 3686 
L 557 3251 
L 1734 3251 
L 1734 0 
L 2278 0 
z
" transform="scale(0.015625)"/>
        <path id="HelveticaNeue-17" d="M 845 2234 
Q 845 2400 848 2601 
Q 851 2803 880 3004 
Q 909 3206 963 3398 
Q 1018 3590 1123 3734 
Q 1229 3878 1389 3968 
Q 1549 4058 1779 4058 
Q 2010 4058 2170 3968 
Q 2330 3878 2435 3734 
Q 2541 3590 2595 3398 
Q 2650 3206 2678 3004 
Q 2707 2803 2710 2601 
Q 2714 2400 2714 2234 
Q 2714 1978 2698 1661 
Q 2682 1344 2595 1065 
Q 2509 787 2317 595 
Q 2125 403 1779 403 
Q 1434 403 1242 595 
Q 1050 787 963 1065 
Q 877 1344 861 1661 
Q 845 1978 845 2234 
z
M 269 2227 
Q 269 1978 281 1709 
Q 294 1440 345 1184 
Q 397 928 493 701 
Q 589 474 755 301 
Q 922 128 1174 29 
Q 1427 -70 1779 -70 
Q 2138 -70 2387 29 
Q 2637 128 2803 301 
Q 2970 474 3066 701 
Q 3162 928 3213 1184 
Q 3264 1440 3277 1709 
Q 3290 1978 3290 2227 
Q 3290 2477 3277 2745 
Q 3264 3014 3213 3270 
Q 3162 3526 3066 3756 
Q 2970 3987 2803 4160 
Q 2637 4333 2384 4435 
Q 2131 4538 1779 4538 
Q 1427 4538 1174 4435 
Q 922 4333 755 4160 
Q 589 3987 493 3756 
Q 397 3526 345 3270 
Q 294 3014 281 2745 
Q 269 2477 269 2227 
z
" transform="scale(0.015625)"/>
       </defs>
       <use xlink:href="#HelveticaNeue-18"/>
       <use xlink:href="#HelveticaNeue-17" transform="translate(55.59375 0)"/>
      </g>
     </g>
    </g>
    <g id="xtick_6">
     <g id="line2d_27">
      <g>
       <use xlink:href="#m10c1bf922c" x="428.76525" y="433.528" style="fill: #666666; stroke: #666666; stroke-width: 0.8"/>
      </g>
     </g>
     <g id="text_6">
      <!-- 11 -->
      <g style="fill: #666666" transform="translate(421.538063 452.904) scale(0.13 -0.13)">
       <use xlink:href="#HelveticaNeue-18"/>
       <use xlink:href="#HelveticaNeue-18" transform="translate(55.59375 0)"/>
      </g>
     </g>
    </g>
   </g>
   <g id="matplotlib.axis_2">
    <g id="ytick_1">
     <g id="text_7">
      <!-- 45 other features -->
      <g style="fill: #999999" transform="translate(9.017344 409.663391) scale(0.13 -0.13)">
       <defs>
        <path id="HelveticaNeue-1b" d="M 2170 1542 
L 646 1542 
L 2157 3763 
L 2170 3763 
L 2170 1542 
z
M 2682 1542 
L 2682 4538 
L 2246 4538 
L 179 1587 
L 179 1062 
L 2170 1062 
L 2170 0 
L 2682 0 
L 2682 1062 
L 3296 1062 
L 3296 1542 
L 2682 1542 
z
" transform="scale(0.015625)"/>
        <path id="HelveticaNeue-1c" d="M 3008 3981 
L 3008 4461 
L 768 4461 
L 346 2106 
L 813 2080 
Q 973 2272 1181 2390 
Q 1389 2509 1658 2509 
Q 1888 2509 2077 2432 
Q 2266 2355 2400 2217 
Q 2534 2080 2608 1891 
Q 2682 1702 2682 1478 
Q 2682 1210 2605 1008 
Q 2528 806 2397 672 
Q 2266 538 2090 470 
Q 1914 403 1722 403 
Q 1517 403 1347 464 
Q 1178 525 1053 637 
Q 928 749 854 899 
Q 781 1050 768 1222 
L 224 1222 
Q 230 915 345 672 
Q 461 429 659 265 
Q 858 102 1117 16 
Q 1376 -70 1670 -70 
Q 2067 -70 2364 54 
Q 2662 179 2860 390 
Q 3059 602 3158 874 
Q 3258 1146 3258 1434 
Q 3258 1824 3142 2115 
Q 3027 2406 2828 2601 
Q 2630 2797 2361 2893 
Q 2093 2989 1792 2989 
Q 1562 2989 1328 2909 
Q 1094 2829 947 2662 
L 934 2675 
L 1178 3981 
L 3008 3981 
z
" transform="scale(0.015625)"/>
        <path id="HelveticaNeue-3" transform="scale(0.015625)"/>
        <path id="HelveticaNeue-56" d="M 806 1651 
Q 806 1952 886 2185 
Q 966 2419 1107 2579 
Q 1248 2739 1437 2822 
Q 1626 2906 1837 2906 
Q 2048 2906 2237 2822 
Q 2426 2739 2566 2579 
Q 2707 2419 2787 2185 
Q 2867 1952 2867 1651 
Q 2867 1350 2787 1116 
Q 2707 883 2566 726 
Q 2426 570 2237 486 
Q 2048 403 1837 403 
Q 1626 403 1437 486 
Q 1248 570 1107 726 
Q 966 883 886 1116 
Q 806 1350 806 1651 
z
M 230 1651 
Q 230 1286 332 972 
Q 435 659 640 425 
Q 845 192 1145 61 
Q 1446 -70 1837 -70 
Q 2234 -70 2531 61 
Q 2829 192 3033 425 
Q 3238 659 3340 972 
Q 3443 1286 3443 1651 
Q 3443 2016 3340 2333 
Q 3238 2650 3033 2883 
Q 2829 3117 2531 3251 
Q 2234 3386 1837 3386 
Q 1446 3386 1145 3251 
Q 845 3117 640 2883 
Q 435 2650 332 2333 
Q 230 2016 230 1651 
z
" transform="scale(0.015625)"/>
        <path id="HelveticaNeue-5b" d="M 1165 3309 
L 1165 4301 
L 621 4301 
L 621 3309 
L 58 3309 
L 58 2829 
L 621 2829 
L 621 723 
Q 621 493 665 352 
Q 710 211 803 134 
Q 896 58 1046 29 
Q 1197 0 1408 0 
L 1824 0 
L 1824 480 
L 1574 480 
Q 1446 480 1366 489 
Q 1286 499 1241 531 
Q 1197 563 1181 620 
Q 1165 678 1165 774 
L 1165 2829 
L 1824 2829 
L 1824 3309 
L 1165 3309 
z
" transform="scale(0.015625)"/>
        <path id="HelveticaNeue-4f" d="M 410 4570 
L 410 0 
L 954 0 
L 954 1869 
Q 954 2093 1014 2281 
Q 1075 2470 1196 2611 
Q 1318 2752 1500 2829 
Q 1683 2906 1933 2906 
Q 2246 2906 2425 2726 
Q 2605 2547 2605 2240 
L 2605 0 
L 3149 0 
L 3149 2176 
Q 3149 2445 3094 2665 
Q 3040 2886 2905 3046 
Q 2771 3206 2553 3296 
Q 2336 3386 2010 3386 
Q 1862 3386 1705 3354 
Q 1549 3322 1405 3254 
Q 1261 3187 1145 3081 
Q 1030 2976 966 2822 
L 954 2822 
L 954 4570 
L 410 4570 
z
" transform="scale(0.015625)"/>
        <path id="HelveticaNeue-4c" d="M 2707 1971 
L 806 1971 
Q 819 2163 889 2332 
Q 960 2502 1081 2630 
Q 1203 2758 1372 2832 
Q 1542 2906 1754 2906 
Q 1958 2906 2128 2832 
Q 2298 2758 2422 2633 
Q 2547 2509 2620 2336 
Q 2694 2163 2707 1971 
z
M 3232 1050 
L 2694 1050 
Q 2624 723 2403 563 
Q 2182 403 1837 403 
Q 1568 403 1369 492 
Q 1171 582 1043 732 
Q 915 883 857 1078 
Q 800 1274 806 1491 
L 3283 1491 
Q 3296 1792 3229 2125 
Q 3162 2458 2986 2739 
Q 2810 3021 2518 3203 
Q 2227 3386 1786 3386 
Q 1446 3386 1161 3258 
Q 877 3130 669 2899 
Q 461 2669 345 2355 
Q 230 2042 230 1664 
Q 243 1286 342 966 
Q 442 646 640 416 
Q 838 186 1129 58 
Q 1421 -70 1818 -70 
Q 2381 -70 2752 211 
Q 3123 493 3232 1050 
z
" transform="scale(0.015625)"/>
        <path id="HelveticaNeue-59" d="M 390 3309 
L 390 0 
L 934 0 
L 934 1472 
Q 934 1792 998 2038 
Q 1062 2285 1203 2457 
Q 1344 2630 1574 2720 
Q 1805 2810 2131 2810 
L 2131 3386 
Q 1690 3398 1402 3206 
Q 1114 3014 915 2611 
L 902 2611 
L 902 3309 
L 390 3309 
z
" transform="scale(0.015625)"/>
        <path id="HelveticaNeue-4d" d="M 634 2829 
L 634 0 
L 1178 0 
L 1178 2829 
L 1818 2829 
L 1818 3309 
L 1178 3309 
L 1178 3770 
Q 1178 3987 1286 4064 
Q 1395 4141 1594 4141 
Q 1664 4141 1747 4131 
Q 1830 4122 1901 4096 
L 1901 4570 
Q 1824 4595 1725 4608 
Q 1626 4621 1549 4621 
Q 1101 4621 867 4413 
Q 634 4205 634 3802 
L 634 3309 
L 77 3309 
L 77 2829 
L 634 2829 
z
" transform="scale(0.015625)"/>
        <path id="HelveticaNeue-48" d="M 3341 13 
Q 3200 -70 2950 -70 
Q 2739 -70 2614 48 
Q 2490 166 2490 435 
Q 2266 166 1968 48 
Q 1670 -70 1325 -70 
Q 1101 -70 899 -19 
Q 698 32 550 141 
Q 403 250 316 426 
Q 230 602 230 851 
Q 230 1133 326 1312 
Q 422 1491 579 1603 
Q 736 1715 937 1772 
Q 1139 1830 1350 1869 
Q 1574 1914 1776 1936 
Q 1978 1958 2131 2000 
Q 2285 2042 2374 2122 
Q 2464 2202 2464 2355 
Q 2464 2534 2397 2643 
Q 2330 2752 2224 2809 
Q 2118 2867 1987 2886 
Q 1856 2906 1728 2906 
Q 1382 2906 1152 2774 
Q 922 2643 902 2278 
L 358 2278 
Q 371 2586 486 2797 
Q 602 3008 794 3139 
Q 986 3270 1232 3328 
Q 1478 3386 1760 3386 
Q 1984 3386 2205 3354 
Q 2426 3322 2605 3222 
Q 2784 3123 2893 2944 
Q 3002 2765 3002 2477 
L 3002 774 
Q 3002 582 3024 492 
Q 3046 403 3174 403 
Q 3245 403 3341 435 
L 3341 13 
z
M 2458 1709 
Q 2355 1632 2188 1597 
Q 2022 1562 1840 1539 
Q 1658 1517 1472 1488 
Q 1286 1459 1139 1395 
Q 992 1331 899 1212 
Q 806 1094 806 890 
Q 806 755 860 662 
Q 915 570 1001 512 
Q 1088 454 1203 428 
Q 1318 403 1446 403 
Q 1715 403 1907 476 
Q 2099 550 2220 662 
Q 2342 774 2400 905 
Q 2458 1037 2458 1152 
L 2458 1709 
z
" transform="scale(0.015625)"/>
        <path id="HelveticaNeue-5c" d="M 3149 0 
L 3149 3309 
L 2605 3309 
L 2605 1440 
Q 2605 1216 2544 1027 
Q 2483 838 2361 697 
Q 2240 557 2057 480 
Q 1875 403 1626 403 
Q 1312 403 1133 582 
Q 954 762 954 1069 
L 954 3309 
L 410 3309 
L 410 1133 
Q 410 864 464 643 
Q 518 422 652 262 
Q 787 102 1004 16 
Q 1222 -70 1549 -70 
Q 1914 -70 2182 74 
Q 2451 218 2624 525 
L 2637 525 
L 2637 0 
L 3149 0 
z
" transform="scale(0.015625)"/>
        <path id="HelveticaNeue-5a" d="M 742 1043 
L 198 1043 
Q 211 736 326 521 
Q 442 307 634 176 
Q 826 45 1075 -12 
Q 1325 -70 1600 -70 
Q 1850 -70 2102 -22 
Q 2355 26 2556 147 
Q 2758 269 2883 467 
Q 3008 666 3008 966 
Q 3008 1203 2915 1363 
Q 2822 1523 2672 1628 
Q 2522 1734 2326 1798 
Q 2131 1862 1926 1907 
Q 1734 1952 1542 1993 
Q 1350 2035 1196 2096 
Q 1043 2157 944 2249 
Q 845 2342 845 2483 
Q 845 2611 909 2691 
Q 973 2771 1075 2819 
Q 1178 2867 1302 2886 
Q 1427 2906 1549 2906 
Q 1683 2906 1814 2877 
Q 1946 2848 2054 2784 
Q 2163 2720 2233 2614 
Q 2304 2509 2317 2349 
L 2861 2349 
Q 2842 2650 2733 2851 
Q 2624 3053 2441 3171 
Q 2259 3290 2022 3338 
Q 1786 3386 1504 3386 
Q 1286 3386 1065 3331 
Q 845 3277 669 3165 
Q 493 3053 381 2873 
Q 269 2694 269 2445 
Q 269 2125 429 1945 
Q 589 1766 829 1667 
Q 1069 1568 1350 1513 
Q 1632 1459 1872 1392 
Q 2112 1325 2272 1216 
Q 2432 1107 2432 896 
Q 2432 742 2355 643 
Q 2278 544 2160 493 
Q 2042 442 1901 422 
Q 1760 403 1632 403 
Q 1466 403 1309 435 
Q 1152 467 1027 540 
Q 902 614 825 739 
Q 749 864 742 1043 
z
" transform="scale(0.015625)"/>
       </defs>
       <use xlink:href="#HelveticaNeue-1b"/>
       <use xlink:href="#HelveticaNeue-1c" transform="translate(55.59375 0)"/>
       <use xlink:href="#HelveticaNeue-3" transform="translate(111.1875 0)"/>
       <use xlink:href="#HelveticaNeue-56" transform="translate(138.984375 0)"/>
       <use xlink:href="#HelveticaNeue-5b" transform="translate(196.390625 0)"/>
       <use xlink:href="#HelveticaNeue-4f" transform="translate(227.890625 0)"/>
       <use xlink:href="#HelveticaNeue-4c" transform="translate(283.484375 0)"/>
       <use xlink:href="#HelveticaNeue-59" transform="translate(337.1875 0)"/>
       <use xlink:href="#HelveticaNeue-3" transform="translate(370.484375 0)"/>
       <use xlink:href="#HelveticaNeue-4d" transform="translate(398.28125 0)"/>
       <use xlink:href="#HelveticaNeue-4c" transform="translate(427.875 0)"/>
       <use xlink:href="#HelveticaNeue-48" transform="translate(481.578125 0)"/>
       <use xlink:href="#HelveticaNeue-5b" transform="translate(535.28125 0)"/>
       <use xlink:href="#HelveticaNeue-5c" transform="translate(566.78125 0)"/>
       <use xlink:href="#HelveticaNeue-59" transform="translate(622.375 0)"/>
       <use xlink:href="#HelveticaNeue-4c" transform="translate(653.875 0)"/>
       <use xlink:href="#HelveticaNeue-5a" transform="translate(707.578125 0)"/>
      </g>
     </g>
    </g>
    <g id="ytick_2">
     <g id="text_8">
      <!-- 0.959 = shape_4 -->
      <g style="fill: #999999" transform="translate(10.827187 375.896416) scale(0.13 -0.13)">
       <defs>
        <path id="HelveticaNeue-15" d="M 531 710 
L 531 0 
L 1242 0 
L 1242 710 
L 531 710 
z
" transform="scale(0.015625)"/>
        <path id="HelveticaNeue-24" d="M 307 1190 
L 307 755 
L 3533 755 
L 3533 1190 
L 307 1190 
z
M 3533 2048 
L 3533 2483 
L 307 2483 
L 307 2048 
L 3533 2048 
z
" transform="scale(0.015625)"/>
        <path id="HelveticaNeue-57" d="M 429 3309 
L 429 -1261 
L 973 -1261 
L 973 442 
L 986 442 
Q 1075 294 1206 195 
Q 1338 96 1485 38 
Q 1632 -19 1782 -44 
Q 1933 -70 2054 -70 
Q 2432 -70 2717 64 
Q 3002 198 3190 432 
Q 3379 666 3472 979 
Q 3565 1293 3565 1645 
Q 3565 1997 3469 2310 
Q 3373 2624 3184 2864 
Q 2995 3104 2710 3245 
Q 2426 3386 2042 3386 
Q 1696 3386 1408 3261 
Q 1120 3136 986 2861 
L 973 2861 
L 973 3309 
L 429 3309 
z
M 2989 1683 
Q 2989 1440 2937 1209 
Q 2886 979 2771 800 
Q 2656 621 2467 512 
Q 2278 403 1997 403 
Q 1715 403 1516 508 
Q 1318 614 1193 787 
Q 1069 960 1011 1187 
Q 954 1414 954 1658 
Q 954 1888 1008 2112 
Q 1062 2336 1184 2512 
Q 1306 2688 1498 2797 
Q 1690 2906 1965 2906 
Q 2227 2906 2422 2803 
Q 2618 2701 2742 2528 
Q 2867 2355 2928 2134 
Q 2989 1914 2989 1683 
z
" transform="scale(0.015625)"/>
        <path id="HelveticaNeue-46" d="M 0 -474 
L 0 -794 
L 3200 -794 
L 3200 -474 
L 0 -474 
z
" transform="scale(0.015625)"/>
       </defs>
       <use xlink:href="#HelveticaNeue-17"/>
       <use xlink:href="#HelveticaNeue-15" transform="translate(55.59375 0)"/>
       <use xlink:href="#HelveticaNeue-20" transform="translate(83.390625 0)"/>
       <use xlink:href="#HelveticaNeue-1c" transform="translate(138.984375 0)"/>
       <use xlink:href="#HelveticaNeue-20" transform="translate(194.578125 0)"/>
       <use xlink:href="#HelveticaNeue-3" transform="translate(250.171875 0)"/>
       <use xlink:href="#HelveticaNeue-24" transform="translate(277.96875 0)"/>
       <use xlink:href="#HelveticaNeue-3" transform="translate(337.96875 0)"/>
       <use xlink:href="#HelveticaNeue-5a" transform="translate(365.765625 0)"/>
       <use xlink:href="#HelveticaNeue-4f" transform="translate(415.765625 0)"/>
       <use xlink:href="#HelveticaNeue-48" transform="translate(471.359375 0)"/>
       <use xlink:href="#HelveticaNeue-57" transform="translate(525.0625 0)"/>
       <use xlink:href="#HelveticaNeue-4c" transform="translate(584.359375 0)"/>
       <use xlink:href="#HelveticaNeue-46" transform="translate(638.0625 0)"/>
       <use xlink:href="#HelveticaNeue-1b" transform="translate(688.0625 0)"/>
      </g>
     </g>
    </g>
    <g id="ytick_3">
     <g id="text_9">
      <!-- 0.967 = shape_10 -->
      <g style="fill: #999999" transform="translate(3.6 342.12944) scale(0.13 -0.13)">
       <use xlink:href="#HelveticaNeue-17"/>
       <use xlink:href="#HelveticaNeue-15" transform="translate(55.59375 0)"/>
       <use xlink:href="#HelveticaNeue-20" transform="translate(83.390625 0)"/>
       <use xlink:href="#HelveticaNeue-1d" transform="translate(138.984375 0)"/>
       <use xlink:href="#HelveticaNeue-1e" transform="translate(194.578125 0)"/>
       <use xlink:href="#HelveticaNeue-3" transform="translate(250.171875 0)"/>
       <use xlink:href="#HelveticaNeue-24" transform="translate(277.96875 0)"/>
       <use xlink:href="#HelveticaNeue-3" transform="translate(337.96875 0)"/>
       <use xlink:href="#HelveticaNeue-5a" transform="translate(365.765625 0)"/>
       <use xlink:href="#HelveticaNeue-4f" transform="translate(415.765625 0)"/>
       <use xlink:href="#HelveticaNeue-48" transform="translate(471.359375 0)"/>
       <use xlink:href="#HelveticaNeue-57" transform="translate(525.0625 0)"/>
       <use xlink:href="#HelveticaNeue-4c" transform="translate(584.359375 0)"/>
       <use xlink:href="#HelveticaNeue-46" transform="translate(638.0625 0)"/>
       <use xlink:href="#HelveticaNeue-18" transform="translate(688.0625 0)"/>
       <use xlink:href="#HelveticaNeue-17" transform="translate(743.65625 0)"/>
      </g>
     </g>
    </g>
    <g id="ytick_4">
     <g id="text_10">
      <!-- 14.2 = fft_2 -->
      <g style="fill: #999999" transform="translate(41.856562 308.362464) scale(0.13 -0.13)">
       <defs>
        <path id="HelveticaNeue-19" d="M 282 2931 
L 826 2931 
Q 819 3136 867 3337 
Q 915 3539 1024 3699 
Q 1133 3859 1302 3958 
Q 1472 4058 1709 4058 
Q 1888 4058 2048 4000 
Q 2208 3942 2326 3833 
Q 2445 3725 2515 3574 
Q 2586 3424 2586 3238 
Q 2586 3002 2512 2822 
Q 2438 2643 2294 2489 
Q 2150 2336 1932 2185 
Q 1715 2035 1427 1856 
Q 1190 1715 972 1555 
Q 755 1395 582 1184 
Q 410 973 298 688 
Q 186 403 154 0 
L 3117 0 
L 3117 480 
L 787 480 
Q 826 691 950 854 
Q 1075 1018 1251 1158 
Q 1427 1299 1638 1424 
Q 1850 1549 2061 1677 
Q 2272 1811 2470 1958 
Q 2669 2106 2822 2288 
Q 2976 2470 3069 2700 
Q 3162 2931 3162 3232 
Q 3162 3552 3050 3795 
Q 2938 4038 2746 4201 
Q 2554 4365 2294 4451 
Q 2035 4538 1741 4538 
Q 1382 4538 1100 4416 
Q 819 4294 630 4080 
Q 442 3866 352 3571 
Q 262 3277 282 2931 
z
" transform="scale(0.015625)"/>
        <path id="HelveticaNeue-248" d="M 2432 2829 
L 1178 2829 
L 1178 0 
L 634 0 
L 634 2829 
L 77 2829 
L 77 3309 
L 634 3309 
L 634 3802 
Q 634 4205 867 4413 
Q 1101 4621 1549 4621 
Q 1626 4621 1725 4608 
Q 1824 4595 1901 4570 
L 1901 4096 
Q 1830 4122 1747 4131 
Q 1664 4141 1594 4141 
Q 1395 4141 1286 4064 
Q 1178 3987 1178 3770 
L 1178 3309 
L 2432 3309 
L 2432 3802 
Q 2432 4205 2665 4413 
Q 2899 4621 3347 4621 
Q 3424 4621 3523 4608 
Q 3622 4595 3699 4570 
L 3699 4096 
Q 3629 4122 3545 4131 
Q 3462 4141 3392 4141 
Q 3194 4141 3085 4064 
Q 2976 3987 2976 3770 
L 2976 3309 
L 3616 3309 
L 3616 2829 
L 2976 2829 
L 2976 0 
L 2432 0 
L 2432 2829 
z
" transform="scale(0.015625)"/>
       </defs>
       <use xlink:href="#HelveticaNeue-18"/>
       <use xlink:href="#HelveticaNeue-1b" transform="translate(55.59375 0)"/>
       <use xlink:href="#HelveticaNeue-15" transform="translate(111.1875 0)"/>
       <use xlink:href="#HelveticaNeue-19" transform="translate(138.984375 0)"/>
       <use xlink:href="#HelveticaNeue-3" transform="translate(194.578125 0)"/>
       <use xlink:href="#HelveticaNeue-24" transform="translate(222.375 0)"/>
       <use xlink:href="#HelveticaNeue-3" transform="translate(282.375 0)"/>
       <use xlink:href="#HelveticaNeue-248" transform="translate(310.171875 0)"/>
       <use xlink:href="#HelveticaNeue-5b" transform="translate(367.875 0)"/>
       <use xlink:href="#HelveticaNeue-46" transform="translate(399.375 0)"/>
       <use xlink:href="#HelveticaNeue-19" transform="translate(449.375 0)"/>
      </g>
     </g>
    </g>
    <g id="ytick_5">
     <g id="text_11">
      <!-- 1 = shape_7 -->
      <g style="fill: #999999" transform="translate(36.122344 274.595488) scale(0.13 -0.13)">
       <use xlink:href="#HelveticaNeue-18"/>
       <use xlink:href="#HelveticaNeue-3" transform="translate(55.59375 0)"/>
       <use xlink:href="#HelveticaNeue-24" transform="translate(83.390625 0)"/>
       <use xlink:href="#HelveticaNeue-3" transform="translate(143.390625 0)"/>
       <use xlink:href="#HelveticaNeue-5a" transform="translate(171.1875 0)"/>
       <use xlink:href="#HelveticaNeue-4f" transform="translate(221.1875 0)"/>
       <use xlink:href="#HelveticaNeue-48" transform="translate(276.78125 0)"/>
       <use xlink:href="#HelveticaNeue-57" transform="translate(330.484375 0)"/>
       <use xlink:href="#HelveticaNeue-4c" transform="translate(389.78125 0)"/>
       <use xlink:href="#HelveticaNeue-46" transform="translate(443.484375 0)"/>
       <use xlink:href="#HelveticaNeue-1e" transform="translate(493.484375 0)"/>
      </g>
     </g>
    </g>
    <g id="ytick_6">
     <g id="text_12">
      <!-- 0.954 = shape_11 -->
      <g style="fill: #999999" transform="translate(3.6 240.828512) scale(0.13 -0.13)">
       <use xlink:href="#HelveticaNeue-17"/>
       <use xlink:href="#HelveticaNeue-15" transform="translate(55.59375 0)"/>
       <use xlink:href="#HelveticaNeue-20" transform="translate(83.390625 0)"/>
       <use xlink:href="#HelveticaNeue-1c" transform="translate(138.984375 0)"/>
       <use xlink:href="#HelveticaNeue-1b" transform="translate(194.578125 0)"/>
       <use xlink:href="#HelveticaNeue-3" transform="translate(250.171875 0)"/>
       <use xlink:href="#HelveticaNeue-24" transform="translate(277.96875 0)"/>
       <use xlink:href="#HelveticaNeue-3" transform="translate(337.96875 0)"/>
       <use xlink:href="#HelveticaNeue-5a" transform="translate(365.765625 0)"/>
       <use xlink:href="#HelveticaNeue-4f" transform="translate(415.765625 0)"/>
       <use xlink:href="#HelveticaNeue-48" transform="translate(471.359375 0)"/>
       <use xlink:href="#HelveticaNeue-57" transform="translate(525.0625 0)"/>
       <use xlink:href="#HelveticaNeue-4c" transform="translate(584.359375 0)"/>
       <use xlink:href="#HelveticaNeue-46" transform="translate(638.0625 0)"/>
       <use xlink:href="#HelveticaNeue-18" transform="translate(688.0625 0)"/>
       <use xlink:href="#HelveticaNeue-18" transform="translate(743.65625 0)"/>
      </g>
     </g>
    </g>
    <g id="ytick_7">
     <g id="text_13">
      <!-- 0.956 = shape_13 -->
      <g style="fill: #999999" transform="translate(3.6 207.061536) scale(0.13 -0.13)">
       <defs>
        <path id="HelveticaNeue-1a" d="M 1395 2592 
L 1395 2131 
Q 1549 2150 1722 2150 
Q 1926 2150 2102 2096 
Q 2278 2042 2406 1930 
Q 2534 1818 2611 1654 
Q 2688 1491 2688 1280 
Q 2688 1075 2608 912 
Q 2528 749 2393 637 
Q 2259 525 2080 464 
Q 1901 403 1702 403 
Q 1235 403 992 681 
Q 749 960 736 1402 
L 192 1402 
Q 186 1050 291 774 
Q 397 499 595 310 
Q 794 122 1075 26 
Q 1357 -70 1702 -70 
Q 2022 -70 2307 16 
Q 2592 102 2803 275 
Q 3014 448 3139 707 
Q 3264 966 3264 1306 
Q 3264 1715 3062 2016 
Q 2861 2317 2445 2406 
L 2445 2419 
Q 2714 2541 2893 2777 
Q 3072 3014 3072 3322 
Q 3072 3635 2966 3865 
Q 2861 4096 2675 4243 
Q 2490 4390 2237 4464 
Q 1984 4538 1690 4538 
Q 1350 4538 1091 4429 
Q 832 4320 659 4128 
Q 486 3936 393 3667 
Q 301 3398 288 3072 
L 832 3072 
Q 832 3270 883 3449 
Q 934 3629 1040 3763 
Q 1146 3898 1309 3978 
Q 1472 4058 1690 4058 
Q 2035 4058 2265 3875 
Q 2496 3693 2496 3328 
Q 2496 3149 2425 3008 
Q 2355 2867 2236 2774 
Q 2118 2682 1961 2634 
Q 1805 2586 1632 2586 
L 1517 2586 
Q 1485 2586 1453 2586 
Q 1427 2586 1395 2592 
z
" transform="scale(0.015625)"/>
       </defs>
       <use xlink:href="#HelveticaNeue-17"/>
       <use xlink:href="#HelveticaNeue-15" transform="translate(55.59375 0)"/>
       <use xlink:href="#HelveticaNeue-20" transform="translate(83.390625 0)"/>
       <use xlink:href="#HelveticaNeue-1c" transform="translate(138.984375 0)"/>
       <use xlink:href="#HelveticaNeue-1d" transform="translate(194.578125 0)"/>
       <use xlink:href="#HelveticaNeue-3" transform="translate(250.171875 0)"/>
       <use xlink:href="#HelveticaNeue-24" transform="translate(277.96875 0)"/>
       <use xlink:href="#HelveticaNeue-3" transform="translate(337.96875 0)"/>
       <use xlink:href="#HelveticaNeue-5a" transform="translate(365.765625 0)"/>
       <use xlink:href="#HelveticaNeue-4f" transform="translate(415.765625 0)"/>
       <use xlink:href="#HelveticaNeue-48" transform="translate(471.359375 0)"/>
       <use xlink:href="#HelveticaNeue-57" transform="translate(525.0625 0)"/>
       <use xlink:href="#HelveticaNeue-4c" transform="translate(584.359375 0)"/>
       <use xlink:href="#HelveticaNeue-46" transform="translate(638.0625 0)"/>
       <use xlink:href="#HelveticaNeue-18" transform="translate(688.0625 0)"/>
       <use xlink:href="#HelveticaNeue-1a" transform="translate(743.65625 0)"/>
      </g>
     </g>
    </g>
    <g id="ytick_8">
     <g id="text_14">
      <!-- 0.947 = shape_1 -->
      <g style="fill: #999999" transform="translate(10.827187 173.29456) scale(0.13 -0.13)">
       <use xlink:href="#HelveticaNeue-17"/>
       <use xlink:href="#HelveticaNeue-15" transform="translate(55.59375 0)"/>
       <use xlink:href="#HelveticaNeue-20" transform="translate(83.390625 0)"/>
       <use xlink:href="#HelveticaNeue-1b" transform="translate(138.984375 0)"/>
       <use xlink:href="#HelveticaNeue-1e" transform="translate(194.578125 0)"/>
       <use xlink:href="#HelveticaNeue-3" transform="translate(250.171875 0)"/>
       <use xlink:href="#HelveticaNeue-24" transform="translate(277.96875 0)"/>
       <use xlink:href="#HelveticaNeue-3" transform="translate(337.96875 0)"/>
       <use xlink:href="#HelveticaNeue-5a" transform="translate(365.765625 0)"/>
       <use xlink:href="#HelveticaNeue-4f" transform="translate(415.765625 0)"/>
       <use xlink:href="#HelveticaNeue-48" transform="translate(471.359375 0)"/>
       <use xlink:href="#HelveticaNeue-57" transform="translate(525.0625 0)"/>
       <use xlink:href="#HelveticaNeue-4c" transform="translate(584.359375 0)"/>
       <use xlink:href="#HelveticaNeue-46" transform="translate(638.0625 0)"/>
       <use xlink:href="#HelveticaNeue-18" transform="translate(688.0625 0)"/>
      </g>
     </g>
    </g>
    <g id="ytick_9">
     <g id="text_15">
      <!-- 0.957 = shape_3 -->
      <g style="fill: #999999" transform="translate(10.827187 139.527584) scale(0.13 -0.13)">
       <use xlink:href="#HelveticaNeue-17"/>
       <use xlink:href="#HelveticaNeue-15" transform="translate(55.59375 0)"/>
       <use xlink:href="#HelveticaNeue-20" transform="translate(83.390625 0)"/>
       <use xlink:href="#HelveticaNeue-1c" transform="translate(138.984375 0)"/>
       <use xlink:href="#HelveticaNeue-1e" transform="translate(194.578125 0)"/>
       <use xlink:href="#HelveticaNeue-3" transform="translate(250.171875 0)"/>
       <use xlink:href="#HelveticaNeue-24" transform="translate(277.96875 0)"/>
       <use xlink:href="#HelveticaNeue-3" transform="translate(337.96875 0)"/>
       <use xlink:href="#HelveticaNeue-5a" transform="translate(365.765625 0)"/>
       <use xlink:href="#HelveticaNeue-4f" transform="translate(415.765625 0)"/>
       <use xlink:href="#HelveticaNeue-48" transform="translate(471.359375 0)"/>
       <use xlink:href="#HelveticaNeue-57" transform="translate(525.0625 0)"/>
       <use xlink:href="#HelveticaNeue-4c" transform="translate(584.359375 0)"/>
       <use xlink:href="#HelveticaNeue-46" transform="translate(638.0625 0)"/>
       <use xlink:href="#HelveticaNeue-1a" transform="translate(688.0625 0)"/>
      </g>
     </g>
    </g>
    <g id="ytick_10">
     <g id="text_16">
      <!-- 0.958 = shape_6 -->
      <g style="fill: #999999" transform="translate(10.827187 105.760609) scale(0.13 -0.13)">
       <use xlink:href="#HelveticaNeue-17"/>
       <use xlink:href="#HelveticaNeue-15" transform="translate(55.59375 0)"/>
       <use xlink:href="#HelveticaNeue-20" transform="translate(83.390625 0)"/>
       <use xlink:href="#HelveticaNeue-1c" transform="translate(138.984375 0)"/>
       <use xlink:href="#HelveticaNeue-1f" transform="translate(194.578125 0)"/>
       <use xlink:href="#HelveticaNeue-3" transform="translate(250.171875 0)"/>
       <use xlink:href="#HelveticaNeue-24" transform="translate(277.96875 0)"/>
       <use xlink:href="#HelveticaNeue-3" transform="translate(337.96875 0)"/>
       <use xlink:href="#HelveticaNeue-5a" transform="translate(365.765625 0)"/>
       <use xlink:href="#HelveticaNeue-4f" transform="translate(415.765625 0)"/>
       <use xlink:href="#HelveticaNeue-48" transform="translate(471.359375 0)"/>
       <use xlink:href="#HelveticaNeue-57" transform="translate(525.0625 0)"/>
       <use xlink:href="#HelveticaNeue-4c" transform="translate(584.359375 0)"/>
       <use xlink:href="#HelveticaNeue-46" transform="translate(638.0625 0)"/>
       <use xlink:href="#HelveticaNeue-1d" transform="translate(688.0625 0)"/>
      </g>
     </g>
    </g>
    <g id="ytick_11">
     <g id="text_17">
      <!-- 45 other features -->
      <g style="fill: #666666" transform="translate(9.017344 409.663391) scale(0.13 -0.13)">
       <use xlink:href="#HelveticaNeue-1b"/>
       <use xlink:href="#HelveticaNeue-1c" transform="translate(55.59375 0)"/>
       <use xlink:href="#HelveticaNeue-3" transform="translate(111.1875 0)"/>
       <use xlink:href="#HelveticaNeue-56" transform="translate(138.984375 0)"/>
       <use xlink:href="#HelveticaNeue-5b" transform="translate(196.390625 0)"/>
       <use xlink:href="#HelveticaNeue-4f" transform="translate(227.890625 0)"/>
       <use xlink:href="#HelveticaNeue-4c" transform="translate(283.484375 0)"/>
       <use xlink:href="#HelveticaNeue-59" transform="translate(337.1875 0)"/>
       <use xlink:href="#HelveticaNeue-3" transform="translate(370.484375 0)"/>
       <use xlink:href="#HelveticaNeue-4d" transform="translate(398.28125 0)"/>
       <use xlink:href="#HelveticaNeue-4c" transform="translate(427.875 0)"/>
       <use xlink:href="#HelveticaNeue-48" transform="translate(481.578125 0)"/>
       <use xlink:href="#HelveticaNeue-5b" transform="translate(535.28125 0)"/>
       <use xlink:href="#HelveticaNeue-5c" transform="translate(566.78125 0)"/>
       <use xlink:href="#HelveticaNeue-59" transform="translate(622.375 0)"/>
       <use xlink:href="#HelveticaNeue-4c" transform="translate(653.875 0)"/>
       <use xlink:href="#HelveticaNeue-5a" transform="translate(707.578125 0)"/>
      </g>
     </g>
    </g>
    <g id="ytick_12">
     <g id="text_18">
      <!--  shape_4 -->
      <g style="fill: #666666" transform="translate(54.763125 375.896415) scale(0.13 -0.13)">
       <use xlink:href="#HelveticaNeue-3"/>
       <use xlink:href="#HelveticaNeue-5a" transform="translate(27.796875 0)"/>
       <use xlink:href="#HelveticaNeue-4f" transform="translate(77.796875 0)"/>
       <use xlink:href="#HelveticaNeue-48" transform="translate(133.390625 0)"/>
       <use xlink:href="#HelveticaNeue-57" transform="translate(187.09375 0)"/>
       <use xlink:href="#HelveticaNeue-4c" transform="translate(246.390625 0)"/>
       <use xlink:href="#HelveticaNeue-46" transform="translate(300.09375 0)"/>
       <use xlink:href="#HelveticaNeue-1b" transform="translate(350.09375 0)"/>
      </g>
     </g>
    </g>
    <g id="ytick_13">
     <g id="text_19">
      <!--  shape_10 -->
      <g style="fill: #666666" transform="translate(47.535937 342.129439) scale(0.13 -0.13)">
       <use xlink:href="#HelveticaNeue-3"/>
       <use xlink:href="#HelveticaNeue-5a" transform="translate(27.796875 0)"/>
       <use xlink:href="#HelveticaNeue-4f" transform="translate(77.796875 0)"/>
       <use xlink:href="#HelveticaNeue-48" transform="translate(133.390625 0)"/>
       <use xlink:href="#HelveticaNeue-57" transform="translate(187.09375 0)"/>
       <use xlink:href="#HelveticaNeue-4c" transform="translate(246.390625 0)"/>
       <use xlink:href="#HelveticaNeue-46" transform="translate(300.09375 0)"/>
       <use xlink:href="#HelveticaNeue-18" transform="translate(350.09375 0)"/>
       <use xlink:href="#HelveticaNeue-17" transform="translate(405.6875 0)"/>
      </g>
     </g>
    </g>
    <g id="ytick_14">
     <g id="text_20">
      <!--  fft_2 -->
      <g style="fill: #666666" transform="translate(78.565313 308.362463) scale(0.13 -0.13)">
       <use xlink:href="#HelveticaNeue-3"/>
       <use xlink:href="#HelveticaNeue-248" transform="translate(27.796875 0)"/>
       <use xlink:href="#HelveticaNeue-5b" transform="translate(85.5 0)"/>
       <use xlink:href="#HelveticaNeue-46" transform="translate(117 0)"/>
       <use xlink:href="#HelveticaNeue-19" transform="translate(167 0)"/>
      </g>
     </g>
    </g>
    <g id="ytick_15">
     <g id="text_21">
      <!--  shape_7 -->
      <g style="fill: #666666" transform="translate(54.763125 274.595488) scale(0.13 -0.13)">
       <use xlink:href="#HelveticaNeue-3"/>
       <use xlink:href="#HelveticaNeue-5a" transform="translate(27.796875 0)"/>
       <use xlink:href="#HelveticaNeue-4f" transform="translate(77.796875 0)"/>
       <use xlink:href="#HelveticaNeue-48" transform="translate(133.390625 0)"/>
       <use xlink:href="#HelveticaNeue-57" transform="translate(187.09375 0)"/>
       <use xlink:href="#HelveticaNeue-4c" transform="translate(246.390625 0)"/>
       <use xlink:href="#HelveticaNeue-46" transform="translate(300.09375 0)"/>
       <use xlink:href="#HelveticaNeue-1e" transform="translate(350.09375 0)"/>
      </g>
     </g>
    </g>
    <g id="ytick_16">
     <g id="text_22">
      <!--  shape_11 -->
      <g style="fill: #666666" transform="translate(47.535937 240.828512) scale(0.13 -0.13)">
       <use xlink:href="#HelveticaNeue-3"/>
       <use xlink:href="#HelveticaNeue-5a" transform="translate(27.796875 0)"/>
       <use xlink:href="#HelveticaNeue-4f" transform="translate(77.796875 0)"/>
       <use xlink:href="#HelveticaNeue-48" transform="translate(133.390625 0)"/>
       <use xlink:href="#HelveticaNeue-57" transform="translate(187.09375 0)"/>
       <use xlink:href="#HelveticaNeue-4c" transform="translate(246.390625 0)"/>
       <use xlink:href="#HelveticaNeue-46" transform="translate(300.09375 0)"/>
       <use xlink:href="#HelveticaNeue-18" transform="translate(350.09375 0)"/>
       <use xlink:href="#HelveticaNeue-18" transform="translate(405.6875 0)"/>
      </g>
     </g>
    </g>
    <g id="ytick_17">
     <g id="text_23">
      <!--  shape_13 -->
      <g style="fill: #666666" transform="translate(47.535937 207.061536) scale(0.13 -0.13)">
       <use xlink:href="#HelveticaNeue-3"/>
       <use xlink:href="#HelveticaNeue-5a" transform="translate(27.796875 0)"/>
       <use xlink:href="#HelveticaNeue-4f" transform="translate(77.796875 0)"/>
       <use xlink:href="#HelveticaNeue-48" transform="translate(133.390625 0)"/>
       <use xlink:href="#HelveticaNeue-57" transform="translate(187.09375 0)"/>
       <use xlink:href="#HelveticaNeue-4c" transform="translate(246.390625 0)"/>
       <use xlink:href="#HelveticaNeue-46" transform="translate(300.09375 0)"/>
       <use xlink:href="#HelveticaNeue-18" transform="translate(350.09375 0)"/>
       <use xlink:href="#HelveticaNeue-1a" transform="translate(405.6875 0)"/>
      </g>
     </g>
    </g>
    <g id="ytick_18">
     <g id="text_24">
      <!--  shape_1 -->
      <g style="fill: #666666" transform="translate(54.763125 173.29456) scale(0.13 -0.13)">
       <use xlink:href="#HelveticaNeue-3"/>
       <use xlink:href="#HelveticaNeue-5a" transform="translate(27.796875 0)"/>
       <use xlink:href="#HelveticaNeue-4f" transform="translate(77.796875 0)"/>
       <use xlink:href="#HelveticaNeue-48" transform="translate(133.390625 0)"/>
       <use xlink:href="#HelveticaNeue-57" transform="translate(187.09375 0)"/>
       <use xlink:href="#HelveticaNeue-4c" transform="translate(246.390625 0)"/>
       <use xlink:href="#HelveticaNeue-46" transform="translate(300.09375 0)"/>
       <use xlink:href="#HelveticaNeue-18" transform="translate(350.09375 0)"/>
      </g>
     </g>
    </g>
    <g id="ytick_19">
     <g id="text_25">
      <!--  shape_3 -->
      <g style="fill: #666666" transform="translate(54.763125 139.527584) scale(0.13 -0.13)">
       <use xlink:href="#HelveticaNeue-3"/>
       <use xlink:href="#HelveticaNeue-5a" transform="translate(27.796875 0)"/>
       <use xlink:href="#HelveticaNeue-4f" transform="translate(77.796875 0)"/>
       <use xlink:href="#HelveticaNeue-48" transform="translate(133.390625 0)"/>
       <use xlink:href="#HelveticaNeue-57" transform="translate(187.09375 0)"/>
       <use xlink:href="#HelveticaNeue-4c" transform="translate(246.390625 0)"/>
       <use xlink:href="#HelveticaNeue-46" transform="translate(300.09375 0)"/>
       <use xlink:href="#HelveticaNeue-1a" transform="translate(350.09375 0)"/>
      </g>
     </g>
    </g>
    <g id="ytick_20">
     <g id="text_26">
      <!--  shape_6 -->
      <g style="fill: #666666" transform="translate(54.763125 105.760608) scale(0.13 -0.13)">
       <use xlink:href="#HelveticaNeue-3"/>
       <use xlink:href="#HelveticaNeue-5a" transform="translate(27.796875 0)"/>
       <use xlink:href="#HelveticaNeue-4f" transform="translate(77.796875 0)"/>
       <use xlink:href="#HelveticaNeue-48" transform="translate(133.390625 0)"/>
       <use xlink:href="#HelveticaNeue-57" transform="translate(187.09375 0)"/>
       <use xlink:href="#HelveticaNeue-4c" transform="translate(246.390625 0)"/>
       <use xlink:href="#HelveticaNeue-46" transform="translate(300.09375 0)"/>
       <use xlink:href="#HelveticaNeue-1d" transform="translate(350.09375 0)"/>
      </g>
     </g>
    </g>
   </g>
   <g id="patch_23">
    <path d="M 114.5025 433.528 
L 483.035918 433.528 
" style="fill: none; stroke: #bbbbbb; stroke-width: 0.8; stroke-linejoin: miter; stroke-linecap: square"/>
   </g>
   <g id="text_27">
    <!-- −0.62 -->
    <g style="fill: #ffffff" transform="translate(168.924287 104.006609) scale(0.12 -0.12)">
     <defs>
      <path id="HelveticaNeue-f2" d="M 307 1837 
L 307 1402 
L 3533 1402 
L 3533 1837 
L 307 1837 
z
" transform="scale(0.015625)"/>
     </defs>
     <use xlink:href="#HelveticaNeue-f2"/>
     <use xlink:href="#HelveticaNeue-17" transform="translate(60 0)"/>
     <use xlink:href="#HelveticaNeue-15" transform="translate(115.59375 0)"/>
     <use xlink:href="#HelveticaNeue-1d" transform="translate(143.390625 0)"/>
     <use xlink:href="#HelveticaNeue-19" transform="translate(198.984375 0)"/>
    </g>
   </g>
   <g id="text_28">
    <!-- −0.51 -->
    <g style="fill: #ffffff" transform="translate(201.038072 137.773584) scale(0.12 -0.12)">
     <use xlink:href="#HelveticaNeue-f2"/>
     <use xlink:href="#HelveticaNeue-17" transform="translate(60 0)"/>
     <use xlink:href="#HelveticaNeue-15" transform="translate(115.59375 0)"/>
     <use xlink:href="#HelveticaNeue-1c" transform="translate(143.390625 0)"/>
     <use xlink:href="#HelveticaNeue-18" transform="translate(198.984375 0)"/>
    </g>
   </g>
   <g id="text_29">
    <!-- −0.43 -->
    <g style="fill: #008bfb" transform="translate(196.07373 171.54056) scale(0.12 -0.12)">
     <use xlink:href="#HelveticaNeue-f2"/>
     <use xlink:href="#HelveticaNeue-17" transform="translate(60 0)"/>
     <use xlink:href="#HelveticaNeue-15" transform="translate(115.59375 0)"/>
     <use xlink:href="#HelveticaNeue-1b" transform="translate(143.390625 0)"/>
     <use xlink:href="#HelveticaNeue-1a" transform="translate(198.984375 0)"/>
    </g>
   </g>
   <g id="text_30">
    <!-- −0.4 -->
    <g style="fill: #ffffff" transform="translate(254.808053 205.307536) scale(0.12 -0.12)">
     <use xlink:href="#HelveticaNeue-f2"/>
     <use xlink:href="#HelveticaNeue-17" transform="translate(60 0)"/>
     <use xlink:href="#HelveticaNeue-15" transform="translate(115.59375 0)"/>
     <use xlink:href="#HelveticaNeue-1b" transform="translate(143.390625 0)"/>
    </g>
   </g>
   <g id="text_31">
    <!-- −0.38 -->
    <g style="fill: #008bfb" transform="translate(243.468687 239.074512) scale(0.12 -0.12)">
     <use xlink:href="#HelveticaNeue-f2"/>
     <use xlink:href="#HelveticaNeue-17" transform="translate(60 0)"/>
     <use xlink:href="#HelveticaNeue-15" transform="translate(115.59375 0)"/>
     <use xlink:href="#HelveticaNeue-1a" transform="translate(143.390625 0)"/>
     <use xlink:href="#HelveticaNeue-1f" transform="translate(198.984375 0)"/>
    </g>
   </g>
   <g id="text_32">
    <!-- −0.36 -->
    <g style="fill: #008bfb" transform="translate(265.325356 272.841488) scale(0.12 -0.12)">
     <use xlink:href="#HelveticaNeue-f2"/>
     <use xlink:href="#HelveticaNeue-17" transform="translate(60 0)"/>
     <use xlink:href="#HelveticaNeue-15" transform="translate(115.59375 0)"/>
     <use xlink:href="#HelveticaNeue-1a" transform="translate(143.390625 0)"/>
     <use xlink:href="#HelveticaNeue-1d" transform="translate(198.984375 0)"/>
    </g>
   </g>
   <g id="text_33">
    <!-- −0.35 -->
    <g style="fill: #008bfb" transform="translate(286.078491 306.608464) scale(0.12 -0.12)">
     <use xlink:href="#HelveticaNeue-f2"/>
     <use xlink:href="#HelveticaNeue-17" transform="translate(60 0)"/>
     <use xlink:href="#HelveticaNeue-15" transform="translate(115.59375 0)"/>
     <use xlink:href="#HelveticaNeue-1a" transform="translate(143.390625 0)"/>
     <use xlink:href="#HelveticaNeue-1c" transform="translate(198.984375 0)"/>
    </g>
   </g>
   <g id="text_34">
    <!-- −0.33 -->
    <g style="fill: #008bfb" transform="translate(305.917624 340.37544) scale(0.12 -0.12)">
     <use xlink:href="#HelveticaNeue-f2"/>
     <use xlink:href="#HelveticaNeue-17" transform="translate(60 0)"/>
     <use xlink:href="#HelveticaNeue-15" transform="translate(115.59375 0)"/>
     <use xlink:href="#HelveticaNeue-1a" transform="translate(143.390625 0)"/>
     <use xlink:href="#HelveticaNeue-1a" transform="translate(198.984375 0)"/>
    </g>
   </g>
   <g id="text_35">
    <!-- −0.31 -->
    <g style="fill: #008bfb" transform="translate(324.794773 374.142416) scale(0.12 -0.12)">
     <use xlink:href="#HelveticaNeue-f2"/>
     <use xlink:href="#HelveticaNeue-17" transform="translate(60 0)"/>
     <use xlink:href="#HelveticaNeue-15" transform="translate(115.59375 0)"/>
     <use xlink:href="#HelveticaNeue-1a" transform="translate(143.390625 0)"/>
     <use xlink:href="#HelveticaNeue-18" transform="translate(198.984375 0)"/>
    </g>
   </g>
   <g id="text_36">
    <!-- −1.8 -->
    <g style="fill: #ffffff" transform="translate(416.570403 407.909391) scale(0.12 -0.12)">
     <use xlink:href="#HelveticaNeue-f2"/>
     <use xlink:href="#HelveticaNeue-18" transform="translate(60 0)"/>
     <use xlink:href="#HelveticaNeue-15" transform="translate(115.59375 0)"/>
     <use xlink:href="#HelveticaNeue-1f" transform="translate(143.390625 0)"/>
    </g>
   </g>
  </g>
  <g id="axes_2">
   <g id="matplotlib.axis_3">
    <g id="xtick_7">
     <g id="line2d_28">
      <g>
       <use xlink:href="#m10c1bf922c" x="479.902131" y="433.528" style="fill: #666666; stroke: #666666; stroke-width: 0.8"/>
      </g>
     </g>
     <g id="text_37">
      <!--  -->
      <g style="fill: #666666" transform="translate(459.902131 452.12) scale(0.12 -0.12)"/>
      <!-- $E[f(X)]$ -->
      <g style="fill: #666666" transform="translate(459.902131 466.436) scale(0.12 -0.12)">
       <defs>
        <path id="DejaVuSans-Oblique-28" d="M 1081 4666 
L 4031 4666 
L 3928 4134 
L 1606 4134 
L 1338 2753 
L 3566 2753 
L 3463 2222 
L 1234 2222 
L 909 531 
L 3284 531 
L 3181 0 
L 172 0 
L 1081 4666 
z
" transform="scale(0.015625)"/>
        <path id="DejaVuSans-3e" d="M 550 4863 
L 1875 4863 
L 1875 4416 
L 1125 4416 
L 1125 -397 
L 1875 -397 
L 1875 -844 
L 550 -844 
L 550 4863 
z
" transform="scale(0.015625)"/>
        <path id="DejaVuSans-Oblique-49" d="M 3059 4863 
L 2969 4384 
L 2419 4384 
Q 2106 4384 1964 4261 
Q 1822 4138 1753 3809 
L 1691 3500 
L 2638 3500 
L 2553 3053 
L 1606 3053 
L 1013 0 
L 434 0 
L 1031 3053 
L 481 3053 
L 563 3500 
L 1113 3500 
L 1159 3744 
Q 1278 4363 1576 4613 
Q 1875 4863 2516 4863 
L 3059 4863 
z
" transform="scale(0.015625)"/>
        <path id="DejaVuSans-b" d="M 1984 4856 
Q 1566 4138 1362 3434 
Q 1159 2731 1159 2009 
Q 1159 1288 1364 580 
Q 1569 -128 1984 -844 
L 1484 -844 
Q 1016 -109 783 600 
Q 550 1309 550 2009 
Q 550 2706 781 3412 
Q 1013 4119 1484 4856 
L 1984 4856 
z
" transform="scale(0.015625)"/>
        <path id="DejaVuSans-Oblique-3b" d="M 878 4666 
L 1516 4666 
L 2316 2981 
L 3763 4666 
L 4500 4666 
L 2578 2438 
L 3738 0 
L 3103 0 
L 2163 1966 
L 459 0 
L -275 0 
L 1906 2509 
L 878 4666 
z
" transform="scale(0.015625)"/>
        <path id="DejaVuSans-c" d="M 513 4856 
L 1013 4856 
Q 1481 4119 1714 3412 
Q 1947 2706 1947 2009 
Q 1947 1309 1714 600 
Q 1481 -109 1013 -844 
L 513 -844 
Q 928 -128 1133 580 
Q 1338 1288 1338 2009 
Q 1338 2731 1133 3434 
Q 928 4138 513 4856 
z
" transform="scale(0.015625)"/>
        <path id="DejaVuSans-40" d="M 1947 4863 
L 1947 -844 
L 622 -844 
L 622 -397 
L 1369 -397 
L 1369 4416 
L 622 4416 
L 622 4863 
L 1947 4863 
z
" transform="scale(0.015625)"/>
       </defs>
       <use xlink:href="#DejaVuSans-Oblique-28" transform="translate(0 0.015625)"/>
       <use xlink:href="#DejaVuSans-3e" transform="translate(63.183594 0.015625)"/>
       <use xlink:href="#DejaVuSans-Oblique-49" transform="translate(102.197266 0.015625)"/>
       <use xlink:href="#DejaVuSans-b" transform="translate(137.402344 0.015625)"/>
       <use xlink:href="#DejaVuSans-Oblique-3b" transform="translate(176.416016 0.015625)"/>
       <use xlink:href="#DejaVuSans-c" transform="translate(244.921875 0.015625)"/>
       <use xlink:href="#DejaVuSans-40" transform="translate(283.935547 0.015625)"/>
      </g>
     </g>
    </g>
    <g id="xtick_8">
     <g id="line2d_29">
      <g>
       <use xlink:href="#m10c1bf922c" x="479.902131" y="433.528" style="fill: #666666; stroke: #666666; stroke-width: 0.8"/>
      </g>
     </g>
     <g id="text_38">
      <!--  -->
      <g style="fill: #999999" transform="translate(501.902131 453.12) scale(0.12 -0.12)"/>
      <!-- $ = 11.897$ -->
      <g style="fill: #999999" transform="translate(501.902131 467.436) scale(0.12 -0.12)">
       <defs>
        <path id="DejaVuSans-20" d="M 678 2906 
L 4684 2906 
L 4684 2381 
L 678 2381 
L 678 2906 
z
M 678 1631 
L 4684 1631 
L 4684 1100 
L 678 1100 
L 678 1631 
z
" transform="scale(0.015625)"/>
        <path id="DejaVuSans-14" d="M 794 531 
L 1825 531 
L 1825 4091 
L 703 3866 
L 703 4441 
L 1819 4666 
L 2450 4666 
L 2450 531 
L 3481 531 
L 3481 0 
L 794 0 
L 794 531 
z
" transform="scale(0.015625)"/>
        <path id="DejaVuSans-11" d="M 684 794 
L 1344 794 
L 1344 0 
L 684 0 
L 684 794 
z
" transform="scale(0.015625)"/>
        <path id="DejaVuSans-1b" d="M 2034 2216 
Q 1584 2216 1326 1975 
Q 1069 1734 1069 1313 
Q 1069 891 1326 650 
Q 1584 409 2034 409 
Q 2484 409 2743 651 
Q 3003 894 3003 1313 
Q 3003 1734 2745 1975 
Q 2488 2216 2034 2216 
z
M 1403 2484 
Q 997 2584 770 2862 
Q 544 3141 544 3541 
Q 544 4100 942 4425 
Q 1341 4750 2034 4750 
Q 2731 4750 3128 4425 
Q 3525 4100 3525 3541 
Q 3525 3141 3298 2862 
Q 3072 2584 2669 2484 
Q 3125 2378 3379 2068 
Q 3634 1759 3634 1313 
Q 3634 634 3220 271 
Q 2806 -91 2034 -91 
Q 1263 -91 848 271 
Q 434 634 434 1313 
Q 434 1759 690 2068 
Q 947 2378 1403 2484 
z
M 1172 3481 
Q 1172 3119 1398 2916 
Q 1625 2713 2034 2713 
Q 2441 2713 2670 2916 
Q 2900 3119 2900 3481 
Q 2900 3844 2670 4047 
Q 2441 4250 2034 4250 
Q 1625 4250 1398 4047 
Q 1172 3844 1172 3481 
z
" transform="scale(0.015625)"/>
        <path id="DejaVuSans-1c" d="M 703 97 
L 703 672 
Q 941 559 1184 500 
Q 1428 441 1663 441 
Q 2288 441 2617 861 
Q 2947 1281 2994 2138 
Q 2813 1869 2534 1725 
Q 2256 1581 1919 1581 
Q 1219 1581 811 2004 
Q 403 2428 403 3163 
Q 403 3881 828 4315 
Q 1253 4750 1959 4750 
Q 2769 4750 3195 4129 
Q 3622 3509 3622 2328 
Q 3622 1225 3098 567 
Q 2575 -91 1691 -91 
Q 1453 -91 1209 -44 
Q 966 3 703 97 
z
M 1959 2075 
Q 2384 2075 2632 2365 
Q 2881 2656 2881 3163 
Q 2881 3666 2632 3958 
Q 2384 4250 1959 4250 
Q 1534 4250 1286 3958 
Q 1038 3666 1038 3163 
Q 1038 2656 1286 2365 
Q 1534 2075 1959 2075 
z
" transform="scale(0.015625)"/>
        <path id="DejaVuSans-1a" d="M 525 4666 
L 3525 4666 
L 3525 4397 
L 1831 0 
L 1172 0 
L 2766 4134 
L 525 4134 
L 525 4666 
z
" transform="scale(0.015625)"/>
       </defs>
       <use xlink:href="#DejaVuSans-20" transform="translate(19.482422 0.78125)"/>
       <use xlink:href="#DejaVuSans-14" transform="translate(122.753906 0.78125)"/>
       <use xlink:href="#DejaVuSans-14" transform="translate(186.376953 0.78125)"/>
       <use xlink:href="#DejaVuSans-11" transform="translate(250 0.78125)"/>
       <use xlink:href="#DejaVuSans-1b" transform="translate(281.787109 0.78125)"/>
       <use xlink:href="#DejaVuSans-1c" transform="translate(345.410156 0.78125)"/>
       <use xlink:href="#DejaVuSans-1a" transform="translate(409.033203 0.78125)"/>
      </g>
     </g>
    </g>
   </g>
   <g id="patch_24">
    <path d="M 114.5025 433.528 
L 483.035918 433.528 
" style="fill: none; stroke: #bbbbbb; stroke-width: 0.8; stroke-linejoin: miter; stroke-linecap: square"/>
   </g>
  </g>
  <g id="axes_3">
   <g id="matplotlib.axis_4">
    <g id="xtick_9">
     <g id="line2d_30">
      <defs>
       <path id="m78275c2bfe" d="M 0 0 
L 0 -3.5 
" style="stroke: #666666; stroke-width: 0.8"/>
      </defs>
      <g>
       <use xlink:href="#m78275c2bfe" x="166.523374" y="69.52" style="fill: #666666; stroke: #666666; stroke-width: 0.8"/>
      </g>
     </g>
     <g id="text_39">
      <!-- $f(x)$ -->
      <g style="fill: #666666" transform="translate(156.523374 59.964) scale(0.12 -0.12)">
       <defs>
        <path id="DejaVuSans-Oblique-5b" d="M 3841 3500 
L 2234 1784 
L 3219 0 
L 2559 0 
L 1819 1388 
L 531 0 
L -166 0 
L 1556 1844 
L 641 3500 
L 1300 3500 
L 1972 2234 
L 3144 3500 
L 3841 3500 
z
" transform="scale(0.015625)"/>
       </defs>
       <use xlink:href="#DejaVuSans-Oblique-49" transform="translate(0 0.015625)"/>
       <use xlink:href="#DejaVuSans-b" transform="translate(35.205078 0.015625)"/>
       <use xlink:href="#DejaVuSans-Oblique-5b" transform="translate(74.21875 0.015625)"/>
       <use xlink:href="#DejaVuSans-c" transform="translate(133.398438 0.015625)"/>
      </g>
     </g>
    </g>
    <g id="xtick_10">
     <g id="line2d_31">
      <g>
       <use xlink:href="#m78275c2bfe" x="166.523374" y="69.52" style="fill: #666666; stroke: #666666; stroke-width: 0.8"/>
      </g>
     </g>
     <g id="text_40">
      <!-- $ = 6.402$ -->
      <g style="fill: #999999" transform="translate(178.523374 59.964) scale(0.12 -0.12)">
       <defs>
        <path id="DejaVuSans-19" d="M 2113 2584 
Q 1688 2584 1439 2293 
Q 1191 2003 1191 1497 
Q 1191 994 1439 701 
Q 1688 409 2113 409 
Q 2538 409 2786 701 
Q 3034 994 3034 1497 
Q 3034 2003 2786 2293 
Q 2538 2584 2113 2584 
z
M 3366 4563 
L 3366 3988 
Q 3128 4100 2886 4159 
Q 2644 4219 2406 4219 
Q 1781 4219 1451 3797 
Q 1122 3375 1075 2522 
Q 1259 2794 1537 2939 
Q 1816 3084 2150 3084 
Q 2853 3084 3261 2657 
Q 3669 2231 3669 1497 
Q 3669 778 3244 343 
Q 2819 -91 2113 -91 
Q 1303 -91 875 529 
Q 447 1150 447 2328 
Q 447 3434 972 4092 
Q 1497 4750 2381 4750 
Q 2619 4750 2861 4703 
Q 3103 4656 3366 4563 
z
" transform="scale(0.015625)"/>
        <path id="DejaVuSans-17" d="M 2419 4116 
L 825 1625 
L 2419 1625 
L 2419 4116 
z
M 2253 4666 
L 3047 4666 
L 3047 1625 
L 3713 1625 
L 3713 1100 
L 3047 1100 
L 3047 0 
L 2419 0 
L 2419 1100 
L 313 1100 
L 313 1709 
L 2253 4666 
z
" transform="scale(0.015625)"/>
        <path id="DejaVuSans-13" d="M 2034 4250 
Q 1547 4250 1301 3770 
Q 1056 3291 1056 2328 
Q 1056 1369 1301 889 
Q 1547 409 2034 409 
Q 2525 409 2770 889 
Q 3016 1369 3016 2328 
Q 3016 3291 2770 3770 
Q 2525 4250 2034 4250 
z
M 2034 4750 
Q 2819 4750 3233 4129 
Q 3647 3509 3647 2328 
Q 3647 1150 3233 529 
Q 2819 -91 2034 -91 
Q 1250 -91 836 529 
Q 422 1150 422 2328 
Q 422 3509 836 4129 
Q 1250 4750 2034 4750 
z
" transform="scale(0.015625)"/>
        <path id="DejaVuSans-15" d="M 1228 531 
L 3431 531 
L 3431 0 
L 469 0 
L 469 531 
Q 828 903 1448 1529 
Q 2069 2156 2228 2338 
Q 2531 2678 2651 2914 
Q 2772 3150 2772 3378 
Q 2772 3750 2511 3984 
Q 2250 4219 1831 4219 
Q 1534 4219 1204 4116 
Q 875 4013 500 3803 
L 500 4441 
Q 881 4594 1212 4672 
Q 1544 4750 1819 4750 
Q 2544 4750 2975 4387 
Q 3406 4025 3406 3419 
Q 3406 3131 3298 2873 
Q 3191 2616 2906 2266 
Q 2828 2175 2409 1742 
Q 1991 1309 1228 531 
z
" transform="scale(0.015625)"/>
       </defs>
       <use xlink:href="#DejaVuSans-20" transform="translate(19.482422 0.78125)"/>
       <use xlink:href="#DejaVuSans-19" transform="translate(122.753906 0.78125)"/>
       <use xlink:href="#DejaVuSans-11" transform="translate(186.376953 0.78125)"/>
       <use xlink:href="#DejaVuSans-17" transform="translate(218.164062 0.78125)"/>
       <use xlink:href="#DejaVuSans-13" transform="translate(281.787109 0.78125)"/>
       <use xlink:href="#DejaVuSans-15" transform="translate(345.410156 0.78125)"/>
      </g>
     </g>
    </g>
   </g>
   <g id="patch_25">
    <path d="M 114.5025 433.528 
L 483.035918 433.528 
" style="fill: none; stroke: #bbbbbb; stroke-width: 0.8; stroke-linejoin: miter; stroke-linecap: square"/>
   </g>
  </g>
  <g id="text_41">
   <!-- Which real features the IsolationForest blamed -->
   <g transform="translate(156.55125 15.024) scale(0.12 -0.12)">
    <defs>
     <path id="HelveticaNeue-3e" d="M 4627 0 
L 5850 4570 
L 5242 4570 
L 4314 768 
L 4301 768 
L 3290 4570 
L 2630 4570 
L 1606 768 
L 1594 768 
L 698 4570 
L 77 4570 
L 1248 0 
L 1882 0 
L 2938 3840 
L 2950 3840 
L 3994 0 
L 4627 0 
z
" transform="scale(0.015625)"/>
     <path id="HelveticaNeue-50" d="M 986 3904 
L 986 4570 
L 442 4570 
L 442 3904 
L 986 3904 
z
M 442 3309 
L 442 0 
L 986 0 
L 986 3309 
L 442 3309 
z
" transform="scale(0.015625)"/>
     <path id="HelveticaNeue-4a" d="M 2656 2246 
L 3219 2246 
Q 3187 2541 3065 2755 
Q 2944 2970 2755 3110 
Q 2566 3251 2320 3318 
Q 2074 3386 1792 3386 
Q 1402 3386 1107 3248 
Q 813 3110 617 2870 
Q 422 2630 326 2307 
Q 230 1984 230 1613 
Q 230 1242 329 931 
Q 429 621 624 397 
Q 819 173 1110 51 
Q 1402 -70 1779 -70 
Q 2413 -70 2781 262 
Q 3149 595 3238 1210 
L 2682 1210 
Q 2630 826 2403 614 
Q 2176 403 1773 403 
Q 1517 403 1331 505 
Q 1146 608 1030 777 
Q 915 947 860 1164 
Q 806 1382 806 1613 
Q 806 1862 857 2096 
Q 909 2330 1027 2509 
Q 1146 2688 1344 2797 
Q 1542 2906 1837 2906 
Q 2182 2906 2387 2733 
Q 2592 2560 2656 2246 
z
" transform="scale(0.015625)"/>
     <path id="HelveticaNeue-53" d="M 442 4570 
L 442 0 
L 986 0 
L 986 4570 
L 442 4570 
z
" transform="scale(0.015625)"/>
     <path id="HelveticaNeue-30" d="M 525 4570 
L 525 0 
L 1133 0 
L 1133 4570 
L 525 4570 
z
" transform="scale(0.015625)"/>
     <path id="HelveticaNeue-55" d="M 410 3309 
L 410 0 
L 954 0 
L 954 1869 
Q 954 2093 1014 2281 
Q 1075 2470 1196 2611 
Q 1318 2752 1500 2829 
Q 1683 2906 1933 2906 
Q 2246 2906 2425 2726 
Q 2605 2547 2605 2240 
L 2605 0 
L 3149 0 
L 3149 2176 
Q 3149 2445 3094 2665 
Q 3040 2886 2905 3046 
Q 2771 3206 2553 3296 
Q 2336 3386 2010 3386 
Q 1274 3386 934 2784 
L 922 2784 
L 922 3309 
L 410 3309 
z
" transform="scale(0.015625)"/>
     <path id="HelveticaNeue-2d" d="M 499 4570 
L 499 0 
L 1107 0 
L 1107 2093 
L 3206 2093 
L 3206 2605 
L 1107 2605 
L 1107 4058 
L 3501 4058 
L 3501 4570 
L 499 4570 
z
" transform="scale(0.015625)"/>
     <path id="HelveticaNeue-49" d="M 429 4570 
L 429 0 
L 973 0 
L 973 442 
L 986 442 
Q 1075 294 1206 195 
Q 1338 96 1485 38 
Q 1632 -19 1782 -44 
Q 1933 -70 2054 -70 
Q 2432 -70 2717 64 
Q 3002 198 3190 432 
Q 3379 666 3472 979 
Q 3565 1293 3565 1645 
Q 3565 1997 3469 2310 
Q 3373 2624 3184 2864 
Q 2995 3104 2710 3245 
Q 2426 3386 2042 3386 
Q 1696 3386 1408 3261 
Q 1120 3136 986 2861 
L 973 2861 
L 973 4570 
L 429 4570 
z
M 2989 1683 
Q 2989 1440 2937 1209 
Q 2886 979 2771 800 
Q 2656 621 2467 512 
Q 2278 403 1997 403 
Q 1715 403 1516 508 
Q 1318 614 1193 787 
Q 1069 960 1011 1187 
Q 954 1414 954 1658 
Q 954 1888 1008 2112 
Q 1062 2336 1184 2512 
Q 1306 2688 1498 2797 
Q 1690 2906 1965 2906 
Q 2227 2906 2422 2803 
Q 2618 2701 2742 2528 
Q 2867 2355 2928 2134 
Q 2989 1914 2989 1683 
z
" transform="scale(0.015625)"/>
     <path id="HelveticaNeue-54" d="M 410 3309 
L 410 0 
L 954 0 
L 954 2061 
Q 954 2157 1002 2301 
Q 1050 2445 1155 2579 
Q 1261 2714 1430 2810 
Q 1600 2906 1837 2906 
Q 2022 2906 2140 2851 
Q 2259 2797 2329 2697 
Q 2400 2598 2429 2464 
Q 2458 2330 2458 2170 
L 2458 0 
L 3002 0 
L 3002 2061 
Q 3002 2445 3232 2675 
Q 3462 2906 3866 2906 
Q 4064 2906 4189 2848 
Q 4314 2790 4384 2691 
Q 4454 2592 4480 2457 
Q 4506 2323 4506 2170 
L 4506 0 
L 5050 0 
L 5050 2426 
Q 5050 2682 4970 2864 
Q 4890 3046 4746 3161 
Q 4602 3277 4400 3331 
Q 4198 3386 3949 3386 
Q 3622 3386 3350 3238 
Q 3078 3091 2912 2822 
Q 2810 3130 2560 3258 
Q 2310 3386 2003 3386 
Q 1306 3386 934 2822 
L 922 2822 
L 922 3309 
L 410 3309 
z
" transform="scale(0.015625)"/>
     <path id="HelveticaNeue-4b" d="M 806 1626 
Q 806 1869 857 2099 
Q 909 2330 1024 2509 
Q 1139 2688 1331 2797 
Q 1523 2906 1798 2906 
Q 2080 2906 2278 2800 
Q 2477 2694 2601 2521 
Q 2726 2349 2784 2121 
Q 2842 1894 2842 1651 
Q 2842 1421 2787 1197 
Q 2733 973 2611 797 
Q 2490 621 2298 512 
Q 2106 403 1830 403 
Q 1568 403 1373 505 
Q 1178 608 1053 781 
Q 928 954 867 1174 
Q 806 1395 806 1626 
z
M 3366 0 
L 3366 4570 
L 2822 4570 
L 2822 2867 
L 2810 2867 
Q 2720 3014 2589 3113 
Q 2458 3213 2310 3273 
Q 2163 3334 2016 3360 
Q 1869 3386 1741 3386 
Q 1363 3386 1078 3248 
Q 794 3110 605 2876 
Q 416 2643 323 2329 
Q 230 2016 230 1664 
Q 230 1312 326 998 
Q 422 685 611 448 
Q 800 211 1085 70 
Q 1370 -70 1754 -70 
Q 2099 -70 2387 51 
Q 2675 173 2810 448 
L 2822 448 
L 2822 0 
L 3366 0 
z
" transform="scale(0.015625)"/>
    </defs>
    <use xlink:href="#HelveticaNeue-3e"/>
    <use xlink:href="#HelveticaNeue-4f" transform="translate(92.59375 0)"/>
    <use xlink:href="#HelveticaNeue-50" transform="translate(148.1875 0)"/>
    <use xlink:href="#HelveticaNeue-4a" transform="translate(170.390625 0)"/>
    <use xlink:href="#HelveticaNeue-4f" transform="translate(224.09375 0)"/>
    <use xlink:href="#HelveticaNeue-3" transform="translate(279.6875 0)"/>
    <use xlink:href="#HelveticaNeue-59" transform="translate(307.484375 0)"/>
    <use xlink:href="#HelveticaNeue-4c" transform="translate(338.984375 0)"/>
    <use xlink:href="#HelveticaNeue-48" transform="translate(392.6875 0)"/>
    <use xlink:href="#HelveticaNeue-53" transform="translate(446.390625 0)"/>
    <use xlink:href="#HelveticaNeue-3" transform="translate(468.59375 0)"/>
    <use xlink:href="#HelveticaNeue-4d" transform="translate(496.390625 0)"/>
    <use xlink:href="#HelveticaNeue-4c" transform="translate(525.984375 0)"/>
    <use xlink:href="#HelveticaNeue-48" transform="translate(579.6875 0)"/>
    <use xlink:href="#HelveticaNeue-5b" transform="translate(633.390625 0)"/>
    <use xlink:href="#HelveticaNeue-5c" transform="translate(664.890625 0)"/>
    <use xlink:href="#HelveticaNeue-59" transform="translate(720.484375 0)"/>
    <use xlink:href="#HelveticaNeue-4c" transform="translate(751.984375 0)"/>
    <use xlink:href="#HelveticaNeue-5a" transform="translate(805.6875 0)"/>
    <use xlink:href="#HelveticaNeue-3" transform="translate(855.6875 0)"/>
    <use xlink:href="#HelveticaNeue-5b" transform="translate(883.484375 0)"/>
    <use xlink:href="#HelveticaNeue-4f" transform="translate(914.984375 0)"/>
    <use xlink:href="#HelveticaNeue-4c" transform="translate(970.578125 0)"/>
    <use xlink:href="#HelveticaNeue-3" transform="translate(1024.28125 0)"/>
    <use xlink:href="#HelveticaNeue-30" transform="translate(1052.078125 0)"/>
    <use xlink:href="#HelveticaNeue-5a" transform="translate(1077.984375 0)"/>
    <use xlink:href="#HelveticaNeue-56" transform="translate(1127.984375 0)"/>
    <use xlink:href="#HelveticaNeue-53" transform="translate(1185.390625 0)"/>
    <use xlink:href="#HelveticaNeue-48" transform="translate(1207.59375 0)"/>
    <use xlink:href="#HelveticaNeue-5b" transform="translate(1261.296875 0)"/>
    <use xlink:href="#HelveticaNeue-50" transform="translate(1292.796875 0)"/>
    <use xlink:href="#HelveticaNeue-56" transform="translate(1315 0)"/>
    <use xlink:href="#HelveticaNeue-55" transform="translate(1372.40625 0)"/>
    <use xlink:href="#HelveticaNeue-2d" transform="translate(1428 0)"/>
    <use xlink:href="#HelveticaNeue-56" transform="translate(1485.40625 0)"/>
    <use xlink:href="#HelveticaNeue-59" transform="translate(1542.8125 0)"/>
    <use xlink:href="#HelveticaNeue-4c" transform="translate(1574.3125 0)"/>
    <use xlink:href="#HelveticaNeue-5a" transform="translate(1628.015625 0)"/>
    <use xlink:href="#HelveticaNeue-5b" transform="translate(1678.015625 0)"/>
    <use xlink:href="#HelveticaNeue-3" transform="translate(1709.515625 0)"/>
    <use xlink:href="#HelveticaNeue-49" transform="translate(1737.3125 0)"/>
    <use xlink:href="#HelveticaNeue-53" transform="translate(1796.609375 0)"/>
    <use xlink:href="#HelveticaNeue-48" transform="translate(1818.8125 0)"/>
    <use xlink:href="#HelveticaNeue-54" transform="translate(1872.515625 0)"/>
    <use xlink:href="#HelveticaNeue-4c" transform="translate(1957.8125 0)"/>
    <use xlink:href="#HelveticaNeue-4b" transform="translate(2011.515625 0)"/>
   </g>
  </g>
 </g>
 <defs>
  <clipPath id="pd9fc01e528">
   <rect x="114.5025" y="69.52" width="368.533418" height="364.008"/>
  </clipPath>
 </defs>
</svg>
